<?xml version="1.0" encoding="UTF-8" standalone="no"?>
<!-- Created with Inkscape (http://www.inkscape.org/) -->

<svg
   xmlns:dc="http://purl.org/dc/elements/1.1/"
   xmlns:cc="http://creativecommons.org/ns#"
   xmlns:rdf="http://www.w3.org/1999/02/22-rdf-syntax-ns#"
   xmlns:svg="http://www.w3.org/2000/svg"
   xmlns="http://www.w3.org/2000/svg"
   xmlns:sodipodi="http://sodipodi.sourceforge.net/DTD/sodipodi-0.dtd"
   xmlns:inkscape="http://www.inkscape.org/namespaces/inkscape"
   id="svg2"
   version="1.1"
   inkscape:version="0.91 r13725"
   xml:space="preserve"
   width="229.18735"
   height="59.703365"
   viewBox="0 0 229.18735 59.703365"
   sodipodi:docname="logo.svg"><metadata
     id="metadata8"><rdf:RDF><cc:Work
         rdf:about=""><dc:format>image/svg+xml</dc:format><dc:type
           rdf:resource="http://purl.org/dc/dcmitype/StillImage" /><dc:title></dc:title></cc:Work></rdf:RDF></metadata><defs
     id="defs6" /><sodipodi:namedview
     pagecolor="#ffffff"
     bordercolor="#666666"
     borderopacity="1"
     objecttolerance="10"
     gridtolerance="10"
     guidetolerance="10"
     inkscape:pageopacity="0"
     inkscape:pageshadow="2"
     inkscape:window-width="1137"
     inkscape:window-height="651"
     id="namedview4"
     showgrid="false"
     inkscape:zoom="1.7583868"
     inkscape:cx="-7.3931402"
     inkscape:cy="29.851683"
     inkscape:window-x="0"
     inkscape:window-y="0"
     inkscape:window-maximized="0"
     inkscape:current-layer="g10" /><g
     id="g10"
     inkscape:groupmode="layer"
     inkscape:label="logo"
     transform="matrix(1.25,0,0,-1.25,0,59.703364)"><g
       id="g12"><path
         d="m 29.75,28.532 5.266,0 c -0.297,2.106 -0.926,3.953 -1.887,5.539 -0.957,1.625 -2.16,2.973 -3.602,4.047 -1.437,1.07 -3.082,1.883 -4.929,2.438 -1.848,0.55 -3.805,0.828 -5.871,0.828 -3.032,0 -5.727,-0.551 -8.09,-1.66 C 8.309,38.653 6.352,37.173 4.766,35.29 3.215,33.407 2.031,31.192 1.219,28.642 0.406,26.13 0,23.435 0,20.556 0,17.673 0.371,14.978 1.109,12.466 1.883,9.954 3.027,7.774 4.543,5.927 6.059,4.083 7.961,2.622 10.25,1.552 c 2.289,-1.035 4.969,-1.551 8.031,-1.551 5.063,0 9.051,1.383 11.969,4.152 2.918,2.774 4.633,6.649 5.152,11.637 l -5.265,0 C 30.027,14.165 29.695,12.649 29.141,11.247 28.586,9.845 27.812,8.626 26.816,7.591 25.855,6.595 24.691,5.798 23.324,5.208 21.996,4.653 20.461,4.376 18.727,4.376 c -2.364,0 -4.395,0.445 -6.094,1.332 -1.699,0.887 -3.106,2.066 -4.211,3.543 -1.07,1.516 -1.867,3.27 -2.383,5.266 -0.516,2.031 -0.777,4.171 -0.777,6.425 0,2.067 0.261,4.063 0.777,5.985 0.516,1.918 1.313,3.617 2.383,5.094 1.105,1.515 2.492,2.714 4.156,3.601 1.695,0.887 3.727,1.332 6.094,1.332 2.769,0 5.152,-0.703 7.144,-2.105 2.032,-1.407 3.344,-3.508 3.934,-6.317 z"
         style="fill:#000000;fill-opacity:1;fill-rule:nonzero;stroke:none"
         id="path14"
         inkscape:connector-curvature="0" /><path
         d="m 44.637,15.181 c 0,1.734 0.218,3.269 0.664,4.597 0.48,1.368 1.125,2.512 1.937,3.434 0.813,0.926 1.754,1.625 2.824,2.105 1.11,0.481 2.274,0.723 3.493,0.723 1.218,0 2.363,-0.242 3.433,-0.723 1.11,-0.48 2.071,-1.179 2.883,-2.105 0.813,-0.922 1.441,-2.066 1.883,-3.434 0.48,-1.328 0.719,-2.863 0.719,-4.597 0,-1.739 -0.239,-3.289 -0.719,-4.657 C 61.312,9.196 60.684,8.071 59.871,7.146 59.059,6.259 58.098,5.575 56.988,5.099 55.918,4.618 54.773,4.376 53.555,4.376 c -1.219,0 -2.383,0.242 -3.493,0.723 -1.07,0.476 -2.011,1.16 -2.824,2.047 -0.812,0.925 -1.457,2.05 -1.937,3.378 -0.446,1.368 -0.664,2.918 -0.664,4.657 z m -4.989,0 c 0,-2.106 0.297,-4.063 0.887,-5.875 0.59,-1.809 1.477,-3.395 2.66,-4.762 1.18,-1.332 2.641,-2.383 4.375,-3.16 1.739,-0.738 3.731,-1.106 5.985,-1.106 2.289,0 4.285,0.368 5.984,1.106 1.734,0.777 3.195,1.828 4.375,3.16 1.184,1.367 2.07,2.953 2.66,4.762 0.59,1.812 0.887,3.769 0.887,5.875 0,2.105 -0.297,4.062 -0.887,5.871 -0.59,1.847 -1.476,3.437 -2.66,4.765 -1.18,1.368 -2.641,2.438 -4.375,3.215 -1.699,0.774 -3.695,1.16 -5.984,1.16 -2.254,0 -4.246,-0.386 -5.985,-1.16 -1.734,-0.777 -3.195,-1.847 -4.375,-3.215 -1.183,-1.328 -2.07,-2.918 -2.66,-4.765 -0.59,-1.809 -0.887,-3.766 -0.887,-5.871 z"
         style="fill:#000000;fill-opacity:1;fill-rule:nonzero;stroke:none"
         id="path16"
         inkscape:connector-curvature="0" /><path
         d="m 92.352,20.333 4.875,0 c -0.184,1.699 -0.629,3.156 -1.332,4.375 -0.7,1.258 -1.606,2.293 -2.715,3.105 -1.071,0.813 -2.325,1.403 -3.766,1.77 -1.402,0.406 -2.918,0.609 -4.543,0.609 -2.254,0 -4.23,-0.406 -5.93,-1.218 -1.695,-0.774 -3.117,-1.864 -4.265,-3.266 -1.106,-1.367 -1.938,-2.992 -2.492,-4.875 -0.555,-1.848 -0.832,-3.844 -0.832,-5.984 0,-2.145 0.277,-4.118 0.832,-5.93 0.589,-1.773 1.441,-3.305 2.55,-4.598 1.145,-1.293 2.547,-2.289 4.207,-2.992 1.7,-0.703 3.641,-1.051 5.821,-1.051 3.656,0 6.535,0.961 8.64,2.879 2.145,1.922 3.473,4.656 3.989,8.199 l -4.821,0 C 92.277,9.142 91.465,7.423 90.133,6.204 88.844,4.985 87.031,4.376 84.707,4.376 c -1.48,0 -2.754,0.297 -3.824,0.887 -1.071,0.59 -1.942,1.367 -2.606,2.328 -0.664,0.996 -1.164,2.121 -1.496,3.379 -0.293,1.254 -0.441,2.547 -0.441,3.879 0,1.441 0.148,2.824 0.441,4.152 0.297,1.367 0.778,2.57 1.442,3.602 0.703,1.035 1.625,1.867 2.769,2.496 1.145,0.625 2.567,0.941 4.266,0.941 1.996,0 3.586,-0.5 4.765,-1.496 1.184,-1 1.957,-2.402 2.329,-4.211 z"
         style="fill:#000000;fill-opacity:1;fill-rule:nonzero;stroke:none"
         id="path18"
         inkscape:connector-curvature="0" /><path
         d="m 102.938,29.528 4.711,0 0,-28.641 -4.711,0 0,28.641 z"
         style="fill:#000000;fill-opacity:1;fill-rule:nonzero;stroke:none"
         id="path20"
         inkscape:connector-curvature="0" /><path
         d="m 134.441,20.333 4.879,0 c -0.187,1.699 -0.629,3.156 -1.332,4.375 -0.703,1.258 -1.605,2.293 -2.715,3.105 -1.07,0.813 -2.328,1.403 -3.765,1.77 -1.406,0.406 -2.918,0.609 -4.543,0.609 -2.254,0 -4.231,-0.406 -5.93,-1.218 -1.699,-0.774 -3.121,-1.864 -4.265,-3.266 -1.11,-1.367 -1.938,-2.992 -2.493,-4.875 -0.554,-1.848 -0.832,-3.844 -0.832,-5.984 0,-2.145 0.278,-4.118 0.832,-5.93 0.59,-1.773 1.442,-3.305 2.547,-4.598 1.145,-1.293 2.551,-2.289 4.211,-2.992 1.699,-0.703 3.637,-1.051 5.817,-1.051 3.656,0 6.539,0.961 8.644,2.879 2.141,1.922 3.473,4.656 3.988,8.199 l -4.82,0 c -0.293,-2.214 -1.109,-3.933 -2.437,-5.152 -1.293,-1.219 -3.102,-1.828 -5.43,-1.828 -1.477,0 -2.75,0.297 -3.82,0.887 -1.075,0.59 -1.942,1.367 -2.606,2.328 -0.664,0.996 -1.164,2.121 -1.496,3.379 -0.297,1.254 -0.441,2.547 -0.441,3.879 0,1.441 0.144,2.824 0.441,4.152 0.297,1.367 0.777,2.57 1.441,3.602 0.7,1.035 1.625,1.867 2.77,2.496 1.144,0.625 2.566,0.941 4.266,0.941 1.996,0 3.582,-0.5 4.765,-1.496 1.18,-1 1.957,-2.402 2.324,-4.211 z"
         style="fill:#000000;fill-opacity:1;fill-rule:nonzero;stroke:none"
         id="path22"
         inkscape:connector-curvature="0" /><path
         d="m 145.031,40.442 4.707,0 0,-39.555 -4.707,0 0,39.555 z"
         style="fill:#000000;fill-opacity:1;fill-rule:nonzero;stroke:none"
         id="path24"
         inkscape:connector-curvature="0" /><path
         d="m 160.523,15.181 c 0,1.734 0.223,3.269 0.665,4.597 0.48,1.368 1.128,2.512 1.941,3.434 0.812,0.926 1.754,1.625 2.824,2.105 1.109,0.481 2.274,0.723 3.492,0.723 1.219,0 2.364,-0.242 3.434,-0.723 1.109,-0.48 2.07,-1.179 2.883,-2.105 0.812,-0.922 1.437,-2.066 1.883,-3.434 0.48,-1.328 0.718,-2.863 0.718,-4.597 0,-1.739 -0.238,-3.289 -0.718,-4.657 -0.446,-1.328 -1.071,-2.453 -1.883,-3.378 -0.813,-0.887 -1.774,-1.571 -2.883,-2.047 -1.07,-0.481 -2.215,-0.723 -3.434,-0.723 -1.218,0 -2.383,0.242 -3.492,0.723 -1.07,0.476 -2.012,1.16 -2.824,2.047 -0.813,0.925 -1.461,2.05 -1.941,3.378 -0.442,1.368 -0.665,2.918 -0.665,4.657 z m -4.984,0 c 0,-2.106 0.293,-4.063 0.887,-5.875 0.59,-1.809 1.476,-3.395 2.656,-4.762 1.184,-1.332 2.645,-2.383 4.379,-3.16 1.734,-0.738 3.73,-1.106 5.984,-1.106 2.289,0 4.282,0.368 5.981,1.106 1.738,0.777 3.195,1.828 4.379,3.16 1.179,1.367 2.066,2.953 2.66,4.762 0.59,1.812 0.887,3.769 0.887,5.875 0,2.105 -0.297,4.062 -0.887,5.871 -0.594,1.847 -1.481,3.437 -2.66,4.765 -1.184,1.368 -2.641,2.438 -4.379,3.215 -1.699,0.774 -3.692,1.16 -5.981,1.16 -2.254,0 -4.25,-0.386 -5.984,-1.16 -1.734,-0.777 -3.195,-1.847 -4.379,-3.215 -1.18,-1.328 -2.066,-2.918 -2.656,-4.765 -0.594,-1.809 -0.887,-3.766 -0.887,-5.871 z"
         style="fill:#000000;fill-opacity:1;fill-rule:nonzero;stroke:none"
         id="path26"
         inkscape:connector-curvature="0" /><g
         id="g28"
         transform="matrix(1,0,0,-1,0,47.762691)"><path
           d="m 103.641,15.965 c 0,0 -0.18,-2.52 0.207,-3.688 0.437,-1.324 1.254,-2.574 2.304,-3.492 1.457,-1.277 3,-2.652 5.235,-2.523 2.234,0.129 3.789,-0.485 6.019,-0.356 0,0 -1.527,4.176 -2.832,5.594 -1.133,1.242 -2.582,2.977 -3.976,3.109 -1.399,0.129 -2.868,-0.078 -4.188,0.387 l -2.769,0.969 z"
           style="fill:#00c800;fill-opacity:1;fill-rule:evenodd;stroke:#000000;stroke-width:0.981529;stroke-linecap:butt;stroke-linejoin:miter;stroke-miterlimit:4;stroke-dasharray:none;stroke-opacity:1"
           id="path30"
           inkscape:connector-curvature="0" /></g></g></g></svg>