G04 EAGLE Gerber X2 export*
%TF.Part,Single*%
%TF.FileFunction,Copper,L1,Top,Mixed*%
%TF.FilePolarity,Positive*%
%TF.GenerationSoftware,Autodesk,EAGLE,8.6.0*%
%TF.CreationDate,2018-06-05T15:24:19Z*%
G75*
%MOMM*%
%FSLAX34Y34*%
%LPD*%
%AMOC8*
5,1,8,0,0,1.08239X$1,22.5*%
G01*
%ADD10R,1.879600X1.879600*%
%ADD11C,1.879600*%
%ADD12R,2.400000X0.750000*%
%ADD13C,0.254000*%

G36*
X476524Y3814D02*
X476524Y3814D01*
X476543Y3812D01*
X476645Y3834D01*
X476747Y3850D01*
X476764Y3860D01*
X476784Y3864D01*
X476873Y3917D01*
X476964Y3966D01*
X476978Y3980D01*
X476995Y3990D01*
X477062Y4069D01*
X477134Y4144D01*
X477142Y4162D01*
X477155Y4177D01*
X477194Y4273D01*
X477237Y4367D01*
X477239Y4387D01*
X477247Y4405D01*
X477265Y4572D01*
X477265Y365760D01*
X477262Y365780D01*
X477264Y365799D01*
X477242Y365901D01*
X477226Y366003D01*
X477216Y366020D01*
X477212Y366040D01*
X477159Y366129D01*
X477110Y366220D01*
X477096Y366234D01*
X477086Y366251D01*
X477007Y366318D01*
X476932Y366390D01*
X476914Y366398D01*
X476899Y366411D01*
X476803Y366450D01*
X476709Y366493D01*
X476689Y366495D01*
X476671Y366503D01*
X476504Y366521D01*
X5080Y366521D01*
X5060Y366518D01*
X5041Y366520D01*
X4939Y366498D01*
X4837Y366482D01*
X4820Y366472D01*
X4800Y366468D01*
X4711Y366415D01*
X4620Y366366D01*
X4606Y366352D01*
X4589Y366342D01*
X4522Y366263D01*
X4450Y366188D01*
X4442Y366170D01*
X4429Y366155D01*
X4390Y366059D01*
X4347Y365965D01*
X4345Y365945D01*
X4337Y365927D01*
X4319Y365760D01*
X4319Y269301D01*
X4328Y269244D01*
X4327Y269187D01*
X4348Y269124D01*
X4358Y269058D01*
X4385Y269008D01*
X4403Y268953D01*
X4442Y268900D01*
X4474Y268841D01*
X4515Y268801D01*
X4549Y268755D01*
X4604Y268717D01*
X4652Y268671D01*
X4704Y268647D01*
X4751Y268615D01*
X4815Y268596D01*
X4875Y268568D01*
X4932Y268562D01*
X4987Y268545D01*
X5053Y268548D01*
X5119Y268541D01*
X5175Y268553D01*
X5233Y268555D01*
X5295Y268579D01*
X5360Y268593D01*
X5409Y268622D01*
X5462Y268643D01*
X5514Y268685D01*
X5571Y268719D01*
X5608Y268763D01*
X5652Y268799D01*
X5688Y268855D01*
X5731Y268906D01*
X5752Y268959D01*
X5783Y269008D01*
X5811Y269105D01*
X5823Y269134D01*
X5825Y269152D01*
X5830Y269169D01*
X6628Y273698D01*
X13682Y293077D01*
X23993Y310936D01*
X37248Y326734D01*
X53046Y339989D01*
X70905Y350300D01*
X90284Y357354D01*
X110593Y360935D01*
X311181Y360935D01*
X324489Y357369D01*
X336420Y350480D01*
X346162Y340738D01*
X353051Y328807D01*
X355279Y320491D01*
X355286Y320475D01*
X355289Y320457D01*
X355337Y320363D01*
X355380Y320267D01*
X355392Y320254D01*
X355400Y320238D01*
X355476Y320164D01*
X355548Y320087D01*
X355563Y320078D01*
X355576Y320066D01*
X355723Y319985D01*
X359789Y318300D01*
X363004Y315085D01*
X364745Y310884D01*
X364745Y306336D01*
X363004Y302135D01*
X359789Y298920D01*
X355588Y297179D01*
X351040Y297179D01*
X346839Y298920D01*
X343624Y302135D01*
X341883Y306336D01*
X341883Y310884D01*
X343624Y315085D01*
X346839Y318300D01*
X347834Y318712D01*
X347913Y318762D01*
X347996Y318804D01*
X348017Y318826D01*
X348043Y318842D01*
X348102Y318914D01*
X348167Y318981D01*
X348180Y319008D01*
X348200Y319032D01*
X348233Y319119D01*
X348273Y319203D01*
X348277Y319233D01*
X348288Y319261D01*
X348292Y319354D01*
X348303Y319447D01*
X348297Y319485D01*
X348298Y319507D01*
X348289Y319538D01*
X348278Y319613D01*
X346563Y326012D01*
X346557Y326026D01*
X346554Y326042D01*
X346537Y326082D01*
X346533Y326099D01*
X346519Y326123D01*
X346487Y326195D01*
X340619Y336359D01*
X340609Y336372D01*
X340603Y336386D01*
X340498Y336517D01*
X332199Y344816D01*
X332186Y344825D01*
X332176Y344837D01*
X332041Y344937D01*
X321877Y350805D01*
X321863Y350811D01*
X321850Y350820D01*
X321694Y350881D01*
X310357Y353919D01*
X310333Y353921D01*
X310210Y353943D01*
X304342Y354328D01*
X304323Y354326D01*
X304292Y354329D01*
X120904Y354329D01*
X120891Y354327D01*
X120871Y354329D01*
X111241Y353908D01*
X111210Y353902D01*
X111142Y353897D01*
X92175Y350553D01*
X92145Y350543D01*
X92047Y350519D01*
X73949Y343931D01*
X73921Y343916D01*
X73828Y343875D01*
X57149Y334245D01*
X57125Y334226D01*
X57040Y334169D01*
X42286Y321789D01*
X42266Y321766D01*
X42193Y321696D01*
X29813Y306942D01*
X29797Y306915D01*
X29737Y306833D01*
X20107Y290154D01*
X20096Y290124D01*
X20051Y290033D01*
X13463Y271935D01*
X13458Y271904D01*
X13429Y271807D01*
X10085Y252840D01*
X10084Y252809D01*
X10074Y252741D01*
X9653Y243111D01*
X9655Y243099D01*
X9653Y243078D01*
X9653Y123857D01*
X9664Y123787D01*
X9666Y123715D01*
X9684Y123666D01*
X9692Y123615D01*
X9726Y123551D01*
X9751Y123484D01*
X9783Y123443D01*
X9808Y123397D01*
X9860Y123348D01*
X9904Y123292D01*
X9948Y123264D01*
X9986Y123228D01*
X10051Y123198D01*
X10111Y123159D01*
X10162Y123146D01*
X10209Y123124D01*
X10280Y123116D01*
X10350Y123099D01*
X10402Y123103D01*
X10453Y123097D01*
X10524Y123112D01*
X10595Y123118D01*
X10643Y123138D01*
X10694Y123149D01*
X10755Y123186D01*
X10821Y123214D01*
X10877Y123259D01*
X10905Y123276D01*
X10920Y123293D01*
X10952Y123319D01*
X13079Y125446D01*
X114238Y226604D01*
X114305Y226699D01*
X114376Y226793D01*
X114378Y226799D01*
X114381Y226804D01*
X114415Y226915D01*
X114452Y227027D01*
X114452Y227033D01*
X114454Y227039D01*
X114450Y227156D01*
X114449Y227273D01*
X114447Y227280D01*
X114447Y227285D01*
X114441Y227303D01*
X114403Y227434D01*
X113283Y230136D01*
X113283Y234684D01*
X115024Y238885D01*
X118239Y242100D01*
X122440Y243841D01*
X126988Y243841D01*
X131189Y242100D01*
X134404Y238885D01*
X136145Y234684D01*
X136145Y230136D01*
X134404Y225935D01*
X131189Y222720D01*
X126988Y220979D01*
X122440Y220979D01*
X119738Y222099D01*
X119624Y222125D01*
X119511Y222154D01*
X119505Y222153D01*
X119498Y222155D01*
X119382Y222144D01*
X119266Y222135D01*
X119260Y222132D01*
X119254Y222132D01*
X119146Y222084D01*
X119039Y222038D01*
X119033Y222034D01*
X119029Y222032D01*
X119015Y222019D01*
X118908Y221934D01*
X17750Y120775D01*
X17697Y120701D01*
X17637Y120632D01*
X17625Y120601D01*
X17606Y120575D01*
X17579Y120488D01*
X17545Y120403D01*
X17541Y120362D01*
X17534Y120340D01*
X17535Y120308D01*
X17527Y120237D01*
X17527Y78899D01*
X17541Y78809D01*
X17549Y78718D01*
X17561Y78689D01*
X17566Y78657D01*
X17609Y78576D01*
X17645Y78492D01*
X17671Y78460D01*
X17682Y78439D01*
X17705Y78417D01*
X17750Y78361D01*
X21089Y75022D01*
X21105Y75010D01*
X21117Y74995D01*
X21205Y74939D01*
X21288Y74878D01*
X21307Y74873D01*
X21324Y74862D01*
X21425Y74837D01*
X21524Y74806D01*
X21543Y74807D01*
X21563Y74802D01*
X21666Y74810D01*
X21769Y74812D01*
X21788Y74819D01*
X21808Y74821D01*
X21903Y74861D01*
X22000Y74897D01*
X22016Y74909D01*
X22034Y74917D01*
X22165Y75022D01*
X23567Y76424D01*
X23579Y76440D01*
X23594Y76452D01*
X23650Y76540D01*
X23711Y76623D01*
X23716Y76642D01*
X23727Y76659D01*
X23752Y76760D01*
X23783Y76859D01*
X23782Y76878D01*
X23787Y76898D01*
X23779Y77001D01*
X23777Y77104D01*
X23770Y77123D01*
X23768Y77143D01*
X23728Y77238D01*
X23692Y77335D01*
X23680Y77351D01*
X23672Y77369D01*
X23567Y77500D01*
X22347Y78720D01*
X22347Y87904D01*
X23538Y89095D01*
X32316Y89095D01*
X32336Y89098D01*
X32355Y89096D01*
X32457Y89118D01*
X32559Y89134D01*
X32576Y89144D01*
X32596Y89148D01*
X32685Y89201D01*
X32776Y89250D01*
X32790Y89264D01*
X32807Y89274D01*
X32874Y89353D01*
X32946Y89428D01*
X32954Y89446D01*
X32967Y89461D01*
X33006Y89557D01*
X33049Y89651D01*
X33051Y89671D01*
X33059Y89689D01*
X33077Y89856D01*
X33077Y124379D01*
X33074Y124397D01*
X33076Y124429D01*
X32991Y125703D01*
X33019Y125748D01*
X33034Y125813D01*
X33052Y125856D01*
X33949Y126754D01*
X33960Y126769D01*
X33984Y126791D01*
X38252Y131669D01*
X38287Y131725D01*
X38330Y131775D01*
X38351Y131829D01*
X38382Y131878D01*
X38397Y131942D01*
X38415Y131985D01*
X39312Y132883D01*
X39323Y132898D01*
X39346Y132920D01*
X40187Y133881D01*
X40239Y133893D01*
X40296Y133928D01*
X40356Y133953D01*
X40420Y134005D01*
X40449Y134022D01*
X40461Y134037D01*
X40487Y134058D01*
X113060Y206631D01*
X113113Y206705D01*
X113173Y206774D01*
X113185Y206805D01*
X113204Y206831D01*
X113231Y206918D01*
X113265Y207003D01*
X113269Y207044D01*
X113276Y207066D01*
X113275Y207098D01*
X113283Y207169D01*
X113283Y209284D01*
X115024Y213485D01*
X118239Y216700D01*
X122440Y218441D01*
X126988Y218441D01*
X131189Y216700D01*
X134404Y213485D01*
X136145Y209284D01*
X136145Y204736D01*
X134404Y200535D01*
X131189Y197320D01*
X126988Y195579D01*
X122440Y195579D01*
X118239Y197320D01*
X116203Y199356D01*
X116187Y199367D01*
X116174Y199383D01*
X116087Y199439D01*
X116003Y199499D01*
X115984Y199505D01*
X115967Y199516D01*
X115867Y199541D01*
X115768Y199572D01*
X115748Y199571D01*
X115729Y199576D01*
X115626Y199568D01*
X115522Y199565D01*
X115503Y199558D01*
X115484Y199557D01*
X115389Y199516D01*
X115291Y199481D01*
X115276Y199468D01*
X115257Y199460D01*
X115126Y199356D01*
X44174Y128403D01*
X44163Y128388D01*
X44139Y128366D01*
X39871Y123488D01*
X39836Y123432D01*
X39793Y123382D01*
X39772Y123328D01*
X39741Y123279D01*
X39726Y123215D01*
X39701Y123154D01*
X39692Y123072D01*
X39685Y123040D01*
X39686Y123020D01*
X39683Y122987D01*
X39683Y89856D01*
X39686Y89836D01*
X39684Y89817D01*
X39706Y89715D01*
X39722Y89613D01*
X39732Y89596D01*
X39736Y89576D01*
X39789Y89487D01*
X39838Y89396D01*
X39852Y89382D01*
X39862Y89365D01*
X39941Y89298D01*
X40016Y89226D01*
X40034Y89218D01*
X40049Y89205D01*
X40145Y89166D01*
X40239Y89123D01*
X40259Y89121D01*
X40277Y89113D01*
X40444Y89095D01*
X49222Y89095D01*
X50413Y87904D01*
X50413Y78720D01*
X49193Y77500D01*
X49181Y77484D01*
X49166Y77472D01*
X49110Y77384D01*
X49049Y77301D01*
X49044Y77282D01*
X49033Y77265D01*
X49008Y77164D01*
X48977Y77065D01*
X48978Y77046D01*
X48973Y77026D01*
X48981Y76923D01*
X48983Y76820D01*
X48990Y76801D01*
X48992Y76781D01*
X49032Y76686D01*
X49068Y76589D01*
X49080Y76573D01*
X49088Y76555D01*
X49193Y76424D01*
X50413Y75204D01*
X50413Y66020D01*
X49193Y64800D01*
X49181Y64784D01*
X49166Y64772D01*
X49110Y64684D01*
X49049Y64601D01*
X49044Y64582D01*
X49033Y64565D01*
X49008Y64464D01*
X48977Y64365D01*
X48978Y64346D01*
X48973Y64326D01*
X48981Y64223D01*
X48983Y64120D01*
X48990Y64101D01*
X48992Y64081D01*
X49032Y63986D01*
X49068Y63889D01*
X49080Y63873D01*
X49088Y63855D01*
X49193Y63724D01*
X50156Y62761D01*
X50172Y62749D01*
X50184Y62734D01*
X50272Y62678D01*
X50355Y62617D01*
X50374Y62612D01*
X50391Y62601D01*
X50492Y62576D01*
X50591Y62545D01*
X50610Y62546D01*
X50630Y62541D01*
X50733Y62549D01*
X50836Y62551D01*
X50855Y62558D01*
X50875Y62560D01*
X50970Y62600D01*
X51067Y62636D01*
X51083Y62648D01*
X51101Y62656D01*
X51232Y62761D01*
X52608Y64137D01*
X52661Y64211D01*
X52721Y64280D01*
X52733Y64311D01*
X52752Y64337D01*
X52779Y64424D01*
X52813Y64509D01*
X52817Y64550D01*
X52824Y64572D01*
X52823Y64604D01*
X52831Y64675D01*
X52831Y118676D01*
X52828Y118699D01*
X52829Y118740D01*
X52727Y119954D01*
X52745Y119998D01*
X52778Y120053D01*
X52790Y120111D01*
X52813Y120167D01*
X52816Y120199D01*
X53679Y121061D01*
X53692Y121080D01*
X53722Y121108D01*
X61154Y129896D01*
X61185Y129947D01*
X61224Y129992D01*
X61248Y130052D01*
X61281Y130107D01*
X61294Y130165D01*
X61316Y130221D01*
X61320Y130252D01*
X62182Y131115D01*
X62196Y131134D01*
X62225Y131161D01*
X63012Y132092D01*
X63056Y132111D01*
X63118Y132126D01*
X63168Y132159D01*
X63223Y132182D01*
X63298Y132242D01*
X63325Y132259D01*
X63335Y132271D01*
X63354Y132287D01*
X109884Y178817D01*
X112522Y178817D01*
X112542Y178820D01*
X112561Y178818D01*
X112663Y178840D01*
X112765Y178856D01*
X112782Y178866D01*
X112802Y178870D01*
X112891Y178923D01*
X112982Y178972D01*
X112996Y178986D01*
X113013Y178996D01*
X113080Y179075D01*
X113152Y179150D01*
X113160Y179168D01*
X113173Y179183D01*
X113212Y179279D01*
X113255Y179373D01*
X113257Y179393D01*
X113265Y179411D01*
X113283Y179578D01*
X113283Y183884D01*
X115024Y188085D01*
X118239Y191300D01*
X122440Y193041D01*
X126988Y193041D01*
X131189Y191300D01*
X134404Y188085D01*
X136145Y183884D01*
X136145Y179336D01*
X134404Y175135D01*
X131189Y171920D01*
X126988Y170179D01*
X122440Y170179D01*
X118239Y171920D01*
X118170Y171988D01*
X118096Y172041D01*
X118027Y172101D01*
X117997Y172113D01*
X117970Y172132D01*
X117884Y172159D01*
X117799Y172193D01*
X117758Y172197D01*
X117735Y172204D01*
X117703Y172203D01*
X117632Y172211D01*
X112935Y172211D01*
X112845Y172197D01*
X112754Y172189D01*
X112725Y172177D01*
X112693Y172172D01*
X112612Y172129D01*
X112528Y172093D01*
X112496Y172067D01*
X112475Y172056D01*
X112453Y172033D01*
X112397Y171988D01*
X67092Y126684D01*
X67079Y126665D01*
X67049Y126637D01*
X59617Y117849D01*
X59586Y117798D01*
X59547Y117752D01*
X59523Y117693D01*
X59490Y117638D01*
X59478Y117580D01*
X59455Y117524D01*
X59445Y117429D01*
X59438Y117398D01*
X59439Y117382D01*
X59437Y117357D01*
X59437Y61624D01*
X52422Y54609D01*
X51174Y54609D01*
X51154Y54606D01*
X51135Y54608D01*
X51033Y54586D01*
X50931Y54570D01*
X50914Y54560D01*
X50894Y54556D01*
X50805Y54503D01*
X50714Y54454D01*
X50700Y54440D01*
X50683Y54430D01*
X50616Y54351D01*
X50544Y54276D01*
X50536Y54258D01*
X50523Y54243D01*
X50484Y54147D01*
X50441Y54053D01*
X50439Y54033D01*
X50431Y54015D01*
X50413Y53848D01*
X50413Y53320D01*
X49467Y52375D01*
X49398Y52278D01*
X49327Y52182D01*
X49326Y52178D01*
X49324Y52175D01*
X49289Y52062D01*
X49253Y51948D01*
X49253Y51944D01*
X49251Y51940D01*
X49254Y51821D01*
X49256Y51702D01*
X49258Y51698D01*
X49258Y51694D01*
X49298Y51583D01*
X49338Y51470D01*
X49341Y51467D01*
X49342Y51463D01*
X49416Y51370D01*
X49490Y51276D01*
X49494Y51273D01*
X49496Y51271D01*
X49508Y51263D01*
X49625Y51177D01*
X49940Y50995D01*
X50413Y50522D01*
X50748Y49943D01*
X50921Y49296D01*
X50921Y46735D01*
X37142Y46735D01*
X37122Y46732D01*
X37103Y46734D01*
X37001Y46712D01*
X36899Y46695D01*
X36882Y46686D01*
X36862Y46682D01*
X36773Y46629D01*
X36682Y46580D01*
X36668Y46566D01*
X36651Y46556D01*
X36584Y46477D01*
X36513Y46402D01*
X36504Y46384D01*
X36491Y46369D01*
X36452Y46273D01*
X36409Y46179D01*
X36407Y46159D01*
X36399Y46141D01*
X36381Y45974D01*
X36381Y44450D01*
X36384Y44430D01*
X36382Y44411D01*
X36404Y44309D01*
X36421Y44207D01*
X36430Y44190D01*
X36434Y44170D01*
X36487Y44081D01*
X36536Y43990D01*
X36550Y43976D01*
X36560Y43959D01*
X36639Y43892D01*
X36714Y43821D01*
X36732Y43812D01*
X36747Y43799D01*
X36843Y43760D01*
X36937Y43717D01*
X36957Y43715D01*
X36975Y43707D01*
X37142Y43689D01*
X50921Y43689D01*
X50921Y41128D01*
X50748Y40481D01*
X50413Y39902D01*
X49940Y39429D01*
X49625Y39247D01*
X49533Y39172D01*
X49440Y39097D01*
X49438Y39094D01*
X49435Y39091D01*
X49372Y38991D01*
X49307Y38890D01*
X49306Y38886D01*
X49304Y38883D01*
X49276Y38767D01*
X49247Y38652D01*
X49247Y38648D01*
X49246Y38644D01*
X49257Y38525D01*
X49266Y38407D01*
X49268Y38403D01*
X49268Y38399D01*
X49316Y38290D01*
X49362Y38180D01*
X49366Y38176D01*
X49367Y38173D01*
X49376Y38163D01*
X49467Y38049D01*
X50413Y37104D01*
X50413Y36576D01*
X50416Y36556D01*
X50414Y36537D01*
X50436Y36435D01*
X50452Y36333D01*
X50462Y36316D01*
X50466Y36296D01*
X50519Y36207D01*
X50568Y36116D01*
X50582Y36102D01*
X50592Y36085D01*
X50671Y36018D01*
X50746Y35946D01*
X50764Y35938D01*
X50779Y35925D01*
X50875Y35886D01*
X50969Y35843D01*
X50989Y35841D01*
X51007Y35833D01*
X51174Y35815D01*
X60586Y35815D01*
X60606Y35818D01*
X60625Y35816D01*
X60727Y35838D01*
X60829Y35854D01*
X60846Y35864D01*
X60866Y35868D01*
X60955Y35921D01*
X61046Y35970D01*
X61060Y35984D01*
X61077Y35994D01*
X61144Y36073D01*
X61216Y36148D01*
X61224Y36166D01*
X61237Y36181D01*
X61276Y36277D01*
X61319Y36371D01*
X61321Y36391D01*
X61329Y36409D01*
X61347Y36576D01*
X61347Y37104D01*
X62293Y38049D01*
X62362Y38146D01*
X62433Y38242D01*
X62434Y38246D01*
X62436Y38249D01*
X62471Y38362D01*
X62507Y38476D01*
X62507Y38480D01*
X62509Y38484D01*
X62506Y38603D01*
X62504Y38722D01*
X62502Y38726D01*
X62502Y38730D01*
X62462Y38841D01*
X62422Y38954D01*
X62419Y38957D01*
X62418Y38961D01*
X62344Y39054D01*
X62270Y39148D01*
X62266Y39151D01*
X62264Y39153D01*
X62252Y39161D01*
X62135Y39247D01*
X61820Y39429D01*
X61347Y39902D01*
X61012Y40481D01*
X60839Y41128D01*
X60839Y43689D01*
X74618Y43689D01*
X74638Y43692D01*
X74657Y43690D01*
X74759Y43712D01*
X74861Y43729D01*
X74878Y43738D01*
X74898Y43742D01*
X74987Y43795D01*
X75078Y43844D01*
X75092Y43858D01*
X75109Y43868D01*
X75176Y43947D01*
X75247Y44022D01*
X75256Y44040D01*
X75269Y44055D01*
X75308Y44151D01*
X75351Y44245D01*
X75353Y44265D01*
X75361Y44283D01*
X75379Y44450D01*
X75379Y45974D01*
X75376Y45994D01*
X75378Y46013D01*
X75356Y46115D01*
X75339Y46217D01*
X75330Y46234D01*
X75326Y46254D01*
X75273Y46343D01*
X75224Y46434D01*
X75210Y46448D01*
X75200Y46465D01*
X75121Y46532D01*
X75046Y46603D01*
X75028Y46612D01*
X75013Y46625D01*
X74917Y46664D01*
X74823Y46707D01*
X74803Y46709D01*
X74785Y46717D01*
X74618Y46735D01*
X60839Y46735D01*
X60839Y49296D01*
X61012Y49943D01*
X61347Y50522D01*
X61820Y50995D01*
X62135Y51177D01*
X62227Y51252D01*
X62320Y51327D01*
X62322Y51330D01*
X62325Y51333D01*
X62388Y51433D01*
X62453Y51534D01*
X62454Y51538D01*
X62456Y51541D01*
X62484Y51657D01*
X62513Y51772D01*
X62513Y51776D01*
X62514Y51780D01*
X62503Y51899D01*
X62494Y52017D01*
X62492Y52021D01*
X62492Y52025D01*
X62444Y52134D01*
X62398Y52244D01*
X62394Y52248D01*
X62393Y52251D01*
X62384Y52261D01*
X62293Y52375D01*
X61347Y53320D01*
X61347Y62504D01*
X62567Y63724D01*
X62579Y63740D01*
X62594Y63752D01*
X62650Y63840D01*
X62711Y63923D01*
X62716Y63942D01*
X62727Y63959D01*
X62752Y64060D01*
X62783Y64159D01*
X62782Y64178D01*
X62787Y64198D01*
X62779Y64301D01*
X62777Y64404D01*
X62770Y64423D01*
X62768Y64443D01*
X62728Y64538D01*
X62692Y64635D01*
X62680Y64651D01*
X62672Y64669D01*
X62567Y64800D01*
X61347Y66020D01*
X61347Y75204D01*
X62567Y76424D01*
X62579Y76440D01*
X62594Y76452D01*
X62650Y76540D01*
X62711Y76623D01*
X62716Y76642D01*
X62727Y76659D01*
X62752Y76760D01*
X62783Y76859D01*
X62782Y76878D01*
X62787Y76898D01*
X62779Y77001D01*
X62777Y77104D01*
X62770Y77123D01*
X62768Y77143D01*
X62728Y77238D01*
X62692Y77335D01*
X62680Y77351D01*
X62672Y77369D01*
X62567Y77500D01*
X61347Y78720D01*
X61347Y87904D01*
X62538Y89095D01*
X88222Y89095D01*
X89413Y87904D01*
X89413Y87376D01*
X89416Y87356D01*
X89414Y87337D01*
X89436Y87235D01*
X89452Y87133D01*
X89462Y87116D01*
X89466Y87096D01*
X89519Y87007D01*
X89568Y86916D01*
X89582Y86902D01*
X89592Y86885D01*
X89671Y86818D01*
X89746Y86746D01*
X89764Y86738D01*
X89779Y86725D01*
X89875Y86686D01*
X89969Y86643D01*
X89989Y86641D01*
X90007Y86633D01*
X90174Y86615D01*
X122682Y86615D01*
X122701Y86618D01*
X122732Y86616D01*
X126810Y86884D01*
X126833Y86889D01*
X126957Y86908D01*
X134835Y89019D01*
X134849Y89025D01*
X134865Y89028D01*
X135018Y89095D01*
X142082Y93173D01*
X142094Y93183D01*
X142108Y93189D01*
X142239Y93294D01*
X148006Y99061D01*
X148015Y99074D01*
X148028Y99083D01*
X148127Y99218D01*
X152205Y106282D01*
X152211Y106296D01*
X152220Y106309D01*
X152281Y106465D01*
X154392Y114343D01*
X154394Y114367D01*
X154416Y114490D01*
X154684Y118568D01*
X154682Y118587D01*
X154685Y118618D01*
X154685Y249936D01*
X154682Y249954D01*
X154684Y249986D01*
X154434Y253798D01*
X154428Y253822D01*
X154409Y253946D01*
X152436Y261311D01*
X152429Y261326D01*
X152427Y261341D01*
X152413Y261373D01*
X152409Y261393D01*
X152392Y261420D01*
X152360Y261495D01*
X148547Y268099D01*
X148537Y268111D01*
X148531Y268125D01*
X148426Y268256D01*
X143034Y273648D01*
X143021Y273657D01*
X143012Y273670D01*
X142877Y273769D01*
X136273Y277582D01*
X136258Y277587D01*
X136245Y277597D01*
X136089Y277658D01*
X135562Y277799D01*
X135469Y277808D01*
X135377Y277825D01*
X135347Y277821D01*
X135317Y277824D01*
X135226Y277803D01*
X135134Y277789D01*
X135107Y277776D01*
X135077Y277769D01*
X134998Y277720D01*
X134915Y277678D01*
X134893Y277656D01*
X134867Y277640D01*
X134808Y277569D01*
X134742Y277502D01*
X134724Y277469D01*
X134710Y277452D01*
X134698Y277421D01*
X134661Y277355D01*
X134404Y276735D01*
X131189Y273520D01*
X126988Y271779D01*
X122440Y271779D01*
X118239Y273520D01*
X115024Y276735D01*
X113283Y280936D01*
X113283Y285484D01*
X115024Y289685D01*
X118239Y292900D01*
X122440Y294641D01*
X126988Y294641D01*
X131189Y292900D01*
X134404Y289685D01*
X136145Y285484D01*
X136145Y285324D01*
X136152Y285281D01*
X136150Y285237D01*
X136172Y285160D01*
X136184Y285082D01*
X136205Y285043D01*
X136217Y285001D01*
X136262Y284935D01*
X136300Y284864D01*
X136331Y284834D01*
X136356Y284798D01*
X136420Y284750D01*
X136478Y284695D01*
X136518Y284676D01*
X136553Y284650D01*
X136689Y284597D01*
X136701Y284591D01*
X136704Y284591D01*
X136709Y284589D01*
X138832Y284020D01*
X147173Y279205D01*
X153983Y272395D01*
X158798Y264054D01*
X161291Y254751D01*
X161291Y113535D01*
X158660Y103715D01*
X153577Y94912D01*
X146388Y87723D01*
X137585Y82640D01*
X127765Y80009D01*
X90174Y80009D01*
X90154Y80006D01*
X90135Y80008D01*
X90033Y79986D01*
X89931Y79970D01*
X89914Y79960D01*
X89894Y79956D01*
X89805Y79903D01*
X89714Y79854D01*
X89700Y79840D01*
X89683Y79830D01*
X89616Y79751D01*
X89544Y79676D01*
X89536Y79658D01*
X89523Y79643D01*
X89484Y79547D01*
X89441Y79453D01*
X89439Y79433D01*
X89431Y79415D01*
X89413Y79248D01*
X89413Y78720D01*
X88193Y77500D01*
X88181Y77484D01*
X88166Y77472D01*
X88110Y77384D01*
X88049Y77301D01*
X88044Y77282D01*
X88033Y77265D01*
X88008Y77164D01*
X87977Y77065D01*
X87978Y77046D01*
X87973Y77026D01*
X87981Y76923D01*
X87983Y76820D01*
X87990Y76801D01*
X87992Y76781D01*
X88032Y76686D01*
X88068Y76589D01*
X88080Y76573D01*
X88088Y76555D01*
X88193Y76424D01*
X89413Y75204D01*
X89413Y66020D01*
X88193Y64800D01*
X88181Y64784D01*
X88166Y64772D01*
X88110Y64684D01*
X88049Y64601D01*
X88044Y64582D01*
X88033Y64565D01*
X88008Y64464D01*
X87977Y64365D01*
X87978Y64346D01*
X87973Y64326D01*
X87981Y64223D01*
X87983Y64120D01*
X87990Y64101D01*
X87992Y64081D01*
X88032Y63986D01*
X88068Y63889D01*
X88080Y63873D01*
X88088Y63855D01*
X88193Y63724D01*
X89413Y62504D01*
X89413Y53320D01*
X88467Y52375D01*
X88398Y52278D01*
X88327Y52182D01*
X88326Y52178D01*
X88324Y52175D01*
X88289Y52062D01*
X88253Y51948D01*
X88253Y51944D01*
X88251Y51940D01*
X88254Y51821D01*
X88256Y51702D01*
X88258Y51698D01*
X88258Y51694D01*
X88298Y51583D01*
X88338Y51470D01*
X88341Y51467D01*
X88342Y51463D01*
X88416Y51370D01*
X88490Y51276D01*
X88494Y51273D01*
X88496Y51271D01*
X88508Y51263D01*
X88625Y51177D01*
X88940Y50995D01*
X89413Y50522D01*
X89748Y49943D01*
X89921Y49296D01*
X89921Y46735D01*
X76142Y46735D01*
X76122Y46732D01*
X76103Y46734D01*
X76001Y46712D01*
X75899Y46695D01*
X75882Y46686D01*
X75862Y46682D01*
X75773Y46629D01*
X75682Y46580D01*
X75668Y46566D01*
X75651Y46556D01*
X75584Y46477D01*
X75513Y46402D01*
X75504Y46384D01*
X75491Y46369D01*
X75452Y46273D01*
X75409Y46179D01*
X75407Y46159D01*
X75399Y46141D01*
X75381Y45974D01*
X75381Y44450D01*
X75384Y44430D01*
X75382Y44411D01*
X75404Y44309D01*
X75421Y44207D01*
X75430Y44190D01*
X75434Y44170D01*
X75487Y44081D01*
X75536Y43990D01*
X75550Y43976D01*
X75560Y43959D01*
X75639Y43892D01*
X75714Y43821D01*
X75732Y43812D01*
X75747Y43799D01*
X75843Y43760D01*
X75937Y43717D01*
X75957Y43715D01*
X75975Y43707D01*
X76142Y43689D01*
X89921Y43689D01*
X89921Y41128D01*
X89748Y40481D01*
X89413Y39902D01*
X88940Y39429D01*
X88625Y39247D01*
X88533Y39172D01*
X88440Y39097D01*
X88438Y39094D01*
X88435Y39091D01*
X88372Y38991D01*
X88307Y38890D01*
X88306Y38886D01*
X88304Y38883D01*
X88276Y38767D01*
X88247Y38652D01*
X88247Y38648D01*
X88246Y38644D01*
X88257Y38525D01*
X88266Y38407D01*
X88268Y38403D01*
X88268Y38399D01*
X88316Y38290D01*
X88362Y38180D01*
X88366Y38176D01*
X88367Y38173D01*
X88376Y38163D01*
X88467Y38049D01*
X89413Y37104D01*
X89413Y27920D01*
X88222Y26729D01*
X62538Y26729D01*
X61347Y27920D01*
X61347Y28448D01*
X61344Y28468D01*
X61346Y28487D01*
X61324Y28589D01*
X61308Y28691D01*
X61298Y28708D01*
X61294Y28728D01*
X61241Y28817D01*
X61192Y28908D01*
X61178Y28922D01*
X61168Y28939D01*
X61089Y29006D01*
X61014Y29078D01*
X60996Y29086D01*
X60981Y29099D01*
X60885Y29138D01*
X60791Y29181D01*
X60771Y29183D01*
X60753Y29191D01*
X60586Y29209D01*
X51174Y29209D01*
X51154Y29206D01*
X51135Y29208D01*
X51033Y29186D01*
X50931Y29170D01*
X50914Y29160D01*
X50894Y29156D01*
X50805Y29103D01*
X50714Y29054D01*
X50700Y29040D01*
X50683Y29030D01*
X50616Y28951D01*
X50544Y28876D01*
X50536Y28858D01*
X50523Y28843D01*
X50484Y28747D01*
X50441Y28653D01*
X50439Y28633D01*
X50431Y28615D01*
X50413Y28448D01*
X50413Y27920D01*
X49222Y26729D01*
X23538Y26729D01*
X22347Y27920D01*
X22347Y28448D01*
X22344Y28468D01*
X22346Y28487D01*
X22324Y28589D01*
X22308Y28691D01*
X22298Y28708D01*
X22294Y28728D01*
X22241Y28817D01*
X22192Y28908D01*
X22178Y28922D01*
X22168Y28939D01*
X22089Y29006D01*
X22014Y29078D01*
X21996Y29086D01*
X21981Y29099D01*
X21885Y29138D01*
X21791Y29181D01*
X21771Y29183D01*
X21753Y29191D01*
X21586Y29209D01*
X16666Y29209D01*
X5618Y40257D01*
X5560Y40299D01*
X5508Y40348D01*
X5461Y40370D01*
X5419Y40401D01*
X5350Y40422D01*
X5285Y40452D01*
X5233Y40458D01*
X5183Y40473D01*
X5112Y40471D01*
X5041Y40479D01*
X4990Y40468D01*
X4938Y40467D01*
X4870Y40442D01*
X4800Y40427D01*
X4755Y40400D01*
X4707Y40382D01*
X4651Y40337D01*
X4589Y40300D01*
X4555Y40261D01*
X4515Y40228D01*
X4476Y40168D01*
X4429Y40114D01*
X4410Y40065D01*
X4382Y40021D01*
X4364Y39952D01*
X4337Y39885D01*
X4329Y39814D01*
X4321Y39783D01*
X4323Y39760D01*
X4319Y39719D01*
X4319Y4572D01*
X4322Y4552D01*
X4320Y4533D01*
X4342Y4431D01*
X4358Y4329D01*
X4368Y4312D01*
X4372Y4292D01*
X4425Y4203D01*
X4474Y4112D01*
X4488Y4098D01*
X4498Y4081D01*
X4577Y4014D01*
X4652Y3942D01*
X4670Y3934D01*
X4685Y3921D01*
X4781Y3882D01*
X4875Y3839D01*
X4895Y3837D01*
X4913Y3829D01*
X5080Y3811D01*
X476504Y3811D01*
X476524Y3814D01*
G37*
%LPC*%
G36*
X263572Y11175D02*
X263572Y11175D01*
X262381Y12366D01*
X262381Y32846D01*
X263572Y34037D01*
X284052Y34037D01*
X285243Y32846D01*
X285243Y12366D01*
X284052Y11175D01*
X263572Y11175D01*
G37*
%LPD*%
%LPC*%
G36*
X344852Y12445D02*
X344852Y12445D01*
X343661Y13636D01*
X343661Y34116D01*
X344852Y35307D01*
X365332Y35307D01*
X366523Y34116D01*
X366523Y13636D01*
X365332Y12445D01*
X344852Y12445D01*
G37*
%LPD*%
G36*
X21606Y35818D02*
X21606Y35818D01*
X21625Y35816D01*
X21727Y35838D01*
X21829Y35854D01*
X21846Y35864D01*
X21866Y35868D01*
X21955Y35921D01*
X22046Y35970D01*
X22060Y35984D01*
X22077Y35994D01*
X22144Y36073D01*
X22216Y36148D01*
X22224Y36166D01*
X22237Y36181D01*
X22276Y36277D01*
X22319Y36371D01*
X22321Y36391D01*
X22329Y36409D01*
X22347Y36576D01*
X22347Y37104D01*
X23293Y38049D01*
X23362Y38146D01*
X23433Y38242D01*
X23434Y38246D01*
X23436Y38249D01*
X23471Y38362D01*
X23507Y38476D01*
X23507Y38480D01*
X23509Y38484D01*
X23506Y38603D01*
X23504Y38722D01*
X23502Y38726D01*
X23502Y38730D01*
X23462Y38841D01*
X23422Y38954D01*
X23419Y38957D01*
X23418Y38961D01*
X23344Y39054D01*
X23270Y39148D01*
X23266Y39151D01*
X23264Y39153D01*
X23252Y39161D01*
X23135Y39247D01*
X22820Y39429D01*
X22347Y39902D01*
X22012Y40481D01*
X21839Y41128D01*
X21839Y43689D01*
X35618Y43689D01*
X35638Y43692D01*
X35657Y43690D01*
X35759Y43712D01*
X35861Y43729D01*
X35878Y43738D01*
X35898Y43742D01*
X35987Y43795D01*
X36078Y43844D01*
X36092Y43858D01*
X36109Y43868D01*
X36176Y43947D01*
X36247Y44022D01*
X36256Y44040D01*
X36269Y44055D01*
X36308Y44151D01*
X36351Y44245D01*
X36353Y44265D01*
X36361Y44283D01*
X36379Y44450D01*
X36379Y45974D01*
X36376Y45994D01*
X36378Y46013D01*
X36356Y46115D01*
X36339Y46217D01*
X36330Y46234D01*
X36326Y46254D01*
X36273Y46343D01*
X36224Y46434D01*
X36210Y46448D01*
X36200Y46465D01*
X36121Y46532D01*
X36046Y46603D01*
X36028Y46612D01*
X36013Y46625D01*
X35917Y46664D01*
X35823Y46707D01*
X35803Y46709D01*
X35785Y46717D01*
X35618Y46735D01*
X21839Y46735D01*
X21839Y49296D01*
X22012Y49943D01*
X22347Y50522D01*
X22820Y50995D01*
X23135Y51177D01*
X23227Y51252D01*
X23320Y51327D01*
X23322Y51330D01*
X23325Y51333D01*
X23388Y51433D01*
X23453Y51534D01*
X23454Y51538D01*
X23456Y51541D01*
X23484Y51657D01*
X23513Y51772D01*
X23513Y51776D01*
X23514Y51780D01*
X23503Y51899D01*
X23494Y52017D01*
X23492Y52021D01*
X23492Y52025D01*
X23444Y52134D01*
X23398Y52244D01*
X23394Y52248D01*
X23393Y52251D01*
X23384Y52261D01*
X23293Y52375D01*
X22347Y53320D01*
X22347Y62504D01*
X23567Y63724D01*
X23579Y63740D01*
X23594Y63752D01*
X23650Y63840D01*
X23711Y63923D01*
X23716Y63942D01*
X23727Y63959D01*
X23752Y64060D01*
X23783Y64159D01*
X23782Y64178D01*
X23787Y64198D01*
X23779Y64301D01*
X23777Y64404D01*
X23770Y64423D01*
X23768Y64443D01*
X23728Y64538D01*
X23692Y64635D01*
X23680Y64651D01*
X23672Y64669D01*
X23567Y64800D01*
X22347Y66020D01*
X22347Y66548D01*
X22344Y66568D01*
X22346Y66587D01*
X22324Y66689D01*
X22308Y66791D01*
X22298Y66808D01*
X22294Y66828D01*
X22241Y66917D01*
X22192Y67008D01*
X22178Y67022D01*
X22168Y67039D01*
X22089Y67106D01*
X22014Y67178D01*
X21996Y67186D01*
X21981Y67199D01*
X21885Y67238D01*
X21791Y67281D01*
X21771Y67283D01*
X21753Y67291D01*
X21586Y67309D01*
X19460Y67309D01*
X10952Y75817D01*
X10894Y75859D01*
X10842Y75908D01*
X10795Y75930D01*
X10753Y75961D01*
X10684Y75982D01*
X10619Y76012D01*
X10567Y76018D01*
X10517Y76033D01*
X10446Y76031D01*
X10375Y76039D01*
X10324Y76028D01*
X10272Y76027D01*
X10204Y76002D01*
X10134Y75987D01*
X10089Y75960D01*
X10041Y75942D01*
X9985Y75897D01*
X9923Y75860D01*
X9889Y75821D01*
X9849Y75788D01*
X9810Y75728D01*
X9763Y75674D01*
X9744Y75625D01*
X9716Y75581D01*
X9698Y75512D01*
X9671Y75445D01*
X9663Y75374D01*
X9655Y75343D01*
X9657Y75320D01*
X9653Y75279D01*
X9653Y45879D01*
X9667Y45789D01*
X9675Y45698D01*
X9687Y45669D01*
X9692Y45637D01*
X9735Y45556D01*
X9771Y45472D01*
X9797Y45440D01*
X9808Y45419D01*
X9831Y45397D01*
X9876Y45341D01*
X19179Y36038D01*
X19253Y35985D01*
X19322Y35925D01*
X19353Y35913D01*
X19379Y35894D01*
X19466Y35867D01*
X19551Y35833D01*
X19592Y35829D01*
X19614Y35822D01*
X19646Y35823D01*
X19717Y35815D01*
X21586Y35815D01*
X21606Y35818D01*
G37*
%LPC*%
G36*
X220738Y11175D02*
X220738Y11175D01*
X216537Y12916D01*
X213322Y16131D01*
X211581Y20332D01*
X211581Y24880D01*
X213322Y29081D01*
X216537Y32296D01*
X220738Y34037D01*
X225286Y34037D01*
X229487Y32296D01*
X232702Y29081D01*
X234443Y24880D01*
X234443Y20332D01*
X232702Y16131D01*
X229487Y12916D01*
X225286Y11175D01*
X220738Y11175D01*
G37*
%LPD*%
%LPC*%
G36*
X246138Y11175D02*
X246138Y11175D01*
X241937Y12916D01*
X238722Y16131D01*
X236981Y20332D01*
X236981Y24880D01*
X238722Y29081D01*
X241937Y32296D01*
X246138Y34037D01*
X250686Y34037D01*
X254887Y32296D01*
X258102Y29081D01*
X259843Y24880D01*
X259843Y20332D01*
X258102Y16131D01*
X254887Y12916D01*
X250686Y11175D01*
X246138Y11175D01*
G37*
%LPD*%
%LPC*%
G36*
X122440Y297179D02*
X122440Y297179D01*
X118239Y298920D01*
X115024Y302135D01*
X113283Y306336D01*
X113283Y310884D01*
X115024Y315085D01*
X118239Y318300D01*
X122440Y320041D01*
X126988Y320041D01*
X131189Y318300D01*
X134404Y315085D01*
X136145Y310884D01*
X136145Y306336D01*
X134404Y302135D01*
X131189Y298920D01*
X126988Y297179D01*
X122440Y297179D01*
G37*
%LPD*%
%LPC*%
G36*
X122440Y246379D02*
X122440Y246379D01*
X118239Y248120D01*
X115024Y251335D01*
X113283Y255536D01*
X113283Y260084D01*
X115024Y264285D01*
X118239Y267500D01*
X122440Y269241D01*
X126988Y269241D01*
X131189Y267500D01*
X134404Y264285D01*
X136145Y260084D01*
X136145Y255536D01*
X134404Y251335D01*
X131189Y248120D01*
X126988Y246379D01*
X122440Y246379D01*
G37*
%LPD*%
%LPC*%
G36*
X351040Y246379D02*
X351040Y246379D01*
X346839Y248120D01*
X343624Y251335D01*
X341883Y255536D01*
X341883Y260084D01*
X343624Y264285D01*
X346839Y267500D01*
X351040Y269241D01*
X355588Y269241D01*
X359789Y267500D01*
X363004Y264285D01*
X364745Y260084D01*
X364745Y255536D01*
X363004Y251335D01*
X359789Y248120D01*
X355588Y246379D01*
X351040Y246379D01*
G37*
%LPD*%
%LPC*%
G36*
X351040Y220979D02*
X351040Y220979D01*
X346839Y222720D01*
X343624Y225935D01*
X341883Y230136D01*
X341883Y234684D01*
X343624Y238885D01*
X346839Y242100D01*
X351040Y243841D01*
X355588Y243841D01*
X359789Y242100D01*
X363004Y238885D01*
X364745Y234684D01*
X364745Y230136D01*
X363004Y225935D01*
X359789Y222720D01*
X355588Y220979D01*
X351040Y220979D01*
G37*
%LPD*%
%LPC*%
G36*
X351040Y195579D02*
X351040Y195579D01*
X346839Y197320D01*
X343624Y200535D01*
X341883Y204736D01*
X341883Y209284D01*
X343624Y213485D01*
X346839Y216700D01*
X351040Y218441D01*
X355588Y218441D01*
X359789Y216700D01*
X363004Y213485D01*
X364745Y209284D01*
X364745Y204736D01*
X363004Y200535D01*
X359789Y197320D01*
X355588Y195579D01*
X351040Y195579D01*
G37*
%LPD*%
%LPC*%
G36*
X351040Y170179D02*
X351040Y170179D01*
X346839Y171920D01*
X343624Y175135D01*
X341883Y179336D01*
X341883Y183884D01*
X343624Y188085D01*
X346839Y191300D01*
X351040Y193041D01*
X355588Y193041D01*
X359789Y191300D01*
X363004Y188085D01*
X364745Y183884D01*
X364745Y179336D01*
X363004Y175135D01*
X359789Y171920D01*
X355588Y170179D01*
X351040Y170179D01*
G37*
%LPD*%
%LPC*%
G36*
X122440Y144779D02*
X122440Y144779D01*
X118239Y146520D01*
X115024Y149735D01*
X113283Y153936D01*
X113283Y158484D01*
X115024Y162685D01*
X118239Y165900D01*
X122440Y167641D01*
X126988Y167641D01*
X131189Y165900D01*
X134404Y162685D01*
X136145Y158484D01*
X136145Y153936D01*
X134404Y149735D01*
X131189Y146520D01*
X126988Y144779D01*
X122440Y144779D01*
G37*
%LPD*%
%LPC*%
G36*
X351040Y144779D02*
X351040Y144779D01*
X346839Y146520D01*
X343624Y149735D01*
X341883Y153936D01*
X341883Y158484D01*
X343624Y162685D01*
X346839Y165900D01*
X351040Y167641D01*
X355588Y167641D01*
X359789Y165900D01*
X363004Y162685D01*
X364745Y158484D01*
X364745Y153936D01*
X363004Y149735D01*
X359789Y146520D01*
X355588Y144779D01*
X351040Y144779D01*
G37*
%LPD*%
%LPC*%
G36*
X122440Y119379D02*
X122440Y119379D01*
X118239Y121120D01*
X115024Y124335D01*
X113283Y128536D01*
X113283Y133084D01*
X115024Y137285D01*
X118239Y140500D01*
X122440Y142241D01*
X126988Y142241D01*
X131189Y140500D01*
X134404Y137285D01*
X136145Y133084D01*
X136145Y128536D01*
X134404Y124335D01*
X131189Y121120D01*
X126988Y119379D01*
X122440Y119379D01*
G37*
%LPD*%
%LPC*%
G36*
X351040Y119379D02*
X351040Y119379D01*
X346839Y121120D01*
X343624Y124335D01*
X341883Y128536D01*
X341883Y133084D01*
X343624Y137285D01*
X346839Y140500D01*
X351040Y142241D01*
X355588Y142241D01*
X359789Y140500D01*
X363004Y137285D01*
X364745Y133084D01*
X364745Y128536D01*
X363004Y124335D01*
X359789Y121120D01*
X355588Y119379D01*
X351040Y119379D01*
G37*
%LPD*%
%LPC*%
G36*
X378218Y12445D02*
X378218Y12445D01*
X374017Y14186D01*
X370802Y17401D01*
X369061Y21602D01*
X369061Y26150D01*
X370802Y30351D01*
X374017Y33566D01*
X378218Y35307D01*
X382766Y35307D01*
X386967Y33566D01*
X390182Y30351D01*
X391923Y26150D01*
X391923Y21602D01*
X390182Y17401D01*
X386967Y14186D01*
X382766Y12445D01*
X378218Y12445D01*
G37*
%LPD*%
%LPC*%
G36*
X429018Y12445D02*
X429018Y12445D01*
X424817Y14186D01*
X421602Y17401D01*
X419861Y21602D01*
X419861Y26150D01*
X421602Y30351D01*
X424817Y33566D01*
X429018Y35307D01*
X433566Y35307D01*
X437767Y33566D01*
X440982Y30351D01*
X442723Y26150D01*
X442723Y21602D01*
X440982Y17401D01*
X437767Y14186D01*
X433566Y12445D01*
X429018Y12445D01*
G37*
%LPD*%
%LPC*%
G36*
X199135Y24129D02*
X199135Y24129D01*
X199135Y34452D01*
X200408Y34251D01*
X202195Y33670D01*
X203869Y32817D01*
X205390Y31712D01*
X206718Y30384D01*
X207823Y28863D01*
X208676Y27189D01*
X209257Y25402D01*
X209458Y24129D01*
X199135Y24129D01*
G37*
%LPD*%
%LPC*%
G36*
X407415Y25399D02*
X407415Y25399D01*
X407415Y35722D01*
X408688Y35521D01*
X410475Y34940D01*
X412149Y34087D01*
X413670Y32982D01*
X414998Y31654D01*
X416103Y30133D01*
X416956Y28459D01*
X417537Y26672D01*
X417738Y25399D01*
X407415Y25399D01*
G37*
%LPD*%
%LPC*%
G36*
X354837Y284733D02*
X354837Y284733D01*
X354837Y295056D01*
X356110Y294855D01*
X357897Y294274D01*
X359571Y293421D01*
X361092Y292316D01*
X362420Y290988D01*
X363525Y289467D01*
X364378Y287793D01*
X364959Y286006D01*
X365160Y284733D01*
X354837Y284733D01*
G37*
%LPD*%
%LPC*%
G36*
X341468Y284733D02*
X341468Y284733D01*
X341669Y286006D01*
X342250Y287793D01*
X343103Y289467D01*
X344208Y290988D01*
X345536Y292316D01*
X347057Y293421D01*
X348731Y294274D01*
X350518Y294855D01*
X351791Y295056D01*
X351791Y284733D01*
X341468Y284733D01*
G37*
%LPD*%
%LPC*%
G36*
X199135Y21083D02*
X199135Y21083D01*
X209458Y21083D01*
X209257Y19810D01*
X208676Y18023D01*
X207823Y16349D01*
X206718Y14828D01*
X205390Y13500D01*
X203869Y12395D01*
X202195Y11542D01*
X200408Y10961D01*
X199135Y10760D01*
X199135Y21083D01*
G37*
%LPD*%
%LPC*%
G36*
X185766Y24129D02*
X185766Y24129D01*
X185967Y25402D01*
X186548Y27189D01*
X187401Y28863D01*
X188506Y30384D01*
X189834Y31712D01*
X191355Y32817D01*
X193029Y33670D01*
X194816Y34251D01*
X196089Y34452D01*
X196089Y24129D01*
X185766Y24129D01*
G37*
%LPD*%
%LPC*%
G36*
X407415Y22353D02*
X407415Y22353D01*
X417738Y22353D01*
X417537Y21080D01*
X416956Y19293D01*
X416103Y17619D01*
X414998Y16098D01*
X413670Y14770D01*
X412149Y13665D01*
X410475Y12812D01*
X408688Y12231D01*
X407415Y12030D01*
X407415Y22353D01*
G37*
%LPD*%
%LPC*%
G36*
X354837Y281687D02*
X354837Y281687D01*
X365160Y281687D01*
X364959Y280414D01*
X364378Y278627D01*
X363525Y276953D01*
X362420Y275432D01*
X361092Y274104D01*
X359571Y272999D01*
X357897Y272146D01*
X356110Y271565D01*
X354837Y271364D01*
X354837Y281687D01*
G37*
%LPD*%
%LPC*%
G36*
X394046Y25399D02*
X394046Y25399D01*
X394247Y26672D01*
X394828Y28459D01*
X395681Y30133D01*
X396786Y31654D01*
X398114Y32982D01*
X399635Y34087D01*
X401309Y34940D01*
X403096Y35521D01*
X404369Y35722D01*
X404369Y25399D01*
X394046Y25399D01*
G37*
%LPD*%
%LPC*%
G36*
X194816Y10961D02*
X194816Y10961D01*
X193029Y11542D01*
X191355Y12395D01*
X189834Y13500D01*
X188506Y14828D01*
X187401Y16349D01*
X186548Y18023D01*
X185967Y19810D01*
X185766Y21083D01*
X196089Y21083D01*
X196089Y10760D01*
X194816Y10961D01*
G37*
%LPD*%
%LPC*%
G36*
X350518Y271565D02*
X350518Y271565D01*
X348731Y272146D01*
X347057Y272999D01*
X345536Y274104D01*
X344208Y275432D01*
X343103Y276953D01*
X342250Y278627D01*
X341669Y280414D01*
X341468Y281687D01*
X351791Y281687D01*
X351791Y271364D01*
X350518Y271565D01*
G37*
%LPD*%
%LPC*%
G36*
X403096Y12231D02*
X403096Y12231D01*
X401309Y12812D01*
X399635Y13665D01*
X398114Y14770D01*
X396786Y16098D01*
X395681Y17619D01*
X394828Y19293D01*
X394247Y21080D01*
X394046Y22353D01*
X404369Y22353D01*
X404369Y12030D01*
X403096Y12231D01*
G37*
%LPD*%
%LPC*%
G36*
X197611Y22605D02*
X197611Y22605D01*
X197611Y22607D01*
X197613Y22607D01*
X197613Y22605D01*
X197611Y22605D01*
G37*
%LPD*%
%LPC*%
G36*
X405891Y23875D02*
X405891Y23875D01*
X405891Y23877D01*
X405893Y23877D01*
X405893Y23875D01*
X405891Y23875D01*
G37*
%LPD*%
%LPC*%
G36*
X353313Y283209D02*
X353313Y283209D01*
X353313Y283211D01*
X353315Y283211D01*
X353315Y283209D01*
X353313Y283209D01*
G37*
%LPD*%
D10*
X355092Y23876D03*
D11*
X380492Y23876D03*
X405892Y23876D03*
X431292Y23876D03*
D10*
X273812Y22606D03*
D11*
X248412Y22606D03*
X223012Y22606D03*
X197612Y22606D03*
X124714Y130810D03*
X124714Y156210D03*
X124714Y181610D03*
X124714Y207010D03*
X124714Y232410D03*
X124714Y257810D03*
X124714Y283210D03*
X124714Y308610D03*
X353314Y308610D03*
X353314Y283210D03*
X353314Y257810D03*
X353314Y232410D03*
X353314Y207010D03*
X353314Y181610D03*
X353314Y156210D03*
X353314Y130810D03*
D12*
X75380Y32512D03*
X36380Y32512D03*
X75380Y45212D03*
X36380Y45212D03*
X75380Y57912D03*
X36380Y57912D03*
X75380Y70612D03*
X36380Y70612D03*
X75380Y83312D03*
X36380Y83312D03*
D13*
X36380Y45212D02*
X75380Y45212D01*
X105156Y45212D01*
X109538Y45265D01*
X113918Y45424D01*
X118292Y45688D01*
X122659Y46059D01*
X127016Y46534D01*
X131360Y47115D01*
X135689Y47801D01*
X139999Y48591D01*
X144290Y49485D01*
X148557Y50482D01*
X152800Y51582D01*
X157014Y52784D01*
X161198Y54088D01*
X165349Y55493D01*
X169466Y56997D01*
X173544Y58601D01*
X177583Y60302D01*
X181580Y62101D01*
X185531Y63996D01*
X189436Y65985D01*
X193292Y68069D01*
X197096Y70245D01*
X200847Y72512D01*
X204541Y74869D01*
X208178Y77315D01*
X211754Y79848D01*
X215269Y82467D01*
X218718Y85169D01*
X222102Y87955D01*
X225417Y90821D01*
X228662Y93767D01*
X231835Y96790D01*
X234934Y99889D01*
X237957Y103062D01*
X240903Y106307D01*
X243769Y109622D01*
X246555Y113006D01*
X249257Y116455D01*
X251876Y119970D01*
X254409Y123546D01*
X256855Y127183D01*
X259212Y130877D01*
X261479Y134628D01*
X263655Y138432D01*
X265739Y142288D01*
X267728Y146193D01*
X269623Y150144D01*
X271422Y154141D01*
X273123Y158180D01*
X274727Y162258D01*
X276231Y166375D01*
X277636Y170526D01*
X278940Y174710D01*
X280142Y178924D01*
X281242Y183167D01*
X282239Y187434D01*
X283133Y191725D01*
X283923Y196035D01*
X284609Y200364D01*
X285190Y204708D01*
X285665Y209065D01*
X286036Y213432D01*
X286300Y217806D01*
X286459Y222186D01*
X286512Y226568D01*
X286529Y227971D01*
X286581Y229373D01*
X286666Y230773D01*
X286786Y232171D01*
X286940Y233566D01*
X287128Y234956D01*
X287350Y236342D01*
X287606Y237721D01*
X287895Y239094D01*
X288218Y240459D01*
X288574Y241816D01*
X288963Y243164D01*
X289385Y244502D01*
X289839Y245830D01*
X290326Y247146D01*
X290845Y248449D01*
X291396Y249740D01*
X291977Y251016D01*
X292590Y252279D01*
X293234Y253525D01*
X293908Y254756D01*
X294611Y255970D01*
X295345Y257166D01*
X296107Y258344D01*
X296897Y259503D01*
X297716Y260642D01*
X298563Y261761D01*
X299436Y262859D01*
X300336Y263935D01*
X301262Y264989D01*
X302214Y266020D01*
X303190Y267028D01*
X304191Y268011D01*
X305216Y268970D01*
X306263Y269903D01*
X307333Y270810D01*
X308425Y271691D01*
X309538Y272545D01*
X310672Y273372D01*
X311826Y274170D01*
X312998Y274941D01*
X314190Y275682D01*
X315399Y276394D01*
X316625Y277076D01*
X317867Y277728D01*
X319125Y278350D01*
X320397Y278940D01*
X321684Y279499D01*
X322984Y280027D01*
X324297Y280523D01*
X325621Y280986D01*
X326956Y281418D01*
X328301Y281816D01*
X329656Y282181D01*
X331019Y282513D01*
X332390Y282812D01*
X333768Y283077D01*
X335152Y283308D01*
X336541Y283506D01*
X337934Y283669D01*
X339331Y283799D01*
X340731Y283894D01*
X342133Y283955D01*
X343535Y283982D01*
X344938Y283974D01*
X346341Y283932D01*
X347742Y283856D01*
X349140Y283746D01*
X350536Y283601D01*
X351928Y283423D01*
X353314Y283210D01*
X75380Y32512D02*
X36380Y32512D01*
X18034Y32512D01*
X6350Y44196D01*
X6350Y243078D01*
X6383Y245846D01*
X6484Y248612D01*
X6651Y251376D01*
X6885Y254134D01*
X7185Y256886D01*
X7552Y259630D01*
X7985Y262364D01*
X8484Y265087D01*
X9049Y267797D01*
X9679Y270493D01*
X10374Y273172D01*
X11133Y275834D01*
X11957Y278477D01*
X12844Y281099D01*
X13794Y283699D01*
X14807Y286276D01*
X15882Y288827D01*
X17018Y291351D01*
X18215Y293847D01*
X19471Y296314D01*
X20787Y298749D01*
X22162Y301152D01*
X23594Y303521D01*
X25083Y305855D01*
X26628Y308152D01*
X28228Y310411D01*
X29882Y312631D01*
X31589Y314810D01*
X33349Y316947D01*
X35159Y319041D01*
X37020Y321091D01*
X38929Y323095D01*
X40887Y325053D01*
X42891Y326962D01*
X44941Y328823D01*
X47035Y330633D01*
X49172Y332393D01*
X51351Y334100D01*
X53571Y335754D01*
X55830Y337354D01*
X58127Y338899D01*
X60461Y340388D01*
X62830Y341820D01*
X65233Y343195D01*
X67668Y344511D01*
X70135Y345767D01*
X72631Y346964D01*
X75155Y348100D01*
X77706Y349175D01*
X80283Y350188D01*
X82883Y351138D01*
X85505Y352025D01*
X88148Y352849D01*
X90810Y353608D01*
X93489Y354303D01*
X96185Y354933D01*
X98895Y355498D01*
X101618Y355997D01*
X104352Y356430D01*
X107096Y356797D01*
X109848Y357097D01*
X112606Y357331D01*
X115370Y357498D01*
X118136Y357599D01*
X120904Y357632D01*
X304292Y357632D02*
X305477Y357618D01*
X306660Y357575D01*
X307843Y357503D01*
X309023Y357403D01*
X310201Y357275D01*
X311375Y357118D01*
X312545Y356932D01*
X313710Y356719D01*
X314870Y356477D01*
X316024Y356208D01*
X317170Y355910D01*
X318310Y355585D01*
X319441Y355233D01*
X320563Y354853D01*
X321675Y354446D01*
X322778Y354013D01*
X323870Y353553D01*
X324950Y353067D01*
X326018Y352555D01*
X327074Y352017D01*
X328116Y351454D01*
X329144Y350865D01*
X330158Y350253D01*
X331157Y349615D01*
X332140Y348954D01*
X333106Y348270D01*
X334056Y347562D01*
X334989Y346831D01*
X335903Y346078D01*
X336800Y345303D01*
X337677Y344507D01*
X338534Y343690D01*
X339372Y342852D01*
X340189Y341995D01*
X340985Y341118D01*
X341760Y340221D01*
X342513Y339307D01*
X343244Y338374D01*
X343952Y337424D01*
X344636Y336458D01*
X345297Y335475D01*
X345935Y334476D01*
X346547Y333462D01*
X347136Y332434D01*
X347699Y331392D01*
X348237Y330336D01*
X348749Y329268D01*
X349235Y328188D01*
X349695Y327096D01*
X350128Y325993D01*
X350535Y324881D01*
X350915Y323759D01*
X351267Y322628D01*
X351592Y321488D01*
X351890Y320342D01*
X352159Y319188D01*
X352401Y318028D01*
X352614Y316863D01*
X352800Y315693D01*
X352957Y314519D01*
X353085Y313341D01*
X353185Y312161D01*
X353257Y310978D01*
X353300Y309795D01*
X353314Y308610D01*
X304292Y357632D02*
X120904Y357632D01*
X124714Y232410D02*
X14224Y121920D01*
X20828Y70612D02*
X36380Y70612D01*
X14224Y77216D02*
X14224Y121920D01*
X14224Y77216D02*
X20828Y70612D01*
X118110Y207010D02*
X124714Y207010D01*
X41743Y130643D02*
X36380Y124514D01*
X36380Y83312D01*
X41743Y130643D02*
X118110Y207010D01*
X124714Y181610D02*
X118618Y175514D01*
X111252Y175514D01*
X64637Y128899D01*
X56134Y118846D01*
X56134Y62992D01*
X51054Y57912D01*
X36380Y57912D01*
X75380Y83312D02*
X122682Y83312D01*
X123535Y83322D01*
X124388Y83353D01*
X125239Y83405D01*
X126090Y83477D01*
X126938Y83569D01*
X127783Y83682D01*
X128626Y83816D01*
X129465Y83970D01*
X130300Y84144D01*
X131131Y84338D01*
X131957Y84552D01*
X132778Y84786D01*
X133592Y85040D01*
X134400Y85313D01*
X135202Y85606D01*
X135996Y85918D01*
X136782Y86250D01*
X137560Y86600D01*
X138329Y86969D01*
X139090Y87356D01*
X139840Y87762D01*
X140581Y88185D01*
X141311Y88627D01*
X142030Y89086D01*
X142738Y89562D01*
X143434Y90055D01*
X144118Y90565D01*
X144790Y91091D01*
X145449Y91633D01*
X146094Y92191D01*
X146726Y92765D01*
X147344Y93353D01*
X147947Y93956D01*
X148535Y94574D01*
X149109Y95206D01*
X149667Y95851D01*
X150209Y96510D01*
X150735Y97182D01*
X151245Y97866D01*
X151738Y98562D01*
X152214Y99270D01*
X152673Y99989D01*
X153115Y100719D01*
X153538Y101460D01*
X153944Y102210D01*
X154331Y102971D01*
X154700Y103740D01*
X155050Y104518D01*
X155382Y105304D01*
X155694Y106098D01*
X155987Y106900D01*
X156260Y107708D01*
X156514Y108522D01*
X156748Y109343D01*
X156962Y110169D01*
X157156Y111000D01*
X157330Y111835D01*
X157484Y112674D01*
X157618Y113517D01*
X157731Y114362D01*
X157823Y115210D01*
X157895Y116061D01*
X157947Y116912D01*
X157978Y117765D01*
X157988Y118618D01*
X157988Y249936D01*
X157978Y250740D01*
X157949Y251544D01*
X157901Y252346D01*
X157833Y253147D01*
X157745Y253947D01*
X157639Y254744D01*
X157513Y255538D01*
X157368Y256329D01*
X157204Y257116D01*
X157021Y257899D01*
X156819Y258677D01*
X156599Y259451D01*
X156359Y260218D01*
X156102Y260980D01*
X155826Y261735D01*
X155532Y262483D01*
X155219Y263224D01*
X154889Y263958D01*
X154542Y264683D01*
X154177Y265399D01*
X153794Y266107D01*
X153395Y266805D01*
X152979Y267493D01*
X152547Y268171D01*
X152098Y268838D01*
X151633Y269494D01*
X151153Y270139D01*
X150657Y270772D01*
X150146Y271392D01*
X149620Y272001D01*
X149080Y272596D01*
X148525Y273178D01*
X147956Y273747D01*
X147374Y274302D01*
X146779Y274842D01*
X146170Y275368D01*
X145550Y275879D01*
X144917Y276375D01*
X144272Y276855D01*
X143616Y277320D01*
X142949Y277769D01*
X142271Y278201D01*
X141583Y278617D01*
X140885Y279016D01*
X140177Y279399D01*
X139461Y279764D01*
X138736Y280111D01*
X138002Y280441D01*
X137261Y280754D01*
X136513Y281048D01*
X135758Y281324D01*
X134996Y281581D01*
X134229Y281821D01*
X133455Y282041D01*
X132677Y282243D01*
X131894Y282426D01*
X131107Y282590D01*
X130316Y282735D01*
X129522Y282861D01*
X128725Y282967D01*
X127925Y283055D01*
X127124Y283123D01*
X126322Y283171D01*
X125518Y283200D01*
X124714Y283210D01*
M02*
