G04 EAGLE Gerber X2 export*
%TF.Part,Single*%
%TF.FileFunction,Copper,L2,Bot,Mixed*%
%TF.FilePolarity,Positive*%
%TF.GenerationSoftware,Autodesk,EAGLE,8.6.0*%
%TF.CreationDate,2018-06-05T15:24:19Z*%
G75*
%MOMM*%
%FSLAX34Y34*%
%LPD*%
%AMOC8*
5,1,8,0,0,1.08239X$1,22.5*%
G01*
%ADD10R,1.879600X1.879600*%
%ADD11C,1.879600*%
%ADD12R,1.800000X1.600000*%
%ADD13R,1.600000X1.800000*%
%ADD14R,2.000000X1.100000*%
%ADD15C,0.609600*%
%ADD16C,0.254000*%

G36*
X476524Y3814D02*
X476524Y3814D01*
X476543Y3812D01*
X476645Y3834D01*
X476747Y3850D01*
X476764Y3860D01*
X476784Y3864D01*
X476873Y3917D01*
X476964Y3966D01*
X476978Y3980D01*
X476995Y3990D01*
X477062Y4069D01*
X477134Y4144D01*
X477142Y4162D01*
X477155Y4177D01*
X477194Y4273D01*
X477237Y4367D01*
X477239Y4387D01*
X477247Y4405D01*
X477265Y4572D01*
X477265Y365760D01*
X477262Y365780D01*
X477264Y365799D01*
X477242Y365901D01*
X477226Y366003D01*
X477216Y366020D01*
X477212Y366040D01*
X477159Y366129D01*
X477110Y366220D01*
X477096Y366234D01*
X477086Y366251D01*
X477007Y366318D01*
X476932Y366390D01*
X476914Y366398D01*
X476899Y366411D01*
X476803Y366450D01*
X476709Y366493D01*
X476689Y366495D01*
X476671Y366503D01*
X476504Y366521D01*
X5080Y366521D01*
X5060Y366518D01*
X5041Y366520D01*
X4939Y366498D01*
X4837Y366482D01*
X4820Y366472D01*
X4800Y366468D01*
X4711Y366415D01*
X4620Y366366D01*
X4606Y366352D01*
X4589Y366342D01*
X4522Y366263D01*
X4450Y366188D01*
X4442Y366170D01*
X4429Y366155D01*
X4390Y366059D01*
X4347Y365965D01*
X4345Y365945D01*
X4337Y365927D01*
X4319Y365760D01*
X4319Y261903D01*
X4329Y261840D01*
X4329Y261776D01*
X4349Y261720D01*
X4358Y261661D01*
X4388Y261604D01*
X4409Y261544D01*
X4446Y261496D01*
X4474Y261443D01*
X4520Y261399D01*
X4559Y261349D01*
X4608Y261315D01*
X4652Y261274D01*
X4710Y261247D01*
X4763Y261211D01*
X4821Y261195D01*
X4875Y261170D01*
X4938Y261163D01*
X5000Y261146D01*
X5060Y261150D01*
X5119Y261143D01*
X5182Y261157D01*
X5246Y261160D01*
X5301Y261183D01*
X5360Y261195D01*
X5415Y261228D01*
X5474Y261252D01*
X5519Y261291D01*
X5571Y261322D01*
X5612Y261370D01*
X5661Y261411D01*
X5692Y261463D01*
X5731Y261508D01*
X5755Y261568D01*
X5788Y261622D01*
X5810Y261706D01*
X5823Y261737D01*
X5825Y261761D01*
X5832Y261784D01*
X6181Y263987D01*
X12370Y283037D01*
X21464Y300884D01*
X33238Y317089D01*
X47401Y331252D01*
X63606Y343026D01*
X81453Y352120D01*
X100503Y358309D01*
X120287Y361443D01*
X309737Y361443D01*
X312310Y360855D01*
X315645Y360094D01*
X318980Y359333D01*
X321344Y358793D01*
X332071Y353628D01*
X341379Y346205D01*
X348802Y336897D01*
X353967Y326170D01*
X355256Y320525D01*
X355268Y320496D01*
X355273Y320464D01*
X355314Y320382D01*
X355349Y320298D01*
X355370Y320273D01*
X355384Y320245D01*
X355450Y320180D01*
X355509Y320111D01*
X355537Y320095D01*
X355560Y320072D01*
X355707Y319991D01*
X359789Y318300D01*
X363004Y315085D01*
X364432Y311639D01*
X364455Y311602D01*
X364469Y311562D01*
X364519Y311498D01*
X364562Y311429D01*
X364595Y311402D01*
X364621Y311369D01*
X364689Y311324D01*
X364751Y311273D01*
X364791Y311257D01*
X364827Y311234D01*
X364971Y311188D01*
X364981Y311184D01*
X364983Y311184D01*
X364987Y311183D01*
X377023Y308789D01*
X391815Y302662D01*
X405127Y293767D01*
X416449Y282446D01*
X425344Y269133D01*
X431471Y254341D01*
X434595Y238637D01*
X434595Y35389D01*
X434614Y35274D01*
X434631Y35158D01*
X434633Y35153D01*
X434634Y35146D01*
X434689Y35044D01*
X434742Y34939D01*
X434747Y34935D01*
X434750Y34929D01*
X434834Y34849D01*
X434918Y34767D01*
X434924Y34763D01*
X434928Y34760D01*
X434945Y34752D01*
X435065Y34686D01*
X437767Y33566D01*
X440982Y30351D01*
X442723Y26150D01*
X442723Y21602D01*
X440982Y17401D01*
X437767Y14186D01*
X433566Y12445D01*
X429018Y12445D01*
X424817Y14186D01*
X421602Y17401D01*
X419861Y21602D01*
X419861Y26150D01*
X421602Y30351D01*
X424817Y33566D01*
X427519Y34686D01*
X427619Y34747D01*
X427719Y34807D01*
X427723Y34812D01*
X427728Y34815D01*
X427802Y34905D01*
X427879Y34994D01*
X427881Y35000D01*
X427885Y35005D01*
X427927Y35113D01*
X427971Y35222D01*
X427972Y35230D01*
X427973Y35235D01*
X427974Y35253D01*
X427989Y35389D01*
X427989Y230632D01*
X427987Y230646D01*
X427988Y230670D01*
X427632Y237914D01*
X427626Y237946D01*
X427619Y238025D01*
X424792Y252237D01*
X424784Y252259D01*
X424749Y252379D01*
X419204Y265766D01*
X419191Y265786D01*
X419133Y265898D01*
X411083Y277945D01*
X411067Y277963D01*
X410989Y278061D01*
X400743Y288307D01*
X400724Y288320D01*
X400628Y288401D01*
X388580Y296451D01*
X388558Y296461D01*
X388448Y296522D01*
X375061Y302067D01*
X375038Y302072D01*
X374919Y302110D01*
X364515Y304179D01*
X364446Y304182D01*
X364378Y304194D01*
X364324Y304186D01*
X364269Y304188D01*
X364203Y304168D01*
X364135Y304158D01*
X364086Y304133D01*
X364033Y304117D01*
X363977Y304078D01*
X363916Y304047D01*
X363877Y304007D01*
X363832Y303975D01*
X363792Y303920D01*
X363744Y303871D01*
X363706Y303803D01*
X363687Y303777D01*
X363681Y303757D01*
X363663Y303724D01*
X363004Y302135D01*
X359789Y298920D01*
X355588Y297179D01*
X351040Y297179D01*
X346839Y298920D01*
X343624Y302135D01*
X341883Y306336D01*
X341883Y310884D01*
X343624Y315085D01*
X346839Y318300D01*
X347941Y318757D01*
X348008Y318799D01*
X348080Y318832D01*
X348112Y318863D01*
X348150Y318887D01*
X348200Y318948D01*
X348258Y319002D01*
X348278Y319042D01*
X348307Y319076D01*
X348335Y319150D01*
X348372Y319220D01*
X348379Y319264D01*
X348395Y319306D01*
X348398Y319385D01*
X348411Y319463D01*
X348404Y319522D01*
X348405Y319551D01*
X348398Y319578D01*
X348392Y319630D01*
X347441Y323796D01*
X347440Y323797D01*
X347440Y323799D01*
X347384Y323957D01*
X342967Y333130D01*
X342966Y333131D01*
X342966Y333132D01*
X342876Y333274D01*
X336528Y341234D01*
X336528Y341235D01*
X336527Y341236D01*
X336408Y341354D01*
X328448Y347702D01*
X328447Y347703D01*
X328446Y347704D01*
X328304Y347793D01*
X319131Y352210D01*
X319129Y352211D01*
X319128Y352212D01*
X318970Y352267D01*
X318190Y352445D01*
X314855Y353206D01*
X311520Y353967D01*
X311519Y353967D01*
X309044Y354532D01*
X309012Y354534D01*
X308917Y354550D01*
X303827Y354836D01*
X303810Y354834D01*
X303784Y354837D01*
X130302Y354837D01*
X130290Y354835D01*
X130272Y354837D01*
X120866Y354467D01*
X120837Y354461D01*
X120777Y354458D01*
X102196Y351515D01*
X102164Y351505D01*
X102079Y351487D01*
X84188Y345674D01*
X84158Y345659D01*
X84077Y345628D01*
X67315Y337088D01*
X67289Y337068D01*
X67213Y337025D01*
X51994Y325967D01*
X51970Y325944D01*
X51903Y325890D01*
X38600Y312587D01*
X38581Y312561D01*
X38523Y312496D01*
X27465Y297277D01*
X27450Y297247D01*
X27402Y297175D01*
X18862Y280413D01*
X18852Y280381D01*
X18816Y280302D01*
X13003Y262411D01*
X12998Y262378D01*
X12975Y262294D01*
X10032Y243713D01*
X10032Y243684D01*
X10023Y243624D01*
X9653Y234218D01*
X9655Y234206D01*
X9653Y234188D01*
X9653Y24402D01*
X9656Y24382D01*
X9654Y24363D01*
X9676Y24261D01*
X9692Y24159D01*
X9702Y24142D01*
X9706Y24122D01*
X9759Y24033D01*
X9808Y23942D01*
X9822Y23928D01*
X9832Y23911D01*
X9911Y23844D01*
X9986Y23772D01*
X10004Y23764D01*
X10019Y23751D01*
X10115Y23712D01*
X10209Y23669D01*
X10229Y23667D01*
X10247Y23659D01*
X10414Y23641D01*
X21562Y23641D01*
X21582Y23644D01*
X21601Y23642D01*
X21703Y23664D01*
X21805Y23680D01*
X21822Y23690D01*
X21842Y23694D01*
X21931Y23747D01*
X22022Y23796D01*
X22036Y23810D01*
X22053Y23820D01*
X22120Y23899D01*
X22192Y23974D01*
X22200Y23992D01*
X22213Y24007D01*
X22252Y24103D01*
X22295Y24197D01*
X22297Y24217D01*
X22305Y24235D01*
X22323Y24402D01*
X22323Y26680D01*
X23514Y27871D01*
X45198Y27871D01*
X46389Y26680D01*
X46389Y13996D01*
X45198Y12805D01*
X23514Y12805D01*
X22323Y13996D01*
X22323Y16274D01*
X22320Y16294D01*
X22322Y16313D01*
X22300Y16415D01*
X22284Y16517D01*
X22274Y16534D01*
X22270Y16554D01*
X22217Y16643D01*
X22168Y16734D01*
X22154Y16748D01*
X22144Y16765D01*
X22065Y16832D01*
X21990Y16904D01*
X21972Y16912D01*
X21957Y16925D01*
X21861Y16964D01*
X21767Y17007D01*
X21747Y17009D01*
X21729Y17017D01*
X21562Y17035D01*
X5080Y17035D01*
X5060Y17032D01*
X5041Y17034D01*
X4939Y17012D01*
X4837Y16996D01*
X4820Y16986D01*
X4800Y16982D01*
X4711Y16929D01*
X4620Y16880D01*
X4606Y16866D01*
X4589Y16856D01*
X4522Y16777D01*
X4450Y16702D01*
X4442Y16684D01*
X4429Y16669D01*
X4390Y16572D01*
X4347Y16479D01*
X4345Y16459D01*
X4337Y16441D01*
X4319Y16274D01*
X4319Y4572D01*
X4322Y4552D01*
X4320Y4533D01*
X4342Y4431D01*
X4358Y4329D01*
X4368Y4312D01*
X4372Y4292D01*
X4425Y4203D01*
X4474Y4112D01*
X4488Y4098D01*
X4498Y4081D01*
X4577Y4014D01*
X4652Y3942D01*
X4670Y3934D01*
X4685Y3921D01*
X4781Y3882D01*
X4875Y3839D01*
X4895Y3837D01*
X4913Y3829D01*
X5080Y3811D01*
X476504Y3811D01*
X476524Y3814D01*
G37*
%LPC*%
G36*
X246138Y11175D02*
X246138Y11175D01*
X241937Y12916D01*
X238722Y16131D01*
X236981Y20332D01*
X236981Y24880D01*
X238722Y29081D01*
X241937Y32296D01*
X244639Y33416D01*
X244739Y33477D01*
X244839Y33537D01*
X244843Y33542D01*
X244848Y33545D01*
X244922Y33635D01*
X244999Y33724D01*
X245001Y33730D01*
X245005Y33735D01*
X245047Y33843D01*
X245091Y33952D01*
X245092Y33960D01*
X245093Y33965D01*
X245094Y33983D01*
X245109Y34119D01*
X245109Y67564D01*
X245106Y67586D01*
X245107Y67624D01*
X244807Y71438D01*
X244805Y71444D01*
X244806Y71449D01*
X244772Y71614D01*
X242414Y78869D01*
X242398Y78901D01*
X242389Y78936D01*
X242306Y79082D01*
X237822Y85254D01*
X237797Y85279D01*
X237778Y85309D01*
X237654Y85422D01*
X231482Y89906D01*
X231450Y89922D01*
X231422Y89945D01*
X231269Y90014D01*
X224014Y92372D01*
X224008Y92373D01*
X224003Y92375D01*
X223838Y92407D01*
X220024Y92707D01*
X220002Y92705D01*
X219964Y92709D01*
X212190Y92709D01*
X212120Y92698D01*
X212048Y92696D01*
X211999Y92678D01*
X211948Y92670D01*
X211884Y92636D01*
X211817Y92611D01*
X211776Y92579D01*
X211730Y92554D01*
X211681Y92502D01*
X211625Y92458D01*
X211597Y92414D01*
X211561Y92376D01*
X211531Y92311D01*
X211492Y92251D01*
X211479Y92200D01*
X211457Y92153D01*
X211449Y92082D01*
X211432Y92012D01*
X211436Y91960D01*
X211430Y91909D01*
X211445Y91838D01*
X211451Y91767D01*
X211471Y91719D01*
X211482Y91668D01*
X211519Y91607D01*
X211547Y91541D01*
X211592Y91485D01*
X211609Y91457D01*
X211626Y91442D01*
X211652Y91410D01*
X211744Y91318D01*
X212078Y90739D01*
X212252Y90092D01*
X212252Y83281D01*
X201473Y83281D01*
X201453Y83278D01*
X201433Y83280D01*
X201332Y83258D01*
X201230Y83241D01*
X201213Y83232D01*
X201193Y83228D01*
X201104Y83175D01*
X201013Y83126D01*
X200999Y83112D01*
X200982Y83102D01*
X200915Y83023D01*
X200843Y82948D01*
X200835Y82930D01*
X200822Y82915D01*
X200783Y82819D01*
X200740Y82725D01*
X200738Y82705D01*
X200730Y82687D01*
X200712Y82520D01*
X200712Y81757D01*
X200710Y81757D01*
X200710Y82520D01*
X200707Y82540D01*
X200709Y82559D01*
X200687Y82661D01*
X200670Y82763D01*
X200661Y82780D01*
X200657Y82800D01*
X200603Y82889D01*
X200555Y82980D01*
X200541Y82994D01*
X200530Y83011D01*
X200452Y83078D01*
X200377Y83149D01*
X200359Y83158D01*
X200344Y83171D01*
X200247Y83210D01*
X200154Y83253D01*
X200134Y83255D01*
X200115Y83263D01*
X199949Y83281D01*
X189170Y83281D01*
X189170Y90092D01*
X189343Y90739D01*
X189678Y91318D01*
X189769Y91410D01*
X189811Y91468D01*
X189861Y91520D01*
X189883Y91567D01*
X189913Y91609D01*
X189934Y91678D01*
X189964Y91743D01*
X189970Y91795D01*
X189985Y91844D01*
X189983Y91916D01*
X189991Y91987D01*
X189980Y92038D01*
X189979Y92090D01*
X189954Y92158D01*
X189939Y92228D01*
X189912Y92273D01*
X189895Y92321D01*
X189850Y92377D01*
X189813Y92439D01*
X189773Y92473D01*
X189741Y92513D01*
X189681Y92552D01*
X189626Y92599D01*
X189578Y92618D01*
X189534Y92646D01*
X189464Y92664D01*
X189398Y92691D01*
X189327Y92699D01*
X189295Y92707D01*
X189272Y92705D01*
X189231Y92709D01*
X127337Y92709D01*
X114740Y96085D01*
X103445Y102606D01*
X94224Y111827D01*
X87703Y123122D01*
X84327Y135719D01*
X84327Y226043D01*
X87080Y236315D01*
X92397Y245524D01*
X99916Y253043D01*
X109125Y258360D01*
X112719Y259323D01*
X112759Y259341D01*
X112802Y259351D01*
X112870Y259392D01*
X112943Y259425D01*
X112975Y259454D01*
X113013Y259477D01*
X113065Y259538D01*
X113123Y259592D01*
X113144Y259630D01*
X113173Y259664D01*
X113203Y259738D01*
X113241Y259808D01*
X113248Y259851D01*
X113265Y259892D01*
X113281Y260037D01*
X113283Y260050D01*
X113283Y260054D01*
X113283Y260059D01*
X113283Y260084D01*
X115024Y264285D01*
X118239Y267500D01*
X122440Y269241D01*
X126988Y269241D01*
X129690Y268121D01*
X129804Y268095D01*
X129917Y268066D01*
X129923Y268067D01*
X129930Y268065D01*
X130046Y268076D01*
X130162Y268085D01*
X130168Y268088D01*
X130174Y268088D01*
X130282Y268136D01*
X130389Y268182D01*
X130395Y268186D01*
X130399Y268188D01*
X130413Y268201D01*
X130520Y268286D01*
X133222Y270989D01*
X180230Y270989D01*
X180250Y270992D01*
X180269Y270990D01*
X180371Y271012D01*
X180473Y271028D01*
X180490Y271038D01*
X180510Y271042D01*
X180599Y271095D01*
X180690Y271144D01*
X180704Y271158D01*
X180721Y271168D01*
X180788Y271247D01*
X180860Y271322D01*
X180868Y271340D01*
X180881Y271355D01*
X180920Y271451D01*
X180963Y271545D01*
X180965Y271565D01*
X180973Y271583D01*
X180991Y271750D01*
X180991Y276528D01*
X182182Y277719D01*
X201866Y277719D01*
X203057Y276528D01*
X203057Y258844D01*
X201866Y257653D01*
X182182Y257653D01*
X180991Y258844D01*
X180991Y263622D01*
X180988Y263642D01*
X180990Y263661D01*
X180968Y263763D01*
X180952Y263865D01*
X180942Y263882D01*
X180938Y263902D01*
X180885Y263991D01*
X180836Y264082D01*
X180822Y264096D01*
X180812Y264113D01*
X180733Y264180D01*
X180658Y264252D01*
X180640Y264260D01*
X180625Y264273D01*
X180529Y264312D01*
X180435Y264355D01*
X180415Y264357D01*
X180397Y264365D01*
X180230Y264383D01*
X136273Y264383D01*
X136183Y264369D01*
X136092Y264361D01*
X136063Y264349D01*
X136031Y264344D01*
X135950Y264301D01*
X135866Y264265D01*
X135834Y264239D01*
X135813Y264228D01*
X135791Y264205D01*
X135735Y264160D01*
X135190Y263616D01*
X135122Y263520D01*
X135052Y263427D01*
X135050Y263421D01*
X135047Y263416D01*
X135013Y263305D01*
X134976Y263193D01*
X134976Y263187D01*
X134974Y263181D01*
X134978Y263064D01*
X134979Y262947D01*
X134981Y262940D01*
X134981Y262935D01*
X134987Y262918D01*
X135025Y262786D01*
X136145Y260084D01*
X136145Y255536D01*
X134404Y251335D01*
X131189Y248120D01*
X126988Y246379D01*
X122440Y246379D01*
X118239Y248120D01*
X115024Y251335D01*
X114729Y252046D01*
X114680Y252125D01*
X114637Y252208D01*
X114615Y252229D01*
X114599Y252255D01*
X114528Y252314D01*
X114461Y252379D01*
X114433Y252392D01*
X114410Y252412D01*
X114323Y252445D01*
X114239Y252485D01*
X114209Y252489D01*
X114180Y252500D01*
X114087Y252504D01*
X113995Y252515D01*
X113957Y252509D01*
X113935Y252510D01*
X113903Y252501D01*
X113829Y252490D01*
X111881Y251968D01*
X111866Y251961D01*
X111851Y251959D01*
X111697Y251892D01*
X104232Y247582D01*
X104220Y247572D01*
X104205Y247566D01*
X104074Y247461D01*
X97979Y241366D01*
X97970Y241353D01*
X97958Y241343D01*
X97858Y241208D01*
X93548Y233743D01*
X93543Y233728D01*
X93533Y233715D01*
X93472Y233559D01*
X91241Y225233D01*
X91239Y225209D01*
X91217Y225086D01*
X90934Y220776D01*
X90936Y220757D01*
X90933Y220726D01*
X90933Y142240D01*
X90936Y142221D01*
X90934Y142190D01*
X91295Y136687D01*
X91300Y136664D01*
X91319Y136539D01*
X94168Y125908D01*
X94175Y125893D01*
X94177Y125878D01*
X94244Y125724D01*
X99748Y116192D01*
X99758Y116179D01*
X99764Y116165D01*
X99869Y116034D01*
X107652Y108251D01*
X107665Y108242D01*
X107674Y108229D01*
X107810Y108130D01*
X117342Y102626D01*
X117357Y102621D01*
X117369Y102611D01*
X117526Y102550D01*
X128157Y99701D01*
X128181Y99699D01*
X128305Y99677D01*
X133808Y99316D01*
X133827Y99318D01*
X133858Y99315D01*
X189442Y99315D01*
X189512Y99326D01*
X189584Y99328D01*
X189633Y99346D01*
X189684Y99354D01*
X189748Y99388D01*
X189815Y99413D01*
X189856Y99445D01*
X189902Y99470D01*
X189951Y99522D01*
X190007Y99566D01*
X190035Y99610D01*
X190071Y99648D01*
X190101Y99713D01*
X190140Y99773D01*
X190153Y99824D01*
X190175Y99871D01*
X190183Y99942D01*
X190200Y100012D01*
X190196Y100064D01*
X190202Y100115D01*
X190186Y100186D01*
X190181Y100257D01*
X190161Y100305D01*
X190149Y100356D01*
X190113Y100417D01*
X190085Y100483D01*
X190040Y100539D01*
X190023Y100567D01*
X190006Y100582D01*
X189980Y100614D01*
X189678Y100916D01*
X189678Y118600D01*
X190869Y119791D01*
X194874Y119791D01*
X194992Y119810D01*
X195109Y119828D01*
X195113Y119830D01*
X195117Y119830D01*
X195222Y119886D01*
X195328Y119941D01*
X195331Y119944D01*
X195335Y119946D01*
X195416Y120031D01*
X195499Y120117D01*
X195501Y120121D01*
X195504Y120124D01*
X195554Y120232D01*
X195605Y120339D01*
X195606Y120343D01*
X195608Y120347D01*
X195621Y120465D01*
X195635Y120583D01*
X195634Y120588D01*
X195635Y120591D01*
X195632Y120605D01*
X195610Y120749D01*
X194156Y126176D01*
X194149Y126191D01*
X194147Y126206D01*
X194079Y126360D01*
X188547Y135943D01*
X188537Y135955D01*
X188531Y135969D01*
X188426Y136100D01*
X180601Y143925D01*
X180588Y143934D01*
X180579Y143947D01*
X180444Y144046D01*
X170861Y149579D01*
X170846Y149584D01*
X170833Y149594D01*
X170677Y149655D01*
X159989Y152519D01*
X159965Y152521D01*
X159841Y152543D01*
X154309Y152906D01*
X154290Y152904D01*
X154259Y152907D01*
X136227Y152907D01*
X136112Y152888D01*
X135996Y152871D01*
X135991Y152869D01*
X135984Y152868D01*
X135882Y152813D01*
X135777Y152760D01*
X135773Y152755D01*
X135767Y152752D01*
X135687Y152668D01*
X135605Y152584D01*
X135601Y152578D01*
X135598Y152574D01*
X135590Y152557D01*
X135524Y152437D01*
X134404Y149735D01*
X131189Y146520D01*
X126988Y144779D01*
X122440Y144779D01*
X118239Y146520D01*
X115024Y149735D01*
X113283Y153936D01*
X113283Y158484D01*
X115024Y162685D01*
X118239Y165900D01*
X122440Y167641D01*
X126988Y167641D01*
X131189Y165900D01*
X134404Y162685D01*
X135524Y159983D01*
X135585Y159883D01*
X135645Y159783D01*
X135650Y159779D01*
X135653Y159774D01*
X135743Y159699D01*
X135832Y159623D01*
X135838Y159621D01*
X135843Y159617D01*
X135951Y159575D01*
X136060Y159531D01*
X136068Y159530D01*
X136073Y159529D01*
X136091Y159528D01*
X136227Y159513D01*
X160809Y159513D01*
X173463Y156122D01*
X184809Y149572D01*
X194072Y140308D01*
X200623Y128963D01*
X202929Y120355D01*
X202947Y120315D01*
X202957Y120272D01*
X202998Y120204D01*
X203030Y120131D01*
X203060Y120099D01*
X203083Y120061D01*
X203143Y120009D01*
X203198Y119951D01*
X203236Y119930D01*
X203270Y119901D01*
X203344Y119871D01*
X203414Y119833D01*
X203457Y119826D01*
X203498Y119809D01*
X203642Y119793D01*
X203656Y119791D01*
X203660Y119791D01*
X203665Y119791D01*
X210553Y119791D01*
X211744Y118600D01*
X211744Y113822D01*
X211747Y113802D01*
X211745Y113783D01*
X211767Y113681D01*
X211783Y113579D01*
X211793Y113562D01*
X211797Y113542D01*
X211850Y113453D01*
X211898Y113362D01*
X211913Y113348D01*
X211923Y113331D01*
X212002Y113264D01*
X212077Y113192D01*
X212095Y113184D01*
X212110Y113171D01*
X212206Y113132D01*
X212300Y113089D01*
X212320Y113087D01*
X212338Y113079D01*
X212505Y113061D01*
X236115Y113061D01*
X236134Y113064D01*
X236154Y113062D01*
X236256Y113084D01*
X236358Y113100D01*
X236375Y113110D01*
X236395Y113114D01*
X236484Y113167D01*
X236575Y113216D01*
X236589Y113230D01*
X236606Y113240D01*
X236673Y113319D01*
X236744Y113394D01*
X236753Y113412D01*
X236766Y113427D01*
X236804Y113523D01*
X236848Y113617D01*
X236850Y113637D01*
X236858Y113655D01*
X236876Y113822D01*
X236876Y117995D01*
X238067Y119186D01*
X245218Y119186D01*
X245308Y119201D01*
X245399Y119208D01*
X245429Y119220D01*
X245461Y119226D01*
X245541Y119268D01*
X245625Y119304D01*
X245657Y119330D01*
X245678Y119341D01*
X245687Y119351D01*
X245865Y119351D01*
X245901Y119357D01*
X245938Y119354D01*
X246022Y119376D01*
X246108Y119390D01*
X246140Y119408D01*
X246175Y119417D01*
X246320Y119502D01*
X246454Y119602D01*
X248117Y119359D01*
X248150Y119359D01*
X248227Y119351D01*
X249929Y119351D01*
X249992Y119296D01*
X250022Y119284D01*
X250049Y119265D01*
X250135Y119239D01*
X250220Y119204D01*
X250261Y119200D01*
X250284Y119193D01*
X250316Y119194D01*
X250387Y119186D01*
X255751Y119186D01*
X256510Y118427D01*
X256568Y118385D01*
X256620Y118336D01*
X256667Y118314D01*
X256709Y118283D01*
X256778Y118262D01*
X256843Y118232D01*
X256895Y118226D01*
X256945Y118211D01*
X257016Y118213D01*
X257087Y118205D01*
X257138Y118216D01*
X257190Y118217D01*
X257258Y118242D01*
X257328Y118257D01*
X257373Y118284D01*
X257421Y118302D01*
X257477Y118347D01*
X257539Y118383D01*
X257573Y118423D01*
X257613Y118456D01*
X257652Y118516D01*
X257699Y118570D01*
X257718Y118619D01*
X257746Y118662D01*
X257764Y118732D01*
X257791Y118799D01*
X257799Y118870D01*
X257807Y118901D01*
X257805Y118924D01*
X257809Y118965D01*
X257809Y226598D01*
X257807Y226614D01*
X257808Y226641D01*
X257399Y233921D01*
X257392Y233953D01*
X257381Y234048D01*
X254141Y248243D01*
X254141Y248245D01*
X254141Y248246D01*
X254085Y248404D01*
X247767Y261523D01*
X247766Y261524D01*
X247766Y261526D01*
X247677Y261667D01*
X238598Y273052D01*
X238597Y273052D01*
X238596Y273054D01*
X238478Y273172D01*
X227093Y282251D01*
X227092Y282251D01*
X227091Y282252D01*
X226998Y282311D01*
X226990Y282318D01*
X226981Y282321D01*
X226949Y282341D01*
X213830Y288659D01*
X213829Y288659D01*
X213828Y288660D01*
X213669Y288715D01*
X211278Y289261D01*
X207943Y290022D01*
X204608Y290783D01*
X204608Y290784D01*
X203987Y290925D01*
X203883Y290932D01*
X203779Y290943D01*
X203760Y290939D01*
X203742Y290940D01*
X203641Y290913D01*
X203538Y290891D01*
X203522Y290881D01*
X203504Y290877D01*
X203417Y290819D01*
X203327Y290765D01*
X203315Y290751D01*
X203300Y290740D01*
X203235Y290658D01*
X203167Y290578D01*
X203160Y290561D01*
X203149Y290546D01*
X203115Y290447D01*
X203075Y290350D01*
X203073Y290327D01*
X203068Y290314D01*
X203068Y290282D01*
X203057Y290183D01*
X203057Y286844D01*
X201866Y285653D01*
X182182Y285653D01*
X180991Y286844D01*
X180991Y291622D01*
X180988Y291642D01*
X180990Y291661D01*
X180968Y291763D01*
X180952Y291865D01*
X180942Y291882D01*
X180938Y291902D01*
X180885Y291991D01*
X180836Y292082D01*
X180822Y292096D01*
X180812Y292113D01*
X180733Y292180D01*
X180658Y292252D01*
X180640Y292260D01*
X180625Y292273D01*
X180529Y292312D01*
X180435Y292355D01*
X180415Y292357D01*
X180397Y292365D01*
X180230Y292383D01*
X136270Y292383D01*
X130520Y298134D01*
X130425Y298202D01*
X130331Y298272D01*
X130325Y298274D01*
X130320Y298277D01*
X130209Y298311D01*
X130097Y298348D01*
X130091Y298348D01*
X130085Y298350D01*
X129968Y298346D01*
X129851Y298345D01*
X129844Y298343D01*
X129839Y298343D01*
X129822Y298337D01*
X129690Y298299D01*
X126988Y297179D01*
X122440Y297179D01*
X118239Y298920D01*
X115024Y302135D01*
X113283Y306336D01*
X113283Y310884D01*
X115024Y315085D01*
X118239Y318300D01*
X122440Y320041D01*
X126988Y320041D01*
X131189Y318300D01*
X134404Y315085D01*
X136145Y310884D01*
X136145Y306336D01*
X135025Y303634D01*
X134999Y303520D01*
X134970Y303407D01*
X134971Y303401D01*
X134969Y303394D01*
X134980Y303278D01*
X134989Y303162D01*
X134992Y303156D01*
X134992Y303150D01*
X135040Y303042D01*
X135086Y302935D01*
X135090Y302929D01*
X135092Y302925D01*
X135105Y302911D01*
X135190Y302804D01*
X138783Y299212D01*
X138857Y299159D01*
X138926Y299099D01*
X138957Y299087D01*
X138983Y299068D01*
X139070Y299041D01*
X139155Y299007D01*
X139196Y299003D01*
X139218Y298996D01*
X139250Y298997D01*
X139321Y298989D01*
X180230Y298989D01*
X180250Y298992D01*
X180269Y298990D01*
X180371Y299012D01*
X180473Y299028D01*
X180490Y299038D01*
X180510Y299042D01*
X180599Y299095D01*
X180690Y299144D01*
X180704Y299158D01*
X180721Y299168D01*
X180788Y299247D01*
X180860Y299322D01*
X180868Y299340D01*
X180881Y299355D01*
X180920Y299451D01*
X180963Y299545D01*
X180965Y299565D01*
X180973Y299583D01*
X180991Y299750D01*
X180991Y304528D01*
X182182Y305719D01*
X201866Y305719D01*
X203057Y304528D01*
X203057Y298939D01*
X203066Y298882D01*
X203066Y298824D01*
X203086Y298762D01*
X203096Y298697D01*
X203124Y298645D01*
X203142Y298590D01*
X203181Y298537D01*
X203212Y298479D01*
X203254Y298439D01*
X203288Y298393D01*
X203342Y298355D01*
X203390Y298310D01*
X203443Y298285D01*
X203490Y298252D01*
X203584Y298220D01*
X203613Y298206D01*
X203627Y298205D01*
X203649Y298197D01*
X205951Y297672D01*
X209286Y296910D01*
X212621Y296149D01*
X215956Y295388D01*
X215957Y295388D01*
X216084Y295359D01*
X230782Y288281D01*
X243536Y278110D01*
X253707Y265356D01*
X260785Y250658D01*
X264415Y234755D01*
X264415Y119372D01*
X264426Y119301D01*
X264428Y119229D01*
X264446Y119180D01*
X264454Y119129D01*
X264488Y119066D01*
X264513Y118998D01*
X264545Y118958D01*
X264570Y118912D01*
X264622Y118862D01*
X264666Y118806D01*
X264710Y118778D01*
X264748Y118742D01*
X264813Y118712D01*
X264873Y118673D01*
X264924Y118660D01*
X264971Y118639D01*
X265042Y118631D01*
X265112Y118613D01*
X265164Y118617D01*
X265215Y118611D01*
X265286Y118627D01*
X265357Y118632D01*
X265405Y118653D01*
X265456Y118664D01*
X265517Y118701D01*
X265583Y118729D01*
X265639Y118773D01*
X265667Y118790D01*
X265682Y118808D01*
X265714Y118833D01*
X266067Y119186D01*
X283751Y119186D01*
X284942Y117995D01*
X284942Y112217D01*
X284945Y112197D01*
X284943Y112178D01*
X284965Y112076D01*
X284981Y111974D01*
X284991Y111957D01*
X284995Y111937D01*
X285048Y111848D01*
X285096Y111757D01*
X285111Y111743D01*
X285121Y111726D01*
X285200Y111659D01*
X285275Y111588D01*
X285293Y111579D01*
X285308Y111566D01*
X285404Y111528D01*
X285498Y111484D01*
X285518Y111482D01*
X285536Y111474D01*
X285703Y111456D01*
X303425Y111456D01*
X356237Y58644D01*
X358395Y56486D01*
X358395Y36068D01*
X358398Y36048D01*
X358396Y36029D01*
X358418Y35927D01*
X358434Y35825D01*
X358444Y35808D01*
X358448Y35788D01*
X358501Y35699D01*
X358550Y35608D01*
X358564Y35594D01*
X358574Y35577D01*
X358653Y35510D01*
X358728Y35438D01*
X358746Y35430D01*
X358761Y35417D01*
X358857Y35378D01*
X358951Y35335D01*
X358971Y35333D01*
X358989Y35325D01*
X359156Y35307D01*
X365332Y35307D01*
X366523Y34116D01*
X366523Y13636D01*
X365332Y12445D01*
X344852Y12445D01*
X343661Y13636D01*
X343661Y34116D01*
X344852Y35307D01*
X351028Y35307D01*
X351048Y35310D01*
X351067Y35308D01*
X351169Y35330D01*
X351271Y35346D01*
X351288Y35356D01*
X351308Y35360D01*
X351397Y35413D01*
X351488Y35462D01*
X351502Y35476D01*
X351519Y35486D01*
X351586Y35565D01*
X351658Y35640D01*
X351666Y35658D01*
X351679Y35673D01*
X351718Y35769D01*
X351761Y35863D01*
X351763Y35883D01*
X351771Y35901D01*
X351789Y36068D01*
X351789Y53435D01*
X351775Y53525D01*
X351767Y53616D01*
X351755Y53645D01*
X351750Y53677D01*
X351707Y53758D01*
X351671Y53842D01*
X351645Y53874D01*
X351634Y53895D01*
X351611Y53917D01*
X351566Y53973D01*
X300912Y104627D01*
X300838Y104681D01*
X300768Y104740D01*
X300738Y104752D01*
X300712Y104771D01*
X300625Y104798D01*
X300540Y104832D01*
X300499Y104837D01*
X300477Y104843D01*
X300445Y104843D01*
X300373Y104850D01*
X285703Y104850D01*
X285683Y104847D01*
X285663Y104849D01*
X285562Y104827D01*
X285460Y104811D01*
X285442Y104801D01*
X285423Y104797D01*
X285334Y104744D01*
X285243Y104696D01*
X285229Y104681D01*
X285212Y104671D01*
X285144Y104592D01*
X285073Y104517D01*
X285065Y104499D01*
X285052Y104484D01*
X285013Y104388D01*
X284970Y104294D01*
X284967Y104274D01*
X284960Y104256D01*
X284942Y104089D01*
X284942Y98311D01*
X283751Y97120D01*
X266067Y97120D01*
X265714Y97473D01*
X265656Y97515D01*
X265604Y97564D01*
X265557Y97586D01*
X265515Y97617D01*
X265446Y97638D01*
X265381Y97668D01*
X265329Y97674D01*
X265279Y97689D01*
X265208Y97687D01*
X265137Y97695D01*
X265086Y97684D01*
X265034Y97683D01*
X264966Y97658D01*
X264896Y97643D01*
X264851Y97616D01*
X264803Y97598D01*
X264747Y97553D01*
X264685Y97516D01*
X264651Y97477D01*
X264611Y97444D01*
X264572Y97384D01*
X264525Y97330D01*
X264506Y97281D01*
X264478Y97237D01*
X264460Y97168D01*
X264433Y97101D01*
X264425Y97030D01*
X264417Y96999D01*
X264419Y96976D01*
X264415Y96935D01*
X264415Y35306D01*
X264419Y35280D01*
X264418Y35231D01*
X264468Y34723D01*
X264496Y34621D01*
X264518Y34518D01*
X264527Y34503D01*
X264532Y34486D01*
X264590Y34398D01*
X264644Y34307D01*
X264658Y34295D01*
X264668Y34281D01*
X264751Y34216D01*
X264831Y34147D01*
X264848Y34140D01*
X264862Y34130D01*
X264961Y34095D01*
X265059Y34055D01*
X265081Y34053D01*
X265094Y34048D01*
X265125Y34048D01*
X265226Y34037D01*
X284052Y34037D01*
X285243Y32846D01*
X285243Y12366D01*
X284052Y11175D01*
X263572Y11175D01*
X262381Y12366D01*
X262381Y23790D01*
X262367Y23880D01*
X262359Y23971D01*
X262347Y24001D01*
X262342Y24033D01*
X262299Y24113D01*
X262263Y24197D01*
X262237Y24230D01*
X262226Y24250D01*
X262203Y24272D01*
X262158Y24328D01*
X261142Y25344D01*
X261084Y25386D01*
X261032Y25436D01*
X260985Y25458D01*
X260943Y25488D01*
X260874Y25509D01*
X260809Y25539D01*
X260757Y25545D01*
X260707Y25560D01*
X260636Y25558D01*
X260565Y25566D01*
X260514Y25555D01*
X260462Y25554D01*
X260394Y25529D01*
X260324Y25514D01*
X260279Y25487D01*
X260231Y25470D01*
X260175Y25425D01*
X260113Y25388D01*
X260079Y25348D01*
X260039Y25316D01*
X260000Y25256D01*
X259953Y25201D01*
X259934Y25153D01*
X259906Y25109D01*
X259888Y25039D01*
X259861Y24973D01*
X259853Y24902D01*
X259845Y24870D01*
X259847Y24847D01*
X259843Y24806D01*
X259843Y20332D01*
X258102Y16131D01*
X254887Y12916D01*
X250686Y11175D01*
X246138Y11175D01*
G37*
%LPD*%
%LPC*%
G36*
X74355Y20337D02*
X74355Y20337D01*
X74355Y21100D01*
X74352Y21120D01*
X74354Y21139D01*
X74332Y21241D01*
X74315Y21343D01*
X74306Y21360D01*
X74302Y21380D01*
X74249Y21469D01*
X74200Y21560D01*
X74186Y21574D01*
X74176Y21591D01*
X74097Y21658D01*
X74022Y21729D01*
X74004Y21738D01*
X73989Y21751D01*
X73893Y21790D01*
X73799Y21833D01*
X73779Y21835D01*
X73761Y21843D01*
X73594Y21861D01*
X61815Y21861D01*
X61815Y26172D01*
X61988Y26819D01*
X62323Y27398D01*
X62796Y27871D01*
X63375Y28206D01*
X63760Y28309D01*
X63782Y28319D01*
X63806Y28323D01*
X63894Y28369D01*
X63984Y28410D01*
X64002Y28426D01*
X64023Y28438D01*
X64092Y28509D01*
X64165Y28577D01*
X64176Y28598D01*
X64193Y28616D01*
X64235Y28706D01*
X64282Y28793D01*
X64286Y28817D01*
X64296Y28839D01*
X64307Y28938D01*
X64324Y29036D01*
X64321Y29060D01*
X64323Y29083D01*
X64302Y29180D01*
X64287Y29279D01*
X64276Y29300D01*
X64271Y29324D01*
X64220Y29409D01*
X64175Y29498D01*
X64157Y29514D01*
X64145Y29535D01*
X64069Y29600D01*
X63998Y29669D01*
X63976Y29679D01*
X63958Y29695D01*
X63866Y29732D01*
X63776Y29775D01*
X63752Y29778D01*
X63730Y29787D01*
X63563Y29805D01*
X63514Y29805D01*
X62323Y30996D01*
X62323Y34330D01*
X62305Y34439D01*
X62291Y34550D01*
X62285Y34561D01*
X62284Y34573D01*
X62232Y34670D01*
X62183Y34771D01*
X62174Y34779D01*
X62168Y34790D01*
X62088Y34866D01*
X62010Y34946D01*
X61999Y34951D01*
X61990Y34959D01*
X61889Y35006D01*
X61790Y35056D01*
X61776Y35059D01*
X61767Y35063D01*
X61740Y35066D01*
X61625Y35088D01*
X56028Y35557D01*
X56005Y35555D01*
X55964Y35559D01*
X54745Y35559D01*
X54703Y35581D01*
X54651Y35618D01*
X54594Y35636D01*
X54541Y35662D01*
X54509Y35669D01*
X53722Y36600D01*
X53704Y36615D01*
X53679Y36647D01*
X52817Y37508D01*
X52802Y37554D01*
X52792Y37617D01*
X52764Y37670D01*
X52745Y37726D01*
X52727Y37753D01*
X52829Y38968D01*
X52827Y38991D01*
X52831Y39032D01*
X52831Y283308D01*
X53370Y283847D01*
X53423Y283921D01*
X53483Y283990D01*
X53495Y284021D01*
X53514Y284047D01*
X53541Y284134D01*
X53575Y284219D01*
X53579Y284260D01*
X53586Y284282D01*
X53585Y284314D01*
X53593Y284385D01*
X53593Y289438D01*
X56930Y304059D01*
X63437Y317570D01*
X72787Y329295D01*
X84512Y338645D01*
X98023Y345152D01*
X112644Y348489D01*
X264553Y348489D01*
X267071Y347914D01*
X270406Y347153D01*
X273741Y346392D01*
X277076Y345630D01*
X280178Y344922D01*
X294618Y337969D01*
X307148Y327976D01*
X317141Y315446D01*
X324094Y301006D01*
X327661Y285381D01*
X327661Y254000D01*
X327664Y253978D01*
X327663Y253940D01*
X327879Y251199D01*
X327880Y251193D01*
X327880Y251187D01*
X327914Y251023D01*
X329608Y245808D01*
X329625Y245776D01*
X329633Y245742D01*
X329716Y245596D01*
X332939Y241160D01*
X332965Y241135D01*
X332984Y241104D01*
X333108Y240991D01*
X337544Y237768D01*
X337576Y237752D01*
X337603Y237729D01*
X337756Y237660D01*
X341811Y236343D01*
X341923Y236326D01*
X342034Y236305D01*
X342044Y236307D01*
X342054Y236305D01*
X342166Y236325D01*
X342277Y236341D01*
X342286Y236346D01*
X342297Y236348D01*
X342396Y236402D01*
X342497Y236453D01*
X342504Y236460D01*
X342513Y236465D01*
X342590Y236548D01*
X342669Y236628D01*
X342675Y236639D01*
X342680Y236645D01*
X342691Y236668D01*
X342750Y236775D01*
X343624Y238885D01*
X346839Y242100D01*
X351040Y243841D01*
X355588Y243841D01*
X359789Y242100D01*
X363004Y238885D01*
X364745Y234684D01*
X364745Y230136D01*
X363004Y225935D01*
X359789Y222720D01*
X355588Y220979D01*
X351040Y220979D01*
X346839Y222720D01*
X343624Y225935D01*
X342491Y228669D01*
X342429Y228770D01*
X342364Y228875D01*
X342363Y228876D01*
X342361Y228878D01*
X342270Y228953D01*
X342176Y229032D01*
X342173Y229034D01*
X342172Y229035D01*
X342164Y229038D01*
X342023Y229102D01*
X334506Y231544D01*
X328127Y236179D01*
X323492Y242558D01*
X321055Y250057D01*
X321055Y277368D01*
X321053Y277384D01*
X321054Y277411D01*
X320653Y284549D01*
X320646Y284580D01*
X320635Y284676D01*
X317459Y298594D01*
X317458Y298595D01*
X317458Y298597D01*
X317432Y298672D01*
X317427Y298694D01*
X317419Y298707D01*
X317402Y298755D01*
X311208Y311617D01*
X311207Y311619D01*
X311207Y311620D01*
X311117Y311762D01*
X302216Y322924D01*
X302215Y322924D01*
X302214Y322926D01*
X302096Y323044D01*
X290934Y331945D01*
X290933Y331946D01*
X290932Y331947D01*
X290789Y332036D01*
X277927Y338230D01*
X277925Y338231D01*
X277924Y338231D01*
X277766Y338287D01*
X275769Y338742D01*
X272434Y339503D01*
X272434Y339504D01*
X269099Y340265D01*
X265764Y341026D01*
X265763Y341026D01*
X263848Y341463D01*
X263815Y341465D01*
X263721Y341481D01*
X256583Y341882D01*
X256566Y341880D01*
X256540Y341883D01*
X120142Y341883D01*
X120126Y341881D01*
X120099Y341882D01*
X113473Y341510D01*
X113441Y341503D01*
X113346Y341492D01*
X100426Y338543D01*
X100425Y338543D01*
X100423Y338542D01*
X100265Y338487D01*
X88325Y332737D01*
X88324Y332736D01*
X88323Y332735D01*
X88181Y332646D01*
X77819Y324383D01*
X77819Y324382D01*
X77817Y324381D01*
X77699Y324263D01*
X69436Y313901D01*
X69435Y313900D01*
X69434Y313899D01*
X69345Y313757D01*
X63595Y301817D01*
X63595Y301815D01*
X63594Y301814D01*
X63542Y301666D01*
X63542Y301664D01*
X63539Y301656D01*
X60590Y288736D01*
X60588Y288704D01*
X60572Y288609D01*
X60200Y281983D01*
X60202Y281966D01*
X60199Y281940D01*
X60199Y280572D01*
X59660Y280033D01*
X59607Y279959D01*
X59547Y279890D01*
X59535Y279859D01*
X59516Y279833D01*
X59489Y279746D01*
X59455Y279661D01*
X59451Y279620D01*
X59444Y279598D01*
X59445Y279566D01*
X59437Y279495D01*
X59437Y42600D01*
X59455Y42491D01*
X59469Y42380D01*
X59475Y42369D01*
X59476Y42358D01*
X59528Y42260D01*
X59577Y42160D01*
X59586Y42151D01*
X59592Y42140D01*
X59672Y42064D01*
X59750Y41985D01*
X59761Y41979D01*
X59770Y41971D01*
X59871Y41924D01*
X59970Y41874D01*
X59984Y41871D01*
X59993Y41867D01*
X60020Y41864D01*
X60135Y41842D01*
X61499Y41728D01*
X61550Y41732D01*
X61601Y41726D01*
X61672Y41741D01*
X61744Y41747D01*
X61791Y41767D01*
X61842Y41778D01*
X61904Y41815D01*
X61970Y41843D01*
X62009Y41878D01*
X62053Y41904D01*
X62100Y41959D01*
X62154Y42007D01*
X62179Y42052D01*
X62213Y42091D01*
X62240Y42158D01*
X62276Y42221D01*
X62285Y42271D01*
X62305Y42319D01*
X62318Y42435D01*
X62323Y42462D01*
X62322Y42472D01*
X62323Y42486D01*
X62323Y43680D01*
X63514Y44871D01*
X85198Y44871D01*
X86389Y43680D01*
X86389Y30996D01*
X85198Y29805D01*
X85149Y29805D01*
X85125Y29801D01*
X85101Y29804D01*
X85004Y29782D01*
X84906Y29766D01*
X84885Y29754D01*
X84861Y29749D01*
X84776Y29697D01*
X84689Y29650D01*
X84672Y29633D01*
X84652Y29620D01*
X84588Y29544D01*
X84519Y29472D01*
X84509Y29450D01*
X84494Y29432D01*
X84458Y29339D01*
X84416Y29249D01*
X84413Y29225D01*
X84404Y29203D01*
X84400Y29103D01*
X84389Y29005D01*
X84394Y28981D01*
X84393Y28957D01*
X84420Y28862D01*
X84441Y28764D01*
X84453Y28743D01*
X84460Y28720D01*
X84516Y28639D01*
X84567Y28553D01*
X84585Y28537D01*
X84599Y28518D01*
X84678Y28458D01*
X84754Y28393D01*
X84776Y28384D01*
X84796Y28370D01*
X84952Y28309D01*
X85337Y28206D01*
X85916Y27871D01*
X86389Y27398D01*
X86724Y26819D01*
X86897Y26172D01*
X86897Y21861D01*
X75118Y21861D01*
X75098Y21858D01*
X75079Y21860D01*
X74977Y21838D01*
X74875Y21821D01*
X74858Y21812D01*
X74838Y21808D01*
X74749Y21755D01*
X74658Y21706D01*
X74644Y21692D01*
X74627Y21682D01*
X74560Y21603D01*
X74489Y21528D01*
X74480Y21510D01*
X74467Y21495D01*
X74428Y21399D01*
X74385Y21305D01*
X74383Y21285D01*
X74375Y21267D01*
X74357Y21100D01*
X74357Y20337D01*
X74355Y20337D01*
G37*
%LPD*%
%LPC*%
G36*
X63514Y46805D02*
X63514Y46805D01*
X62323Y47996D01*
X62323Y60680D01*
X63514Y61871D01*
X70292Y61871D01*
X70312Y61874D01*
X70331Y61872D01*
X70433Y61894D01*
X70535Y61910D01*
X70552Y61920D01*
X70572Y61924D01*
X70661Y61977D01*
X70752Y62026D01*
X70766Y62040D01*
X70783Y62050D01*
X70850Y62129D01*
X70922Y62204D01*
X70930Y62222D01*
X70943Y62237D01*
X70982Y62333D01*
X71025Y62427D01*
X71027Y62447D01*
X71035Y62465D01*
X71053Y62632D01*
X71053Y272268D01*
X73945Y286806D01*
X79618Y300501D01*
X87853Y312826D01*
X98334Y323307D01*
X110659Y331542D01*
X124354Y337215D01*
X138892Y340107D01*
X205704Y340107D01*
X226144Y336503D01*
X245648Y329404D01*
X263623Y319026D01*
X279523Y305685D01*
X292864Y289785D01*
X303242Y271810D01*
X310341Y252306D01*
X313945Y231866D01*
X313945Y221488D01*
X313949Y221464D01*
X313948Y221420D01*
X314258Y217934D01*
X314263Y217917D01*
X314262Y217899D01*
X314303Y217736D01*
X316729Y211199D01*
X316754Y211154D01*
X316771Y211105D01*
X316837Y211008D01*
X316851Y210985D01*
X316858Y210979D01*
X316866Y210967D01*
X321415Y205682D01*
X321454Y205649D01*
X321487Y205609D01*
X321583Y205541D01*
X321603Y205524D01*
X321612Y205520D01*
X321624Y205512D01*
X327727Y202140D01*
X327776Y202122D01*
X327820Y202096D01*
X327934Y202066D01*
X327959Y202057D01*
X327968Y202057D01*
X327982Y202053D01*
X334878Y201015D01*
X334929Y201016D01*
X334980Y201007D01*
X335097Y201018D01*
X335124Y201018D01*
X335133Y201021D01*
X335147Y201023D01*
X341863Y202426D01*
X341948Y202458D01*
X342035Y202483D01*
X342062Y202502D01*
X342093Y202514D01*
X342163Y202572D01*
X342237Y202624D01*
X342257Y202650D01*
X342282Y202671D01*
X342330Y202748D01*
X342384Y202821D01*
X342394Y202852D01*
X342412Y202880D01*
X342432Y202969D01*
X342460Y203055D01*
X342460Y203088D01*
X342467Y203120D01*
X342459Y203210D01*
X342458Y203301D01*
X342446Y203341D01*
X342444Y203365D01*
X342431Y203394D01*
X342411Y203462D01*
X341883Y204736D01*
X341883Y209284D01*
X343624Y213485D01*
X346839Y216700D01*
X351040Y218441D01*
X355588Y218441D01*
X359789Y216700D01*
X363004Y213485D01*
X364745Y209284D01*
X364745Y204736D01*
X363004Y200535D01*
X359789Y197320D01*
X355588Y195579D01*
X351040Y195579D01*
X347238Y197154D01*
X347207Y197162D01*
X347178Y197176D01*
X347088Y197189D01*
X346999Y197210D01*
X346967Y197207D01*
X346935Y197212D01*
X346845Y197196D01*
X346754Y197187D01*
X346724Y197174D01*
X346693Y197168D01*
X346542Y197095D01*
X344736Y195960D01*
X335212Y193971D01*
X325589Y195419D01*
X317072Y200125D01*
X310725Y207500D01*
X307339Y216623D01*
X307339Y221488D01*
X307337Y221501D01*
X307339Y221521D01*
X306915Y231217D01*
X306909Y231248D01*
X306904Y231316D01*
X303537Y250414D01*
X303527Y250444D01*
X303503Y250543D01*
X296870Y268765D01*
X296855Y268793D01*
X296814Y268886D01*
X287118Y285680D01*
X287098Y285704D01*
X287041Y285789D01*
X274576Y300644D01*
X274552Y300665D01*
X274482Y300738D01*
X259627Y313203D01*
X259600Y313219D01*
X259518Y313280D01*
X242724Y322976D01*
X242694Y322987D01*
X242603Y323032D01*
X224381Y329665D01*
X224350Y329670D01*
X224252Y329699D01*
X205154Y333066D01*
X205123Y333067D01*
X205055Y333077D01*
X195359Y333501D01*
X195346Y333499D01*
X195326Y333501D01*
X146304Y333501D01*
X146290Y333499D01*
X146267Y333500D01*
X139613Y333173D01*
X139581Y333167D01*
X139502Y333160D01*
X126450Y330564D01*
X126427Y330555D01*
X126307Y330520D01*
X114012Y325428D01*
X113992Y325415D01*
X113881Y325357D01*
X102816Y317964D01*
X102798Y317947D01*
X102701Y317869D01*
X93291Y308459D01*
X93277Y308440D01*
X93196Y308344D01*
X85803Y297279D01*
X85793Y297257D01*
X85732Y297148D01*
X80640Y284853D01*
X80634Y284830D01*
X80596Y284710D01*
X78000Y271658D01*
X77999Y271625D01*
X77987Y271547D01*
X77660Y264893D01*
X77661Y264879D01*
X77659Y264856D01*
X77659Y62632D01*
X77662Y62612D01*
X77660Y62593D01*
X77682Y62491D01*
X77698Y62389D01*
X77708Y62372D01*
X77712Y62352D01*
X77765Y62263D01*
X77814Y62172D01*
X77828Y62158D01*
X77838Y62141D01*
X77917Y62074D01*
X77992Y62002D01*
X78010Y61994D01*
X78025Y61981D01*
X78121Y61942D01*
X78215Y61899D01*
X78235Y61897D01*
X78253Y61889D01*
X78420Y61871D01*
X85198Y61871D01*
X86389Y60680D01*
X86389Y47996D01*
X85198Y46805D01*
X63514Y46805D01*
G37*
%LPD*%
%LPC*%
G36*
X220738Y11175D02*
X220738Y11175D01*
X216537Y12916D01*
X213322Y16131D01*
X211581Y20332D01*
X211581Y24880D01*
X213322Y29081D01*
X216537Y32296D01*
X220738Y34037D01*
X225286Y34037D01*
X229487Y32296D01*
X232702Y29081D01*
X234443Y24880D01*
X234443Y20332D01*
X232702Y16131D01*
X229487Y12916D01*
X225286Y11175D01*
X220738Y11175D01*
G37*
%LPD*%
%LPC*%
G36*
X378218Y12445D02*
X378218Y12445D01*
X374017Y14186D01*
X370802Y17401D01*
X369061Y21602D01*
X369061Y26150D01*
X370802Y30351D01*
X374017Y33566D01*
X378218Y35307D01*
X382766Y35307D01*
X386967Y33566D01*
X390182Y30351D01*
X391923Y26150D01*
X391923Y21602D01*
X390182Y17401D01*
X386967Y14186D01*
X382766Y12445D01*
X378218Y12445D01*
G37*
%LPD*%
%LPC*%
G36*
X122440Y271779D02*
X122440Y271779D01*
X118239Y273520D01*
X115024Y276735D01*
X113283Y280936D01*
X113283Y285484D01*
X115024Y289685D01*
X118239Y292900D01*
X122440Y294641D01*
X126988Y294641D01*
X131189Y292900D01*
X134404Y289685D01*
X136145Y285484D01*
X136145Y280936D01*
X134404Y276735D01*
X131189Y273520D01*
X126988Y271779D01*
X122440Y271779D01*
G37*
%LPD*%
%LPC*%
G36*
X351040Y119379D02*
X351040Y119379D01*
X346839Y121120D01*
X343624Y124335D01*
X341883Y128536D01*
X341883Y133084D01*
X343624Y137285D01*
X346839Y140500D01*
X351040Y142241D01*
X355588Y142241D01*
X359789Y140500D01*
X363004Y137285D01*
X364745Y133084D01*
X364745Y128536D01*
X363004Y124335D01*
X359789Y121120D01*
X355588Y119379D01*
X351040Y119379D01*
G37*
%LPD*%
%LPC*%
G36*
X351040Y144779D02*
X351040Y144779D01*
X346839Y146520D01*
X343624Y149735D01*
X341883Y153936D01*
X341883Y158484D01*
X343624Y162685D01*
X346839Y165900D01*
X351040Y167641D01*
X355588Y167641D01*
X359789Y165900D01*
X363004Y162685D01*
X364745Y158484D01*
X364745Y153936D01*
X363004Y149735D01*
X359789Y146520D01*
X355588Y144779D01*
X351040Y144779D01*
G37*
%LPD*%
%LPC*%
G36*
X122440Y119379D02*
X122440Y119379D01*
X118239Y121120D01*
X115024Y124335D01*
X113283Y128536D01*
X113283Y133084D01*
X115024Y137285D01*
X118239Y140500D01*
X122440Y142241D01*
X126988Y142241D01*
X131189Y140500D01*
X134404Y137285D01*
X136145Y133084D01*
X136145Y128536D01*
X134404Y124335D01*
X131189Y121120D01*
X126988Y119379D01*
X122440Y119379D01*
G37*
%LPD*%
%LPC*%
G36*
X351040Y246379D02*
X351040Y246379D01*
X346839Y248120D01*
X343624Y251335D01*
X341883Y255536D01*
X341883Y260084D01*
X343624Y264285D01*
X346839Y267500D01*
X351040Y269241D01*
X355588Y269241D01*
X359789Y267500D01*
X363004Y264285D01*
X364745Y260084D01*
X364745Y255536D01*
X363004Y251335D01*
X359789Y248120D01*
X355588Y246379D01*
X351040Y246379D01*
G37*
%LPD*%
%LPC*%
G36*
X122440Y220979D02*
X122440Y220979D01*
X118239Y222720D01*
X115024Y225935D01*
X113283Y230136D01*
X113283Y234684D01*
X115024Y238885D01*
X118239Y242100D01*
X122440Y243841D01*
X126988Y243841D01*
X131189Y242100D01*
X134404Y238885D01*
X136145Y234684D01*
X136145Y230136D01*
X134404Y225935D01*
X131189Y222720D01*
X126988Y220979D01*
X122440Y220979D01*
G37*
%LPD*%
%LPC*%
G36*
X122440Y195579D02*
X122440Y195579D01*
X118239Y197320D01*
X115024Y200535D01*
X113283Y204736D01*
X113283Y209284D01*
X115024Y213485D01*
X118239Y216700D01*
X122440Y218441D01*
X126988Y218441D01*
X131189Y216700D01*
X134404Y213485D01*
X136145Y209284D01*
X136145Y204736D01*
X134404Y200535D01*
X131189Y197320D01*
X126988Y195579D01*
X122440Y195579D01*
G37*
%LPD*%
%LPC*%
G36*
X351040Y170179D02*
X351040Y170179D01*
X346839Y171920D01*
X343624Y175135D01*
X341883Y179336D01*
X341883Y183884D01*
X343624Y188085D01*
X346839Y191300D01*
X351040Y193041D01*
X355588Y193041D01*
X359789Y191300D01*
X363004Y188085D01*
X364745Y183884D01*
X364745Y179336D01*
X363004Y175135D01*
X359789Y171920D01*
X355588Y170179D01*
X351040Y170179D01*
G37*
%LPD*%
%LPC*%
G36*
X122440Y170179D02*
X122440Y170179D01*
X118239Y171920D01*
X115024Y175135D01*
X113283Y179336D01*
X113283Y183884D01*
X115024Y188085D01*
X118239Y191300D01*
X122440Y193041D01*
X126988Y193041D01*
X131189Y191300D01*
X134404Y188085D01*
X136145Y183884D01*
X136145Y179336D01*
X134404Y175135D01*
X131189Y171920D01*
X126988Y170179D01*
X122440Y170179D01*
G37*
%LPD*%
%LPC*%
G36*
X23514Y46805D02*
X23514Y46805D01*
X22323Y47996D01*
X22323Y60680D01*
X23514Y61871D01*
X45198Y61871D01*
X46389Y60680D01*
X46389Y47996D01*
X45198Y46805D01*
X23514Y46805D01*
G37*
%LPD*%
%LPC*%
G36*
X23514Y29805D02*
X23514Y29805D01*
X22323Y30996D01*
X22323Y43680D01*
X23514Y44871D01*
X45198Y44871D01*
X46389Y43680D01*
X46389Y30996D01*
X45198Y29805D01*
X23514Y29805D01*
G37*
%LPD*%
%LPC*%
G36*
X202234Y80235D02*
X202234Y80235D01*
X212252Y80235D01*
X212252Y73424D01*
X212078Y72777D01*
X211744Y72198D01*
X211271Y71725D01*
X210692Y71390D01*
X210045Y71217D01*
X202234Y71217D01*
X202234Y80235D01*
G37*
%LPD*%
%LPC*%
G36*
X191376Y71217D02*
X191376Y71217D01*
X190730Y71390D01*
X190151Y71725D01*
X189678Y72198D01*
X189343Y72777D01*
X189170Y73424D01*
X189170Y80235D01*
X199188Y80235D01*
X199188Y71217D01*
X191376Y71217D01*
G37*
%LPD*%
%LPC*%
G36*
X354837Y284733D02*
X354837Y284733D01*
X354837Y295056D01*
X356110Y294855D01*
X357897Y294274D01*
X359571Y293421D01*
X361092Y292316D01*
X362420Y290988D01*
X363525Y289467D01*
X364378Y287793D01*
X364959Y286006D01*
X365160Y284733D01*
X354837Y284733D01*
G37*
%LPD*%
%LPC*%
G36*
X199135Y24129D02*
X199135Y24129D01*
X199135Y34452D01*
X200408Y34251D01*
X202195Y33670D01*
X203869Y32817D01*
X205390Y31712D01*
X206718Y30384D01*
X207823Y28863D01*
X208676Y27189D01*
X209257Y25402D01*
X209458Y24129D01*
X199135Y24129D01*
G37*
%LPD*%
%LPC*%
G36*
X407415Y25399D02*
X407415Y25399D01*
X407415Y35722D01*
X408688Y35521D01*
X410475Y34940D01*
X412149Y34087D01*
X413670Y32982D01*
X414998Y31654D01*
X416103Y30133D01*
X416956Y28459D01*
X417537Y26672D01*
X417738Y25399D01*
X407415Y25399D01*
G37*
%LPD*%
%LPC*%
G36*
X354837Y281687D02*
X354837Y281687D01*
X365160Y281687D01*
X364959Y280414D01*
X364378Y278627D01*
X363525Y276953D01*
X362420Y275432D01*
X361092Y274104D01*
X359571Y272999D01*
X357897Y272146D01*
X356110Y271565D01*
X354837Y271364D01*
X354837Y281687D01*
G37*
%LPD*%
%LPC*%
G36*
X394046Y25399D02*
X394046Y25399D01*
X394247Y26672D01*
X394828Y28459D01*
X395681Y30133D01*
X396786Y31654D01*
X398114Y32982D01*
X399635Y34087D01*
X401309Y34940D01*
X403096Y35521D01*
X404369Y35722D01*
X404369Y25399D01*
X394046Y25399D01*
G37*
%LPD*%
%LPC*%
G36*
X341468Y284733D02*
X341468Y284733D01*
X341669Y286006D01*
X342250Y287793D01*
X343103Y289467D01*
X344208Y290988D01*
X345536Y292316D01*
X347057Y293421D01*
X348731Y294274D01*
X350518Y294855D01*
X351791Y295056D01*
X351791Y284733D01*
X341468Y284733D01*
G37*
%LPD*%
%LPC*%
G36*
X185766Y24129D02*
X185766Y24129D01*
X185967Y25402D01*
X186548Y27189D01*
X187401Y28863D01*
X188506Y30384D01*
X189834Y31712D01*
X191355Y32817D01*
X193029Y33670D01*
X194816Y34251D01*
X196089Y34452D01*
X196089Y24129D01*
X185766Y24129D01*
G37*
%LPD*%
%LPC*%
G36*
X407415Y22353D02*
X407415Y22353D01*
X417738Y22353D01*
X417537Y21080D01*
X416956Y19293D01*
X416103Y17619D01*
X414998Y16098D01*
X413670Y14770D01*
X412149Y13665D01*
X410475Y12812D01*
X408688Y12231D01*
X407415Y12030D01*
X407415Y22353D01*
G37*
%LPD*%
%LPC*%
G36*
X199135Y21083D02*
X199135Y21083D01*
X209458Y21083D01*
X209257Y19810D01*
X208676Y18023D01*
X207823Y16349D01*
X206718Y14828D01*
X205390Y13500D01*
X203869Y12395D01*
X202195Y11542D01*
X200408Y10961D01*
X199135Y10760D01*
X199135Y21083D01*
G37*
%LPD*%
%LPC*%
G36*
X194816Y10961D02*
X194816Y10961D01*
X193029Y11542D01*
X191355Y12395D01*
X189834Y13500D01*
X188506Y14828D01*
X187401Y16349D01*
X186548Y18023D01*
X185967Y19810D01*
X185766Y21083D01*
X196089Y21083D01*
X196089Y10760D01*
X194816Y10961D01*
G37*
%LPD*%
%LPC*%
G36*
X350518Y271565D02*
X350518Y271565D01*
X348731Y272146D01*
X347057Y272999D01*
X345536Y274104D01*
X344208Y275432D01*
X343103Y276953D01*
X342250Y278627D01*
X341669Y280414D01*
X341468Y281687D01*
X351791Y281687D01*
X351791Y271364D01*
X350518Y271565D01*
G37*
%LPD*%
%LPC*%
G36*
X403096Y12231D02*
X403096Y12231D01*
X401309Y12812D01*
X399635Y13665D01*
X398114Y14770D01*
X396786Y16098D01*
X395681Y17619D01*
X394828Y19293D01*
X394247Y21080D01*
X394046Y22353D01*
X404369Y22353D01*
X404369Y12030D01*
X403096Y12231D01*
G37*
%LPD*%
%LPC*%
G36*
X75879Y12297D02*
X75879Y12297D01*
X75879Y18815D01*
X86897Y18815D01*
X86897Y14504D01*
X86724Y13857D01*
X86389Y13278D01*
X85916Y12805D01*
X85337Y12470D01*
X84690Y12297D01*
X75879Y12297D01*
G37*
%LPD*%
%LPC*%
G36*
X64022Y12297D02*
X64022Y12297D01*
X63375Y12470D01*
X62796Y12805D01*
X62323Y13278D01*
X61988Y13857D01*
X61815Y14504D01*
X61815Y18815D01*
X72833Y18815D01*
X72833Y12297D01*
X64022Y12297D01*
G37*
%LPD*%
%LPC*%
G36*
X405891Y23875D02*
X405891Y23875D01*
X405891Y23877D01*
X405893Y23877D01*
X405893Y23875D01*
X405891Y23875D01*
G37*
%LPD*%
%LPC*%
G36*
X353313Y283209D02*
X353313Y283209D01*
X353313Y283211D01*
X353315Y283211D01*
X353315Y283209D01*
X353313Y283209D01*
G37*
%LPD*%
%LPC*%
G36*
X197611Y22605D02*
X197611Y22605D01*
X197611Y22607D01*
X197613Y22607D01*
X197613Y22605D01*
X197611Y22605D01*
G37*
%LPD*%
D10*
X355092Y23876D03*
D11*
X380492Y23876D03*
X405892Y23876D03*
X431292Y23876D03*
D12*
X200711Y81758D03*
X200711Y109758D03*
D13*
X274909Y108153D03*
X246909Y108153D03*
D10*
X273812Y22606D03*
D11*
X248412Y22606D03*
X223012Y22606D03*
X197612Y22606D03*
D12*
X192024Y295686D03*
X192024Y267686D03*
D11*
X124714Y130810D03*
X124714Y156210D03*
X124714Y181610D03*
X124714Y207010D03*
X124714Y232410D03*
X124714Y257810D03*
X124714Y283210D03*
X124714Y308610D03*
X353314Y308610D03*
X353314Y283210D03*
X353314Y257810D03*
X353314Y232410D03*
X353314Y207010D03*
X353314Y181610D03*
X353314Y156210D03*
X353314Y130810D03*
D14*
X34356Y20338D03*
X34356Y37338D03*
X34356Y54338D03*
X74356Y54338D03*
X74356Y37338D03*
X74356Y20338D03*
D15*
X353060Y283210D02*
X353314Y283210D01*
D16*
X405892Y230378D02*
X405892Y23876D01*
X405892Y230378D02*
X405877Y231655D01*
X405830Y232930D01*
X405753Y234205D01*
X405645Y235477D01*
X405507Y236746D01*
X405338Y238012D01*
X405138Y239273D01*
X404908Y240528D01*
X404647Y241778D01*
X404357Y243022D01*
X404036Y244257D01*
X403686Y245485D01*
X403306Y246704D01*
X402897Y247913D01*
X402459Y249112D01*
X401992Y250301D01*
X401496Y251477D01*
X400972Y252641D01*
X400420Y253793D01*
X399840Y254930D01*
X399233Y256053D01*
X398600Y257162D01*
X397939Y258254D01*
X397252Y259331D01*
X396540Y260390D01*
X395802Y261432D01*
X395039Y262456D01*
X394252Y263461D01*
X393440Y264446D01*
X392605Y265412D01*
X391747Y266357D01*
X390867Y267282D01*
X389964Y268185D01*
X389039Y269065D01*
X388094Y269923D01*
X387128Y270758D01*
X386143Y271570D01*
X385138Y272357D01*
X384114Y273120D01*
X383072Y273858D01*
X382013Y274570D01*
X380936Y275257D01*
X379844Y275918D01*
X378735Y276551D01*
X377612Y277158D01*
X376475Y277738D01*
X375323Y278290D01*
X374159Y278814D01*
X372983Y279310D01*
X371794Y279777D01*
X370595Y280215D01*
X369386Y280624D01*
X368167Y281004D01*
X366939Y281354D01*
X365704Y281675D01*
X364460Y281965D01*
X363210Y282226D01*
X361955Y282456D01*
X360694Y282656D01*
X359428Y282825D01*
X358159Y282963D01*
X356887Y283071D01*
X355612Y283148D01*
X354337Y283195D01*
X353060Y283210D01*
X197612Y22606D02*
X197612Y21336D01*
X197612Y16764D01*
X209296Y5080D01*
X387096Y5080D01*
X405892Y23876D01*
X200711Y81758D02*
X200600Y81756D01*
X200490Y81750D01*
X200380Y81740D01*
X200270Y81726D01*
X200161Y81709D01*
X200052Y81687D01*
X199945Y81662D01*
X199838Y81632D01*
X199732Y81599D01*
X199628Y81563D01*
X199525Y81522D01*
X199424Y81478D01*
X199324Y81430D01*
X199226Y81379D01*
X199130Y81324D01*
X199036Y81266D01*
X198944Y81205D01*
X198854Y81140D01*
X198766Y81072D01*
X198682Y81001D01*
X198599Y80927D01*
X198520Y80850D01*
X198443Y80771D01*
X198369Y80688D01*
X198298Y80604D01*
X198230Y80516D01*
X198165Y80426D01*
X198104Y80334D01*
X198046Y80240D01*
X197991Y80144D01*
X197940Y80046D01*
X197892Y79946D01*
X197848Y79845D01*
X197807Y79742D01*
X197771Y79638D01*
X197738Y79532D01*
X197708Y79425D01*
X197683Y79318D01*
X197661Y79209D01*
X197644Y79100D01*
X197630Y78990D01*
X197620Y78880D01*
X197614Y78770D01*
X197612Y78659D01*
X197612Y22606D01*
X75354Y21336D02*
X75294Y21334D01*
X75234Y21329D01*
X75174Y21320D01*
X75115Y21307D01*
X75057Y21291D01*
X75000Y21271D01*
X74944Y21248D01*
X74890Y21222D01*
X74838Y21192D01*
X74787Y21159D01*
X74739Y21124D01*
X74692Y21085D01*
X74648Y21044D01*
X74607Y21000D01*
X74568Y20953D01*
X74533Y20905D01*
X74500Y20854D01*
X74470Y20802D01*
X74444Y20748D01*
X74421Y20692D01*
X74401Y20635D01*
X74385Y20577D01*
X74372Y20518D01*
X74363Y20458D01*
X74358Y20398D01*
X74356Y20338D01*
X75354Y21336D02*
X197612Y21336D01*
D15*
X247802Y109322D02*
X247735Y109324D01*
X247668Y109330D01*
X247601Y109339D01*
X247535Y109352D01*
X247470Y109369D01*
X247406Y109389D01*
X247344Y109413D01*
X247282Y109441D01*
X247223Y109471D01*
X247165Y109506D01*
X247109Y109543D01*
X247055Y109583D01*
X247004Y109627D01*
X246955Y109673D01*
X246909Y109722D01*
X246865Y109773D01*
X246825Y109827D01*
X246788Y109883D01*
X246753Y109941D01*
X246723Y110000D01*
X246695Y110062D01*
X246671Y110124D01*
X246651Y110188D01*
X246634Y110253D01*
X246621Y110319D01*
X246612Y110386D01*
X246606Y110453D01*
X246604Y110520D01*
X247802Y109322D02*
X247802Y114270D01*
X247700Y114191D01*
X247599Y114109D01*
X247502Y114024D01*
X247406Y113937D01*
X247314Y113846D01*
X247224Y113753D01*
X247137Y113657D01*
X247052Y113559D01*
X246971Y113458D01*
X246893Y113355D01*
X246817Y113249D01*
X246745Y113141D01*
X246677Y113032D01*
X246611Y112920D01*
X246549Y112806D01*
X246490Y112691D01*
X246435Y112574D01*
X246383Y112455D01*
X246335Y112335D01*
X246290Y112213D01*
X246249Y112090D01*
X246211Y111966D01*
X246178Y111841D01*
X246148Y111715D01*
X246121Y111588D01*
X246099Y111461D01*
X246080Y111333D01*
X246065Y111204D01*
X246054Y111075D01*
X246047Y110946D01*
X246043Y110816D01*
X246044Y110687D01*
X246048Y110557D01*
X246056Y110428D01*
X246068Y110299D01*
X246084Y110170D01*
X246103Y110042D01*
X246126Y109915D01*
X246154Y109788D01*
X246184Y109662D01*
X246219Y109537D01*
X246257Y109414D01*
X246299Y109291D01*
X246345Y109170D01*
X246394Y109050D01*
X246446Y108931D01*
X246502Y108815D01*
X246562Y108700D01*
X246625Y108586D01*
X246691Y108475D01*
X246760Y108366D01*
X246833Y108259D01*
X246909Y108153D01*
D16*
X247366Y109758D02*
X200711Y109758D01*
X247366Y109758D02*
X247802Y109322D01*
X200711Y109758D02*
X200697Y110880D01*
X200657Y112002D01*
X200589Y113123D01*
X200494Y114241D01*
X200372Y115357D01*
X200224Y116470D01*
X200048Y117579D01*
X199846Y118683D01*
X199617Y119782D01*
X199361Y120875D01*
X199079Y121961D01*
X198771Y123041D01*
X198437Y124112D01*
X198078Y125176D01*
X197692Y126230D01*
X197282Y127275D01*
X196846Y128309D01*
X196385Y129333D01*
X195900Y130345D01*
X195390Y131345D01*
X194857Y132333D01*
X194299Y133307D01*
X193718Y134268D01*
X193115Y135214D01*
X192488Y136146D01*
X191839Y137062D01*
X191169Y137962D01*
X190476Y138846D01*
X189763Y139712D01*
X189029Y140561D01*
X188274Y141393D01*
X187500Y142205D01*
X186706Y142999D01*
X185894Y143773D01*
X185062Y144528D01*
X184213Y145262D01*
X183347Y145975D01*
X182463Y146668D01*
X181563Y147338D01*
X180647Y147987D01*
X179715Y148614D01*
X178769Y149217D01*
X177808Y149798D01*
X176834Y150356D01*
X175846Y150889D01*
X174846Y151399D01*
X173834Y151884D01*
X172810Y152345D01*
X171776Y152781D01*
X170731Y153191D01*
X169677Y153577D01*
X168613Y153936D01*
X167542Y154270D01*
X166462Y154578D01*
X165376Y154860D01*
X164283Y155116D01*
X163184Y155345D01*
X162080Y155547D01*
X160971Y155723D01*
X159858Y155871D01*
X158742Y155993D01*
X157624Y156088D01*
X156503Y156156D01*
X155381Y156196D01*
X154259Y156210D01*
X124714Y156210D01*
D15*
X120824Y304720D02*
X120946Y304722D01*
X121068Y304728D01*
X121190Y304737D01*
X121312Y304751D01*
X121433Y304768D01*
X121553Y304789D01*
X121673Y304814D01*
X121791Y304842D01*
X121909Y304874D01*
X122026Y304910D01*
X122142Y304950D01*
X122256Y304993D01*
X122369Y305040D01*
X122480Y305090D01*
X122590Y305144D01*
X122698Y305201D01*
X122804Y305262D01*
X122908Y305326D01*
X123011Y305393D01*
X123110Y305463D01*
X123208Y305536D01*
X123304Y305613D01*
X123397Y305692D01*
X123487Y305774D01*
X123575Y305859D01*
X123660Y305947D01*
X123742Y306037D01*
X123821Y306130D01*
X123898Y306226D01*
X123971Y306324D01*
X124041Y306423D01*
X124108Y306526D01*
X124172Y306630D01*
X124233Y306736D01*
X124290Y306844D01*
X124344Y306954D01*
X124394Y307065D01*
X124441Y307178D01*
X124484Y307292D01*
X124524Y307408D01*
X124560Y307525D01*
X124592Y307643D01*
X124620Y307761D01*
X124645Y307881D01*
X124666Y308001D01*
X124683Y308122D01*
X124697Y308244D01*
X124706Y308366D01*
X124712Y308488D01*
X124714Y308610D01*
D16*
X137638Y295686D02*
X192024Y295686D01*
X137638Y295686D02*
X124714Y308610D01*
X261112Y35306D02*
X261116Y34999D01*
X261127Y34692D01*
X261145Y34386D01*
X261171Y34080D01*
X261205Y33775D01*
X261245Y33471D01*
X261293Y33168D01*
X261349Y32866D01*
X261411Y32566D01*
X261481Y32267D01*
X261558Y31970D01*
X261642Y31674D01*
X261734Y31381D01*
X261832Y31091D01*
X261937Y30803D01*
X262050Y30517D01*
X262169Y30234D01*
X262295Y29954D01*
X262427Y29677D01*
X262567Y29404D01*
X262713Y29134D01*
X262865Y28868D01*
X263024Y28605D01*
X263189Y28346D01*
X263360Y28092D01*
X263537Y27841D01*
X263721Y27595D01*
X263910Y27353D01*
X264105Y27117D01*
X264306Y26884D01*
X264512Y26657D01*
X264724Y26435D01*
X264941Y26218D01*
X265163Y26006D01*
X265390Y25800D01*
X265623Y25599D01*
X265859Y25404D01*
X266101Y25215D01*
X266347Y25031D01*
X266598Y24854D01*
X266852Y24683D01*
X267111Y24518D01*
X267374Y24359D01*
X267640Y24207D01*
X267910Y24061D01*
X268183Y23921D01*
X268460Y23789D01*
X268740Y23663D01*
X269023Y23544D01*
X269309Y23431D01*
X269597Y23326D01*
X269887Y23228D01*
X270180Y23136D01*
X270476Y23052D01*
X270773Y22975D01*
X271072Y22905D01*
X271372Y22843D01*
X271674Y22787D01*
X271977Y22739D01*
X272281Y22699D01*
X272586Y22665D01*
X272892Y22639D01*
X273198Y22621D01*
X273505Y22610D01*
X273812Y22606D01*
X261112Y226598D02*
X261092Y228267D01*
X261031Y229936D01*
X260931Y231602D01*
X260789Y233266D01*
X260608Y234926D01*
X260387Y236580D01*
X260126Y238229D01*
X259825Y239872D01*
X259484Y241506D01*
X259104Y243132D01*
X258685Y244748D01*
X258227Y246353D01*
X257731Y247947D01*
X257196Y249529D01*
X256622Y251097D01*
X256012Y252651D01*
X255363Y254189D01*
X254678Y255712D01*
X253956Y257217D01*
X253198Y258705D01*
X252405Y260174D01*
X251576Y261623D01*
X250712Y263052D01*
X249814Y264459D01*
X248882Y265844D01*
X247917Y267207D01*
X246920Y268546D01*
X245890Y269860D01*
X244829Y271149D01*
X243737Y272412D01*
X242615Y273648D01*
X241463Y274857D01*
X240283Y276037D01*
X239074Y277189D01*
X237838Y278311D01*
X236575Y279403D01*
X235286Y280464D01*
X233972Y281494D01*
X232633Y282491D01*
X231270Y283456D01*
X229885Y284388D01*
X228478Y285286D01*
X227049Y286150D01*
X225600Y286979D01*
X224131Y287772D01*
X222643Y288530D01*
X221138Y289252D01*
X219615Y289937D01*
X218077Y290586D01*
X216523Y291196D01*
X214955Y291770D01*
X213373Y292305D01*
X211779Y292801D01*
X210174Y293259D01*
X208558Y293678D01*
X206932Y294058D01*
X205298Y294399D01*
X203655Y294700D01*
X202006Y294961D01*
X200352Y295182D01*
X198692Y295363D01*
X197028Y295505D01*
X195362Y295605D01*
X193693Y295666D01*
X192024Y295686D01*
X261112Y226598D02*
X261112Y35306D01*
X192024Y267686D02*
X134590Y267686D01*
X124714Y257810D01*
X248412Y67564D02*
X248412Y22606D01*
X248412Y67564D02*
X248404Y68251D01*
X248379Y68938D01*
X248337Y69625D01*
X248279Y70310D01*
X248205Y70993D01*
X248113Y71674D01*
X248006Y72353D01*
X247882Y73030D01*
X247742Y73703D01*
X247585Y74372D01*
X247413Y75037D01*
X247224Y75699D01*
X247020Y76355D01*
X246799Y77006D01*
X246563Y77652D01*
X246312Y78292D01*
X246045Y78925D01*
X245763Y79552D01*
X245466Y80172D01*
X245153Y80784D01*
X244827Y81389D01*
X244485Y81986D01*
X244130Y82574D01*
X243760Y83154D01*
X243376Y83724D01*
X242979Y84285D01*
X242568Y84837D01*
X242144Y85378D01*
X241707Y85908D01*
X241258Y86429D01*
X240796Y86938D01*
X240321Y87435D01*
X239835Y87921D01*
X239338Y88396D01*
X238829Y88858D01*
X238308Y89307D01*
X237778Y89744D01*
X237237Y90168D01*
X236685Y90579D01*
X236124Y90976D01*
X235554Y91360D01*
X234974Y91730D01*
X234386Y92085D01*
X233789Y92427D01*
X233184Y92753D01*
X232572Y93066D01*
X231952Y93363D01*
X231325Y93645D01*
X230692Y93912D01*
X230052Y94163D01*
X229406Y94399D01*
X228755Y94620D01*
X228099Y94824D01*
X227437Y95013D01*
X226772Y95185D01*
X226103Y95342D01*
X225430Y95482D01*
X224753Y95606D01*
X224074Y95713D01*
X223393Y95805D01*
X222710Y95879D01*
X222025Y95937D01*
X221338Y95979D01*
X220651Y96004D01*
X219964Y96012D01*
X133858Y96012D01*
X132741Y96025D01*
X131625Y96066D01*
X130509Y96133D01*
X129396Y96228D01*
X128286Y96349D01*
X127179Y96497D01*
X126075Y96672D01*
X124976Y96873D01*
X123883Y97101D01*
X122795Y97355D01*
X121714Y97636D01*
X120639Y97942D01*
X119573Y98275D01*
X118515Y98633D01*
X117465Y99016D01*
X116426Y99425D01*
X115396Y99859D01*
X114377Y100317D01*
X113370Y100800D01*
X112375Y101307D01*
X111392Y101838D01*
X110422Y102393D01*
X109466Y102971D01*
X108524Y103572D01*
X107598Y104195D01*
X106686Y104841D01*
X105790Y105508D01*
X104911Y106197D01*
X104048Y106907D01*
X103203Y107638D01*
X102376Y108389D01*
X101567Y109159D01*
X100777Y109949D01*
X100007Y110758D01*
X99256Y111585D01*
X98525Y112430D01*
X97815Y113293D01*
X97126Y114172D01*
X96459Y115068D01*
X95813Y115980D01*
X95190Y116906D01*
X94589Y117848D01*
X94011Y118804D01*
X93456Y119774D01*
X92925Y120757D01*
X92418Y121752D01*
X91935Y122759D01*
X91477Y123778D01*
X91043Y124808D01*
X90634Y125847D01*
X90251Y126897D01*
X89893Y127955D01*
X89560Y129021D01*
X89254Y130096D01*
X88973Y131177D01*
X88719Y132265D01*
X88491Y133358D01*
X88290Y134457D01*
X88115Y135561D01*
X87967Y136668D01*
X87846Y137778D01*
X87751Y138891D01*
X87684Y140007D01*
X87643Y141123D01*
X87630Y142240D01*
X87630Y220726D01*
X87641Y221622D01*
X87673Y222518D01*
X87727Y223412D01*
X87803Y224305D01*
X87900Y225196D01*
X88019Y226084D01*
X88159Y226969D01*
X88321Y227851D01*
X88504Y228728D01*
X88708Y229601D01*
X88933Y230468D01*
X89178Y231330D01*
X89445Y232186D01*
X89732Y233034D01*
X90040Y233876D01*
X90368Y234710D01*
X90716Y235536D01*
X91083Y236353D01*
X91471Y237161D01*
X91878Y237960D01*
X92304Y238748D01*
X92749Y239526D01*
X93212Y240293D01*
X93694Y241048D01*
X94194Y241792D01*
X94712Y242523D01*
X95248Y243242D01*
X95801Y243947D01*
X96370Y244639D01*
X96956Y245317D01*
X97559Y245981D01*
X98177Y246630D01*
X98810Y247263D01*
X99459Y247881D01*
X100123Y248484D01*
X100801Y249070D01*
X101493Y249639D01*
X102198Y250192D01*
X102917Y250728D01*
X103648Y251246D01*
X104392Y251746D01*
X105147Y252228D01*
X105914Y252691D01*
X106692Y253136D01*
X107480Y253562D01*
X108279Y253969D01*
X109087Y254357D01*
X109904Y254724D01*
X110730Y255072D01*
X111564Y255400D01*
X112406Y255708D01*
X113254Y255995D01*
X114110Y256262D01*
X114972Y256507D01*
X115839Y256732D01*
X116712Y256936D01*
X117589Y257119D01*
X118471Y257281D01*
X119356Y257421D01*
X120244Y257540D01*
X121135Y257637D01*
X122028Y257713D01*
X122922Y257767D01*
X123818Y257799D01*
X124714Y257810D01*
X431292Y230632D02*
X431292Y23876D01*
X431292Y230632D02*
X431269Y232516D01*
X431201Y234399D01*
X431087Y236280D01*
X430928Y238158D01*
X430723Y240031D01*
X430474Y241899D01*
X430179Y243760D01*
X429839Y245614D01*
X429455Y247458D01*
X429026Y249293D01*
X428553Y251117D01*
X428036Y252929D01*
X427475Y254729D01*
X426872Y256514D01*
X426225Y258283D01*
X425535Y260037D01*
X424804Y261774D01*
X424030Y263492D01*
X423216Y265191D01*
X422360Y266870D01*
X421464Y268528D01*
X420529Y270164D01*
X419554Y271776D01*
X418540Y273365D01*
X417489Y274929D01*
X416400Y276466D01*
X415274Y277977D01*
X414111Y279461D01*
X412914Y280916D01*
X411681Y282341D01*
X410415Y283736D01*
X409115Y285101D01*
X407783Y286433D01*
X406418Y287733D01*
X405023Y288999D01*
X403598Y290232D01*
X402143Y291429D01*
X400659Y292592D01*
X399148Y293718D01*
X397611Y294807D01*
X396047Y295858D01*
X394458Y296872D01*
X392846Y297847D01*
X391210Y298782D01*
X389552Y299678D01*
X387873Y300534D01*
X386174Y301348D01*
X384456Y302122D01*
X382719Y302853D01*
X380965Y303543D01*
X379196Y304190D01*
X377411Y304793D01*
X375611Y305354D01*
X373799Y305871D01*
X371975Y306344D01*
X370140Y306773D01*
X368296Y307157D01*
X366442Y307497D01*
X364581Y307792D01*
X362713Y308041D01*
X360840Y308246D01*
X358962Y308405D01*
X357081Y308519D01*
X355198Y308587D01*
X353314Y308610D01*
X34356Y20338D02*
X6350Y20338D01*
X6350Y234188D02*
X6386Y237183D01*
X6495Y240177D01*
X6676Y243166D01*
X6929Y246151D01*
X7254Y249129D01*
X7651Y252098D01*
X8119Y255056D01*
X8659Y258002D01*
X9270Y260935D01*
X9952Y263852D01*
X10704Y266751D01*
X11526Y269632D01*
X12417Y272491D01*
X13377Y275329D01*
X14405Y278142D01*
X15501Y280930D01*
X16664Y283690D01*
X17893Y286422D01*
X19188Y289122D01*
X20548Y291791D01*
X21972Y294427D01*
X23459Y297027D01*
X25009Y299590D01*
X26620Y302115D01*
X28292Y304601D01*
X30023Y307045D01*
X31813Y309447D01*
X33660Y311805D01*
X35564Y314117D01*
X37523Y316383D01*
X39536Y318601D01*
X41602Y320770D01*
X43720Y322888D01*
X45889Y324954D01*
X48107Y326967D01*
X50373Y328926D01*
X52685Y330830D01*
X55043Y332677D01*
X57445Y334467D01*
X59889Y336198D01*
X62375Y337870D01*
X64900Y339481D01*
X67463Y341031D01*
X70063Y342518D01*
X72699Y343942D01*
X75368Y345302D01*
X78068Y346597D01*
X80800Y347826D01*
X83560Y348989D01*
X86348Y350085D01*
X89161Y351113D01*
X91999Y352073D01*
X94858Y352964D01*
X97739Y353786D01*
X100638Y354538D01*
X103555Y355220D01*
X106488Y355831D01*
X109434Y356371D01*
X112392Y356839D01*
X115361Y357236D01*
X118339Y357561D01*
X121324Y357814D01*
X124313Y357995D01*
X127307Y358104D01*
X130302Y358140D01*
X303784Y358140D01*
X304981Y358126D01*
X306177Y358082D01*
X307372Y358010D01*
X308564Y357909D01*
X309754Y357779D01*
X310941Y357620D01*
X312123Y357433D01*
X313300Y357217D01*
X314472Y356973D01*
X315637Y356701D01*
X316796Y356400D01*
X317947Y356072D01*
X319090Y355716D01*
X320223Y355332D01*
X321348Y354921D01*
X322462Y354483D01*
X323565Y354019D01*
X324656Y353527D01*
X325735Y353010D01*
X326802Y352467D01*
X327855Y351898D01*
X328894Y351303D01*
X329918Y350684D01*
X330927Y350040D01*
X331920Y349372D01*
X332897Y348681D01*
X333857Y347965D01*
X334799Y347227D01*
X335723Y346467D01*
X336628Y345684D01*
X337515Y344879D01*
X338381Y344054D01*
X339228Y343207D01*
X340053Y342341D01*
X340858Y341454D01*
X341641Y340549D01*
X342401Y339625D01*
X343139Y338683D01*
X343855Y337723D01*
X344546Y336746D01*
X345214Y335753D01*
X345858Y334744D01*
X346477Y333720D01*
X347072Y332681D01*
X347641Y331628D01*
X348184Y330561D01*
X348701Y329482D01*
X349193Y328391D01*
X349657Y327288D01*
X350095Y326174D01*
X350506Y325049D01*
X350890Y323916D01*
X351246Y322773D01*
X351574Y321622D01*
X351875Y320463D01*
X352147Y319298D01*
X352391Y318126D01*
X352607Y316949D01*
X352794Y315767D01*
X352953Y314580D01*
X353083Y313390D01*
X353184Y312198D01*
X353256Y311003D01*
X353300Y309807D01*
X353314Y308610D01*
X6350Y234188D02*
X6350Y20338D01*
X274909Y108153D02*
X302057Y108153D01*
X355092Y55118D01*
X355092Y23876D01*
X74356Y54338D02*
X74356Y264856D01*
X74377Y266595D01*
X74440Y268332D01*
X74545Y270068D01*
X74692Y271800D01*
X74881Y273528D01*
X75111Y275252D01*
X75383Y276969D01*
X75696Y278679D01*
X76051Y280381D01*
X76447Y282074D01*
X76883Y283757D01*
X77360Y285429D01*
X77877Y287089D01*
X78435Y288736D01*
X79031Y290369D01*
X79668Y291987D01*
X80343Y293589D01*
X81056Y295175D01*
X81808Y296743D01*
X82597Y298292D01*
X83424Y299822D01*
X84287Y301331D01*
X85186Y302819D01*
X86122Y304284D01*
X87092Y305727D01*
X88097Y307146D01*
X89136Y308540D01*
X90208Y309909D01*
X91313Y311251D01*
X92450Y312566D01*
X93619Y313854D01*
X94818Y315112D01*
X96048Y316342D01*
X97306Y317541D01*
X98594Y318710D01*
X99909Y319847D01*
X101251Y320952D01*
X102620Y322024D01*
X104014Y323063D01*
X105433Y324068D01*
X106876Y325038D01*
X108341Y325974D01*
X109829Y326873D01*
X111338Y327736D01*
X112868Y328563D01*
X114417Y329352D01*
X115985Y330104D01*
X117571Y330817D01*
X119173Y331492D01*
X120791Y332129D01*
X122424Y332725D01*
X124071Y333283D01*
X125731Y333800D01*
X127403Y334277D01*
X129086Y334713D01*
X130779Y335109D01*
X132481Y335464D01*
X134191Y335777D01*
X135908Y336049D01*
X137632Y336279D01*
X139360Y336468D01*
X141092Y336615D01*
X142828Y336720D01*
X144565Y336783D01*
X146304Y336804D01*
X195326Y336804D01*
X198112Y336770D01*
X200897Y336669D01*
X203679Y336501D01*
X206456Y336266D01*
X209226Y335963D01*
X211988Y335594D01*
X214740Y335158D01*
X217481Y334656D01*
X220209Y334087D01*
X222923Y333453D01*
X225620Y332754D01*
X228300Y331989D01*
X230961Y331160D01*
X233600Y330267D01*
X236218Y329310D01*
X238811Y328291D01*
X241379Y327209D01*
X243920Y326065D01*
X246433Y324860D01*
X248916Y323595D01*
X251368Y322270D01*
X253787Y320887D01*
X256171Y319445D01*
X258521Y317946D01*
X260833Y316391D01*
X263107Y314781D01*
X265342Y313116D01*
X267535Y311397D01*
X269687Y309626D01*
X271795Y307803D01*
X273858Y305930D01*
X275876Y304008D01*
X277846Y302038D01*
X279768Y300020D01*
X281641Y297957D01*
X283464Y295849D01*
X285235Y293697D01*
X286954Y291504D01*
X288619Y289269D01*
X290229Y286995D01*
X291784Y284683D01*
X293283Y282333D01*
X294725Y279949D01*
X296108Y277530D01*
X297433Y275078D01*
X298698Y272595D01*
X299903Y270082D01*
X301047Y267541D01*
X302129Y264973D01*
X303148Y262380D01*
X304105Y259762D01*
X304998Y257123D01*
X305827Y254462D01*
X306592Y251782D01*
X307291Y249085D01*
X307925Y246371D01*
X308494Y243643D01*
X308996Y240902D01*
X309432Y238150D01*
X309801Y235388D01*
X310104Y232618D01*
X310339Y229841D01*
X310507Y227059D01*
X310608Y224274D01*
X310642Y221488D01*
X310649Y220908D01*
X310670Y220328D01*
X310706Y219749D01*
X310755Y219171D01*
X310819Y218594D01*
X310896Y218019D01*
X310988Y217446D01*
X311093Y216876D01*
X311213Y216308D01*
X311346Y215743D01*
X311493Y215182D01*
X311653Y214625D01*
X311828Y214071D01*
X312015Y213522D01*
X312216Y212978D01*
X312430Y212439D01*
X312657Y211905D01*
X312898Y211377D01*
X313151Y210854D01*
X313416Y210339D01*
X313694Y209829D01*
X313985Y209327D01*
X314287Y208832D01*
X314602Y208345D01*
X314928Y207865D01*
X315266Y207393D01*
X315616Y206930D01*
X315976Y206476D01*
X316348Y206030D01*
X316730Y205594D01*
X317123Y205167D01*
X317526Y204749D01*
X317939Y204342D01*
X318362Y203945D01*
X318795Y203558D01*
X319237Y203182D01*
X319687Y202817D01*
X320147Y202463D01*
X320615Y202121D01*
X321092Y201789D01*
X321576Y201470D01*
X322068Y201162D01*
X322567Y200867D01*
X323073Y200584D01*
X323587Y200313D01*
X324106Y200055D01*
X324632Y199809D01*
X325163Y199576D01*
X325700Y199357D01*
X326243Y199151D01*
X326790Y198957D01*
X327341Y198778D01*
X327897Y198612D01*
X328457Y198459D01*
X329020Y198320D01*
X329587Y198195D01*
X330156Y198084D01*
X330728Y197986D01*
X331302Y197903D01*
X331878Y197834D01*
X332456Y197778D01*
X333035Y197737D01*
X333614Y197710D01*
X334194Y197697D01*
X334774Y197698D01*
X335354Y197714D01*
X335934Y197743D01*
X336512Y197787D01*
X337090Y197845D01*
X337665Y197916D01*
X338239Y198002D01*
X338811Y198102D01*
X339380Y198216D01*
X339946Y198343D01*
X340508Y198485D01*
X341068Y198639D01*
X341623Y198808D01*
X342174Y198990D01*
X342720Y199185D01*
X343261Y199394D01*
X343797Y199616D01*
X344328Y199851D01*
X344853Y200098D01*
X345371Y200359D01*
X345883Y200632D01*
X346388Y200917D01*
X346886Y201215D01*
X347377Y201524D01*
X347860Y201846D01*
X348335Y202179D01*
X348801Y202524D01*
X349259Y202880D01*
X349709Y203247D01*
X350149Y203625D01*
X350580Y204013D01*
X351001Y204412D01*
X351413Y204821D01*
X351814Y205240D01*
X352205Y205669D01*
X352586Y206107D01*
X352955Y206554D01*
X353314Y207010D01*
X74356Y37338D02*
X56134Y38862D01*
X56134Y281940D01*
X56896Y281940D01*
X56914Y283468D01*
X56970Y284996D01*
X57062Y286521D01*
X57191Y288044D01*
X57357Y289563D01*
X57560Y291078D01*
X57799Y292588D01*
X58074Y294091D01*
X58386Y295587D01*
X58734Y297076D01*
X59117Y298555D01*
X59537Y300025D01*
X59991Y301484D01*
X60481Y302932D01*
X61006Y304367D01*
X61565Y305790D01*
X62159Y307198D01*
X62786Y308592D01*
X63447Y309970D01*
X64140Y311332D01*
X64867Y312677D01*
X65626Y314003D01*
X66417Y315311D01*
X67239Y316600D01*
X68092Y317868D01*
X68975Y319115D01*
X69888Y320341D01*
X70831Y321544D01*
X71802Y322724D01*
X72802Y323880D01*
X73829Y325012D01*
X74883Y326118D01*
X75964Y327199D01*
X77070Y328253D01*
X78202Y329280D01*
X79358Y330280D01*
X80538Y331251D01*
X81741Y332194D01*
X82967Y333107D01*
X84214Y333990D01*
X85482Y334843D01*
X86771Y335665D01*
X88079Y336456D01*
X89405Y337215D01*
X90750Y337942D01*
X92112Y338635D01*
X93490Y339296D01*
X94884Y339923D01*
X96292Y340517D01*
X97715Y341076D01*
X99150Y341601D01*
X100598Y342091D01*
X102057Y342545D01*
X103527Y342965D01*
X105006Y343348D01*
X106495Y343696D01*
X107991Y344008D01*
X109494Y344283D01*
X111004Y344522D01*
X112519Y344725D01*
X114038Y344891D01*
X115561Y345020D01*
X117086Y345112D01*
X118614Y345168D01*
X120142Y345186D01*
X256540Y345186D01*
X258179Y345166D01*
X259817Y345107D01*
X261452Y345008D01*
X263085Y344869D01*
X264715Y344692D01*
X266339Y344474D01*
X267958Y344218D01*
X269570Y343923D01*
X271174Y343588D01*
X272770Y343215D01*
X274356Y342804D01*
X275932Y342354D01*
X277497Y341867D01*
X279049Y341342D01*
X280589Y340779D01*
X282114Y340179D01*
X283624Y339543D01*
X285119Y338870D01*
X286596Y338162D01*
X288057Y337418D01*
X289498Y336639D01*
X290921Y335825D01*
X292324Y334977D01*
X293705Y334096D01*
X295065Y333181D01*
X296402Y332234D01*
X297717Y331255D01*
X299007Y330244D01*
X300272Y329202D01*
X301512Y328131D01*
X302725Y327029D01*
X303912Y325898D01*
X305070Y324740D01*
X306201Y323553D01*
X307303Y322340D01*
X308374Y321100D01*
X309416Y319835D01*
X310427Y318545D01*
X311406Y317230D01*
X312353Y315893D01*
X313268Y314533D01*
X314149Y313152D01*
X314997Y311749D01*
X315811Y310326D01*
X316590Y308885D01*
X317334Y307424D01*
X318042Y305947D01*
X318715Y304452D01*
X319351Y302942D01*
X319951Y301417D01*
X320514Y299877D01*
X321039Y298325D01*
X321526Y296760D01*
X321976Y295184D01*
X322387Y293598D01*
X322760Y292002D01*
X323095Y290398D01*
X323390Y288786D01*
X323646Y287167D01*
X323864Y285543D01*
X324041Y283913D01*
X324180Y282280D01*
X324279Y280645D01*
X324338Y279007D01*
X324358Y277368D01*
X324358Y254000D01*
X324364Y253478D01*
X324383Y252957D01*
X324415Y252436D01*
X324459Y251916D01*
X324515Y251398D01*
X324585Y250880D01*
X324666Y250365D01*
X324760Y249852D01*
X324867Y249341D01*
X324985Y248833D01*
X325116Y248328D01*
X325259Y247826D01*
X325415Y247328D01*
X325582Y246834D01*
X325761Y246344D01*
X325952Y245859D01*
X326154Y245378D01*
X326369Y244902D01*
X326594Y244431D01*
X326831Y243967D01*
X327079Y243508D01*
X327338Y243055D01*
X327608Y242608D01*
X327889Y242168D01*
X328180Y241735D01*
X328481Y241310D01*
X328793Y240891D01*
X329115Y240481D01*
X329446Y240078D01*
X329788Y239683D01*
X330138Y239297D01*
X330498Y238919D01*
X330867Y238550D01*
X331245Y238190D01*
X331631Y237840D01*
X332026Y237498D01*
X332429Y237167D01*
X332839Y236845D01*
X333258Y236533D01*
X333683Y236232D01*
X334116Y235941D01*
X334556Y235660D01*
X335003Y235390D01*
X335456Y235131D01*
X335915Y234883D01*
X336379Y234646D01*
X336850Y234421D01*
X337326Y234206D01*
X337807Y234004D01*
X338292Y233813D01*
X338782Y233634D01*
X339276Y233467D01*
X339774Y233311D01*
X340276Y233168D01*
X340781Y233037D01*
X341289Y232919D01*
X341800Y232812D01*
X342313Y232718D01*
X342828Y232637D01*
X343346Y232567D01*
X343864Y232511D01*
X344384Y232467D01*
X344905Y232435D01*
X345426Y232416D01*
X345948Y232410D01*
X353314Y232410D01*
M02*
