M48
;GenerationSoftware,Autodesk,EAGLE,8.6.0*%
;CreationDate,2018-06-05T15:24:19Z*%
FMAT,2
ICI,OFF
METRIC,TZ,000.000
T1C1.016
%
G90
M71
T1
X35509Y2388
X38049Y2388
X40589Y2388
X43129Y2388
X27381Y2261
X24841Y2261
X22301Y2261
X19761Y2261
X12471Y13081
X12471Y15621
X12471Y18161
X12471Y20701
X12471Y23241
X12471Y25781
X12471Y28321
X12471Y30861
X35331Y30861
X35331Y28321
X35331Y25781
X35331Y23241
X35331Y20701
X35331Y18161
X35331Y15621
X35331Y13081
M30