M48
;GenerationSoftware,Autodesk,EAGLE,8.6.0*%
;CreationDate,2018-10-27T03:19:51Z*%
FMAT,2
ICI,OFF
METRIC,TZ,000.000
T2C1.016
T1C1.200
%
G90
M71
T1
X41326Y28727
X41326Y25227
T2
X32436Y5283
X34976Y5283
X37516Y5283
X40056Y5283
X24486Y1702
X21946Y1702
X19406Y1702
X16866Y1702
X12471Y11303
X12471Y13843
X12471Y16383
X12471Y18923
X12471Y21463
X12471Y24003
X12471Y26543
X12471Y29083
X35331Y29083
X35331Y26543
X35331Y24003
X35331Y21463
X35331Y18923
X35331Y16383
X35331Y13843
X35331Y11303
M30