G04 EAGLE Gerber X2 export*
%TF.Part,Single*%
%TF.FileFunction,Legend,Bot,1*%
%TF.FilePolarity,Positive*%
%TF.GenerationSoftware,Autodesk,EAGLE,8.6.0*%
%TF.CreationDate,2018-06-05T15:24:19Z*%
G75*
%MOMM*%
%FSLAX34Y34*%
%LPD*%
%AMOC8*
5,1,8,0,0,1.08239X$1,22.5*%
G01*
%ADD10R,0.012700X0.254000*%
%ADD11R,0.012700X0.368300*%
%ADD12R,0.012700X0.431800*%
%ADD13R,0.012700X0.495300*%
%ADD14R,0.012700X0.533400*%
%ADD15R,0.012700X0.571500*%
%ADD16R,0.012700X0.596900*%
%ADD17R,0.012700X0.419100*%
%ADD18R,0.012700X0.622300*%
%ADD19R,0.012700X0.647700*%
%ADD20R,0.012700X0.546100*%
%ADD21R,0.012700X0.673100*%
%ADD22R,0.012700X0.698500*%
%ADD23R,0.012700X0.711200*%
%ADD24R,0.012700X0.723900*%
%ADD25R,0.012700X0.685800*%
%ADD26R,0.012700X0.749300*%
%ADD27R,0.012700X0.266700*%
%ADD28R,0.012700X0.279400*%
%ADD29R,0.012700X0.241300*%
%ADD30R,0.012700X0.228600*%
%ADD31R,0.012700X0.215900*%
%ADD32R,0.012700X0.190500*%
%ADD33R,0.012700X0.203200*%
%ADD34R,0.012700X0.292100*%
%ADD35R,0.012700X0.177800*%
%ADD36R,0.012700X0.165100*%
%ADD37R,0.012700X0.152400*%
%ADD38R,0.012700X0.139700*%
%ADD39R,0.012700X0.127000*%
%ADD40R,0.012700X0.050800*%
%ADD41R,0.012700X0.101600*%
%ADD42R,0.012700X0.609600*%
%ADD43R,0.012700X0.317500*%
%ADD44R,0.012700X0.330200*%
%ADD45R,0.012700X0.482600*%
%ADD46R,0.012700X0.635000*%
%ADD47R,0.012700X0.558800*%
%ADD48R,0.012700X0.736600*%
%ADD49R,0.012700X0.342900*%
%ADD50R,0.012700X0.584200*%
%ADD51R,0.012700X0.355600*%
%ADD52R,0.012700X0.762000*%
%ADD53R,0.012700X0.774700*%
%ADD54R,0.012700X0.381000*%
%ADD55R,0.012700X0.787400*%
%ADD56R,0.012700X0.393700*%
%ADD57R,0.012700X0.406400*%
%ADD58R,0.012700X0.800100*%
%ADD59R,0.012700X0.660400*%
%ADD60R,0.012700X1.206500*%
%ADD61R,0.012700X0.076200*%
%ADD62R,0.012700X1.244600*%
%ADD63R,0.012700X0.012700*%
%ADD64R,0.012700X1.257300*%
%ADD65R,0.012700X1.270000*%
%ADD66R,0.012700X1.295400*%
%ADD67R,0.012700X1.282700*%
%ADD68R,0.012700X0.520700*%
%ADD69R,0.012700X0.304800*%
%ADD70R,0.012700X0.025400*%
%ADD71R,0.012700X0.457200*%
%ADD72R,0.012700X0.469900*%
%ADD73R,0.017781X0.053338*%
%ADD74R,0.017775X0.444500*%
%ADD75R,0.017781X0.640081*%
%ADD76R,0.017781X0.355600*%
%ADD77R,0.017781X0.337819*%
%ADD78R,0.017775X0.782319*%
%ADD79R,0.017775X0.533400*%
%ADD80R,0.017775X0.515619*%
%ADD81R,0.017781X0.906775*%
%ADD82R,0.017781X0.231138*%
%ADD83R,0.017781X0.657856*%
%ADD84R,0.017781X0.213356*%
%ADD85R,0.017781X0.995681*%
%ADD86R,0.017781X0.746762*%
%ADD87R,0.017781X0.728981*%
%ADD88R,0.017781X0.746756*%
%ADD89R,0.017775X1.084575*%
%ADD90R,0.017775X0.835656*%
%ADD91R,0.017775X0.817881*%
%ADD92R,0.017775X0.231138*%
%ADD93R,0.017775X0.213356*%
%ADD94R,0.017781X1.155700*%
%ADD95R,0.017781X0.906781*%
%ADD96R,0.017781X0.889000*%
%ADD97R,0.017775X1.226819*%
%ADD98R,0.017775X0.960119*%
%ADD99R,0.017781X1.297937*%
%ADD100R,0.017781X1.031238*%
%ADD101R,0.017781X1.013456*%
%ADD102R,0.017781X1.351281*%
%ADD103R,0.017781X1.102363*%
%ADD104R,0.017781X1.066800*%
%ADD105R,0.017781X1.102356*%
%ADD106R,0.017775X1.422400*%
%ADD107R,0.017775X1.137919*%
%ADD108R,0.017775X1.120138*%
%ADD109R,0.017781X0.551181*%
%ADD110R,0.017781X0.497838*%
%ADD111R,0.017781X0.426719*%
%ADD112R,0.017781X0.444500*%
%ADD113R,0.017781X0.408938*%
%ADD114R,0.017775X0.480056*%
%ADD115R,0.017775X0.391156*%
%ADD116R,0.017775X0.373375*%
%ADD117R,0.017775X0.355600*%
%ADD118R,0.017781X0.320038*%
%ADD119R,0.017781X0.373381*%
%ADD120R,0.017781X0.302262*%
%ADD121R,0.017775X0.320038*%
%ADD122R,0.017775X0.284475*%
%ADD123R,0.017781X0.373375*%
%ADD124R,0.017781X0.302256*%
%ADD125R,0.017781X0.284481*%
%ADD126R,0.017781X0.266700*%
%ADD127R,0.017775X0.373381*%
%ADD128R,0.017775X0.302256*%
%ADD129R,0.017775X0.248919*%
%ADD130R,0.017775X0.266700*%
%ADD131R,0.017781X0.248919*%
%ADD132R,0.017781X0.284475*%
%ADD133R,0.017775X0.284481*%
%ADD134R,0.017775X0.302262*%
%ADD135R,0.017775X0.213363*%
%ADD136R,0.017781X0.213363*%
%ADD137R,0.017775X0.337819*%
%ADD138R,0.017781X0.391156*%
%ADD139R,0.017781X0.391163*%
%ADD140R,0.017775X0.462281*%
%ADD141R,0.017775X0.462275*%
%ADD142R,0.017775X0.426719*%
%ADD143R,0.017781X1.137919*%
%ADD144R,0.017781X1.120138*%
%ADD145R,0.017781X1.084575*%
%ADD146R,0.017775X1.013456*%
%ADD147R,0.017775X1.031238*%
%ADD148R,0.017781X0.960119*%
%ADD149R,0.017775X0.889000*%
%ADD150R,0.017781X0.817881*%
%ADD151R,0.017781X0.817875*%
%ADD152R,0.017781X0.728975*%
%ADD153R,0.017775X0.640081*%
%ADD154R,0.017775X0.640075*%
%ADD155R,0.017775X0.622300*%
%ADD156R,0.017781X0.017781*%
%ADD157R,0.017775X0.053338*%
%ADD158R,0.017781X0.106681*%
%ADD159R,0.017781X0.160019*%
%ADD160R,0.017775X0.195575*%
%ADD161R,0.017781X0.088900*%
%ADD162R,0.017775X0.088900*%
%ADD163R,0.017781X0.071119*%
%ADD164R,0.017775X0.071119*%
%ADD165R,0.017775X0.408938*%
%ADD166R,0.017781X0.462281*%
%ADD167R,0.017781X1.422400*%
%ADD168R,0.017775X1.315719*%
%ADD169R,0.017781X1.244600*%
%ADD170R,0.017775X1.173481*%
%ADD171R,0.017775X0.906781*%
%ADD172R,0.017775X0.675638*%
%ADD173R,0.017781X0.515619*%
%ADD174R,0.017781X0.124456*%
%ADD175R,0.017781X0.462275*%
%ADD176R,0.017781X0.586738*%
%ADD177R,0.005081X0.020319*%
%ADD178R,0.005081X0.060956*%
%ADD179R,0.005075X0.106681*%
%ADD180R,0.005081X0.147319*%
%ADD181R,0.005075X0.193038*%
%ADD182R,0.005081X0.243838*%
%ADD183R,0.005081X0.005081*%
%ADD184R,0.005081X0.340356*%
%ADD185R,0.005075X0.391163*%
%ADD186R,0.005081X0.401319*%
%ADD187R,0.005075X0.401319*%
%ADD188R,0.005081X0.396238*%
%ADD189R,0.005075X0.396238*%
%ADD190R,0.005081X0.391163*%
%ADD191R,0.005075X0.391156*%
%ADD192R,0.005081X0.386081*%
%ADD193R,0.005081X0.386075*%
%ADD194R,0.005075X0.381000*%
%ADD195R,0.005081X0.381000*%
%ADD196R,0.005081X0.375919*%
%ADD197R,0.005075X0.370838*%
%ADD198R,0.005081X0.365762*%
%ADD199R,0.005075X0.365756*%
%ADD200R,0.005081X0.365756*%
%ADD201R,0.005081X0.360675*%
%ADD202R,0.005075X0.360675*%
%ADD203R,0.005081X0.355600*%
%ADD204R,0.005075X0.355600*%
%ADD205R,0.005081X0.350519*%
%ADD206R,0.005075X0.350519*%
%ADD207R,0.005075X0.345438*%
%ADD208R,0.005081X0.345438*%
%ADD209R,0.005075X0.340356*%
%ADD210R,0.005081X0.340363*%
%ADD211R,0.005075X0.121919*%
%ADD212R,0.005075X0.447038*%
%ADD213R,0.005081X0.213363*%
%ADD214R,0.005081X0.447038*%
%ADD215R,0.005075X0.274319*%
%ADD216R,0.005081X0.320038*%
%ADD217R,0.005081X0.426719*%
%ADD218R,0.005081X0.360681*%
%ADD219R,0.005081X0.177800*%
%ADD220R,0.005081X0.259081*%
%ADD221R,0.005081X0.071119*%
%ADD222R,0.005081X0.254000*%
%ADD223R,0.005075X0.467356*%
%ADD224R,0.005075X0.177800*%
%ADD225R,0.005075X0.254000*%
%ADD226R,0.005075X0.076200*%
%ADD227R,0.005075X0.259075*%
%ADD228R,0.005081X0.502919*%
%ADD229R,0.005081X0.259075*%
%ADD230R,0.005081X0.172719*%
%ADD231R,0.005081X0.081281*%
%ADD232R,0.005075X0.452119*%
%ADD233R,0.005075X0.533400*%
%ADD234R,0.005075X0.248919*%
%ADD235R,0.005075X0.172719*%
%ADD236R,0.005075X0.086356*%
%ADD237R,0.005081X0.482600*%
%ADD238R,0.005081X0.558800*%
%ADD239R,0.005081X0.091438*%
%ADD240R,0.005081X0.584200*%
%ADD241R,0.005081X0.248919*%
%ADD242R,0.005081X0.096519*%
%ADD243R,0.005075X0.528319*%
%ADD244R,0.005075X0.614681*%
%ADD245R,0.005075X0.101600*%
%ADD246R,0.005081X0.543556*%
%ADD247R,0.005081X0.635000*%
%ADD248R,0.005081X0.101600*%
%ADD249R,0.005075X0.563881*%
%ADD250R,0.005075X0.655319*%
%ADD251R,0.005081X0.670556*%
%ADD252R,0.005081X0.111763*%
%ADD253R,0.005081X0.599438*%
%ADD254R,0.005081X0.690881*%
%ADD255R,0.005081X0.116838*%
%ADD256R,0.005075X0.619762*%
%ADD257R,0.005075X0.711200*%
%ADD258R,0.005075X0.116838*%
%ADD259R,0.005081X0.619756*%
%ADD260R,0.005081X0.010156*%
%ADD261R,0.005081X0.721356*%
%ADD262R,0.005081X0.127000*%
%ADD263R,0.005075X0.650238*%
%ADD264R,0.005075X0.741681*%
%ADD265R,0.005075X0.243838*%
%ADD266R,0.005075X0.127000*%
%ADD267R,0.005075X0.259081*%
%ADD268R,0.005081X0.655319*%
%ADD269R,0.005081X0.010162*%
%ADD270R,0.005081X0.756919*%
%ADD271R,0.005081X0.132075*%
%ADD272R,0.005081X0.680719*%
%ADD273R,0.005081X0.325119*%
%ADD274R,0.005081X0.167637*%
%ADD275R,0.005081X0.137156*%
%ADD276R,0.005075X0.690881*%
%ADD277R,0.005075X0.325119*%
%ADD278R,0.005075X0.304800*%
%ADD279R,0.005075X0.167637*%
%ADD280R,0.005075X0.142238*%
%ADD281R,0.005081X0.706119*%
%ADD282R,0.005081X0.289563*%
%ADD283R,0.005075X0.716281*%
%ADD284R,0.005075X0.309875*%
%ADD285R,0.005075X0.284481*%
%ADD286R,0.005075X0.152400*%
%ADD287R,0.005081X0.726438*%
%ADD288R,0.005081X0.299719*%
%ADD289R,0.005081X0.279400*%
%ADD290R,0.005081X0.157481*%
%ADD291R,0.005081X0.741681*%
%ADD292R,0.005081X0.269238*%
%ADD293R,0.005075X0.299719*%
%ADD294R,0.005075X0.294637*%
%ADD295R,0.005075X0.269238*%
%ADD296R,0.005081X0.289556*%
%ADD297R,0.005081X0.264156*%
%ADD298R,0.005075X0.314963*%
%ADD299R,0.005081X0.304800*%
%ADD300R,0.005081X0.182875*%
%ADD301R,0.005081X0.294637*%
%ADD302R,0.005081X0.005075*%
%ADD303R,0.005081X0.187956*%
%ADD304R,0.005075X0.289556*%
%ADD305R,0.005075X0.238756*%
%ADD306R,0.005075X0.279400*%
%ADD307R,0.005075X0.187956*%
%ADD308R,0.005081X0.284481*%
%ADD309R,0.005081X0.238756*%
%ADD310R,0.005081X0.274319*%
%ADD311R,0.005081X0.198119*%
%ADD312R,0.005075X0.233681*%
%ADD313R,0.005075X0.198119*%
%ADD314R,0.005081X0.228600*%
%ADD315R,0.005081X0.203200*%
%ADD316R,0.005081X0.208281*%
%ADD317R,0.005075X0.223519*%
%ADD318R,0.005075X0.213356*%
%ADD319R,0.005081X0.223519*%
%ADD320R,0.005081X0.218438*%
%ADD321R,0.005075X0.264156*%
%ADD322R,0.005081X0.213356*%
%ADD323R,0.005081X0.233675*%
%ADD324R,0.005075X0.213363*%
%ADD325R,0.005081X0.162556*%
%ADD326R,0.005075X0.264163*%
%ADD327R,0.005081X0.208275*%
%ADD328R,0.005075X0.208275*%
%ADD329R,0.005075X0.208281*%
%ADD330R,0.005075X0.203200*%
%ADD331R,0.005075X0.162556*%
%ADD332R,0.005081X0.238763*%
%ADD333R,0.005081X0.309881*%
%ADD334R,0.005075X0.330200*%
%ADD335R,0.005081X0.335281*%
%ADD336R,0.005075X0.162562*%
%ADD337R,0.005075X0.005075*%
%ADD338R,0.005075X0.157475*%
%ADD339R,0.005081X0.162562*%
%ADD340R,0.005081X0.157475*%
%ADD341R,0.005075X0.360681*%
%ADD342R,0.005081X0.370838*%
%ADD343R,0.005075X0.817881*%
%ADD344R,0.005075X0.157481*%
%ADD345R,0.005081X0.812800*%
%ADD346R,0.005075X0.807719*%
%ADD347R,0.005075X0.386081*%
%ADD348R,0.005081X0.807719*%
%ADD349R,0.005081X0.391156*%
%ADD350R,0.005081X0.193038*%
%ADD351R,0.005081X0.797563*%
%ADD352R,0.005075X0.797563*%
%ADD353R,0.005075X0.228600*%
%ADD354R,0.005081X0.792481*%
%ADD355R,0.005075X0.787400*%
%ADD356R,0.005081X0.782319*%
%ADD357R,0.005081X0.777238*%
%ADD358R,0.005075X0.777238*%
%ADD359R,0.005081X0.772156*%
%ADD360R,0.005075X0.767081*%
%ADD361R,0.005081X0.762000*%
%ADD362R,0.005081X0.152400*%
%ADD363R,0.005075X0.751838*%
%ADD364R,0.005081X0.746762*%
%ADD365R,0.005081X0.736600*%
%ADD366R,0.005081X0.731519*%
%ADD367R,0.005075X0.731519*%
%ADD368R,0.005075X0.238763*%
%ADD369R,0.005075X0.218438*%
%ADD370R,0.005081X0.233681*%
%ADD371R,0.005075X0.233675*%
%ADD372R,0.005081X0.142238*%
%ADD373R,0.005075X0.147319*%
%ADD374R,0.005081X0.137162*%
%ADD375R,0.005075X0.137156*%
%ADD376R,0.005075X0.375919*%
%ADD377R,0.005075X0.335281*%
%ADD378R,0.005081X0.330200*%
%ADD379R,0.005075X0.132081*%
%ADD380R,0.005075X0.314956*%
%ADD381R,0.005075X0.005081*%
%ADD382R,0.005081X0.314956*%
%ADD383R,0.005075X0.132075*%
%ADD384R,0.005081X0.309875*%
%ADD385R,0.005081X0.132081*%
%ADD386R,0.005075X0.289563*%
%ADD387R,0.005081X0.284475*%
%ADD388R,0.005075X0.284475*%
%ADD389R,0.005075X0.010156*%
%ADD390R,0.005081X0.264163*%
%ADD391R,0.005075X0.182881*%
%ADD392R,0.005081X0.182881*%
%ADD393R,0.005075X0.675638*%
%ADD394R,0.005081X0.675638*%
%ADD395R,0.005081X0.187963*%
%ADD396R,0.005075X0.635000*%
%ADD397R,0.005081X0.614675*%
%ADD398R,0.005075X0.594356*%
%ADD399R,0.005081X0.563875*%
%ADD400R,0.005081X0.523238*%
%ADD401R,0.005075X0.492756*%
%ADD402R,0.005081X0.462275*%
%ADD403R,0.005075X0.426719*%
%ADD404R,0.005081X0.121919*%
%ADD405R,0.005075X0.035556*%
%ADD406R,0.005081X0.066037*%
%ADD407R,0.005075X0.335275*%
%ADD408C,0.076200*%
%ADD409C,0.127000*%
%ADD410C,0.101600*%
%ADD411C,0.152400*%
%ADD412R,0.025400X0.101600*%
%ADD413R,0.025400X0.152400*%
%ADD414R,0.025400X0.203200*%
%ADD415R,0.025400X0.228600*%
%ADD416R,0.025400X0.279400*%
%ADD417R,0.025400X0.304800*%
%ADD418R,0.025400X0.330200*%
%ADD419R,0.025400X0.127000*%
%ADD420R,0.025400X0.406400*%
%ADD421R,0.025400X0.533400*%
%ADD422R,0.025400X0.635000*%
%ADD423R,0.025400X0.736600*%
%ADD424R,0.025400X0.838200*%
%ADD425R,0.025400X0.355600*%
%ADD426R,0.025400X0.787400*%
%ADD427R,0.025400X0.177800*%
%ADD428R,0.025400X0.762000*%
%ADD429R,0.025400X0.381000*%
%ADD430R,0.025400X0.812800*%
%ADD431R,0.025400X0.254000*%
%ADD432R,0.025400X0.050800*%
%ADD433R,0.025400X0.863600*%
%ADD434R,0.025400X0.914400*%
%ADD435R,0.025400X0.990600*%
%ADD436R,0.025400X1.143000*%
%ADD437R,0.025400X0.431800*%
%ADD438R,0.025400X1.244600*%
%ADD439R,0.025400X1.371600*%
%ADD440R,0.025400X1.447800*%
%ADD441R,0.025400X1.473200*%
%ADD442R,0.025400X1.524000*%
%ADD443R,0.025400X1.549400*%
%ADD444R,0.025400X1.574800*%
%ADD445R,0.025400X0.482600*%
%ADD446R,0.025400X1.676400*%
%ADD447R,0.025400X0.685800*%
%ADD448R,0.025400X0.076200*%
%ADD449R,0.025400X2.108200*%
%ADD450R,0.025400X4.445000*%
%ADD451R,0.025400X0.584200*%
%ADD452R,0.025400X4.064000*%
%ADD453R,0.025400X0.889000*%
%ADD454R,0.025400X3.479800*%
%ADD455R,0.025400X2.946400*%
%ADD456R,0.025400X2.336800*%
%ADD457R,0.025400X1.320800*%
%ADD458R,0.025400X0.025400*%
%ADD459R,0.025400X1.346200*%
%ADD460R,0.025400X1.295400*%
%ADD461R,0.025400X1.600200*%
%ADD462R,0.025400X0.660400*%
%ADD463R,0.025400X0.508000*%
%ADD464R,0.025400X0.558800*%
%ADD465R,0.025400X0.711200*%
%ADD466R,0.025400X0.457200*%
%ADD467R,0.025400X1.041400*%
%ADD468R,0.025400X0.609600*%
%ADD469R,0.025400X1.066800*%
%ADD470R,0.025400X1.092200*%
%ADD471R,0.025400X1.397000*%
%ADD472R,0.025400X1.117600*%
%ADD473C,0.203200*%


D10*
X44450Y237528D03*
D11*
X44323Y237592D03*
D12*
X44196Y237528D03*
D13*
X44069Y237592D03*
D14*
X43942Y237528D03*
D15*
X43815Y237592D03*
D16*
X43688Y237592D03*
D17*
X43561Y278232D03*
D18*
X43561Y237592D03*
D13*
X43434Y278232D03*
D19*
X43434Y237592D03*
D20*
X43307Y278232D03*
D21*
X43307Y237592D03*
D16*
X43180Y278232D03*
D22*
X43180Y237592D03*
D18*
X43053Y278232D03*
D23*
X43053Y237528D03*
D19*
X42926Y278232D03*
D24*
X42926Y237592D03*
D25*
X42799Y278168D03*
D26*
X42799Y237592D03*
D22*
X42672Y278232D03*
D27*
X42672Y240005D03*
D28*
X42672Y235115D03*
D24*
X42545Y278232D03*
D29*
X42545Y240259D03*
D30*
X42545Y234861D03*
D26*
X42418Y278232D03*
D31*
X42418Y240386D03*
X42418Y234671D03*
D32*
X42291Y240513D03*
D33*
X42291Y234607D03*
D34*
X42164Y280645D03*
X42164Y275819D03*
D32*
X42164Y240640D03*
X42164Y234544D03*
D29*
X42037Y281026D03*
X42037Y275438D03*
D35*
X42037Y240703D03*
D32*
X42037Y234417D03*
D31*
X41910Y281153D03*
X41910Y275311D03*
D36*
X41910Y240767D03*
D35*
X41910Y234353D03*
D31*
X41783Y281280D03*
X41783Y275184D03*
D35*
X41783Y240830D03*
D36*
X41783Y234290D03*
D33*
X41656Y281343D03*
X41656Y275120D03*
D36*
X41656Y240894D03*
X41656Y234290D03*
D32*
X41529Y281407D03*
X41529Y275057D03*
D36*
X41529Y240894D03*
D37*
X41529Y234226D03*
D32*
X41402Y281534D03*
D35*
X41402Y274993D03*
D36*
X41402Y240894D03*
D37*
X41402Y234226D03*
D32*
X41275Y281534D03*
X41275Y274930D03*
D37*
X41275Y240957D03*
D36*
X41275Y234163D03*
D35*
X41148Y281597D03*
D32*
X41148Y274930D03*
D37*
X41148Y240957D03*
D36*
X41148Y234163D03*
D35*
X41021Y281597D03*
X41021Y274866D03*
D37*
X41021Y240957D03*
D36*
X41021Y234163D03*
D35*
X40894Y281597D03*
X40894Y274866D03*
D37*
X40894Y240957D03*
D36*
X40894Y234163D03*
D35*
X40767Y281597D03*
X40767Y274866D03*
D37*
X40767Y240957D03*
D36*
X40767Y234163D03*
D35*
X40640Y281597D03*
X40640Y274866D03*
D37*
X40640Y240957D03*
D36*
X40640Y234163D03*
D35*
X40513Y281597D03*
X40513Y274866D03*
D37*
X40513Y240957D03*
D36*
X40513Y234163D03*
X40386Y281661D03*
D35*
X40386Y274866D03*
D37*
X40386Y240957D03*
D36*
X40386Y234163D03*
D38*
X40259Y281661D03*
D32*
X40259Y274930D03*
D37*
X40259Y240957D03*
D36*
X40259Y234163D03*
D32*
X40132Y274930D03*
D37*
X40132Y240957D03*
D36*
X40132Y234163D03*
D35*
X40005Y274993D03*
D37*
X40005Y240957D03*
D36*
X40005Y234163D03*
D32*
X39878Y275057D03*
D37*
X39878Y240957D03*
D36*
X39878Y234163D03*
D33*
X39751Y275120D03*
D37*
X39751Y240957D03*
D36*
X39751Y234163D03*
D31*
X39624Y275184D03*
D37*
X39624Y240957D03*
D36*
X39624Y234163D03*
D31*
X39497Y275311D03*
D37*
X39497Y240957D03*
D36*
X39497Y234163D03*
D29*
X39370Y275438D03*
D37*
X39370Y240957D03*
D36*
X39370Y234163D03*
D13*
X39243Y328524D03*
D39*
X39243Y321602D03*
D40*
X39243Y310045D03*
D41*
X39243Y302171D03*
D39*
X39243Y293535D03*
X39243Y286804D03*
D13*
X39243Y276835D03*
D39*
X39243Y269278D03*
X39243Y263690D03*
X39243Y256959D03*
D41*
X39243Y248958D03*
D37*
X39243Y240957D03*
D36*
X39243Y234163D03*
D42*
X39116Y328841D03*
D36*
X39116Y321666D03*
D30*
X39116Y309918D03*
D43*
X39116Y301854D03*
D36*
X39116Y293599D03*
D35*
X39116Y286804D03*
D15*
X39116Y277216D03*
D35*
X39116Y269278D03*
D36*
X39116Y263754D03*
D35*
X39116Y256959D03*
D44*
X39116Y248704D03*
D36*
X39116Y240894D03*
X39116Y234163D03*
D19*
X38989Y329032D03*
D35*
X38989Y321602D03*
D27*
X38989Y309982D03*
D17*
X38989Y301727D03*
D35*
X38989Y293535D03*
X38989Y286804D03*
D16*
X38989Y277470D03*
D35*
X38989Y269278D03*
X38989Y263690D03*
X38989Y256959D03*
D17*
X38989Y248641D03*
D36*
X38989Y240894D03*
X38989Y234163D03*
D21*
X38862Y329159D03*
D35*
X38862Y321602D03*
D34*
X38862Y310109D03*
D45*
X38862Y301663D03*
D35*
X38862Y293535D03*
X38862Y286804D03*
D42*
X38862Y277660D03*
D35*
X38862Y269278D03*
X38862Y263690D03*
X38862Y256959D03*
D45*
X38862Y248577D03*
D36*
X38862Y240894D03*
X38862Y234163D03*
D22*
X38735Y329286D03*
D35*
X38735Y321602D03*
D43*
X38735Y310236D03*
D14*
X38735Y301663D03*
D35*
X38735Y293535D03*
X38735Y286804D03*
D18*
X38735Y277851D03*
D35*
X38735Y269278D03*
X38735Y263690D03*
X38735Y256959D03*
D20*
X38735Y248514D03*
D35*
X38735Y240830D03*
D36*
X38735Y234163D03*
D23*
X38608Y329349D03*
D35*
X38608Y321602D03*
D44*
X38608Y310299D03*
D15*
X38608Y301727D03*
D35*
X38608Y293535D03*
X38608Y286804D03*
D46*
X38608Y277914D03*
D35*
X38608Y269278D03*
X38608Y263690D03*
X38608Y256959D03*
D47*
X38608Y248577D03*
D36*
X38608Y240767D03*
X38608Y234163D03*
D48*
X38481Y329476D03*
D35*
X38481Y321602D03*
D49*
X38481Y310363D03*
D50*
X38481Y301790D03*
D35*
X38481Y293535D03*
X38481Y286804D03*
D46*
X38481Y278168D03*
D35*
X38481Y269278D03*
X38481Y263690D03*
X38481Y256959D03*
D16*
X38481Y248641D03*
D35*
X38481Y240703D03*
D36*
X38481Y234163D03*
D26*
X38354Y329540D03*
D35*
X38354Y321602D03*
D51*
X38354Y310426D03*
D16*
X38354Y301854D03*
D35*
X38354Y293535D03*
X38354Y286804D03*
D46*
X38354Y278295D03*
D35*
X38354Y269278D03*
X38354Y263690D03*
X38354Y256959D03*
D42*
X38354Y248704D03*
D32*
X38354Y240640D03*
D36*
X38354Y234163D03*
D52*
X38227Y329603D03*
D35*
X38227Y321602D03*
D11*
X38227Y310490D03*
D42*
X38227Y301917D03*
D35*
X38227Y293535D03*
X38227Y286804D03*
D46*
X38227Y278422D03*
D35*
X38227Y269278D03*
X38227Y263690D03*
X38227Y256959D03*
D18*
X38227Y248768D03*
D33*
X38227Y240576D03*
D36*
X38227Y234163D03*
D53*
X38100Y329667D03*
D35*
X38100Y321602D03*
D54*
X38100Y310553D03*
D18*
X38100Y301981D03*
D35*
X38100Y293535D03*
X38100Y286804D03*
D18*
X38100Y278613D03*
D35*
X38100Y269278D03*
X38100Y263690D03*
X38100Y256959D03*
D46*
X38100Y248831D03*
D33*
X38100Y240449D03*
D36*
X38100Y234163D03*
D55*
X37973Y329730D03*
D35*
X37973Y321602D03*
D56*
X37973Y310617D03*
D46*
X37973Y302044D03*
D35*
X37973Y293535D03*
X37973Y286804D03*
D42*
X37973Y278803D03*
D35*
X37973Y269278D03*
X37973Y263690D03*
X37973Y256959D03*
D19*
X37973Y248895D03*
D31*
X37973Y240386D03*
D36*
X37973Y234163D03*
D55*
X37846Y329730D03*
D35*
X37846Y321602D03*
D57*
X37846Y310680D03*
D19*
X37846Y302108D03*
D35*
X37846Y293535D03*
X37846Y286804D03*
D15*
X37846Y278994D03*
D35*
X37846Y269278D03*
X37846Y263690D03*
X37846Y256959D03*
D19*
X37846Y248895D03*
D29*
X37846Y240132D03*
D36*
X37846Y234163D03*
D58*
X37719Y329794D03*
D35*
X37719Y321602D03*
D56*
X37719Y310744D03*
D59*
X37719Y302171D03*
D35*
X37719Y293535D03*
X37719Y286804D03*
D14*
X37719Y279311D03*
D35*
X37719Y269278D03*
X37719Y263690D03*
X37719Y256959D03*
D59*
X37719Y248958D03*
D58*
X37719Y237338D03*
D10*
X37592Y332651D03*
D35*
X37592Y326682D03*
X37592Y321602D03*
D10*
X37592Y311569D03*
X37592Y304203D03*
D36*
X37592Y299695D03*
D35*
X37592Y293535D03*
X37592Y286804D03*
D10*
X37592Y280835D03*
D35*
X37592Y269278D03*
X37592Y263690D03*
X37592Y256959D03*
D27*
X37592Y251054D03*
D37*
X37592Y246545D03*
D60*
X37592Y235179D03*
D30*
X37465Y332778D03*
D35*
X37465Y326682D03*
X37465Y321602D03*
D29*
X37465Y311760D03*
X37465Y304394D03*
D61*
X37465Y299250D03*
D35*
X37465Y293535D03*
X37465Y286804D03*
D30*
X37465Y280962D03*
D35*
X37465Y269278D03*
X37465Y263690D03*
X37465Y256959D03*
D30*
X37465Y251244D03*
D61*
X37465Y246164D03*
D62*
X37465Y234988D03*
D31*
X37338Y332969D03*
D35*
X37338Y326682D03*
X37338Y321602D03*
D31*
X37338Y311887D03*
X37338Y304521D03*
D35*
X37338Y293535D03*
X37338Y286804D03*
D30*
X37338Y281089D03*
D35*
X37338Y269278D03*
X37338Y263690D03*
X37338Y256959D03*
D30*
X37338Y251371D03*
D63*
X37338Y245974D03*
D64*
X37338Y234798D03*
D33*
X37211Y333032D03*
D35*
X37211Y326682D03*
X37211Y321602D03*
D33*
X37211Y311950D03*
D31*
X37211Y304648D03*
D35*
X37211Y293535D03*
X37211Y286804D03*
D33*
X37211Y281216D03*
D35*
X37211Y269278D03*
X37211Y263690D03*
X37211Y256959D03*
D33*
X37211Y251498D03*
D65*
X37211Y234607D03*
D33*
X37084Y333159D03*
D35*
X37084Y326682D03*
X37084Y321602D03*
D33*
X37084Y312077D03*
X37084Y304711D03*
D35*
X37084Y293535D03*
X37084Y286804D03*
D33*
X37084Y281343D03*
D35*
X37084Y269278D03*
X37084Y263690D03*
X37084Y256959D03*
D32*
X37084Y251562D03*
D66*
X37084Y234480D03*
D33*
X36957Y333159D03*
D35*
X36957Y326682D03*
X36957Y321602D03*
D32*
X36957Y312141D03*
X36957Y304775D03*
D35*
X36957Y293535D03*
X36957Y286804D03*
D33*
X36957Y281343D03*
D35*
X36957Y269278D03*
X36957Y263690D03*
X36957Y256959D03*
D33*
X36957Y251625D03*
D66*
X36957Y234353D03*
D32*
X36830Y333223D03*
D35*
X36830Y326682D03*
X36830Y321602D03*
D32*
X36830Y312141D03*
X36830Y304902D03*
D35*
X36830Y293535D03*
X36830Y286804D03*
D32*
X36830Y281407D03*
D35*
X36830Y269278D03*
X36830Y263690D03*
X36830Y256959D03*
D32*
X36830Y251689D03*
D66*
X36830Y234226D03*
D35*
X36703Y333286D03*
X36703Y326682D03*
X36703Y321602D03*
D32*
X36703Y312268D03*
X36703Y304902D03*
D35*
X36703Y293535D03*
X36703Y286804D03*
D32*
X36703Y281534D03*
D35*
X36703Y269278D03*
X36703Y263690D03*
X36703Y256959D03*
X36703Y251752D03*
D67*
X36703Y234036D03*
D32*
X36576Y333350D03*
D35*
X36576Y326682D03*
X36576Y321602D03*
D32*
X36576Y312268D03*
D35*
X36576Y304965D03*
X36576Y293535D03*
X36576Y286804D03*
D32*
X36576Y281534D03*
D35*
X36576Y269278D03*
X36576Y263690D03*
X36576Y256959D03*
D32*
X36576Y251816D03*
D67*
X36576Y233909D03*
D32*
X36449Y333350D03*
D35*
X36449Y326682D03*
X36449Y321602D03*
X36449Y312331D03*
X36449Y304965D03*
X36449Y293535D03*
X36449Y286804D03*
X36449Y281597D03*
X36449Y269278D03*
X36449Y263690D03*
X36449Y256959D03*
D32*
X36449Y251816D03*
D67*
X36449Y233782D03*
D35*
X36322Y333413D03*
X36322Y326682D03*
X36322Y321602D03*
X36322Y312331D03*
D32*
X36322Y305029D03*
D35*
X36322Y293535D03*
X36322Y286804D03*
X36322Y281597D03*
X36322Y269278D03*
X36322Y263690D03*
X36322Y256959D03*
X36322Y251879D03*
D65*
X36322Y233591D03*
D35*
X36195Y333413D03*
X36195Y326682D03*
X36195Y321602D03*
X36195Y312331D03*
D32*
X36195Y305029D03*
D35*
X36195Y293535D03*
X36195Y286804D03*
D20*
X36195Y279756D03*
D35*
X36195Y269278D03*
X36195Y263690D03*
X36195Y256959D03*
X36195Y251879D03*
D62*
X36195Y233464D03*
D35*
X36068Y333413D03*
X36068Y326682D03*
X36068Y321602D03*
X36068Y312331D03*
X36068Y305092D03*
X36068Y293535D03*
X36068Y286804D03*
D42*
X36068Y279438D03*
D35*
X36068Y269278D03*
X36068Y263690D03*
X36068Y256959D03*
X36068Y251879D03*
D16*
X36068Y236322D03*
D34*
X36068Y228575D03*
D35*
X35941Y333413D03*
X35941Y326682D03*
X35941Y321602D03*
D32*
X35941Y312395D03*
D35*
X35941Y305092D03*
X35941Y293535D03*
X35941Y286804D03*
D19*
X35941Y279248D03*
D35*
X35941Y269278D03*
X35941Y263690D03*
X35941Y256959D03*
X35941Y251879D03*
D45*
X35941Y235877D03*
D27*
X35941Y228321D03*
D35*
X35814Y333413D03*
X35814Y326682D03*
X35814Y321602D03*
X35814Y312458D03*
X35814Y305092D03*
X35814Y293535D03*
X35814Y286804D03*
D21*
X35814Y279121D03*
D35*
X35814Y269278D03*
X35814Y263690D03*
X35814Y256959D03*
X35814Y251879D03*
X35814Y234353D03*
D29*
X35814Y228194D03*
D35*
X35687Y333413D03*
X35687Y326682D03*
X35687Y321602D03*
X35687Y312458D03*
X35687Y305092D03*
X35687Y293535D03*
X35687Y286804D03*
D22*
X35687Y278994D03*
D35*
X35687Y269278D03*
X35687Y263690D03*
X35687Y256959D03*
X35687Y251879D03*
X35687Y234353D03*
D30*
X35687Y228003D03*
D35*
X35560Y333413D03*
X35560Y326682D03*
X35560Y321602D03*
X35560Y312458D03*
X35560Y305092D03*
X35560Y293535D03*
X35560Y286804D03*
D23*
X35560Y278930D03*
D35*
X35560Y269278D03*
X35560Y263690D03*
X35560Y256959D03*
X35560Y251879D03*
X35560Y234353D03*
D31*
X35560Y227940D03*
D35*
X35433Y333413D03*
X35433Y326682D03*
X35433Y321602D03*
X35433Y312458D03*
X35433Y305092D03*
X35433Y293535D03*
X35433Y286804D03*
D24*
X35433Y278867D03*
D35*
X35433Y269278D03*
X35433Y263690D03*
X35433Y256959D03*
X35433Y251879D03*
X35433Y234353D03*
D33*
X35433Y227876D03*
D35*
X35306Y333413D03*
X35306Y326682D03*
X35306Y321602D03*
X35306Y312458D03*
X35306Y305092D03*
X35306Y293535D03*
X35306Y286804D03*
D48*
X35306Y278803D03*
D35*
X35306Y269278D03*
X35306Y263690D03*
X35306Y256959D03*
X35306Y251879D03*
X35306Y234353D03*
D33*
X35306Y227749D03*
D35*
X35179Y333413D03*
X35179Y326682D03*
X35179Y321602D03*
X35179Y312458D03*
X35179Y305092D03*
X35179Y293535D03*
X35179Y286804D03*
D52*
X35179Y278676D03*
D35*
X35179Y269278D03*
X35179Y263690D03*
X35179Y256959D03*
X35179Y251879D03*
X35179Y234353D03*
D33*
X35179Y227749D03*
D32*
X35052Y333350D03*
D35*
X35052Y326682D03*
X35052Y321602D03*
X35052Y312458D03*
X35052Y305092D03*
X35052Y293535D03*
X35052Y286804D03*
D52*
X35052Y278676D03*
D35*
X35052Y269278D03*
X35052Y263690D03*
X35052Y256959D03*
X35052Y251879D03*
X35052Y234353D03*
D32*
X35052Y227686D03*
X34925Y333350D03*
D35*
X34925Y326682D03*
X34925Y321602D03*
X34925Y312458D03*
X34925Y305092D03*
X34925Y293535D03*
X34925Y286804D03*
D53*
X34925Y278613D03*
D35*
X34925Y269278D03*
X34925Y263690D03*
X34925Y256959D03*
X34925Y251879D03*
X34925Y234353D03*
D32*
X34925Y227686D03*
X34798Y333223D03*
D35*
X34798Y326682D03*
X34798Y321602D03*
X34798Y312458D03*
X34798Y305092D03*
X34798Y293535D03*
X34798Y286804D03*
D55*
X34798Y278549D03*
D35*
X34798Y269278D03*
X34798Y263690D03*
X34798Y256959D03*
X34798Y251879D03*
X34798Y234353D03*
X34798Y227622D03*
D33*
X34671Y333159D03*
D35*
X34671Y326682D03*
X34671Y321602D03*
X34671Y312458D03*
D15*
X34671Y303124D03*
D35*
X34671Y293535D03*
X34671Y286804D03*
D58*
X34671Y278486D03*
D35*
X34671Y269278D03*
X34671Y263690D03*
X34671Y256959D03*
D15*
X34671Y249911D03*
D35*
X34671Y234353D03*
D32*
X34671Y227559D03*
D33*
X34544Y333159D03*
D35*
X34544Y326682D03*
X34544Y321602D03*
X34544Y312458D03*
D18*
X34544Y302870D03*
D35*
X34544Y293535D03*
X34544Y286804D03*
X34544Y281597D03*
D29*
X34544Y275692D03*
D35*
X34544Y269278D03*
X34544Y263690D03*
X34544Y256959D03*
D18*
X34544Y249657D03*
D35*
X34544Y234353D03*
D32*
X34544Y227559D03*
D33*
X34417Y333032D03*
D35*
X34417Y326682D03*
X34417Y321602D03*
X34417Y312458D03*
D59*
X34417Y302679D03*
D35*
X34417Y293535D03*
X34417Y286804D03*
X34417Y281597D03*
D30*
X34417Y275501D03*
D35*
X34417Y269278D03*
X34417Y263690D03*
X34417Y256959D03*
D19*
X34417Y249530D03*
D35*
X34417Y234353D03*
X34417Y227495D03*
D31*
X34290Y332969D03*
D35*
X34290Y326682D03*
X34290Y321602D03*
X34290Y312458D03*
D25*
X34290Y302552D03*
D35*
X34290Y293535D03*
X34290Y286804D03*
X34290Y281597D03*
D31*
X34290Y275438D03*
D35*
X34290Y269278D03*
X34290Y263690D03*
X34290Y256959D03*
D25*
X34290Y249339D03*
D35*
X34290Y234353D03*
X34290Y227495D03*
D30*
X34163Y332778D03*
D35*
X34163Y326682D03*
X34163Y321602D03*
X34163Y312458D03*
D23*
X34163Y302425D03*
D35*
X34163Y293535D03*
X34163Y286804D03*
X34163Y281597D03*
D31*
X34163Y275311D03*
D35*
X34163Y269278D03*
X34163Y263690D03*
X34163Y256959D03*
D22*
X34163Y249276D03*
D35*
X34163Y234353D03*
X34163Y227495D03*
D10*
X34036Y332651D03*
D35*
X34036Y326682D03*
X34036Y321602D03*
X34036Y312458D03*
D24*
X34036Y302362D03*
D35*
X34036Y293535D03*
X34036Y286804D03*
X34036Y281597D03*
D33*
X34036Y275247D03*
D35*
X34036Y269278D03*
X34036Y263690D03*
X34036Y256959D03*
D24*
X34036Y249149D03*
D35*
X34036Y234353D03*
X34036Y227495D03*
D58*
X33909Y329794D03*
D35*
X33909Y321602D03*
X33909Y312458D03*
D48*
X33909Y302298D03*
D35*
X33909Y293535D03*
X33909Y286804D03*
X33909Y281597D03*
D32*
X33909Y275184D03*
D35*
X33909Y269278D03*
X33909Y263690D03*
X33909Y256959D03*
D48*
X33909Y249085D03*
D35*
X33909Y234353D03*
X33909Y227495D03*
D55*
X33782Y329730D03*
D35*
X33782Y321602D03*
X33782Y312458D03*
D26*
X33782Y302235D03*
D35*
X33782Y293535D03*
X33782Y286804D03*
X33782Y281597D03*
D32*
X33782Y275057D03*
D35*
X33782Y269278D03*
X33782Y263690D03*
X33782Y256959D03*
D26*
X33782Y249022D03*
D35*
X33782Y234353D03*
X33782Y227495D03*
D55*
X33655Y329730D03*
D35*
X33655Y321602D03*
X33655Y312458D03*
D52*
X33655Y302171D03*
D35*
X33655Y293535D03*
X33655Y286804D03*
X33655Y281597D03*
D32*
X33655Y275057D03*
D35*
X33655Y269278D03*
X33655Y263690D03*
X33655Y256959D03*
D52*
X33655Y248958D03*
D35*
X33655Y234353D03*
X33655Y227495D03*
D53*
X33528Y329667D03*
D35*
X33528Y321602D03*
X33528Y312458D03*
D53*
X33528Y302108D03*
D35*
X33528Y293535D03*
X33528Y286804D03*
X33528Y281597D03*
X33528Y274993D03*
X33528Y269278D03*
X33528Y263690D03*
X33528Y256959D03*
D53*
X33528Y248895D03*
D35*
X33528Y234353D03*
X33528Y227495D03*
D52*
X33401Y329603D03*
D35*
X33401Y321602D03*
X33401Y312458D03*
D55*
X33401Y302044D03*
D35*
X33401Y293535D03*
X33401Y286804D03*
X33401Y281597D03*
X33401Y274993D03*
X33401Y269278D03*
X33401Y263690D03*
X33401Y256959D03*
D55*
X33401Y248831D03*
D35*
X33401Y234353D03*
X33401Y227495D03*
D26*
X33274Y329540D03*
D35*
X33274Y321602D03*
X33274Y312458D03*
D58*
X33274Y301981D03*
D35*
X33274Y293535D03*
X33274Y286804D03*
X33274Y281597D03*
D32*
X33274Y274930D03*
D35*
X33274Y269278D03*
X33274Y263690D03*
X33274Y256959D03*
D55*
X33274Y248831D03*
D35*
X33274Y234353D03*
X33274Y227495D03*
D48*
X33147Y329476D03*
D35*
X33147Y321602D03*
X33147Y312458D03*
D58*
X33147Y301981D03*
D35*
X33147Y293535D03*
X33147Y286804D03*
X33147Y281597D03*
X33147Y274866D03*
X33147Y269278D03*
X33147Y263690D03*
X33147Y256959D03*
D58*
X33147Y248768D03*
D35*
X33147Y234353D03*
X33147Y227495D03*
D23*
X33020Y329349D03*
D35*
X33020Y321602D03*
X33020Y312458D03*
X33020Y305092D03*
D29*
X33020Y299060D03*
D35*
X33020Y293535D03*
X33020Y286804D03*
X33020Y281597D03*
X33020Y274866D03*
X33020Y269278D03*
X33020Y263690D03*
X33020Y256959D03*
X33020Y251879D03*
D29*
X33020Y245847D03*
D35*
X33020Y234353D03*
X33020Y227495D03*
D22*
X32893Y329286D03*
D35*
X32893Y321602D03*
X32893Y312458D03*
X32893Y305092D03*
D30*
X32893Y298869D03*
D35*
X32893Y293535D03*
X32893Y286804D03*
X32893Y281597D03*
X32893Y274866D03*
X32893Y269278D03*
X32893Y263690D03*
X32893Y256959D03*
X32893Y251879D03*
D30*
X32893Y245783D03*
D35*
X32893Y234353D03*
X32893Y227495D03*
D21*
X32766Y329159D03*
D35*
X32766Y321602D03*
X32766Y312458D03*
X32766Y305092D03*
D31*
X32766Y298806D03*
D35*
X32766Y293535D03*
X32766Y286804D03*
X32766Y281597D03*
X32766Y274866D03*
X32766Y269278D03*
X32766Y263690D03*
X32766Y256959D03*
X32766Y251879D03*
D31*
X32766Y245593D03*
D35*
X32766Y234353D03*
X32766Y227495D03*
D19*
X32639Y329032D03*
D35*
X32639Y321602D03*
X32639Y312458D03*
X32639Y305092D03*
D31*
X32639Y298679D03*
D35*
X32639Y293535D03*
X32639Y286804D03*
X32639Y281597D03*
X32639Y274866D03*
X32639Y269278D03*
X32639Y263690D03*
X32639Y256959D03*
X32639Y251879D03*
D33*
X32639Y245529D03*
D35*
X32639Y234353D03*
X32639Y227495D03*
D42*
X32512Y328841D03*
D35*
X32512Y321602D03*
X32512Y312458D03*
X32512Y305092D03*
D33*
X32512Y298615D03*
D35*
X32512Y293535D03*
X32512Y286804D03*
X32512Y281597D03*
X32512Y274866D03*
X32512Y269278D03*
X32512Y263690D03*
X32512Y256959D03*
X32512Y251879D03*
D32*
X32512Y245466D03*
D35*
X32512Y234353D03*
D32*
X32512Y227559D03*
D68*
X32385Y328397D03*
D35*
X32385Y321602D03*
X32385Y312458D03*
X32385Y305092D03*
D32*
X32385Y298552D03*
D35*
X32385Y293535D03*
X32385Y286804D03*
X32385Y281597D03*
X32385Y274866D03*
X32385Y269278D03*
X32385Y263690D03*
X32385Y256959D03*
X32385Y251879D03*
D33*
X32385Y245402D03*
D35*
X32385Y234353D03*
D32*
X32385Y227559D03*
D35*
X32258Y326682D03*
X32258Y321602D03*
X32258Y312458D03*
X32258Y305092D03*
D32*
X32258Y298552D03*
D35*
X32258Y293535D03*
X32258Y286804D03*
X32258Y281597D03*
X32258Y274866D03*
X32258Y269278D03*
X32258Y263690D03*
X32258Y256959D03*
X32258Y251879D03*
D32*
X32258Y245339D03*
D35*
X32258Y234353D03*
X32258Y227622D03*
X32131Y326682D03*
X32131Y321602D03*
X32131Y312458D03*
X32131Y305092D03*
D32*
X32131Y298425D03*
D35*
X32131Y293535D03*
X32131Y286804D03*
X32131Y281597D03*
X32131Y274866D03*
X32131Y269278D03*
X32131Y263690D03*
X32131Y256959D03*
X32131Y251879D03*
X32131Y245275D03*
X32131Y234353D03*
D32*
X32131Y227686D03*
D35*
X32004Y326682D03*
X32004Y321602D03*
X32004Y312458D03*
X32004Y305092D03*
D32*
X32004Y298425D03*
D35*
X32004Y293535D03*
X32004Y286804D03*
X32004Y281597D03*
X32004Y274866D03*
X32004Y269278D03*
X32004Y263690D03*
X32004Y256959D03*
X32004Y251879D03*
D32*
X32004Y245212D03*
D35*
X32004Y234353D03*
D32*
X32004Y227686D03*
D35*
X31877Y326682D03*
X31877Y321602D03*
X31877Y312458D03*
X31877Y305092D03*
X31877Y298361D03*
X31877Y293535D03*
X31877Y286804D03*
X31877Y281597D03*
X31877Y274866D03*
X31877Y269278D03*
X31877Y263690D03*
X31877Y256959D03*
X31877Y251879D03*
D32*
X31877Y245212D03*
D35*
X31877Y234353D03*
D33*
X31877Y227749D03*
D35*
X31750Y326682D03*
X31750Y321602D03*
X31750Y312458D03*
X31750Y305092D03*
X31750Y298361D03*
X31750Y293535D03*
X31750Y286804D03*
X31750Y281597D03*
X31750Y274866D03*
X31750Y269278D03*
X31750Y263690D03*
X31750Y256959D03*
X31750Y251879D03*
X31750Y245148D03*
X31750Y234353D03*
D31*
X31750Y227813D03*
D35*
X31623Y326682D03*
X31623Y321602D03*
X31623Y312458D03*
X31623Y305092D03*
X31623Y298361D03*
X31623Y293535D03*
X31623Y286804D03*
X31623Y281597D03*
X31623Y274866D03*
X31623Y269278D03*
X31623Y263690D03*
X31623Y256959D03*
X31623Y251879D03*
X31623Y245148D03*
X31623Y234353D03*
D33*
X31623Y227876D03*
D35*
X31496Y326682D03*
X31496Y321602D03*
X31496Y312458D03*
X31496Y305092D03*
X31496Y298361D03*
X31496Y293535D03*
X31496Y286804D03*
X31496Y281597D03*
X31496Y274866D03*
X31496Y269278D03*
X31496Y263690D03*
X31496Y256959D03*
X31496Y251879D03*
X31496Y245148D03*
X31496Y234353D03*
D31*
X31496Y227940D03*
D35*
X31369Y326682D03*
X31369Y321602D03*
X31369Y312458D03*
X31369Y305092D03*
D32*
X31369Y298298D03*
D35*
X31369Y293535D03*
X31369Y286804D03*
X31369Y281597D03*
X31369Y274866D03*
X31369Y269278D03*
X31369Y263690D03*
X31369Y256959D03*
X31369Y251879D03*
X31369Y245148D03*
X31369Y234353D03*
D29*
X31369Y228067D03*
D35*
X31242Y326682D03*
X31242Y321602D03*
X31242Y312458D03*
X31242Y305092D03*
D32*
X31242Y298298D03*
D35*
X31242Y293535D03*
X31242Y286804D03*
X31242Y281597D03*
X31242Y274866D03*
X31242Y269278D03*
X31242Y263690D03*
X31242Y256959D03*
X31242Y251879D03*
X31242Y245148D03*
X31242Y234353D03*
D29*
X31242Y228194D03*
D35*
X31115Y326682D03*
X31115Y321602D03*
X31115Y312458D03*
X31115Y305092D03*
X31115Y298361D03*
X31115Y293535D03*
X31115Y286804D03*
X31115Y281597D03*
X31115Y274866D03*
X31115Y269278D03*
X31115Y263690D03*
X31115Y256959D03*
X31115Y251879D03*
X31115Y245148D03*
D47*
X31115Y236131D03*
D27*
X31115Y228321D03*
D35*
X30988Y326682D03*
X30988Y321602D03*
X30988Y312458D03*
X30988Y305092D03*
X30988Y298361D03*
X30988Y293535D03*
X30988Y286804D03*
X30988Y281597D03*
X30988Y274866D03*
X30988Y269278D03*
X30988Y263690D03*
X30988Y256959D03*
X30988Y251879D03*
X30988Y245148D03*
D42*
X30988Y236385D03*
D69*
X30988Y228638D03*
D35*
X30861Y326682D03*
X30861Y321602D03*
X30861Y312458D03*
D32*
X30861Y305029D03*
D35*
X30861Y298361D03*
X30861Y293535D03*
X30861Y286804D03*
X30861Y281597D03*
D32*
X30861Y274930D03*
D35*
X30861Y269278D03*
X30861Y263690D03*
X30861Y256959D03*
X30861Y251879D03*
X30861Y245148D03*
D64*
X30861Y233528D03*
D32*
X30734Y326746D03*
D35*
X30734Y321602D03*
X30734Y312458D03*
X30734Y304965D03*
X30734Y298361D03*
X30734Y293535D03*
D32*
X30734Y286868D03*
D35*
X30734Y281597D03*
D32*
X30734Y274930D03*
D35*
X30734Y269278D03*
X30734Y263690D03*
D32*
X30734Y257023D03*
D35*
X30734Y251879D03*
D32*
X30734Y245212D03*
D67*
X30734Y233655D03*
D35*
X30607Y326809D03*
D32*
X30607Y321539D03*
D35*
X30607Y312458D03*
X30607Y304965D03*
X30607Y298361D03*
D32*
X30607Y293472D03*
X30607Y286868D03*
X30607Y281534D03*
D35*
X30607Y274993D03*
X30607Y269278D03*
D32*
X30607Y263627D03*
X30607Y257023D03*
X30607Y251816D03*
X30607Y245212D03*
D67*
X30607Y233782D03*
D35*
X30480Y326809D03*
D32*
X30480Y321539D03*
D35*
X30480Y312458D03*
D32*
X30480Y304902D03*
X30480Y298425D03*
X30480Y293472D03*
D35*
X30480Y286931D03*
D32*
X30480Y281534D03*
D35*
X30480Y274993D03*
X30480Y269278D03*
D32*
X30480Y263627D03*
D35*
X30480Y257086D03*
D32*
X30480Y251816D03*
D35*
X30480Y245275D03*
D66*
X30480Y233972D03*
D32*
X30353Y326873D03*
X30353Y321412D03*
D35*
X30353Y312458D03*
D32*
X30353Y304902D03*
X30353Y298425D03*
X30353Y293345D03*
X30353Y286995D03*
D35*
X30353Y281470D03*
D32*
X30353Y275057D03*
D35*
X30353Y269278D03*
D32*
X30353Y263500D03*
X30353Y257150D03*
X30353Y251689D03*
X30353Y245339D03*
D66*
X30353Y234099D03*
D32*
X30226Y326873D03*
X30226Y321412D03*
D35*
X30226Y312458D03*
D33*
X30226Y304838D03*
D32*
X30226Y298552D03*
X30226Y293345D03*
X30226Y286995D03*
X30226Y281407D03*
D33*
X30226Y275120D03*
D35*
X30226Y269278D03*
D32*
X30226Y263500D03*
X30226Y257150D03*
X30226Y251689D03*
X30226Y245339D03*
D66*
X30226Y234226D03*
D32*
X30099Y327000D03*
D33*
X30099Y321348D03*
D35*
X30099Y312458D03*
D32*
X30099Y304775D03*
D33*
X30099Y298615D03*
X30099Y293281D03*
D32*
X30099Y287122D03*
D33*
X30099Y281343D03*
D32*
X30099Y275184D03*
D35*
X30099Y269278D03*
D33*
X30099Y263436D03*
D32*
X30099Y257277D03*
D33*
X30099Y251625D03*
D32*
X30099Y245466D03*
D66*
X30099Y234353D03*
D33*
X29972Y327063D03*
X29972Y321221D03*
D35*
X29972Y312458D03*
D33*
X29972Y304711D03*
D31*
X29972Y298679D03*
D33*
X29972Y293154D03*
X29972Y287185D03*
X29972Y281343D03*
X29972Y275247D03*
D35*
X29972Y269278D03*
D33*
X29972Y263309D03*
X29972Y257340D03*
X29972Y251498D03*
X29972Y245529D03*
D67*
X29972Y234544D03*
D31*
X29845Y327127D03*
X29845Y321158D03*
D35*
X29845Y312458D03*
D33*
X29845Y304584D03*
D31*
X29845Y298806D03*
X29845Y293091D03*
X29845Y287249D03*
D33*
X29845Y281216D03*
D31*
X29845Y275311D03*
D35*
X29845Y269278D03*
D31*
X29845Y263246D03*
X29845Y257404D03*
X29845Y251435D03*
X29845Y245593D03*
D67*
X29845Y234671D03*
D31*
X29718Y327254D03*
D30*
X29718Y321094D03*
D35*
X29718Y312458D03*
D30*
X29718Y304457D03*
X29718Y298869D03*
X29718Y293027D03*
D31*
X29718Y287376D03*
D30*
X29718Y281089D03*
D31*
X29718Y275438D03*
D35*
X29718Y269278D03*
D30*
X29718Y263182D03*
D31*
X29718Y257531D03*
X29718Y251308D03*
X29718Y245720D03*
D64*
X29718Y234798D03*
D70*
X29591Y332016D03*
D29*
X29591Y327381D03*
D30*
X29591Y320967D03*
D35*
X29591Y312458D03*
D30*
X29591Y304330D03*
D29*
X29591Y299060D03*
D30*
X29591Y292900D03*
D29*
X29591Y287503D03*
D30*
X29591Y280962D03*
D29*
X29591Y275565D03*
D35*
X29591Y269278D03*
D30*
X29591Y263055D03*
D29*
X29591Y257658D03*
X29591Y251181D03*
X29591Y245847D03*
D62*
X29591Y234988D03*
D39*
X29464Y331635D03*
D27*
X29464Y327635D03*
X29464Y320777D03*
D35*
X29464Y312458D03*
D28*
X29464Y304076D03*
X29464Y299250D03*
D10*
X29464Y292646D03*
D27*
X29464Y287757D03*
X29464Y280772D03*
X29464Y275819D03*
D35*
X29464Y269278D03*
D10*
X29464Y262801D03*
D27*
X29464Y257912D03*
X29464Y250927D03*
X29464Y246101D03*
D60*
X29464Y235306D03*
D50*
X29337Y329349D03*
X29337Y319062D03*
D71*
X29337Y311061D03*
D48*
X29337Y301663D03*
X29337Y290233D03*
X29337Y278295D03*
D35*
X29337Y269278D03*
D48*
X29337Y260388D03*
X29337Y248577D03*
D27*
X29337Y240005D03*
D36*
X29337Y234163D03*
D50*
X29210Y329349D03*
D15*
X29210Y318999D03*
D72*
X29210Y310998D03*
D24*
X29210Y301727D03*
X29210Y290170D03*
X29210Y278232D03*
D35*
X29210Y269278D03*
D24*
X29210Y260325D03*
X29210Y248514D03*
D30*
X29210Y240195D03*
D36*
X29210Y234163D03*
D15*
X29083Y329413D03*
X29083Y318999D03*
D72*
X29083Y310998D03*
D22*
X29083Y301727D03*
X29083Y290170D03*
X29083Y278232D03*
D35*
X29083Y269278D03*
D22*
X29083Y260325D03*
X29083Y248514D03*
D31*
X29083Y240386D03*
D36*
X29083Y234163D03*
D47*
X28956Y329476D03*
X28956Y318935D03*
D72*
X28956Y310998D03*
D25*
X28956Y301663D03*
D21*
X28956Y290170D03*
D25*
X28956Y278295D03*
D35*
X28956Y269278D03*
D21*
X28956Y260325D03*
X28956Y248514D03*
D32*
X28956Y240513D03*
D36*
X28956Y234163D03*
D20*
X28829Y329540D03*
X28829Y318872D03*
D72*
X28829Y310998D03*
D59*
X28829Y301663D03*
D19*
X28829Y290170D03*
D59*
X28829Y278295D03*
D35*
X28829Y269278D03*
D19*
X28829Y260325D03*
X28829Y248514D03*
D32*
X28829Y240640D03*
D36*
X28829Y234163D03*
D14*
X28702Y329603D03*
X28702Y318808D03*
D72*
X28702Y310998D03*
D46*
X28702Y301663D03*
D18*
X28702Y290170D03*
D46*
X28702Y278295D03*
D35*
X28702Y269278D03*
D18*
X28702Y260325D03*
X28702Y248514D03*
D35*
X28702Y240703D03*
D36*
X28702Y234163D03*
D68*
X28575Y329667D03*
X28575Y318745D03*
D72*
X28575Y310998D03*
D16*
X28575Y301727D03*
X28575Y290170D03*
X28575Y278232D03*
D35*
X28575Y269278D03*
D16*
X28575Y260325D03*
X28575Y248514D03*
D35*
X28575Y240703D03*
D36*
X28575Y234163D03*
D13*
X28448Y329794D03*
X28448Y318618D03*
D72*
X28448Y310998D03*
D47*
X28448Y301663D03*
X28448Y290233D03*
X28448Y278295D03*
D35*
X28448Y269278D03*
D47*
X28448Y260388D03*
D15*
X28448Y248514D03*
D36*
X28448Y240767D03*
X28448Y234163D03*
D45*
X28321Y329857D03*
X28321Y318554D03*
D72*
X28321Y310998D03*
D68*
X28321Y301727D03*
X28321Y290170D03*
X28321Y278232D03*
D35*
X28321Y269278D03*
D68*
X28321Y260325D03*
X28321Y248514D03*
D36*
X28321Y240894D03*
X28321Y234163D03*
D71*
X28194Y329984D03*
X28194Y318427D03*
D72*
X28194Y310998D03*
X28194Y301727D03*
X28194Y290170D03*
X28194Y278232D03*
D35*
X28194Y269278D03*
D72*
X28194Y260325D03*
X28194Y248514D03*
D36*
X28194Y240894D03*
X28194Y234163D03*
D56*
X28067Y329921D03*
D12*
X28067Y318300D03*
D72*
X28067Y310998D03*
D57*
X28067Y301663D03*
X28067Y290233D03*
X28067Y278295D03*
D35*
X28067Y269278D03*
D57*
X28067Y260388D03*
X28067Y248577D03*
D36*
X28067Y240894D03*
X28067Y234163D03*
D27*
X27940Y329794D03*
D51*
X27940Y318300D03*
D71*
X27940Y311061D03*
D43*
X27940Y301727D03*
X27940Y290170D03*
X27940Y278232D03*
D36*
X27940Y269342D03*
D43*
X27940Y260325D03*
X27940Y248514D03*
D37*
X27940Y240957D03*
D36*
X27940Y234163D03*
D35*
X27813Y312458D03*
D37*
X27813Y240957D03*
D36*
X27813Y234163D03*
D35*
X27686Y312458D03*
D37*
X27686Y240957D03*
D36*
X27686Y234163D03*
D35*
X27559Y312458D03*
D37*
X27559Y240957D03*
D36*
X27559Y234163D03*
D35*
X27432Y312458D03*
D37*
X27432Y240957D03*
D36*
X27432Y234163D03*
D35*
X27305Y312458D03*
D37*
X27305Y240957D03*
D36*
X27305Y234163D03*
D35*
X27178Y312458D03*
D37*
X27178Y240957D03*
D36*
X27178Y234163D03*
D35*
X27051Y312458D03*
D37*
X27051Y240957D03*
D36*
X27051Y234163D03*
D35*
X26924Y312458D03*
D37*
X26924Y240957D03*
D36*
X26924Y234163D03*
D35*
X26797Y312458D03*
D37*
X26797Y240957D03*
D36*
X26797Y234163D03*
D35*
X26670Y312458D03*
D37*
X26670Y240957D03*
D36*
X26670Y234163D03*
D35*
X26543Y312458D03*
D37*
X26543Y240957D03*
D36*
X26543Y234163D03*
D35*
X26416Y312458D03*
D37*
X26416Y240957D03*
D36*
X26416Y234163D03*
D35*
X26289Y312458D03*
D37*
X26289Y240957D03*
D36*
X26289Y234163D03*
D35*
X26162Y312458D03*
D37*
X26162Y240957D03*
D36*
X26162Y234163D03*
D35*
X26035Y312458D03*
D37*
X26035Y240957D03*
D36*
X26035Y234163D03*
D35*
X25908Y312458D03*
D37*
X25908Y240957D03*
D36*
X25908Y234163D03*
D35*
X25781Y312458D03*
D36*
X25781Y240894D03*
X25781Y234163D03*
D35*
X25654Y312458D03*
D36*
X25654Y240894D03*
D37*
X25654Y234226D03*
D35*
X25527Y312458D03*
D36*
X25527Y240894D03*
X25527Y234290D03*
D35*
X25400Y312458D03*
X25400Y240830D03*
D36*
X25400Y234290D03*
D35*
X25273Y312458D03*
D36*
X25273Y240767D03*
X25273Y234290D03*
X25146Y312395D03*
D35*
X25146Y240703D03*
X25146Y234353D03*
D39*
X25019Y312204D03*
D32*
X25019Y240640D03*
D35*
X25019Y234480D03*
D40*
X24892Y311823D03*
D30*
X24892Y269278D03*
D33*
X24892Y240576D03*
D32*
X24892Y234544D03*
D10*
X24765Y269278D03*
D33*
X24765Y240449D03*
X24765Y234607D03*
D27*
X24638Y269342D03*
D31*
X24638Y240386D03*
X24638Y234798D03*
D27*
X24511Y269342D03*
D29*
X24511Y240132D03*
X24511Y234925D03*
D27*
X24384Y269342D03*
D26*
X24384Y237592D03*
D27*
X24257Y269342D03*
D48*
X24257Y237528D03*
D27*
X24130Y269342D03*
D24*
X24130Y237592D03*
D27*
X24003Y269342D03*
D23*
X24003Y237528D03*
D27*
X23876Y269342D03*
D25*
X23876Y237528D03*
D27*
X23749Y269342D03*
D59*
X23749Y237528D03*
D27*
X23622Y269342D03*
D19*
X23622Y237592D03*
D10*
X23495Y269278D03*
D18*
X23495Y237592D03*
D30*
X23368Y269278D03*
D50*
X23368Y237528D03*
D47*
X23241Y237528D03*
D68*
X23114Y237592D03*
D72*
X22987Y237592D03*
D17*
X22860Y237592D03*
D49*
X22733Y237592D03*
D37*
X22606Y237528D03*
D73*
X411378Y334518D03*
D74*
X411201Y334340D03*
D75*
X411023Y334429D03*
D76*
X411023Y308293D03*
D77*
X411023Y285090D03*
X411023Y253975D03*
D76*
X411023Y222415D03*
D78*
X410845Y334429D03*
D79*
X410845Y308293D03*
D80*
X410845Y285090D03*
X410845Y253975D03*
D79*
X410845Y222415D03*
D81*
X410667Y334340D03*
D75*
X410667Y308293D03*
X410667Y285179D03*
D82*
X410667Y269977D03*
D83*
X410667Y253975D03*
D84*
X410667Y238773D03*
D75*
X410667Y222415D03*
D85*
X410489Y334429D03*
D86*
X410489Y308293D03*
X410489Y285179D03*
D82*
X410489Y269977D03*
D87*
X410489Y253975D03*
D84*
X410489Y238773D03*
D88*
X410489Y222415D03*
D89*
X410312Y334340D03*
D90*
X410312Y308204D03*
D91*
X410312Y285179D03*
D92*
X410312Y269977D03*
D90*
X410312Y253975D03*
D93*
X410312Y238773D03*
D91*
X410312Y222415D03*
D94*
X410134Y334340D03*
D95*
X410134Y308204D03*
D96*
X410134Y285179D03*
D82*
X410134Y269977D03*
D95*
X410134Y253975D03*
D84*
X410134Y238773D03*
D96*
X410134Y222415D03*
D97*
X409956Y334340D03*
D98*
X409956Y308293D03*
X409956Y285179D03*
D92*
X409956Y269977D03*
D98*
X409956Y254064D03*
D93*
X409956Y238773D03*
D98*
X409956Y222415D03*
D99*
X409778Y334340D03*
D100*
X409778Y308293D03*
X409778Y285179D03*
D82*
X409778Y269977D03*
D101*
X409778Y253975D03*
D84*
X409778Y238773D03*
D100*
X409778Y222415D03*
D102*
X409600Y334429D03*
D103*
X409600Y308293D03*
D104*
X409600Y285179D03*
D82*
X409600Y269977D03*
D104*
X409600Y254064D03*
D84*
X409600Y238773D03*
D105*
X409600Y222415D03*
D106*
X409423Y334429D03*
D107*
X409423Y308293D03*
D108*
X409423Y285267D03*
D92*
X409423Y269977D03*
D108*
X409423Y253975D03*
D93*
X409423Y238773D03*
D107*
X409423Y222415D03*
D109*
X409245Y338963D03*
D110*
X409245Y329629D03*
D111*
X409245Y312026D03*
D112*
X409245Y304470D03*
D111*
X409245Y288912D03*
D113*
X409245Y281356D03*
D82*
X409245Y269977D03*
D111*
X409245Y257797D03*
D113*
X409245Y250241D03*
D84*
X409245Y238773D03*
D112*
X409245Y226238D03*
D111*
X409245Y218681D03*
D114*
X409067Y339496D03*
D74*
X409067Y329006D03*
D115*
X409067Y312560D03*
X409067Y304025D03*
D116*
X409067Y289357D03*
D117*
X409067Y280911D03*
D92*
X409067Y269977D03*
D116*
X409067Y258242D03*
D117*
X409067Y249796D03*
D93*
X409067Y238773D03*
D115*
X409067Y226682D03*
X409067Y218148D03*
D112*
X408889Y340030D03*
D113*
X408889Y328651D03*
D76*
X408889Y312915D03*
X408889Y303670D03*
X408889Y289801D03*
D118*
X408889Y280556D03*
D82*
X408889Y269977D03*
D77*
X408889Y258597D03*
D118*
X408889Y249441D03*
D84*
X408889Y238773D03*
D76*
X408889Y227038D03*
X408889Y217792D03*
D111*
X408711Y340297D03*
D119*
X408711Y328295D03*
D77*
X408711Y313182D03*
X408711Y303403D03*
X408711Y290068D03*
D120*
X408711Y280289D03*
D82*
X408711Y269977D03*
D118*
X408711Y258864D03*
D120*
X408711Y249174D03*
D84*
X408711Y238773D03*
D77*
X408711Y227305D03*
X408711Y217526D03*
D115*
X408534Y340652D03*
D117*
X408534Y328028D03*
D121*
X408534Y313449D03*
X408534Y303136D03*
X408534Y290335D03*
D122*
X408534Y280022D03*
D92*
X408534Y269977D03*
D121*
X408534Y259042D03*
D122*
X408534Y248907D03*
D93*
X408534Y238773D03*
D121*
X408534Y227571D03*
X408534Y217259D03*
D123*
X408356Y340919D03*
D76*
X408356Y327673D03*
D118*
X408356Y313627D03*
D124*
X408356Y302870D03*
X408356Y290424D03*
D125*
X408356Y279845D03*
D82*
X408356Y269977D03*
D124*
X408356Y259309D03*
D126*
X408356Y248641D03*
D84*
X408356Y238773D03*
D120*
X408356Y227838D03*
D118*
X408356Y217081D03*
D127*
X408178Y341274D03*
D117*
X408178Y327495D03*
D128*
X408178Y313893D03*
X408178Y302692D03*
D122*
X408178Y290690D03*
D129*
X408178Y279667D03*
D92*
X408178Y269977D03*
D128*
X408178Y259486D03*
D130*
X408178Y248463D03*
D93*
X408178Y238773D03*
D128*
X408178Y228016D03*
X408178Y216814D03*
D123*
X408000Y341452D03*
D77*
X408000Y327228D03*
D120*
X408000Y314071D03*
X408000Y302514D03*
D125*
X408000Y290868D03*
D131*
X408000Y279489D03*
D82*
X408000Y269977D03*
D125*
X408000Y259753D03*
D131*
X408000Y248374D03*
D84*
X408000Y238773D03*
D124*
X408000Y228194D03*
X408000Y216637D03*
D76*
X407822Y341719D03*
D118*
X407822Y327139D03*
D125*
X407822Y314160D03*
D132*
X407822Y302247D03*
D125*
X407822Y291046D03*
D131*
X407822Y279311D03*
D82*
X407822Y269977D03*
D126*
X407822Y259842D03*
D131*
X407822Y248196D03*
D84*
X407822Y238773D03*
D132*
X407822Y228460D03*
D124*
X407822Y216459D03*
D117*
X407645Y341897D03*
D128*
X407645Y326873D03*
D130*
X407645Y314427D03*
D133*
X407645Y302070D03*
D122*
X407645Y291224D03*
D92*
X407645Y279222D03*
X407645Y269977D03*
D130*
X407645Y260020D03*
D129*
X407645Y248018D03*
D93*
X407645Y238773D03*
D130*
X407645Y228549D03*
X407645Y216281D03*
D118*
X407467Y342075D03*
D124*
X407467Y326695D03*
D126*
X407467Y314604D03*
X407467Y301981D03*
X407467Y291313D03*
D82*
X407467Y279044D03*
X407467Y269977D03*
D126*
X407467Y260198D03*
D131*
X407467Y247841D03*
D84*
X407467Y238773D03*
D126*
X407467Y228727D03*
X407467Y216103D03*
D121*
X407289Y342252D03*
D134*
X407289Y326517D03*
D130*
X407289Y314782D03*
X407289Y301803D03*
X407289Y291490D03*
D92*
X407289Y278867D03*
X407289Y269977D03*
D129*
X407289Y260287D03*
D92*
X407289Y247752D03*
D93*
X407289Y238773D03*
D130*
X407289Y228905D03*
X407289Y215925D03*
D118*
X407111Y342430D03*
D124*
X407111Y326339D03*
D131*
X407111Y314871D03*
D126*
X407111Y301625D03*
D131*
X407111Y291579D03*
D82*
X407111Y278867D03*
X407111Y269977D03*
D126*
X407111Y260375D03*
D82*
X407111Y247574D03*
D84*
X407111Y238773D03*
D126*
X407111Y229083D03*
D131*
X407111Y215837D03*
D118*
X406933Y342608D03*
D132*
X406933Y326250D03*
D126*
X406933Y314960D03*
D131*
X406933Y301536D03*
X406933Y291757D03*
D82*
X406933Y278689D03*
X406933Y269977D03*
D126*
X406933Y260553D03*
D82*
X406933Y247574D03*
D84*
X406933Y238773D03*
D126*
X406933Y229083D03*
X406933Y215748D03*
D121*
X406756Y342786D03*
D133*
X406756Y326073D03*
D130*
X406756Y315138D03*
X406756Y301447D03*
X406756Y291846D03*
D93*
X406756Y278600D03*
D92*
X406756Y269977D03*
D129*
X406756Y260642D03*
D92*
X406756Y247396D03*
D93*
X406756Y238773D03*
D130*
X406756Y229260D03*
X406756Y215570D03*
D124*
X406578Y342875D03*
D132*
X406578Y325895D03*
D131*
X406578Y315227D03*
X406578Y301358D03*
X406578Y291935D03*
D82*
X406578Y278511D03*
X406578Y269977D03*
D131*
X406578Y260820D03*
D84*
X406578Y247307D03*
X406578Y238773D03*
D131*
X406578Y229349D03*
X406578Y215481D03*
D128*
X406400Y343052D03*
D130*
X406400Y325806D03*
D129*
X406400Y315405D03*
X406400Y301181D03*
X406400Y292113D03*
D93*
X406400Y278422D03*
D92*
X406400Y269977D03*
D129*
X406400Y260820D03*
D92*
X406400Y247218D03*
D93*
X406400Y238773D03*
D129*
X406400Y229527D03*
X406400Y215303D03*
D124*
X406222Y343230D03*
D126*
X406222Y325628D03*
D131*
X406222Y315405D03*
X406222Y301181D03*
X406222Y292113D03*
D82*
X406222Y278333D03*
X406222Y269977D03*
D131*
X406222Y260998D03*
D84*
X406222Y247129D03*
X406222Y238773D03*
D131*
X406222Y229527D03*
X406222Y215303D03*
D125*
X406044Y343319D03*
D126*
X406044Y325450D03*
D131*
X406044Y315582D03*
X406044Y301003D03*
X406044Y292291D03*
D84*
X406044Y278244D03*
D82*
X406044Y269977D03*
D131*
X406044Y260998D03*
D82*
X406044Y247040D03*
D84*
X406044Y238773D03*
D131*
X406044Y229705D03*
X406044Y215125D03*
D133*
X405867Y343497D03*
D130*
X405867Y325450D03*
D129*
X405867Y315582D03*
D92*
X405867Y300914D03*
D129*
X405867Y292291D03*
D92*
X405867Y278155D03*
X405867Y269977D03*
D129*
X405867Y261176D03*
D135*
X405867Y246952D03*
D93*
X405867Y238773D03*
D92*
X405867Y229794D03*
D129*
X405867Y215125D03*
D132*
X405689Y343675D03*
D126*
X405689Y325272D03*
D131*
X405689Y315760D03*
X405689Y300825D03*
D82*
X405689Y292379D03*
D136*
X405689Y278067D03*
D82*
X405689Y269977D03*
D131*
X405689Y261176D03*
D136*
X405689Y246952D03*
D84*
X405689Y238773D03*
D131*
X405689Y229883D03*
X405689Y214948D03*
D122*
X405511Y343675D03*
D129*
X405511Y325184D03*
X405511Y315760D03*
D92*
X405511Y300736D03*
D129*
X405511Y292468D03*
D135*
X405511Y278067D03*
D92*
X405511Y269977D03*
X405511Y261264D03*
X405511Y246863D03*
D93*
X405511Y238773D03*
D92*
X405511Y229972D03*
D129*
X405511Y214948D03*
D125*
X405333Y343853D03*
D126*
X405333Y325095D03*
D82*
X405333Y315849D03*
D131*
X405333Y300647D03*
X405333Y292468D03*
D82*
X405333Y277978D03*
X405333Y269977D03*
D131*
X405333Y261353D03*
D84*
X405333Y246774D03*
X405333Y238773D03*
D131*
X405333Y230061D03*
D82*
X405333Y214859D03*
D126*
X405155Y343941D03*
D131*
X405155Y325006D03*
X405155Y315938D03*
X405155Y300647D03*
X405155Y292646D03*
D84*
X405155Y277889D03*
D82*
X405155Y269977D03*
D131*
X405155Y261353D03*
D84*
X405155Y246774D03*
X405155Y238773D03*
D82*
X405155Y230149D03*
D131*
X405155Y214770D03*
D122*
X404978Y344030D03*
D130*
X404978Y324917D03*
D92*
X404978Y316027D03*
X404978Y300558D03*
D129*
X404978Y292646D03*
D93*
X404978Y277889D03*
D92*
X404978Y269977D03*
D129*
X404978Y261531D03*
D92*
X404978Y246685D03*
D93*
X404978Y238773D03*
D92*
X404978Y230149D03*
X404978Y214681D03*
D125*
X404800Y344208D03*
D131*
X404800Y324828D03*
X404800Y316116D03*
X404800Y300469D03*
D82*
X404800Y292735D03*
D84*
X404800Y277889D03*
D82*
X404800Y269977D03*
D131*
X404800Y261531D03*
D84*
X404800Y246596D03*
X404800Y238773D03*
D131*
X404800Y230238D03*
X404800Y214592D03*
D130*
X404622Y344297D03*
X404622Y324739D03*
D92*
X404622Y316205D03*
X404622Y300380D03*
X404622Y292735D03*
X404622Y277800D03*
X404622Y269977D03*
X404622Y261620D03*
D93*
X404622Y246596D03*
X404622Y238773D03*
D92*
X404622Y230327D03*
D129*
X404622Y214592D03*
D126*
X404444Y344297D03*
D131*
X404444Y324650D03*
D82*
X404444Y316205D03*
X404444Y300380D03*
D131*
X404444Y292824D03*
D84*
X404444Y277711D03*
D82*
X404444Y269977D03*
X404444Y261620D03*
D84*
X404444Y246596D03*
X404444Y238773D03*
D82*
X404444Y230327D03*
X404444Y214503D03*
D126*
X404266Y344475D03*
D131*
X404266Y324650D03*
D82*
X404266Y316205D03*
D131*
X404266Y300292D03*
X404266Y292824D03*
D84*
X404266Y277711D03*
D82*
X404266Y269977D03*
D131*
X404266Y261709D03*
D82*
X404266Y246507D03*
D84*
X404266Y238773D03*
D131*
X404266Y230416D03*
D82*
X404266Y214503D03*
D130*
X404089Y344475D03*
D129*
X404089Y324472D03*
X404089Y316294D03*
D92*
X404089Y300203D03*
X404089Y292913D03*
X404089Y269977D03*
D129*
X404089Y261709D03*
D93*
X404089Y238773D03*
D92*
X404089Y230505D03*
D129*
X404089Y214414D03*
D126*
X403911Y344653D03*
D131*
X403911Y324472D03*
D82*
X403911Y316382D03*
X403911Y300203D03*
X403911Y292913D03*
X403911Y269977D03*
X403911Y261798D03*
D84*
X403911Y238773D03*
D82*
X403911Y230505D03*
X403911Y214325D03*
D130*
X403733Y344653D03*
X403733Y324383D03*
D92*
X403733Y316382D03*
D129*
X403733Y300114D03*
X403733Y293002D03*
D92*
X403733Y269977D03*
X403733Y261798D03*
D93*
X403733Y238773D03*
D92*
X403733Y230505D03*
X403733Y214325D03*
D126*
X403555Y344830D03*
D131*
X403555Y324295D03*
D82*
X403555Y316382D03*
D131*
X403555Y300114D03*
X403555Y293002D03*
D82*
X403555Y269977D03*
X403555Y261798D03*
D84*
X403555Y238773D03*
D131*
X403555Y230594D03*
X403555Y214236D03*
D126*
X403377Y344830D03*
D131*
X403377Y324295D03*
X403377Y316471D03*
X403377Y300114D03*
X403377Y293002D03*
D82*
X403377Y269977D03*
D131*
X403377Y261887D03*
D84*
X403377Y238773D03*
D82*
X403377Y230683D03*
D131*
X403377Y214236D03*
D130*
X403200Y344830D03*
D129*
X403200Y324295D03*
D92*
X403200Y316560D03*
X403200Y300025D03*
X403200Y293091D03*
X403200Y269977D03*
D129*
X403200Y261887D03*
D93*
X403200Y238773D03*
D92*
X403200Y230683D03*
D129*
X403200Y214236D03*
D126*
X403022Y345008D03*
D131*
X403022Y324117D03*
D82*
X403022Y316560D03*
X403022Y300025D03*
X403022Y293091D03*
X403022Y269977D03*
D131*
X403022Y261887D03*
D84*
X403022Y238773D03*
D82*
X403022Y230683D03*
X403022Y214147D03*
D130*
X402844Y345008D03*
D129*
X402844Y324117D03*
D92*
X402844Y316560D03*
X402844Y300025D03*
X402844Y293091D03*
X402844Y269977D03*
X402844Y261976D03*
D93*
X402844Y238773D03*
D92*
X402844Y230683D03*
X402844Y214147D03*
D126*
X402666Y345008D03*
D131*
X402666Y324117D03*
D82*
X402666Y316560D03*
D131*
X402666Y299936D03*
X402666Y293180D03*
D82*
X402666Y269977D03*
X402666Y261976D03*
D84*
X402666Y238773D03*
D131*
X402666Y230772D03*
D82*
X402666Y214147D03*
D126*
X402488Y345186D03*
X402488Y324028D03*
D131*
X402488Y316649D03*
X402488Y299936D03*
X402488Y293180D03*
D82*
X402488Y269977D03*
X402488Y261976D03*
D84*
X402488Y238773D03*
D131*
X402488Y230772D03*
X402488Y214059D03*
D130*
X402311Y345186D03*
D129*
X402311Y323939D03*
X402311Y316649D03*
X402311Y299936D03*
X402311Y293180D03*
D92*
X402311Y269977D03*
X402311Y261976D03*
D93*
X402311Y238773D03*
D129*
X402311Y230772D03*
X402311Y214059D03*
D126*
X402133Y345186D03*
D131*
X402133Y323939D03*
X402133Y316649D03*
X402133Y299936D03*
X402133Y293180D03*
D82*
X402133Y269977D03*
D131*
X402133Y262065D03*
D84*
X402133Y238773D03*
D131*
X402133Y230772D03*
X402133Y214059D03*
D130*
X401955Y345364D03*
D129*
X401955Y323939D03*
X401955Y316649D03*
D92*
X401955Y299847D03*
D129*
X401955Y293180D03*
D92*
X401955Y269977D03*
D129*
X401955Y262065D03*
D93*
X401955Y238773D03*
D92*
X401955Y230861D03*
D129*
X401955Y214059D03*
D126*
X401777Y345364D03*
D131*
X401777Y323939D03*
X401777Y316649D03*
D82*
X401777Y299847D03*
D131*
X401777Y293180D03*
D82*
X401777Y269977D03*
D131*
X401777Y262065D03*
D84*
X401777Y238773D03*
D82*
X401777Y230861D03*
D131*
X401777Y214059D03*
D126*
X401599Y345364D03*
X401599Y323850D03*
D131*
X401599Y316649D03*
D82*
X401599Y299847D03*
D131*
X401599Y293180D03*
D82*
X401599Y269977D03*
D131*
X401599Y262065D03*
D84*
X401599Y238773D03*
D82*
X401599Y230861D03*
D131*
X401599Y214059D03*
D130*
X401422Y345364D03*
D129*
X401422Y323761D03*
X401422Y316649D03*
D92*
X401422Y299847D03*
D129*
X401422Y293180D03*
D92*
X401422Y269977D03*
D129*
X401422Y262065D03*
D93*
X401422Y238773D03*
D92*
X401422Y230861D03*
D129*
X401422Y214059D03*
D126*
X401244Y345542D03*
D131*
X401244Y323761D03*
X401244Y316649D03*
D82*
X401244Y299847D03*
D131*
X401244Y293180D03*
D82*
X401244Y269977D03*
D131*
X401244Y262065D03*
D84*
X401244Y238773D03*
D82*
X401244Y230861D03*
D131*
X401244Y214059D03*
D130*
X401066Y345542D03*
D129*
X401066Y323761D03*
X401066Y316649D03*
D92*
X401066Y299847D03*
D129*
X401066Y293180D03*
D92*
X401066Y269977D03*
D129*
X401066Y262065D03*
D93*
X401066Y238773D03*
D92*
X401066Y230861D03*
X401066Y213970D03*
D126*
X400888Y345542D03*
D131*
X400888Y316649D03*
X400888Y299758D03*
X400888Y293180D03*
D82*
X400888Y269977D03*
D131*
X400888Y262065D03*
D84*
X400888Y238773D03*
D82*
X400888Y230861D03*
X400888Y213970D03*
D126*
X400710Y345542D03*
D131*
X400710Y316649D03*
X400710Y299758D03*
X400710Y293180D03*
D82*
X400710Y269977D03*
D131*
X400710Y262065D03*
D84*
X400710Y238773D03*
D131*
X400710Y230950D03*
D82*
X400710Y213970D03*
D129*
X400533Y345631D03*
X400533Y316649D03*
X400533Y299758D03*
X400533Y293180D03*
D92*
X400533Y269977D03*
D129*
X400533Y262065D03*
D93*
X400533Y238773D03*
D92*
X400533Y230861D03*
X400533Y213970D03*
D126*
X400355Y345719D03*
D131*
X400355Y316649D03*
D82*
X400355Y299847D03*
D131*
X400355Y293180D03*
D82*
X400355Y269977D03*
D131*
X400355Y262065D03*
D84*
X400355Y238773D03*
D82*
X400355Y230861D03*
X400355Y213970D03*
D130*
X400177Y345719D03*
D129*
X400177Y316649D03*
D92*
X400177Y299847D03*
D129*
X400177Y293180D03*
D92*
X400177Y269977D03*
D129*
X400177Y262065D03*
D93*
X400177Y238773D03*
D92*
X400177Y230861D03*
D129*
X400177Y214059D03*
D126*
X399999Y345719D03*
D131*
X399999Y316649D03*
D82*
X399999Y299847D03*
D131*
X399999Y293180D03*
D82*
X399999Y269977D03*
D131*
X399999Y262065D03*
D84*
X399999Y238773D03*
D82*
X399999Y230861D03*
D131*
X399999Y214059D03*
D126*
X399821Y345719D03*
D131*
X399821Y316649D03*
D82*
X399821Y299847D03*
D131*
X399821Y293180D03*
D82*
X399821Y269977D03*
D131*
X399821Y262065D03*
D84*
X399821Y238773D03*
D82*
X399821Y230861D03*
D131*
X399821Y214059D03*
D130*
X399644Y345719D03*
D129*
X399644Y316649D03*
D92*
X399644Y299847D03*
D129*
X399644Y293180D03*
D92*
X399644Y269977D03*
X399644Y261976D03*
D93*
X399644Y238773D03*
D92*
X399644Y230861D03*
D129*
X399644Y214059D03*
D131*
X399466Y345808D03*
X399466Y316649D03*
D82*
X399466Y299847D03*
D131*
X399466Y293180D03*
D82*
X399466Y269977D03*
X399466Y261976D03*
D84*
X399466Y238773D03*
D131*
X399466Y230772D03*
X399466Y214059D03*
D130*
X399288Y345897D03*
D129*
X399288Y316649D03*
X399288Y299936D03*
X399288Y293180D03*
D92*
X399288Y269977D03*
X399288Y261976D03*
D93*
X399288Y238773D03*
D129*
X399288Y230772D03*
X399288Y214059D03*
D126*
X399110Y345897D03*
D131*
X399110Y316649D03*
X399110Y299936D03*
D82*
X399110Y293091D03*
X399110Y269977D03*
X399110Y261976D03*
D84*
X399110Y238773D03*
D131*
X399110Y230772D03*
X399110Y214059D03*
D126*
X398932Y345897D03*
D131*
X398932Y316649D03*
X398932Y299936D03*
D82*
X398932Y293091D03*
X398932Y269977D03*
D131*
X398932Y261887D03*
D84*
X398932Y238773D03*
D131*
X398932Y230772D03*
X398932Y214059D03*
D130*
X398755Y345897D03*
D92*
X398755Y316560D03*
D129*
X398755Y299936D03*
D92*
X398755Y293091D03*
X398755Y269977D03*
D129*
X398755Y261887D03*
D93*
X398755Y238773D03*
D129*
X398755Y230772D03*
D92*
X398755Y214147D03*
D126*
X398577Y345897D03*
D82*
X398577Y316560D03*
X398577Y300025D03*
X398577Y293091D03*
X398577Y269977D03*
D131*
X398577Y261887D03*
D84*
X398577Y238773D03*
D82*
X398577Y230683D03*
X398577Y214147D03*
D130*
X398399Y345897D03*
D92*
X398399Y316560D03*
X398399Y300025D03*
D129*
X398399Y293002D03*
D92*
X398399Y269977D03*
X398399Y261798D03*
D93*
X398399Y238773D03*
D92*
X398399Y230683D03*
X398399Y214147D03*
D126*
X398221Y345897D03*
D131*
X398221Y316471D03*
D82*
X398221Y300025D03*
D131*
X398221Y293002D03*
D82*
X398221Y269977D03*
X398221Y261798D03*
D84*
X398221Y238773D03*
D82*
X398221Y230683D03*
D131*
X398221Y214236D03*
D126*
X398043Y345897D03*
D131*
X398043Y316471D03*
X398043Y300114D03*
D82*
X398043Y292913D03*
X398043Y269977D03*
X398043Y261798D03*
D84*
X398043Y238773D03*
D131*
X398043Y230594D03*
X398043Y214236D03*
D130*
X397866Y345897D03*
D92*
X397866Y316382D03*
D129*
X397866Y300114D03*
D92*
X397866Y292913D03*
X397866Y269977D03*
X397866Y261798D03*
D93*
X397866Y238773D03*
D129*
X397866Y230594D03*
D92*
X397866Y214325D03*
D126*
X397688Y345897D03*
D82*
X397688Y316382D03*
X397688Y300203D03*
X397688Y292913D03*
X397688Y269977D03*
D131*
X397688Y261709D03*
D84*
X397688Y238773D03*
D82*
X397688Y230505D03*
X397688Y214325D03*
D130*
X397510Y345897D03*
D92*
X397510Y316382D03*
X397510Y300203D03*
D129*
X397510Y292824D03*
D92*
X397510Y269977D03*
X397510Y261620D03*
D93*
X397510Y238773D03*
D92*
X397510Y230505D03*
D129*
X397510Y214414D03*
D126*
X397332Y345897D03*
D131*
X397332Y316294D03*
X397332Y300292D03*
D82*
X397332Y292735D03*
X397332Y269977D03*
X397332Y261620D03*
D84*
X397332Y238773D03*
D131*
X397332Y230416D03*
X397332Y214414D03*
D126*
X397154Y345897D03*
D82*
X397154Y316205D03*
D131*
X397154Y300292D03*
D82*
X397154Y292735D03*
X397154Y269977D03*
X397154Y261620D03*
D84*
X397154Y238773D03*
D82*
X397154Y230327D03*
X397154Y214503D03*
D130*
X396977Y345897D03*
D92*
X396977Y316205D03*
X396977Y300380D03*
X396977Y292735D03*
X396977Y269977D03*
D129*
X396977Y261531D03*
D93*
X396977Y238773D03*
D92*
X396977Y230327D03*
D129*
X396977Y214592D03*
D125*
X396799Y345986D03*
D131*
X396799Y316116D03*
X396799Y300469D03*
X396799Y292646D03*
D82*
X396799Y269977D03*
X396799Y261442D03*
D84*
X396799Y238773D03*
D131*
X396799Y230238D03*
X396799Y214592D03*
D133*
X396621Y345986D03*
D92*
X396621Y316027D03*
D129*
X396621Y300469D03*
D92*
X396621Y292557D03*
X396621Y269977D03*
X396621Y261442D03*
D93*
X396621Y238773D03*
D129*
X396621Y230238D03*
D92*
X396621Y214681D03*
D125*
X396443Y345986D03*
D82*
X396443Y316027D03*
X396443Y300558D03*
X396443Y292557D03*
X396443Y269977D03*
D131*
X396443Y261353D03*
D84*
X396443Y238773D03*
D82*
X396443Y230149D03*
D131*
X396443Y214770D03*
D126*
X396265Y345897D03*
D131*
X396265Y315938D03*
X396265Y300647D03*
X396265Y292468D03*
D82*
X396265Y277800D03*
X396265Y269977D03*
X396265Y261264D03*
X396265Y246685D03*
D84*
X396265Y238773D03*
D131*
X396265Y230061D03*
X396265Y214770D03*
D130*
X396088Y345897D03*
D92*
X396088Y315849D03*
X396088Y300736D03*
X396088Y292379D03*
D93*
X396088Y277889D03*
D92*
X396088Y269977D03*
X396088Y261264D03*
X396088Y246685D03*
D93*
X396088Y238773D03*
D92*
X396088Y229972D03*
X396088Y214859D03*
D126*
X395910Y345897D03*
D131*
X395910Y315760D03*
X395910Y300825D03*
D82*
X395910Y292379D03*
X395910Y277978D03*
X395910Y269977D03*
X395910Y261087D03*
X395910Y246685D03*
D84*
X395910Y238773D03*
D131*
X395910Y229883D03*
X395910Y214948D03*
D130*
X395732Y345897D03*
D92*
X395732Y315671D03*
D129*
X395732Y300825D03*
D92*
X395732Y292202D03*
X395732Y277978D03*
X395732Y269977D03*
X395732Y261087D03*
X395732Y246863D03*
D93*
X395732Y238773D03*
D129*
X395732Y229883D03*
X395732Y214948D03*
D126*
X395554Y345897D03*
D131*
X395554Y315582D03*
X395554Y301003D03*
D82*
X395554Y292202D03*
X395554Y277978D03*
X395554Y269977D03*
D131*
X395554Y260998D03*
D82*
X395554Y246863D03*
D84*
X395554Y238773D03*
D131*
X395554Y229705D03*
X395554Y215125D03*
D126*
X395376Y345897D03*
D131*
X395376Y315405D03*
X395376Y301003D03*
D82*
X395376Y292024D03*
X395376Y278155D03*
X395376Y269977D03*
X395376Y260909D03*
X395376Y246863D03*
D84*
X395376Y238773D03*
D131*
X395376Y229705D03*
D126*
X395376Y215214D03*
D130*
X395199Y345897D03*
D129*
X395199Y315405D03*
X395199Y301181D03*
D92*
X395199Y292024D03*
X395199Y278155D03*
X395199Y269977D03*
D129*
X395199Y260820D03*
D92*
X395199Y247040D03*
D93*
X395199Y238773D03*
D129*
X395199Y229527D03*
X395199Y215303D03*
D126*
X395021Y345897D03*
D131*
X395021Y315227D03*
D126*
X395021Y301269D03*
D131*
X395021Y291935D03*
X395021Y278244D03*
D82*
X395021Y269977D03*
X395021Y260731D03*
X395021Y247040D03*
D84*
X395021Y238773D03*
D126*
X395021Y229438D03*
X395021Y215392D03*
D130*
X394843Y345897D03*
X394843Y315138D03*
D129*
X394843Y301358D03*
X394843Y291757D03*
D92*
X394843Y278333D03*
X394843Y269977D03*
D129*
X394843Y260642D03*
X394843Y247129D03*
D93*
X394843Y238773D03*
D129*
X394843Y229349D03*
X394843Y215481D03*
D126*
X394665Y345897D03*
D131*
X394665Y315049D03*
D126*
X394665Y301447D03*
D82*
X394665Y291668D03*
D131*
X394665Y278422D03*
D82*
X394665Y269977D03*
D131*
X394665Y260464D03*
D82*
X394665Y247218D03*
D84*
X394665Y238773D03*
D126*
X394665Y229260D03*
D131*
X394665Y215659D03*
D126*
X394487Y345897D03*
X394487Y314960D03*
X394487Y301625D03*
D131*
X394487Y291579D03*
D82*
X394487Y278511D03*
X394487Y269977D03*
D131*
X394487Y260464D03*
X394487Y247307D03*
D84*
X394487Y238773D03*
D126*
X394487Y229083D03*
X394487Y215748D03*
D130*
X394310Y345897D03*
X394310Y314782D03*
X394310Y301803D03*
D129*
X394310Y291402D03*
X394310Y278600D03*
D92*
X394310Y269977D03*
D129*
X394310Y260287D03*
X394310Y247485D03*
D93*
X394310Y238773D03*
D130*
X394310Y228905D03*
X394310Y215925D03*
D131*
X394132Y345808D03*
D126*
X394132Y314604D03*
D132*
X394132Y301892D03*
D126*
X394132Y291313D03*
D131*
X394132Y278778D03*
D82*
X394132Y269977D03*
D131*
X394132Y260109D03*
X394132Y247485D03*
D84*
X394132Y238773D03*
D125*
X394132Y228816D03*
D132*
X394132Y216014D03*
D129*
X393954Y345808D03*
D133*
X393954Y314516D03*
X393954Y302070D03*
D130*
X393954Y291135D03*
X393954Y278867D03*
D92*
X393954Y269977D03*
D130*
X393954Y260020D03*
D129*
X393954Y247663D03*
D93*
X393954Y238773D03*
D133*
X393954Y228638D03*
X393954Y216192D03*
D131*
X393776Y345808D03*
D132*
X393776Y314338D03*
X393776Y302247D03*
D126*
X393776Y290957D03*
D131*
X393776Y278956D03*
D82*
X393776Y269977D03*
D126*
X393776Y259842D03*
D131*
X393776Y247841D03*
D84*
X393776Y238773D03*
D132*
X393776Y228460D03*
D125*
X393776Y216370D03*
D126*
X393598Y345719D03*
D125*
X393598Y314160D03*
X393598Y302425D03*
X393598Y290868D03*
D131*
X393598Y279133D03*
D82*
X393598Y269977D03*
D126*
X393598Y259664D03*
X393598Y247929D03*
D84*
X393598Y238773D03*
D125*
X393598Y228283D03*
D132*
X393598Y216548D03*
D130*
X393421Y345719D03*
D133*
X393421Y313982D03*
D134*
X393421Y302514D03*
D122*
X393421Y290690D03*
D130*
X393421Y279222D03*
D92*
X393421Y269977D03*
D130*
X393421Y259486D03*
X393421Y248107D03*
D93*
X393421Y238773D03*
D128*
X393421Y228194D03*
D133*
X393421Y216726D03*
D126*
X393243Y345719D03*
D118*
X393243Y313804D03*
D124*
X393243Y302692D03*
D125*
X393243Y290513D03*
X393243Y279489D03*
D82*
X393243Y269977D03*
D124*
X393243Y259309D03*
D126*
X393243Y248285D03*
D84*
X393243Y238773D03*
D124*
X393243Y228016D03*
D118*
X393243Y216903D03*
D129*
X393065Y345631D03*
D121*
X393065Y313627D03*
X393065Y302959D03*
D128*
X393065Y290246D03*
D122*
X393065Y279667D03*
D92*
X393065Y269977D03*
D128*
X393065Y259131D03*
D133*
X393065Y248374D03*
D93*
X393065Y238773D03*
D121*
X393065Y227749D03*
X393065Y217081D03*
D131*
X392887Y345631D03*
D77*
X392887Y313360D03*
X392887Y303225D03*
D120*
X392887Y290068D03*
D125*
X392887Y279845D03*
D82*
X392887Y269977D03*
D118*
X392887Y258864D03*
D124*
X392887Y248641D03*
D84*
X392887Y238773D03*
D77*
X392887Y227482D03*
X392887Y217348D03*
D131*
X392709Y345631D03*
D76*
X392709Y313093D03*
X392709Y303492D03*
D118*
X392709Y289801D03*
X392709Y280022D03*
D82*
X392709Y269977D03*
D77*
X392709Y258597D03*
D118*
X392709Y248907D03*
D84*
X392709Y238773D03*
D77*
X392709Y227305D03*
D76*
X392709Y217615D03*
D130*
X392532Y345542D03*
D117*
X392532Y312738D03*
D127*
X392532Y303759D03*
D117*
X392532Y289446D03*
D137*
X392532Y280289D03*
D92*
X392532Y269977D03*
D117*
X392532Y258331D03*
D137*
X392532Y249174D03*
D93*
X392532Y238773D03*
D127*
X392532Y226949D03*
D116*
X392532Y217881D03*
D131*
X392354Y345453D03*
D138*
X392354Y312382D03*
X392354Y304203D03*
X392354Y289090D03*
D76*
X392354Y280734D03*
D82*
X392354Y269977D03*
D138*
X392354Y257975D03*
D119*
X392354Y249530D03*
D84*
X392354Y238773D03*
D139*
X392354Y226505D03*
D138*
X392354Y218326D03*
D129*
X392176Y345453D03*
D140*
X392176Y311849D03*
X392176Y304737D03*
D141*
X392176Y288557D03*
D142*
X392176Y281267D03*
D92*
X392176Y269977D03*
D74*
X392176Y257353D03*
D142*
X392176Y249974D03*
D93*
X392176Y238773D03*
D140*
X392176Y225971D03*
X392176Y218859D03*
D131*
X391998Y345453D03*
D143*
X391998Y308293D03*
D144*
X391998Y284912D03*
D82*
X391998Y269977D03*
D144*
X391998Y253797D03*
D84*
X391998Y238773D03*
D143*
X391998Y222415D03*
D126*
X391820Y345364D03*
D104*
X391820Y308293D03*
D145*
X391820Y284912D03*
D82*
X391820Y269977D03*
D145*
X391820Y253797D03*
D84*
X391820Y238773D03*
D104*
X391820Y222415D03*
D129*
X391643Y345275D03*
D146*
X391643Y308204D03*
X391643Y284912D03*
D92*
X391643Y269977D03*
D146*
X391643Y253797D03*
D93*
X391643Y238773D03*
D147*
X391643Y222415D03*
D131*
X391465Y345275D03*
D148*
X391465Y308293D03*
X391465Y285001D03*
D82*
X391465Y269977D03*
D148*
X391465Y253708D03*
D84*
X391465Y238773D03*
D148*
X391465Y222415D03*
D129*
X391287Y345275D03*
D149*
X391287Y308293D03*
X391287Y285001D03*
D92*
X391287Y269977D03*
D149*
X391287Y253708D03*
D93*
X391287Y238773D03*
D149*
X391287Y222415D03*
D131*
X391109Y345097D03*
D150*
X391109Y308293D03*
D151*
X391109Y285001D03*
D82*
X391109Y269977D03*
D150*
X391109Y253708D03*
D84*
X391109Y238773D03*
D150*
X391109Y222415D03*
D131*
X390931Y345097D03*
D87*
X390931Y308204D03*
D152*
X390931Y284912D03*
D82*
X390931Y269977D03*
D152*
X390931Y253797D03*
D84*
X390931Y238773D03*
D88*
X390931Y222415D03*
D129*
X390754Y345097D03*
D153*
X390754Y308293D03*
D154*
X390754Y285001D03*
D92*
X390754Y269977D03*
D155*
X390754Y253797D03*
D93*
X390754Y238773D03*
D153*
X390754Y222415D03*
D131*
X390576Y344919D03*
D110*
X390576Y308293D03*
X390576Y285001D03*
X390576Y253886D03*
D84*
X390576Y238773D03*
D110*
X390576Y222415D03*
D129*
X390398Y344919D03*
D137*
X390398Y308204D03*
X390398Y285090D03*
D121*
X390398Y253886D03*
D93*
X390398Y238773D03*
D121*
X390398Y222415D03*
D126*
X390220Y344830D03*
D131*
X390220Y324117D03*
D84*
X390220Y238773D03*
D131*
X390042Y344742D03*
X390042Y324117D03*
D84*
X390042Y238773D03*
D129*
X389865Y344742D03*
D130*
X389865Y324206D03*
D93*
X389865Y238773D03*
D131*
X389687Y344564D03*
D126*
X389687Y324206D03*
D84*
X389687Y238773D03*
D129*
X389509Y344564D03*
X389509Y324295D03*
D93*
X389509Y238773D03*
D126*
X389331Y344475D03*
D131*
X389331Y324295D03*
D84*
X389331Y238773D03*
D131*
X389153Y344386D03*
D126*
X389153Y324383D03*
D84*
X389153Y238773D03*
D130*
X388976Y344297D03*
D129*
X388976Y324472D03*
D93*
X388976Y238773D03*
D131*
X388798Y344208D03*
D126*
X388798Y324561D03*
D156*
X388798Y271399D03*
D84*
X388798Y238773D03*
D130*
X388620Y344119D03*
X388620Y324561D03*
D157*
X388620Y271221D03*
D93*
X388620Y238773D03*
D126*
X388442Y343941D03*
D131*
X388442Y324650D03*
D158*
X388442Y270955D03*
D84*
X388442Y238773D03*
D131*
X388264Y343853D03*
D126*
X388264Y324739D03*
D159*
X388264Y270688D03*
D84*
X388264Y238773D03*
D130*
X388087Y343764D03*
X388087Y324917D03*
D93*
X388087Y270421D03*
X388087Y238773D03*
D126*
X387909Y343586D03*
X387909Y324917D03*
D73*
X387909Y271221D03*
D159*
X387909Y269621D03*
D84*
X387909Y238773D03*
D130*
X387731Y343586D03*
X387731Y325095D03*
D157*
X387731Y271221D03*
D117*
X387731Y268110D03*
D93*
X387731Y238773D03*
D126*
X387553Y343408D03*
X387553Y325095D03*
D73*
X387553Y271221D03*
D139*
X387553Y267399D03*
D84*
X387553Y238773D03*
D126*
X387375Y343230D03*
X387375Y325272D03*
D73*
X387375Y271221D03*
D119*
X387375Y266954D03*
D84*
X387375Y238773D03*
D122*
X387198Y343141D03*
X387198Y325361D03*
D157*
X387198Y271221D03*
D160*
X387198Y265887D03*
D93*
X387198Y238773D03*
D125*
X387020Y342964D03*
X387020Y325539D03*
D73*
X387020Y271221D03*
D161*
X387020Y264998D03*
D84*
X387020Y238773D03*
D122*
X386842Y342786D03*
D133*
X386842Y325539D03*
D157*
X386842Y271221D03*
D162*
X386842Y264820D03*
D93*
X386842Y238773D03*
D124*
X386664Y342697D03*
D125*
X386664Y325717D03*
D73*
X386664Y271221D03*
D163*
X386664Y264554D03*
D84*
X386664Y238773D03*
D120*
X386486Y342519D03*
D132*
X386486Y325895D03*
D73*
X386486Y271221D03*
D163*
X386486Y264376D03*
D84*
X386486Y238773D03*
D128*
X386309Y342341D03*
X386309Y325984D03*
D157*
X386309Y271221D03*
D164*
X386309Y264198D03*
D93*
X386309Y238773D03*
D124*
X386131Y342163D03*
X386131Y326161D03*
D73*
X386131Y271043D03*
D163*
X386131Y264020D03*
D84*
X386131Y238773D03*
D128*
X385953Y341986D03*
D121*
X385953Y326428D03*
D157*
X385953Y271043D03*
D164*
X385953Y263843D03*
D93*
X385953Y238773D03*
D124*
X385775Y341808D03*
D118*
X385775Y326606D03*
D73*
X385775Y271043D03*
D163*
X385775Y263665D03*
D84*
X385775Y238773D03*
D118*
X385597Y341541D03*
X385597Y326784D03*
D73*
X385597Y271043D03*
D163*
X385597Y263487D03*
D84*
X385597Y238773D03*
D121*
X385420Y341363D03*
D137*
X385420Y327050D03*
D157*
X385420Y270866D03*
D164*
X385420Y263309D03*
D93*
X385420Y238773D03*
D77*
X385242Y341097D03*
X385242Y327228D03*
D73*
X385242Y270866D03*
D163*
X385242Y263131D03*
D84*
X385242Y238773D03*
D117*
X385064Y340830D03*
X385064Y327495D03*
D157*
X385064Y270688D03*
X385064Y263042D03*
D93*
X385064Y238773D03*
D123*
X384886Y340563D03*
D119*
X384886Y327762D03*
D73*
X384886Y270688D03*
X384886Y262865D03*
D84*
X384886Y238773D03*
D139*
X384708Y340297D03*
D138*
X384708Y328028D03*
D73*
X384708Y270510D03*
D163*
X384708Y262776D03*
D84*
X384708Y238773D03*
D165*
X384531Y339852D03*
D142*
X384531Y328384D03*
D157*
X384531Y270510D03*
X384531Y262687D03*
D93*
X384531Y238773D03*
D112*
X384353Y339496D03*
D166*
X384353Y328740D03*
D73*
X384353Y270332D03*
X384353Y262509D03*
D84*
X384353Y238773D03*
D80*
X384175Y338963D03*
X384175Y329362D03*
D164*
X384175Y270243D03*
X384175Y262420D03*
D93*
X384175Y238773D03*
D167*
X383997Y334074D03*
D163*
X383997Y270066D03*
D73*
X383997Y262331D03*
D84*
X383997Y238773D03*
D102*
X383819Y334074D03*
D73*
X383819Y269977D03*
X383819Y262153D03*
D84*
X383819Y238773D03*
D168*
X383642Y334074D03*
D157*
X383642Y269799D03*
X383642Y262153D03*
D93*
X383642Y238773D03*
D169*
X383464Y334074D03*
D163*
X383464Y269710D03*
D73*
X383464Y261976D03*
D84*
X383464Y238773D03*
D170*
X383286Y334074D03*
D164*
X383286Y269532D03*
D157*
X383286Y261976D03*
D93*
X383286Y238773D03*
D103*
X383108Y334074D03*
D163*
X383108Y269354D03*
D73*
X383108Y261798D03*
D84*
X383108Y238773D03*
D85*
X382930Y334074D03*
D161*
X382930Y269088D03*
D73*
X382930Y261798D03*
D84*
X382930Y238773D03*
D171*
X382753Y334162D03*
D164*
X382753Y268821D03*
X382753Y261709D03*
D93*
X382753Y238773D03*
D150*
X382575Y334074D03*
D163*
X382575Y268643D03*
D73*
X382575Y261620D03*
D172*
X382397Y334074D03*
D164*
X382397Y268465D03*
D157*
X382397Y261620D03*
D173*
X382219Y334162D03*
D161*
X382219Y268199D03*
D73*
X382219Y261442D03*
D126*
X381330Y334162D03*
D161*
X382041Y268021D03*
D73*
X382041Y261442D03*
D162*
X381864Y267665D03*
D157*
X381864Y261264D03*
D174*
X381686Y267310D03*
D73*
X381686Y261264D03*
D137*
X381508Y265887D03*
D164*
X381508Y261176D03*
D175*
X381330Y264909D03*
D73*
X381330Y261087D03*
D176*
X381152Y263754D03*
D115*
X380975Y262598D03*
D84*
X380797Y261709D03*
D177*
X67208Y309347D03*
D178*
X67158Y309245D03*
D179*
X67107Y309169D03*
D180*
X67056Y309118D03*
D181*
X67005Y308991D03*
D182*
X66954Y308889D03*
D183*
X66954Y307340D03*
D184*
X66904Y308610D03*
D185*
X66853Y308508D03*
D186*
X66802Y308559D03*
D187*
X66751Y308712D03*
D186*
X66700Y308864D03*
D188*
X66650Y308991D03*
D189*
X66599Y309143D03*
D190*
X66548Y309270D03*
D191*
X66497Y309423D03*
D192*
X66446Y309550D03*
D193*
X66396Y309702D03*
D194*
X66345Y309829D03*
D195*
X66294Y309982D03*
D194*
X66243Y310134D03*
D196*
X66192Y310261D03*
X66142Y310413D03*
D197*
X66091Y310540D03*
D198*
X66040Y310667D03*
D199*
X65989Y310820D03*
D200*
X65938Y310972D03*
D201*
X65888Y311099D03*
D202*
X65837Y311252D03*
D203*
X65786Y311379D03*
D204*
X65735Y311531D03*
D205*
X65684Y311658D03*
X65634Y311810D03*
D206*
X65583Y311963D03*
D205*
X65532Y312115D03*
D207*
X65481Y312242D03*
D208*
X65430Y312395D03*
X65380Y312547D03*
D209*
X65329Y312674D03*
D210*
X65278Y312826D03*
D209*
X65227Y312979D03*
D184*
X65176Y313131D03*
X65126Y313284D03*
D211*
X65075Y327685D03*
D212*
X65075Y313969D03*
D213*
X65024Y327685D03*
D214*
X65024Y314274D03*
D215*
X64973Y327685D03*
D212*
X64973Y314477D03*
D216*
X64922Y327660D03*
D217*
X64922Y314782D03*
D218*
X64872Y327660D03*
D214*
X64872Y314884D03*
D219*
X64872Y307086D03*
D220*
X64872Y298094D03*
D219*
X64872Y294843D03*
D221*
X64872Y289331D03*
D222*
X64872Y283642D03*
D191*
X64821Y327660D03*
D223*
X64821Y314935D03*
D224*
X64821Y307086D03*
D225*
X64821Y298120D03*
D224*
X64821Y294843D03*
D226*
X64821Y289357D03*
D227*
X64821Y283667D03*
D217*
X64770Y327685D03*
D228*
X64770Y314909D03*
D219*
X64770Y307035D03*
D229*
X64770Y298145D03*
D230*
X64770Y294818D03*
D231*
X64770Y289331D03*
D229*
X64770Y283667D03*
D232*
X64719Y327660D03*
D233*
X64719Y314909D03*
D224*
X64719Y307035D03*
D234*
X64719Y298145D03*
D235*
X64719Y294818D03*
D236*
X64719Y289357D03*
D227*
X64719Y283667D03*
D237*
X64668Y327660D03*
D238*
X64668Y314884D03*
D219*
X64668Y307035D03*
D220*
X64668Y298196D03*
D230*
X64668Y294818D03*
D239*
X64668Y289331D03*
D229*
X64668Y283667D03*
D228*
X64618Y327660D03*
D240*
X64618Y314858D03*
D219*
X64618Y306984D03*
D241*
X64618Y298196D03*
D230*
X64618Y294818D03*
D242*
X64618Y289357D03*
D229*
X64618Y283667D03*
D243*
X64567Y327685D03*
D244*
X64567Y314858D03*
D224*
X64567Y306984D03*
D225*
X64567Y298221D03*
D224*
X64567Y294792D03*
D245*
X64567Y289331D03*
D227*
X64567Y283667D03*
D246*
X64516Y327660D03*
D247*
X64516Y314858D03*
D219*
X64516Y306934D03*
D241*
X64516Y298247D03*
D219*
X64516Y294792D03*
D248*
X64516Y289382D03*
D229*
X64516Y283667D03*
D249*
X64465Y327660D03*
D250*
X64465Y314858D03*
D224*
X64465Y306934D03*
D234*
X64465Y298247D03*
D235*
X64465Y294767D03*
D179*
X64465Y289357D03*
D225*
X64465Y283693D03*
D240*
X64414Y327660D03*
D251*
X64414Y314833D03*
D219*
X64414Y306883D03*
D241*
X64414Y298298D03*
D230*
X64414Y294767D03*
D252*
X64414Y289331D03*
D222*
X64414Y283693D03*
D253*
X64364Y327685D03*
D254*
X64364Y314833D03*
D219*
X64364Y306883D03*
D241*
X64364Y298298D03*
D230*
X64364Y294767D03*
D255*
X64364Y289357D03*
D222*
X64364Y283693D03*
D256*
X64313Y327685D03*
D257*
X64313Y314833D03*
D235*
X64313Y306857D03*
D234*
X64313Y298348D03*
D235*
X64313Y294767D03*
D258*
X64313Y289357D03*
D225*
X64313Y283693D03*
D259*
X64262Y327736D03*
D260*
X64262Y324536D03*
D261*
X64262Y314833D03*
D219*
X64262Y306832D03*
D241*
X64262Y298348D03*
D230*
X64262Y294767D03*
D262*
X64262Y289357D03*
D220*
X64262Y283718D03*
D263*
X64211Y327685D03*
D264*
X64211Y314833D03*
D224*
X64211Y306832D03*
D265*
X64211Y298374D03*
D235*
X64211Y294767D03*
D266*
X64211Y289357D03*
D267*
X64211Y283718D03*
D268*
X64160Y327762D03*
D269*
X64160Y324383D03*
D270*
X64160Y314858D03*
D230*
X64160Y306807D03*
D241*
X64160Y298399D03*
D230*
X64160Y294767D03*
D271*
X64160Y289382D03*
D220*
X64160Y283718D03*
D272*
X64110Y327685D03*
D205*
X64110Y316941D03*
D273*
X64110Y312598D03*
D219*
X64110Y306781D03*
D182*
X64110Y298425D03*
D274*
X64110Y294742D03*
D275*
X64110Y289357D03*
D222*
X64110Y283743D03*
D276*
X64059Y327685D03*
D277*
X64059Y317119D03*
D278*
X64059Y312445D03*
D235*
X64059Y306756D03*
D234*
X64059Y298450D03*
D279*
X64059Y294742D03*
D280*
X64059Y289382D03*
D225*
X64059Y283743D03*
D281*
X64008Y327711D03*
D216*
X64008Y317246D03*
D282*
X64008Y312318D03*
D219*
X64008Y306730D03*
D241*
X64008Y298450D03*
D230*
X64008Y294716D03*
D180*
X64008Y289357D03*
D222*
X64008Y283743D03*
D283*
X63957Y327711D03*
D284*
X63957Y317348D03*
D285*
X63957Y312191D03*
D235*
X63957Y306705D03*
D265*
X63957Y298475D03*
D235*
X63957Y294716D03*
D286*
X63957Y289382D03*
D225*
X63957Y283743D03*
D287*
X63906Y327711D03*
D288*
X63906Y317449D03*
D289*
X63906Y312115D03*
D219*
X63906Y306680D03*
D241*
X63906Y298501D03*
D230*
X63906Y294716D03*
D290*
X63906Y289357D03*
D222*
X63906Y283743D03*
D291*
X63856Y327685D03*
D288*
X63856Y317551D03*
D292*
X63856Y312014D03*
D230*
X63856Y306654D03*
D182*
X63856Y298526D03*
D230*
X63856Y294716D03*
D290*
X63856Y289357D03*
D222*
X63856Y283743D03*
D206*
X63805Y329692D03*
D293*
X63805Y325425D03*
D294*
X63805Y317627D03*
D295*
X63805Y311912D03*
D235*
X63805Y306654D03*
D234*
X63805Y298552D03*
D235*
X63805Y294716D03*
D279*
X63805Y289357D03*
D225*
X63805Y283743D03*
D273*
X63754Y329870D03*
D289*
X63754Y325272D03*
D296*
X63754Y317703D03*
D297*
X63754Y311836D03*
D219*
X63754Y306629D03*
D182*
X63754Y298577D03*
D230*
X63754Y294716D03*
X63754Y289382D03*
D241*
X63754Y283769D03*
D298*
X63703Y329971D03*
D295*
X63703Y325171D03*
D285*
X63703Y317779D03*
D227*
X63703Y311760D03*
D235*
X63703Y306603D03*
D234*
X63703Y298602D03*
D279*
X63703Y294691D03*
D224*
X63703Y289357D03*
D225*
X63703Y283794D03*
D299*
X63652Y330073D03*
D229*
X63652Y325069D03*
D289*
X63652Y317856D03*
D220*
X63652Y311709D03*
D230*
X63652Y306603D03*
D182*
X63652Y298628D03*
D274*
X63652Y294691D03*
D300*
X63652Y289382D03*
D222*
X63652Y283794D03*
D301*
X63602Y330175D03*
D241*
X63602Y324968D03*
D289*
X63602Y317906D03*
D302*
X63602Y312877D03*
D182*
X63602Y311582D03*
D230*
X63602Y306553D03*
D182*
X63602Y298628D03*
D274*
X63602Y294691D03*
D303*
X63602Y289357D03*
D222*
X63602Y283794D03*
D304*
X63551Y330251D03*
D305*
X63551Y324917D03*
D306*
X63551Y317957D03*
D225*
X63551Y311582D03*
D235*
X63551Y306553D03*
D265*
X63551Y298679D03*
D279*
X63551Y294691D03*
D307*
X63551Y289357D03*
D225*
X63551Y283794D03*
D308*
X63500Y330327D03*
D309*
X63500Y324866D03*
D310*
X63500Y318033D03*
D241*
X63500Y311506D03*
D230*
X63500Y306502D03*
D182*
X63500Y298679D03*
D230*
X63500Y294665D03*
D311*
X63500Y289357D03*
D222*
X63500Y283794D03*
D306*
X63449Y330403D03*
D312*
X63449Y324790D03*
D215*
X63449Y318084D03*
D234*
X63449Y311455D03*
D235*
X63449Y306502D03*
D265*
X63449Y298729D03*
D235*
X63449Y294665D03*
D313*
X63449Y289357D03*
D225*
X63449Y283794D03*
D310*
X63398Y330429D03*
D314*
X63398Y324714D03*
D310*
X63398Y318135D03*
D222*
X63398Y311379D03*
D274*
X63398Y306476D03*
D182*
X63398Y298729D03*
D230*
X63398Y294665D03*
D315*
X63398Y289382D03*
D222*
X63398Y283794D03*
D292*
X63348Y330505D03*
D314*
X63348Y324663D03*
D310*
X63348Y318186D03*
D222*
X63348Y311328D03*
D230*
X63348Y306451D03*
D182*
X63348Y298729D03*
D274*
X63348Y294640D03*
D316*
X63348Y289357D03*
D241*
X63348Y283820D03*
D295*
X63297Y330556D03*
D317*
X63297Y324637D03*
D215*
X63297Y318237D03*
D225*
X63297Y311277D03*
D279*
X63297Y306426D03*
D265*
X63297Y298780D03*
D279*
X63297Y294640D03*
D318*
X63297Y289382D03*
D234*
X63297Y283820D03*
D292*
X63246Y330606D03*
D319*
X63246Y324587D03*
D310*
X63246Y318287D03*
D222*
X63246Y311226D03*
D230*
X63246Y306400D03*
D182*
X63246Y298780D03*
D274*
X63246Y294640D03*
D320*
X63246Y289357D03*
D241*
X63246Y283820D03*
D321*
X63195Y330632D03*
D317*
X63195Y324536D03*
D321*
X63195Y318338D03*
D234*
X63195Y311201D03*
D235*
X63195Y306400D03*
D265*
X63195Y298831D03*
D279*
X63195Y294640D03*
D317*
X63195Y289382D03*
D234*
X63195Y283820D03*
D220*
X63144Y330708D03*
D322*
X63144Y324485D03*
D292*
X63144Y318364D03*
D241*
X63144Y311150D03*
D274*
X63144Y306375D03*
D182*
X63144Y298831D03*
D274*
X63144Y294640D03*
D314*
X63144Y289357D03*
D241*
X63144Y283820D03*
D220*
X63094Y330759D03*
D322*
X63094Y324434D03*
D292*
X63094Y318414D03*
D241*
X63094Y311099D03*
D230*
X63094Y306349D03*
D182*
X63094Y298831D03*
D274*
X63094Y294640D03*
D323*
X63094Y289382D03*
D222*
X63094Y283845D03*
D225*
X63043Y330784D03*
D324*
X63043Y324383D03*
D295*
X63043Y318465D03*
D234*
X63043Y311048D03*
D279*
X63043Y306324D03*
D265*
X63043Y298882D03*
D279*
X63043Y294640D03*
D305*
X63043Y289357D03*
D225*
X63043Y283845D03*
D229*
X62992Y330810D03*
D316*
X62992Y324358D03*
D297*
X62992Y318491D03*
D241*
X62992Y310998D03*
D274*
X62992Y306324D03*
D182*
X62992Y298882D03*
D325*
X62992Y294615D03*
D182*
X62992Y289382D03*
D222*
X62992Y283845D03*
D267*
X62941Y330860D03*
D318*
X62941Y324333D03*
D326*
X62941Y318541D03*
D265*
X62941Y310972D03*
D279*
X62941Y306273D03*
D234*
X62941Y298907D03*
D279*
X62941Y294589D03*
D234*
X62941Y289357D03*
X62941Y283870D03*
D222*
X62890Y330886D03*
D327*
X62890Y324307D03*
D297*
X62890Y318592D03*
D309*
X62890Y310947D03*
D274*
X62890Y306273D03*
D182*
X62890Y298933D03*
D274*
X62890Y294589D03*
D222*
X62890Y289382D03*
D241*
X62890Y283870D03*
D222*
X62840Y330937D03*
D316*
X62840Y324256D03*
D297*
X62840Y318643D03*
D182*
X62840Y310871D03*
D230*
X62840Y306248D03*
D241*
X62840Y298958D03*
D274*
X62840Y294589D03*
D220*
X62840Y289357D03*
D241*
X62840Y283870D03*
D234*
X62789Y330962D03*
D328*
X62789Y324206D03*
D267*
X62789Y318668D03*
D265*
X62789Y310871D03*
D279*
X62789Y306222D03*
D265*
X62789Y298983D03*
D279*
X62789Y294589D03*
D267*
X62789Y289357D03*
D234*
X62789Y283870D03*
D183*
X62738Y332232D03*
D182*
X62738Y330937D03*
D327*
X62738Y324206D03*
D297*
X62738Y318694D03*
D182*
X62738Y310820D03*
D274*
X62738Y306222D03*
D182*
X62738Y298983D03*
D274*
X62738Y294589D03*
D292*
X62738Y289357D03*
D241*
X62738Y283870D03*
D234*
X62687Y331013D03*
D329*
X62687Y324155D03*
D227*
X62687Y318719D03*
D265*
X62687Y310769D03*
D279*
X62687Y306172D03*
D265*
X62687Y299034D03*
D279*
X62687Y294589D03*
D295*
X62687Y289357D03*
D234*
X62687Y283870D03*
D183*
X62636Y332283D03*
D309*
X62636Y331013D03*
D315*
X62636Y324129D03*
D220*
X62636Y318770D03*
D309*
X62636Y310744D03*
D274*
X62636Y306172D03*
D182*
X62636Y299034D03*
D325*
X62636Y294564D03*
D310*
X62636Y289331D03*
D241*
X62636Y283870D03*
X62586Y331064D03*
D315*
X62586Y324129D03*
D220*
X62586Y318821D03*
D309*
X62586Y310693D03*
D274*
X62586Y306121D03*
D241*
X62586Y299060D03*
D325*
X62586Y294564D03*
D289*
X62586Y289357D03*
D241*
X62586Y283870D03*
D265*
X62535Y331089D03*
D330*
X62535Y324079D03*
D267*
X62535Y318821D03*
D265*
X62535Y310667D03*
D279*
X62535Y306121D03*
D265*
X62535Y299085D03*
D331*
X62535Y294564D03*
D306*
X62535Y289357D03*
D234*
X62535Y283921D03*
D241*
X62484Y331114D03*
D315*
X62484Y324079D03*
D229*
X62484Y318872D03*
D309*
X62484Y310642D03*
D274*
X62484Y306070D03*
D241*
X62484Y299110D03*
D325*
X62484Y294564D03*
D308*
X62484Y289331D03*
D241*
X62484Y283921D03*
D265*
X62433Y331140D03*
D330*
X62433Y324028D03*
D225*
X62433Y318897D03*
D265*
X62433Y310617D03*
D279*
X62433Y306070D03*
D265*
X62433Y299136D03*
D331*
X62433Y294564D03*
D304*
X62433Y289357D03*
D234*
X62433Y283921D03*
D241*
X62382Y331165D03*
D315*
X62382Y324028D03*
D220*
X62382Y318922D03*
D182*
X62382Y310566D03*
D325*
X62382Y306045D03*
D182*
X62382Y299136D03*
D274*
X62382Y294538D03*
D301*
X62382Y289331D03*
D241*
X62382Y283921D03*
D182*
X62332Y331191D03*
D311*
X62332Y324002D03*
D222*
X62332Y318948D03*
D332*
X62332Y310540D03*
D274*
X62332Y306019D03*
D182*
X62332Y299187D03*
D274*
X62332Y294538D03*
D288*
X62332Y289357D03*
D241*
X62332Y283921D03*
D265*
X62281Y331191D03*
D330*
X62281Y323977D03*
D227*
X62281Y318973D03*
D234*
X62281Y310540D03*
D279*
X62281Y306019D03*
D265*
X62281Y299187D03*
D331*
X62281Y294513D03*
D278*
X62281Y289331D03*
D234*
X62281Y283921D03*
D241*
X62230Y331216D03*
D315*
X62230Y323977D03*
D222*
X62230Y318999D03*
D309*
X62230Y310490D03*
D325*
X62230Y305994D03*
D182*
X62230Y299237D03*
D325*
X62230Y294513D03*
D333*
X62230Y289357D03*
D241*
X62230Y283921D03*
D265*
X62179Y331241D03*
D313*
X62179Y323952D03*
D267*
X62179Y319024D03*
D234*
X62179Y310490D03*
D279*
X62179Y305968D03*
D265*
X62179Y299237D03*
D331*
X62179Y294513D03*
D298*
X62179Y289331D03*
D265*
X62179Y283947D03*
D182*
X62128Y331241D03*
D315*
X62128Y323926D03*
D222*
X62128Y319049D03*
D241*
X62128Y310439D03*
D325*
X62128Y305943D03*
D182*
X62128Y299237D03*
D325*
X62128Y294513D03*
D216*
X62128Y289357D03*
D182*
X62128Y283947D03*
X62078Y331292D03*
D311*
X62078Y323901D03*
D220*
X62078Y319075D03*
D241*
X62078Y310439D03*
D274*
X62078Y305918D03*
D182*
X62078Y299288D03*
D325*
X62078Y294513D03*
D273*
X62078Y289331D03*
D182*
X62078Y283947D03*
D265*
X62027Y331292D03*
D330*
X62027Y323875D03*
D225*
X62027Y319100D03*
D234*
X62027Y310388D03*
D331*
X62027Y305892D03*
D305*
X62027Y299314D03*
D331*
X62027Y294513D03*
D334*
X62027Y289357D03*
D265*
X62027Y283947D03*
D182*
X61976Y331292D03*
D315*
X61976Y323875D03*
D229*
X61976Y319126D03*
D241*
X61976Y310388D03*
D325*
X61976Y305892D03*
D182*
X61976Y299339D03*
D325*
X61976Y294513D03*
D335*
X61976Y289331D03*
D241*
X61976Y283972D03*
D265*
X61925Y331292D03*
D313*
X61925Y323850D03*
D225*
X61925Y319151D03*
D234*
X61925Y310337D03*
D336*
X61925Y305841D03*
D312*
X61925Y299390D03*
D337*
X61925Y298145D03*
D338*
X61925Y294488D03*
D209*
X61925Y289357D03*
D234*
X61925Y283972D03*
D182*
X61874Y331343D03*
D311*
X61874Y323850D03*
D220*
X61874Y319176D03*
D241*
X61874Y310337D03*
D339*
X61874Y305841D03*
D182*
X61874Y299390D03*
D340*
X61874Y294488D03*
D208*
X61874Y289331D03*
D241*
X61874Y283972D03*
D182*
X61824Y331343D03*
D315*
X61824Y323825D03*
D241*
X61824Y319176D03*
X61824Y310286D03*
D325*
X61824Y305791D03*
D182*
X61824Y299390D03*
D325*
X61824Y294462D03*
D205*
X61824Y289357D03*
D241*
X61824Y283972D03*
D265*
X61773Y331343D03*
D313*
X61773Y323799D03*
D225*
X61773Y319202D03*
D234*
X61773Y310286D03*
D331*
X61773Y305791D03*
D305*
X61773Y299415D03*
D331*
X61773Y294462D03*
D206*
X61773Y289357D03*
D265*
X61773Y283997D03*
D182*
X61722Y331343D03*
D311*
X61722Y323799D03*
D222*
X61722Y319202D03*
X61722Y310261D03*
D340*
X61722Y305765D03*
D182*
X61722Y299441D03*
D325*
X61722Y294462D03*
D218*
X61722Y289357D03*
D182*
X61722Y283997D03*
D265*
X61671Y331343D03*
D313*
X61671Y323799D03*
D225*
X61671Y319253D03*
D234*
X61671Y310236D03*
D331*
X61671Y305740D03*
D305*
X61671Y299466D03*
D331*
X61671Y294462D03*
D341*
X61671Y289357D03*
D265*
X61671Y283997D03*
D182*
X61620Y331394D03*
D311*
X61620Y323799D03*
D222*
X61620Y319253D03*
X61620Y310210D03*
D325*
X61620Y305740D03*
D182*
X61620Y299491D03*
D325*
X61620Y294462D03*
D342*
X61620Y289357D03*
D182*
X61620Y283997D03*
X61570Y331394D03*
D311*
X61570Y323748D03*
D241*
X61570Y319278D03*
X61570Y310185D03*
D290*
X61570Y305714D03*
D309*
X61570Y299517D03*
D325*
X61570Y294462D03*
D342*
X61570Y289357D03*
D182*
X61570Y283997D03*
D265*
X61519Y331394D03*
D313*
X61519Y323748D03*
D225*
X61519Y319303D03*
X61519Y310159D03*
D343*
X61519Y302412D03*
D344*
X61519Y294437D03*
D194*
X61519Y289357D03*
D265*
X61519Y283997D03*
D182*
X61468Y331394D03*
D311*
X61468Y323748D03*
D222*
X61468Y319303D03*
X61468Y310159D03*
D345*
X61468Y302387D03*
D290*
X61468Y294437D03*
D195*
X61468Y289357D03*
D182*
X61468Y283997D03*
D265*
X61417Y331394D03*
D313*
X61417Y323748D03*
D234*
X61417Y319329D03*
X61417Y310134D03*
D346*
X61417Y302412D03*
D344*
X61417Y294437D03*
D347*
X61417Y289331D03*
D265*
X61417Y284048D03*
D182*
X61366Y331394D03*
D311*
X61366Y323748D03*
D222*
X61366Y319354D03*
X61366Y310109D03*
D348*
X61366Y302412D03*
D290*
X61366Y294437D03*
D349*
X61366Y289357D03*
D182*
X61366Y284048D03*
X61316Y331394D03*
D350*
X61316Y323723D03*
D222*
X61316Y319354D03*
X61316Y310109D03*
D351*
X61316Y302412D03*
D290*
X61316Y294437D03*
D319*
X61316Y290195D03*
D274*
X61316Y288188D03*
D182*
X61316Y284048D03*
D234*
X61265Y331419D03*
D181*
X61265Y323723D03*
D234*
X61265Y319380D03*
D225*
X61265Y310058D03*
D352*
X61265Y302412D03*
D336*
X61265Y294411D03*
D353*
X61265Y290220D03*
D331*
X61265Y288163D03*
D265*
X61265Y284048D03*
D182*
X61214Y331445D03*
D350*
X61214Y323723D03*
D241*
X61214Y319380D03*
D222*
X61214Y310058D03*
D354*
X61214Y302438D03*
D339*
X61214Y294411D03*
D314*
X61214Y290220D03*
D340*
X61214Y288138D03*
D182*
X61214Y284048D03*
D265*
X61163Y331445D03*
D313*
X61163Y323698D03*
D225*
X61163Y319405D03*
X61163Y310058D03*
D355*
X61163Y302412D03*
D344*
X61163Y294386D03*
D353*
X61163Y290271D03*
D331*
X61163Y288112D03*
D265*
X61163Y284048D03*
D182*
X61112Y331445D03*
D311*
X61112Y323698D03*
D222*
X61112Y319405D03*
D220*
X61112Y310032D03*
D356*
X61112Y302438D03*
D290*
X61112Y294386D03*
D314*
X61112Y290271D03*
D325*
X61112Y288112D03*
D182*
X61112Y284048D03*
X61062Y331445D03*
D311*
X61062Y323698D03*
D241*
X61062Y319430D03*
D222*
X61062Y310007D03*
D357*
X61062Y302412D03*
D290*
X61062Y294386D03*
D314*
X61062Y290322D03*
D339*
X61062Y288061D03*
D182*
X61062Y284048D03*
D265*
X61011Y331445D03*
D313*
X61011Y323698D03*
D225*
X61011Y319456D03*
X61011Y310007D03*
D358*
X61011Y302412D03*
D344*
X61011Y294386D03*
D353*
X61011Y290322D03*
D336*
X61011Y288061D03*
D305*
X61011Y284074D03*
D182*
X60960Y331445D03*
D350*
X60960Y323672D03*
D222*
X60960Y319456D03*
D229*
X60960Y309982D03*
D359*
X60960Y302438D03*
D290*
X60960Y294386D03*
D314*
X60960Y290373D03*
D325*
X60960Y288011D03*
D309*
X60960Y284074D03*
D265*
X60909Y331445D03*
D181*
X60909Y323672D03*
D225*
X60909Y319456D03*
D227*
X60909Y309982D03*
D360*
X60909Y302412D03*
D344*
X60909Y294386D03*
D353*
X60909Y290373D03*
D331*
X60909Y288011D03*
D305*
X60909Y284074D03*
D182*
X60858Y331445D03*
D350*
X60858Y323672D03*
D241*
X60858Y319481D03*
D222*
X60858Y309956D03*
D361*
X60858Y302438D03*
D290*
X60858Y294386D03*
D314*
X60858Y290424D03*
D274*
X60858Y287985D03*
D309*
X60858Y284074D03*
D182*
X60808Y331445D03*
D350*
X60808Y323672D03*
D222*
X60808Y319507D03*
X60808Y309956D03*
D270*
X60808Y302412D03*
D362*
X60808Y294361D03*
D314*
X60808Y290424D03*
D325*
X60808Y287960D03*
D182*
X60808Y284099D03*
D265*
X60757Y331445D03*
D181*
X60757Y323672D03*
D225*
X60757Y319507D03*
D267*
X60757Y309931D03*
D363*
X60757Y302438D03*
D286*
X60757Y294361D03*
D353*
X60757Y290474D03*
D279*
X60757Y287934D03*
D265*
X60757Y284099D03*
D182*
X60706Y331445D03*
D350*
X60706Y323672D03*
D222*
X60706Y319507D03*
D220*
X60706Y309931D03*
D364*
X60706Y302412D03*
D340*
X60706Y294335D03*
D314*
X60706Y290474D03*
D325*
X60706Y287909D03*
D182*
X60706Y284099D03*
D265*
X60655Y331445D03*
D181*
X60655Y323672D03*
D225*
X60655Y319507D03*
X60655Y309905D03*
D264*
X60655Y302438D03*
D338*
X60655Y294335D03*
D353*
X60655Y290525D03*
D331*
X60655Y287909D03*
D265*
X60655Y284099D03*
D182*
X60604Y331445D03*
D350*
X60604Y323672D03*
D241*
X60604Y319532D03*
D220*
X60604Y309880D03*
D365*
X60604Y302412D03*
D340*
X60604Y294335D03*
D314*
X60604Y290525D03*
D325*
X60604Y287858D03*
D332*
X60604Y284124D03*
D182*
X60554Y331445D03*
D350*
X60554Y323672D03*
D241*
X60554Y319532D03*
D220*
X60554Y309880D03*
D366*
X60554Y302438D03*
D340*
X60554Y294335D03*
D314*
X60554Y290576D03*
D325*
X60554Y287858D03*
D332*
X60554Y284124D03*
D265*
X60503Y331445D03*
D181*
X60503Y323672D03*
D225*
X60503Y319557D03*
D267*
X60503Y309880D03*
D367*
X60503Y302438D03*
D338*
X60503Y294335D03*
D353*
X60503Y290576D03*
D344*
X60503Y287833D03*
D368*
X60503Y284124D03*
D182*
X60452Y331445D03*
D350*
X60452Y323672D03*
D222*
X60452Y319557D03*
D220*
X60452Y309880D03*
D261*
X60452Y302438D03*
D362*
X60452Y294310D03*
D314*
X60452Y290627D03*
D339*
X60452Y287807D03*
D332*
X60452Y284124D03*
D265*
X60401Y331445D03*
D181*
X60401Y323672D03*
D225*
X60401Y319557D03*
X60401Y309855D03*
D338*
X60401Y305257D03*
D312*
X60401Y299999D03*
D286*
X60401Y294310D03*
D369*
X60401Y290678D03*
D337*
X60401Y289509D03*
D344*
X60401Y287782D03*
D368*
X60401Y284124D03*
D182*
X60350Y331445D03*
D350*
X60350Y323672D03*
D222*
X60350Y319557D03*
D229*
X60350Y309829D03*
D362*
X60350Y305232D03*
D370*
X60350Y299999D03*
D362*
X60350Y294310D03*
D314*
X60350Y290678D03*
D290*
X60350Y287782D03*
D332*
X60350Y284124D03*
D182*
X60300Y331445D03*
D350*
X60300Y323672D03*
D241*
X60300Y319583D03*
D229*
X60300Y309829D03*
D290*
X60300Y305206D03*
D314*
X60300Y300025D03*
D362*
X60300Y294310D03*
D320*
X60300Y290728D03*
D183*
X60300Y289560D03*
D340*
X60300Y287731D03*
D332*
X60300Y284124D03*
D265*
X60249Y331445D03*
D181*
X60249Y323672D03*
D234*
X60249Y319583D03*
D227*
X60249Y309829D03*
D286*
X60249Y305181D03*
D371*
X60249Y300050D03*
D286*
X60249Y294310D03*
D317*
X60249Y290703D03*
D338*
X60249Y287731D03*
D305*
X60249Y284175D03*
D182*
X60198Y331445D03*
D350*
X60198Y323672D03*
D241*
X60198Y319583D03*
D229*
X60198Y309829D03*
D362*
X60198Y305181D03*
D314*
X60198Y300076D03*
D290*
X60198Y294284D03*
D314*
X60198Y290728D03*
D290*
X60198Y287680D03*
D309*
X60198Y284175D03*
D265*
X60147Y331445D03*
D181*
X60147Y323672D03*
D225*
X60147Y319608D03*
D227*
X60147Y309829D03*
D286*
X60147Y305130D03*
D312*
X60147Y300101D03*
D344*
X60147Y294284D03*
D317*
X60147Y290754D03*
D344*
X60147Y287680D03*
D305*
X60147Y284175D03*
D182*
X60096Y331445D03*
D350*
X60096Y323672D03*
D222*
X60096Y319608D03*
D229*
X60096Y309829D03*
D362*
X60096Y305130D03*
D314*
X60096Y300126D03*
D362*
X60096Y294259D03*
D314*
X60096Y290779D03*
D340*
X60096Y287630D03*
D309*
X60096Y284175D03*
D182*
X60046Y331445D03*
D303*
X60046Y323647D03*
D222*
X60046Y319608D03*
D220*
X60046Y309778D03*
D362*
X60046Y305079D03*
D314*
X60046Y300126D03*
D362*
X60046Y294259D03*
D314*
X60046Y290830D03*
D340*
X60046Y287630D03*
D309*
X60046Y284175D03*
D265*
X59995Y331445D03*
D307*
X59995Y323647D03*
D225*
X59995Y319608D03*
D267*
X59995Y309778D03*
D286*
X59995Y305079D03*
D353*
X59995Y300177D03*
D286*
X59995Y294259D03*
D353*
X59995Y290830D03*
D344*
X59995Y287579D03*
D305*
X59995Y284175D03*
D182*
X59944Y331445D03*
D303*
X59944Y323647D03*
D222*
X59944Y319608D03*
D220*
X59944Y309778D03*
D183*
X59944Y305816D03*
D372*
X59944Y305029D03*
D314*
X59944Y300177D03*
D362*
X59944Y294259D03*
D314*
X59944Y290881D03*
D290*
X59944Y287579D03*
D309*
X59944Y284175D03*
D265*
X59893Y331445D03*
D307*
X59893Y323647D03*
D225*
X59893Y319608D03*
D267*
X59893Y309778D03*
D286*
X59893Y305029D03*
D353*
X59893Y300228D03*
D286*
X59893Y294259D03*
D353*
X59893Y290881D03*
D344*
X59893Y287528D03*
D305*
X59893Y284175D03*
D182*
X59842Y331445D03*
D303*
X59842Y323647D03*
D222*
X59842Y319608D03*
D220*
X59842Y309778D03*
D362*
X59842Y305029D03*
D314*
X59842Y300228D03*
D362*
X59842Y294259D03*
D319*
X59842Y290906D03*
D290*
X59842Y287528D03*
D323*
X59842Y284201D03*
D182*
X59792Y331445D03*
D303*
X59792Y323647D03*
D222*
X59792Y319608D03*
D220*
X59792Y309778D03*
D362*
X59792Y304978D03*
D319*
X59792Y300253D03*
D362*
X59792Y294259D03*
D314*
X59792Y290932D03*
D340*
X59792Y287477D03*
D323*
X59792Y284201D03*
D265*
X59741Y331445D03*
D307*
X59741Y323647D03*
D225*
X59741Y319608D03*
D267*
X59741Y309778D03*
D286*
X59741Y304978D03*
D353*
X59741Y300279D03*
D373*
X59741Y294234D03*
D317*
X59741Y290957D03*
D338*
X59741Y287477D03*
D371*
X59741Y284201D03*
D182*
X59690Y331445D03*
D303*
X59690Y323647D03*
D241*
X59690Y319634D03*
D220*
X59690Y309778D03*
D180*
X59690Y304952D03*
D314*
X59690Y300279D03*
D180*
X59690Y294234D03*
D314*
X59690Y290982D03*
D290*
X59690Y287426D03*
D323*
X59690Y284201D03*
D265*
X59639Y331445D03*
D307*
X59639Y323647D03*
D234*
X59639Y319634D03*
D267*
X59639Y309778D03*
D286*
X59639Y304927D03*
D353*
X59639Y300330D03*
D286*
X59639Y294208D03*
D317*
X59639Y291008D03*
D344*
X59639Y287426D03*
D371*
X59639Y284201D03*
D182*
X59588Y331445D03*
D303*
X59588Y323647D03*
D241*
X59588Y319634D03*
D220*
X59588Y309778D03*
D180*
X59588Y304902D03*
D314*
X59588Y300330D03*
D362*
X59588Y294208D03*
D314*
X59588Y291033D03*
D340*
X59588Y287376D03*
D323*
X59588Y284201D03*
D182*
X59538Y331445D03*
D303*
X59538Y323647D03*
D241*
X59538Y319634D03*
D220*
X59538Y309778D03*
D362*
X59538Y304876D03*
D319*
X59538Y300355D03*
D362*
X59538Y294208D03*
D319*
X59538Y291059D03*
D340*
X59538Y287376D03*
D323*
X59538Y284201D03*
D265*
X59487Y331445D03*
D307*
X59487Y323647D03*
D234*
X59487Y319634D03*
D321*
X59487Y309753D03*
D286*
X59487Y304876D03*
D353*
X59487Y300380D03*
D286*
X59487Y294208D03*
D353*
X59487Y291084D03*
D286*
X59487Y287350D03*
D353*
X59487Y284226D03*
D182*
X59436Y331445D03*
D303*
X59436Y323647D03*
D241*
X59436Y319634D03*
D297*
X59436Y309753D03*
D180*
X59436Y304851D03*
D319*
X59436Y300406D03*
D362*
X59436Y294208D03*
D319*
X59436Y291109D03*
D290*
X59436Y287325D03*
D314*
X59436Y284226D03*
D265*
X59385Y331445D03*
D307*
X59385Y323647D03*
D234*
X59385Y319634D03*
D227*
X59385Y309728D03*
D286*
X59385Y304825D03*
D353*
X59385Y300431D03*
D373*
X59385Y294183D03*
D353*
X59385Y291135D03*
D344*
X59385Y287325D03*
D353*
X59385Y284226D03*
D182*
X59334Y331445D03*
D303*
X59334Y323647D03*
D241*
X59334Y319634D03*
D229*
X59334Y309728D03*
D180*
X59334Y304800D03*
D319*
X59334Y300457D03*
D180*
X59334Y294183D03*
D319*
X59334Y291160D03*
D290*
X59334Y287274D03*
D314*
X59334Y284226D03*
D182*
X59284Y331445D03*
D303*
X59284Y323647D03*
D241*
X59284Y319634D03*
D229*
X59284Y309728D03*
D362*
X59284Y304775D03*
D319*
X59284Y300457D03*
D180*
X59284Y294183D03*
D314*
X59284Y291186D03*
D290*
X59284Y287274D03*
D314*
X59284Y284226D03*
D265*
X59233Y331445D03*
D307*
X59233Y323647D03*
D234*
X59233Y319634D03*
D227*
X59233Y309728D03*
D373*
X59233Y304749D03*
D353*
X59233Y300482D03*
D373*
X59233Y294183D03*
D317*
X59233Y291211D03*
D338*
X59233Y287223D03*
D353*
X59233Y284226D03*
D182*
X59182Y331445D03*
D303*
X59182Y323647D03*
D241*
X59182Y319634D03*
D222*
X59182Y309753D03*
D180*
X59182Y304749D03*
D314*
X59182Y300482D03*
D180*
X59182Y294183D03*
D314*
X59182Y291236D03*
D340*
X59182Y287223D03*
D370*
X59182Y284251D03*
D265*
X59131Y331445D03*
D307*
X59131Y323647D03*
D234*
X59131Y319634D03*
D225*
X59131Y309753D03*
D373*
X59131Y304698D03*
D353*
X59131Y300533D03*
D373*
X59131Y294183D03*
D353*
X59131Y291236D03*
D344*
X59131Y287172D03*
D312*
X59131Y284251D03*
D182*
X59080Y331445D03*
D303*
X59080Y323647D03*
D241*
X59080Y319634D03*
D222*
X59080Y309753D03*
D180*
X59080Y304698D03*
D314*
X59080Y300533D03*
D362*
X59080Y294157D03*
D314*
X59080Y291287D03*
D290*
X59080Y287172D03*
D314*
X59080Y284277D03*
D182*
X59030Y331445D03*
D303*
X59030Y323647D03*
D222*
X59030Y319608D03*
X59030Y309753D03*
D362*
X59030Y304673D03*
D314*
X59030Y300584D03*
D362*
X59030Y294157D03*
D319*
X59030Y291262D03*
D340*
X59030Y287122D03*
D314*
X59030Y284277D03*
D265*
X58979Y331445D03*
D307*
X58979Y323647D03*
D225*
X58979Y319608D03*
X58979Y309753D03*
D373*
X58979Y304648D03*
D353*
X58979Y300584D03*
D373*
X58979Y294132D03*
D353*
X58979Y291338D03*
D338*
X58979Y287122D03*
D353*
X58979Y284277D03*
D182*
X58928Y331445D03*
D303*
X58928Y323647D03*
D222*
X58928Y319608D03*
X58928Y309753D03*
D180*
X58928Y304648D03*
D319*
X58928Y300609D03*
D180*
X58928Y294132D03*
D319*
X58928Y291313D03*
D290*
X58928Y287071D03*
D314*
X58928Y284277D03*
D265*
X58877Y331445D03*
D307*
X58877Y323647D03*
D225*
X58877Y319608D03*
X58877Y309753D03*
D373*
X58877Y304597D03*
D353*
X58877Y300634D03*
D373*
X58877Y294132D03*
D317*
X58877Y291363D03*
D344*
X58877Y287071D03*
D353*
X58877Y284277D03*
D182*
X58826Y331445D03*
D303*
X58826Y323647D03*
D222*
X58826Y319608D03*
D220*
X58826Y309778D03*
D180*
X58826Y304597D03*
D314*
X58826Y300634D03*
D180*
X58826Y294132D03*
D320*
X58826Y291389D03*
D290*
X58826Y287020D03*
D314*
X58826Y284277D03*
D182*
X58776Y331445D03*
D303*
X58776Y323647D03*
D222*
X58776Y319608D03*
D220*
X58776Y309778D03*
D372*
X58776Y304571D03*
D314*
X58776Y300685D03*
D180*
X58776Y294132D03*
D319*
X58776Y291414D03*
D290*
X58776Y287020D03*
D314*
X58776Y284277D03*
D265*
X58725Y331445D03*
D307*
X58725Y323647D03*
D225*
X58725Y319608D03*
D267*
X58725Y309778D03*
D373*
X58725Y304546D03*
D353*
X58725Y300685D03*
D373*
X58725Y294132D03*
D369*
X58725Y291440D03*
D286*
X58725Y286995D03*
D317*
X58725Y284302D03*
D182*
X58674Y331445D03*
D303*
X58674Y323647D03*
D222*
X58674Y319608D03*
D220*
X58674Y309778D03*
D372*
X58674Y304521D03*
D319*
X58674Y300711D03*
D180*
X58674Y294132D03*
D319*
X58674Y291465D03*
D340*
X58674Y286969D03*
D319*
X58674Y284302D03*
D265*
X58623Y331445D03*
D307*
X58623Y323647D03*
D234*
X58623Y319583D03*
D267*
X58623Y309778D03*
D373*
X58623Y304495D03*
D353*
X58623Y300736D03*
D280*
X58623Y294107D03*
D369*
X58623Y291490D03*
D286*
X58623Y286944D03*
D317*
X58623Y284302D03*
D182*
X58572Y331445D03*
D303*
X58572Y323647D03*
D241*
X58572Y319583D03*
D220*
X58572Y309778D03*
D372*
X58572Y304470D03*
D319*
X58572Y300761D03*
D372*
X58572Y294107D03*
D319*
X58572Y291516D03*
D290*
X58572Y286918D03*
D319*
X58572Y284302D03*
D182*
X58522Y331445D03*
D303*
X58522Y323647D03*
D241*
X58522Y319583D03*
D220*
X58522Y309778D03*
D372*
X58522Y304470D03*
D314*
X58522Y300787D03*
D180*
X58522Y294081D03*
D320*
X58522Y291541D03*
D362*
X58522Y286893D03*
D314*
X58522Y284328D03*
D265*
X58471Y331445D03*
D307*
X58471Y323647D03*
D234*
X58471Y319583D03*
D225*
X58471Y309804D03*
D280*
X58471Y304419D03*
D317*
X58471Y300812D03*
D373*
X58471Y294081D03*
D317*
X58471Y291567D03*
D338*
X58471Y286868D03*
D353*
X58471Y284328D03*
D182*
X58420Y331445D03*
D303*
X58420Y323647D03*
D222*
X58420Y319557D03*
X58420Y309804D03*
D372*
X58420Y304419D03*
D314*
X58420Y300838D03*
D180*
X58420Y294081D03*
D319*
X58420Y291567D03*
D362*
X58420Y286842D03*
D314*
X58420Y284328D03*
D265*
X58369Y331445D03*
D307*
X58369Y323647D03*
D225*
X58369Y319557D03*
X58369Y309804D03*
D373*
X58369Y304394D03*
D317*
X58369Y300863D03*
D373*
X58369Y294081D03*
D317*
X58369Y291617D03*
D344*
X58369Y286817D03*
D353*
X58369Y284328D03*
D182*
X58318Y331445D03*
D303*
X58318Y323647D03*
D222*
X58318Y319557D03*
X58318Y309804D03*
D372*
X58318Y304368D03*
D319*
X58318Y300863D03*
D180*
X58318Y294081D03*
D319*
X58318Y291617D03*
D362*
X58318Y286791D03*
D319*
X58318Y284353D03*
D182*
X58268Y331445D03*
D303*
X58268Y323647D03*
D241*
X58268Y319532D03*
D222*
X58268Y309804D03*
D372*
X58268Y304368D03*
D320*
X58268Y300939D03*
D183*
X58268Y299771D03*
D372*
X58268Y294056D03*
D319*
X58268Y291668D03*
D290*
X58268Y286766D03*
D319*
X58268Y284353D03*
D265*
X58217Y331445D03*
D307*
X58217Y323647D03*
D234*
X58217Y319532D03*
D225*
X58217Y309804D03*
D280*
X58217Y304317D03*
D317*
X58217Y300914D03*
D280*
X58217Y294056D03*
D317*
X58217Y291668D03*
D286*
X58217Y286741D03*
D317*
X58217Y284353D03*
D182*
X58166Y331445D03*
D303*
X58166Y323647D03*
D241*
X58166Y319532D03*
D222*
X58166Y309855D03*
D372*
X58166Y304317D03*
D314*
X58166Y300939D03*
D372*
X58166Y294056D03*
D314*
X58166Y291694D03*
D340*
X58166Y286715D03*
D319*
X58166Y284353D03*
D265*
X58115Y331445D03*
D307*
X58115Y323647D03*
D234*
X58115Y319532D03*
D225*
X58115Y309855D03*
D280*
X58115Y304267D03*
D317*
X58115Y300965D03*
D280*
X58115Y294056D03*
D317*
X58115Y291719D03*
D286*
X58115Y286690D03*
D317*
X58115Y284353D03*
D182*
X58064Y331445D03*
D303*
X58064Y323647D03*
D241*
X58064Y319532D03*
D222*
X58064Y309855D03*
D372*
X58064Y304267D03*
D319*
X58064Y300965D03*
D372*
X58064Y294056D03*
D314*
X58064Y291744D03*
D290*
X58064Y286664D03*
D319*
X58064Y284353D03*
D182*
X58014Y331445D03*
D303*
X58014Y323647D03*
D241*
X58014Y319481D03*
D222*
X58014Y309855D03*
D275*
X58014Y304241D03*
D319*
X58014Y301015D03*
D372*
X58014Y294056D03*
D319*
X58014Y291770D03*
D362*
X58014Y286639D03*
D319*
X58014Y284353D03*
D265*
X57963Y331445D03*
D307*
X57963Y323647D03*
D234*
X57963Y319481D03*
D225*
X57963Y309855D03*
D280*
X57963Y304216D03*
D317*
X57963Y301015D03*
D373*
X57963Y294030D03*
D353*
X57963Y291795D03*
D338*
X57963Y286614D03*
D317*
X57963Y284404D03*
D182*
X57912Y331445D03*
D303*
X57912Y323647D03*
D241*
X57912Y319481D03*
X57912Y309880D03*
D374*
X57912Y304190D03*
D319*
X57912Y301066D03*
D372*
X57912Y294005D03*
D314*
X57912Y291795D03*
D362*
X57912Y286588D03*
D319*
X57912Y284404D03*
D265*
X57861Y331445D03*
D307*
X57861Y323647D03*
D234*
X57861Y319481D03*
X57861Y309880D03*
D280*
X57861Y304165D03*
D317*
X57861Y301066D03*
D280*
X57861Y294005D03*
D353*
X57861Y291846D03*
D286*
X57861Y286588D03*
D317*
X57861Y284404D03*
D182*
X57810Y331445D03*
D303*
X57810Y323647D03*
D182*
X57810Y319456D03*
D222*
X57810Y309905D03*
D372*
X57810Y304165D03*
D319*
X57810Y301066D03*
D372*
X57810Y294005D03*
D314*
X57810Y291846D03*
D362*
X57810Y286537D03*
D319*
X57810Y284404D03*
D182*
X57760Y331445D03*
D303*
X57760Y323647D03*
D241*
X57760Y319430D03*
D222*
X57760Y309905D03*
D275*
X57760Y304140D03*
D319*
X57760Y301117D03*
D372*
X57760Y294005D03*
D314*
X57760Y291897D03*
D362*
X57760Y286537D03*
D319*
X57760Y284404D03*
D265*
X57709Y331445D03*
D307*
X57709Y323647D03*
D234*
X57709Y319430D03*
X57709Y309931D03*
D280*
X57709Y304114D03*
D317*
X57709Y301117D03*
D280*
X57709Y294005D03*
D353*
X57709Y291897D03*
D286*
X57709Y286487D03*
D317*
X57709Y284404D03*
D182*
X57658Y331445D03*
D303*
X57658Y323647D03*
D241*
X57658Y319430D03*
X57658Y309931D03*
D275*
X57658Y304089D03*
D319*
X57658Y301168D03*
D372*
X57658Y294005D03*
D314*
X57658Y291948D03*
D362*
X57658Y286487D03*
D319*
X57658Y284404D03*
D265*
X57607Y331445D03*
D307*
X57607Y323647D03*
D265*
X57607Y319405D03*
D234*
X57607Y309931D03*
D375*
X57607Y304089D03*
D317*
X57607Y301168D03*
D280*
X57607Y294005D03*
D353*
X57607Y291948D03*
D286*
X57607Y286436D03*
D317*
X57607Y284404D03*
D182*
X57556Y331445D03*
D303*
X57556Y323647D03*
D182*
X57556Y319405D03*
D222*
X57556Y309956D03*
D275*
X57556Y304038D03*
D319*
X57556Y301219D03*
D275*
X57556Y293980D03*
D314*
X57556Y291998D03*
D362*
X57556Y286436D03*
D320*
X57556Y284429D03*
D182*
X57506Y331445D03*
D303*
X57506Y323647D03*
D241*
X57506Y319380D03*
X57506Y309982D03*
D275*
X57506Y304038D03*
D319*
X57506Y301219D03*
D275*
X57506Y293980D03*
D370*
X57506Y292024D03*
D362*
X57506Y286385D03*
D320*
X57506Y284429D03*
D265*
X57455Y331445D03*
D307*
X57455Y323647D03*
D265*
X57455Y319354D03*
D234*
X57455Y309982D03*
D375*
X57455Y303987D03*
D369*
X57455Y301244D03*
D376*
X57455Y292786D03*
D194*
X57455Y285242D03*
D182*
X57404Y331445D03*
D303*
X57404Y323647D03*
D182*
X57404Y319354D03*
D241*
X57404Y309982D03*
D275*
X57404Y303987D03*
D319*
X57404Y301269D03*
D196*
X57404Y292786D03*
D195*
X57404Y285242D03*
D265*
X57353Y331445D03*
D307*
X57353Y323647D03*
D234*
X57353Y319329D03*
X57353Y310032D03*
D375*
X57353Y303987D03*
D317*
X57353Y301269D03*
D197*
X57353Y292811D03*
D376*
X57353Y285217D03*
D182*
X57302Y331445D03*
D303*
X57302Y323647D03*
D182*
X57302Y319303D03*
D241*
X57302Y310032D03*
D372*
X57302Y303962D03*
D319*
X57302Y301320D03*
D342*
X57302Y292811D03*
D196*
X57302Y285217D03*
D182*
X57252Y331445D03*
D303*
X57252Y323647D03*
D182*
X57252Y319303D03*
D241*
X57252Y310032D03*
D374*
X57252Y303936D03*
D319*
X57252Y301320D03*
D200*
X57252Y292837D03*
D342*
X57252Y285191D03*
D265*
X57201Y331445D03*
D307*
X57201Y323647D03*
D265*
X57201Y319303D03*
X57201Y310058D03*
D280*
X57201Y303911D03*
D369*
X57201Y301346D03*
D202*
X57201Y292811D03*
D197*
X57201Y285191D03*
D182*
X57150Y331445D03*
D303*
X57150Y323647D03*
D182*
X57150Y319253D03*
D241*
X57150Y310083D03*
D275*
X57150Y303886D03*
D319*
X57150Y301371D03*
D203*
X57150Y292837D03*
D201*
X57150Y285191D03*
D265*
X57099Y331445D03*
D307*
X57099Y323647D03*
D265*
X57099Y319253D03*
D234*
X57099Y310083D03*
D375*
X57099Y303886D03*
D369*
X57099Y301396D03*
D204*
X57099Y292837D03*
D202*
X57099Y285191D03*
D182*
X57048Y331445D03*
D303*
X57048Y323647D03*
D309*
X57048Y319227D03*
D182*
X57048Y310109D03*
D275*
X57048Y303835D03*
D183*
X57048Y302514D03*
D322*
X57048Y301371D03*
D205*
X57048Y292862D03*
D203*
X57048Y285166D03*
D182*
X56998Y331445D03*
D303*
X56998Y323647D03*
D241*
X56998Y319227D03*
X56998Y310134D03*
D275*
X56998Y303835D03*
D320*
X56998Y301447D03*
D205*
X56998Y292862D03*
D203*
X56998Y285166D03*
D265*
X56947Y331445D03*
D307*
X56947Y323647D03*
D265*
X56947Y319202D03*
X56947Y310159D03*
D375*
X56947Y303835D03*
D369*
X56947Y301447D03*
D207*
X56947Y292887D03*
D204*
X56947Y285166D03*
D182*
X56896Y331445D03*
D303*
X56896Y323647D03*
D182*
X56896Y319202D03*
X56896Y310159D03*
D275*
X56896Y303784D03*
D320*
X56896Y301498D03*
D208*
X56896Y292887D03*
D205*
X56896Y285140D03*
D265*
X56845Y331445D03*
D307*
X56845Y323647D03*
D265*
X56845Y319151D03*
X56845Y310210D03*
D375*
X56845Y303784D03*
D369*
X56845Y301498D03*
D377*
X56845Y292887D03*
D206*
X56845Y285140D03*
D182*
X56794Y331445D03*
D303*
X56794Y323647D03*
D182*
X56794Y319151D03*
X56794Y310210D03*
D275*
X56794Y303733D03*
D320*
X56794Y301549D03*
D335*
X56794Y292887D03*
D210*
X56794Y285140D03*
D182*
X56744Y331445D03*
D303*
X56744Y323647D03*
D309*
X56744Y319126D03*
D182*
X56744Y310210D03*
D275*
X56744Y303733D03*
D320*
X56744Y301549D03*
D378*
X56744Y292913D03*
D210*
X56744Y285140D03*
D265*
X56693Y331445D03*
D307*
X56693Y323647D03*
D265*
X56693Y319100D03*
X56693Y310261D03*
D379*
X56693Y303708D03*
D369*
X56693Y301600D03*
D334*
X56693Y292913D03*
D377*
X56693Y285115D03*
D182*
X56642Y331445D03*
D303*
X56642Y323647D03*
D309*
X56642Y319075D03*
D182*
X56642Y310261D03*
D374*
X56642Y303682D03*
D320*
X56642Y301600D03*
D273*
X56642Y292938D03*
D335*
X56642Y285115D03*
D265*
X56591Y331445D03*
D307*
X56591Y323647D03*
D265*
X56591Y319049D03*
X56591Y310312D03*
D379*
X56591Y303657D03*
D369*
X56591Y301600D03*
D380*
X56591Y292989D03*
D381*
X56591Y291338D03*
D334*
X56591Y285090D03*
D182*
X56540Y331445D03*
D303*
X56540Y323647D03*
D309*
X56540Y319024D03*
D182*
X56540Y310312D03*
D275*
X56540Y303632D03*
D320*
X56540Y301650D03*
D216*
X56540Y292964D03*
D378*
X56540Y285090D03*
D182*
X56490Y331445D03*
D303*
X56490Y323647D03*
D182*
X56490Y318999D03*
X56490Y310363D03*
D275*
X56490Y303632D03*
D320*
X56490Y301650D03*
D382*
X56490Y292938D03*
D273*
X56490Y285064D03*
D265*
X56439Y331445D03*
D307*
X56439Y323647D03*
D305*
X56439Y318973D03*
D265*
X56439Y310363D03*
D383*
X56439Y303606D03*
D318*
X56439Y301676D03*
D284*
X56439Y292964D03*
D381*
X56439Y286664D03*
D298*
X56439Y285013D03*
D182*
X56388Y331445D03*
D303*
X56388Y323647D03*
D182*
X56388Y318948D03*
D309*
X56388Y310388D03*
D275*
X56388Y303581D03*
D320*
X56388Y301701D03*
D384*
X56388Y292964D03*
D382*
X56388Y285064D03*
D265*
X56337Y331445D03*
D307*
X56337Y323647D03*
D368*
X56337Y318922D03*
D265*
X56337Y310413D03*
D379*
X56337Y303555D03*
D318*
X56337Y301727D03*
D278*
X56337Y292989D03*
D337*
X56337Y286614D03*
D278*
X56337Y285013D03*
D182*
X56286Y331445D03*
D303*
X56286Y323647D03*
D182*
X56286Y318897D03*
D309*
X56286Y310439D03*
D385*
X56286Y303555D03*
D320*
X56286Y301752D03*
D299*
X56286Y292989D03*
D333*
X56286Y285039D03*
D182*
X56236Y331445D03*
D303*
X56236Y323647D03*
D309*
X56236Y318872D03*
X56236Y310490D03*
D208*
X56236Y302438D03*
D288*
X56236Y293014D03*
D333*
X56236Y285039D03*
D265*
X56185Y331445D03*
D307*
X56185Y323647D03*
D265*
X56185Y318846D03*
D305*
X56185Y310490D03*
D207*
X56185Y302438D03*
D293*
X56185Y293014D03*
D278*
X56185Y285013D03*
D182*
X56134Y331445D03*
D303*
X56134Y323647D03*
D309*
X56134Y318821D03*
D332*
X56134Y310540D03*
D335*
X56134Y302438D03*
D301*
X56134Y293040D03*
D299*
X56134Y285013D03*
D265*
X56083Y331445D03*
D307*
X56083Y323647D03*
D305*
X56083Y318770D03*
D312*
X56083Y310566D03*
D377*
X56083Y302438D03*
D386*
X56083Y293014D03*
D293*
X56083Y284988D03*
D182*
X56032Y331445D03*
D303*
X56032Y323647D03*
D309*
X56032Y318770D03*
X56032Y310591D03*
D378*
X56032Y302463D03*
D308*
X56032Y293040D03*
D301*
X56032Y285013D03*
D182*
X55982Y331445D03*
D303*
X55982Y323647D03*
D309*
X55982Y318719D03*
D323*
X55982Y310617D03*
D273*
X55982Y302438D03*
D308*
X55982Y293040D03*
D296*
X55982Y284988D03*
D265*
X55931Y331445D03*
D307*
X55931Y323647D03*
D368*
X55931Y318668D03*
D312*
X55931Y310667D03*
D277*
X55931Y302438D03*
D306*
X55931Y293065D03*
D304*
X55931Y284988D03*
D182*
X55880Y331445D03*
D303*
X55880Y323647D03*
D332*
X55880Y318668D03*
D309*
X55880Y310693D03*
D382*
X55880Y302438D03*
D289*
X55880Y293065D03*
D387*
X55880Y284963D03*
D265*
X55829Y331445D03*
D307*
X55829Y323647D03*
D305*
X55829Y318618D03*
D371*
X55829Y310718D03*
D380*
X55829Y302438D03*
D215*
X55829Y293091D03*
D388*
X55829Y284963D03*
D182*
X55778Y331445D03*
D303*
X55778Y323647D03*
D309*
X55778Y318567D03*
D370*
X55778Y310769D03*
D299*
X55778Y302438D03*
D310*
X55778Y293091D03*
D289*
X55778Y284937D03*
D182*
X55728Y331445D03*
D303*
X55728Y323647D03*
D370*
X55728Y318541D03*
D332*
X55728Y310794D03*
D299*
X55728Y302438D03*
D297*
X55728Y293091D03*
D289*
X55728Y284937D03*
D265*
X55677Y331445D03*
D307*
X55677Y323647D03*
D305*
X55677Y318516D03*
X55677Y310845D03*
D294*
X55677Y302438D03*
D321*
X55677Y293091D03*
D215*
X55677Y284912D03*
D182*
X55626Y331445D03*
D303*
X55626Y323647D03*
D309*
X55626Y318465D03*
D323*
X55626Y310871D03*
D301*
X55626Y302438D03*
D220*
X55626Y293116D03*
D292*
X55626Y284937D03*
D265*
X55575Y331445D03*
D307*
X55575Y323647D03*
D368*
X55575Y318414D03*
D305*
X55575Y310947D03*
D304*
X55575Y302463D03*
D267*
X55575Y293116D03*
D321*
X55575Y284912D03*
D182*
X55524Y331445D03*
D303*
X55524Y323647D03*
D314*
X55524Y318414D03*
D302*
X55524Y317195D03*
D182*
X55524Y310972D03*
D308*
X55524Y302438D03*
D222*
X55524Y293141D03*
D297*
X55524Y284912D03*
D182*
X55474Y331445D03*
D303*
X55474Y323647D03*
D323*
X55474Y318338D03*
D309*
X55474Y310998D03*
D289*
X55474Y302463D03*
D222*
X55474Y293141D03*
D220*
X55474Y284886D03*
D265*
X55423Y331445D03*
D307*
X55423Y323647D03*
D305*
X55423Y318313D03*
D368*
X55423Y311048D03*
D215*
X55423Y302438D03*
D234*
X55423Y293167D03*
D267*
X55423Y284886D03*
D182*
X55372Y331445D03*
D303*
X55372Y323647D03*
D323*
X55372Y318237D03*
D309*
X55372Y311099D03*
D310*
X55372Y302438D03*
D182*
X55372Y293141D03*
D222*
X55372Y284861D03*
D265*
X55321Y331445D03*
D307*
X55321Y323647D03*
D312*
X55321Y318186D03*
D305*
X55321Y311150D03*
D295*
X55321Y302412D03*
D305*
X55321Y293167D03*
D225*
X55321Y284861D03*
D182*
X55270Y331445D03*
D303*
X55270Y323647D03*
D370*
X55270Y318135D03*
D182*
X55270Y311226D03*
D297*
X55270Y302438D03*
D309*
X55270Y293167D03*
D241*
X55270Y284836D03*
D182*
X55220Y331445D03*
D303*
X55220Y323647D03*
D323*
X55220Y318084D03*
D182*
X55220Y311277D03*
D220*
X55220Y302412D03*
D309*
X55220Y293167D03*
D241*
X55220Y284836D03*
D265*
X55169Y331445D03*
D307*
X55169Y323647D03*
D312*
X55169Y318033D03*
D265*
X55169Y311328D03*
D225*
X55169Y302438D03*
D371*
X55169Y293192D03*
D265*
X55169Y284810D03*
D182*
X55118Y331445D03*
D303*
X55118Y323647D03*
D309*
X55118Y317957D03*
D182*
X55118Y311379D03*
D222*
X55118Y302438D03*
D314*
X55118Y293218D03*
D182*
X55118Y284810D03*
D265*
X55067Y331445D03*
D307*
X55067Y323647D03*
D368*
X55067Y317906D03*
D265*
X55067Y311429D03*
X55067Y302438D03*
D353*
X55067Y293218D03*
D305*
X55067Y284785D03*
D182*
X55016Y331445D03*
D303*
X55016Y323647D03*
D309*
X55016Y317856D03*
D269*
X55016Y312699D03*
D370*
X55016Y311429D03*
D182*
X55016Y302438D03*
D320*
X55016Y293218D03*
D309*
X55016Y284785D03*
D182*
X54966Y331445D03*
D303*
X54966Y323647D03*
D241*
X54966Y317805D03*
D309*
X54966Y311607D03*
D302*
X54966Y310337D03*
D370*
X54966Y302438D03*
D320*
X54966Y293218D03*
D370*
X54966Y284759D03*
D265*
X54915Y331445D03*
D307*
X54915Y323647D03*
D265*
X54915Y317729D03*
D389*
X54915Y312852D03*
D353*
X54915Y311607D03*
D381*
X54915Y310388D03*
D312*
X54915Y302438D03*
D318*
X54915Y293243D03*
D312*
X54915Y284759D03*
D182*
X54864Y331445D03*
D303*
X54864Y323647D03*
D241*
X54864Y317652D03*
D222*
X54864Y311683D03*
D314*
X54864Y302412D03*
D322*
X54864Y293243D03*
D319*
X54864Y284759D03*
D265*
X54813Y331445D03*
D307*
X54813Y323647D03*
D234*
X54813Y317602D03*
D227*
X54813Y311760D03*
D317*
X54813Y302438D03*
D329*
X54813Y293268D03*
D317*
X54813Y284759D03*
D182*
X54762Y331445D03*
D303*
X54762Y323647D03*
D222*
X54762Y317525D03*
D241*
X54762Y311912D03*
D260*
X54762Y310566D03*
D320*
X54762Y302412D03*
D316*
X54762Y293268D03*
D320*
X54762Y284734D03*
D182*
X54712Y331445D03*
D303*
X54712Y323647D03*
D229*
X54712Y317449D03*
D390*
X54712Y311937D03*
D322*
X54712Y302438D03*
D315*
X54712Y293294D03*
D320*
X54712Y284734D03*
D265*
X54661Y331445D03*
D307*
X54661Y323647D03*
D227*
X54661Y317348D03*
D295*
X54661Y312014D03*
D329*
X54661Y302412D03*
D313*
X54661Y293268D03*
D318*
X54661Y284709D03*
D182*
X54610Y331445D03*
D303*
X54610Y323647D03*
D390*
X54610Y317271D03*
X54610Y312191D03*
D260*
X54610Y310769D03*
D315*
X54610Y302438D03*
D311*
X54610Y293268D03*
D322*
X54610Y284709D03*
D265*
X54559Y331445D03*
D307*
X54559Y323647D03*
D295*
X54559Y317144D03*
D388*
X54559Y312242D03*
D330*
X54559Y302438D03*
D313*
X54559Y293268D03*
D328*
X54559Y284683D03*
D182*
X54508Y331445D03*
D303*
X54508Y323647D03*
D308*
X54508Y317017D03*
D301*
X54508Y312344D03*
D350*
X54508Y302438D03*
X54508Y293294D03*
D315*
X54508Y284709D03*
D182*
X54458Y331445D03*
D303*
X54458Y323647D03*
D301*
X54458Y316865D03*
D384*
X54458Y312522D03*
D350*
X54458Y302438D03*
X54458Y293294D03*
D311*
X54458Y284683D03*
D265*
X54407Y331445D03*
D307*
X54407Y323647D03*
D209*
X54407Y316586D03*
D206*
X54407Y312826D03*
D391*
X54407Y302438D03*
D307*
X54407Y293319D03*
D313*
X54407Y284683D03*
D182*
X54356Y331445D03*
D303*
X54356Y323647D03*
D281*
X54356Y314655D03*
D392*
X54356Y302438D03*
D303*
X54356Y293319D03*
D350*
X54356Y284658D03*
D265*
X54305Y331445D03*
D307*
X54305Y323647D03*
D381*
X54305Y318059D03*
D393*
X54305Y314604D03*
D224*
X54305Y302412D03*
X54305Y293319D03*
D181*
X54305Y284658D03*
D182*
X54254Y331445D03*
D303*
X54254Y323647D03*
D394*
X54254Y314655D03*
D230*
X54254Y302438D03*
D219*
X54254Y293319D03*
D395*
X54254Y284632D03*
D182*
X54204Y331445D03*
D303*
X54204Y323647D03*
D268*
X54204Y314655D03*
D274*
X54204Y302412D03*
D230*
X54204Y293345D03*
D395*
X54204Y284632D03*
D265*
X54153Y331445D03*
D307*
X54153Y323647D03*
D396*
X54153Y314655D03*
D331*
X54153Y302438D03*
D235*
X54153Y293345D03*
D391*
X54153Y284607D03*
D182*
X54102Y331445D03*
D303*
X54102Y323647D03*
D397*
X54102Y314655D03*
D290*
X54102Y302412D03*
D274*
X54102Y293370D03*
D219*
X54102Y284632D03*
D265*
X54051Y331445D03*
D307*
X54051Y323647D03*
D398*
X54051Y314655D03*
D286*
X54051Y302438D03*
D279*
X54051Y293370D03*
D235*
X54051Y284607D03*
D182*
X54000Y331445D03*
D303*
X54000Y323647D03*
D399*
X54000Y314655D03*
D362*
X54000Y302438D03*
D274*
X54000Y293370D03*
D230*
X54000Y284607D03*
D182*
X53950Y331445D03*
D303*
X53950Y323647D03*
D302*
X53950Y317348D03*
D400*
X53950Y314655D03*
D183*
X53950Y311963D03*
D372*
X53950Y302438D03*
D290*
X53950Y293370D03*
D274*
X53950Y284582D03*
D265*
X53899Y331445D03*
D307*
X53899Y323647D03*
D401*
X53899Y314655D03*
D280*
X53899Y302438D03*
D344*
X53899Y293370D03*
D279*
X53899Y284582D03*
D182*
X53848Y331445D03*
D303*
X53848Y323647D03*
D402*
X53848Y314655D03*
D385*
X53848Y302438D03*
D362*
X53848Y293395D03*
D274*
X53848Y284582D03*
D265*
X53797Y331445D03*
D307*
X53797Y323647D03*
D403*
X53797Y314681D03*
D379*
X53797Y302438D03*
D286*
X53797Y293395D03*
D331*
X53797Y284556D03*
D182*
X53746Y331445D03*
D303*
X53746Y323647D03*
D188*
X53746Y314681D03*
D404*
X53746Y302438D03*
D180*
X53746Y293421D03*
D325*
X53746Y284556D03*
D203*
X53696Y314681D03*
D278*
X53645Y314681D03*
D309*
X53594Y314706D03*
D344*
X53543Y314706D03*
D405*
X53035Y301803D03*
D406*
X52984Y301803D03*
D242*
X52934Y301803D03*
D379*
X52883Y301777D03*
D274*
X52832Y301752D03*
D328*
X52781Y301701D03*
D182*
X52730Y301676D03*
D308*
X52680Y301625D03*
D334*
X52629Y301549D03*
D335*
X52578Y301676D03*
D407*
X52527Y301828D03*
D378*
X52476Y301955D03*
D184*
X52426Y302108D03*
D209*
X52375Y302260D03*
D210*
X52324Y302412D03*
D377*
X52273Y302539D03*
D208*
X52222Y302692D03*
D203*
X52172Y302895D03*
D207*
X52121Y303098D03*
D208*
X52070Y303251D03*
D206*
X52019Y303378D03*
D205*
X51968Y303530D03*
X51918Y303682D03*
D204*
X51867Y303809D03*
D203*
X51816Y303962D03*
D341*
X51765Y304089D03*
D201*
X51714Y304241D03*
D200*
X51664Y304419D03*
D197*
X51613Y304546D03*
D342*
X51562Y304698D03*
D197*
X51511Y304851D03*
D196*
X51460Y304978D03*
X51410Y305130D03*
D194*
X51359Y305257D03*
D195*
X51308Y305410D03*
D194*
X51257Y305562D03*
D192*
X51206Y305689D03*
X51156Y305841D03*
D347*
X51105Y305943D03*
D335*
X51054Y305841D03*
D306*
X51003Y305714D03*
D182*
X50952Y305638D03*
D350*
X50902Y305537D03*
D373*
X50851Y305460D03*
D408*
X407389Y197739D02*
X409169Y201298D01*
X405610Y201298D02*
X407389Y197739D01*
X403556Y198629D02*
X403556Y202188D01*
X402666Y203078D01*
X400886Y203078D01*
X399997Y202188D01*
X399997Y198629D01*
X400886Y197739D01*
X402666Y197739D01*
X403556Y198629D01*
X399997Y202188D01*
X397942Y198629D02*
X397942Y197739D01*
X397942Y198629D02*
X397053Y198629D01*
X397053Y197739D01*
X397942Y197739D01*
X392467Y197739D02*
X392467Y203078D01*
X395136Y200408D01*
X391577Y200408D01*
D409*
X300406Y107032D02*
X300406Y101778D01*
X305660Y107032D01*
X306973Y107032D01*
X308287Y105718D01*
X308287Y103091D01*
X306973Y101778D01*
X308287Y110197D02*
X300406Y110197D01*
X303033Y110197D02*
X300406Y114138D01*
X303033Y110197D02*
X305660Y114138D01*
X188842Y66384D02*
X187528Y67698D01*
X184902Y67698D01*
X183588Y66384D01*
X183588Y65071D01*
X184902Y63757D01*
X186215Y63757D01*
X184902Y63757D02*
X183588Y62444D01*
X183588Y61130D01*
X184902Y59817D01*
X187528Y59817D01*
X188842Y61130D01*
X180422Y59817D02*
X180422Y67698D01*
X180422Y62444D02*
X176482Y59817D01*
X180422Y62444D02*
X176482Y65071D01*
X164070Y310123D02*
X162757Y311436D01*
X160130Y311436D01*
X158816Y310123D01*
X158816Y308809D01*
X160130Y307496D01*
X161443Y307496D01*
X160130Y307496D02*
X158816Y306182D01*
X158816Y304869D01*
X160130Y303555D01*
X162757Y303555D01*
X164070Y304869D01*
X155650Y306182D02*
X155650Y311436D01*
X155650Y306182D02*
X153024Y303555D01*
X150397Y306182D01*
X150397Y311436D01*
X147231Y310123D02*
X145917Y311436D01*
X143290Y311436D01*
X141977Y310123D01*
X141977Y308809D01*
X143290Y307496D01*
X144604Y307496D01*
X143290Y307496D02*
X141977Y306182D01*
X141977Y304869D01*
X143290Y303555D01*
X145917Y303555D01*
X147231Y304869D01*
X144196Y115990D02*
X152077Y115990D01*
X152077Y119931D01*
X150763Y121244D01*
X148136Y121244D01*
X146823Y119931D01*
X146823Y115990D01*
X146823Y118617D02*
X144196Y121244D01*
X152077Y128350D02*
X150763Y129664D01*
X152077Y128350D02*
X152077Y125724D01*
X150763Y124410D01*
X149450Y124410D01*
X148136Y125724D01*
X148136Y128350D01*
X146823Y129664D01*
X145509Y129664D01*
X144196Y128350D01*
X144196Y125724D01*
X145509Y124410D01*
X144196Y135457D02*
X152077Y135457D01*
X152077Y132830D02*
X152077Y138084D01*
X157378Y148971D02*
X157378Y154225D01*
X154751Y156852D01*
X152124Y154225D01*
X152124Y148971D01*
X152124Y152911D02*
X157378Y152911D01*
X148958Y150285D02*
X148958Y155538D01*
X147645Y156852D01*
X145018Y156852D01*
X143704Y155538D01*
X143704Y150285D01*
X145018Y148971D01*
X147645Y148971D01*
X148958Y150285D01*
X143704Y155538D01*
X214127Y245004D02*
X211500Y247631D01*
X211500Y239751D01*
X214127Y239751D02*
X208873Y239751D01*
X205707Y241064D02*
X205707Y246318D01*
X204394Y247631D01*
X201767Y247631D01*
X200454Y246318D01*
X200454Y241064D01*
X201767Y239751D01*
X204394Y239751D01*
X205707Y241064D01*
X200454Y246318D01*
X197288Y247631D02*
X197288Y239751D01*
X197288Y242378D02*
X193347Y239751D01*
X197288Y242378D02*
X193347Y245004D01*
X329717Y25737D02*
X329717Y17856D01*
X325777Y17856D01*
X324464Y19170D01*
X324464Y24423D01*
X325777Y25737D01*
X329717Y25737D01*
X321298Y25737D02*
X321298Y17856D01*
X321298Y21797D02*
X316044Y21797D01*
X316044Y25737D02*
X316044Y17856D01*
X310251Y17856D02*
X310251Y25737D01*
X312878Y25737D02*
X307624Y25737D01*
X304458Y23110D02*
X301832Y25737D01*
X301832Y17856D01*
X304458Y17856D02*
X299205Y17856D01*
X296039Y23110D02*
X293412Y25737D01*
X293412Y17856D01*
X296039Y17856D02*
X290785Y17856D01*
X476631Y17348D02*
X476631Y25229D01*
X474004Y22602D01*
X471377Y25229D01*
X471377Y17348D01*
X468211Y18662D02*
X468211Y23915D01*
X466898Y25229D01*
X464271Y25229D01*
X462958Y23915D01*
X462958Y18662D01*
X464271Y17348D01*
X466898Y17348D01*
X468211Y18662D01*
X465584Y19975D02*
X462958Y17348D01*
X459792Y21289D02*
X454538Y21289D01*
X451372Y25229D02*
X446118Y25229D01*
X446118Y23915D01*
X451372Y18662D01*
X451372Y17348D01*
X403298Y48089D02*
X401984Y46775D01*
X403298Y48089D02*
X405925Y48089D01*
X407238Y46775D01*
X407238Y41522D01*
X405925Y40208D01*
X403298Y40208D01*
X401984Y41522D01*
X401984Y44149D01*
X404611Y44149D01*
X361213Y46681D02*
X361213Y41427D01*
X361213Y46681D02*
X358586Y49308D01*
X355960Y46681D01*
X355960Y41427D01*
X355960Y45368D02*
X361213Y45368D01*
X352794Y42741D02*
X352794Y47995D01*
X351480Y49308D01*
X348853Y49308D01*
X347540Y47995D01*
X347540Y42741D01*
X348853Y41427D01*
X351480Y41427D01*
X352794Y42741D01*
X347540Y47995D01*
X342137Y305116D02*
X342137Y310369D01*
X342137Y305116D02*
X339510Y302489D01*
X336883Y305116D01*
X336883Y310369D01*
X333718Y306429D02*
X328464Y306429D01*
X331091Y309056D02*
X331091Y303802D01*
X330539Y286239D02*
X329226Y284926D01*
X330539Y286239D02*
X333166Y286239D01*
X334479Y284926D01*
X334479Y279672D01*
X333166Y278359D01*
X330539Y278359D01*
X329226Y279672D01*
X329226Y282299D01*
X331853Y282299D01*
X337972Y183725D02*
X337972Y175844D01*
X334031Y175844D01*
X332718Y177158D01*
X332718Y182411D01*
X334031Y183725D01*
X337972Y183725D01*
X329552Y181098D02*
X326925Y183725D01*
X326925Y175844D01*
X329552Y175844D02*
X324298Y175844D01*
X337667Y202921D02*
X337667Y210801D01*
X337667Y202921D02*
X333726Y202921D01*
X332413Y204234D01*
X332413Y209488D01*
X333726Y210801D01*
X337667Y210801D01*
X329247Y202921D02*
X323993Y202921D01*
X323993Y208174D02*
X329247Y202921D01*
X323993Y208174D02*
X323993Y209488D01*
X325307Y210801D01*
X327934Y210801D01*
X329247Y209488D01*
X251993Y47022D02*
X251993Y39141D01*
X248053Y39141D01*
X246740Y40455D01*
X246740Y45709D01*
X248053Y47022D01*
X251993Y47022D01*
X243574Y47022D02*
X238320Y47022D01*
X238320Y45709D01*
X243574Y40455D01*
X243574Y39141D01*
X195729Y47733D02*
X194416Y46420D01*
X195729Y47733D02*
X198356Y47733D01*
X199669Y46420D01*
X199669Y41166D01*
X198356Y39853D01*
X195729Y39853D01*
X194416Y41166D01*
X194416Y43793D01*
X197043Y43793D01*
X278315Y47225D02*
X279629Y45912D01*
X278315Y47225D02*
X275688Y47225D01*
X274375Y45912D01*
X274375Y44598D01*
X275688Y43285D01*
X277002Y43285D01*
X275688Y43285D02*
X274375Y41972D01*
X274375Y40658D01*
X275688Y39345D01*
X278315Y39345D01*
X279629Y40658D01*
X271209Y41972D02*
X271209Y47225D01*
X271209Y41972D02*
X268582Y39345D01*
X265955Y41972D01*
X265955Y47225D01*
X434670Y48445D02*
X434670Y43191D01*
X432043Y40564D01*
X429416Y43191D01*
X429416Y48445D01*
X426251Y44504D02*
X420997Y44504D01*
X423624Y47131D02*
X423624Y41877D01*
D410*
X184404Y36220D02*
X184404Y9703D01*
X184404Y36220D02*
X285344Y36220D01*
X285344Y9703D02*
X184760Y9703D01*
X286715Y10058D02*
X286512Y36017D01*
X342087Y36779D02*
X342087Y9754D01*
X342290Y36982D02*
X443636Y36982D01*
X443636Y10262D01*
X342290Y10262D01*
X366471Y117043D02*
X366471Y322021D01*
X339649Y322021D01*
X339649Y323037D02*
X340665Y323037D01*
X340665Y117043D01*
X366471Y117043D01*
X137922Y117348D02*
X137566Y117348D01*
X137566Y321666D01*
X112116Y321666D01*
X112116Y117704D01*
X112522Y117043D02*
X136957Y117043D01*
X278181Y120548D02*
X278183Y120514D01*
X278189Y120480D01*
X278198Y120447D01*
X278211Y120416D01*
X278228Y120386D01*
X278248Y120358D01*
X278270Y120332D01*
X278296Y120310D01*
X278324Y120290D01*
X278354Y120273D01*
X278385Y120260D01*
X278418Y120251D01*
X278452Y120245D01*
X278486Y120243D01*
X278486Y120244D02*
X286918Y120244D01*
X286881Y120242D01*
X286844Y120236D01*
X286808Y120227D01*
X286773Y120213D01*
X286740Y120196D01*
X286709Y120176D01*
X286680Y120153D01*
X286653Y120126D01*
X286630Y120097D01*
X286610Y120066D01*
X286593Y120033D01*
X286579Y119998D01*
X286570Y119962D01*
X286564Y119925D01*
X286562Y119888D01*
X286563Y119888D02*
X286563Y95809D01*
X277876Y95809D01*
X277910Y95807D01*
X277944Y95801D01*
X277977Y95792D01*
X278008Y95779D01*
X278038Y95762D01*
X278066Y95742D01*
X278092Y95720D01*
X278114Y95694D01*
X278134Y95666D01*
X278151Y95636D01*
X278164Y95605D01*
X278173Y95572D01*
X278179Y95538D01*
X278181Y95504D01*
X278181Y95453D01*
X243282Y96164D02*
X243280Y96127D01*
X243274Y96090D01*
X243265Y96054D01*
X243251Y96019D01*
X243234Y95986D01*
X243214Y95955D01*
X243191Y95926D01*
X243164Y95899D01*
X243135Y95876D01*
X243104Y95856D01*
X243071Y95839D01*
X243036Y95825D01*
X243000Y95816D01*
X242963Y95810D01*
X242926Y95808D01*
X242926Y95809D02*
X235966Y95809D01*
X235966Y95808D02*
X235929Y95810D01*
X235892Y95816D01*
X235856Y95825D01*
X235821Y95839D01*
X235788Y95856D01*
X235757Y95876D01*
X235728Y95899D01*
X235701Y95926D01*
X235678Y95955D01*
X235658Y95986D01*
X235641Y96019D01*
X235627Y96054D01*
X235618Y96090D01*
X235612Y96127D01*
X235610Y96164D01*
X235610Y118821D01*
X235612Y118858D01*
X235618Y118895D01*
X235627Y118931D01*
X235641Y118966D01*
X235658Y118999D01*
X235678Y119030D01*
X235701Y119059D01*
X235728Y119086D01*
X235757Y119109D01*
X235788Y119129D01*
X235821Y119146D01*
X235856Y119160D01*
X235892Y119169D01*
X235929Y119175D01*
X235966Y119177D01*
X240843Y119177D01*
X189585Y77775D02*
X189583Y77826D01*
X189578Y77876D01*
X189569Y77926D01*
X189556Y77975D01*
X189540Y78023D01*
X189521Y78070D01*
X189498Y78116D01*
X189472Y78159D01*
X189443Y78201D01*
X189411Y78241D01*
X189377Y78278D01*
X189340Y78312D01*
X189300Y78344D01*
X189258Y78373D01*
X189215Y78399D01*
X189169Y78422D01*
X189122Y78441D01*
X189074Y78457D01*
X189025Y78470D01*
X188975Y78479D01*
X188925Y78484D01*
X188874Y78486D01*
X189586Y77775D02*
X189586Y70104D01*
X189585Y70104D02*
X189587Y70141D01*
X189593Y70178D01*
X189602Y70214D01*
X189616Y70249D01*
X189633Y70282D01*
X189653Y70313D01*
X189676Y70342D01*
X189703Y70369D01*
X189732Y70392D01*
X189763Y70412D01*
X189796Y70429D01*
X189831Y70443D01*
X189867Y70452D01*
X189904Y70458D01*
X189941Y70460D01*
X213309Y70460D01*
X213309Y70459D02*
X213272Y70461D01*
X213235Y70467D01*
X213199Y70476D01*
X213164Y70490D01*
X213131Y70507D01*
X213100Y70527D01*
X213071Y70550D01*
X213044Y70577D01*
X213021Y70606D01*
X213001Y70637D01*
X212984Y70670D01*
X212970Y70705D01*
X212961Y70741D01*
X212955Y70778D01*
X212953Y70815D01*
X212954Y70815D02*
X212954Y77826D01*
X188163Y115164D02*
X188163Y120752D01*
X211887Y120752D01*
X211951Y120750D01*
X212016Y120744D01*
X212079Y120735D01*
X212142Y120721D01*
X212204Y120704D01*
X212265Y120683D01*
X212325Y120658D01*
X212383Y120630D01*
X212439Y120598D01*
X212493Y120563D01*
X212545Y120525D01*
X212595Y120484D01*
X212641Y120439D01*
X212686Y120393D01*
X212727Y120343D01*
X212765Y120291D01*
X212800Y120237D01*
X212832Y120181D01*
X212860Y120123D01*
X212885Y120063D01*
X212906Y120002D01*
X212923Y119940D01*
X212937Y119877D01*
X212946Y119814D01*
X212952Y119749D01*
X212954Y119685D01*
X212954Y114148D01*
D411*
X375361Y62636D02*
X375361Y361899D01*
X375361Y62636D02*
X375354Y62052D01*
X375333Y61468D01*
X375297Y60884D01*
X375248Y60302D01*
X375185Y59721D01*
X375107Y59142D01*
X375016Y58565D01*
X374911Y57990D01*
X374791Y57418D01*
X374658Y56849D01*
X374512Y56283D01*
X374351Y55722D01*
X374177Y55164D01*
X373990Y54610D01*
X373790Y54061D01*
X373576Y53517D01*
X373349Y52979D01*
X373109Y52446D01*
X372856Y51919D01*
X372591Y51399D01*
X372313Y50884D01*
X372023Y50377D01*
X371721Y49877D01*
X371407Y49385D01*
X371081Y48900D01*
X370743Y48423D01*
X370394Y47954D01*
X370033Y47494D01*
X369662Y47043D01*
X369280Y46601D01*
X368887Y46168D01*
X368484Y45745D01*
X368071Y45332D01*
X367648Y44929D01*
X367215Y44536D01*
X366773Y44154D01*
X366322Y43783D01*
X365862Y43422D01*
X365393Y43073D01*
X364916Y42735D01*
X364431Y42409D01*
X363939Y42095D01*
X363439Y41793D01*
X362932Y41503D01*
X362417Y41225D01*
X361897Y40960D01*
X361370Y40707D01*
X360837Y40467D01*
X360299Y40240D01*
X359755Y40026D01*
X359206Y39826D01*
X358652Y39639D01*
X358094Y39465D01*
X357533Y39304D01*
X356967Y39158D01*
X356398Y39025D01*
X355826Y38905D01*
X355251Y38800D01*
X354674Y38709D01*
X354095Y38631D01*
X353514Y38568D01*
X352932Y38519D01*
X352348Y38483D01*
X351764Y38462D01*
X351180Y38455D01*
X351180Y38456D02*
X134925Y38456D01*
X134238Y38464D01*
X133551Y38489D01*
X132864Y38531D01*
X132179Y38589D01*
X131496Y38663D01*
X130815Y38755D01*
X130136Y38862D01*
X129459Y38986D01*
X128786Y39126D01*
X128117Y39283D01*
X127452Y39455D01*
X126790Y39644D01*
X126134Y39848D01*
X125483Y40069D01*
X124837Y40305D01*
X124197Y40556D01*
X123564Y40823D01*
X122937Y41105D01*
X122317Y41402D01*
X121705Y41715D01*
X121100Y42041D01*
X120503Y42383D01*
X119915Y42738D01*
X119335Y43108D01*
X118765Y43492D01*
X118204Y43889D01*
X117652Y44300D01*
X117111Y44724D01*
X116581Y45161D01*
X116060Y45610D01*
X115551Y46072D01*
X115054Y46547D01*
X114568Y47033D01*
X114093Y47530D01*
X113631Y48039D01*
X113182Y48560D01*
X112745Y49090D01*
X112321Y49631D01*
X111910Y50183D01*
X111513Y50744D01*
X111129Y51314D01*
X110759Y51894D01*
X110404Y52482D01*
X110062Y53079D01*
X109736Y53684D01*
X109423Y54296D01*
X109126Y54916D01*
X108844Y55543D01*
X108577Y56176D01*
X108326Y56816D01*
X108090Y57462D01*
X107869Y58113D01*
X107665Y58769D01*
X107476Y59431D01*
X107304Y60096D01*
X107147Y60765D01*
X107007Y61438D01*
X106883Y62115D01*
X106776Y62794D01*
X106684Y63475D01*
X106610Y64158D01*
X106552Y64843D01*
X106510Y65530D01*
X106485Y66217D01*
X106477Y66904D01*
X106477Y330352D01*
X144170Y350317D01*
X145186Y362356D01*
D409*
X157225Y183014D02*
X157225Y175133D01*
X153285Y175133D01*
X151971Y176446D01*
X151971Y181700D01*
X153285Y183014D01*
X157225Y183014D01*
X148806Y181700D02*
X148806Y176446D01*
X148806Y181700D02*
X147492Y183014D01*
X144865Y183014D01*
X143552Y181700D01*
X143552Y176446D01*
X144865Y175133D01*
X147492Y175133D01*
X148806Y176446D01*
X143552Y181700D01*
X156768Y277698D02*
X156768Y285579D01*
X156768Y277698D02*
X152828Y277698D01*
X151514Y279012D01*
X151514Y284265D01*
X152828Y285579D01*
X156768Y285579D01*
X148348Y284265D02*
X147035Y285579D01*
X144408Y285579D01*
X143095Y284265D01*
X143095Y282952D01*
X144408Y281639D01*
X143095Y280325D01*
X143095Y279012D01*
X144408Y277698D01*
X147035Y277698D01*
X148348Y279012D01*
X148348Y280325D01*
X147035Y281639D01*
X148348Y282952D01*
X148348Y284265D01*
X147035Y281639D02*
X144408Y281639D01*
X157530Y208261D02*
X157530Y200381D01*
X153590Y200381D01*
X152276Y201694D01*
X152276Y206948D01*
X153590Y208261D01*
X157530Y208261D01*
X149110Y208261D02*
X143857Y208261D01*
X149110Y208261D02*
X149110Y204321D01*
X146483Y205634D01*
X145170Y205634D01*
X143857Y204321D01*
X143857Y201694D01*
X145170Y200381D01*
X147797Y200381D01*
X149110Y201694D01*
X156768Y228219D02*
X156768Y236100D01*
X156768Y228219D02*
X152828Y228219D01*
X151514Y229532D01*
X151514Y234786D01*
X152828Y236100D01*
X156768Y236100D01*
X145721Y234786D02*
X143095Y236100D01*
X145721Y234786D02*
X148348Y232159D01*
X148348Y229532D01*
X147035Y228219D01*
X144408Y228219D01*
X143095Y229532D01*
X143095Y230846D01*
X144408Y232159D01*
X148348Y232159D01*
X156260Y253365D02*
X156260Y261246D01*
X156260Y253365D02*
X152320Y253365D01*
X151006Y254678D01*
X151006Y259932D01*
X152320Y261246D01*
X156260Y261246D01*
X147840Y261246D02*
X142587Y261246D01*
X142587Y259932D01*
X147840Y254678D01*
X147840Y253365D01*
D412*
X453136Y343789D03*
D413*
X452882Y343535D03*
D414*
X452628Y343281D03*
D415*
X452374Y343154D03*
D416*
X452120Y342900D03*
D417*
X451866Y342773D03*
D418*
X451612Y342392D03*
X451358Y342138D03*
X451104Y341630D03*
D417*
X450850Y341249D03*
D418*
X450596Y340868D03*
D417*
X450342Y340487D03*
X450088Y339979D03*
X449834Y339725D03*
X449580Y339217D03*
D419*
X449580Y324866D03*
D417*
X449326Y338963D03*
D416*
X449326Y324358D03*
D418*
X449072Y338582D03*
D420*
X449072Y323723D03*
D417*
X448818Y338201D03*
D421*
X448818Y323088D03*
D417*
X448564Y337947D03*
D422*
X448564Y322580D03*
D418*
X448310Y337566D03*
D423*
X448310Y321818D03*
D418*
X448056Y337312D03*
D424*
X448056Y321056D03*
D419*
X448056Y236728D03*
D425*
X447802Y336931D03*
D426*
X447802Y319532D03*
D427*
X447802Y236728D03*
D418*
X447548Y336550D03*
D428*
X447548Y318389D03*
D427*
X447548Y236474D03*
D418*
X447294Y336296D03*
D428*
X447294Y317119D03*
D414*
X447294Y236347D03*
D425*
X447040Y336169D03*
D426*
X447040Y315722D03*
D414*
X447040Y236093D03*
D413*
X447040Y231267D03*
D429*
X446786Y335788D03*
D430*
X446786Y314325D03*
D427*
X446786Y235966D03*
D431*
X446786Y231521D03*
D429*
X446532Y335534D03*
D430*
X446532Y313055D03*
D427*
X446532Y235712D03*
D416*
X446532Y231648D03*
D432*
X446532Y228727D03*
D429*
X446278Y335280D03*
D433*
X446278Y311531D03*
D427*
X446278Y235458D03*
D418*
X446278Y231902D03*
D419*
X446278Y228346D03*
D420*
X446024Y334899D03*
D434*
X446024Y310007D03*
D427*
X446024Y235204D03*
D418*
X446024Y232156D03*
D427*
X446024Y228092D03*
D432*
X446024Y225171D03*
D420*
X445770Y334645D03*
D435*
X445770Y308102D03*
D420*
X445770Y233807D03*
D414*
X445770Y227965D03*
D413*
X445770Y225425D03*
D432*
X445516Y341757D03*
D420*
X445516Y334391D03*
D436*
X445516Y306070D03*
D425*
X445516Y234061D03*
D420*
X445516Y226695D03*
D414*
X445262Y341503D03*
D437*
X445262Y334010D03*
D438*
X445262Y304038D03*
D417*
X445262Y234061D03*
D429*
X445262Y226568D03*
D431*
X445008Y341249D03*
D437*
X445008Y333756D03*
D439*
X445008Y301879D03*
D431*
X445008Y234061D03*
D425*
X445008Y226441D03*
D418*
X444754Y340868D03*
D413*
X444754Y334899D03*
D415*
X444754Y332232D03*
D440*
X444754Y299720D03*
D414*
X444754Y234061D03*
D418*
X444754Y226314D03*
D429*
X444500Y340360D03*
D413*
X444500Y334645D03*
D414*
X444500Y331851D03*
D441*
X444500Y297307D03*
D412*
X444500Y267589D03*
D427*
X444500Y234188D03*
D418*
X444500Y226314D03*
D437*
X444246Y339852D03*
D413*
X444246Y334391D03*
D415*
X444246Y331470D03*
D442*
X444246Y294767D03*
D413*
X444246Y267589D03*
D419*
X444246Y245110D03*
D414*
X444246Y234061D03*
D425*
X444246Y226441D03*
D420*
X443992Y339217D03*
D413*
X443992Y334137D03*
D415*
X443992Y331216D03*
D443*
X443992Y292100D03*
D427*
X443992Y267462D03*
D418*
X443992Y245618D03*
D415*
X443992Y234188D03*
D429*
X443992Y226568D03*
D437*
X443738Y338582D03*
D427*
X443738Y334010D03*
D416*
X443738Y331216D03*
D444*
X443738Y289179D03*
D414*
X443738Y267335D03*
D445*
X443738Y246380D03*
D431*
X443738Y234061D03*
D429*
X443738Y226568D03*
D437*
X443484Y337820D03*
D427*
X443484Y333756D03*
D416*
X443484Y330962D03*
D446*
X443484Y285877D03*
D414*
X443484Y267335D03*
D447*
X443484Y247396D03*
D431*
X443484Y234061D03*
D420*
X443484Y226695D03*
X443230Y337185D03*
D427*
X443230Y333502D03*
D448*
X443230Y331978D03*
D415*
X443230Y330200D03*
D449*
X443230Y280924D03*
D431*
X443230Y267335D03*
D434*
X443230Y248539D03*
D417*
X443230Y234061D03*
D414*
X443230Y227965D03*
X443230Y225679D03*
D422*
X442976Y335534D03*
D432*
X442976Y331597D03*
D427*
X442976Y329946D03*
D450*
X442976Y266446D03*
D417*
X442976Y234061D03*
D427*
X442976Y228092D03*
X442976Y225552D03*
D451*
X442722Y335026D03*
D427*
X442722Y329692D03*
D452*
X442722Y265557D03*
D419*
X442722Y234950D03*
D413*
X442722Y233045D03*
D427*
X442722Y228346D03*
X442722Y225552D03*
D453*
X442468Y332994D03*
D454*
X442468Y264922D03*
D413*
X442468Y235077D03*
D419*
X442468Y232918D03*
D413*
X442468Y228473D03*
X442468Y225425D03*
D424*
X442214Y332486D03*
D419*
X442214Y324866D03*
D455*
X442214Y264287D03*
D419*
X442214Y235204D03*
D412*
X442214Y232791D03*
D427*
X442214Y228600D03*
D419*
X442214Y225298D03*
D430*
X441960Y332105D03*
D414*
X441960Y324739D03*
D456*
X441960Y263271D03*
D419*
X441960Y235204D03*
D412*
X441960Y232537D03*
D413*
X441960Y228727D03*
D412*
X441960Y225171D03*
D426*
X441706Y331470D03*
D415*
X441706Y324612D03*
D457*
X441706Y261747D03*
D412*
X441706Y235331D03*
D448*
X441706Y232410D03*
D419*
X441706Y228854D03*
D458*
X441706Y225044D03*
D424*
X441452Y330708D03*
D416*
X441452Y324612D03*
D427*
X441452Y321818D03*
D419*
X441452Y318262D03*
D416*
X441452Y265938D03*
D412*
X441452Y235331D03*
X441452Y228981D03*
D439*
X441198Y327279D03*
D414*
X441198Y318135D03*
D416*
X441198Y265684D03*
D448*
X441198Y235458D03*
D439*
X440944Y326771D03*
D431*
X440944Y317881D03*
D414*
X440944Y305435D03*
D416*
X440944Y265684D03*
D459*
X440690Y326390D03*
D416*
X440690Y317754D03*
X440690Y305308D03*
D419*
X440690Y302514D03*
D416*
X440690Y265430D03*
D460*
X440436Y325882D03*
D417*
X440436Y317627D03*
D418*
X440436Y305308D03*
D431*
X440436Y302133D03*
D412*
X440436Y296037D03*
D416*
X440436Y265176D03*
D461*
X440182Y323850D03*
D462*
X440182Y303657D03*
D448*
X440182Y299720D03*
D413*
X440182Y296037D03*
D417*
X440182Y265049D03*
D420*
X439928Y329565D03*
D436*
X439928Y321310D03*
D419*
X439928Y308864D03*
D424*
X439928Y302768D03*
D415*
X439928Y295910D03*
D417*
X439928Y264795D03*
D429*
X439674Y329184D03*
D463*
X439674Y323977D03*
D464*
X439674Y318389D03*
D414*
X439674Y308737D03*
D413*
X439674Y306197D03*
D465*
X439674Y301625D03*
D416*
X439674Y295910D03*
D417*
X439674Y264795D03*
D420*
X439420Y329057D03*
D466*
X439420Y323723D03*
D464*
X439420Y318135D03*
D431*
X439420Y308483D03*
D413*
X439420Y306197D03*
D467*
X439420Y299466D03*
D417*
X439420Y264541D03*
D420*
X439166Y328803D03*
X439166Y323215D03*
D464*
X439166Y317881D03*
D420*
X439166Y307467D03*
D467*
X439166Y299212D03*
D419*
X439166Y283718D03*
D418*
X439166Y264414D03*
D420*
X438912Y328549D03*
D429*
X438912Y323088D03*
D464*
X438912Y317627D03*
D429*
X438912Y307340D03*
D427*
X438912Y303022D03*
D426*
X438912Y297434D03*
D414*
X438912Y283591D03*
D432*
X438912Y278765D03*
D418*
X438912Y264160D03*
D420*
X438658Y328295D03*
D425*
X438658Y322707D03*
D468*
X438658Y317119D03*
D429*
X438658Y307086D03*
D413*
X438658Y302895D03*
D424*
X438658Y297434D03*
D431*
X438658Y283591D03*
D416*
X438658Y279146D03*
D425*
X438658Y264033D03*
D420*
X438404Y328041D03*
D418*
X438404Y322580D03*
D416*
X438404Y318516D03*
D425*
X438404Y315087D03*
D418*
X438404Y306832D03*
D413*
X438404Y302641D03*
D464*
X438404Y298577D03*
D431*
X438404Y294259D03*
D417*
X438404Y283337D03*
D425*
X438404Y279019D03*
D412*
X438404Y275717D03*
D425*
X438404Y263779D03*
D420*
X438150Y327787D03*
D431*
X438150Y322453D03*
X438150Y318389D03*
D429*
X438150Y314960D03*
D418*
X438150Y306578D03*
D413*
X438150Y302387D03*
D458*
X438150Y300990D03*
D445*
X438150Y298196D03*
D431*
X438150Y294005D03*
D418*
X438150Y283210D03*
D422*
X438150Y277876D03*
D425*
X438150Y263525D03*
D429*
X437896Y327660D03*
D414*
X437896Y322453D03*
D415*
X437896Y318262D03*
D429*
X437896Y314706D03*
D416*
X437896Y306324D03*
D419*
X437896Y302006D03*
D458*
X437896Y300736D03*
D427*
X437896Y299466D03*
D416*
X437896Y296926D03*
D431*
X437896Y293751D03*
D469*
X437896Y279527D03*
D420*
X437896Y263271D03*
X437642Y327533D03*
D412*
X437642Y322199D03*
D415*
X437642Y318008D03*
D425*
X437642Y314579D03*
D416*
X437642Y306070D03*
D419*
X437642Y301752D03*
D413*
X437642Y299339D03*
D415*
X437642Y296672D03*
X437642Y293370D03*
D470*
X437642Y279400D03*
D414*
X437642Y272161D03*
D463*
X437642Y262509D03*
D427*
X437388Y328422D03*
X437388Y326136D03*
D415*
X437388Y318008D03*
D418*
X437388Y314452D03*
D431*
X437388Y305689D03*
D425*
X437388Y300355D03*
D415*
X437388Y296418D03*
D431*
X437388Y292989D03*
D471*
X437388Y277622D03*
D462*
X437388Y261747D03*
D413*
X437134Y328295D03*
D427*
X437134Y325882D03*
D415*
X437134Y317754D03*
D417*
X437134Y314325D03*
D431*
X437134Y305435D03*
D425*
X437134Y300101D03*
D415*
X437134Y296164D03*
D418*
X437134Y292608D03*
D463*
X437134Y282067D03*
D430*
X437134Y274447D03*
D426*
X437134Y260858D03*
D448*
X437134Y253492D03*
D419*
X436880Y328168D03*
D427*
X436880Y325628D03*
D414*
X436880Y317627D03*
X436880Y313817D03*
D431*
X436880Y305181D03*
D418*
X436880Y299974D03*
D431*
X436880Y296037D03*
D425*
X436880Y292227D03*
D463*
X436880Y281813D03*
D426*
X436880Y274066D03*
D453*
X436880Y260350D03*
D415*
X436880Y253238D03*
D419*
X436626Y327914D03*
D427*
X436626Y325374D03*
D415*
X436626Y317500D03*
D431*
X436626Y304927D03*
D416*
X436626Y299974D03*
D431*
X436626Y295783D03*
D429*
X436626Y292100D03*
D445*
X436626Y281686D03*
D428*
X436626Y273939D03*
D457*
X436626Y258191D03*
D419*
X436372Y327660D03*
D413*
X436372Y325247D03*
D415*
X436372Y317246D03*
D431*
X436372Y304673D03*
D415*
X436372Y299720D03*
D431*
X436372Y295783D03*
D429*
X436372Y291846D03*
D445*
X436372Y281432D03*
D423*
X436372Y273812D03*
D471*
X436372Y258064D03*
D413*
X436118Y327533D03*
X436118Y324993D03*
D414*
X436118Y317119D03*
D431*
X436118Y304419D03*
D427*
X436118Y299720D03*
D431*
X436118Y295529D03*
D429*
X436118Y291846D03*
D437*
X436118Y281178D03*
D421*
X436118Y274574D03*
D441*
X436118Y257937D03*
D413*
X435864Y327279D03*
X435864Y324739D03*
D415*
X435864Y316992D03*
D431*
X435864Y304165D03*
D412*
X435864Y299593D03*
D416*
X435864Y295402D03*
D425*
X435864Y291719D03*
D437*
X435864Y280924D03*
D421*
X435864Y274320D03*
D442*
X435864Y257683D03*
D414*
X435864Y248031D03*
D413*
X435610Y327025D03*
D414*
X435610Y324739D03*
D415*
X435610Y316738D03*
D431*
X435610Y303911D03*
D416*
X435610Y295148D03*
D413*
X435610Y290703D03*
D420*
X435610Y280543D03*
D414*
X435610Y275717D03*
D416*
X435610Y273050D03*
D445*
X435610Y262890D03*
D467*
X435610Y254762D03*
D417*
X435610Y247777D03*
D427*
X435356Y326644D03*
X435356Y324612D03*
D431*
X435356Y316611D03*
D416*
X435356Y303784D03*
X435356Y295148D03*
D425*
X435356Y280289D03*
D427*
X435356Y275590D03*
D431*
X435356Y272923D03*
D466*
X435356Y262763D03*
D431*
X435356Y258699D03*
D472*
X435356Y251079D03*
D427*
X435102Y326390D03*
X435102Y324358D03*
D415*
X435102Y316484D03*
D416*
X435102Y303530D03*
X435102Y294894D03*
X435102Y279654D03*
D413*
X435102Y275463D03*
D431*
X435102Y272669D03*
D466*
X435102Y262509D03*
D415*
X435102Y258572D03*
D470*
X435102Y250444D03*
D413*
X434848Y326263D03*
D427*
X434848Y324104D03*
D415*
X434848Y316230D03*
D416*
X434848Y303276D03*
D417*
X434848Y294767D03*
D431*
X434848Y279273D03*
D412*
X434848Y275463D03*
D415*
X434848Y272542D03*
D466*
X434848Y262255D03*
D414*
X434848Y258445D03*
D467*
X434848Y250190D03*
D427*
X434594Y326136D03*
X434594Y324104D03*
D431*
X434594Y316103D03*
D416*
X434594Y303022D03*
X434594Y294640D03*
D415*
X434594Y279146D03*
D414*
X434594Y272415D03*
D466*
X434594Y262001D03*
D419*
X434594Y258064D03*
D418*
X434594Y253492D03*
D422*
X434594Y248158D03*
D429*
X434340Y324866D03*
D431*
X434340Y315849D03*
D417*
X434340Y302895D03*
X434340Y294513D03*
D415*
X434340Y278892D03*
D427*
X434340Y272288D03*
D437*
X434340Y261620D03*
D427*
X434340Y258318D03*
D425*
X434340Y253365D03*
D417*
X434340Y249301D03*
D415*
X434340Y246126D03*
D429*
X434086Y324612D03*
D431*
X434086Y315849D03*
D417*
X434086Y302641D03*
X434086Y294259D03*
D415*
X434086Y278638D03*
D419*
X434086Y272288D03*
D422*
X434086Y260350D03*
D425*
X434086Y253111D03*
D417*
X434086Y249047D03*
D429*
X433832Y324358D03*
D431*
X433832Y315595D03*
D417*
X433832Y302387D03*
X433832Y294259D03*
D415*
X433832Y278638D03*
D468*
X433832Y260223D03*
D413*
X433832Y254127D03*
D414*
X433832Y252095D03*
D418*
X433832Y248666D03*
D425*
X433578Y324231D03*
D416*
X433578Y315468D03*
D417*
X433578Y302133D03*
X433578Y294005D03*
D415*
X433578Y278384D03*
D464*
X433578Y260223D03*
D419*
X433578Y254000D03*
D413*
X433578Y251841D03*
D417*
X433578Y248285D03*
D425*
X433324Y323977D03*
D431*
X433324Y315341D03*
D417*
X433324Y301879D03*
X433324Y294005D03*
D415*
X433324Y278130D03*
D421*
X433324Y260096D03*
D419*
X433324Y253746D03*
D413*
X433324Y251587D03*
D418*
X433324Y247904D03*
D429*
X433070Y323850D03*
D431*
X433070Y315087D03*
D418*
X433070Y301752D03*
D417*
X433070Y293751D03*
D414*
X433070Y278003D03*
D463*
X433070Y259969D03*
D419*
X433070Y253492D03*
D413*
X433070Y251587D03*
D418*
X433070Y247650D03*
D429*
X432816Y323596D03*
D431*
X432816Y314833D03*
D417*
X432816Y301625D03*
X432816Y293497D03*
D414*
X432816Y277749D03*
D445*
X432816Y259842D03*
D419*
X432816Y253238D03*
D413*
X432816Y251587D03*
D425*
X432816Y247269D03*
X432562Y323469D03*
D431*
X432562Y314833D03*
D417*
X432562Y301371D03*
X432562Y293497D03*
D415*
X432562Y277622D03*
D437*
X432562Y259842D03*
D416*
X432562Y252222D03*
D429*
X432562Y246888D03*
D425*
X432308Y323215D03*
D431*
X432308Y314579D03*
D417*
X432308Y301117D03*
X432308Y293243D03*
D414*
X432308Y277495D03*
X432308Y260731D03*
D415*
X432308Y252222D03*
D425*
X432308Y246507D03*
X432054Y322961D03*
D415*
X432054Y314452D03*
D417*
X432054Y300863D03*
D418*
X432054Y293116D03*
D414*
X432054Y277241D03*
D419*
X432054Y260604D03*
D414*
X432054Y252095D03*
D425*
X432054Y246253D03*
D418*
X431800Y322834D03*
D415*
X431800Y314198D03*
D418*
X431800Y300736D03*
D417*
X431800Y292989D03*
D415*
X431800Y277114D03*
D448*
X431800Y251968D03*
D418*
X431800Y246126D03*
X431546Y322580D03*
D415*
X431546Y314198D03*
D418*
X431546Y300482D03*
D417*
X431546Y292735D03*
D415*
X431546Y276860D03*
D416*
X431546Y245872D03*
D417*
X431292Y322453D03*
D415*
X431292Y313944D03*
D418*
X431292Y300228D03*
X431292Y292608D03*
D414*
X431292Y276733D03*
D415*
X431292Y245872D03*
D417*
X431038Y322199D03*
D414*
X431038Y313817D03*
D418*
X431038Y299974D03*
D417*
X431038Y292481D03*
D414*
X431038Y276479D03*
D427*
X431038Y245872D03*
D417*
X430784Y321945D03*
D415*
X430784Y313690D03*
D417*
X430784Y299847D03*
X430784Y292227D03*
D415*
X430784Y276352D03*
D416*
X430530Y321818D03*
D414*
X430530Y313563D03*
D417*
X430530Y299593D03*
D418*
X430530Y292100D03*
D414*
X430530Y276225D03*
D416*
X430276Y321564D03*
D414*
X430276Y313309D03*
D417*
X430276Y299339D03*
X430276Y291973D03*
D414*
X430276Y275971D03*
D416*
X430022Y321564D03*
D427*
X430022Y313182D03*
D417*
X430022Y299085D03*
X430022Y291719D03*
D415*
X430022Y275844D03*
D431*
X429768Y321437D03*
D427*
X429768Y313182D03*
D418*
X429768Y298958D03*
D417*
X429768Y291719D03*
D415*
X429768Y275590D03*
D431*
X429514Y321183D03*
D432*
X429514Y313055D03*
D417*
X429514Y298831D03*
D416*
X429514Y291592D03*
D414*
X429514Y275463D03*
D415*
X429260Y321056D03*
D416*
X429260Y298704D03*
X429260Y291338D03*
D414*
X429260Y275209D03*
X429006Y320929D03*
D416*
X429006Y298450D03*
D431*
X429006Y291211D03*
D414*
X429006Y275209D03*
D413*
X428752Y320929D03*
D431*
X428752Y298323D03*
D414*
X428752Y291211D03*
D413*
X428752Y275209D03*
D448*
X428498Y320802D03*
D415*
X428498Y298196D03*
D413*
X428498Y290957D03*
D419*
X428498Y275082D03*
D414*
X428244Y298069D03*
D419*
X427990Y297942D03*
D409*
X336905Y235693D02*
X336905Y227813D01*
X332964Y227813D01*
X331651Y229126D01*
X331651Y234380D01*
X332964Y235693D01*
X336905Y235693D01*
X328485Y234380D02*
X327172Y235693D01*
X324545Y235693D01*
X323231Y234380D01*
X323231Y233066D01*
X324545Y231753D01*
X325858Y231753D01*
X324545Y231753D02*
X323231Y230440D01*
X323231Y229126D01*
X324545Y227813D01*
X327172Y227813D01*
X328485Y229126D01*
D411*
X179578Y302768D02*
X179578Y309118D01*
X180340Y260858D02*
X180340Y254762D01*
X180848Y254762D02*
X205740Y254762D01*
X205740Y260350D01*
X204978Y309118D02*
X180340Y309118D01*
X204978Y309118D02*
X204978Y304292D01*
D473*
X424942Y11176D02*
X437642Y11176D01*
X443992Y17526D01*
X443992Y30226D02*
X437642Y36576D01*
X399542Y11176D02*
X393192Y17526D01*
X399542Y11176D02*
X412242Y11176D01*
X418592Y17526D01*
X418592Y30226D02*
X412242Y36576D01*
X399542Y36576D01*
X393192Y30226D01*
X418592Y17526D02*
X424942Y11176D01*
X418592Y30226D02*
X424942Y36576D01*
X437642Y36576D01*
X361442Y11176D02*
X348742Y11176D01*
X361442Y11176D02*
X367792Y17526D01*
X367792Y30226D02*
X361442Y36576D01*
X367792Y17526D02*
X374142Y11176D01*
X386842Y11176D01*
X393192Y17526D01*
X393192Y30226D02*
X386842Y36576D01*
X374142Y36576D01*
X367792Y30226D01*
X342392Y30226D02*
X342392Y17526D01*
X348742Y11176D01*
X342392Y30226D02*
X348742Y36576D01*
X361442Y36576D01*
X443992Y30226D02*
X443992Y17526D01*
X203962Y35306D02*
X191262Y35306D01*
X184912Y28956D01*
X184912Y16256D02*
X191262Y9906D01*
X229362Y35306D02*
X235712Y28956D01*
X229362Y35306D02*
X216662Y35306D01*
X210312Y28956D01*
X210312Y16256D02*
X216662Y9906D01*
X229362Y9906D01*
X235712Y16256D01*
X210312Y28956D02*
X203962Y35306D01*
X210312Y16256D02*
X203962Y9906D01*
X191262Y9906D01*
X267462Y35306D02*
X280162Y35306D01*
X267462Y35306D02*
X261112Y28956D01*
X261112Y16256D02*
X267462Y9906D01*
X261112Y28956D02*
X254762Y35306D01*
X242062Y35306D01*
X235712Y28956D01*
X235712Y16256D02*
X242062Y9906D01*
X254762Y9906D01*
X261112Y16256D01*
X286512Y16256D02*
X286512Y28956D01*
X280162Y35306D01*
X286512Y16256D02*
X280162Y9906D01*
X267462Y9906D01*
X184912Y16256D02*
X184912Y28956D01*
X137414Y276860D02*
X137414Y289560D01*
X131064Y295910D01*
X118364Y295910D02*
X112014Y289560D01*
X137414Y251460D02*
X131064Y245110D01*
X137414Y251460D02*
X137414Y264160D01*
X131064Y270510D01*
X118364Y270510D02*
X112014Y264160D01*
X112014Y251460D01*
X118364Y245110D01*
X131064Y270510D02*
X137414Y276860D01*
X118364Y270510D02*
X112014Y276860D01*
X112014Y289560D01*
X137414Y213360D02*
X137414Y200660D01*
X137414Y213360D02*
X131064Y219710D01*
X118364Y219710D02*
X112014Y213360D01*
X131064Y219710D02*
X137414Y226060D01*
X137414Y238760D01*
X131064Y245110D01*
X118364Y245110D02*
X112014Y238760D01*
X112014Y226060D01*
X118364Y219710D01*
X137414Y175260D02*
X131064Y168910D01*
X137414Y175260D02*
X137414Y187960D01*
X131064Y194310D01*
X118364Y194310D02*
X112014Y187960D01*
X112014Y175260D01*
X118364Y168910D01*
X131064Y194310D02*
X137414Y200660D01*
X118364Y194310D02*
X112014Y200660D01*
X112014Y213360D01*
X137414Y137160D02*
X137414Y124460D01*
X137414Y137160D02*
X131064Y143510D01*
X118364Y143510D02*
X112014Y137160D01*
X131064Y143510D02*
X137414Y149860D01*
X137414Y162560D01*
X131064Y168910D01*
X118364Y168910D02*
X112014Y162560D01*
X112014Y149860D01*
X118364Y143510D01*
X118364Y118110D02*
X131064Y118110D01*
X137414Y124460D01*
X118364Y118110D02*
X112014Y124460D01*
X112014Y137160D01*
X137414Y302260D02*
X137414Y314960D01*
X131064Y321310D01*
X118364Y321310D01*
X112014Y314960D01*
X131064Y295910D02*
X137414Y302260D01*
X118364Y295910D02*
X112014Y302260D01*
X112014Y314960D01*
X340614Y162560D02*
X340614Y149860D01*
X346964Y143510D01*
X359664Y143510D02*
X366014Y149860D01*
X340614Y187960D02*
X346964Y194310D01*
X340614Y187960D02*
X340614Y175260D01*
X346964Y168910D01*
X359664Y168910D02*
X366014Y175260D01*
X366014Y187960D01*
X359664Y194310D01*
X346964Y168910D02*
X340614Y162560D01*
X359664Y168910D02*
X366014Y162560D01*
X366014Y149860D01*
X340614Y226060D02*
X340614Y238760D01*
X340614Y226060D02*
X346964Y219710D01*
X359664Y219710D02*
X366014Y226060D01*
X346964Y219710D02*
X340614Y213360D01*
X340614Y200660D01*
X346964Y194310D01*
X359664Y194310D02*
X366014Y200660D01*
X366014Y213360D01*
X359664Y219710D01*
X340614Y264160D02*
X346964Y270510D01*
X340614Y264160D02*
X340614Y251460D01*
X346964Y245110D01*
X359664Y245110D02*
X366014Y251460D01*
X366014Y264160D01*
X359664Y270510D01*
X346964Y245110D02*
X340614Y238760D01*
X359664Y245110D02*
X366014Y238760D01*
X366014Y226060D01*
X340614Y302260D02*
X340614Y314960D01*
X340614Y302260D02*
X346964Y295910D01*
X359664Y295910D02*
X366014Y302260D01*
X346964Y295910D02*
X340614Y289560D01*
X340614Y276860D01*
X346964Y270510D01*
X359664Y270510D02*
X366014Y276860D01*
X366014Y289560D01*
X359664Y295910D01*
X359664Y321310D02*
X346964Y321310D01*
X340614Y314960D01*
X359664Y321310D02*
X366014Y314960D01*
X366014Y302260D01*
X340614Y137160D02*
X340614Y124460D01*
X346964Y118110D01*
X359664Y118110D01*
X366014Y124460D01*
X346964Y143510D02*
X340614Y137160D01*
X359664Y143510D02*
X366014Y137160D01*
X366014Y124460D01*
D409*
X79356Y12338D02*
X29356Y12338D01*
X79356Y12338D02*
X79356Y52338D01*
X79356Y62338D01*
X69356Y62338D01*
X29356Y62338D01*
X29356Y12338D01*
X69356Y62338D02*
X79356Y52338D01*
X82282Y64218D02*
X82284Y64293D01*
X82290Y64367D01*
X82300Y64441D01*
X82313Y64514D01*
X82331Y64587D01*
X82352Y64658D01*
X82377Y64729D01*
X82406Y64798D01*
X82439Y64865D01*
X82475Y64930D01*
X82514Y64994D01*
X82556Y65055D01*
X82602Y65114D01*
X82651Y65171D01*
X82703Y65224D01*
X82757Y65275D01*
X82814Y65324D01*
X82874Y65368D01*
X82936Y65410D01*
X83000Y65449D01*
X83066Y65484D01*
X83133Y65515D01*
X83203Y65543D01*
X83273Y65567D01*
X83345Y65588D01*
X83418Y65604D01*
X83491Y65617D01*
X83566Y65626D01*
X83640Y65631D01*
X83715Y65632D01*
X83789Y65629D01*
X83864Y65622D01*
X83937Y65611D01*
X84011Y65597D01*
X84083Y65578D01*
X84154Y65556D01*
X84224Y65530D01*
X84293Y65500D01*
X84359Y65467D01*
X84424Y65430D01*
X84487Y65390D01*
X84548Y65346D01*
X84606Y65300D01*
X84662Y65250D01*
X84715Y65198D01*
X84766Y65143D01*
X84813Y65085D01*
X84857Y65025D01*
X84898Y64962D01*
X84936Y64898D01*
X84970Y64832D01*
X85001Y64763D01*
X85028Y64694D01*
X85051Y64623D01*
X85070Y64551D01*
X85086Y64478D01*
X85098Y64404D01*
X85106Y64330D01*
X85110Y64255D01*
X85110Y64181D01*
X85106Y64106D01*
X85098Y64032D01*
X85086Y63958D01*
X85070Y63885D01*
X85051Y63813D01*
X85028Y63742D01*
X85001Y63673D01*
X84970Y63604D01*
X84936Y63538D01*
X84898Y63474D01*
X84857Y63411D01*
X84813Y63351D01*
X84766Y63293D01*
X84715Y63238D01*
X84662Y63186D01*
X84606Y63136D01*
X84548Y63090D01*
X84487Y63046D01*
X84424Y63006D01*
X84359Y62969D01*
X84293Y62936D01*
X84224Y62906D01*
X84154Y62880D01*
X84083Y62858D01*
X84011Y62839D01*
X83937Y62825D01*
X83864Y62814D01*
X83789Y62807D01*
X83715Y62804D01*
X83640Y62805D01*
X83566Y62810D01*
X83491Y62819D01*
X83418Y62832D01*
X83345Y62848D01*
X83273Y62869D01*
X83203Y62893D01*
X83133Y62921D01*
X83066Y62952D01*
X83000Y62987D01*
X82936Y63026D01*
X82874Y63068D01*
X82814Y63112D01*
X82757Y63161D01*
X82703Y63212D01*
X82651Y63265D01*
X82602Y63322D01*
X82556Y63381D01*
X82514Y63442D01*
X82475Y63506D01*
X82439Y63571D01*
X82406Y63638D01*
X82377Y63707D01*
X82352Y63778D01*
X82331Y63849D01*
X82313Y63922D01*
X82300Y63995D01*
X82290Y64069D01*
X82284Y64143D01*
X82282Y64218D01*
X33356Y37338D02*
X33362Y37853D01*
X33381Y38368D01*
X33413Y38883D01*
X33457Y39396D01*
X33514Y39909D01*
X33583Y40419D01*
X33665Y40928D01*
X33760Y41435D01*
X33866Y41939D01*
X33985Y42441D01*
X34117Y42939D01*
X34260Y43434D01*
X34416Y43925D01*
X34584Y44413D01*
X34763Y44896D01*
X34955Y45374D01*
X35158Y45848D01*
X35372Y46317D01*
X35598Y46780D01*
X35836Y47237D01*
X36084Y47689D01*
X36344Y48134D01*
X36614Y48573D01*
X36895Y49005D01*
X37187Y49430D01*
X37489Y49848D01*
X37801Y50258D01*
X38123Y50660D01*
X38455Y51055D01*
X38796Y51441D01*
X39147Y51818D01*
X39507Y52187D01*
X39876Y52547D01*
X40253Y52898D01*
X40639Y53239D01*
X41034Y53571D01*
X41436Y53893D01*
X41846Y54205D01*
X42264Y54507D01*
X42689Y54799D01*
X43121Y55080D01*
X43560Y55350D01*
X44005Y55610D01*
X44457Y55858D01*
X44914Y56096D01*
X45377Y56322D01*
X45846Y56536D01*
X46320Y56739D01*
X46798Y56931D01*
X47281Y57110D01*
X47769Y57278D01*
X48260Y57434D01*
X48755Y57577D01*
X49253Y57709D01*
X49755Y57828D01*
X50259Y57934D01*
X50766Y58029D01*
X51275Y58111D01*
X51785Y58180D01*
X52298Y58237D01*
X52811Y58281D01*
X53326Y58313D01*
X53841Y58332D01*
X54356Y58338D01*
X54871Y58332D01*
X55386Y58313D01*
X55901Y58281D01*
X56414Y58237D01*
X56927Y58180D01*
X57437Y58111D01*
X57946Y58029D01*
X58453Y57934D01*
X58957Y57828D01*
X59459Y57709D01*
X59957Y57577D01*
X60452Y57434D01*
X60943Y57278D01*
X61431Y57110D01*
X61914Y56931D01*
X62392Y56739D01*
X62866Y56536D01*
X63335Y56322D01*
X63798Y56096D01*
X64255Y55858D01*
X64707Y55610D01*
X65152Y55350D01*
X65591Y55080D01*
X66023Y54799D01*
X66448Y54507D01*
X66866Y54205D01*
X67276Y53893D01*
X67678Y53571D01*
X68073Y53239D01*
X68459Y52898D01*
X68836Y52547D01*
X69205Y52187D01*
X69565Y51818D01*
X69916Y51441D01*
X70257Y51055D01*
X70589Y50660D01*
X70911Y50258D01*
X71223Y49848D01*
X71525Y49430D01*
X71817Y49005D01*
X72098Y48573D01*
X72368Y48134D01*
X72628Y47689D01*
X72876Y47237D01*
X73114Y46780D01*
X73340Y46317D01*
X73554Y45848D01*
X73757Y45374D01*
X73949Y44896D01*
X74128Y44413D01*
X74296Y43925D01*
X74452Y43434D01*
X74595Y42939D01*
X74727Y42441D01*
X74846Y41939D01*
X74952Y41435D01*
X75047Y40928D01*
X75129Y40419D01*
X75198Y39909D01*
X75255Y39396D01*
X75299Y38883D01*
X75331Y38368D01*
X75350Y37853D01*
X75356Y37338D01*
X75350Y36823D01*
X75331Y36308D01*
X75299Y35793D01*
X75255Y35280D01*
X75198Y34767D01*
X75129Y34257D01*
X75047Y33748D01*
X74952Y33241D01*
X74846Y32737D01*
X74727Y32235D01*
X74595Y31737D01*
X74452Y31242D01*
X74296Y30751D01*
X74128Y30263D01*
X73949Y29780D01*
X73757Y29302D01*
X73554Y28828D01*
X73340Y28359D01*
X73114Y27896D01*
X72876Y27439D01*
X72628Y26987D01*
X72368Y26542D01*
X72098Y26103D01*
X71817Y25671D01*
X71525Y25246D01*
X71223Y24828D01*
X70911Y24418D01*
X70589Y24016D01*
X70257Y23621D01*
X69916Y23235D01*
X69565Y22858D01*
X69205Y22489D01*
X68836Y22129D01*
X68459Y21778D01*
X68073Y21437D01*
X67678Y21105D01*
X67276Y20783D01*
X66866Y20471D01*
X66448Y20169D01*
X66023Y19877D01*
X65591Y19596D01*
X65152Y19326D01*
X64707Y19066D01*
X64255Y18818D01*
X63798Y18580D01*
X63335Y18354D01*
X62866Y18140D01*
X62392Y17937D01*
X61914Y17745D01*
X61431Y17566D01*
X60943Y17398D01*
X60452Y17242D01*
X59957Y17099D01*
X59459Y16967D01*
X58957Y16848D01*
X58453Y16742D01*
X57946Y16647D01*
X57437Y16565D01*
X56927Y16496D01*
X56414Y16439D01*
X55901Y16395D01*
X55386Y16363D01*
X54871Y16344D01*
X54356Y16338D01*
X53841Y16344D01*
X53326Y16363D01*
X52811Y16395D01*
X52298Y16439D01*
X51785Y16496D01*
X51275Y16565D01*
X50766Y16647D01*
X50259Y16742D01*
X49755Y16848D01*
X49253Y16967D01*
X48755Y17099D01*
X48260Y17242D01*
X47769Y17398D01*
X47281Y17566D01*
X46798Y17745D01*
X46320Y17937D01*
X45846Y18140D01*
X45377Y18354D01*
X44914Y18580D01*
X44457Y18818D01*
X44005Y19066D01*
X43560Y19326D01*
X43121Y19596D01*
X42689Y19877D01*
X42264Y20169D01*
X41846Y20471D01*
X41436Y20783D01*
X41034Y21105D01*
X40639Y21437D01*
X40253Y21778D01*
X39876Y22129D01*
X39507Y22489D01*
X39147Y22858D01*
X38796Y23235D01*
X38455Y23621D01*
X38123Y24016D01*
X37801Y24418D01*
X37489Y24828D01*
X37187Y25246D01*
X36895Y25671D01*
X36614Y26103D01*
X36344Y26542D01*
X36084Y26987D01*
X35836Y27439D01*
X35598Y27896D01*
X35372Y28359D01*
X35158Y28828D01*
X34955Y29302D01*
X34763Y29780D01*
X34584Y30263D01*
X34416Y30751D01*
X34260Y31242D01*
X34117Y31737D01*
X33985Y32235D01*
X33866Y32737D01*
X33760Y33241D01*
X33665Y33748D01*
X33583Y34257D01*
X33514Y34767D01*
X33457Y35280D01*
X33413Y35793D01*
X33381Y36308D01*
X33362Y36823D01*
X33356Y37338D01*
M02*
