%
M48
M72
T01C0.03937
T02C0.04000
T03C0.04724
T04C0.12598
%
T01
X256390Y68332
X256390Y82111
X256390Y95891
X256390Y109670
X256390Y123450
X256390Y137229
X256390Y151009
X256390Y164788
T02
X123850Y36300
X123850Y47300
X123850Y56800
X123850Y66800
X123850Y76800
X123850Y86800
X144850Y86800
X144850Y76800
X144850Y66800
X144850Y96800
X144850Y106800
X144850Y116800
X144850Y126800
X144850Y136800
X123850Y134800
X123850Y144800
X123850Y154800
X123850Y164800
X123850Y124800
X123850Y114800
X123850Y104800
X185350Y118200
X185350Y128200
X234850Y126800
X234850Y116800
X234850Y106800
X234850Y96800
X234850Y86800
X234850Y76800
X234850Y66800
X148750Y18700
X138050Y18700
X127350Y18700
X234850Y136800
T03
X256650Y53980
X256650Y40200
T04
X258070Y16800
X183750Y16700
M30
