G75*
%MOIN*%
%OFA0B0*%
%FSLAX25Y25*%
%IPPOS*%
%LPD*%
%AMOC8*
5,1,8,0,0,1.08239X$1,22.5*
%
%ADD10C,0.12998*%
%ADD11R,0.07800X0.07800*%
%ADD12C,0.07800*%
%ADD13R,0.07487X0.06699*%
%ADD14R,0.06699X0.07487*%
%ADD15C,0.06400*%
%ADD16C,0.09000*%
%ADD17R,0.08400X0.08400*%
%ADD18C,0.08400*%
%ADD19C,0.00500*%
D10*
X0183750Y0016700D03*
X0258070Y0016800D03*
D11*
X0123850Y0086800D03*
X0123850Y0134800D03*
D12*
X0123850Y0144800D03*
X0123850Y0154800D03*
X0123850Y0164800D03*
X0144850Y0136800D03*
X0144850Y0126800D03*
X0144850Y0116800D03*
X0144850Y0106800D03*
X0144850Y0096800D03*
X0144850Y0086800D03*
X0144850Y0076800D03*
X0144850Y0066800D03*
X0123850Y0066800D03*
X0123850Y0076800D03*
X0123850Y0056800D03*
X0123850Y0104800D03*
X0123850Y0114800D03*
X0123850Y0124800D03*
X0185350Y0128200D03*
X0185350Y0118200D03*
X0234850Y0116800D03*
X0234850Y0106800D03*
X0234850Y0096800D03*
X0234850Y0086800D03*
X0234850Y0076800D03*
X0234850Y0066800D03*
X0234850Y0126800D03*
X0234850Y0136800D03*
D13*
X0224070Y0151908D03*
X0224070Y0162932D03*
X0209030Y0162812D03*
X0209030Y0151788D03*
X0166150Y0128312D03*
X0166150Y0117288D03*
D14*
G36*
X0164173Y0152798D02*
X0167522Y0146999D01*
X0161039Y0143256D01*
X0157690Y0149055D01*
X0164173Y0152798D01*
G37*
G36*
X0158661Y0162344D02*
X0162010Y0156545D01*
X0155527Y0152802D01*
X0152178Y0158601D01*
X0158661Y0162344D01*
G37*
D15*
X0126850Y0036300D02*
X0120850Y0036300D01*
X0120850Y0047300D02*
X0126850Y0047300D01*
D16*
X0256390Y0068332D03*
X0256390Y0082111D03*
X0256390Y0095891D03*
X0256390Y0109670D03*
X0256390Y0123450D03*
X0256390Y0137229D03*
X0256390Y0151009D03*
X0256390Y0164788D03*
D17*
X0256650Y0040200D03*
D18*
X0256650Y0053980D03*
D19*
X0151911Y0020041D02*
X0152116Y0019389D01*
X0152190Y0018710D01*
X0152116Y0018031D01*
X0151912Y0017379D01*
X0151583Y0016780D01*
X0151145Y0016256D01*
X0150612Y0015828D01*
X0150007Y0015512D01*
X0149351Y0015320D01*
X0148670Y0015260D01*
X0148000Y0015339D01*
X0147359Y0015548D01*
X0146770Y0015878D01*
X0146258Y0016317D01*
X0145840Y0016847D01*
X0145534Y0017448D01*
X0145352Y0018097D01*
X0145300Y0018770D01*
X0145363Y0019430D01*
X0145553Y0020064D01*
X0145864Y0020650D01*
X0146283Y0021163D01*
X0146794Y0021585D01*
X0147377Y0021899D01*
X0148011Y0022093D01*
X0148670Y0022159D01*
X0149351Y0022099D01*
X0150006Y0021908D01*
X0150612Y0021592D01*
X0151144Y0021164D01*
X0151583Y0020640D01*
X0151911Y0020041D01*
X0151940Y0019951D02*
X0145519Y0019951D01*
X0145369Y0019452D02*
X0152096Y0019452D01*
X0152164Y0018954D02*
X0145317Y0018954D01*
X0145324Y0018455D02*
X0152163Y0018455D01*
X0152093Y0017957D02*
X0145391Y0017957D01*
X0145532Y0017458D02*
X0151936Y0017458D01*
X0151682Y0016960D02*
X0145783Y0016960D01*
X0146144Y0016461D02*
X0151317Y0016461D01*
X0150780Y0015963D02*
X0146671Y0015963D01*
X0147617Y0015464D02*
X0149844Y0015464D01*
X0151688Y0020449D02*
X0145757Y0020449D01*
X0146107Y0020948D02*
X0151325Y0020948D01*
X0150793Y0021446D02*
X0146626Y0021446D01*
X0147528Y0021945D02*
X0149879Y0021945D01*
X0141440Y0019327D02*
X0141510Y0018640D01*
X0141433Y0017971D01*
X0141228Y0017329D01*
X0140901Y0016740D01*
X0140465Y0016227D01*
X0139938Y0015808D01*
X0139339Y0015500D01*
X0138691Y0015315D01*
X0138020Y0015259D01*
X0137348Y0015332D01*
X0136704Y0015535D01*
X0136111Y0015859D01*
X0135594Y0016293D01*
X0135170Y0016820D01*
X0134858Y0017419D01*
X0134669Y0018067D01*
X0134610Y0018740D01*
X0134670Y0019401D01*
X0134858Y0020037D01*
X0135166Y0020625D01*
X0135584Y0021141D01*
X0136094Y0021566D01*
X0136677Y0021883D01*
X0137310Y0022080D01*
X0137970Y0022150D01*
X0138658Y0022085D01*
X0139320Y0021887D01*
X0139931Y0021564D01*
X0140467Y0021128D01*
X0140908Y0020596D01*
X0141236Y0019988D01*
X0141440Y0019327D01*
X0141401Y0019452D02*
X0134685Y0019452D01*
X0134629Y0018954D02*
X0141478Y0018954D01*
X0141489Y0018455D02*
X0134635Y0018455D01*
X0134701Y0017957D02*
X0141429Y0017957D01*
X0141269Y0017458D02*
X0134847Y0017458D01*
X0135097Y0016960D02*
X0141022Y0016960D01*
X0140664Y0016461D02*
X0135459Y0016461D01*
X0135988Y0015963D02*
X0140133Y0015963D01*
X0139214Y0015464D02*
X0136929Y0015464D01*
X0134832Y0019951D02*
X0141248Y0019951D01*
X0140987Y0020449D02*
X0135074Y0020449D01*
X0135428Y0020948D02*
X0140616Y0020948D01*
X0140076Y0021446D02*
X0135950Y0021446D01*
X0136877Y0021945D02*
X0139127Y0021945D01*
X0130747Y0019340D02*
X0130820Y0018650D01*
X0130739Y0017969D01*
X0130526Y0017318D01*
X0130190Y0016721D01*
X0129744Y0016200D01*
X0129205Y0015777D01*
X0128593Y0015467D01*
X0127933Y0015282D01*
X0127250Y0015230D01*
X0126583Y0015308D01*
X0125944Y0015515D01*
X0125358Y0015843D01*
X0124847Y0016279D01*
X0124431Y0016806D01*
X0124125Y0017404D01*
X0123943Y0018051D01*
X0123890Y0018720D01*
X0123947Y0019384D01*
X0124133Y0020024D01*
X0124441Y0020616D01*
X0124858Y0021136D01*
X0125368Y0021565D01*
X0125952Y0021886D01*
X0126588Y0022087D01*
X0127250Y0022160D01*
X0127942Y0022098D01*
X0128608Y0021902D01*
X0129223Y0021580D01*
X0129763Y0021144D01*
X0130208Y0020612D01*
X0130540Y0020002D01*
X0130747Y0019340D01*
X0130712Y0019452D02*
X0123967Y0019452D01*
X0123910Y0018954D02*
X0130788Y0018954D01*
X0130797Y0018455D02*
X0123911Y0018455D01*
X0123969Y0017957D02*
X0130735Y0017957D01*
X0130572Y0017458D02*
X0124110Y0017458D01*
X0124352Y0016960D02*
X0130324Y0016960D01*
X0129967Y0016461D02*
X0124703Y0016461D01*
X0125217Y0015963D02*
X0129441Y0015963D01*
X0128583Y0015464D02*
X0126101Y0015464D01*
X0124112Y0019951D02*
X0130556Y0019951D01*
X0130296Y0020449D02*
X0124354Y0020449D01*
X0124707Y0020948D02*
X0129927Y0020948D01*
X0129388Y0021446D02*
X0125227Y0021446D01*
X0126139Y0021945D02*
X0128462Y0021945D01*
M02*
