G75*
%MOIN*%
%OFA0B0*%
%FSLAX25Y25*%
%IPPOS*%
%LPD*%
%AMOC8*
5,1,8,0,0,1.08239X$1,22.5*
%
%ADD10C,0.00400*%
%ADD11C,0.00600*%
%ADD12C,0.00500*%
%ADD13C,0.00800*%
%ADD14C,0.00300*%
D10*
X0118490Y0051940D02*
X0118490Y0091840D01*
X0118290Y0091920D02*
X0128930Y0091920D01*
X0128930Y0091840D01*
X0129010Y0091840D01*
X0129010Y0051940D01*
X0118490Y0051940D01*
X0139670Y0061520D02*
X0150230Y0061520D01*
X0150230Y0061120D01*
X0149830Y0061120D01*
X0149830Y0142220D01*
X0139670Y0142220D01*
X0139670Y0061520D01*
X0129210Y0099600D02*
X0118650Y0099600D01*
X0118570Y0099620D01*
X0118510Y0100580D01*
X0118770Y0129720D01*
X0118910Y0129720D02*
X0129130Y0129800D01*
X0129210Y0099600D01*
X0129210Y0130260D02*
X0129210Y0170000D01*
X0118770Y0170000D01*
X0118770Y0169860D02*
X0118770Y0130260D01*
X0119050Y0130260D01*
X0119050Y0130400D01*
X0129090Y0130400D01*
X0229650Y0142100D02*
X0229790Y0142100D01*
X0229790Y0061660D01*
X0239810Y0061660D01*
X0239810Y0141960D01*
X0239650Y0142220D02*
X0230030Y0142220D01*
X0230008Y0142222D01*
X0229987Y0142227D01*
X0229966Y0142235D01*
X0229948Y0142247D01*
X0229931Y0142261D01*
X0229917Y0142278D01*
X0229905Y0142296D01*
X0229897Y0142317D01*
X0229892Y0142338D01*
X0229890Y0142360D01*
D11*
X0242030Y0161960D02*
X0242027Y0162231D01*
X0242017Y0162501D01*
X0242001Y0162771D01*
X0241978Y0163041D01*
X0241948Y0163310D01*
X0241912Y0163578D01*
X0241870Y0163846D01*
X0241821Y0164112D01*
X0241766Y0164377D01*
X0241705Y0164640D01*
X0241637Y0164902D01*
X0241562Y0165163D01*
X0241482Y0165421D01*
X0241395Y0165677D01*
X0241302Y0165932D01*
X0241203Y0166183D01*
X0241098Y0166433D01*
X0240987Y0166680D01*
X0240870Y0166924D01*
X0240747Y0167165D01*
X0240618Y0167403D01*
X0240484Y0167638D01*
X0240344Y0167870D01*
X0240198Y0168098D01*
X0240047Y0168322D01*
X0239891Y0168543D01*
X0239729Y0168760D01*
X0239562Y0168973D01*
X0239390Y0169182D01*
X0239213Y0169387D01*
X0239031Y0169587D01*
X0238845Y0169783D01*
X0238653Y0169975D01*
X0238457Y0170161D01*
X0238257Y0170343D01*
X0238052Y0170520D01*
X0237843Y0170692D01*
X0237630Y0170859D01*
X0237413Y0171021D01*
X0237192Y0171177D01*
X0236968Y0171328D01*
X0236740Y0171474D01*
X0236508Y0171614D01*
X0236273Y0171748D01*
X0236035Y0171877D01*
X0235794Y0172000D01*
X0235550Y0172117D01*
X0235303Y0172228D01*
X0235053Y0172333D01*
X0234802Y0172432D01*
X0234547Y0172525D01*
X0234291Y0172612D01*
X0234033Y0172692D01*
X0233772Y0172767D01*
X0233510Y0172835D01*
X0233247Y0172896D01*
X0232982Y0172951D01*
X0232716Y0173000D01*
X0232448Y0173042D01*
X0232180Y0173078D01*
X0231911Y0173108D01*
X0231641Y0173131D01*
X0231371Y0173147D01*
X0231101Y0173157D01*
X0230830Y0173160D01*
X0145690Y0173160D01*
X0145460Y0173157D01*
X0145230Y0173149D01*
X0145000Y0173135D01*
X0144771Y0173116D01*
X0144542Y0173091D01*
X0144314Y0173060D01*
X0144087Y0173024D01*
X0143861Y0172983D01*
X0143636Y0172936D01*
X0143412Y0172883D01*
X0143189Y0172826D01*
X0142968Y0172763D01*
X0142748Y0172694D01*
X0142530Y0172620D01*
X0142314Y0172541D01*
X0142100Y0172457D01*
X0141888Y0172368D01*
X0141678Y0172273D01*
X0141471Y0172174D01*
X0141266Y0172070D01*
X0141063Y0171960D01*
X0140864Y0171846D01*
X0140667Y0171727D01*
X0140473Y0171603D01*
X0140282Y0171475D01*
X0140094Y0171342D01*
X0139910Y0171204D01*
X0139729Y0171062D01*
X0139551Y0170916D01*
X0139377Y0170766D01*
X0139207Y0170611D01*
X0139040Y0170453D01*
X0138877Y0170290D01*
X0138719Y0170123D01*
X0138564Y0169953D01*
X0138414Y0169779D01*
X0138268Y0169601D01*
X0138126Y0169420D01*
X0137988Y0169236D01*
X0137855Y0169048D01*
X0137727Y0168857D01*
X0137603Y0168663D01*
X0137484Y0168466D01*
X0137370Y0168267D01*
X0137260Y0168064D01*
X0137156Y0167859D01*
X0137057Y0167652D01*
X0136962Y0167442D01*
X0136873Y0167230D01*
X0136789Y0167016D01*
X0136710Y0166800D01*
X0136636Y0166582D01*
X0136567Y0166362D01*
X0136504Y0166141D01*
X0136447Y0165918D01*
X0136394Y0165694D01*
X0136347Y0165469D01*
X0136306Y0165243D01*
X0136270Y0165016D01*
X0136239Y0164788D01*
X0136214Y0164559D01*
X0136195Y0164330D01*
X0136181Y0164100D01*
X0136173Y0163870D01*
X0136170Y0163640D01*
X0136170Y0031320D01*
X0136450Y0031320D01*
X0137570Y0030760D02*
X0227190Y0031040D01*
X0227190Y0050380D01*
X0242030Y0058240D01*
X0242030Y0161960D01*
D12*
X0243004Y0171678D02*
X0243004Y0061442D01*
X0266233Y0061442D01*
X0266233Y0171678D01*
X0243004Y0171678D01*
X0266233Y0171678D02*
X0270563Y0171678D01*
X0270563Y0061442D01*
X0266233Y0061442D01*
X0226893Y0028243D02*
X0226893Y0008557D01*
X0207207Y0008557D01*
X0207207Y0024306D01*
X0211144Y0028243D01*
X0226893Y0028243D01*
X0208782Y0018400D02*
X0208784Y0018603D01*
X0208792Y0018806D01*
X0208804Y0019008D01*
X0208822Y0019210D01*
X0208844Y0019412D01*
X0208871Y0019613D01*
X0208904Y0019814D01*
X0208941Y0020013D01*
X0208983Y0020212D01*
X0209030Y0020409D01*
X0209081Y0020605D01*
X0209138Y0020800D01*
X0209199Y0020994D01*
X0209265Y0021185D01*
X0209336Y0021376D01*
X0209411Y0021564D01*
X0209491Y0021751D01*
X0209576Y0021935D01*
X0209665Y0022117D01*
X0209758Y0022298D01*
X0209856Y0022475D01*
X0209958Y0022651D01*
X0210065Y0022823D01*
X0210175Y0022993D01*
X0210290Y0023161D01*
X0210409Y0023325D01*
X0210532Y0023487D01*
X0210659Y0023645D01*
X0210789Y0023800D01*
X0210924Y0023952D01*
X0211062Y0024101D01*
X0211204Y0024246D01*
X0211349Y0024388D01*
X0211498Y0024526D01*
X0211650Y0024661D01*
X0211805Y0024791D01*
X0211963Y0024918D01*
X0212125Y0025041D01*
X0212289Y0025160D01*
X0212457Y0025275D01*
X0212627Y0025385D01*
X0212799Y0025492D01*
X0212975Y0025594D01*
X0213152Y0025692D01*
X0213333Y0025785D01*
X0213515Y0025874D01*
X0213699Y0025959D01*
X0213886Y0026039D01*
X0214074Y0026114D01*
X0214265Y0026185D01*
X0214456Y0026251D01*
X0214650Y0026312D01*
X0214845Y0026369D01*
X0215041Y0026420D01*
X0215238Y0026467D01*
X0215437Y0026509D01*
X0215636Y0026546D01*
X0215837Y0026579D01*
X0216038Y0026606D01*
X0216240Y0026628D01*
X0216442Y0026646D01*
X0216644Y0026658D01*
X0216847Y0026666D01*
X0217050Y0026668D01*
X0217253Y0026666D01*
X0217456Y0026658D01*
X0217658Y0026646D01*
X0217860Y0026628D01*
X0218062Y0026606D01*
X0218263Y0026579D01*
X0218464Y0026546D01*
X0218663Y0026509D01*
X0218862Y0026467D01*
X0219059Y0026420D01*
X0219255Y0026369D01*
X0219450Y0026312D01*
X0219644Y0026251D01*
X0219835Y0026185D01*
X0220026Y0026114D01*
X0220214Y0026039D01*
X0220401Y0025959D01*
X0220585Y0025874D01*
X0220767Y0025785D01*
X0220948Y0025692D01*
X0221125Y0025594D01*
X0221301Y0025492D01*
X0221473Y0025385D01*
X0221643Y0025275D01*
X0221811Y0025160D01*
X0221975Y0025041D01*
X0222137Y0024918D01*
X0222295Y0024791D01*
X0222450Y0024661D01*
X0222602Y0024526D01*
X0222751Y0024388D01*
X0222896Y0024246D01*
X0223038Y0024101D01*
X0223176Y0023952D01*
X0223311Y0023800D01*
X0223441Y0023645D01*
X0223568Y0023487D01*
X0223691Y0023325D01*
X0223810Y0023161D01*
X0223925Y0022993D01*
X0224035Y0022823D01*
X0224142Y0022651D01*
X0224244Y0022475D01*
X0224342Y0022298D01*
X0224435Y0022117D01*
X0224524Y0021935D01*
X0224609Y0021751D01*
X0224689Y0021564D01*
X0224764Y0021376D01*
X0224835Y0021185D01*
X0224901Y0020994D01*
X0224962Y0020800D01*
X0225019Y0020605D01*
X0225070Y0020409D01*
X0225117Y0020212D01*
X0225159Y0020013D01*
X0225196Y0019814D01*
X0225229Y0019613D01*
X0225256Y0019412D01*
X0225278Y0019210D01*
X0225296Y0019008D01*
X0225308Y0018806D01*
X0225316Y0018603D01*
X0225318Y0018400D01*
X0225316Y0018197D01*
X0225308Y0017994D01*
X0225296Y0017792D01*
X0225278Y0017590D01*
X0225256Y0017388D01*
X0225229Y0017187D01*
X0225196Y0016986D01*
X0225159Y0016787D01*
X0225117Y0016588D01*
X0225070Y0016391D01*
X0225019Y0016195D01*
X0224962Y0016000D01*
X0224901Y0015806D01*
X0224835Y0015615D01*
X0224764Y0015424D01*
X0224689Y0015236D01*
X0224609Y0015049D01*
X0224524Y0014865D01*
X0224435Y0014683D01*
X0224342Y0014502D01*
X0224244Y0014325D01*
X0224142Y0014149D01*
X0224035Y0013977D01*
X0223925Y0013807D01*
X0223810Y0013639D01*
X0223691Y0013475D01*
X0223568Y0013313D01*
X0223441Y0013155D01*
X0223311Y0013000D01*
X0223176Y0012848D01*
X0223038Y0012699D01*
X0222896Y0012554D01*
X0222751Y0012412D01*
X0222602Y0012274D01*
X0222450Y0012139D01*
X0222295Y0012009D01*
X0222137Y0011882D01*
X0221975Y0011759D01*
X0221811Y0011640D01*
X0221643Y0011525D01*
X0221473Y0011415D01*
X0221301Y0011308D01*
X0221125Y0011206D01*
X0220948Y0011108D01*
X0220767Y0011015D01*
X0220585Y0010926D01*
X0220401Y0010841D01*
X0220214Y0010761D01*
X0220026Y0010686D01*
X0219835Y0010615D01*
X0219644Y0010549D01*
X0219450Y0010488D01*
X0219255Y0010431D01*
X0219059Y0010380D01*
X0218862Y0010333D01*
X0218663Y0010291D01*
X0218464Y0010254D01*
X0218263Y0010221D01*
X0218062Y0010194D01*
X0217860Y0010172D01*
X0217658Y0010154D01*
X0217456Y0010142D01*
X0217253Y0010134D01*
X0217050Y0010132D01*
X0216847Y0010134D01*
X0216644Y0010142D01*
X0216442Y0010154D01*
X0216240Y0010172D01*
X0216038Y0010194D01*
X0215837Y0010221D01*
X0215636Y0010254D01*
X0215437Y0010291D01*
X0215238Y0010333D01*
X0215041Y0010380D01*
X0214845Y0010431D01*
X0214650Y0010488D01*
X0214456Y0010549D01*
X0214265Y0010615D01*
X0214074Y0010686D01*
X0213886Y0010761D01*
X0213699Y0010841D01*
X0213515Y0010926D01*
X0213333Y0011015D01*
X0213152Y0011108D01*
X0212975Y0011206D01*
X0212799Y0011308D01*
X0212627Y0011415D01*
X0212457Y0011525D01*
X0212289Y0011640D01*
X0212125Y0011759D01*
X0211963Y0011882D01*
X0211805Y0012009D01*
X0211650Y0012139D01*
X0211498Y0012274D01*
X0211349Y0012412D01*
X0211204Y0012554D01*
X0211062Y0012699D01*
X0210924Y0012848D01*
X0210789Y0013000D01*
X0210659Y0013155D01*
X0210532Y0013313D01*
X0210409Y0013475D01*
X0210290Y0013639D01*
X0210175Y0013807D01*
X0210065Y0013977D01*
X0209958Y0014149D01*
X0209856Y0014325D01*
X0209758Y0014502D01*
X0209665Y0014683D01*
X0209576Y0014865D01*
X0209491Y0015049D01*
X0209411Y0015236D01*
X0209336Y0015424D01*
X0209265Y0015615D01*
X0209199Y0015806D01*
X0209138Y0016000D01*
X0209081Y0016195D01*
X0209030Y0016391D01*
X0208983Y0016588D01*
X0208941Y0016787D01*
X0208904Y0016986D01*
X0208871Y0017187D01*
X0208844Y0017388D01*
X0208822Y0017590D01*
X0208804Y0017792D01*
X0208792Y0017994D01*
X0208784Y0018197D01*
X0208782Y0018400D01*
X0207207Y0024306D02*
X0207207Y0028243D01*
X0211144Y0028243D01*
X0204942Y0028983D02*
X0204944Y0029030D01*
X0204950Y0029076D01*
X0204959Y0029122D01*
X0204973Y0029166D01*
X0204990Y0029210D01*
X0205011Y0029251D01*
X0205035Y0029291D01*
X0205062Y0029329D01*
X0205093Y0029364D01*
X0205126Y0029397D01*
X0205162Y0029427D01*
X0205201Y0029453D01*
X0205241Y0029477D01*
X0205283Y0029496D01*
X0205327Y0029513D01*
X0205372Y0029525D01*
X0205418Y0029534D01*
X0205464Y0029539D01*
X0205511Y0029540D01*
X0205557Y0029537D01*
X0205603Y0029530D01*
X0205649Y0029519D01*
X0205693Y0029505D01*
X0205736Y0029487D01*
X0205777Y0029465D01*
X0205817Y0029440D01*
X0205854Y0029412D01*
X0205889Y0029381D01*
X0205921Y0029347D01*
X0205950Y0029310D01*
X0205975Y0029272D01*
X0205998Y0029231D01*
X0206017Y0029188D01*
X0206032Y0029144D01*
X0206044Y0029099D01*
X0206052Y0029053D01*
X0206056Y0029006D01*
X0206056Y0028960D01*
X0206052Y0028913D01*
X0206044Y0028867D01*
X0206032Y0028822D01*
X0206017Y0028778D01*
X0205998Y0028735D01*
X0205975Y0028694D01*
X0205950Y0028656D01*
X0205921Y0028619D01*
X0205889Y0028585D01*
X0205854Y0028554D01*
X0205817Y0028526D01*
X0205778Y0028501D01*
X0205736Y0028479D01*
X0205693Y0028461D01*
X0205649Y0028447D01*
X0205603Y0028436D01*
X0205557Y0028429D01*
X0205511Y0028426D01*
X0205464Y0028427D01*
X0205418Y0028432D01*
X0205372Y0028441D01*
X0205327Y0028453D01*
X0205283Y0028470D01*
X0205241Y0028489D01*
X0205201Y0028513D01*
X0205162Y0028539D01*
X0205126Y0028569D01*
X0205093Y0028602D01*
X0205062Y0028637D01*
X0205035Y0028675D01*
X0205011Y0028715D01*
X0204990Y0028756D01*
X0204973Y0028800D01*
X0204959Y0028844D01*
X0204950Y0028890D01*
X0204944Y0028936D01*
X0204942Y0028983D01*
D13*
X0160944Y0010137D02*
X0115156Y0010137D01*
X0115156Y0027263D01*
X0160944Y0027263D01*
X0160944Y0010137D01*
X0243264Y0033310D02*
X0267674Y0033310D01*
X0267674Y0060869D01*
X0270823Y0060869D01*
X0270823Y0033310D01*
X0267674Y0033310D01*
X0243264Y0033310D02*
X0243264Y0060869D01*
X0267674Y0060869D01*
D14*
X0234327Y0025658D02*
X0232392Y0025658D01*
X0231909Y0025174D01*
X0231909Y0023723D01*
X0234811Y0023723D01*
X0234811Y0025174D01*
X0234327Y0025658D01*
X0234811Y0022712D02*
X0234811Y0020777D01*
X0231909Y0020777D01*
X0231909Y0022712D01*
X0233360Y0021744D02*
X0233360Y0020777D01*
X0234811Y0019765D02*
X0234811Y0017830D01*
X0231909Y0017830D01*
X0167500Y0017630D02*
X0164598Y0017630D01*
X0164598Y0017146D02*
X0164598Y0018114D01*
X0164598Y0019110D02*
X0164598Y0021045D01*
X0164598Y0020078D02*
X0167500Y0020078D01*
X0167500Y0018114D02*
X0167500Y0017146D01*
X0167500Y0016135D02*
X0164598Y0016135D01*
X0164598Y0014200D02*
X0167500Y0014200D01*
X0166533Y0015167D01*
X0167500Y0016135D01*
X0167016Y0013188D02*
X0167500Y0012704D01*
X0167500Y0011737D01*
X0167016Y0011253D01*
X0166049Y0011737D02*
X0165565Y0011253D01*
X0165081Y0011253D01*
X0164598Y0011737D01*
X0164598Y0012704D01*
X0165081Y0013188D01*
X0166049Y0012704D02*
X0166533Y0013188D01*
X0167016Y0013188D01*
X0166049Y0012704D02*
X0166049Y0011737D01*
X0165081Y0022057D02*
X0167016Y0022057D01*
X0167500Y0022541D01*
X0167500Y0023508D01*
X0167016Y0023992D01*
X0167500Y0025003D02*
X0164598Y0025003D01*
X0165081Y0023992D02*
X0164598Y0023508D01*
X0164598Y0022541D01*
X0165081Y0022057D01*
X0166049Y0025003D02*
X0166049Y0026938D01*
X0164598Y0026938D02*
X0167500Y0026938D01*
M02*
