G75*
%MOIN*%
%OFA0B0*%
%FSLAX25Y25*%
%IPPOS*%
%LPD*%
%AMOC8*
5,1,8,0,0,1.08239X$1,22.5*
%
%ADD10R,0.07400X0.07400*%
%ADD11C,0.07400*%
%ADD12R,0.07087X0.06299*%
%ADD13R,0.06299X0.07087*%
%ADD14C,0.06000*%
%ADD15C,0.08600*%
%ADD16R,0.08000X0.08000*%
%ADD17C,0.08000*%
%ADD18C,0.02400*%
%ADD19C,0.01600*%
%ADD20C,0.00600*%
D10*
X0123850Y0086800D03*
X0123850Y0134800D03*
D11*
X0123850Y0144800D03*
X0123850Y0154800D03*
X0123850Y0164800D03*
X0144850Y0136800D03*
X0144850Y0126800D03*
X0144850Y0116800D03*
X0144850Y0106800D03*
X0144850Y0096800D03*
X0144850Y0086800D03*
X0144850Y0076800D03*
X0144850Y0066800D03*
X0123850Y0066800D03*
X0123850Y0076800D03*
X0123850Y0056800D03*
X0127350Y0018700D03*
X0138050Y0018700D03*
X0148750Y0018700D03*
X0234850Y0066800D03*
X0234850Y0076800D03*
X0234850Y0086800D03*
X0234850Y0096800D03*
X0234850Y0106800D03*
X0234850Y0116800D03*
X0234850Y0126800D03*
X0234850Y0136800D03*
X0185350Y0128200D03*
X0185350Y0118200D03*
X0123850Y0114800D03*
X0123850Y0104800D03*
X0123850Y0124800D03*
D12*
X0166150Y0128312D03*
X0166150Y0117288D03*
X0209030Y0151788D03*
X0209030Y0162812D03*
X0224070Y0162932D03*
X0224070Y0151908D03*
D13*
G36*
X0164099Y0152525D02*
X0167248Y0147072D01*
X0161113Y0143529D01*
X0157964Y0148982D01*
X0164099Y0152525D01*
G37*
G36*
X0158587Y0162071D02*
X0161736Y0156618D01*
X0155601Y0153075D01*
X0152452Y0158528D01*
X0158587Y0162071D01*
G37*
D14*
X0126850Y0047300D02*
X0120850Y0047300D01*
X0120850Y0036300D02*
X0126850Y0036300D01*
D15*
X0256390Y0068332D03*
X0256390Y0082111D03*
X0256390Y0095891D03*
X0256390Y0109670D03*
X0256390Y0123450D03*
X0256390Y0137229D03*
X0256390Y0151009D03*
X0256390Y0164788D03*
D16*
X0256650Y0040200D03*
D17*
X0256650Y0053980D03*
D18*
X0157670Y0053980D01*
X0157360Y0053984D01*
X0157051Y0053995D01*
X0156741Y0054014D01*
X0156433Y0054040D01*
X0156125Y0054073D01*
X0155818Y0054115D01*
X0155512Y0054163D01*
X0155207Y0054219D01*
X0154904Y0054282D01*
X0154602Y0054353D01*
X0154302Y0054430D01*
X0154004Y0054515D01*
X0153708Y0054607D01*
X0153415Y0054707D01*
X0153124Y0054813D01*
X0152836Y0054926D01*
X0152550Y0055047D01*
X0152268Y0055174D01*
X0151988Y0055308D01*
X0151712Y0055448D01*
X0151440Y0055596D01*
X0151171Y0055750D01*
X0150906Y0055910D01*
X0150644Y0056076D01*
X0150387Y0056249D01*
X0150135Y0056428D01*
X0149886Y0056614D01*
X0149642Y0056805D01*
X0149403Y0057001D01*
X0149169Y0057204D01*
X0148939Y0057412D01*
X0148715Y0057626D01*
X0148496Y0057845D01*
X0148282Y0058069D01*
X0148074Y0058299D01*
X0147871Y0058533D01*
X0147675Y0058772D01*
X0147484Y0059016D01*
X0147298Y0059265D01*
X0147119Y0059517D01*
X0146946Y0059774D01*
X0146780Y0060036D01*
X0146620Y0060301D01*
X0146466Y0060570D01*
X0146318Y0060842D01*
X0146178Y0061118D01*
X0146044Y0061398D01*
X0145917Y0061680D01*
X0145796Y0061966D01*
X0145683Y0062254D01*
X0145577Y0062545D01*
X0145477Y0062838D01*
X0145385Y0063134D01*
X0145300Y0063432D01*
X0145223Y0063732D01*
X0145152Y0064034D01*
X0145089Y0064337D01*
X0145033Y0064642D01*
X0144985Y0064948D01*
X0144943Y0065255D01*
X0144910Y0065563D01*
X0144884Y0065871D01*
X0144865Y0066181D01*
X0144854Y0066490D01*
X0144850Y0066800D01*
X0144847Y0066558D01*
X0144838Y0066317D01*
X0144824Y0066076D01*
X0144803Y0065835D01*
X0144777Y0065595D01*
X0144745Y0065355D01*
X0144707Y0065116D01*
X0144664Y0064879D01*
X0144614Y0064642D01*
X0144559Y0064407D01*
X0144499Y0064173D01*
X0144432Y0063941D01*
X0144361Y0063710D01*
X0144283Y0063481D01*
X0144200Y0063254D01*
X0144112Y0063029D01*
X0144018Y0062806D01*
X0143919Y0062586D01*
X0143814Y0062368D01*
X0143705Y0062153D01*
X0143590Y0061940D01*
X0143470Y0061730D01*
X0143345Y0061524D01*
X0143215Y0061320D01*
X0143080Y0061119D01*
X0142940Y0060922D01*
X0142796Y0060728D01*
X0142647Y0060538D01*
X0142493Y0060352D01*
X0142335Y0060169D01*
X0142173Y0059990D01*
X0142006Y0059815D01*
X0141835Y0059644D01*
X0141660Y0059477D01*
X0141481Y0059315D01*
X0141298Y0059157D01*
X0141112Y0059003D01*
X0140922Y0058854D01*
X0140728Y0058710D01*
X0140531Y0058570D01*
X0140330Y0058435D01*
X0140126Y0058305D01*
X0139920Y0058180D01*
X0139710Y0058060D01*
X0139497Y0057945D01*
X0139282Y0057836D01*
X0139064Y0057731D01*
X0138844Y0057632D01*
X0138621Y0057538D01*
X0138396Y0057450D01*
X0138169Y0057367D01*
X0137940Y0057289D01*
X0137709Y0057218D01*
X0137477Y0057151D01*
X0137243Y0057091D01*
X0137008Y0057036D01*
X0136771Y0056986D01*
X0136534Y0056943D01*
X0136295Y0056905D01*
X0136055Y0056873D01*
X0135815Y0056847D01*
X0135574Y0056826D01*
X0135333Y0056812D01*
X0135092Y0056803D01*
X0134850Y0056800D01*
X0123850Y0056800D01*
X0123850Y0047300D01*
X0114550Y0057500D02*
X0114553Y0057725D01*
X0114561Y0057949D01*
X0114574Y0058174D01*
X0114593Y0058398D01*
X0114618Y0058621D01*
X0114648Y0058844D01*
X0114683Y0059066D01*
X0114723Y0059287D01*
X0114769Y0059507D01*
X0114820Y0059726D01*
X0114877Y0059943D01*
X0114938Y0060159D01*
X0115005Y0060374D01*
X0115077Y0060587D01*
X0115154Y0060798D01*
X0115237Y0061007D01*
X0115324Y0061214D01*
X0115416Y0061419D01*
X0115513Y0061622D01*
X0115615Y0061822D01*
X0115722Y0062020D01*
X0115834Y0062215D01*
X0115950Y0062407D01*
X0116071Y0062597D01*
X0116196Y0062783D01*
X0116326Y0062966D01*
X0116460Y0063147D01*
X0116599Y0063324D01*
X0116742Y0063497D01*
X0116889Y0063667D01*
X0117040Y0063833D01*
X0117195Y0063996D01*
X0117354Y0064155D01*
X0117517Y0064310D01*
X0117683Y0064461D01*
X0117853Y0064608D01*
X0118026Y0064751D01*
X0118203Y0064890D01*
X0118384Y0065024D01*
X0118567Y0065154D01*
X0118753Y0065279D01*
X0118943Y0065400D01*
X0119135Y0065516D01*
X0119330Y0065628D01*
X0119528Y0065735D01*
X0119728Y0065837D01*
X0119931Y0065934D01*
X0120136Y0066026D01*
X0120343Y0066113D01*
X0120552Y0066196D01*
X0120763Y0066273D01*
X0120976Y0066345D01*
X0121191Y0066412D01*
X0121407Y0066473D01*
X0121624Y0066530D01*
X0121843Y0066581D01*
X0122063Y0066627D01*
X0122284Y0066667D01*
X0122506Y0066702D01*
X0122729Y0066732D01*
X0122952Y0066757D01*
X0123176Y0066776D01*
X0123401Y0066789D01*
X0123625Y0066797D01*
X0123850Y0066800D01*
X0114550Y0057500D02*
X0114550Y0027300D01*
X0114553Y0027092D01*
X0114560Y0026885D01*
X0114573Y0026677D01*
X0114590Y0026470D01*
X0114613Y0026263D01*
X0114640Y0026057D01*
X0114673Y0025852D01*
X0114710Y0025648D01*
X0114753Y0025444D01*
X0114800Y0025242D01*
X0114852Y0025041D01*
X0114909Y0024841D01*
X0114971Y0024642D01*
X0115038Y0024446D01*
X0115109Y0024250D01*
X0115185Y0024057D01*
X0115266Y0023865D01*
X0115351Y0023676D01*
X0115441Y0023489D01*
X0115535Y0023303D01*
X0115634Y0023121D01*
X0115737Y0022940D01*
X0115845Y0022762D01*
X0115956Y0022587D01*
X0116072Y0022415D01*
X0116192Y0022245D01*
X0116317Y0022078D01*
X0116445Y0021915D01*
X0116577Y0021754D01*
X0116713Y0021597D01*
X0116852Y0021443D01*
X0116996Y0021293D01*
X0117143Y0021146D01*
X0117293Y0021002D01*
X0117447Y0020863D01*
X0117604Y0020727D01*
X0117765Y0020595D01*
X0117928Y0020467D01*
X0118095Y0020342D01*
X0118265Y0020222D01*
X0118437Y0020106D01*
X0118612Y0019995D01*
X0118790Y0019887D01*
X0118971Y0019784D01*
X0119153Y0019685D01*
X0119339Y0019591D01*
X0119526Y0019501D01*
X0119715Y0019416D01*
X0119907Y0019335D01*
X0120100Y0019259D01*
X0120296Y0019188D01*
X0120492Y0019121D01*
X0120691Y0019059D01*
X0120891Y0019002D01*
X0121092Y0018950D01*
X0121294Y0018903D01*
X0121498Y0018860D01*
X0121702Y0018823D01*
X0121907Y0018790D01*
X0122113Y0018763D01*
X0122320Y0018740D01*
X0122527Y0018723D01*
X0122735Y0018710D01*
X0122942Y0018703D01*
X0123150Y0018700D01*
X0127350Y0018700D01*
X0138050Y0022100D02*
X0138046Y0022443D01*
X0138033Y0022786D01*
X0138013Y0023129D01*
X0137984Y0023470D01*
X0137946Y0023812D01*
X0137901Y0024152D01*
X0137847Y0024491D01*
X0137785Y0024828D01*
X0137715Y0025164D01*
X0137637Y0025498D01*
X0137551Y0025830D01*
X0137457Y0026160D01*
X0137355Y0026488D01*
X0137245Y0026813D01*
X0137127Y0027135D01*
X0137002Y0027455D01*
X0136868Y0027771D01*
X0136728Y0028084D01*
X0136579Y0028393D01*
X0136423Y0028699D01*
X0136260Y0029001D01*
X0136090Y0029299D01*
X0135912Y0029592D01*
X0135728Y0029882D01*
X0135536Y0030167D01*
X0135338Y0030447D01*
X0135133Y0030722D01*
X0134921Y0030992D01*
X0134703Y0031257D01*
X0134479Y0031516D01*
X0134248Y0031770D01*
X0134012Y0032019D01*
X0133769Y0032262D01*
X0133520Y0032498D01*
X0133266Y0032729D01*
X0133007Y0032953D01*
X0132742Y0033171D01*
X0132472Y0033383D01*
X0132197Y0033588D01*
X0131917Y0033786D01*
X0131632Y0033978D01*
X0131342Y0034162D01*
X0131049Y0034340D01*
X0130751Y0034510D01*
X0130449Y0034673D01*
X0130143Y0034829D01*
X0129834Y0034978D01*
X0129521Y0035118D01*
X0129205Y0035252D01*
X0128885Y0035377D01*
X0128563Y0035495D01*
X0128238Y0035605D01*
X0127910Y0035707D01*
X0127580Y0035801D01*
X0127248Y0035887D01*
X0126914Y0035965D01*
X0126578Y0036035D01*
X0126241Y0036097D01*
X0125902Y0036151D01*
X0125562Y0036196D01*
X0125220Y0036234D01*
X0124879Y0036263D01*
X0124536Y0036283D01*
X0124193Y0036296D01*
X0123850Y0036300D01*
X0138050Y0022100D02*
X0138050Y0018700D01*
X0138056Y0019220D01*
X0138075Y0019739D01*
X0138106Y0020257D01*
X0138150Y0020775D01*
X0138207Y0021292D01*
X0138276Y0021807D01*
X0138357Y0022320D01*
X0138451Y0022831D01*
X0138557Y0023339D01*
X0138675Y0023845D01*
X0138805Y0024348D01*
X0138948Y0024848D01*
X0139102Y0025344D01*
X0139269Y0025836D01*
X0139447Y0026324D01*
X0139637Y0026808D01*
X0139839Y0027286D01*
X0140052Y0027760D01*
X0140277Y0028229D01*
X0140513Y0028692D01*
X0140760Y0029149D01*
X0141018Y0029600D01*
X0141286Y0030044D01*
X0141566Y0030482D01*
X0141856Y0030913D01*
X0142156Y0031337D01*
X0142467Y0031754D01*
X0142787Y0032163D01*
X0143117Y0032564D01*
X0143457Y0032957D01*
X0143806Y0033342D01*
X0144165Y0033718D01*
X0144532Y0034085D01*
X0144908Y0034444D01*
X0145293Y0034793D01*
X0145686Y0035133D01*
X0146087Y0035463D01*
X0146496Y0035783D01*
X0146913Y0036094D01*
X0147337Y0036394D01*
X0147768Y0036684D01*
X0148206Y0036964D01*
X0148650Y0037232D01*
X0149101Y0037490D01*
X0149558Y0037737D01*
X0150021Y0037973D01*
X0150490Y0038198D01*
X0150964Y0038411D01*
X0151442Y0038613D01*
X0151926Y0038803D01*
X0152414Y0038981D01*
X0152906Y0039148D01*
X0153402Y0039302D01*
X0153902Y0039445D01*
X0154405Y0039575D01*
X0154911Y0039693D01*
X0155419Y0039799D01*
X0155930Y0039893D01*
X0156443Y0039974D01*
X0156958Y0040043D01*
X0157475Y0040100D01*
X0157993Y0040144D01*
X0158511Y0040175D01*
X0159030Y0040194D01*
X0159550Y0040200D01*
X0256650Y0040200D01*
X0234850Y0066800D02*
X0234852Y0066878D01*
X0234858Y0066955D01*
X0234868Y0067032D01*
X0234881Y0067108D01*
X0234899Y0067184D01*
X0234920Y0067259D01*
X0234945Y0067332D01*
X0234974Y0067404D01*
X0235007Y0067475D01*
X0235043Y0067543D01*
X0235082Y0067610D01*
X0235125Y0067675D01*
X0235171Y0067738D01*
X0235220Y0067798D01*
X0235272Y0067855D01*
X0235327Y0067910D01*
X0235384Y0067962D01*
X0235444Y0068011D01*
X0235507Y0068057D01*
X0235572Y0068100D01*
X0235639Y0068139D01*
X0235707Y0068175D01*
X0235778Y0068208D01*
X0235850Y0068237D01*
X0235923Y0068262D01*
X0235998Y0068283D01*
X0236074Y0068301D01*
X0236150Y0068314D01*
X0236227Y0068324D01*
X0236304Y0068330D01*
X0236382Y0068332D01*
X0256390Y0068332D01*
X0234850Y0076800D02*
X0256390Y0095891D01*
X0256390Y0109670D02*
X0234850Y0086800D01*
X0227750Y0086800D01*
X0227669Y0086802D01*
X0227588Y0086808D01*
X0227508Y0086817D01*
X0227428Y0086831D01*
X0227349Y0086848D01*
X0227271Y0086869D01*
X0227194Y0086893D01*
X0227118Y0086922D01*
X0227044Y0086954D01*
X0226971Y0086989D01*
X0226900Y0087028D01*
X0226831Y0087070D01*
X0226764Y0087115D01*
X0226699Y0087164D01*
X0226637Y0087215D01*
X0226577Y0087270D01*
X0226520Y0087327D01*
X0226465Y0087387D01*
X0226414Y0087449D01*
X0226365Y0087514D01*
X0226320Y0087581D01*
X0226278Y0087650D01*
X0226239Y0087721D01*
X0226204Y0087794D01*
X0226172Y0087868D01*
X0226143Y0087944D01*
X0226119Y0088021D01*
X0226098Y0088099D01*
X0226081Y0088178D01*
X0226067Y0088258D01*
X0226058Y0088338D01*
X0226052Y0088419D01*
X0226050Y0088500D01*
X0226050Y0088617D01*
X0217850Y0083800D02*
X0217850Y0094800D01*
X0217850Y0083800D02*
X0217855Y0083389D01*
X0217870Y0082979D01*
X0217895Y0082569D01*
X0217929Y0082159D01*
X0217974Y0081751D01*
X0218028Y0081344D01*
X0218093Y0080938D01*
X0218167Y0080534D01*
X0218251Y0080132D01*
X0218344Y0079732D01*
X0218447Y0079334D01*
X0218560Y0078939D01*
X0218682Y0078547D01*
X0218814Y0078158D01*
X0218955Y0077772D01*
X0219105Y0077389D01*
X0219265Y0077011D01*
X0219433Y0076636D01*
X0219611Y0076266D01*
X0219797Y0075900D01*
X0219993Y0075538D01*
X0220197Y0075182D01*
X0220409Y0074830D01*
X0220630Y0074484D01*
X0220859Y0074143D01*
X0221097Y0073808D01*
X0221342Y0073478D01*
X0221596Y0073155D01*
X0221857Y0072838D01*
X0222125Y0072527D01*
X0222401Y0072223D01*
X0222685Y0071925D01*
X0222975Y0071635D01*
X0223273Y0071351D01*
X0223577Y0071075D01*
X0223888Y0070807D01*
X0224205Y0070546D01*
X0224528Y0070292D01*
X0224858Y0070047D01*
X0225193Y0069809D01*
X0225534Y0069580D01*
X0225880Y0069359D01*
X0226232Y0069147D01*
X0226588Y0068943D01*
X0226950Y0068747D01*
X0227316Y0068561D01*
X0227686Y0068383D01*
X0228061Y0068215D01*
X0228439Y0068055D01*
X0228822Y0067905D01*
X0229208Y0067764D01*
X0229597Y0067632D01*
X0229989Y0067510D01*
X0230384Y0067397D01*
X0230782Y0067294D01*
X0231182Y0067201D01*
X0231584Y0067117D01*
X0231988Y0067043D01*
X0232394Y0066978D01*
X0232801Y0066924D01*
X0233209Y0066879D01*
X0233619Y0066845D01*
X0234029Y0066820D01*
X0234439Y0066805D01*
X0234850Y0066800D01*
X0247550Y0109100D02*
X0256390Y0123450D01*
X0246250Y0127500D02*
X0246253Y0127735D01*
X0246261Y0127970D01*
X0246276Y0128205D01*
X0246295Y0128439D01*
X0246321Y0128673D01*
X0246352Y0128906D01*
X0246389Y0129138D01*
X0246431Y0129369D01*
X0246479Y0129599D01*
X0246533Y0129828D01*
X0246592Y0130056D01*
X0246656Y0130282D01*
X0246726Y0130506D01*
X0246802Y0130729D01*
X0246882Y0130950D01*
X0246968Y0131169D01*
X0247060Y0131385D01*
X0247156Y0131600D01*
X0247258Y0131812D01*
X0247364Y0132021D01*
X0247476Y0132228D01*
X0247593Y0132432D01*
X0247715Y0132633D01*
X0247841Y0132832D01*
X0247972Y0133027D01*
X0248108Y0133219D01*
X0248249Y0133407D01*
X0248394Y0133592D01*
X0248543Y0133774D01*
X0248697Y0133952D01*
X0248855Y0134126D01*
X0249017Y0134296D01*
X0249183Y0134462D01*
X0249353Y0134624D01*
X0249527Y0134782D01*
X0249705Y0134936D01*
X0249887Y0135085D01*
X0250072Y0135230D01*
X0250260Y0135371D01*
X0250452Y0135507D01*
X0250647Y0135638D01*
X0250846Y0135764D01*
X0251047Y0135886D01*
X0251251Y0136003D01*
X0251458Y0136115D01*
X0251667Y0136221D01*
X0251879Y0136323D01*
X0252094Y0136419D01*
X0252310Y0136511D01*
X0252529Y0136597D01*
X0252750Y0136677D01*
X0252973Y0136753D01*
X0253197Y0136823D01*
X0253423Y0136887D01*
X0253651Y0136946D01*
X0253880Y0137000D01*
X0254110Y0137048D01*
X0254341Y0137090D01*
X0254573Y0137127D01*
X0254806Y0137158D01*
X0255040Y0137184D01*
X0255274Y0137203D01*
X0255509Y0137218D01*
X0255744Y0137226D01*
X0255979Y0137229D01*
X0256390Y0137229D01*
X0256390Y0151009D02*
X0256043Y0151005D01*
X0255697Y0150992D01*
X0255351Y0150971D01*
X0255006Y0150942D01*
X0254662Y0150904D01*
X0254318Y0150859D01*
X0253976Y0150804D01*
X0253635Y0150742D01*
X0253296Y0150671D01*
X0252958Y0150592D01*
X0252623Y0150505D01*
X0252290Y0150410D01*
X0251959Y0150307D01*
X0251630Y0150196D01*
X0251305Y0150077D01*
X0250982Y0149950D01*
X0250663Y0149816D01*
X0250347Y0149674D01*
X0250035Y0149524D01*
X0249726Y0149366D01*
X0249421Y0149202D01*
X0249120Y0149030D01*
X0248824Y0148850D01*
X0248532Y0148664D01*
X0248244Y0148471D01*
X0247961Y0148270D01*
X0247683Y0148063D01*
X0247411Y0147850D01*
X0247143Y0147629D01*
X0246881Y0147403D01*
X0246624Y0147170D01*
X0246373Y0146931D01*
X0246128Y0146686D01*
X0245889Y0146435D01*
X0245656Y0146178D01*
X0245430Y0145916D01*
X0245209Y0145648D01*
X0244996Y0145376D01*
X0244789Y0145098D01*
X0244588Y0144815D01*
X0244395Y0144527D01*
X0244209Y0144235D01*
X0244029Y0143939D01*
X0243857Y0143638D01*
X0243693Y0143333D01*
X0243535Y0143024D01*
X0243385Y0142712D01*
X0243243Y0142396D01*
X0243109Y0142077D01*
X0242982Y0141754D01*
X0242863Y0141429D01*
X0242752Y0141100D01*
X0242649Y0140769D01*
X0242554Y0140436D01*
X0242467Y0140101D01*
X0242388Y0139763D01*
X0242317Y0139424D01*
X0242255Y0139083D01*
X0242200Y0138741D01*
X0242155Y0138397D01*
X0242117Y0138053D01*
X0242088Y0137708D01*
X0242067Y0137362D01*
X0242054Y0137016D01*
X0242050Y0136669D01*
X0242050Y0124000D01*
X0246250Y0127500D02*
X0246250Y0118200D01*
X0246247Y0117925D01*
X0246237Y0117649D01*
X0246220Y0117374D01*
X0246197Y0117100D01*
X0246167Y0116826D01*
X0246130Y0116553D01*
X0246087Y0116281D01*
X0246038Y0116010D01*
X0245981Y0115740D01*
X0245919Y0115472D01*
X0245850Y0115205D01*
X0245774Y0114940D01*
X0245692Y0114677D01*
X0245604Y0114416D01*
X0245509Y0114158D01*
X0245408Y0113901D01*
X0245301Y0113647D01*
X0245188Y0113396D01*
X0245069Y0113148D01*
X0244944Y0112902D01*
X0244813Y0112660D01*
X0244676Y0112421D01*
X0244534Y0112185D01*
X0244386Y0111953D01*
X0244232Y0111724D01*
X0244073Y0111499D01*
X0243908Y0111278D01*
X0243738Y0111061D01*
X0243563Y0110849D01*
X0243383Y0110640D01*
X0243198Y0110436D01*
X0243008Y0110237D01*
X0242813Y0110042D01*
X0242614Y0109852D01*
X0242410Y0109667D01*
X0242201Y0109487D01*
X0241989Y0109312D01*
X0241772Y0109142D01*
X0241551Y0108977D01*
X0241326Y0108818D01*
X0241097Y0108664D01*
X0240865Y0108516D01*
X0240629Y0108374D01*
X0240390Y0108237D01*
X0240148Y0108106D01*
X0239902Y0107981D01*
X0239654Y0107862D01*
X0239403Y0107749D01*
X0239149Y0107642D01*
X0238892Y0107541D01*
X0238634Y0107446D01*
X0238373Y0107358D01*
X0238110Y0107276D01*
X0237845Y0107200D01*
X0237578Y0107131D01*
X0237310Y0107069D01*
X0237040Y0107012D01*
X0236769Y0106963D01*
X0236497Y0106920D01*
X0236224Y0106883D01*
X0235950Y0106853D01*
X0235676Y0106830D01*
X0235401Y0106813D01*
X0235125Y0106803D01*
X0234850Y0106800D01*
X0234850Y0116800D02*
X0235024Y0116802D01*
X0235198Y0116808D01*
X0235372Y0116819D01*
X0235545Y0116834D01*
X0235718Y0116852D01*
X0235890Y0116876D01*
X0236062Y0116903D01*
X0236233Y0116934D01*
X0236404Y0116970D01*
X0236573Y0117009D01*
X0236741Y0117053D01*
X0236909Y0117101D01*
X0237075Y0117152D01*
X0237240Y0117208D01*
X0237403Y0117268D01*
X0237565Y0117332D01*
X0237725Y0117399D01*
X0237884Y0117471D01*
X0238041Y0117546D01*
X0238196Y0117625D01*
X0238349Y0117707D01*
X0238500Y0117794D01*
X0238649Y0117884D01*
X0238796Y0117977D01*
X0238940Y0118075D01*
X0239082Y0118175D01*
X0239222Y0118279D01*
X0239359Y0118386D01*
X0239493Y0118497D01*
X0239624Y0118611D01*
X0239753Y0118728D01*
X0239879Y0118848D01*
X0240002Y0118971D01*
X0240122Y0119097D01*
X0240239Y0119226D01*
X0240353Y0119357D01*
X0240464Y0119491D01*
X0240571Y0119628D01*
X0240675Y0119768D01*
X0240775Y0119910D01*
X0240873Y0120054D01*
X0240966Y0120201D01*
X0241056Y0120350D01*
X0241143Y0120501D01*
X0241225Y0120654D01*
X0241304Y0120809D01*
X0241379Y0120966D01*
X0241451Y0121125D01*
X0241518Y0121285D01*
X0241582Y0121447D01*
X0241642Y0121610D01*
X0241698Y0121775D01*
X0241749Y0121941D01*
X0241797Y0122109D01*
X0241841Y0122277D01*
X0241880Y0122446D01*
X0241916Y0122617D01*
X0241947Y0122788D01*
X0241974Y0122960D01*
X0241998Y0123132D01*
X0242016Y0123305D01*
X0242031Y0123478D01*
X0242042Y0123652D01*
X0242048Y0123826D01*
X0242050Y0124000D01*
X0234850Y0126800D02*
X0234018Y0126800D01*
X0247550Y0109100D02*
X0247096Y0108381D01*
X0246624Y0107673D01*
X0246136Y0106977D01*
X0245631Y0106292D01*
X0245110Y0105619D01*
X0244573Y0104959D01*
X0244021Y0104312D01*
X0243454Y0103678D01*
X0242871Y0103058D01*
X0242275Y0102452D01*
X0241664Y0101860D01*
X0241039Y0101283D01*
X0240400Y0100721D01*
X0239749Y0100174D01*
X0239084Y0099643D01*
X0238407Y0099128D01*
X0237718Y0098629D01*
X0237018Y0098146D01*
X0236306Y0097680D01*
X0235583Y0097231D01*
X0234850Y0096800D01*
X0185350Y0128200D02*
X0166150Y0128312D01*
X0166150Y0117288D02*
X0144850Y0116800D01*
X0144950Y0076800D02*
X0145938Y0076824D01*
X0146925Y0076872D01*
X0147911Y0076944D01*
X0148895Y0077039D01*
X0149876Y0077159D01*
X0150854Y0077301D01*
X0151829Y0077468D01*
X0152799Y0077658D01*
X0153764Y0077872D01*
X0154723Y0078108D01*
X0155677Y0078368D01*
X0156624Y0078651D01*
X0157564Y0078956D01*
X0158497Y0079285D01*
X0159421Y0079635D01*
X0160336Y0080008D01*
X0161242Y0080403D01*
X0162139Y0080820D01*
X0163025Y0081258D01*
X0163900Y0081717D01*
X0164764Y0082198D01*
X0165616Y0082699D01*
X0166455Y0083221D01*
X0167282Y0083762D01*
X0168095Y0084324D01*
X0168895Y0084905D01*
X0169680Y0085505D01*
X0170451Y0086124D01*
X0171206Y0086762D01*
X0171946Y0087418D01*
X0172670Y0088091D01*
X0173377Y0088781D01*
X0174067Y0089489D01*
X0174740Y0090213D01*
X0175396Y0090953D01*
X0176033Y0091708D01*
X0176652Y0092479D01*
X0177252Y0093264D01*
X0177833Y0094064D01*
X0178394Y0094878D01*
X0178936Y0095705D01*
X0179457Y0096544D01*
X0179958Y0097396D01*
X0180438Y0098260D01*
X0180897Y0099136D01*
X0181335Y0100022D01*
X0181752Y0100918D01*
X0182146Y0101824D01*
X0182519Y0102740D01*
X0182869Y0103664D01*
X0183197Y0104597D01*
X0183503Y0105537D01*
X0183785Y0106484D01*
X0184045Y0107438D01*
X0184281Y0108397D01*
X0184494Y0109363D01*
X0184684Y0110333D01*
X0184850Y0111307D01*
X0184993Y0112285D01*
X0185112Y0113266D01*
X0185207Y0114250D01*
X0185279Y0115236D01*
X0185326Y0116223D01*
X0185350Y0117212D01*
X0185350Y0118200D01*
X0157094Y0157573D02*
X0155753Y0157502D01*
X0154415Y0157398D01*
X0153079Y0157262D01*
X0151747Y0157094D01*
X0150419Y0156894D01*
X0149097Y0156662D01*
X0147781Y0156398D01*
X0146471Y0156102D01*
X0145169Y0155775D01*
X0143875Y0155416D01*
X0142590Y0155027D01*
X0141315Y0154606D01*
X0140051Y0154155D01*
X0138797Y0153673D01*
X0137556Y0153162D01*
X0136327Y0152620D01*
X0135112Y0152049D01*
X0133911Y0151449D01*
X0132725Y0150820D01*
X0131554Y0150163D01*
X0130400Y0149478D01*
X0129262Y0148765D01*
X0128142Y0148024D01*
X0127040Y0147257D01*
X0125957Y0146464D01*
X0124894Y0145644D01*
X0123850Y0144800D01*
X0113850Y0161800D02*
X0113848Y0162025D01*
X0113851Y0162250D01*
X0113860Y0162474D01*
X0113874Y0162699D01*
X0113894Y0162922D01*
X0113919Y0163146D01*
X0113949Y0163369D01*
X0113985Y0163590D01*
X0114026Y0163811D01*
X0114073Y0164031D01*
X0114124Y0164250D01*
X0114181Y0164468D01*
X0114244Y0164684D01*
X0114311Y0164898D01*
X0114384Y0165111D01*
X0114461Y0165322D01*
X0114544Y0165531D01*
X0114632Y0165738D01*
X0114725Y0165942D01*
X0114822Y0166145D01*
X0114925Y0166345D01*
X0115032Y0166542D01*
X0115145Y0166737D01*
X0115261Y0166929D01*
X0115383Y0167118D01*
X0115509Y0167305D01*
X0115639Y0167488D01*
X0115774Y0167667D01*
X0115913Y0167844D01*
X0116056Y0168017D01*
X0116204Y0168187D01*
X0116355Y0168353D01*
X0116511Y0168515D01*
X0116670Y0168674D01*
X0116833Y0168828D01*
X0117000Y0168979D01*
X0117171Y0169126D01*
X0117345Y0169268D01*
X0117522Y0169406D01*
X0117702Y0169540D01*
X0117886Y0169669D01*
X0118073Y0169794D01*
X0118263Y0169915D01*
X0118456Y0170031D01*
X0118651Y0170142D01*
X0118849Y0170248D01*
X0119050Y0170350D01*
X0119253Y0170446D01*
X0119458Y0170538D01*
X0119665Y0170625D01*
X0119875Y0170706D01*
X0120086Y0170783D01*
X0120299Y0170854D01*
X0120514Y0170921D01*
X0120730Y0170982D01*
X0120948Y0171038D01*
X0121167Y0171088D01*
X0121387Y0171133D01*
X0121608Y0171173D01*
X0121830Y0171208D01*
X0122053Y0171237D01*
X0122277Y0171261D01*
X0122501Y0171279D01*
X0122725Y0171292D01*
X0122950Y0171300D01*
X0215722Y0171340D01*
X0215897Y0171366D01*
X0216072Y0171388D01*
X0216248Y0171405D01*
X0216424Y0171419D01*
X0216600Y0171428D01*
X0216777Y0171432D01*
X0216954Y0171433D01*
X0217130Y0171429D01*
X0217307Y0171421D01*
X0217483Y0171408D01*
X0217659Y0171391D01*
X0217834Y0171370D01*
X0218009Y0171345D01*
X0218183Y0171316D01*
X0218357Y0171282D01*
X0218529Y0171244D01*
X0218701Y0171202D01*
X0218872Y0171156D01*
X0219041Y0171105D01*
X0219209Y0171051D01*
X0219376Y0170992D01*
X0219541Y0170930D01*
X0219705Y0170863D01*
X0219867Y0170793D01*
X0220027Y0170719D01*
X0220185Y0170640D01*
X0220342Y0170558D01*
X0220496Y0170472D01*
X0220649Y0170383D01*
X0220799Y0170290D01*
X0220947Y0170193D01*
X0221092Y0170092D01*
X0221235Y0169989D01*
X0221375Y0169881D01*
X0221513Y0169771D01*
X0221648Y0169657D01*
X0221780Y0169539D01*
X0221909Y0169419D01*
X0222036Y0169295D01*
X0222159Y0169169D01*
X0222279Y0169039D01*
X0222396Y0168907D01*
X0222510Y0168772D01*
X0222620Y0168634D01*
X0222728Y0168493D01*
X0222831Y0168350D01*
X0222931Y0168205D01*
X0223028Y0168057D01*
X0223121Y0167907D01*
X0223210Y0167754D01*
X0223296Y0167600D01*
X0223378Y0167443D01*
X0223456Y0167284D01*
X0223530Y0167124D01*
X0223600Y0166962D01*
X0223666Y0166798D01*
X0223728Y0166633D01*
X0223787Y0166466D01*
X0223841Y0166298D01*
X0223891Y0166128D01*
X0223937Y0165958D01*
X0223979Y0165786D01*
X0224016Y0165613D01*
X0224050Y0165440D01*
X0224079Y0165266D01*
X0224104Y0165091D01*
X0224125Y0164915D01*
X0224141Y0164739D01*
X0224153Y0164563D01*
X0224161Y0164387D01*
X0224165Y0164210D01*
X0224164Y0164033D01*
X0224159Y0163857D01*
X0224150Y0163680D01*
X0224184Y0163659D01*
X0224215Y0163635D01*
X0224244Y0163607D01*
X0224270Y0163577D01*
X0224293Y0163545D01*
X0224313Y0163511D01*
X0224330Y0163475D01*
X0224343Y0163437D01*
X0224352Y0163398D01*
X0224357Y0163359D01*
X0224359Y0163319D01*
X0224357Y0163280D01*
X0224351Y0163240D01*
X0224341Y0163202D01*
X0224327Y0163164D01*
X0224310Y0163129D01*
X0224289Y0163095D01*
X0224265Y0163063D01*
X0224239Y0163033D01*
X0224209Y0163007D01*
X0224177Y0162983D01*
X0224143Y0162962D01*
X0224107Y0162945D01*
X0224070Y0162932D01*
X0236758Y0151908D02*
X0237004Y0151911D01*
X0237250Y0151920D01*
X0237496Y0151935D01*
X0237742Y0151956D01*
X0237987Y0151982D01*
X0238231Y0152015D01*
X0238474Y0152053D01*
X0238716Y0152098D01*
X0238957Y0152148D01*
X0239197Y0152204D01*
X0239436Y0152266D01*
X0239672Y0152334D01*
X0239908Y0152407D01*
X0240141Y0152486D01*
X0240372Y0152570D01*
X0240601Y0152660D01*
X0240828Y0152756D01*
X0241053Y0152857D01*
X0241275Y0152964D01*
X0241494Y0153075D01*
X0241711Y0153193D01*
X0241925Y0153315D01*
X0242136Y0153442D01*
X0242343Y0153575D01*
X0242548Y0153712D01*
X0242749Y0153854D01*
X0242946Y0154002D01*
X0243140Y0154154D01*
X0243330Y0154310D01*
X0243517Y0154471D01*
X0243699Y0154637D01*
X0243877Y0154807D01*
X0244051Y0154981D01*
X0244221Y0155159D01*
X0244387Y0155341D01*
X0244548Y0155528D01*
X0244704Y0155718D01*
X0244856Y0155912D01*
X0245004Y0156109D01*
X0245146Y0156310D01*
X0245283Y0156515D01*
X0245416Y0156722D01*
X0245543Y0156933D01*
X0245665Y0157147D01*
X0245783Y0157364D01*
X0245894Y0157583D01*
X0246001Y0157805D01*
X0246102Y0158030D01*
X0246198Y0158257D01*
X0246288Y0158486D01*
X0246372Y0158717D01*
X0246451Y0158950D01*
X0246524Y0159186D01*
X0246592Y0159422D01*
X0246654Y0159661D01*
X0246710Y0159901D01*
X0246760Y0160142D01*
X0246805Y0160384D01*
X0246843Y0160627D01*
X0246876Y0160871D01*
X0246902Y0161116D01*
X0246923Y0161362D01*
X0246938Y0161608D01*
X0246947Y0161854D01*
X0246950Y0162100D01*
X0246952Y0162203D01*
X0246958Y0162306D01*
X0246968Y0162408D01*
X0246982Y0162510D01*
X0246999Y0162612D01*
X0247021Y0162712D01*
X0247046Y0162812D01*
X0247075Y0162911D01*
X0247108Y0163009D01*
X0247145Y0163105D01*
X0247185Y0163200D01*
X0247229Y0163293D01*
X0247277Y0163384D01*
X0247327Y0163474D01*
X0247382Y0163561D01*
X0247439Y0163646D01*
X0247500Y0163730D01*
X0247564Y0163810D01*
X0247631Y0163888D01*
X0247701Y0163964D01*
X0247774Y0164037D01*
X0247850Y0164107D01*
X0247928Y0164174D01*
X0248008Y0164238D01*
X0248092Y0164299D01*
X0248177Y0164356D01*
X0248264Y0164411D01*
X0248354Y0164461D01*
X0248445Y0164509D01*
X0248538Y0164553D01*
X0248633Y0164593D01*
X0248729Y0164630D01*
X0248827Y0164663D01*
X0248926Y0164692D01*
X0249026Y0164717D01*
X0249126Y0164739D01*
X0249228Y0164756D01*
X0249330Y0164770D01*
X0249432Y0164780D01*
X0249535Y0164786D01*
X0249638Y0164788D01*
X0256390Y0164788D01*
X0236758Y0151908D02*
X0224070Y0151908D01*
X0223610Y0152260D02*
X0221662Y0152260D01*
X0223138Y0151788D02*
X0223179Y0151790D01*
X0223220Y0151795D01*
X0223260Y0151804D01*
X0223299Y0151816D01*
X0223337Y0151832D01*
X0223374Y0151851D01*
X0223409Y0151873D01*
X0223441Y0151898D01*
X0223472Y0151926D01*
X0223500Y0151957D01*
X0223525Y0151989D01*
X0223547Y0152024D01*
X0223566Y0152061D01*
X0223582Y0152099D01*
X0223594Y0152138D01*
X0223603Y0152178D01*
X0223608Y0152219D01*
X0223610Y0152260D01*
X0223138Y0151788D02*
X0209030Y0151788D01*
X0221662Y0152260D02*
X0221712Y0152195D01*
X0221766Y0152133D01*
X0221822Y0152074D01*
X0221881Y0152017D01*
X0221943Y0151963D01*
X0222008Y0151913D01*
X0222074Y0151865D01*
X0222143Y0151821D01*
X0222214Y0151779D01*
X0222287Y0151742D01*
X0222361Y0151707D01*
X0222437Y0151677D01*
X0222514Y0151650D01*
X0222593Y0151627D01*
X0222672Y0151607D01*
X0222753Y0151591D01*
X0222834Y0151580D01*
X0222915Y0151572D01*
X0222997Y0151568D01*
X0223079Y0151567D01*
X0223161Y0151571D01*
X0223242Y0151579D01*
X0223324Y0151590D01*
X0223404Y0151606D01*
X0223484Y0151625D01*
X0223562Y0151648D01*
X0223640Y0151674D01*
X0223716Y0151704D01*
X0223790Y0151738D01*
X0223863Y0151776D01*
X0223934Y0151816D01*
X0224003Y0151861D01*
X0224070Y0151908D01*
X0209030Y0151788D02*
X0209037Y0151184D01*
X0209059Y0150581D01*
X0209096Y0149978D01*
X0209147Y0149376D01*
X0209212Y0148776D01*
X0209292Y0148178D01*
X0209387Y0147581D01*
X0209496Y0146987D01*
X0209619Y0146396D01*
X0209756Y0145808D01*
X0209908Y0145223D01*
X0210073Y0144643D01*
X0210253Y0144066D01*
X0210447Y0143494D01*
X0210654Y0142927D01*
X0210875Y0142365D01*
X0211109Y0141809D01*
X0211357Y0141258D01*
X0211618Y0140714D01*
X0211892Y0140175D01*
X0212179Y0139644D01*
X0212479Y0139120D01*
X0212791Y0138603D01*
X0213116Y0138094D01*
X0213453Y0137593D01*
X0213802Y0137100D01*
X0214163Y0136616D01*
X0214535Y0136141D01*
X0214919Y0135675D01*
X0215314Y0135218D01*
X0215720Y0134771D01*
X0216137Y0134334D01*
X0216564Y0133907D01*
X0217001Y0133490D01*
X0217448Y0133084D01*
X0217905Y0132689D01*
X0218371Y0132305D01*
X0218846Y0131933D01*
X0219330Y0131572D01*
X0219823Y0131223D01*
X0220324Y0130886D01*
X0220833Y0130561D01*
X0221350Y0130249D01*
X0221874Y0129949D01*
X0222405Y0129662D01*
X0222944Y0129388D01*
X0223488Y0129127D01*
X0224039Y0128879D01*
X0224595Y0128645D01*
X0225157Y0128424D01*
X0225724Y0128217D01*
X0226296Y0128023D01*
X0226873Y0127843D01*
X0227453Y0127678D01*
X0228038Y0127526D01*
X0228626Y0127389D01*
X0229217Y0127266D01*
X0229811Y0127157D01*
X0230408Y0127062D01*
X0231006Y0126982D01*
X0231606Y0126917D01*
X0232208Y0126866D01*
X0232811Y0126829D01*
X0233414Y0126807D01*
X0234018Y0126800D01*
X0217850Y0094800D02*
X0217834Y0096086D01*
X0217788Y0097372D01*
X0217710Y0098655D01*
X0217602Y0099937D01*
X0217462Y0101216D01*
X0217291Y0102491D01*
X0217090Y0103761D01*
X0216858Y0105026D01*
X0216596Y0106286D01*
X0216303Y0107538D01*
X0215980Y0108783D01*
X0215628Y0110020D01*
X0215245Y0111248D01*
X0214833Y0112466D01*
X0214391Y0113675D01*
X0213920Y0114872D01*
X0213421Y0116057D01*
X0212893Y0117230D01*
X0212337Y0118390D01*
X0211753Y0119536D01*
X0211142Y0120667D01*
X0210503Y0121784D01*
X0209838Y0122885D01*
X0209146Y0123969D01*
X0208428Y0125036D01*
X0207685Y0126086D01*
X0206916Y0127117D01*
X0206123Y0128130D01*
X0205305Y0129123D01*
X0204464Y0130096D01*
X0203599Y0131048D01*
X0202712Y0131980D01*
X0201803Y0132889D01*
X0200871Y0133776D01*
X0199919Y0134641D01*
X0198946Y0135482D01*
X0197953Y0136300D01*
X0196940Y0137093D01*
X0195909Y0137862D01*
X0194859Y0138605D01*
X0193792Y0139323D01*
X0192708Y0140015D01*
X0191607Y0140680D01*
X0190490Y0141319D01*
X0189359Y0141930D01*
X0188213Y0142514D01*
X0187053Y0143070D01*
X0185880Y0143598D01*
X0184695Y0144097D01*
X0183498Y0144568D01*
X0182289Y0145010D01*
X0181071Y0145422D01*
X0179843Y0145805D01*
X0178606Y0146157D01*
X0177361Y0146480D01*
X0176109Y0146773D01*
X0174849Y0147035D01*
X0173584Y0147267D01*
X0172314Y0147468D01*
X0171039Y0147639D01*
X0169760Y0147779D01*
X0168478Y0147887D01*
X0167195Y0147965D01*
X0165909Y0148011D01*
X0164623Y0148027D01*
X0136850Y0113800D02*
X0136852Y0113631D01*
X0136858Y0113462D01*
X0136868Y0113293D01*
X0136883Y0113124D01*
X0136901Y0112956D01*
X0136923Y0112789D01*
X0136950Y0112622D01*
X0136980Y0112455D01*
X0137015Y0112290D01*
X0137053Y0112125D01*
X0137096Y0111961D01*
X0137142Y0111798D01*
X0137193Y0111637D01*
X0137247Y0111477D01*
X0137305Y0111318D01*
X0137367Y0111160D01*
X0137432Y0111004D01*
X0137502Y0110850D01*
X0137575Y0110698D01*
X0137652Y0110547D01*
X0137732Y0110398D01*
X0137816Y0110251D01*
X0137904Y0110107D01*
X0137995Y0109964D01*
X0138089Y0109824D01*
X0138187Y0109686D01*
X0138288Y0109550D01*
X0138392Y0109417D01*
X0138500Y0109286D01*
X0138610Y0109158D01*
X0138724Y0109033D01*
X0138841Y0108910D01*
X0138960Y0108791D01*
X0139083Y0108674D01*
X0139208Y0108560D01*
X0139336Y0108450D01*
X0139467Y0108342D01*
X0139600Y0108238D01*
X0139736Y0108137D01*
X0139874Y0108039D01*
X0140014Y0107945D01*
X0140157Y0107854D01*
X0140301Y0107766D01*
X0140448Y0107682D01*
X0140597Y0107602D01*
X0140748Y0107525D01*
X0140900Y0107452D01*
X0141054Y0107382D01*
X0141210Y0107317D01*
X0141368Y0107255D01*
X0141527Y0107197D01*
X0141687Y0107143D01*
X0141848Y0107092D01*
X0142011Y0107046D01*
X0142175Y0107003D01*
X0142340Y0106965D01*
X0142505Y0106930D01*
X0142672Y0106900D01*
X0142839Y0106873D01*
X0143006Y0106851D01*
X0143174Y0106833D01*
X0143343Y0106818D01*
X0143512Y0106808D01*
X0143681Y0106802D01*
X0143850Y0106800D01*
X0135850Y0102800D02*
X0135850Y0085800D01*
X0131850Y0079800D02*
X0131850Y0095800D01*
X0123850Y0086800D02*
X0123608Y0086803D01*
X0123367Y0086812D01*
X0123126Y0086826D01*
X0122885Y0086847D01*
X0122645Y0086873D01*
X0122405Y0086905D01*
X0122166Y0086943D01*
X0121929Y0086986D01*
X0121692Y0087036D01*
X0121457Y0087091D01*
X0121223Y0087151D01*
X0120991Y0087218D01*
X0120760Y0087289D01*
X0120531Y0087367D01*
X0120304Y0087450D01*
X0120079Y0087538D01*
X0119856Y0087632D01*
X0119636Y0087731D01*
X0119418Y0087836D01*
X0119203Y0087945D01*
X0118990Y0088060D01*
X0118780Y0088180D01*
X0118574Y0088305D01*
X0118370Y0088435D01*
X0118169Y0088570D01*
X0117972Y0088710D01*
X0117778Y0088854D01*
X0117588Y0089003D01*
X0117402Y0089157D01*
X0117219Y0089315D01*
X0117040Y0089477D01*
X0116865Y0089644D01*
X0116694Y0089815D01*
X0116527Y0089990D01*
X0116365Y0090169D01*
X0116207Y0090352D01*
X0116053Y0090538D01*
X0115904Y0090728D01*
X0115760Y0090922D01*
X0115620Y0091119D01*
X0115485Y0091320D01*
X0115355Y0091524D01*
X0115230Y0091730D01*
X0115110Y0091940D01*
X0114995Y0092153D01*
X0114886Y0092368D01*
X0114781Y0092586D01*
X0114682Y0092806D01*
X0114588Y0093029D01*
X0114500Y0093254D01*
X0114417Y0093481D01*
X0114339Y0093710D01*
X0114268Y0093941D01*
X0114201Y0094173D01*
X0114141Y0094407D01*
X0114086Y0094642D01*
X0114036Y0094879D01*
X0113993Y0095116D01*
X0113955Y0095355D01*
X0113923Y0095595D01*
X0113897Y0095835D01*
X0113876Y0096076D01*
X0113862Y0096317D01*
X0113853Y0096558D01*
X0113850Y0096800D01*
X0113850Y0161800D01*
X0123850Y0124801D02*
X0124110Y0124851D01*
X0124372Y0124894D01*
X0124634Y0124932D01*
X0124897Y0124963D01*
X0125160Y0124987D01*
X0125425Y0125005D01*
X0125689Y0125017D01*
X0125954Y0125022D01*
X0126219Y0125020D01*
X0126483Y0125012D01*
X0126748Y0124998D01*
X0127012Y0124977D01*
X0127275Y0124950D01*
X0127538Y0124916D01*
X0127800Y0124876D01*
X0128060Y0124830D01*
X0128320Y0124777D01*
X0128578Y0124718D01*
X0128835Y0124652D01*
X0129090Y0124581D01*
X0129343Y0124503D01*
X0129594Y0124418D01*
X0129843Y0124328D01*
X0130089Y0124232D01*
X0130334Y0124130D01*
X0130575Y0124021D01*
X0130814Y0123907D01*
X0131050Y0123787D01*
X0131283Y0123662D01*
X0131513Y0123530D01*
X0131740Y0123394D01*
X0131963Y0123251D01*
X0132183Y0123103D01*
X0132399Y0122950D01*
X0132611Y0122792D01*
X0132820Y0122628D01*
X0133024Y0122460D01*
X0133224Y0122286D01*
X0133420Y0122108D01*
X0133611Y0121925D01*
X0133798Y0121737D01*
X0133980Y0121545D01*
X0134157Y0121348D01*
X0134330Y0121147D01*
X0134497Y0120942D01*
X0134660Y0120733D01*
X0134817Y0120520D01*
X0134969Y0120303D01*
X0135116Y0120083D01*
X0135257Y0119859D01*
X0135393Y0119632D01*
X0135523Y0119401D01*
X0135648Y0119167D01*
X0135767Y0118931D01*
X0135880Y0118691D01*
X0135987Y0118449D01*
X0136088Y0118204D01*
X0136183Y0117957D01*
X0136272Y0117708D01*
X0136355Y0117456D01*
X0136431Y0117203D01*
X0136502Y0116947D01*
X0136566Y0116690D01*
X0136624Y0116432D01*
X0136676Y0116172D01*
X0136721Y0115911D01*
X0136760Y0115649D01*
X0136792Y0115387D01*
X0136818Y0115123D01*
X0136838Y0114859D01*
X0136851Y0114594D01*
X0136857Y0114330D01*
X0136857Y0114065D01*
X0136851Y0113800D01*
X0135850Y0102800D02*
X0135846Y0103090D01*
X0135836Y0103380D01*
X0135818Y0103669D01*
X0135794Y0103958D01*
X0135763Y0104246D01*
X0135724Y0104534D01*
X0135679Y0104820D01*
X0135626Y0105106D01*
X0135567Y0105389D01*
X0135501Y0105672D01*
X0135429Y0105952D01*
X0135349Y0106231D01*
X0135263Y0106508D01*
X0135170Y0106783D01*
X0135070Y0107055D01*
X0134964Y0107325D01*
X0134852Y0107592D01*
X0134732Y0107857D01*
X0134607Y0108118D01*
X0134475Y0108377D01*
X0134338Y0108632D01*
X0134194Y0108884D01*
X0134044Y0109132D01*
X0133888Y0109376D01*
X0133726Y0109617D01*
X0133558Y0109853D01*
X0133385Y0110086D01*
X0133206Y0110314D01*
X0133022Y0110538D01*
X0132832Y0110757D01*
X0132637Y0110972D01*
X0132437Y0111182D01*
X0132232Y0111387D01*
X0132022Y0111587D01*
X0131807Y0111782D01*
X0131588Y0111972D01*
X0131364Y0112156D01*
X0131136Y0112335D01*
X0130903Y0112508D01*
X0130667Y0112676D01*
X0130426Y0112838D01*
X0130182Y0112994D01*
X0129934Y0113144D01*
X0129682Y0113288D01*
X0129427Y0113425D01*
X0129168Y0113557D01*
X0128907Y0113682D01*
X0128642Y0113802D01*
X0128375Y0113914D01*
X0128105Y0114020D01*
X0127833Y0114120D01*
X0127558Y0114213D01*
X0127281Y0114299D01*
X0127002Y0114379D01*
X0126722Y0114451D01*
X0126439Y0114517D01*
X0126156Y0114576D01*
X0125870Y0114629D01*
X0125584Y0114674D01*
X0125296Y0114713D01*
X0125008Y0114744D01*
X0124719Y0114768D01*
X0124430Y0114786D01*
X0124140Y0114796D01*
X0123850Y0114800D01*
X0123850Y0104800D02*
X0124055Y0104786D01*
X0124260Y0104766D01*
X0124464Y0104742D01*
X0124668Y0104712D01*
X0124871Y0104678D01*
X0125073Y0104639D01*
X0125274Y0104595D01*
X0125474Y0104546D01*
X0125672Y0104492D01*
X0125870Y0104434D01*
X0126066Y0104370D01*
X0126260Y0104302D01*
X0126452Y0104230D01*
X0126643Y0104152D01*
X0126832Y0104071D01*
X0127019Y0103984D01*
X0127203Y0103893D01*
X0127385Y0103798D01*
X0127565Y0103698D01*
X0127743Y0103594D01*
X0127918Y0103486D01*
X0128090Y0103374D01*
X0128260Y0103257D01*
X0128427Y0103136D01*
X0128590Y0103012D01*
X0128751Y0102883D01*
X0128908Y0102751D01*
X0129063Y0102614D01*
X0129214Y0102474D01*
X0129361Y0102331D01*
X0129505Y0102184D01*
X0129645Y0102034D01*
X0129782Y0101880D01*
X0129915Y0101723D01*
X0130044Y0101562D01*
X0130169Y0101399D01*
X0130291Y0101233D01*
X0130408Y0101064D01*
X0130521Y0100892D01*
X0130630Y0100717D01*
X0130734Y0100540D01*
X0130835Y0100360D01*
X0130930Y0100178D01*
X0131022Y0099994D01*
X0131109Y0099808D01*
X0131192Y0099619D01*
X0131269Y0099429D01*
X0131343Y0099236D01*
X0131411Y0099042D01*
X0131475Y0098847D01*
X0131534Y0098650D01*
X0131589Y0098451D01*
X0131638Y0098251D01*
X0131683Y0098051D01*
X0131723Y0097849D01*
X0131758Y0097646D01*
X0131788Y0097442D01*
X0131813Y0097238D01*
X0131833Y0097033D01*
X0131849Y0096828D01*
X0131859Y0096623D01*
X0131864Y0096417D01*
X0131865Y0096211D01*
X0131860Y0096006D01*
X0131850Y0095800D01*
X0135850Y0085800D02*
X0135853Y0085583D01*
X0135861Y0085365D01*
X0135874Y0085148D01*
X0135892Y0084931D01*
X0135916Y0084715D01*
X0135944Y0084500D01*
X0135978Y0084285D01*
X0136018Y0084071D01*
X0136062Y0083858D01*
X0136112Y0083646D01*
X0136166Y0083436D01*
X0136226Y0083226D01*
X0136290Y0083019D01*
X0136360Y0082813D01*
X0136435Y0082609D01*
X0136514Y0082406D01*
X0136599Y0082206D01*
X0136688Y0082007D01*
X0136782Y0081811D01*
X0136881Y0081617D01*
X0136984Y0081426D01*
X0137092Y0081237D01*
X0137205Y0081051D01*
X0137322Y0080868D01*
X0137443Y0080687D01*
X0137569Y0080510D01*
X0137699Y0080336D01*
X0137833Y0080164D01*
X0137971Y0079996D01*
X0138113Y0079832D01*
X0138260Y0079671D01*
X0138410Y0079513D01*
X0138563Y0079360D01*
X0138721Y0079210D01*
X0138882Y0079063D01*
X0139046Y0078921D01*
X0139214Y0078783D01*
X0139386Y0078649D01*
X0139560Y0078519D01*
X0139737Y0078393D01*
X0139918Y0078272D01*
X0140101Y0078155D01*
X0140287Y0078042D01*
X0140476Y0077934D01*
X0140667Y0077831D01*
X0140861Y0077732D01*
X0141057Y0077638D01*
X0141256Y0077549D01*
X0141456Y0077464D01*
X0141659Y0077385D01*
X0141863Y0077310D01*
X0142069Y0077240D01*
X0142276Y0077176D01*
X0142486Y0077116D01*
X0142696Y0077062D01*
X0142908Y0077012D01*
X0143121Y0076968D01*
X0143335Y0076928D01*
X0143550Y0076894D01*
X0143765Y0076866D01*
X0143981Y0076842D01*
X0144198Y0076824D01*
X0144415Y0076811D01*
X0144633Y0076803D01*
X0144850Y0076800D01*
X0144950Y0076800D01*
X0145150Y0076500D02*
X0145850Y0076500D01*
X0144850Y0066800D02*
X0144536Y0066804D01*
X0144222Y0066815D01*
X0143908Y0066834D01*
X0143595Y0066861D01*
X0143283Y0066895D01*
X0142972Y0066936D01*
X0142661Y0066986D01*
X0142352Y0067042D01*
X0142045Y0067106D01*
X0141739Y0067178D01*
X0141435Y0067257D01*
X0141133Y0067343D01*
X0140833Y0067436D01*
X0140535Y0067537D01*
X0140240Y0067645D01*
X0139948Y0067760D01*
X0139658Y0067882D01*
X0139372Y0068011D01*
X0139089Y0068146D01*
X0138809Y0068289D01*
X0138532Y0068438D01*
X0138260Y0068594D01*
X0137991Y0068757D01*
X0137726Y0068926D01*
X0137465Y0069101D01*
X0137209Y0069283D01*
X0136957Y0069470D01*
X0136710Y0069664D01*
X0136467Y0069864D01*
X0136229Y0070069D01*
X0135997Y0070281D01*
X0135769Y0070497D01*
X0135547Y0070719D01*
X0135331Y0070947D01*
X0135119Y0071179D01*
X0134914Y0071417D01*
X0134714Y0071660D01*
X0134520Y0071907D01*
X0134333Y0072159D01*
X0134151Y0072415D01*
X0133976Y0072676D01*
X0133807Y0072941D01*
X0133644Y0073210D01*
X0133488Y0073482D01*
X0133339Y0073759D01*
X0133196Y0074039D01*
X0133061Y0074322D01*
X0132932Y0074608D01*
X0132810Y0074898D01*
X0132695Y0075190D01*
X0132587Y0075485D01*
X0132486Y0075783D01*
X0132393Y0076083D01*
X0132307Y0076385D01*
X0132228Y0076689D01*
X0132156Y0076995D01*
X0132092Y0077302D01*
X0132036Y0077611D01*
X0131986Y0077922D01*
X0131945Y0078233D01*
X0131911Y0078545D01*
X0131884Y0078858D01*
X0131865Y0079172D01*
X0131854Y0079486D01*
X0131850Y0079800D01*
X0135850Y0085800D02*
X0135853Y0085575D01*
X0135861Y0085351D01*
X0135874Y0085126D01*
X0135893Y0084902D01*
X0135918Y0084679D01*
X0135948Y0084456D01*
X0135983Y0084234D01*
X0136023Y0084013D01*
X0136069Y0083793D01*
X0136120Y0083574D01*
X0136177Y0083357D01*
X0136238Y0083141D01*
X0136305Y0082926D01*
X0136377Y0082713D01*
X0136454Y0082502D01*
X0136537Y0082293D01*
X0136624Y0082086D01*
X0136716Y0081881D01*
X0136813Y0081678D01*
X0136915Y0081478D01*
X0137022Y0081280D01*
X0137134Y0081085D01*
X0137250Y0080893D01*
X0137371Y0080703D01*
X0137496Y0080517D01*
X0137626Y0080334D01*
X0137760Y0080153D01*
X0137899Y0079976D01*
X0138042Y0079803D01*
X0138189Y0079633D01*
X0138340Y0079467D01*
X0138495Y0079304D01*
X0138654Y0079145D01*
X0138817Y0078990D01*
X0138983Y0078839D01*
X0139153Y0078692D01*
X0139326Y0078549D01*
X0139503Y0078410D01*
X0139684Y0078276D01*
X0139867Y0078146D01*
X0140053Y0078021D01*
X0140243Y0077900D01*
X0140435Y0077784D01*
X0140630Y0077672D01*
X0140828Y0077565D01*
X0141028Y0077463D01*
X0141231Y0077366D01*
X0141436Y0077274D01*
X0141643Y0077187D01*
X0141852Y0077104D01*
X0142063Y0077027D01*
X0142276Y0076955D01*
X0142491Y0076888D01*
X0142707Y0076827D01*
X0142924Y0076770D01*
X0143143Y0076719D01*
X0143363Y0076673D01*
X0143584Y0076633D01*
X0143806Y0076598D01*
X0144029Y0076568D01*
X0144252Y0076543D01*
X0144476Y0076524D01*
X0144701Y0076511D01*
X0144925Y0076503D01*
X0145150Y0076500D01*
X0226050Y0088617D02*
X0226030Y0090283D01*
X0225969Y0091948D01*
X0225869Y0093612D01*
X0225728Y0095272D01*
X0225547Y0096929D01*
X0225326Y0098580D01*
X0225066Y0100226D01*
X0224765Y0101865D01*
X0224425Y0103497D01*
X0224046Y0105119D01*
X0223628Y0106732D01*
X0223171Y0108335D01*
X0222675Y0109926D01*
X0222141Y0111504D01*
X0221569Y0113069D01*
X0220959Y0114620D01*
X0220312Y0116156D01*
X0219628Y0117675D01*
X0218908Y0119178D01*
X0218152Y0120662D01*
X0217359Y0122128D01*
X0216532Y0123575D01*
X0215670Y0125001D01*
X0214774Y0126406D01*
X0213844Y0127788D01*
X0212881Y0129148D01*
X0211885Y0130484D01*
X0210857Y0131796D01*
X0209798Y0133083D01*
X0208708Y0134343D01*
X0207588Y0135577D01*
X0206439Y0136784D01*
X0205261Y0137962D01*
X0204054Y0139111D01*
X0202820Y0140231D01*
X0201560Y0141321D01*
X0200273Y0142380D01*
X0198961Y0143408D01*
X0197625Y0144404D01*
X0196265Y0145367D01*
X0194883Y0146297D01*
X0193478Y0147193D01*
X0192052Y0148055D01*
X0190605Y0148882D01*
X0189139Y0149675D01*
X0187655Y0150431D01*
X0186152Y0151151D01*
X0184633Y0151835D01*
X0183097Y0152482D01*
X0181546Y0153092D01*
X0179981Y0153664D01*
X0178403Y0154198D01*
X0176812Y0154694D01*
X0175209Y0155151D01*
X0173596Y0155569D01*
X0171974Y0155948D01*
X0170342Y0156288D01*
X0168703Y0156589D01*
X0167057Y0156849D01*
X0165406Y0157070D01*
X0163749Y0157251D01*
X0162089Y0157392D01*
X0160425Y0157492D01*
X0158760Y0157553D01*
X0157094Y0157573D01*
X0162606Y0148026D02*
X0160944Y0147962D01*
X0159284Y0147858D01*
X0157627Y0147714D01*
X0155974Y0147530D01*
X0154326Y0147306D01*
X0152684Y0147042D01*
X0151049Y0146738D01*
X0149421Y0146395D01*
X0147803Y0146012D01*
X0146194Y0145591D01*
X0144595Y0145130D01*
X0143009Y0144631D01*
X0141435Y0144094D01*
X0139874Y0143519D01*
X0138328Y0142906D01*
X0136797Y0142256D01*
X0135282Y0141569D01*
X0133784Y0140846D01*
X0132304Y0140087D01*
X0130843Y0139292D01*
X0129402Y0138462D01*
X0127981Y0137597D01*
X0126582Y0136698D01*
X0125205Y0135765D01*
X0123851Y0134800D01*
D19*
X0117150Y0121500D02*
X0117152Y0121338D01*
X0117158Y0121176D01*
X0117168Y0121015D01*
X0117181Y0120853D01*
X0117199Y0120692D01*
X0117220Y0120532D01*
X0117246Y0120372D01*
X0117275Y0120213D01*
X0117308Y0120054D01*
X0117345Y0119897D01*
X0117385Y0119740D01*
X0117430Y0119584D01*
X0117478Y0119430D01*
X0117530Y0119276D01*
X0117585Y0119124D01*
X0117645Y0118973D01*
X0117707Y0118824D01*
X0117774Y0118677D01*
X0117844Y0118531D01*
X0117917Y0118386D01*
X0117994Y0118244D01*
X0118075Y0118103D01*
X0118159Y0117965D01*
X0118246Y0117828D01*
X0118336Y0117694D01*
X0118430Y0117562D01*
X0118526Y0117432D01*
X0118626Y0117305D01*
X0118729Y0117180D01*
X0118835Y0117057D01*
X0118944Y0116937D01*
X0119055Y0116820D01*
X0119170Y0116705D01*
X0119287Y0116594D01*
X0119407Y0116485D01*
X0119530Y0116379D01*
X0119655Y0116276D01*
X0119782Y0116176D01*
X0119912Y0116080D01*
X0120044Y0115986D01*
X0120178Y0115896D01*
X0120315Y0115809D01*
X0120453Y0115725D01*
X0120594Y0115644D01*
X0120736Y0115567D01*
X0120881Y0115494D01*
X0121027Y0115424D01*
X0121174Y0115357D01*
X0121323Y0115295D01*
X0121474Y0115235D01*
X0121626Y0115180D01*
X0121780Y0115128D01*
X0121934Y0115080D01*
X0122090Y0115035D01*
X0122247Y0114995D01*
X0122404Y0114958D01*
X0122563Y0114925D01*
X0122722Y0114896D01*
X0122882Y0114870D01*
X0123042Y0114849D01*
X0123203Y0114831D01*
X0123365Y0114818D01*
X0123526Y0114808D01*
X0123688Y0114802D01*
X0123850Y0114800D01*
X0117150Y0121500D02*
X0117150Y0158100D01*
X0117152Y0158262D01*
X0117158Y0158424D01*
X0117168Y0158585D01*
X0117181Y0158747D01*
X0117199Y0158908D01*
X0117220Y0159068D01*
X0117246Y0159228D01*
X0117275Y0159387D01*
X0117308Y0159546D01*
X0117345Y0159703D01*
X0117385Y0159860D01*
X0117430Y0160016D01*
X0117478Y0160170D01*
X0117530Y0160324D01*
X0117585Y0160476D01*
X0117645Y0160627D01*
X0117707Y0160776D01*
X0117774Y0160923D01*
X0117844Y0161069D01*
X0117917Y0161214D01*
X0117994Y0161356D01*
X0118075Y0161497D01*
X0118159Y0161635D01*
X0118246Y0161772D01*
X0118336Y0161906D01*
X0118430Y0162038D01*
X0118526Y0162168D01*
X0118626Y0162295D01*
X0118729Y0162420D01*
X0118835Y0162543D01*
X0118944Y0162663D01*
X0119055Y0162780D01*
X0119170Y0162895D01*
X0119287Y0163006D01*
X0119407Y0163115D01*
X0119530Y0163221D01*
X0119655Y0163324D01*
X0119782Y0163424D01*
X0119912Y0163520D01*
X0120044Y0163614D01*
X0120178Y0163704D01*
X0120315Y0163791D01*
X0120453Y0163875D01*
X0120594Y0163956D01*
X0120736Y0164033D01*
X0120881Y0164106D01*
X0121027Y0164176D01*
X0121174Y0164243D01*
X0121323Y0164305D01*
X0121474Y0164365D01*
X0121626Y0164420D01*
X0121780Y0164472D01*
X0121934Y0164520D01*
X0122090Y0164565D01*
X0122247Y0164605D01*
X0122404Y0164642D01*
X0122563Y0164675D01*
X0122722Y0164704D01*
X0122882Y0164730D01*
X0123042Y0164751D01*
X0123203Y0164769D01*
X0123365Y0164782D01*
X0123526Y0164792D01*
X0123688Y0164798D01*
X0123850Y0164800D01*
X0123852Y0164917D01*
X0123858Y0165034D01*
X0123868Y0165150D01*
X0123881Y0165267D01*
X0123899Y0165382D01*
X0123920Y0165497D01*
X0123945Y0165611D01*
X0123974Y0165725D01*
X0124007Y0165837D01*
X0124044Y0165948D01*
X0124084Y0166058D01*
X0124128Y0166166D01*
X0124175Y0166273D01*
X0124226Y0166379D01*
X0124281Y0166482D01*
X0124339Y0166584D01*
X0124400Y0166683D01*
X0124464Y0166781D01*
X0124532Y0166876D01*
X0124603Y0166969D01*
X0124677Y0167060D01*
X0124754Y0167148D01*
X0124834Y0167233D01*
X0124917Y0167316D01*
X0125002Y0167396D01*
X0125090Y0167473D01*
X0125181Y0167547D01*
X0125274Y0167618D01*
X0125369Y0167686D01*
X0125467Y0167750D01*
X0125566Y0167811D01*
X0125668Y0167869D01*
X0125771Y0167924D01*
X0125877Y0167975D01*
X0125984Y0168022D01*
X0126092Y0168066D01*
X0126202Y0168106D01*
X0126313Y0168143D01*
X0126425Y0168176D01*
X0126539Y0168205D01*
X0126653Y0168230D01*
X0126768Y0168251D01*
X0126883Y0168269D01*
X0127000Y0168282D01*
X0127116Y0168292D01*
X0127233Y0168298D01*
X0127350Y0168300D01*
X0203542Y0168300D01*
X0209030Y0162812D01*
X0164623Y0148027D02*
X0162606Y0148027D01*
X0144850Y0106800D02*
X0143850Y0106800D01*
D20*
X0112450Y0092082D02*
X0112450Y0006999D01*
X0271250Y0006901D01*
X0271250Y0173100D01*
X0220641Y0173100D01*
X0223432Y0171357D01*
X0223432Y0171357D01*
X0223432Y0171357D01*
X0225547Y0168596D01*
X0225547Y0168596D01*
X0225976Y0167181D01*
X0228069Y0167181D01*
X0228713Y0166537D01*
X0228713Y0159327D01*
X0228069Y0158682D01*
X0220071Y0158682D01*
X0219427Y0159327D01*
X0219427Y0166537D01*
X0220071Y0167181D01*
X0220735Y0167181D01*
X0220233Y0167837D01*
X0218724Y0168780D01*
X0216979Y0169132D01*
X0216751Y0169116D01*
X0216675Y0169040D01*
X0215906Y0169040D01*
X0215147Y0168918D01*
X0214978Y0169040D01*
X0126574Y0169002D01*
X0127107Y0168614D01*
X0127664Y0168057D01*
X0128126Y0167421D01*
X0128484Y0166719D01*
X0128727Y0165971D01*
X0128850Y0165194D01*
X0128850Y0165100D01*
X0124150Y0165100D01*
X0124150Y0164500D01*
X0128850Y0164500D01*
X0128850Y0164406D01*
X0128727Y0163629D01*
X0128484Y0162881D01*
X0128126Y0162179D01*
X0127664Y0161543D01*
X0127107Y0160986D01*
X0126471Y0160524D01*
X0125769Y0160166D01*
X0125021Y0159923D01*
X0124244Y0159800D01*
X0124150Y0159800D01*
X0124150Y0164500D01*
X0123550Y0164500D01*
X0123550Y0159800D01*
X0123456Y0159800D01*
X0122679Y0159923D01*
X0121931Y0160166D01*
X0121229Y0160524D01*
X0120593Y0160986D01*
X0120036Y0161543D01*
X0119574Y0162179D01*
X0119216Y0162881D01*
X0118973Y0163629D01*
X0118850Y0164406D01*
X0118850Y0164500D01*
X0123550Y0164500D01*
X0123550Y0165100D01*
X0118850Y0165100D01*
X0118850Y0165194D01*
X0118973Y0165971D01*
X0119216Y0166719D01*
X0119574Y0167421D01*
X0120036Y0168057D01*
X0120314Y0168335D01*
X0119838Y0168169D01*
X0118093Y0166844D01*
X0116844Y0165044D01*
X0116212Y0162946D01*
X0116150Y0161859D01*
X0116150Y0161825D01*
X0116170Y0160897D01*
X0116150Y0160876D01*
X0116150Y0096800D01*
X0116245Y0095595D01*
X0116989Y0093304D01*
X0118405Y0091355D01*
X0119050Y0090887D01*
X0119050Y0090956D01*
X0119694Y0091600D01*
X0128006Y0091600D01*
X0128650Y0090956D01*
X0128650Y0082644D01*
X0128006Y0082000D01*
X0119694Y0082000D01*
X0119050Y0082644D01*
X0119050Y0085427D01*
X0118196Y0085704D01*
X0115044Y0087994D01*
X0115044Y0087994D01*
X0115044Y0087994D01*
X0112754Y0091146D01*
X0112754Y0091146D01*
X0112450Y0092082D01*
X0112450Y0092080D02*
X0112451Y0092080D01*
X0112450Y0091481D02*
X0112645Y0091481D01*
X0112450Y0090883D02*
X0112946Y0090883D01*
X0113380Y0090284D02*
X0112450Y0090284D01*
X0112450Y0089686D02*
X0113815Y0089686D01*
X0114250Y0089087D02*
X0112450Y0089087D01*
X0112450Y0088489D02*
X0114685Y0088489D01*
X0115187Y0087890D02*
X0112450Y0087890D01*
X0112450Y0087292D02*
X0116011Y0087292D01*
X0116835Y0086693D02*
X0112450Y0086693D01*
X0112450Y0086095D02*
X0117659Y0086095D01*
X0118836Y0085496D02*
X0112450Y0085496D01*
X0112450Y0084898D02*
X0119050Y0084898D01*
X0119050Y0084299D02*
X0112450Y0084299D01*
X0112450Y0083701D02*
X0119050Y0083701D01*
X0119050Y0083102D02*
X0112450Y0083102D01*
X0112450Y0082503D02*
X0119191Y0082503D01*
X0120970Y0080708D02*
X0112450Y0080708D01*
X0112450Y0081306D02*
X0122187Y0081306D01*
X0122895Y0081600D02*
X0121131Y0080869D01*
X0119781Y0079519D01*
X0119050Y0077755D01*
X0119050Y0075845D01*
X0119781Y0074081D01*
X0121131Y0072731D01*
X0122895Y0072000D01*
X0124805Y0072000D01*
X0126569Y0072731D01*
X0127919Y0074081D01*
X0128650Y0075845D01*
X0128650Y0077755D01*
X0127919Y0079519D01*
X0126569Y0080869D01*
X0124805Y0081600D01*
X0122895Y0081600D01*
X0125513Y0081306D02*
X0129550Y0081306D01*
X0129550Y0080708D02*
X0126730Y0080708D01*
X0127329Y0080109D02*
X0129550Y0080109D01*
X0129550Y0079511D02*
X0127923Y0079511D01*
X0128170Y0078912D02*
X0129550Y0078912D01*
X0129550Y0078314D02*
X0128418Y0078314D01*
X0128650Y0077715D02*
X0129569Y0077715D01*
X0129550Y0077786D02*
X0130593Y0073894D01*
X0132607Y0070406D01*
X0132607Y0070406D01*
X0135456Y0067557D01*
X0138944Y0065543D01*
X0138944Y0065543D01*
X0140329Y0065172D01*
X0140781Y0064081D01*
X0141646Y0063216D01*
X0140295Y0061355D01*
X0138346Y0059939D01*
X0136055Y0059195D01*
X0134850Y0059100D01*
X0128093Y0059100D01*
X0127919Y0059519D01*
X0126569Y0060869D01*
X0124805Y0061600D01*
X0122895Y0061600D01*
X0121131Y0060869D01*
X0119781Y0059519D01*
X0119050Y0057755D01*
X0119050Y0055845D01*
X0119781Y0054081D01*
X0121131Y0052731D01*
X0121550Y0052557D01*
X0121550Y0051400D01*
X0120034Y0051400D01*
X0118528Y0050776D01*
X0117374Y0049622D01*
X0116750Y0048116D01*
X0116750Y0046484D01*
X0117374Y0044978D01*
X0118528Y0043824D01*
X0120034Y0043200D01*
X0127666Y0043200D01*
X0129172Y0043824D01*
X0130326Y0044978D01*
X0130950Y0046484D01*
X0130950Y0048116D01*
X0130326Y0049622D01*
X0129172Y0050776D01*
X0127666Y0051400D01*
X0126150Y0051400D01*
X0126150Y0052557D01*
X0126569Y0052731D01*
X0127919Y0054081D01*
X0128093Y0054500D01*
X0136798Y0054500D01*
X0140504Y0055704D01*
X0143656Y0057994D01*
X0144569Y0059251D01*
X0145571Y0057516D01*
X0145571Y0057516D01*
X0148386Y0054701D01*
X0148386Y0054701D01*
X0151834Y0052710D01*
X0151834Y0052710D01*
X0155680Y0051680D01*
X0252082Y0051680D01*
X0252326Y0051091D01*
X0253761Y0049656D01*
X0255636Y0048880D01*
X0257664Y0048880D01*
X0259539Y0049656D01*
X0260974Y0051091D01*
X0261750Y0052965D01*
X0261750Y0054994D01*
X0260974Y0056868D01*
X0259539Y0058303D01*
X0257664Y0059080D01*
X0255636Y0059080D01*
X0253761Y0058303D01*
X0252326Y0056868D01*
X0252082Y0056280D01*
X0157670Y0056280D01*
X0156297Y0056370D01*
X0153644Y0057080D01*
X0151266Y0058454D01*
X0149324Y0060396D01*
X0147951Y0062774D01*
X0147879Y0063041D01*
X0148919Y0064081D01*
X0149650Y0065845D01*
X0149650Y0067755D01*
X0148919Y0069519D01*
X0147569Y0070869D01*
X0145805Y0071600D01*
X0143895Y0071600D01*
X0142131Y0070869D01*
X0141087Y0069826D01*
X0140755Y0069914D01*
X0138336Y0071311D01*
X0136361Y0073286D01*
X0134964Y0075705D01*
X0134242Y0078403D01*
X0134150Y0079800D01*
X0134150Y0095733D01*
X0134247Y0097375D01*
X0133381Y0100689D01*
X0133381Y0100689D01*
X0131534Y0103574D01*
X0131534Y0103574D01*
X0128885Y0105747D01*
X0128608Y0105856D01*
X0127919Y0107519D01*
X0126569Y0108869D01*
X0124805Y0109600D01*
X0122895Y0109600D01*
X0121131Y0108869D01*
X0119781Y0107519D01*
X0119050Y0105755D01*
X0119050Y0103845D01*
X0119781Y0102081D01*
X0121131Y0100731D01*
X0122895Y0100000D01*
X0124805Y0100000D01*
X0126569Y0100731D01*
X0127046Y0101208D01*
X0127995Y0100429D01*
X0129043Y0098791D01*
X0129535Y0096910D01*
X0129550Y0096136D01*
X0129550Y0095867D01*
X0129498Y0094984D01*
X0129550Y0094926D01*
X0129550Y0077786D01*
X0129729Y0077117D02*
X0128650Y0077117D01*
X0128650Y0076518D02*
X0129890Y0076518D01*
X0130050Y0075920D02*
X0128650Y0075920D01*
X0128433Y0075321D02*
X0130210Y0075321D01*
X0130371Y0074723D02*
X0128185Y0074723D01*
X0127937Y0074124D02*
X0130531Y0074124D01*
X0130593Y0073894D02*
X0130593Y0073894D01*
X0130805Y0073526D02*
X0127364Y0073526D01*
X0126766Y0072927D02*
X0131151Y0072927D01*
X0131497Y0072329D02*
X0125599Y0072329D01*
X0125021Y0071677D02*
X0124244Y0071800D01*
X0124150Y0071800D01*
X0124150Y0067100D01*
X0128850Y0067100D01*
X0128850Y0067194D01*
X0128727Y0067971D01*
X0128484Y0068719D01*
X0128126Y0069421D01*
X0127664Y0070057D01*
X0127107Y0070614D01*
X0126471Y0071076D01*
X0125769Y0071434D01*
X0125021Y0071677D01*
X0124684Y0071730D02*
X0131842Y0071730D01*
X0132188Y0071132D02*
X0126362Y0071132D01*
X0127188Y0070533D02*
X0132533Y0070533D01*
X0133078Y0069935D02*
X0127753Y0069935D01*
X0128169Y0069336D02*
X0133676Y0069336D01*
X0134275Y0068738D02*
X0128474Y0068738D01*
X0128672Y0068139D02*
X0134873Y0068139D01*
X0135456Y0067557D02*
X0135456Y0067557D01*
X0135484Y0067541D02*
X0128795Y0067541D01*
X0128850Y0066500D02*
X0124150Y0066500D01*
X0124150Y0067100D01*
X0123550Y0067100D01*
X0123550Y0071800D01*
X0123456Y0071800D01*
X0122679Y0071677D01*
X0121931Y0071434D01*
X0121229Y0071076D01*
X0120593Y0070614D01*
X0120036Y0070057D01*
X0119574Y0069421D01*
X0119216Y0068719D01*
X0118973Y0067971D01*
X0118850Y0067194D01*
X0118850Y0067100D01*
X0123550Y0067100D01*
X0123550Y0066500D01*
X0124150Y0066500D01*
X0124150Y0061800D01*
X0124244Y0061800D01*
X0125021Y0061923D01*
X0125769Y0062166D01*
X0126471Y0062524D01*
X0127107Y0062986D01*
X0127664Y0063543D01*
X0128126Y0064179D01*
X0128484Y0064881D01*
X0128727Y0065629D01*
X0128850Y0066406D01*
X0128850Y0066500D01*
X0128840Y0066344D02*
X0137557Y0066344D01*
X0136520Y0066942D02*
X0124150Y0066942D01*
X0124150Y0066344D02*
X0123550Y0066344D01*
X0123550Y0066500D02*
X0123550Y0061800D01*
X0123456Y0061800D01*
X0122679Y0061923D01*
X0121931Y0062166D01*
X0121229Y0062524D01*
X0120593Y0062986D01*
X0120036Y0063543D01*
X0119574Y0064179D01*
X0119216Y0064881D01*
X0118973Y0065629D01*
X0118850Y0066406D01*
X0118850Y0066500D01*
X0123550Y0066500D01*
X0123550Y0066942D02*
X0112450Y0066942D01*
X0112450Y0066344D02*
X0118860Y0066344D01*
X0118955Y0065745D02*
X0112450Y0065745D01*
X0112450Y0065147D02*
X0119130Y0065147D01*
X0119386Y0064548D02*
X0112450Y0064548D01*
X0112450Y0063950D02*
X0119741Y0063950D01*
X0120228Y0063351D02*
X0112450Y0063351D01*
X0112450Y0062753D02*
X0120914Y0062753D01*
X0121968Y0062154D02*
X0112450Y0062154D01*
X0112450Y0061556D02*
X0122788Y0061556D01*
X0123550Y0062154D02*
X0124150Y0062154D01*
X0124150Y0062753D02*
X0123550Y0062753D01*
X0123550Y0063351D02*
X0124150Y0063351D01*
X0124150Y0063950D02*
X0123550Y0063950D01*
X0123550Y0064548D02*
X0124150Y0064548D01*
X0124150Y0065147D02*
X0123550Y0065147D01*
X0123550Y0065745D02*
X0124150Y0065745D01*
X0124150Y0067541D02*
X0123550Y0067541D01*
X0123550Y0068139D02*
X0124150Y0068139D01*
X0124150Y0068738D02*
X0123550Y0068738D01*
X0123550Y0069336D02*
X0124150Y0069336D01*
X0124150Y0069935D02*
X0123550Y0069935D01*
X0123550Y0070533D02*
X0124150Y0070533D01*
X0124150Y0071132D02*
X0123550Y0071132D01*
X0123550Y0071730D02*
X0124150Y0071730D01*
X0123016Y0071730D02*
X0112450Y0071730D01*
X0112450Y0071132D02*
X0121338Y0071132D01*
X0120512Y0070533D02*
X0112450Y0070533D01*
X0112450Y0069935D02*
X0119947Y0069935D01*
X0119531Y0069336D02*
X0112450Y0069336D01*
X0112450Y0068738D02*
X0119226Y0068738D01*
X0119028Y0068139D02*
X0112450Y0068139D01*
X0112450Y0067541D02*
X0118905Y0067541D01*
X0120934Y0072927D02*
X0112450Y0072927D01*
X0112450Y0072329D02*
X0122101Y0072329D01*
X0120336Y0073526D02*
X0112450Y0073526D01*
X0112450Y0074124D02*
X0119763Y0074124D01*
X0119515Y0074723D02*
X0112450Y0074723D01*
X0112450Y0075321D02*
X0119267Y0075321D01*
X0119050Y0075920D02*
X0112450Y0075920D01*
X0112450Y0076518D02*
X0119050Y0076518D01*
X0119050Y0077117D02*
X0112450Y0077117D01*
X0112450Y0077715D02*
X0119050Y0077715D01*
X0119282Y0078314D02*
X0112450Y0078314D01*
X0112450Y0078912D02*
X0119530Y0078912D01*
X0119777Y0079511D02*
X0112450Y0079511D01*
X0112450Y0080109D02*
X0120371Y0080109D01*
X0112450Y0081905D02*
X0129550Y0081905D01*
X0129550Y0082503D02*
X0128509Y0082503D01*
X0128650Y0083102D02*
X0129550Y0083102D01*
X0129550Y0083701D02*
X0128650Y0083701D01*
X0128650Y0084299D02*
X0129550Y0084299D01*
X0129550Y0084898D02*
X0128650Y0084898D01*
X0128650Y0085496D02*
X0129550Y0085496D01*
X0129550Y0086095D02*
X0128650Y0086095D01*
X0128650Y0086693D02*
X0129550Y0086693D01*
X0129550Y0087292D02*
X0128650Y0087292D01*
X0128650Y0087890D02*
X0129550Y0087890D01*
X0129550Y0088489D02*
X0128650Y0088489D01*
X0128650Y0089087D02*
X0129550Y0089087D01*
X0129550Y0089686D02*
X0128650Y0089686D01*
X0128650Y0090284D02*
X0129550Y0090284D01*
X0129550Y0090883D02*
X0128650Y0090883D01*
X0128124Y0091481D02*
X0129550Y0091481D01*
X0129550Y0092080D02*
X0117879Y0092080D01*
X0117444Y0092678D02*
X0129550Y0092678D01*
X0129550Y0093277D02*
X0117009Y0093277D01*
X0116804Y0093875D02*
X0129550Y0093875D01*
X0129550Y0094474D02*
X0116609Y0094474D01*
X0116415Y0095072D02*
X0129503Y0095072D01*
X0129538Y0095671D02*
X0116239Y0095671D01*
X0116192Y0096269D02*
X0129547Y0096269D01*
X0129536Y0096868D02*
X0116150Y0096868D01*
X0116150Y0097466D02*
X0129389Y0097466D01*
X0129233Y0098065D02*
X0116150Y0098065D01*
X0116150Y0098663D02*
X0129077Y0098663D01*
X0128742Y0099262D02*
X0116150Y0099262D01*
X0116150Y0099860D02*
X0128359Y0099860D01*
X0127958Y0100459D02*
X0125912Y0100459D01*
X0126896Y0101057D02*
X0127229Y0101057D01*
X0130954Y0104050D02*
X0140812Y0104050D01*
X0140781Y0104081D02*
X0142131Y0102731D01*
X0143895Y0102000D01*
X0145805Y0102000D01*
X0147569Y0102731D01*
X0148919Y0104081D01*
X0149650Y0105845D01*
X0149650Y0107755D01*
X0148919Y0109519D01*
X0147569Y0110869D01*
X0145805Y0111600D01*
X0143895Y0111600D01*
X0142131Y0110869D01*
X0141228Y0109967D01*
X0140527Y0110477D01*
X0139662Y0111666D01*
X0139208Y0113065D01*
X0139151Y0113787D01*
X0139221Y0115710D01*
X0139221Y0115710D01*
X0138175Y0119561D01*
X0136032Y0122926D01*
X0136032Y0122926D01*
X0132986Y0125504D01*
X0129312Y0127060D01*
X0129312Y0127060D01*
X0128058Y0127184D01*
X0127919Y0127519D01*
X0126569Y0128869D01*
X0124805Y0129600D01*
X0122895Y0129600D01*
X0121131Y0128869D01*
X0119781Y0127519D01*
X0119050Y0125755D01*
X0119050Y0123845D01*
X0119781Y0122081D01*
X0121131Y0120731D01*
X0122895Y0120000D01*
X0124805Y0120000D01*
X0126569Y0120731D01*
X0127919Y0122081D01*
X0128077Y0122463D01*
X0128137Y0122457D01*
X0130497Y0121457D01*
X0132453Y0119802D01*
X0133829Y0117640D01*
X0134501Y0115167D01*
X0134550Y0113922D01*
X0134550Y0113842D01*
X0134517Y0112931D01*
X0134550Y0112896D01*
X0134550Y0112327D01*
X0135460Y0109525D01*
X0137192Y0107142D01*
X0139575Y0105410D01*
X0140332Y0105164D01*
X0140781Y0104081D01*
X0140546Y0104648D02*
X0130225Y0104648D01*
X0129495Y0105247D02*
X0140078Y0105247D01*
X0139575Y0105410D02*
X0139575Y0105410D01*
X0138976Y0105845D02*
X0128635Y0105845D01*
X0128885Y0105747D02*
X0128885Y0105747D01*
X0128365Y0106444D02*
X0138153Y0106444D01*
X0137329Y0107042D02*
X0128117Y0107042D01*
X0127797Y0107641D02*
X0136829Y0107641D01*
X0137192Y0107142D02*
X0137192Y0107142D01*
X0137192Y0107142D01*
X0136395Y0108239D02*
X0127199Y0108239D01*
X0126600Y0108838D02*
X0135960Y0108838D01*
X0135525Y0109437D02*
X0125199Y0109437D01*
X0125021Y0109923D02*
X0125769Y0110166D01*
X0126471Y0110524D01*
X0127107Y0110986D01*
X0127664Y0111543D01*
X0128126Y0112179D01*
X0128484Y0112881D01*
X0128727Y0113629D01*
X0128850Y0114406D01*
X0128850Y0114500D01*
X0124150Y0114500D01*
X0124150Y0115100D01*
X0128850Y0115100D01*
X0128850Y0115194D01*
X0128727Y0115971D01*
X0128484Y0116719D01*
X0128126Y0117421D01*
X0127664Y0118057D01*
X0127107Y0118614D01*
X0126471Y0119076D01*
X0125769Y0119434D01*
X0125021Y0119677D01*
X0124244Y0119800D01*
X0124150Y0119800D01*
X0124150Y0115100D01*
X0123550Y0115100D01*
X0123550Y0119800D01*
X0123456Y0119800D01*
X0122679Y0119677D01*
X0121931Y0119434D01*
X0121229Y0119076D01*
X0120593Y0118614D01*
X0120036Y0118057D01*
X0119574Y0117421D01*
X0119216Y0116719D01*
X0118973Y0115971D01*
X0118850Y0115194D01*
X0118850Y0115100D01*
X0123550Y0115100D01*
X0123550Y0114500D01*
X0124150Y0114500D01*
X0124150Y0109800D01*
X0124244Y0109800D01*
X0125021Y0109923D01*
X0125365Y0110035D02*
X0135295Y0110035D01*
X0135460Y0109525D02*
X0135460Y0109525D01*
X0135100Y0110634D02*
X0126622Y0110634D01*
X0127353Y0111232D02*
X0134906Y0111232D01*
X0134711Y0111831D02*
X0127873Y0111831D01*
X0128254Y0112429D02*
X0134550Y0112429D01*
X0134520Y0113028D02*
X0128531Y0113028D01*
X0128726Y0113626D02*
X0134542Y0113626D01*
X0134538Y0114225D02*
X0128821Y0114225D01*
X0128814Y0115422D02*
X0134432Y0115422D01*
X0134515Y0114823D02*
X0124150Y0114823D01*
X0124150Y0114225D02*
X0123550Y0114225D01*
X0123550Y0114500D02*
X0123550Y0109800D01*
X0123456Y0109800D01*
X0122679Y0109923D01*
X0121931Y0110166D01*
X0121229Y0110524D01*
X0120593Y0110986D01*
X0120036Y0111543D01*
X0119574Y0112179D01*
X0119216Y0112881D01*
X0118973Y0113629D01*
X0118850Y0114406D01*
X0118850Y0114500D01*
X0123550Y0114500D01*
X0123550Y0114823D02*
X0116150Y0114823D01*
X0116150Y0114225D02*
X0118879Y0114225D01*
X0118974Y0113626D02*
X0116150Y0113626D01*
X0116150Y0113028D02*
X0119169Y0113028D01*
X0119446Y0112429D02*
X0116150Y0112429D01*
X0116150Y0111831D02*
X0119827Y0111831D01*
X0120347Y0111232D02*
X0116150Y0111232D01*
X0116150Y0110634D02*
X0121078Y0110634D01*
X0122335Y0110035D02*
X0116150Y0110035D01*
X0116150Y0109437D02*
X0122501Y0109437D01*
X0123550Y0110035D02*
X0124150Y0110035D01*
X0124150Y0110634D02*
X0123550Y0110634D01*
X0123550Y0111232D02*
X0124150Y0111232D01*
X0124150Y0111831D02*
X0123550Y0111831D01*
X0123550Y0112429D02*
X0124150Y0112429D01*
X0124150Y0113028D02*
X0123550Y0113028D01*
X0123550Y0113626D02*
X0124150Y0113626D01*
X0124150Y0115422D02*
X0123550Y0115422D01*
X0123550Y0116020D02*
X0124150Y0116020D01*
X0124150Y0116619D02*
X0123550Y0116619D01*
X0123550Y0117217D02*
X0124150Y0117217D01*
X0124150Y0117816D02*
X0123550Y0117816D01*
X0123550Y0118414D02*
X0124150Y0118414D01*
X0124150Y0119013D02*
X0123550Y0119013D01*
X0123550Y0119611D02*
X0124150Y0119611D01*
X0125223Y0119611D02*
X0132575Y0119611D01*
X0132956Y0119013D02*
X0126558Y0119013D01*
X0127307Y0118414D02*
X0133337Y0118414D01*
X0133718Y0117816D02*
X0127839Y0117816D01*
X0128230Y0117217D02*
X0133944Y0117217D01*
X0134107Y0116619D02*
X0128516Y0116619D01*
X0128711Y0116020D02*
X0134270Y0116020D01*
X0138811Y0117217D02*
X0140050Y0117217D01*
X0140050Y0117755D02*
X0140050Y0115845D01*
X0140781Y0114081D01*
X0142131Y0112731D01*
X0143895Y0112000D01*
X0145805Y0112000D01*
X0147569Y0112731D01*
X0148919Y0114081D01*
X0149133Y0114598D01*
X0161507Y0114881D01*
X0161507Y0113683D01*
X0162151Y0113039D01*
X0170149Y0113039D01*
X0170793Y0113683D01*
X0170793Y0120893D01*
X0170149Y0121538D01*
X0162151Y0121538D01*
X0161507Y0120893D01*
X0161507Y0119482D01*
X0149053Y0119197D01*
X0148919Y0119519D01*
X0147569Y0120869D01*
X0145805Y0121600D01*
X0143895Y0121600D01*
X0142131Y0120869D01*
X0140781Y0119519D01*
X0140050Y0117755D01*
X0140075Y0117816D02*
X0138649Y0117816D01*
X0138486Y0118414D02*
X0140323Y0118414D01*
X0140571Y0119013D02*
X0138323Y0119013D01*
X0138175Y0119561D02*
X0138175Y0119561D01*
X0138142Y0119611D02*
X0140873Y0119611D01*
X0141471Y0120210D02*
X0137761Y0120210D01*
X0137380Y0120808D02*
X0142070Y0120808D01*
X0143429Y0121407D02*
X0136999Y0121407D01*
X0136618Y0122005D02*
X0143883Y0122005D01*
X0143895Y0122000D02*
X0145805Y0122000D01*
X0147569Y0122731D01*
X0148919Y0124081D01*
X0149650Y0125845D01*
X0149650Y0127755D01*
X0148919Y0129519D01*
X0147569Y0130869D01*
X0145805Y0131600D01*
X0143895Y0131600D01*
X0142131Y0130869D01*
X0140781Y0129519D01*
X0140050Y0127755D01*
X0140050Y0125845D01*
X0140781Y0124081D01*
X0142131Y0122731D01*
X0143895Y0122000D01*
X0142438Y0122604D02*
X0136237Y0122604D01*
X0135706Y0123202D02*
X0141660Y0123202D01*
X0141061Y0123801D02*
X0134998Y0123801D01*
X0134291Y0124399D02*
X0140649Y0124399D01*
X0140401Y0124998D02*
X0133584Y0124998D01*
X0132986Y0125504D02*
X0132986Y0125504D01*
X0132767Y0125596D02*
X0140153Y0125596D01*
X0140050Y0126195D02*
X0131354Y0126195D01*
X0129941Y0126793D02*
X0140050Y0126793D01*
X0140050Y0127392D02*
X0127972Y0127392D01*
X0127448Y0127990D02*
X0140148Y0127990D01*
X0140395Y0128589D02*
X0126849Y0128589D01*
X0125801Y0129187D02*
X0140643Y0129187D01*
X0141048Y0129786D02*
X0116150Y0129786D01*
X0116150Y0130384D02*
X0119310Y0130384D01*
X0119050Y0130644D02*
X0119694Y0130000D01*
X0128006Y0130000D01*
X0128650Y0130644D01*
X0128650Y0135289D01*
X0135531Y0139141D01*
X0142962Y0142191D01*
X0150708Y0144321D01*
X0158654Y0145500D01*
X0158701Y0145503D01*
X0160387Y0142583D01*
X0161268Y0142347D01*
X0166962Y0145635D01*
X0168619Y0145570D01*
X0176512Y0144320D01*
X0184112Y0141850D01*
X0191232Y0138222D01*
X0197698Y0133525D01*
X0203348Y0127874D01*
X0208045Y0121409D01*
X0211673Y0114289D01*
X0214143Y0106689D01*
X0215393Y0098796D01*
X0215550Y0094800D01*
X0215550Y0081259D01*
X0216865Y0076350D01*
X0219406Y0071950D01*
X0219406Y0071950D01*
X0223000Y0068356D01*
X0227400Y0065815D01*
X0227400Y0065815D01*
X0230395Y0065013D01*
X0230781Y0064081D01*
X0232131Y0062731D01*
X0233895Y0062000D01*
X0235805Y0062000D01*
X0237569Y0062731D01*
X0238919Y0064081D01*
X0239650Y0065845D01*
X0239650Y0066032D01*
X0251498Y0066032D01*
X0251812Y0065273D01*
X0253331Y0063754D01*
X0255316Y0062932D01*
X0257464Y0062932D01*
X0259449Y0063754D01*
X0260968Y0065273D01*
X0261790Y0067258D01*
X0261790Y0069406D01*
X0260968Y0071390D01*
X0259449Y0072910D01*
X0257464Y0073732D01*
X0255316Y0073732D01*
X0253331Y0072910D01*
X0251812Y0071390D01*
X0251498Y0070632D01*
X0237807Y0070632D01*
X0237569Y0070869D01*
X0235805Y0071600D01*
X0233895Y0071600D01*
X0232131Y0070869D01*
X0231004Y0069742D01*
X0229225Y0070219D01*
X0225901Y0072138D01*
X0223188Y0074851D01*
X0221269Y0078175D01*
X0220276Y0081881D01*
X0220150Y0083800D01*
X0220150Y0099170D01*
X0218783Y0107802D01*
X0216082Y0116115D01*
X0212114Y0123902D01*
X0206977Y0130973D01*
X0206977Y0130973D01*
X0200797Y0137153D01*
X0200797Y0137153D01*
X0193726Y0142291D01*
X0185938Y0146259D01*
X0177626Y0148959D01*
X0168993Y0150327D01*
X0166640Y0150327D01*
X0164824Y0153470D01*
X0163944Y0153706D01*
X0157772Y0150143D01*
X0149732Y0148950D01*
X0141435Y0146668D01*
X0141435Y0146668D01*
X0133473Y0143401D01*
X0126686Y0139600D01*
X0119694Y0139600D01*
X0119050Y0138956D01*
X0119050Y0130644D01*
X0119050Y0130983D02*
X0116150Y0130983D01*
X0116150Y0131581D02*
X0119050Y0131581D01*
X0119050Y0132180D02*
X0116150Y0132180D01*
X0116150Y0132778D02*
X0119050Y0132778D01*
X0119050Y0133377D02*
X0116150Y0133377D01*
X0116150Y0133975D02*
X0119050Y0133975D01*
X0119050Y0134574D02*
X0116150Y0134574D01*
X0116150Y0135172D02*
X0119050Y0135172D01*
X0119050Y0135771D02*
X0116150Y0135771D01*
X0116150Y0136370D02*
X0119050Y0136370D01*
X0119050Y0136968D02*
X0116150Y0136968D01*
X0116150Y0137567D02*
X0119050Y0137567D01*
X0119050Y0138165D02*
X0116150Y0138165D01*
X0116150Y0138764D02*
X0119050Y0138764D01*
X0119456Y0139362D02*
X0116150Y0139362D01*
X0116150Y0139961D02*
X0127330Y0139961D01*
X0126569Y0140731D02*
X0127919Y0142081D01*
X0128650Y0143845D01*
X0128650Y0145530D01*
X0133940Y0148863D01*
X0140247Y0151771D01*
X0146879Y0153835D01*
X0153254Y0154938D01*
X0154875Y0152129D01*
X0155756Y0151894D01*
X0161347Y0155121D01*
X0161849Y0155104D01*
X0171263Y0153750D01*
X0180388Y0151071D01*
X0189039Y0147120D01*
X0197039Y0141978D01*
X0204227Y0135750D01*
X0210455Y0128563D01*
X0215597Y0120562D01*
X0219547Y0111911D01*
X0222227Y0102786D01*
X0223580Y0093373D01*
X0223750Y0088617D01*
X0223750Y0087428D01*
X0224822Y0085572D01*
X0226678Y0084500D01*
X0230607Y0084500D01*
X0230781Y0084081D01*
X0232131Y0082731D01*
X0233895Y0082000D01*
X0235805Y0082000D01*
X0237569Y0082731D01*
X0238919Y0084081D01*
X0239650Y0085845D01*
X0239650Y0087755D01*
X0239424Y0088301D01*
X0254703Y0104524D01*
X0255316Y0104270D01*
X0257464Y0104270D01*
X0259449Y0105092D01*
X0260968Y0106611D01*
X0261790Y0108596D01*
X0261790Y0110744D01*
X0260968Y0112729D01*
X0259449Y0114248D01*
X0257464Y0115070D01*
X0255316Y0115070D01*
X0253454Y0114299D01*
X0255765Y0118050D01*
X0257464Y0118050D01*
X0259449Y0118872D01*
X0260968Y0120391D01*
X0261790Y0122376D01*
X0261790Y0124524D01*
X0260968Y0126509D01*
X0259449Y0128028D01*
X0257464Y0128850D01*
X0255316Y0128850D01*
X0253331Y0128028D01*
X0251812Y0126509D01*
X0250990Y0124524D01*
X0250990Y0122376D01*
X0251809Y0120399D01*
X0247916Y0114080D01*
X0248550Y0116030D01*
X0248550Y0127500D01*
X0248641Y0128662D01*
X0249360Y0130873D01*
X0250726Y0132753D01*
X0252176Y0133807D01*
X0253331Y0132651D01*
X0255316Y0131829D01*
X0257464Y0131829D01*
X0259449Y0132651D01*
X0260968Y0134170D01*
X0261790Y0136155D01*
X0261790Y0138303D01*
X0260968Y0140288D01*
X0259449Y0141807D01*
X0257464Y0142629D01*
X0255316Y0142629D01*
X0253331Y0141807D01*
X0251812Y0140288D01*
X0251097Y0138562D01*
X0250450Y0138352D01*
X0247367Y0136112D01*
X0245128Y0133029D01*
X0244350Y0130636D01*
X0244350Y0136669D01*
X0244453Y0138240D01*
X0245266Y0141276D01*
X0246838Y0143998D01*
X0249060Y0146221D01*
X0251782Y0147792D01*
X0251930Y0147832D01*
X0253331Y0146431D01*
X0255316Y0145609D01*
X0257464Y0145609D01*
X0259449Y0146431D01*
X0260968Y0147950D01*
X0261790Y0149935D01*
X0261790Y0152083D01*
X0260968Y0154068D01*
X0259449Y0155587D01*
X0257464Y0156409D01*
X0255316Y0156409D01*
X0253331Y0155587D01*
X0251812Y0154068D01*
X0251160Y0152495D01*
X0249967Y0152175D01*
X0246173Y0149984D01*
X0246173Y0149984D01*
X0243075Y0146886D01*
X0240884Y0143092D01*
X0240884Y0143092D01*
X0239750Y0138860D01*
X0239750Y0124000D01*
X0239690Y0123233D01*
X0239216Y0121775D01*
X0238315Y0120535D01*
X0238076Y0120362D01*
X0237569Y0120869D01*
X0235805Y0121600D01*
X0233895Y0121600D01*
X0232131Y0120869D01*
X0230781Y0119519D01*
X0230050Y0117755D01*
X0230050Y0115845D01*
X0230781Y0114081D01*
X0232131Y0112731D01*
X0233895Y0112000D01*
X0235805Y0112000D01*
X0237569Y0112731D01*
X0238919Y0114081D01*
X0239590Y0115702D01*
X0241651Y0117199D01*
X0243420Y0119633D01*
X0243420Y0119633D01*
X0243950Y0121264D01*
X0243950Y0118200D01*
X0243838Y0116776D01*
X0242958Y0114069D01*
X0241285Y0111765D01*
X0238981Y0110092D01*
X0238502Y0109936D01*
X0237569Y0110869D01*
X0235805Y0111600D01*
X0233895Y0111600D01*
X0232131Y0110869D01*
X0230781Y0109519D01*
X0230050Y0107755D01*
X0230050Y0105845D01*
X0230781Y0104081D01*
X0232131Y0102731D01*
X0233895Y0102000D01*
X0235805Y0102000D01*
X0237569Y0102731D01*
X0238919Y0104081D01*
X0239415Y0105278D01*
X0241147Y0105841D01*
X0243891Y0107835D01*
X0240370Y0103807D01*
X0237048Y0101085D01*
X0235805Y0101600D01*
X0233895Y0101600D01*
X0232131Y0100869D01*
X0230781Y0099519D01*
X0230050Y0097755D01*
X0230050Y0095845D01*
X0230781Y0094081D01*
X0232131Y0092731D01*
X0233895Y0092000D01*
X0235805Y0092000D01*
X0237089Y0092532D01*
X0236097Y0091479D01*
X0235805Y0091600D01*
X0233895Y0091600D01*
X0232131Y0090869D01*
X0230781Y0089519D01*
X0230607Y0089100D01*
X0228350Y0089100D01*
X0228350Y0093714D01*
X0226899Y0103803D01*
X0224028Y0113582D01*
X0224028Y0113582D01*
X0219794Y0122854D01*
X0219794Y0122854D01*
X0214283Y0131429D01*
X0207608Y0139132D01*
X0199905Y0145806D01*
X0199905Y0145806D01*
X0191331Y0151317D01*
X0182059Y0155551D01*
X0172279Y0158423D01*
X0162190Y0159873D01*
X0161128Y0159873D01*
X0159313Y0163017D01*
X0158432Y0163253D01*
X0151914Y0159490D01*
X0145773Y0158427D01*
X0138553Y0156180D01*
X0131687Y0153015D01*
X0125688Y0149234D01*
X0124805Y0149600D01*
X0122895Y0149600D01*
X0121131Y0148869D01*
X0119781Y0147519D01*
X0119050Y0145755D01*
X0119050Y0143845D01*
X0119781Y0142081D01*
X0121131Y0140731D01*
X0122895Y0140000D01*
X0124805Y0140000D01*
X0126569Y0140731D01*
X0126155Y0140559D02*
X0128398Y0140559D01*
X0129467Y0141158D02*
X0126996Y0141158D01*
X0127594Y0141756D02*
X0130536Y0141756D01*
X0131605Y0142355D02*
X0128033Y0142355D01*
X0128280Y0142953D02*
X0132674Y0142953D01*
X0133473Y0143401D02*
X0133473Y0143401D01*
X0133841Y0143552D02*
X0128528Y0143552D01*
X0128650Y0144150D02*
X0135299Y0144150D01*
X0136758Y0144749D02*
X0128650Y0144749D01*
X0128650Y0145347D02*
X0138216Y0145347D01*
X0139675Y0145946D02*
X0129310Y0145946D01*
X0130260Y0146544D02*
X0141133Y0146544D01*
X0143161Y0147143D02*
X0131209Y0147143D01*
X0132159Y0147741D02*
X0145338Y0147741D01*
X0147514Y0148340D02*
X0133109Y0148340D01*
X0134102Y0148938D02*
X0149691Y0148938D01*
X0149732Y0148950D02*
X0149732Y0148950D01*
X0153688Y0149537D02*
X0135401Y0149537D01*
X0136699Y0150135D02*
X0157722Y0150135D01*
X0158796Y0150734D02*
X0137997Y0150734D01*
X0139295Y0151332D02*
X0159832Y0151332D01*
X0160869Y0151931D02*
X0155820Y0151931D01*
X0155617Y0151931D02*
X0140760Y0151931D01*
X0142683Y0152529D02*
X0154645Y0152529D01*
X0154299Y0153128D02*
X0144607Y0153128D01*
X0146530Y0153726D02*
X0153954Y0153726D01*
X0153608Y0154325D02*
X0149709Y0154325D01*
X0153167Y0154923D02*
X0153262Y0154923D01*
X0156857Y0152529D02*
X0161906Y0152529D01*
X0162942Y0153128D02*
X0157893Y0153128D01*
X0158930Y0153726D02*
X0171344Y0153726D01*
X0173382Y0153128D02*
X0165022Y0153128D01*
X0165368Y0152529D02*
X0175420Y0152529D01*
X0177459Y0151931D02*
X0165713Y0151931D01*
X0166059Y0151332D02*
X0179497Y0151332D01*
X0181126Y0150734D02*
X0166405Y0150734D01*
X0170201Y0150135D02*
X0182436Y0150135D01*
X0183747Y0149537D02*
X0173980Y0149537D01*
X0177626Y0148959D02*
X0177626Y0148959D01*
X0177691Y0148938D02*
X0185057Y0148938D01*
X0186368Y0148340D02*
X0179533Y0148340D01*
X0181375Y0147741D02*
X0187678Y0147741D01*
X0188989Y0147143D02*
X0183217Y0147143D01*
X0185059Y0146544D02*
X0189935Y0146544D01*
X0190866Y0145946D02*
X0186552Y0145946D01*
X0185938Y0146259D02*
X0185938Y0146259D01*
X0187727Y0145347D02*
X0191797Y0145347D01*
X0192729Y0144749D02*
X0188901Y0144749D01*
X0190076Y0144150D02*
X0193660Y0144150D01*
X0194591Y0143552D02*
X0191251Y0143552D01*
X0192425Y0142953D02*
X0195523Y0142953D01*
X0196454Y0142355D02*
X0193600Y0142355D01*
X0193726Y0142291D02*
X0193726Y0142291D01*
X0194461Y0141756D02*
X0197296Y0141756D01*
X0197987Y0141158D02*
X0195285Y0141158D01*
X0196109Y0140559D02*
X0198677Y0140559D01*
X0199368Y0139961D02*
X0196933Y0139961D01*
X0197756Y0139362D02*
X0200059Y0139362D01*
X0200749Y0138764D02*
X0198580Y0138764D01*
X0199404Y0138165D02*
X0201440Y0138165D01*
X0202131Y0137567D02*
X0200228Y0137567D01*
X0200797Y0137153D02*
X0200797Y0137153D01*
X0200982Y0136968D02*
X0202822Y0136968D01*
X0203512Y0136370D02*
X0201580Y0136370D01*
X0202179Y0135771D02*
X0204203Y0135771D01*
X0204728Y0135172D02*
X0202777Y0135172D01*
X0203376Y0134574D02*
X0205246Y0134574D01*
X0205765Y0133975D02*
X0203974Y0133975D01*
X0204573Y0133377D02*
X0206283Y0133377D01*
X0206802Y0132778D02*
X0205171Y0132778D01*
X0205770Y0132180D02*
X0207321Y0132180D01*
X0207839Y0131581D02*
X0206368Y0131581D01*
X0206967Y0130983D02*
X0208358Y0130983D01*
X0208877Y0130384D02*
X0207404Y0130384D01*
X0207839Y0129786D02*
X0209395Y0129786D01*
X0209914Y0129187D02*
X0208274Y0129187D01*
X0208709Y0128589D02*
X0210432Y0128589D01*
X0210455Y0128563D02*
X0210455Y0128563D01*
X0210823Y0127990D02*
X0209144Y0127990D01*
X0209579Y0127392D02*
X0211207Y0127392D01*
X0211592Y0126793D02*
X0210014Y0126793D01*
X0210448Y0126195D02*
X0211977Y0126195D01*
X0212361Y0125596D02*
X0210883Y0125596D01*
X0211318Y0124998D02*
X0212746Y0124998D01*
X0213131Y0124399D02*
X0211753Y0124399D01*
X0212166Y0123801D02*
X0213515Y0123801D01*
X0213900Y0123202D02*
X0212471Y0123202D01*
X0212776Y0122604D02*
X0214285Y0122604D01*
X0214669Y0122005D02*
X0213081Y0122005D01*
X0213386Y0121407D02*
X0215054Y0121407D01*
X0215438Y0120808D02*
X0213691Y0120808D01*
X0213995Y0120210D02*
X0215758Y0120210D01*
X0216031Y0119611D02*
X0214300Y0119611D01*
X0214605Y0119013D02*
X0216304Y0119013D01*
X0216578Y0118414D02*
X0214910Y0118414D01*
X0215215Y0117816D02*
X0216851Y0117816D01*
X0217124Y0117217D02*
X0215520Y0117217D01*
X0215825Y0116619D02*
X0217398Y0116619D01*
X0217671Y0116020D02*
X0216113Y0116020D01*
X0216307Y0115422D02*
X0217944Y0115422D01*
X0218218Y0114823D02*
X0216502Y0114823D01*
X0216696Y0114225D02*
X0218491Y0114225D01*
X0218764Y0113626D02*
X0216891Y0113626D01*
X0217085Y0113028D02*
X0219038Y0113028D01*
X0219311Y0112429D02*
X0217279Y0112429D01*
X0217474Y0111831D02*
X0219571Y0111831D01*
X0219747Y0111232D02*
X0217668Y0111232D01*
X0217863Y0110634D02*
X0219923Y0110634D01*
X0220098Y0110035D02*
X0218057Y0110035D01*
X0218252Y0109437D02*
X0220274Y0109437D01*
X0220450Y0108838D02*
X0218446Y0108838D01*
X0218641Y0108239D02*
X0220625Y0108239D01*
X0220801Y0107641D02*
X0218808Y0107641D01*
X0218903Y0107042D02*
X0220977Y0107042D01*
X0221153Y0106444D02*
X0218998Y0106444D01*
X0219093Y0105845D02*
X0221328Y0105845D01*
X0221504Y0105247D02*
X0219188Y0105247D01*
X0219282Y0104648D02*
X0221680Y0104648D01*
X0221856Y0104050D02*
X0219377Y0104050D01*
X0219472Y0103451D02*
X0222031Y0103451D01*
X0222207Y0102853D02*
X0219567Y0102853D01*
X0219661Y0102254D02*
X0222303Y0102254D01*
X0222389Y0101656D02*
X0219756Y0101656D01*
X0219851Y0101057D02*
X0222475Y0101057D01*
X0222561Y0100459D02*
X0219946Y0100459D01*
X0220041Y0099860D02*
X0222647Y0099860D01*
X0222733Y0099262D02*
X0220135Y0099262D01*
X0220150Y0098663D02*
X0222819Y0098663D01*
X0222906Y0098065D02*
X0220150Y0098065D01*
X0220150Y0097466D02*
X0222992Y0097466D01*
X0223078Y0096868D02*
X0220150Y0096868D01*
X0220150Y0096269D02*
X0223164Y0096269D01*
X0223250Y0095671D02*
X0220150Y0095671D01*
X0220150Y0095072D02*
X0223336Y0095072D01*
X0223422Y0094474D02*
X0220150Y0094474D01*
X0220150Y0093875D02*
X0223508Y0093875D01*
X0223584Y0093277D02*
X0220150Y0093277D01*
X0220150Y0092678D02*
X0223605Y0092678D01*
X0223626Y0092080D02*
X0220150Y0092080D01*
X0220150Y0091481D02*
X0223648Y0091481D01*
X0223669Y0090883D02*
X0220150Y0090883D01*
X0220150Y0090284D02*
X0223690Y0090284D01*
X0223712Y0089686D02*
X0220150Y0089686D01*
X0220150Y0089087D02*
X0223733Y0089087D01*
X0223750Y0088489D02*
X0220150Y0088489D01*
X0220150Y0087890D02*
X0223750Y0087890D01*
X0223829Y0087292D02*
X0220150Y0087292D01*
X0220150Y0086693D02*
X0224174Y0086693D01*
X0224520Y0086095D02*
X0220150Y0086095D01*
X0220150Y0085496D02*
X0224953Y0085496D01*
X0224822Y0085572D02*
X0224822Y0085572D01*
X0224822Y0085572D01*
X0225990Y0084898D02*
X0220150Y0084898D01*
X0220150Y0084299D02*
X0230690Y0084299D01*
X0231161Y0083701D02*
X0220157Y0083701D01*
X0220196Y0083102D02*
X0231760Y0083102D01*
X0232680Y0082503D02*
X0220235Y0082503D01*
X0220274Y0081905D02*
X0237142Y0081905D01*
X0237020Y0082503D02*
X0237818Y0082503D01*
X0237940Y0083102D02*
X0238493Y0083102D01*
X0238539Y0083701D02*
X0239168Y0083701D01*
X0239010Y0084299D02*
X0239844Y0084299D01*
X0239257Y0084898D02*
X0240519Y0084898D01*
X0241194Y0085496D02*
X0239505Y0085496D01*
X0239650Y0086095D02*
X0241869Y0086095D01*
X0242545Y0086693D02*
X0239650Y0086693D01*
X0239650Y0087292D02*
X0243220Y0087292D01*
X0243895Y0087890D02*
X0239594Y0087890D01*
X0239600Y0088489D02*
X0244571Y0088489D01*
X0245246Y0089087D02*
X0240164Y0089087D01*
X0240727Y0089686D02*
X0245921Y0089686D01*
X0246597Y0090284D02*
X0241291Y0090284D01*
X0241855Y0090883D02*
X0247272Y0090883D01*
X0247947Y0091481D02*
X0242418Y0091481D01*
X0242982Y0092080D02*
X0248622Y0092080D01*
X0249298Y0092678D02*
X0243546Y0092678D01*
X0244109Y0093277D02*
X0249973Y0093277D01*
X0250648Y0093875D02*
X0244673Y0093875D01*
X0245237Y0094474D02*
X0251132Y0094474D01*
X0251183Y0094350D02*
X0236482Y0081320D01*
X0235805Y0081600D01*
X0233895Y0081600D01*
X0232131Y0080869D01*
X0230781Y0079519D01*
X0230050Y0077755D01*
X0230050Y0075845D01*
X0230781Y0074081D01*
X0232131Y0072731D01*
X0233895Y0072000D01*
X0235805Y0072000D01*
X0237569Y0072731D01*
X0238919Y0074081D01*
X0239650Y0075845D01*
X0239650Y0077755D01*
X0239581Y0077920D01*
X0254259Y0090929D01*
X0255316Y0090491D01*
X0257464Y0090491D01*
X0259449Y0091313D01*
X0260968Y0092832D01*
X0261790Y0094817D01*
X0261790Y0096965D01*
X0260968Y0098950D01*
X0259449Y0100469D01*
X0257464Y0101291D01*
X0255316Y0101291D01*
X0253331Y0100469D01*
X0251812Y0098950D01*
X0250990Y0096965D01*
X0250990Y0094817D01*
X0251183Y0094350D01*
X0250990Y0095072D02*
X0245801Y0095072D01*
X0246364Y0095671D02*
X0250990Y0095671D01*
X0250990Y0096269D02*
X0246928Y0096269D01*
X0247492Y0096868D02*
X0250990Y0096868D01*
X0251198Y0097466D02*
X0248055Y0097466D01*
X0248619Y0098065D02*
X0251446Y0098065D01*
X0251694Y0098663D02*
X0249183Y0098663D01*
X0249746Y0099262D02*
X0252124Y0099262D01*
X0252723Y0099860D02*
X0250310Y0099860D01*
X0250874Y0100459D02*
X0253321Y0100459D01*
X0254753Y0101057D02*
X0251438Y0101057D01*
X0252001Y0101656D02*
X0271250Y0101656D01*
X0271250Y0102254D02*
X0252565Y0102254D01*
X0253129Y0102853D02*
X0271250Y0102853D01*
X0271250Y0103451D02*
X0253692Y0103451D01*
X0254256Y0104050D02*
X0271250Y0104050D01*
X0271250Y0104648D02*
X0258377Y0104648D01*
X0259603Y0105247D02*
X0271250Y0105247D01*
X0271250Y0105845D02*
X0260202Y0105845D01*
X0260800Y0106444D02*
X0271250Y0106444D01*
X0271250Y0107042D02*
X0261146Y0107042D01*
X0261394Y0107641D02*
X0271250Y0107641D01*
X0271250Y0108239D02*
X0261642Y0108239D01*
X0261790Y0108838D02*
X0271250Y0108838D01*
X0271250Y0109437D02*
X0261790Y0109437D01*
X0261790Y0110035D02*
X0271250Y0110035D01*
X0271250Y0110634D02*
X0261790Y0110634D01*
X0261588Y0111232D02*
X0271250Y0111232D01*
X0271250Y0111831D02*
X0261340Y0111831D01*
X0261092Y0112429D02*
X0271250Y0112429D01*
X0271250Y0113028D02*
X0260669Y0113028D01*
X0260071Y0113626D02*
X0271250Y0113626D01*
X0271250Y0114225D02*
X0259472Y0114225D01*
X0258061Y0114823D02*
X0271250Y0114823D01*
X0271250Y0115422D02*
X0254146Y0115422D01*
X0254514Y0116020D02*
X0271250Y0116020D01*
X0271250Y0116619D02*
X0254883Y0116619D01*
X0255252Y0117217D02*
X0271250Y0117217D01*
X0271250Y0117816D02*
X0255621Y0117816D01*
X0258344Y0118414D02*
X0271250Y0118414D01*
X0271250Y0119013D02*
X0259590Y0119013D01*
X0260188Y0119611D02*
X0271250Y0119611D01*
X0271250Y0120210D02*
X0260787Y0120210D01*
X0261141Y0120808D02*
X0271250Y0120808D01*
X0271250Y0121407D02*
X0261389Y0121407D01*
X0261637Y0122005D02*
X0271250Y0122005D01*
X0271250Y0122604D02*
X0261790Y0122604D01*
X0261790Y0123202D02*
X0271250Y0123202D01*
X0271250Y0123801D02*
X0261790Y0123801D01*
X0261790Y0124399D02*
X0271250Y0124399D01*
X0271250Y0124998D02*
X0261594Y0124998D01*
X0261346Y0125596D02*
X0271250Y0125596D01*
X0271250Y0126195D02*
X0261098Y0126195D01*
X0260683Y0126793D02*
X0271250Y0126793D01*
X0271250Y0127392D02*
X0260085Y0127392D01*
X0259486Y0127990D02*
X0271250Y0127990D01*
X0271250Y0128589D02*
X0258094Y0128589D01*
X0254686Y0128589D02*
X0248636Y0128589D01*
X0248589Y0127990D02*
X0253294Y0127990D01*
X0252695Y0127392D02*
X0248550Y0127392D01*
X0248550Y0126793D02*
X0252097Y0126793D01*
X0251682Y0126195D02*
X0248550Y0126195D01*
X0248550Y0125596D02*
X0251434Y0125596D01*
X0251186Y0124998D02*
X0248550Y0124998D01*
X0248550Y0124399D02*
X0250990Y0124399D01*
X0250990Y0123801D02*
X0248550Y0123801D01*
X0248550Y0123202D02*
X0250990Y0123202D01*
X0250990Y0122604D02*
X0248550Y0122604D01*
X0248550Y0122005D02*
X0251143Y0122005D01*
X0251391Y0121407D02*
X0248550Y0121407D01*
X0248550Y0120808D02*
X0251639Y0120808D01*
X0251693Y0120210D02*
X0248550Y0120210D01*
X0248550Y0119611D02*
X0251324Y0119611D01*
X0250955Y0119013D02*
X0248550Y0119013D01*
X0248550Y0118414D02*
X0250586Y0118414D01*
X0250218Y0117816D02*
X0248550Y0117816D01*
X0248550Y0117217D02*
X0249849Y0117217D01*
X0249480Y0116619D02*
X0248550Y0116619D01*
X0248547Y0116020D02*
X0249112Y0116020D01*
X0248743Y0115422D02*
X0248352Y0115422D01*
X0248374Y0114823D02*
X0248158Y0114823D01*
X0248006Y0114225D02*
X0247963Y0114225D01*
X0243398Y0115422D02*
X0239475Y0115422D01*
X0239227Y0114823D02*
X0243203Y0114823D01*
X0243009Y0114225D02*
X0238979Y0114225D01*
X0238464Y0113626D02*
X0242637Y0113626D01*
X0242202Y0113028D02*
X0237866Y0113028D01*
X0236841Y0112429D02*
X0241767Y0112429D01*
X0241332Y0111831D02*
X0224542Y0111831D01*
X0224366Y0112429D02*
X0232859Y0112429D01*
X0231834Y0113028D02*
X0224191Y0113028D01*
X0224008Y0113626D02*
X0231236Y0113626D01*
X0230721Y0114225D02*
X0223735Y0114225D01*
X0223461Y0114823D02*
X0230473Y0114823D01*
X0230225Y0115422D02*
X0223188Y0115422D01*
X0222915Y0116020D02*
X0230050Y0116020D01*
X0230050Y0116619D02*
X0222641Y0116619D01*
X0222368Y0117217D02*
X0230050Y0117217D01*
X0230075Y0117816D02*
X0222095Y0117816D01*
X0221821Y0118414D02*
X0230323Y0118414D01*
X0230571Y0119013D02*
X0221548Y0119013D01*
X0221275Y0119611D02*
X0230873Y0119611D01*
X0231471Y0120210D02*
X0221001Y0120210D01*
X0220728Y0120808D02*
X0232070Y0120808D01*
X0233429Y0121407D02*
X0220455Y0121407D01*
X0220181Y0122005D02*
X0233883Y0122005D01*
X0233895Y0122000D02*
X0235805Y0122000D01*
X0237569Y0122731D01*
X0238919Y0124081D01*
X0239650Y0125845D01*
X0239650Y0127755D01*
X0238919Y0129519D01*
X0237569Y0130869D01*
X0235805Y0131600D01*
X0233895Y0131600D01*
X0232131Y0130869D01*
X0230781Y0129519D01*
X0230736Y0129412D01*
X0226525Y0130373D01*
X0221947Y0132578D01*
X0217975Y0135745D01*
X0214808Y0139717D01*
X0212603Y0144295D01*
X0211863Y0147539D01*
X0213029Y0147539D01*
X0213673Y0148183D01*
X0213673Y0149488D01*
X0219427Y0149488D01*
X0219427Y0148303D01*
X0220071Y0147659D01*
X0228069Y0147659D01*
X0228713Y0148303D01*
X0228713Y0149608D01*
X0238737Y0149608D01*
X0242500Y0150831D01*
X0242500Y0150831D01*
X0245701Y0153157D01*
X0248027Y0156358D01*
X0248027Y0156358D01*
X0249250Y0160121D01*
X0249250Y0162100D01*
X0249257Y0162176D01*
X0249315Y0162316D01*
X0249423Y0162423D01*
X0249563Y0162481D01*
X0249638Y0162488D01*
X0251498Y0162488D01*
X0251812Y0161729D01*
X0253331Y0160210D01*
X0255316Y0159388D01*
X0257464Y0159388D01*
X0259449Y0160210D01*
X0260968Y0161729D01*
X0261790Y0163714D01*
X0261790Y0165862D01*
X0260968Y0167847D01*
X0259449Y0169366D01*
X0257464Y0170188D01*
X0255316Y0170188D01*
X0253331Y0169366D01*
X0251812Y0167847D01*
X0251498Y0167088D01*
X0248646Y0167088D01*
X0246813Y0166329D01*
X0246813Y0166329D01*
X0245409Y0164926D01*
X0245409Y0164926D01*
X0244650Y0163092D01*
X0244650Y0162100D01*
X0244553Y0160865D01*
X0243790Y0158517D01*
X0242339Y0156520D01*
X0240341Y0155068D01*
X0237993Y0154305D01*
X0236758Y0154208D01*
X0228713Y0154208D01*
X0228713Y0155513D01*
X0228069Y0156158D01*
X0220071Y0156158D01*
X0219427Y0155513D01*
X0219427Y0154088D01*
X0213673Y0154088D01*
X0213673Y0155393D01*
X0213029Y0156038D01*
X0205031Y0156038D01*
X0204387Y0155393D01*
X0204387Y0148183D01*
X0205031Y0147539D01*
X0206998Y0147539D01*
X0208098Y0142718D01*
X0210766Y0137178D01*
X0214600Y0132370D01*
X0214600Y0132370D01*
X0214600Y0132370D01*
X0219408Y0128536D01*
X0219408Y0128536D01*
X0224948Y0125868D01*
X0224948Y0125868D01*
X0230572Y0124585D01*
X0230781Y0124081D01*
X0232131Y0122731D01*
X0233895Y0122000D01*
X0232438Y0122604D02*
X0219908Y0122604D01*
X0219570Y0123202D02*
X0231660Y0123202D01*
X0231061Y0123801D02*
X0219185Y0123801D01*
X0218801Y0124399D02*
X0230649Y0124399D01*
X0228763Y0124998D02*
X0218416Y0124998D01*
X0218031Y0125596D02*
X0226140Y0125596D01*
X0224270Y0126195D02*
X0217647Y0126195D01*
X0217262Y0126793D02*
X0223028Y0126793D01*
X0221785Y0127392D02*
X0216877Y0127392D01*
X0216493Y0127990D02*
X0220542Y0127990D01*
X0219342Y0128589D02*
X0216108Y0128589D01*
X0215723Y0129187D02*
X0218592Y0129187D01*
X0217841Y0129786D02*
X0215339Y0129786D01*
X0214954Y0130384D02*
X0217091Y0130384D01*
X0216340Y0130983D02*
X0214570Y0130983D01*
X0214151Y0131581D02*
X0215590Y0131581D01*
X0214839Y0132180D02*
X0213632Y0132180D01*
X0213113Y0132778D02*
X0214275Y0132778D01*
X0213798Y0133377D02*
X0212595Y0133377D01*
X0212076Y0133975D02*
X0213320Y0133975D01*
X0212843Y0134574D02*
X0211558Y0134574D01*
X0211039Y0135172D02*
X0212366Y0135172D01*
X0211889Y0135771D02*
X0210520Y0135771D01*
X0210002Y0136370D02*
X0211411Y0136370D01*
X0210934Y0136968D02*
X0209483Y0136968D01*
X0208965Y0137567D02*
X0210579Y0137567D01*
X0210766Y0137178D02*
X0210766Y0137178D01*
X0210291Y0138165D02*
X0208446Y0138165D01*
X0207927Y0138764D02*
X0210003Y0138764D01*
X0209715Y0139362D02*
X0207342Y0139362D01*
X0207608Y0139132D02*
X0207608Y0139132D01*
X0206652Y0139961D02*
X0209426Y0139961D01*
X0209138Y0140559D02*
X0205961Y0140559D01*
X0205270Y0141158D02*
X0208850Y0141158D01*
X0208562Y0141756D02*
X0204580Y0141756D01*
X0203889Y0142355D02*
X0208274Y0142355D01*
X0208098Y0142718D02*
X0208098Y0142718D01*
X0208045Y0142953D02*
X0203198Y0142953D01*
X0202507Y0143552D02*
X0207908Y0143552D01*
X0207772Y0144150D02*
X0201817Y0144150D01*
X0201126Y0144749D02*
X0207635Y0144749D01*
X0207498Y0145347D02*
X0200435Y0145347D01*
X0199689Y0145946D02*
X0207362Y0145946D01*
X0207225Y0146544D02*
X0198757Y0146544D01*
X0197826Y0147143D02*
X0207089Y0147143D01*
X0204828Y0147741D02*
X0196895Y0147741D01*
X0195963Y0148340D02*
X0204387Y0148340D01*
X0204387Y0148938D02*
X0195032Y0148938D01*
X0194101Y0149537D02*
X0204387Y0149537D01*
X0204387Y0150135D02*
X0193169Y0150135D01*
X0192238Y0150734D02*
X0204387Y0150734D01*
X0204387Y0151332D02*
X0191297Y0151332D01*
X0189987Y0151931D02*
X0204387Y0151931D01*
X0204387Y0152529D02*
X0188676Y0152529D01*
X0187366Y0153128D02*
X0204387Y0153128D01*
X0204387Y0153726D02*
X0186055Y0153726D01*
X0184744Y0154325D02*
X0204387Y0154325D01*
X0204387Y0154923D02*
X0183434Y0154923D01*
X0182123Y0155522D02*
X0204515Y0155522D01*
X0205316Y0158362D02*
X0208730Y0158362D01*
X0208730Y0162512D01*
X0204187Y0162512D01*
X0204187Y0159491D01*
X0204275Y0159160D01*
X0204446Y0158864D01*
X0204688Y0158622D01*
X0204985Y0158451D01*
X0205316Y0158362D01*
X0204875Y0158514D02*
X0171642Y0158514D01*
X0174006Y0157916D02*
X0243353Y0157916D01*
X0243788Y0158514D02*
X0213185Y0158514D01*
X0213075Y0158451D02*
X0213372Y0158622D01*
X0213614Y0158864D01*
X0213785Y0159160D01*
X0213873Y0159491D01*
X0213873Y0162512D01*
X0209330Y0162512D01*
X0209330Y0163112D01*
X0208730Y0163112D01*
X0208730Y0167261D01*
X0205316Y0167261D01*
X0204985Y0167173D01*
X0204688Y0167002D01*
X0204446Y0166760D01*
X0204275Y0166463D01*
X0204187Y0166133D01*
X0204187Y0163112D01*
X0208730Y0163112D01*
X0208730Y0162512D01*
X0209330Y0162512D01*
X0209330Y0158362D01*
X0212744Y0158362D01*
X0213075Y0158451D01*
X0213757Y0159113D02*
X0219640Y0159113D01*
X0219427Y0159711D02*
X0213873Y0159711D01*
X0213873Y0160310D02*
X0219427Y0160310D01*
X0219427Y0160908D02*
X0213873Y0160908D01*
X0213873Y0161507D02*
X0219427Y0161507D01*
X0219427Y0162105D02*
X0213873Y0162105D01*
X0213873Y0163112D02*
X0213873Y0166133D01*
X0213785Y0166463D01*
X0213614Y0166760D01*
X0213372Y0167002D01*
X0213075Y0167173D01*
X0212744Y0167261D01*
X0209330Y0167261D01*
X0209330Y0163112D01*
X0213873Y0163112D01*
X0213873Y0163303D02*
X0219427Y0163303D01*
X0219427Y0163901D02*
X0213873Y0163901D01*
X0213873Y0164500D02*
X0219427Y0164500D01*
X0219427Y0165098D02*
X0213873Y0165098D01*
X0213873Y0165697D02*
X0219427Y0165697D01*
X0219427Y0166295D02*
X0213830Y0166295D01*
X0213480Y0166894D02*
X0219783Y0166894D01*
X0220497Y0167492D02*
X0128074Y0167492D01*
X0128395Y0166894D02*
X0204580Y0166894D01*
X0204230Y0166295D02*
X0128622Y0166295D01*
X0128770Y0165697D02*
X0204187Y0165697D01*
X0204187Y0165098D02*
X0124150Y0165098D01*
X0124150Y0164500D02*
X0123550Y0164500D01*
X0123550Y0165098D02*
X0116882Y0165098D01*
X0116680Y0164500D02*
X0118850Y0164500D01*
X0118930Y0163901D02*
X0116500Y0163901D01*
X0116319Y0163303D02*
X0119079Y0163303D01*
X0119306Y0162704D02*
X0116198Y0162704D01*
X0116164Y0162105D02*
X0119627Y0162105D01*
X0120072Y0161507D02*
X0116157Y0161507D01*
X0116170Y0160908D02*
X0120700Y0160908D01*
X0121649Y0160310D02*
X0116150Y0160310D01*
X0116150Y0159711D02*
X0152298Y0159711D01*
X0153335Y0160310D02*
X0126051Y0160310D01*
X0127000Y0160908D02*
X0154372Y0160908D01*
X0155408Y0161507D02*
X0127628Y0161507D01*
X0128073Y0162105D02*
X0156445Y0162105D01*
X0157481Y0162704D02*
X0128394Y0162704D01*
X0128621Y0163303D02*
X0204187Y0163303D01*
X0204187Y0163901D02*
X0128770Y0163901D01*
X0128850Y0164500D02*
X0204187Y0164500D01*
X0204187Y0162105D02*
X0159839Y0162105D01*
X0160185Y0161507D02*
X0204187Y0161507D01*
X0204187Y0160908D02*
X0160530Y0160908D01*
X0160876Y0160310D02*
X0204187Y0160310D01*
X0204187Y0159711D02*
X0163316Y0159711D01*
X0167479Y0159113D02*
X0204303Y0159113D01*
X0208730Y0159113D02*
X0209330Y0159113D01*
X0209330Y0159711D02*
X0208730Y0159711D01*
X0208730Y0160310D02*
X0209330Y0160310D01*
X0209330Y0160908D02*
X0208730Y0160908D01*
X0208730Y0161507D02*
X0209330Y0161507D01*
X0209330Y0162105D02*
X0208730Y0162105D01*
X0208730Y0162704D02*
X0159494Y0162704D01*
X0149737Y0159113D02*
X0125981Y0159113D01*
X0126569Y0158869D02*
X0124805Y0159600D01*
X0122895Y0159600D01*
X0121131Y0158869D01*
X0119781Y0157519D01*
X0119050Y0155755D01*
X0119050Y0153845D01*
X0119781Y0152081D01*
X0121131Y0150731D01*
X0122895Y0150000D01*
X0124805Y0150000D01*
X0126569Y0150731D01*
X0127919Y0152081D01*
X0128650Y0153845D01*
X0128650Y0155755D01*
X0127919Y0157519D01*
X0126569Y0158869D01*
X0126924Y0158514D02*
X0146279Y0158514D01*
X0145773Y0158427D02*
X0145773Y0158427D01*
X0144131Y0157916D02*
X0127522Y0157916D01*
X0128003Y0157317D02*
X0142208Y0157317D01*
X0140284Y0156719D02*
X0128251Y0156719D01*
X0128499Y0156120D02*
X0138424Y0156120D01*
X0138553Y0156180D02*
X0138553Y0156180D01*
X0137125Y0155522D02*
X0128650Y0155522D01*
X0128650Y0154923D02*
X0135827Y0154923D01*
X0134529Y0154325D02*
X0128650Y0154325D01*
X0128601Y0153726D02*
X0133231Y0153726D01*
X0131933Y0153128D02*
X0128353Y0153128D01*
X0128105Y0152529D02*
X0130917Y0152529D01*
X0131687Y0153015D02*
X0131687Y0153015D01*
X0129967Y0151931D02*
X0127769Y0151931D01*
X0127171Y0151332D02*
X0129017Y0151332D01*
X0128068Y0150734D02*
X0126572Y0150734D01*
X0127118Y0150135D02*
X0125131Y0150135D01*
X0124957Y0149537D02*
X0126168Y0149537D01*
X0122743Y0149537D02*
X0116150Y0149537D01*
X0116150Y0150135D02*
X0122569Y0150135D01*
X0121128Y0150734D02*
X0116150Y0150734D01*
X0116150Y0151332D02*
X0120529Y0151332D01*
X0119931Y0151931D02*
X0116150Y0151931D01*
X0116150Y0152529D02*
X0119595Y0152529D01*
X0119347Y0153128D02*
X0116150Y0153128D01*
X0116150Y0153726D02*
X0119099Y0153726D01*
X0119050Y0154325D02*
X0116150Y0154325D01*
X0116150Y0154923D02*
X0119050Y0154923D01*
X0119050Y0155522D02*
X0116150Y0155522D01*
X0116150Y0156120D02*
X0119201Y0156120D01*
X0119449Y0156719D02*
X0116150Y0156719D01*
X0116150Y0157317D02*
X0119697Y0157317D01*
X0120178Y0157916D02*
X0116150Y0157916D01*
X0116150Y0158514D02*
X0120776Y0158514D01*
X0121719Y0159113D02*
X0116150Y0159113D01*
X0123550Y0160310D02*
X0124150Y0160310D01*
X0124150Y0160908D02*
X0123550Y0160908D01*
X0123550Y0161507D02*
X0124150Y0161507D01*
X0124150Y0162105D02*
X0123550Y0162105D01*
X0123550Y0162704D02*
X0124150Y0162704D01*
X0124150Y0163303D02*
X0123550Y0163303D01*
X0123550Y0163901D02*
X0124150Y0163901D01*
X0127630Y0168091D02*
X0219827Y0168091D01*
X0218869Y0168689D02*
X0127004Y0168689D01*
X0120070Y0168091D02*
X0119734Y0168091D01*
X0119626Y0167492D02*
X0118947Y0167492D01*
X0119305Y0166894D02*
X0118159Y0166894D01*
X0117713Y0166295D02*
X0119078Y0166295D01*
X0118930Y0165697D02*
X0117297Y0165697D01*
X0116150Y0148938D02*
X0121298Y0148938D01*
X0120602Y0148340D02*
X0116150Y0148340D01*
X0116150Y0147741D02*
X0120003Y0147741D01*
X0119625Y0147143D02*
X0116150Y0147143D01*
X0116150Y0146544D02*
X0119377Y0146544D01*
X0119129Y0145946D02*
X0116150Y0145946D01*
X0116150Y0145347D02*
X0119050Y0145347D01*
X0119050Y0144749D02*
X0116150Y0144749D01*
X0116150Y0144150D02*
X0119050Y0144150D01*
X0119172Y0143552D02*
X0116150Y0143552D01*
X0116150Y0142953D02*
X0119420Y0142953D01*
X0119667Y0142355D02*
X0116150Y0142355D01*
X0116150Y0141756D02*
X0120106Y0141756D01*
X0120704Y0141158D02*
X0116150Y0141158D01*
X0116150Y0140559D02*
X0121545Y0140559D01*
X0128650Y0135172D02*
X0140329Y0135172D01*
X0140577Y0134574D02*
X0128650Y0134574D01*
X0128650Y0133975D02*
X0140886Y0133975D01*
X0140781Y0134081D02*
X0142131Y0132731D01*
X0143895Y0132000D01*
X0145805Y0132000D01*
X0147569Y0132731D01*
X0148919Y0134081D01*
X0149650Y0135845D01*
X0149650Y0137755D01*
X0148919Y0139519D01*
X0147569Y0140869D01*
X0145805Y0141600D01*
X0143895Y0141600D01*
X0142131Y0140869D01*
X0140781Y0139519D01*
X0140050Y0137755D01*
X0140050Y0135845D01*
X0140781Y0134081D01*
X0141485Y0133377D02*
X0128650Y0133377D01*
X0128650Y0132778D02*
X0142083Y0132778D01*
X0143461Y0132180D02*
X0128650Y0132180D01*
X0128650Y0131581D02*
X0143850Y0131581D01*
X0142405Y0130983D02*
X0128650Y0130983D01*
X0128390Y0130384D02*
X0141646Y0130384D01*
X0145850Y0131581D02*
X0161507Y0131581D01*
X0161507Y0131917D02*
X0161507Y0124707D01*
X0162151Y0124062D01*
X0170149Y0124062D01*
X0170793Y0124707D01*
X0170793Y0125985D01*
X0181097Y0125925D01*
X0181281Y0125481D01*
X0182631Y0124131D01*
X0184395Y0123400D01*
X0186305Y0123400D01*
X0188069Y0124131D01*
X0189419Y0125481D01*
X0190150Y0127245D01*
X0190150Y0129155D01*
X0189419Y0130919D01*
X0188069Y0132269D01*
X0186305Y0133000D01*
X0184395Y0133000D01*
X0182631Y0132269D01*
X0181281Y0130919D01*
X0181117Y0130525D01*
X0170793Y0130585D01*
X0170793Y0131917D01*
X0170149Y0132561D01*
X0162151Y0132561D01*
X0161507Y0131917D01*
X0161770Y0132180D02*
X0146239Y0132180D01*
X0147617Y0132778D02*
X0183860Y0132778D01*
X0182542Y0132180D02*
X0170530Y0132180D01*
X0170793Y0131581D02*
X0181943Y0131581D01*
X0181345Y0130983D02*
X0170793Y0130983D01*
X0170793Y0125596D02*
X0181233Y0125596D01*
X0181764Y0124998D02*
X0170793Y0124998D01*
X0170486Y0124399D02*
X0182362Y0124399D01*
X0183428Y0123801D02*
X0148639Y0123801D01*
X0149051Y0124399D02*
X0161814Y0124399D01*
X0161507Y0124998D02*
X0149299Y0124998D01*
X0149547Y0125596D02*
X0161507Y0125596D01*
X0161507Y0126195D02*
X0149650Y0126195D01*
X0149650Y0126793D02*
X0161507Y0126793D01*
X0161507Y0127392D02*
X0149650Y0127392D01*
X0149552Y0127990D02*
X0161507Y0127990D01*
X0161507Y0128589D02*
X0149305Y0128589D01*
X0149057Y0129187D02*
X0161507Y0129187D01*
X0161507Y0129786D02*
X0148652Y0129786D01*
X0148054Y0130384D02*
X0161507Y0130384D01*
X0161507Y0130983D02*
X0147295Y0130983D01*
X0148215Y0133377D02*
X0197846Y0133377D01*
X0198444Y0132778D02*
X0186840Y0132778D01*
X0188158Y0132180D02*
X0199043Y0132180D01*
X0199641Y0131581D02*
X0188757Y0131581D01*
X0189355Y0130983D02*
X0200240Y0130983D01*
X0200838Y0130384D02*
X0189641Y0130384D01*
X0189889Y0129786D02*
X0201437Y0129786D01*
X0202035Y0129187D02*
X0190136Y0129187D01*
X0190150Y0128589D02*
X0202634Y0128589D01*
X0203232Y0127990D02*
X0190150Y0127990D01*
X0190150Y0127392D02*
X0203699Y0127392D01*
X0204134Y0126793D02*
X0189963Y0126793D01*
X0189715Y0126195D02*
X0204568Y0126195D01*
X0205003Y0125596D02*
X0189467Y0125596D01*
X0188936Y0124998D02*
X0205438Y0124998D01*
X0205873Y0124399D02*
X0188337Y0124399D01*
X0187272Y0123801D02*
X0206308Y0123801D01*
X0206743Y0123202D02*
X0148040Y0123202D01*
X0147262Y0122604D02*
X0182979Y0122604D01*
X0182729Y0122476D02*
X0182093Y0122014D01*
X0181536Y0121457D01*
X0181074Y0120821D01*
X0180716Y0120119D01*
X0180473Y0119371D01*
X0180350Y0118594D01*
X0180350Y0118500D01*
X0185050Y0118500D01*
X0185050Y0123200D01*
X0184956Y0123200D01*
X0184179Y0123077D01*
X0183431Y0122834D01*
X0182729Y0122476D01*
X0182084Y0122005D02*
X0145817Y0122005D01*
X0146271Y0121407D02*
X0162020Y0121407D01*
X0161507Y0120808D02*
X0147630Y0120808D01*
X0148228Y0120210D02*
X0161507Y0120210D01*
X0161507Y0119611D02*
X0148827Y0119611D01*
X0148979Y0114225D02*
X0161507Y0114225D01*
X0161507Y0114823D02*
X0158973Y0114823D01*
X0161564Y0113626D02*
X0148464Y0113626D01*
X0147866Y0113028D02*
X0212083Y0113028D01*
X0211889Y0113626D02*
X0187387Y0113626D01*
X0187269Y0113566D02*
X0187971Y0113924D01*
X0188607Y0114386D01*
X0189164Y0114943D01*
X0189626Y0115579D01*
X0189984Y0116281D01*
X0190227Y0117029D01*
X0190350Y0117806D01*
X0190350Y0117900D01*
X0185650Y0117900D01*
X0185650Y0118500D01*
X0190350Y0118500D01*
X0190350Y0118594D01*
X0190227Y0119371D01*
X0189984Y0120119D01*
X0189626Y0120821D01*
X0189164Y0121457D01*
X0188607Y0122014D01*
X0187971Y0122476D01*
X0187269Y0122834D01*
X0186521Y0123077D01*
X0185744Y0123200D01*
X0185650Y0123200D01*
X0185650Y0118500D01*
X0185050Y0118500D01*
X0185050Y0117900D01*
X0185650Y0117900D01*
X0185650Y0113200D01*
X0185744Y0113200D01*
X0186521Y0113323D01*
X0187269Y0113566D01*
X0188385Y0114225D02*
X0211694Y0114225D01*
X0211401Y0114823D02*
X0189044Y0114823D01*
X0189512Y0115422D02*
X0211096Y0115422D01*
X0210791Y0116020D02*
X0189851Y0116020D01*
X0190093Y0116619D02*
X0210486Y0116619D01*
X0210181Y0117217D02*
X0190257Y0117217D01*
X0190350Y0117816D02*
X0209876Y0117816D01*
X0209571Y0118414D02*
X0185650Y0118414D01*
X0185650Y0117816D02*
X0185050Y0117816D01*
X0185050Y0117900D02*
X0185050Y0113200D01*
X0184956Y0113200D01*
X0184179Y0113323D01*
X0183431Y0113566D01*
X0182729Y0113924D01*
X0182093Y0114386D01*
X0181536Y0114943D01*
X0181074Y0115579D01*
X0180716Y0116281D01*
X0180473Y0117029D01*
X0180350Y0117806D01*
X0180350Y0117900D01*
X0185050Y0117900D01*
X0185050Y0118414D02*
X0170793Y0118414D01*
X0170793Y0117816D02*
X0180350Y0117816D01*
X0180443Y0117217D02*
X0170793Y0117217D01*
X0170793Y0116619D02*
X0180606Y0116619D01*
X0180849Y0116020D02*
X0170793Y0116020D01*
X0170793Y0115422D02*
X0181188Y0115422D01*
X0181656Y0114823D02*
X0170793Y0114823D01*
X0170793Y0114225D02*
X0182315Y0114225D01*
X0183313Y0113626D02*
X0170736Y0113626D01*
X0170793Y0119013D02*
X0180416Y0119013D01*
X0180551Y0119611D02*
X0170793Y0119611D01*
X0170793Y0120210D02*
X0180762Y0120210D01*
X0181067Y0120808D02*
X0170793Y0120808D01*
X0170280Y0121407D02*
X0181499Y0121407D01*
X0185050Y0121407D02*
X0185650Y0121407D01*
X0185650Y0122005D02*
X0185050Y0122005D01*
X0185050Y0122604D02*
X0185650Y0122604D01*
X0185650Y0120808D02*
X0185050Y0120808D01*
X0185050Y0120210D02*
X0185650Y0120210D01*
X0185650Y0119611D02*
X0185050Y0119611D01*
X0185050Y0119013D02*
X0185650Y0119013D01*
X0185650Y0117217D02*
X0185050Y0117217D01*
X0185050Y0116619D02*
X0185650Y0116619D01*
X0185650Y0116020D02*
X0185050Y0116020D01*
X0185050Y0115422D02*
X0185650Y0115422D01*
X0185650Y0114823D02*
X0185050Y0114823D01*
X0185050Y0114225D02*
X0185650Y0114225D01*
X0185650Y0113626D02*
X0185050Y0113626D01*
X0190284Y0119013D02*
X0209266Y0119013D01*
X0208962Y0119611D02*
X0190149Y0119611D01*
X0189938Y0120210D02*
X0208657Y0120210D01*
X0208352Y0120808D02*
X0189633Y0120808D01*
X0189201Y0121407D02*
X0208047Y0121407D01*
X0207612Y0122005D02*
X0188616Y0122005D01*
X0187721Y0122604D02*
X0207177Y0122604D01*
X0212278Y0112429D02*
X0146841Y0112429D01*
X0146693Y0111232D02*
X0212667Y0111232D01*
X0212861Y0110634D02*
X0147805Y0110634D01*
X0148403Y0110035D02*
X0213056Y0110035D01*
X0213250Y0109437D02*
X0148953Y0109437D01*
X0149201Y0108838D02*
X0213444Y0108838D01*
X0213639Y0108239D02*
X0149449Y0108239D01*
X0149650Y0107641D02*
X0213833Y0107641D01*
X0214028Y0107042D02*
X0149650Y0107042D01*
X0149650Y0106444D02*
X0214182Y0106444D01*
X0214276Y0105845D02*
X0149650Y0105845D01*
X0149402Y0105247D02*
X0214371Y0105247D01*
X0214466Y0104648D02*
X0149154Y0104648D01*
X0148888Y0104050D02*
X0214561Y0104050D01*
X0214656Y0103451D02*
X0148290Y0103451D01*
X0147691Y0102853D02*
X0214750Y0102853D01*
X0214845Y0102254D02*
X0146419Y0102254D01*
X0145805Y0101600D02*
X0147569Y0100869D01*
X0148919Y0099519D01*
X0149650Y0097755D01*
X0149650Y0095845D01*
X0148919Y0094081D01*
X0147569Y0092731D01*
X0145805Y0092000D01*
X0143895Y0092000D01*
X0142131Y0092731D01*
X0140781Y0094081D01*
X0140050Y0095845D01*
X0140050Y0097755D01*
X0140781Y0099519D01*
X0142131Y0100869D01*
X0143895Y0101600D01*
X0145805Y0101600D01*
X0147115Y0101057D02*
X0215035Y0101057D01*
X0215130Y0100459D02*
X0147979Y0100459D01*
X0148578Y0099860D02*
X0215224Y0099860D01*
X0215319Y0099262D02*
X0149026Y0099262D01*
X0149274Y0098663D02*
X0215398Y0098663D01*
X0215422Y0098065D02*
X0149522Y0098065D01*
X0149650Y0097466D02*
X0215445Y0097466D01*
X0215469Y0096868D02*
X0149650Y0096868D01*
X0149650Y0096269D02*
X0215492Y0096269D01*
X0215516Y0095671D02*
X0149578Y0095671D01*
X0149330Y0095072D02*
X0215539Y0095072D01*
X0215550Y0094474D02*
X0149082Y0094474D01*
X0148713Y0093875D02*
X0215550Y0093875D01*
X0215550Y0093277D02*
X0148115Y0093277D01*
X0147442Y0092678D02*
X0215550Y0092678D01*
X0215550Y0092080D02*
X0145997Y0092080D01*
X0145805Y0091600D02*
X0143895Y0091600D01*
X0142131Y0090869D01*
X0140781Y0089519D01*
X0140050Y0087755D01*
X0140050Y0085845D01*
X0140781Y0084081D01*
X0142131Y0082731D01*
X0143895Y0082000D01*
X0145805Y0082000D01*
X0147569Y0082731D01*
X0148919Y0084081D01*
X0149650Y0085845D01*
X0149650Y0087755D01*
X0148919Y0089519D01*
X0147569Y0090869D01*
X0145805Y0091600D01*
X0146092Y0091481D02*
X0215550Y0091481D01*
X0215550Y0090883D02*
X0147537Y0090883D01*
X0148154Y0090284D02*
X0215550Y0090284D01*
X0215550Y0089686D02*
X0148753Y0089686D01*
X0149098Y0089087D02*
X0215550Y0089087D01*
X0215550Y0088489D02*
X0149346Y0088489D01*
X0149594Y0087890D02*
X0215550Y0087890D01*
X0215550Y0087292D02*
X0149650Y0087292D01*
X0149650Y0086693D02*
X0215550Y0086693D01*
X0215550Y0086095D02*
X0149650Y0086095D01*
X0149505Y0085496D02*
X0215550Y0085496D01*
X0215550Y0084898D02*
X0149257Y0084898D01*
X0149010Y0084299D02*
X0215550Y0084299D01*
X0215550Y0083701D02*
X0148539Y0083701D01*
X0147940Y0083102D02*
X0215550Y0083102D01*
X0215550Y0082503D02*
X0147020Y0082503D01*
X0146769Y0081434D02*
X0146021Y0081677D01*
X0145244Y0081800D01*
X0145150Y0081800D01*
X0145150Y0077100D01*
X0149850Y0077100D01*
X0149850Y0077194D01*
X0149727Y0077971D01*
X0149484Y0078719D01*
X0149126Y0079421D01*
X0148664Y0080057D01*
X0148107Y0080614D01*
X0147471Y0081076D01*
X0146769Y0081434D01*
X0147019Y0081306D02*
X0215550Y0081306D01*
X0215550Y0081905D02*
X0134150Y0081905D01*
X0134150Y0082503D02*
X0142680Y0082503D01*
X0141760Y0083102D02*
X0134150Y0083102D01*
X0134150Y0083701D02*
X0141161Y0083701D01*
X0140690Y0084299D02*
X0134150Y0084299D01*
X0134150Y0084898D02*
X0140443Y0084898D01*
X0140195Y0085496D02*
X0134150Y0085496D01*
X0134150Y0086095D02*
X0140050Y0086095D01*
X0140050Y0086693D02*
X0134150Y0086693D01*
X0134150Y0087292D02*
X0140050Y0087292D01*
X0140106Y0087890D02*
X0134150Y0087890D01*
X0134150Y0088489D02*
X0140354Y0088489D01*
X0140602Y0089087D02*
X0134150Y0089087D01*
X0134150Y0089686D02*
X0140947Y0089686D01*
X0141546Y0090284D02*
X0134150Y0090284D01*
X0134150Y0090883D02*
X0142163Y0090883D01*
X0143608Y0091481D02*
X0134150Y0091481D01*
X0134150Y0092080D02*
X0143703Y0092080D01*
X0142258Y0092678D02*
X0134150Y0092678D01*
X0134150Y0093277D02*
X0141585Y0093277D01*
X0140987Y0093875D02*
X0134150Y0093875D01*
X0134150Y0094474D02*
X0140618Y0094474D01*
X0140370Y0095072D02*
X0134150Y0095072D01*
X0134150Y0095671D02*
X0140122Y0095671D01*
X0140050Y0096269D02*
X0134182Y0096269D01*
X0134217Y0096868D02*
X0140050Y0096868D01*
X0140050Y0097466D02*
X0134223Y0097466D01*
X0134247Y0097375D02*
X0134247Y0097375D01*
X0134066Y0098065D02*
X0140178Y0098065D01*
X0140426Y0098663D02*
X0133910Y0098663D01*
X0133754Y0099262D02*
X0140674Y0099262D01*
X0141122Y0099860D02*
X0133598Y0099860D01*
X0133441Y0100459D02*
X0141721Y0100459D01*
X0142585Y0101057D02*
X0133146Y0101057D01*
X0132762Y0101656D02*
X0214940Y0101656D01*
X0225772Y0107641D02*
X0230050Y0107641D01*
X0230050Y0107042D02*
X0225948Y0107042D01*
X0226124Y0106444D02*
X0230050Y0106444D01*
X0230050Y0105845D02*
X0226300Y0105845D01*
X0226475Y0105247D02*
X0230298Y0105247D01*
X0230546Y0104648D02*
X0226651Y0104648D01*
X0226827Y0104050D02*
X0230812Y0104050D01*
X0231410Y0103451D02*
X0226950Y0103451D01*
X0226899Y0103803D02*
X0226899Y0103803D01*
X0227036Y0102853D02*
X0232009Y0102853D01*
X0233281Y0102254D02*
X0227122Y0102254D01*
X0227208Y0101656D02*
X0237745Y0101656D01*
X0238475Y0102254D02*
X0236419Y0102254D01*
X0237691Y0102853D02*
X0239206Y0102853D01*
X0239937Y0103451D02*
X0238290Y0103451D01*
X0238888Y0104050D02*
X0240583Y0104050D01*
X0241106Y0104648D02*
X0239154Y0104648D01*
X0239402Y0105247D02*
X0241629Y0105247D01*
X0241153Y0105845D02*
X0242152Y0105845D01*
X0241977Y0106444D02*
X0242676Y0106444D01*
X0242801Y0107042D02*
X0243199Y0107042D01*
X0243625Y0107641D02*
X0243722Y0107641D01*
X0240551Y0111232D02*
X0236693Y0111232D01*
X0237805Y0110634D02*
X0239727Y0110634D01*
X0238806Y0110035D02*
X0238403Y0110035D01*
X0233007Y0111232D02*
X0224718Y0111232D01*
X0224894Y0110634D02*
X0231895Y0110634D01*
X0231297Y0110035D02*
X0225069Y0110035D01*
X0225245Y0109437D02*
X0230747Y0109437D01*
X0230499Y0108838D02*
X0225421Y0108838D01*
X0225597Y0108239D02*
X0230251Y0108239D01*
X0232585Y0101057D02*
X0227294Y0101057D01*
X0227380Y0100459D02*
X0231721Y0100459D01*
X0231122Y0099860D02*
X0227466Y0099860D01*
X0227552Y0099262D02*
X0230674Y0099262D01*
X0230426Y0098663D02*
X0227638Y0098663D01*
X0227724Y0098065D02*
X0230178Y0098065D01*
X0230050Y0097466D02*
X0227810Y0097466D01*
X0227897Y0096868D02*
X0230050Y0096868D01*
X0230050Y0096269D02*
X0227983Y0096269D01*
X0228069Y0095671D02*
X0230122Y0095671D01*
X0230370Y0095072D02*
X0228155Y0095072D01*
X0228241Y0094474D02*
X0230618Y0094474D01*
X0230987Y0093875D02*
X0228327Y0093875D01*
X0228350Y0093277D02*
X0231585Y0093277D01*
X0232258Y0092678D02*
X0228350Y0092678D01*
X0228350Y0092080D02*
X0233703Y0092080D01*
X0233608Y0091481D02*
X0228350Y0091481D01*
X0228350Y0090883D02*
X0232163Y0090883D01*
X0231546Y0090284D02*
X0228350Y0090284D01*
X0228350Y0089686D02*
X0230947Y0089686D01*
X0236092Y0091481D02*
X0236099Y0091481D01*
X0235997Y0092080D02*
X0236663Y0092080D01*
X0246103Y0083701D02*
X0251203Y0083701D01*
X0250990Y0083185D02*
X0251812Y0085170D01*
X0253331Y0086689D01*
X0255316Y0087511D01*
X0257464Y0087511D01*
X0259449Y0086689D01*
X0260968Y0085170D01*
X0261790Y0083185D01*
X0261790Y0081037D01*
X0260968Y0079052D01*
X0259449Y0077533D01*
X0257464Y0076711D01*
X0255316Y0076711D01*
X0253331Y0077533D01*
X0251812Y0079052D01*
X0250990Y0081037D01*
X0250990Y0083185D01*
X0250990Y0083102D02*
X0245428Y0083102D01*
X0244753Y0082503D02*
X0250990Y0082503D01*
X0250990Y0081905D02*
X0244078Y0081905D01*
X0243402Y0081306D02*
X0250990Y0081306D01*
X0251126Y0080708D02*
X0242727Y0080708D01*
X0242052Y0080109D02*
X0251374Y0080109D01*
X0251622Y0079511D02*
X0241376Y0079511D01*
X0240701Y0078912D02*
X0251952Y0078912D01*
X0252550Y0078314D02*
X0240026Y0078314D01*
X0239650Y0077715D02*
X0253149Y0077715D01*
X0254336Y0077117D02*
X0239650Y0077117D01*
X0239650Y0076518D02*
X0271250Y0076518D01*
X0271250Y0075920D02*
X0239650Y0075920D01*
X0239433Y0075321D02*
X0271250Y0075321D01*
X0271250Y0074723D02*
X0239185Y0074723D01*
X0238937Y0074124D02*
X0271250Y0074124D01*
X0271250Y0073526D02*
X0257961Y0073526D01*
X0259406Y0072927D02*
X0271250Y0072927D01*
X0271250Y0072329D02*
X0260030Y0072329D01*
X0260628Y0071730D02*
X0271250Y0071730D01*
X0271250Y0071132D02*
X0261075Y0071132D01*
X0261323Y0070533D02*
X0271250Y0070533D01*
X0271250Y0069935D02*
X0261571Y0069935D01*
X0261790Y0069336D02*
X0271250Y0069336D01*
X0271250Y0068738D02*
X0261790Y0068738D01*
X0261790Y0068139D02*
X0271250Y0068139D01*
X0271250Y0067541D02*
X0261790Y0067541D01*
X0261659Y0066942D02*
X0271250Y0066942D01*
X0271250Y0066344D02*
X0261411Y0066344D01*
X0261164Y0065745D02*
X0271250Y0065745D01*
X0271250Y0065147D02*
X0260842Y0065147D01*
X0260243Y0064548D02*
X0271250Y0064548D01*
X0271250Y0063950D02*
X0259645Y0063950D01*
X0258477Y0063351D02*
X0271250Y0063351D01*
X0271250Y0062753D02*
X0237591Y0062753D01*
X0238189Y0063351D02*
X0254303Y0063351D01*
X0253135Y0063950D02*
X0238788Y0063950D01*
X0239113Y0064548D02*
X0252537Y0064548D01*
X0251938Y0065147D02*
X0239361Y0065147D01*
X0239609Y0065745D02*
X0251616Y0065745D01*
X0251705Y0071132D02*
X0236935Y0071132D01*
X0236599Y0072329D02*
X0252750Y0072329D01*
X0252152Y0071730D02*
X0226607Y0071730D01*
X0225710Y0072329D02*
X0233101Y0072329D01*
X0232765Y0071132D02*
X0227644Y0071132D01*
X0228680Y0070533D02*
X0231795Y0070533D01*
X0231197Y0069935D02*
X0230285Y0069935D01*
X0231934Y0072927D02*
X0225112Y0072927D01*
X0224513Y0073526D02*
X0231336Y0073526D01*
X0230763Y0074124D02*
X0223915Y0074124D01*
X0223316Y0074723D02*
X0230515Y0074723D01*
X0230267Y0075321D02*
X0222916Y0075321D01*
X0222571Y0075920D02*
X0230050Y0075920D01*
X0230050Y0076518D02*
X0222225Y0076518D01*
X0221880Y0077117D02*
X0230050Y0077117D01*
X0230050Y0077715D02*
X0221534Y0077715D01*
X0221232Y0078314D02*
X0230282Y0078314D01*
X0230530Y0078912D02*
X0221071Y0078912D01*
X0220911Y0079511D02*
X0230777Y0079511D01*
X0231371Y0080109D02*
X0220751Y0080109D01*
X0220590Y0080708D02*
X0231970Y0080708D01*
X0233187Y0081306D02*
X0220430Y0081306D01*
X0215858Y0080109D02*
X0148612Y0080109D01*
X0149061Y0079511D02*
X0216018Y0079511D01*
X0216179Y0078912D02*
X0149385Y0078912D01*
X0149615Y0078314D02*
X0216339Y0078314D01*
X0216500Y0077715D02*
X0149767Y0077715D01*
X0149850Y0077117D02*
X0216660Y0077117D01*
X0216820Y0076518D02*
X0145150Y0076518D01*
X0145150Y0076500D02*
X0145150Y0077100D01*
X0144550Y0077100D01*
X0144550Y0081800D01*
X0144456Y0081800D01*
X0143679Y0081677D01*
X0142931Y0081434D01*
X0142229Y0081076D01*
X0141593Y0080614D01*
X0141036Y0080057D01*
X0140574Y0079421D01*
X0140216Y0078719D01*
X0139973Y0077971D01*
X0139850Y0077194D01*
X0139850Y0077100D01*
X0144550Y0077100D01*
X0144550Y0076500D01*
X0145150Y0076500D01*
X0149850Y0076500D01*
X0149850Y0076406D01*
X0149727Y0075629D01*
X0149484Y0074881D01*
X0149126Y0074179D01*
X0148664Y0073543D01*
X0148107Y0072986D01*
X0147471Y0072524D01*
X0146769Y0072166D01*
X0146021Y0071923D01*
X0145244Y0071800D01*
X0145150Y0071800D01*
X0145150Y0076500D01*
X0145150Y0075920D02*
X0144550Y0075920D01*
X0144550Y0076500D02*
X0144550Y0071800D01*
X0144456Y0071800D01*
X0143679Y0071923D01*
X0142931Y0072166D01*
X0142229Y0072524D01*
X0141593Y0072986D01*
X0141036Y0073543D01*
X0140574Y0074179D01*
X0140216Y0074881D01*
X0139973Y0075629D01*
X0139850Y0076406D01*
X0139850Y0076500D01*
X0144550Y0076500D01*
X0144550Y0076518D02*
X0134747Y0076518D01*
X0134907Y0075920D02*
X0139927Y0075920D01*
X0140073Y0075321D02*
X0135186Y0075321D01*
X0135532Y0074723D02*
X0140297Y0074723D01*
X0140614Y0074124D02*
X0135877Y0074124D01*
X0136223Y0073526D02*
X0141053Y0073526D01*
X0141674Y0072927D02*
X0136720Y0072927D01*
X0137319Y0072329D02*
X0142612Y0072329D01*
X0142765Y0071132D02*
X0138647Y0071132D01*
X0137917Y0071730D02*
X0219625Y0071730D01*
X0219187Y0072329D02*
X0147088Y0072329D01*
X0148026Y0072927D02*
X0218842Y0072927D01*
X0218496Y0073526D02*
X0148647Y0073526D01*
X0149086Y0074124D02*
X0218151Y0074124D01*
X0217805Y0074723D02*
X0149403Y0074723D01*
X0149627Y0075321D02*
X0217459Y0075321D01*
X0217114Y0075920D02*
X0149773Y0075920D01*
X0145150Y0075321D02*
X0144550Y0075321D01*
X0144550Y0074723D02*
X0145150Y0074723D01*
X0145150Y0074124D02*
X0144550Y0074124D01*
X0144550Y0073526D02*
X0145150Y0073526D01*
X0145150Y0072927D02*
X0144550Y0072927D01*
X0144550Y0072329D02*
X0145150Y0072329D01*
X0146935Y0071132D02*
X0220224Y0071132D01*
X0220822Y0070533D02*
X0147905Y0070533D01*
X0148503Y0069935D02*
X0221421Y0069935D01*
X0222019Y0069336D02*
X0148995Y0069336D01*
X0149243Y0068738D02*
X0222618Y0068738D01*
X0223000Y0068356D02*
X0223000Y0068356D01*
X0223375Y0068139D02*
X0149491Y0068139D01*
X0149650Y0067541D02*
X0224412Y0067541D01*
X0225449Y0066942D02*
X0149650Y0066942D01*
X0149650Y0066344D02*
X0226485Y0066344D01*
X0227662Y0065745D02*
X0149609Y0065745D01*
X0149361Y0065147D02*
X0229896Y0065147D01*
X0230587Y0064548D02*
X0149113Y0064548D01*
X0148788Y0063950D02*
X0230912Y0063950D01*
X0231511Y0063351D02*
X0148189Y0063351D01*
X0147963Y0062753D02*
X0232109Y0062753D01*
X0233523Y0062154D02*
X0148309Y0062154D01*
X0148654Y0061556D02*
X0271250Y0061556D01*
X0271250Y0062154D02*
X0236177Y0062154D01*
X0237766Y0072927D02*
X0253374Y0072927D01*
X0254819Y0073526D02*
X0238364Y0073526D01*
X0246779Y0084299D02*
X0251451Y0084299D01*
X0251699Y0084898D02*
X0247454Y0084898D01*
X0248129Y0085496D02*
X0252138Y0085496D01*
X0252737Y0086095D02*
X0248805Y0086095D01*
X0249480Y0086693D02*
X0253341Y0086693D01*
X0254786Y0087292D02*
X0250155Y0087292D01*
X0250831Y0087890D02*
X0271250Y0087890D01*
X0271250Y0087292D02*
X0257994Y0087292D01*
X0259439Y0086693D02*
X0271250Y0086693D01*
X0271250Y0086095D02*
X0260043Y0086095D01*
X0260642Y0085496D02*
X0271250Y0085496D01*
X0271250Y0084898D02*
X0261081Y0084898D01*
X0261329Y0084299D02*
X0271250Y0084299D01*
X0271250Y0083701D02*
X0261577Y0083701D01*
X0261790Y0083102D02*
X0271250Y0083102D01*
X0271250Y0082503D02*
X0261790Y0082503D01*
X0261790Y0081905D02*
X0271250Y0081905D01*
X0271250Y0081306D02*
X0261790Y0081306D01*
X0261654Y0080708D02*
X0271250Y0080708D01*
X0271250Y0080109D02*
X0261406Y0080109D01*
X0261158Y0079511D02*
X0271250Y0079511D01*
X0271250Y0078912D02*
X0260828Y0078912D01*
X0260229Y0078314D02*
X0271250Y0078314D01*
X0271250Y0077715D02*
X0259631Y0077715D01*
X0258444Y0077117D02*
X0271250Y0077117D01*
X0271250Y0088489D02*
X0251506Y0088489D01*
X0252181Y0089087D02*
X0271250Y0089087D01*
X0271250Y0089686D02*
X0252856Y0089686D01*
X0253532Y0090284D02*
X0271250Y0090284D01*
X0271250Y0090883D02*
X0258410Y0090883D01*
X0259617Y0091481D02*
X0271250Y0091481D01*
X0271250Y0092080D02*
X0260216Y0092080D01*
X0260814Y0092678D02*
X0271250Y0092678D01*
X0271250Y0093277D02*
X0261152Y0093277D01*
X0261400Y0093875D02*
X0271250Y0093875D01*
X0271250Y0094474D02*
X0261648Y0094474D01*
X0261790Y0095072D02*
X0271250Y0095072D01*
X0271250Y0095671D02*
X0261790Y0095671D01*
X0261790Y0096269D02*
X0271250Y0096269D01*
X0271250Y0096868D02*
X0261790Y0096868D01*
X0261582Y0097466D02*
X0271250Y0097466D01*
X0271250Y0098065D02*
X0261334Y0098065D01*
X0261086Y0098663D02*
X0271250Y0098663D01*
X0271250Y0099262D02*
X0260656Y0099262D01*
X0260057Y0099860D02*
X0271250Y0099860D01*
X0271250Y0100459D02*
X0259459Y0100459D01*
X0258027Y0101057D02*
X0271250Y0101057D01*
X0254370Y0090883D02*
X0254207Y0090883D01*
X0253777Y0114823D02*
X0254719Y0114823D01*
X0243787Y0116619D02*
X0240853Y0116619D01*
X0241651Y0117199D02*
X0241651Y0117199D01*
X0241651Y0117199D01*
X0241665Y0117217D02*
X0243873Y0117217D01*
X0243920Y0117816D02*
X0242099Y0117816D01*
X0242534Y0118414D02*
X0243950Y0118414D01*
X0243950Y0119013D02*
X0242969Y0119013D01*
X0243404Y0119611D02*
X0243950Y0119611D01*
X0243950Y0120210D02*
X0243607Y0120210D01*
X0243802Y0120808D02*
X0243950Y0120808D01*
X0243592Y0116020D02*
X0240029Y0116020D01*
X0238513Y0120808D02*
X0237630Y0120808D01*
X0238948Y0121407D02*
X0236271Y0121407D01*
X0235817Y0122005D02*
X0239291Y0122005D01*
X0239485Y0122604D02*
X0237262Y0122604D01*
X0238040Y0123202D02*
X0239680Y0123202D01*
X0239734Y0123801D02*
X0238639Y0123801D01*
X0239051Y0124399D02*
X0239750Y0124399D01*
X0239750Y0124998D02*
X0239299Y0124998D01*
X0239547Y0125596D02*
X0239750Y0125596D01*
X0239750Y0126195D02*
X0239650Y0126195D01*
X0239650Y0126793D02*
X0239750Y0126793D01*
X0239750Y0127392D02*
X0239650Y0127392D01*
X0239552Y0127990D02*
X0239750Y0127990D01*
X0239750Y0128589D02*
X0239305Y0128589D01*
X0239057Y0129187D02*
X0239750Y0129187D01*
X0239750Y0129786D02*
X0238652Y0129786D01*
X0238054Y0130384D02*
X0239750Y0130384D01*
X0239750Y0130983D02*
X0237295Y0130983D01*
X0235850Y0131581D02*
X0239750Y0131581D01*
X0239750Y0132180D02*
X0236239Y0132180D01*
X0235805Y0132000D02*
X0237569Y0132731D01*
X0238919Y0134081D01*
X0239650Y0135845D01*
X0239650Y0137755D01*
X0238919Y0139519D01*
X0237569Y0140869D01*
X0235805Y0141600D01*
X0233895Y0141600D01*
X0232131Y0140869D01*
X0230781Y0139519D01*
X0230050Y0137755D01*
X0230050Y0135845D01*
X0230781Y0134081D01*
X0232131Y0132731D01*
X0233895Y0132000D01*
X0235805Y0132000D01*
X0237617Y0132778D02*
X0239750Y0132778D01*
X0239750Y0133377D02*
X0238215Y0133377D01*
X0238814Y0133975D02*
X0239750Y0133975D01*
X0239750Y0134574D02*
X0239123Y0134574D01*
X0239371Y0135172D02*
X0239750Y0135172D01*
X0239750Y0135771D02*
X0239619Y0135771D01*
X0239650Y0136370D02*
X0239750Y0136370D01*
X0239750Y0136968D02*
X0239650Y0136968D01*
X0239650Y0137567D02*
X0239750Y0137567D01*
X0239750Y0138165D02*
X0239480Y0138165D01*
X0239232Y0138764D02*
X0239750Y0138764D01*
X0239885Y0139362D02*
X0238984Y0139362D01*
X0238478Y0139961D02*
X0240045Y0139961D01*
X0240205Y0140559D02*
X0237879Y0140559D01*
X0236873Y0141158D02*
X0240366Y0141158D01*
X0240526Y0141756D02*
X0213826Y0141756D01*
X0214114Y0141158D02*
X0232827Y0141158D01*
X0231821Y0140559D02*
X0214402Y0140559D01*
X0214690Y0139961D02*
X0231222Y0139961D01*
X0230716Y0139362D02*
X0215091Y0139362D01*
X0215568Y0138764D02*
X0230468Y0138764D01*
X0230220Y0138165D02*
X0216045Y0138165D01*
X0216523Y0137567D02*
X0230050Y0137567D01*
X0230050Y0136968D02*
X0217000Y0136968D01*
X0217477Y0136370D02*
X0230050Y0136370D01*
X0230081Y0135771D02*
X0217955Y0135771D01*
X0218693Y0135172D02*
X0230329Y0135172D01*
X0230577Y0134574D02*
X0219444Y0134574D01*
X0220194Y0133975D02*
X0230886Y0133975D01*
X0231485Y0133377D02*
X0220945Y0133377D01*
X0221695Y0132778D02*
X0232083Y0132778D01*
X0233461Y0132180D02*
X0222773Y0132180D01*
X0224016Y0131581D02*
X0233850Y0131581D01*
X0232405Y0130983D02*
X0225259Y0130983D01*
X0226501Y0130384D02*
X0231646Y0130384D01*
X0231048Y0129786D02*
X0229098Y0129786D01*
X0244350Y0130983D02*
X0244463Y0130983D01*
X0244350Y0131581D02*
X0244657Y0131581D01*
X0244852Y0132180D02*
X0244350Y0132180D01*
X0244350Y0132778D02*
X0245046Y0132778D01*
X0245128Y0133029D02*
X0245128Y0133029D01*
X0245380Y0133377D02*
X0244350Y0133377D01*
X0244350Y0133975D02*
X0245815Y0133975D01*
X0246250Y0134574D02*
X0244350Y0134574D01*
X0244350Y0135172D02*
X0246685Y0135172D01*
X0247120Y0135771D02*
X0244350Y0135771D01*
X0244350Y0136370D02*
X0247722Y0136370D01*
X0247367Y0136112D02*
X0247367Y0136112D01*
X0247367Y0136112D01*
X0248545Y0136968D02*
X0244370Y0136968D01*
X0244409Y0137567D02*
X0249369Y0137567D01*
X0250193Y0138165D02*
X0244448Y0138165D01*
X0244593Y0138764D02*
X0251181Y0138764D01*
X0251429Y0139362D02*
X0244754Y0139362D01*
X0244914Y0139961D02*
X0251676Y0139961D01*
X0252083Y0140559D02*
X0245074Y0140559D01*
X0245235Y0141158D02*
X0252682Y0141158D01*
X0253280Y0141756D02*
X0245543Y0141756D01*
X0245889Y0142355D02*
X0254653Y0142355D01*
X0258127Y0142355D02*
X0271250Y0142355D01*
X0271250Y0142953D02*
X0246235Y0142953D01*
X0246580Y0143552D02*
X0271250Y0143552D01*
X0271250Y0144150D02*
X0246990Y0144150D01*
X0247588Y0144749D02*
X0271250Y0144749D01*
X0271250Y0145347D02*
X0248187Y0145347D01*
X0248785Y0145946D02*
X0254503Y0145946D01*
X0253218Y0146544D02*
X0249621Y0146544D01*
X0250657Y0147143D02*
X0252619Y0147143D01*
X0252021Y0147741D02*
X0251694Y0147741D01*
X0248508Y0151332D02*
X0243190Y0151332D01*
X0244014Y0151931D02*
X0249545Y0151931D01*
X0249967Y0152175D02*
X0249967Y0152175D01*
X0251175Y0152529D02*
X0244838Y0152529D01*
X0245661Y0153128D02*
X0251423Y0153128D01*
X0251671Y0153726D02*
X0246115Y0153726D01*
X0245701Y0153157D02*
X0245701Y0153157D01*
X0245701Y0153157D01*
X0246550Y0154325D02*
X0252069Y0154325D01*
X0252668Y0154923D02*
X0246985Y0154923D01*
X0247420Y0155522D02*
X0253266Y0155522D01*
X0254620Y0156120D02*
X0247854Y0156120D01*
X0248144Y0156719D02*
X0271250Y0156719D01*
X0271250Y0157317D02*
X0248339Y0157317D01*
X0248533Y0157916D02*
X0271250Y0157916D01*
X0271250Y0158514D02*
X0248728Y0158514D01*
X0248922Y0159113D02*
X0271250Y0159113D01*
X0271250Y0159711D02*
X0258244Y0159711D01*
X0259548Y0160310D02*
X0271250Y0160310D01*
X0271250Y0160908D02*
X0260147Y0160908D01*
X0260745Y0161507D02*
X0271250Y0161507D01*
X0271250Y0162105D02*
X0261124Y0162105D01*
X0261372Y0162704D02*
X0271250Y0162704D01*
X0271250Y0163303D02*
X0261619Y0163303D01*
X0261790Y0163901D02*
X0271250Y0163901D01*
X0271250Y0164500D02*
X0261790Y0164500D01*
X0261790Y0165098D02*
X0271250Y0165098D01*
X0271250Y0165697D02*
X0261790Y0165697D01*
X0261611Y0166295D02*
X0271250Y0166295D01*
X0271250Y0166894D02*
X0261363Y0166894D01*
X0261115Y0167492D02*
X0271250Y0167492D01*
X0271250Y0168091D02*
X0260724Y0168091D01*
X0260126Y0168689D02*
X0271250Y0168689D01*
X0271250Y0169288D02*
X0259527Y0169288D01*
X0258194Y0169886D02*
X0271250Y0169886D01*
X0271250Y0170485D02*
X0224100Y0170485D01*
X0223642Y0171083D02*
X0271250Y0171083D01*
X0271250Y0171682D02*
X0222912Y0171682D01*
X0221954Y0172280D02*
X0271250Y0172280D01*
X0271250Y0172879D02*
X0220995Y0172879D01*
X0224559Y0169886D02*
X0254586Y0169886D01*
X0253253Y0169288D02*
X0225017Y0169288D01*
X0225476Y0168689D02*
X0252654Y0168689D01*
X0252056Y0168091D02*
X0225700Y0168091D01*
X0225882Y0167492D02*
X0251665Y0167492D01*
X0248176Y0166894D02*
X0228357Y0166894D01*
X0228713Y0166295D02*
X0246779Y0166295D01*
X0246180Y0165697D02*
X0228713Y0165697D01*
X0228713Y0165098D02*
X0245582Y0165098D01*
X0245233Y0164500D02*
X0228713Y0164500D01*
X0228713Y0163901D02*
X0244985Y0163901D01*
X0244737Y0163303D02*
X0228713Y0163303D01*
X0228713Y0162704D02*
X0244650Y0162704D01*
X0244650Y0162105D02*
X0228713Y0162105D01*
X0228713Y0161507D02*
X0244603Y0161507D01*
X0244556Y0160908D02*
X0228713Y0160908D01*
X0228713Y0160310D02*
X0244372Y0160310D01*
X0244178Y0159711D02*
X0228713Y0159711D01*
X0228500Y0159113D02*
X0243983Y0159113D01*
X0242918Y0157317D02*
X0176044Y0157317D01*
X0178082Y0156719D02*
X0242483Y0156719D01*
X0241789Y0156120D02*
X0228106Y0156120D01*
X0228705Y0155522D02*
X0240965Y0155522D01*
X0239895Y0154923D02*
X0228713Y0154923D01*
X0228713Y0154325D02*
X0238053Y0154325D01*
X0240359Y0150135D02*
X0246435Y0150135D01*
X0245725Y0149537D02*
X0228713Y0149537D01*
X0228713Y0148938D02*
X0245127Y0148938D01*
X0244528Y0148340D02*
X0228713Y0148340D01*
X0228152Y0147741D02*
X0243930Y0147741D01*
X0243331Y0147143D02*
X0211953Y0147143D01*
X0212090Y0146544D02*
X0242877Y0146544D01*
X0243075Y0146886D02*
X0243075Y0146886D01*
X0242532Y0145946D02*
X0212226Y0145946D01*
X0212363Y0145347D02*
X0242186Y0145347D01*
X0241841Y0144749D02*
X0212500Y0144749D01*
X0212673Y0144150D02*
X0241495Y0144150D01*
X0241150Y0143552D02*
X0212961Y0143552D01*
X0213249Y0142953D02*
X0240847Y0142953D01*
X0240687Y0142355D02*
X0213537Y0142355D01*
X0213232Y0147741D02*
X0219988Y0147741D01*
X0219427Y0148340D02*
X0213673Y0148340D01*
X0213673Y0148938D02*
X0219427Y0148938D01*
X0219427Y0154325D02*
X0213673Y0154325D01*
X0213673Y0154923D02*
X0219427Y0154923D01*
X0219435Y0155522D02*
X0213545Y0155522D01*
X0209330Y0158514D02*
X0208730Y0158514D01*
X0209330Y0162704D02*
X0219427Y0162704D01*
X0220034Y0156120D02*
X0180121Y0156120D01*
X0167265Y0154325D02*
X0159967Y0154325D01*
X0161003Y0154923D02*
X0163102Y0154923D01*
X0166464Y0145347D02*
X0170024Y0145347D01*
X0173802Y0144749D02*
X0165428Y0144749D01*
X0164391Y0144150D02*
X0177033Y0144150D01*
X0178875Y0143552D02*
X0163354Y0143552D01*
X0162318Y0142953D02*
X0180717Y0142953D01*
X0182559Y0142355D02*
X0161281Y0142355D01*
X0161239Y0142355D02*
X0143557Y0142355D01*
X0142827Y0141158D02*
X0140444Y0141158D01*
X0141222Y0139961D02*
X0137527Y0139961D01*
X0138985Y0140559D02*
X0141821Y0140559D01*
X0141902Y0141756D02*
X0184297Y0141756D01*
X0185471Y0141158D02*
X0146873Y0141158D01*
X0147879Y0140559D02*
X0186646Y0140559D01*
X0187820Y0139961D02*
X0148478Y0139961D01*
X0148984Y0139362D02*
X0188995Y0139362D01*
X0190170Y0138764D02*
X0149232Y0138764D01*
X0149480Y0138165D02*
X0191311Y0138165D01*
X0192135Y0137567D02*
X0149650Y0137567D01*
X0149650Y0136968D02*
X0192959Y0136968D01*
X0193782Y0136370D02*
X0149650Y0136370D01*
X0149619Y0135771D02*
X0194606Y0135771D01*
X0195430Y0135172D02*
X0149371Y0135172D01*
X0149123Y0134574D02*
X0196254Y0134574D01*
X0197077Y0133975D02*
X0148814Y0133975D01*
X0140716Y0139362D02*
X0136068Y0139362D01*
X0134856Y0138764D02*
X0140468Y0138764D01*
X0140220Y0138165D02*
X0133787Y0138165D01*
X0132718Y0137567D02*
X0140050Y0137567D01*
X0140050Y0136968D02*
X0131649Y0136968D01*
X0130580Y0136370D02*
X0140050Y0136370D01*
X0140081Y0135771D02*
X0129512Y0135771D01*
X0121899Y0129187D02*
X0116150Y0129187D01*
X0116150Y0128589D02*
X0120851Y0128589D01*
X0120252Y0127990D02*
X0116150Y0127990D01*
X0116150Y0127392D02*
X0119728Y0127392D01*
X0119480Y0126793D02*
X0116150Y0126793D01*
X0116150Y0126195D02*
X0119232Y0126195D01*
X0119050Y0125596D02*
X0116150Y0125596D01*
X0116150Y0124998D02*
X0119050Y0124998D01*
X0119050Y0124399D02*
X0116150Y0124399D01*
X0116150Y0123801D02*
X0119068Y0123801D01*
X0119316Y0123202D02*
X0116150Y0123202D01*
X0116150Y0122604D02*
X0119564Y0122604D01*
X0119857Y0122005D02*
X0116150Y0122005D01*
X0116150Y0121407D02*
X0120455Y0121407D01*
X0121054Y0120808D02*
X0116150Y0120808D01*
X0116150Y0120210D02*
X0122389Y0120210D01*
X0122477Y0119611D02*
X0116150Y0119611D01*
X0116150Y0119013D02*
X0121142Y0119013D01*
X0120393Y0118414D02*
X0116150Y0118414D01*
X0116150Y0117816D02*
X0119861Y0117816D01*
X0119470Y0117217D02*
X0116150Y0117217D01*
X0116150Y0116619D02*
X0119184Y0116619D01*
X0118989Y0116020D02*
X0116150Y0116020D01*
X0116150Y0115422D02*
X0118886Y0115422D01*
X0121100Y0108838D02*
X0116150Y0108838D01*
X0116150Y0108239D02*
X0120501Y0108239D01*
X0119903Y0107641D02*
X0116150Y0107641D01*
X0116150Y0107042D02*
X0119583Y0107042D01*
X0119335Y0106444D02*
X0116150Y0106444D01*
X0116150Y0105845D02*
X0119088Y0105845D01*
X0119050Y0105247D02*
X0116150Y0105247D01*
X0116150Y0104648D02*
X0119050Y0104648D01*
X0119050Y0104050D02*
X0116150Y0104050D01*
X0116150Y0103451D02*
X0119213Y0103451D01*
X0119461Y0102853D02*
X0116150Y0102853D01*
X0116150Y0102254D02*
X0119709Y0102254D01*
X0120206Y0101656D02*
X0116150Y0101656D01*
X0116150Y0101057D02*
X0120804Y0101057D01*
X0121787Y0100459D02*
X0116150Y0100459D01*
X0118314Y0091481D02*
X0119576Y0091481D01*
X0132379Y0102254D02*
X0143281Y0102254D01*
X0142009Y0102853D02*
X0131996Y0102853D01*
X0131613Y0103451D02*
X0141410Y0103451D01*
X0141297Y0110035D02*
X0141134Y0110035D01*
X0140413Y0110634D02*
X0141895Y0110634D01*
X0143007Y0111232D02*
X0139978Y0111232D01*
X0139609Y0111831D02*
X0212472Y0111831D01*
X0248812Y0129187D02*
X0271250Y0129187D01*
X0271250Y0129786D02*
X0249007Y0129786D01*
X0249201Y0130384D02*
X0271250Y0130384D01*
X0271250Y0130983D02*
X0249440Y0130983D01*
X0249875Y0131581D02*
X0271250Y0131581D01*
X0271250Y0132180D02*
X0258311Y0132180D01*
X0259576Y0132778D02*
X0271250Y0132778D01*
X0271250Y0133377D02*
X0260174Y0133377D01*
X0260773Y0133975D02*
X0271250Y0133975D01*
X0271250Y0134574D02*
X0261135Y0134574D01*
X0261383Y0135172D02*
X0271250Y0135172D01*
X0271250Y0135771D02*
X0261631Y0135771D01*
X0261790Y0136370D02*
X0271250Y0136370D01*
X0271250Y0136968D02*
X0261790Y0136968D01*
X0261790Y0137567D02*
X0271250Y0137567D01*
X0271250Y0138165D02*
X0261790Y0138165D01*
X0261599Y0138764D02*
X0271250Y0138764D01*
X0271250Y0139362D02*
X0261351Y0139362D01*
X0261104Y0139961D02*
X0271250Y0139961D01*
X0271250Y0140559D02*
X0260697Y0140559D01*
X0260098Y0141158D02*
X0271250Y0141158D01*
X0271250Y0141756D02*
X0259500Y0141756D01*
X0258277Y0145946D02*
X0271250Y0145946D01*
X0271250Y0146544D02*
X0259562Y0146544D01*
X0260161Y0147143D02*
X0271250Y0147143D01*
X0271250Y0147741D02*
X0260759Y0147741D01*
X0261129Y0148340D02*
X0271250Y0148340D01*
X0271250Y0148938D02*
X0261377Y0148938D01*
X0261625Y0149537D02*
X0271250Y0149537D01*
X0271250Y0150135D02*
X0261790Y0150135D01*
X0261790Y0150734D02*
X0271250Y0150734D01*
X0271250Y0151332D02*
X0261790Y0151332D01*
X0261790Y0151931D02*
X0271250Y0151931D01*
X0271250Y0152529D02*
X0261605Y0152529D01*
X0261357Y0153128D02*
X0271250Y0153128D01*
X0271250Y0153726D02*
X0261109Y0153726D01*
X0260711Y0154325D02*
X0271250Y0154325D01*
X0271250Y0154923D02*
X0260112Y0154923D01*
X0259514Y0155522D02*
X0271250Y0155522D01*
X0271250Y0156120D02*
X0258160Y0156120D01*
X0254536Y0159711D02*
X0249117Y0159711D01*
X0249250Y0160310D02*
X0253232Y0160310D01*
X0252633Y0160908D02*
X0249250Y0160908D01*
X0249250Y0161507D02*
X0252035Y0161507D01*
X0251656Y0162105D02*
X0249251Y0162105D01*
X0247471Y0150734D02*
X0242201Y0150734D01*
X0250450Y0138352D02*
X0250450Y0138352D01*
X0251584Y0133377D02*
X0252606Y0133377D01*
X0253204Y0132778D02*
X0250761Y0132778D01*
X0250309Y0132180D02*
X0254469Y0132180D01*
X0209330Y0163303D02*
X0208730Y0163303D01*
X0208730Y0163901D02*
X0209330Y0163901D01*
X0209330Y0164500D02*
X0208730Y0164500D01*
X0208730Y0165098D02*
X0209330Y0165098D01*
X0209330Y0165697D02*
X0208730Y0165697D01*
X0208730Y0166295D02*
X0209330Y0166295D01*
X0209330Y0166894D02*
X0208730Y0166894D01*
X0160173Y0142953D02*
X0145733Y0142953D01*
X0147910Y0143552D02*
X0159828Y0143552D01*
X0159482Y0144150D02*
X0150086Y0144150D01*
X0153589Y0144749D02*
X0159137Y0144749D01*
X0158791Y0145347D02*
X0157622Y0145347D01*
X0130556Y0121407D02*
X0127245Y0121407D01*
X0127843Y0122005D02*
X0129203Y0122005D01*
X0131264Y0120808D02*
X0126646Y0120808D01*
X0125311Y0120210D02*
X0131971Y0120210D01*
X0138974Y0116619D02*
X0140050Y0116619D01*
X0140050Y0116020D02*
X0139137Y0116020D01*
X0139210Y0115422D02*
X0140225Y0115422D01*
X0140473Y0114823D02*
X0139189Y0114823D01*
X0139167Y0114225D02*
X0140721Y0114225D01*
X0141236Y0113626D02*
X0139164Y0113626D01*
X0139220Y0113028D02*
X0141834Y0113028D01*
X0142859Y0112429D02*
X0139414Y0112429D01*
X0142681Y0081306D02*
X0134150Y0081306D01*
X0134150Y0080708D02*
X0141722Y0080708D01*
X0141088Y0080109D02*
X0134150Y0080109D01*
X0134169Y0079511D02*
X0140639Y0079511D01*
X0140315Y0078912D02*
X0134208Y0078912D01*
X0134266Y0078314D02*
X0140085Y0078314D01*
X0139933Y0077715D02*
X0134426Y0077715D01*
X0134586Y0077117D02*
X0139850Y0077117D01*
X0144550Y0077117D02*
X0145150Y0077117D01*
X0145150Y0077715D02*
X0144550Y0077715D01*
X0144550Y0078314D02*
X0145150Y0078314D01*
X0145150Y0078912D02*
X0144550Y0078912D01*
X0144550Y0079511D02*
X0145150Y0079511D01*
X0145150Y0080109D02*
X0144550Y0080109D01*
X0144550Y0080708D02*
X0145150Y0080708D01*
X0145150Y0081306D02*
X0144550Y0081306D01*
X0147978Y0080708D02*
X0215698Y0080708D01*
X0216865Y0076350D02*
X0216865Y0076350D01*
X0252285Y0056768D02*
X0154812Y0056768D01*
X0153150Y0057366D02*
X0252824Y0057366D01*
X0253423Y0057965D02*
X0152113Y0057965D01*
X0151157Y0058563D02*
X0254389Y0058563D01*
X0258911Y0058563D02*
X0271250Y0058563D01*
X0271250Y0057965D02*
X0259877Y0057965D01*
X0260476Y0057366D02*
X0271250Y0057366D01*
X0271250Y0056768D02*
X0261015Y0056768D01*
X0261263Y0056169D02*
X0271250Y0056169D01*
X0271250Y0055570D02*
X0261511Y0055570D01*
X0261750Y0054972D02*
X0271250Y0054972D01*
X0271250Y0054373D02*
X0261750Y0054373D01*
X0261750Y0053775D02*
X0271250Y0053775D01*
X0271250Y0053176D02*
X0261750Y0053176D01*
X0261590Y0052578D02*
X0271250Y0052578D01*
X0271250Y0051979D02*
X0261342Y0051979D01*
X0261094Y0051381D02*
X0271250Y0051381D01*
X0271250Y0050782D02*
X0260665Y0050782D01*
X0260067Y0050184D02*
X0271250Y0050184D01*
X0271250Y0049585D02*
X0259369Y0049585D01*
X0257924Y0048987D02*
X0271250Y0048987D01*
X0271250Y0048388D02*
X0130837Y0048388D01*
X0130950Y0047790D02*
X0271250Y0047790D01*
X0271250Y0047191D02*
X0130950Y0047191D01*
X0130950Y0046593D02*
X0271250Y0046593D01*
X0271250Y0045994D02*
X0130747Y0045994D01*
X0130499Y0045396D02*
X0271250Y0045396D01*
X0271250Y0044797D02*
X0261608Y0044797D01*
X0261750Y0044656D02*
X0261106Y0045300D01*
X0252194Y0045300D01*
X0251550Y0044656D01*
X0251550Y0042500D01*
X0156868Y0042500D01*
X0151640Y0041307D01*
X0151640Y0041307D01*
X0146808Y0038980D01*
X0146808Y0038980D01*
X0142614Y0035636D01*
X0139270Y0031442D01*
X0138469Y0029779D01*
X0137053Y0032231D01*
X0137053Y0032231D01*
X0133981Y0035303D01*
X0130950Y0037053D01*
X0130950Y0037116D01*
X0130326Y0038622D01*
X0129172Y0039776D01*
X0127666Y0040400D01*
X0120034Y0040400D01*
X0118528Y0039776D01*
X0117374Y0038622D01*
X0116750Y0037116D01*
X0116750Y0035484D01*
X0117374Y0033978D01*
X0118528Y0032824D01*
X0120034Y0032200D01*
X0127666Y0032200D01*
X0128997Y0032752D01*
X0131094Y0031541D01*
X0133291Y0029344D01*
X0134844Y0026654D01*
X0135648Y0023653D01*
X0135696Y0022920D01*
X0135331Y0022769D01*
X0133981Y0021419D01*
X0133250Y0019655D01*
X0133250Y0017745D01*
X0133981Y0015981D01*
X0135331Y0014631D01*
X0137095Y0013900D01*
X0139005Y0013900D01*
X0140769Y0014631D01*
X0142119Y0015981D01*
X0142850Y0017745D01*
X0142850Y0019655D01*
X0142119Y0021419D01*
X0140883Y0022655D01*
X0141427Y0025041D01*
X0143293Y0028915D01*
X0145974Y0032276D01*
X0149335Y0034957D01*
X0153209Y0036823D01*
X0157400Y0037779D01*
X0159550Y0037900D01*
X0251550Y0037900D01*
X0251550Y0035744D01*
X0252194Y0035100D01*
X0261106Y0035100D01*
X0261750Y0035744D01*
X0261750Y0044656D01*
X0261750Y0044199D02*
X0271250Y0044199D01*
X0271250Y0043600D02*
X0261750Y0043600D01*
X0261750Y0043002D02*
X0271250Y0043002D01*
X0271250Y0042403D02*
X0261750Y0042403D01*
X0261750Y0041805D02*
X0271250Y0041805D01*
X0271250Y0041206D02*
X0261750Y0041206D01*
X0261750Y0040608D02*
X0271250Y0040608D01*
X0271250Y0040009D02*
X0261750Y0040009D01*
X0261750Y0039411D02*
X0271250Y0039411D01*
X0271250Y0038812D02*
X0261750Y0038812D01*
X0261750Y0038214D02*
X0271250Y0038214D01*
X0271250Y0037615D02*
X0261750Y0037615D01*
X0261750Y0037017D02*
X0271250Y0037017D01*
X0271250Y0036418D02*
X0261750Y0036418D01*
X0261750Y0035820D02*
X0271250Y0035820D01*
X0271250Y0035221D02*
X0261227Y0035221D01*
X0252073Y0035221D02*
X0149883Y0035221D01*
X0148916Y0034623D02*
X0271250Y0034623D01*
X0271250Y0034024D02*
X0148165Y0034024D01*
X0147414Y0033426D02*
X0271250Y0033426D01*
X0271250Y0032827D02*
X0146664Y0032827D01*
X0145935Y0032229D02*
X0271250Y0032229D01*
X0271250Y0031630D02*
X0145458Y0031630D01*
X0144981Y0031032D02*
X0271250Y0031032D01*
X0271250Y0030433D02*
X0144503Y0030433D01*
X0144026Y0029834D02*
X0271250Y0029834D01*
X0271250Y0029236D02*
X0143549Y0029236D01*
X0143159Y0028637D02*
X0271250Y0028637D01*
X0271250Y0028039D02*
X0142871Y0028039D01*
X0142583Y0027440D02*
X0271250Y0027440D01*
X0271250Y0026842D02*
X0142295Y0026842D01*
X0142006Y0026243D02*
X0271250Y0026243D01*
X0271250Y0025645D02*
X0141718Y0025645D01*
X0141430Y0025046D02*
X0271250Y0025046D01*
X0271250Y0024448D02*
X0141292Y0024448D01*
X0141155Y0023849D02*
X0181152Y0023849D01*
X0182238Y0024299D02*
X0179445Y0023142D01*
X0177308Y0021005D01*
X0176151Y0018212D01*
X0176151Y0015188D01*
X0177308Y0012395D01*
X0179445Y0010258D01*
X0182238Y0009101D01*
X0185262Y0009101D01*
X0188055Y0010258D01*
X0190192Y0012395D01*
X0191349Y0015188D01*
X0191349Y0018212D01*
X0190192Y0021005D01*
X0188055Y0023142D01*
X0185262Y0024299D01*
X0182238Y0024299D01*
X0179708Y0023251D02*
X0150306Y0023251D01*
X0149705Y0023500D02*
X0147795Y0023500D01*
X0146031Y0022769D01*
X0144681Y0021419D01*
X0143950Y0019655D01*
X0143950Y0017745D01*
X0144681Y0015981D01*
X0146031Y0014631D01*
X0147795Y0013900D01*
X0149705Y0013900D01*
X0151469Y0014631D01*
X0152819Y0015981D01*
X0153550Y0017745D01*
X0153550Y0019655D01*
X0152819Y0021419D01*
X0151469Y0022769D01*
X0149705Y0023500D01*
X0151586Y0022652D02*
X0178955Y0022652D01*
X0178357Y0022054D02*
X0152184Y0022054D01*
X0152783Y0021455D02*
X0177758Y0021455D01*
X0177246Y0020857D02*
X0153052Y0020857D01*
X0153300Y0020258D02*
X0176999Y0020258D01*
X0176751Y0019660D02*
X0153548Y0019660D01*
X0153550Y0019061D02*
X0176503Y0019061D01*
X0176255Y0018463D02*
X0153550Y0018463D01*
X0153550Y0017864D02*
X0176151Y0017864D01*
X0176151Y0017266D02*
X0153351Y0017266D01*
X0153103Y0016667D02*
X0176151Y0016667D01*
X0176151Y0016069D02*
X0152856Y0016069D01*
X0152308Y0015470D02*
X0176151Y0015470D01*
X0176282Y0014872D02*
X0151710Y0014872D01*
X0150606Y0014273D02*
X0176530Y0014273D01*
X0176778Y0013675D02*
X0112450Y0013675D01*
X0112450Y0014273D02*
X0125025Y0014273D01*
X0124729Y0014424D02*
X0125431Y0014066D01*
X0126179Y0013823D01*
X0126956Y0013700D01*
X0127050Y0013700D01*
X0127050Y0018400D01*
X0122350Y0018400D01*
X0122350Y0018306D01*
X0122473Y0017529D01*
X0122716Y0016781D01*
X0123074Y0016079D01*
X0123536Y0015443D01*
X0124093Y0014886D01*
X0124729Y0014424D01*
X0124113Y0014872D02*
X0112450Y0014872D01*
X0112450Y0015470D02*
X0123516Y0015470D01*
X0123081Y0016069D02*
X0112450Y0016069D01*
X0112450Y0016667D02*
X0122774Y0016667D01*
X0122559Y0017266D02*
X0112450Y0017266D01*
X0112450Y0017864D02*
X0122420Y0017864D01*
X0122350Y0019000D02*
X0127050Y0019000D01*
X0127050Y0023700D01*
X0126956Y0023700D01*
X0126179Y0023577D01*
X0125431Y0023334D01*
X0124729Y0022976D01*
X0124093Y0022514D01*
X0123536Y0021957D01*
X0123074Y0021321D01*
X0122716Y0020619D01*
X0122473Y0019871D01*
X0122350Y0019094D01*
X0122350Y0019000D01*
X0122350Y0019061D02*
X0112450Y0019061D01*
X0112450Y0018463D02*
X0127050Y0018463D01*
X0127050Y0018400D02*
X0127050Y0019000D01*
X0127650Y0019000D01*
X0127650Y0023700D01*
X0127744Y0023700D01*
X0128521Y0023577D01*
X0129269Y0023334D01*
X0129971Y0022976D01*
X0130607Y0022514D01*
X0131164Y0021957D01*
X0131626Y0021321D01*
X0131984Y0020619D01*
X0132227Y0019871D01*
X0132350Y0019094D01*
X0132350Y0019000D01*
X0127650Y0019000D01*
X0127650Y0018400D01*
X0132350Y0018400D01*
X0132350Y0018306D01*
X0132227Y0017529D01*
X0131984Y0016781D01*
X0131626Y0016079D01*
X0131164Y0015443D01*
X0130607Y0014886D01*
X0129971Y0014424D01*
X0129269Y0014066D01*
X0128521Y0013823D01*
X0127744Y0013700D01*
X0127650Y0013700D01*
X0127650Y0018400D01*
X0127050Y0018400D01*
X0127050Y0017864D02*
X0127650Y0017864D01*
X0127650Y0017266D02*
X0127050Y0017266D01*
X0127050Y0016667D02*
X0127650Y0016667D01*
X0127650Y0016069D02*
X0127050Y0016069D01*
X0127050Y0015470D02*
X0127650Y0015470D01*
X0127650Y0014872D02*
X0127050Y0014872D01*
X0127050Y0014273D02*
X0127650Y0014273D01*
X0129675Y0014273D02*
X0136194Y0014273D01*
X0135090Y0014872D02*
X0130587Y0014872D01*
X0131184Y0015470D02*
X0134492Y0015470D01*
X0133944Y0016069D02*
X0131619Y0016069D01*
X0131926Y0016667D02*
X0133697Y0016667D01*
X0133449Y0017266D02*
X0132141Y0017266D01*
X0132280Y0017864D02*
X0133250Y0017864D01*
X0133250Y0018463D02*
X0127650Y0018463D01*
X0127650Y0019061D02*
X0127050Y0019061D01*
X0127050Y0019660D02*
X0127650Y0019660D01*
X0127650Y0020258D02*
X0127050Y0020258D01*
X0127050Y0020857D02*
X0127650Y0020857D01*
X0127650Y0021455D02*
X0127050Y0021455D01*
X0127050Y0022054D02*
X0127650Y0022054D01*
X0127650Y0022652D02*
X0127050Y0022652D01*
X0127050Y0023251D02*
X0127650Y0023251D01*
X0129432Y0023251D02*
X0135675Y0023251D01*
X0135596Y0023849D02*
X0112450Y0023849D01*
X0112450Y0023251D02*
X0125268Y0023251D01*
X0124283Y0022652D02*
X0112450Y0022652D01*
X0112450Y0022054D02*
X0123633Y0022054D01*
X0123172Y0021455D02*
X0112450Y0021455D01*
X0112450Y0020857D02*
X0122837Y0020857D01*
X0122599Y0020258D02*
X0112450Y0020258D01*
X0112450Y0019660D02*
X0122440Y0019660D01*
X0130417Y0022652D02*
X0135214Y0022652D01*
X0134616Y0022054D02*
X0131067Y0022054D01*
X0131528Y0021455D02*
X0134017Y0021455D01*
X0133748Y0020857D02*
X0131863Y0020857D01*
X0132101Y0020258D02*
X0133500Y0020258D01*
X0133252Y0019660D02*
X0132260Y0019660D01*
X0132350Y0019061D02*
X0133250Y0019061D01*
X0135435Y0024448D02*
X0112450Y0024448D01*
X0112450Y0025046D02*
X0135275Y0025046D01*
X0135115Y0025645D02*
X0112450Y0025645D01*
X0112450Y0026243D02*
X0134954Y0026243D01*
X0134736Y0026842D02*
X0112450Y0026842D01*
X0112450Y0027440D02*
X0134390Y0027440D01*
X0134045Y0028039D02*
X0112450Y0028039D01*
X0112450Y0028637D02*
X0133699Y0028637D01*
X0133353Y0029236D02*
X0112450Y0029236D01*
X0112450Y0029834D02*
X0132801Y0029834D01*
X0132202Y0030433D02*
X0112450Y0030433D01*
X0112450Y0031032D02*
X0131604Y0031032D01*
X0130940Y0031630D02*
X0112450Y0031630D01*
X0112450Y0032229D02*
X0119966Y0032229D01*
X0118525Y0032827D02*
X0112450Y0032827D01*
X0112450Y0033426D02*
X0117926Y0033426D01*
X0117355Y0034024D02*
X0112450Y0034024D01*
X0112450Y0034623D02*
X0117107Y0034623D01*
X0116859Y0035221D02*
X0112450Y0035221D01*
X0112450Y0035820D02*
X0116750Y0035820D01*
X0116750Y0036418D02*
X0112450Y0036418D01*
X0112450Y0037017D02*
X0116750Y0037017D01*
X0116957Y0037615D02*
X0112450Y0037615D01*
X0112450Y0038214D02*
X0117205Y0038214D01*
X0117564Y0038812D02*
X0112450Y0038812D01*
X0112450Y0039411D02*
X0118162Y0039411D01*
X0119091Y0040009D02*
X0112450Y0040009D01*
X0112450Y0040608D02*
X0150188Y0040608D01*
X0148946Y0040009D02*
X0128609Y0040009D01*
X0129538Y0039411D02*
X0147703Y0039411D01*
X0146598Y0038812D02*
X0130136Y0038812D01*
X0130495Y0038214D02*
X0145847Y0038214D01*
X0145097Y0037615D02*
X0130743Y0037615D01*
X0131014Y0037017D02*
X0144346Y0037017D01*
X0143596Y0036418D02*
X0132050Y0036418D01*
X0133087Y0035820D02*
X0142845Y0035820D01*
X0142614Y0035636D02*
X0142614Y0035636D01*
X0142614Y0035636D01*
X0142284Y0035221D02*
X0134063Y0035221D01*
X0133981Y0035303D02*
X0133981Y0035303D01*
X0134662Y0034623D02*
X0141807Y0034623D01*
X0141329Y0034024D02*
X0135260Y0034024D01*
X0135859Y0033426D02*
X0140852Y0033426D01*
X0140375Y0032827D02*
X0136457Y0032827D01*
X0137055Y0032229D02*
X0139897Y0032229D01*
X0139420Y0031630D02*
X0137400Y0031630D01*
X0137746Y0031032D02*
X0139073Y0031032D01*
X0139270Y0031442D02*
X0139270Y0031442D01*
X0138784Y0030433D02*
X0138091Y0030433D01*
X0138437Y0029834D02*
X0138496Y0029834D01*
X0141019Y0023251D02*
X0147194Y0023251D01*
X0145914Y0022652D02*
X0140886Y0022652D01*
X0141484Y0022054D02*
X0145316Y0022054D01*
X0144717Y0021455D02*
X0142083Y0021455D01*
X0142352Y0020857D02*
X0144448Y0020857D01*
X0144200Y0020258D02*
X0142600Y0020258D01*
X0142848Y0019660D02*
X0143952Y0019660D01*
X0143950Y0019061D02*
X0142850Y0019061D01*
X0142850Y0018463D02*
X0143950Y0018463D01*
X0143950Y0017864D02*
X0142850Y0017864D01*
X0142651Y0017266D02*
X0144149Y0017266D01*
X0144397Y0016667D02*
X0142403Y0016667D01*
X0142156Y0016069D02*
X0144644Y0016069D01*
X0145192Y0015470D02*
X0141608Y0015470D01*
X0141010Y0014872D02*
X0145790Y0014872D01*
X0146894Y0014273D02*
X0139906Y0014273D01*
X0129903Y0032229D02*
X0127734Y0032229D01*
X0128632Y0043600D02*
X0251550Y0043600D01*
X0251550Y0043002D02*
X0112450Y0043002D01*
X0112450Y0043600D02*
X0119068Y0043600D01*
X0118153Y0044199D02*
X0112450Y0044199D01*
X0112450Y0044797D02*
X0117554Y0044797D01*
X0117201Y0045396D02*
X0112450Y0045396D01*
X0112450Y0045994D02*
X0116953Y0045994D01*
X0116750Y0046593D02*
X0112450Y0046593D01*
X0112450Y0047191D02*
X0116750Y0047191D01*
X0116750Y0047790D02*
X0112450Y0047790D01*
X0112450Y0048388D02*
X0116863Y0048388D01*
X0117111Y0048987D02*
X0112450Y0048987D01*
X0112450Y0049585D02*
X0117359Y0049585D01*
X0117936Y0050184D02*
X0112450Y0050184D01*
X0112450Y0050782D02*
X0118543Y0050782D01*
X0119988Y0051381D02*
X0112450Y0051381D01*
X0112450Y0051979D02*
X0121550Y0051979D01*
X0121500Y0052578D02*
X0112450Y0052578D01*
X0112450Y0053176D02*
X0120685Y0053176D01*
X0120087Y0053775D02*
X0112450Y0053775D01*
X0112450Y0054373D02*
X0119660Y0054373D01*
X0119412Y0054972D02*
X0112450Y0054972D01*
X0112450Y0055570D02*
X0119164Y0055570D01*
X0119050Y0056169D02*
X0112450Y0056169D01*
X0112450Y0056768D02*
X0119050Y0056768D01*
X0119050Y0057366D02*
X0112450Y0057366D01*
X0112450Y0057965D02*
X0119137Y0057965D01*
X0119385Y0058563D02*
X0112450Y0058563D01*
X0112450Y0059162D02*
X0119633Y0059162D01*
X0120022Y0059760D02*
X0112450Y0059760D01*
X0112450Y0060359D02*
X0120620Y0060359D01*
X0121343Y0060957D02*
X0112450Y0060957D01*
X0124912Y0061556D02*
X0140440Y0061556D01*
X0140875Y0062154D02*
X0125732Y0062154D01*
X0126786Y0062753D02*
X0141310Y0062753D01*
X0141511Y0063351D02*
X0127472Y0063351D01*
X0127959Y0063950D02*
X0140912Y0063950D01*
X0140587Y0064548D02*
X0128314Y0064548D01*
X0128570Y0065147D02*
X0140339Y0065147D01*
X0138594Y0065745D02*
X0128745Y0065745D01*
X0126357Y0060957D02*
X0139747Y0060957D01*
X0138923Y0060359D02*
X0127080Y0060359D01*
X0127678Y0059760D02*
X0137794Y0059760D01*
X0135632Y0059162D02*
X0128067Y0059162D01*
X0128040Y0054373D02*
X0148953Y0054373D01*
X0148115Y0054972D02*
X0138251Y0054972D01*
X0140093Y0055570D02*
X0147516Y0055570D01*
X0146918Y0056169D02*
X0141144Y0056169D01*
X0140504Y0055704D02*
X0140504Y0055704D01*
X0141967Y0056768D02*
X0146319Y0056768D01*
X0145721Y0057366D02*
X0142791Y0057366D01*
X0143615Y0057965D02*
X0145312Y0057965D01*
X0144966Y0058563D02*
X0144069Y0058563D01*
X0143656Y0057994D02*
X0143656Y0057994D01*
X0144504Y0059162D02*
X0144621Y0059162D01*
X0149000Y0060957D02*
X0271250Y0060957D01*
X0271250Y0060359D02*
X0149361Y0060359D01*
X0149959Y0059760D02*
X0271250Y0059760D01*
X0271250Y0059162D02*
X0150558Y0059162D01*
X0149990Y0053775D02*
X0127613Y0053775D01*
X0127015Y0053176D02*
X0151026Y0053176D01*
X0152327Y0052578D02*
X0126200Y0052578D01*
X0126150Y0051979D02*
X0154561Y0051979D01*
X0156444Y0042403D02*
X0112450Y0042403D01*
X0112450Y0041805D02*
X0153822Y0041805D01*
X0151431Y0041206D02*
X0112450Y0041206D01*
X0127712Y0051381D02*
X0252206Y0051381D01*
X0252635Y0050782D02*
X0129157Y0050782D01*
X0129764Y0050184D02*
X0253233Y0050184D01*
X0253931Y0049585D02*
X0130341Y0049585D01*
X0130589Y0048987D02*
X0255376Y0048987D01*
X0251692Y0044797D02*
X0130146Y0044797D01*
X0129547Y0044199D02*
X0251550Y0044199D01*
X0251550Y0037615D02*
X0156681Y0037615D01*
X0154059Y0037017D02*
X0251550Y0037017D01*
X0251550Y0036418D02*
X0152369Y0036418D01*
X0151126Y0035820D02*
X0251550Y0035820D01*
X0256558Y0024399D02*
X0253765Y0023242D01*
X0251628Y0021105D01*
X0250471Y0018312D01*
X0250471Y0015288D01*
X0251628Y0012495D01*
X0253765Y0010358D01*
X0256558Y0009201D01*
X0259582Y0009201D01*
X0262375Y0010358D01*
X0264512Y0012495D01*
X0265669Y0015288D01*
X0265669Y0018312D01*
X0264512Y0021105D01*
X0262375Y0023242D01*
X0259582Y0024399D01*
X0256558Y0024399D01*
X0255231Y0023849D02*
X0186348Y0023849D01*
X0187792Y0023251D02*
X0253786Y0023251D01*
X0253175Y0022652D02*
X0188545Y0022652D01*
X0189143Y0022054D02*
X0252577Y0022054D01*
X0251978Y0021455D02*
X0189742Y0021455D01*
X0190254Y0020857D02*
X0251525Y0020857D01*
X0251277Y0020258D02*
X0190501Y0020258D01*
X0190749Y0019660D02*
X0251029Y0019660D01*
X0250781Y0019061D02*
X0190997Y0019061D01*
X0191245Y0018463D02*
X0250533Y0018463D01*
X0250471Y0017864D02*
X0191349Y0017864D01*
X0191349Y0017266D02*
X0250471Y0017266D01*
X0250471Y0016667D02*
X0191349Y0016667D01*
X0191349Y0016069D02*
X0250471Y0016069D01*
X0250471Y0015470D02*
X0191349Y0015470D01*
X0191218Y0014872D02*
X0250643Y0014872D01*
X0250891Y0014273D02*
X0190970Y0014273D01*
X0190722Y0013675D02*
X0251139Y0013675D01*
X0251387Y0013076D02*
X0190474Y0013076D01*
X0190226Y0012478D02*
X0251645Y0012478D01*
X0252244Y0011879D02*
X0189676Y0011879D01*
X0189078Y0011281D02*
X0252842Y0011281D01*
X0253441Y0010682D02*
X0188479Y0010682D01*
X0187634Y0010084D02*
X0254427Y0010084D01*
X0255872Y0009485D02*
X0186189Y0009485D01*
X0181311Y0009485D02*
X0112450Y0009485D01*
X0112450Y0008887D02*
X0271250Y0008887D01*
X0271250Y0009485D02*
X0260268Y0009485D01*
X0261713Y0010084D02*
X0271250Y0010084D01*
X0271250Y0010682D02*
X0262699Y0010682D01*
X0263298Y0011281D02*
X0271250Y0011281D01*
X0271250Y0011879D02*
X0263896Y0011879D01*
X0264495Y0012478D02*
X0271250Y0012478D01*
X0271250Y0013076D02*
X0264753Y0013076D01*
X0265001Y0013675D02*
X0271250Y0013675D01*
X0271250Y0014273D02*
X0265249Y0014273D01*
X0265497Y0014872D02*
X0271250Y0014872D01*
X0271250Y0015470D02*
X0265669Y0015470D01*
X0265669Y0016069D02*
X0271250Y0016069D01*
X0271250Y0016667D02*
X0265669Y0016667D01*
X0265669Y0017266D02*
X0271250Y0017266D01*
X0271250Y0017864D02*
X0265669Y0017864D01*
X0265607Y0018463D02*
X0271250Y0018463D01*
X0271250Y0019061D02*
X0265359Y0019061D01*
X0265111Y0019660D02*
X0271250Y0019660D01*
X0271250Y0020258D02*
X0264863Y0020258D01*
X0264615Y0020857D02*
X0271250Y0020857D01*
X0271250Y0021455D02*
X0264162Y0021455D01*
X0263563Y0022054D02*
X0271250Y0022054D01*
X0271250Y0022652D02*
X0262965Y0022652D01*
X0262354Y0023251D02*
X0271250Y0023251D01*
X0271250Y0023849D02*
X0260909Y0023849D01*
X0271250Y0008288D02*
X0112450Y0008288D01*
X0112450Y0007690D02*
X0271250Y0007690D01*
X0271250Y0007091D02*
X0112450Y0007091D01*
X0112450Y0010084D02*
X0179866Y0010084D01*
X0179021Y0010682D02*
X0112450Y0010682D01*
X0112450Y0011281D02*
X0178422Y0011281D01*
X0177824Y0011879D02*
X0112450Y0011879D01*
X0112450Y0012478D02*
X0177274Y0012478D01*
X0177026Y0013076D02*
X0112450Y0013076D01*
X0140720Y0069935D02*
X0141197Y0069935D01*
X0141795Y0070533D02*
X0139684Y0070533D01*
M02*
