G04 EAGLE Gerber X2 export*
%TF.Part,Single*%
%TF.FileFunction,Legend,Bot,1*%
%TF.FilePolarity,Positive*%
%TF.GenerationSoftware,Autodesk,EAGLE,8.6.0*%
%TF.CreationDate,2018-11-20T04:50:41Z*%
G75*
%MOMM*%
%FSLAX34Y34*%
%LPD*%
%AMOC8*
5,1,8,0,0,1.08239X$1,22.5*%
G01*
%ADD10C,0.101600*%
%ADD11C,0.152400*%
%ADD12C,0.203200*%
%ADD13C,0.127000*%
%ADD14C,0.025400*%
%ADD15C,0.076200*%


D10*
X155448Y4115D02*
X155956Y30378D01*
X258166Y30124D01*
X259944Y3353D02*
X156312Y3099D01*
X259283Y4216D02*
X259080Y30175D01*
X311353Y38710D02*
X311353Y65735D01*
X311556Y65938D02*
X412902Y65938D01*
X412902Y39218D01*
X311556Y39218D01*
X366471Y99263D02*
X366471Y304241D01*
X339649Y304241D01*
X339649Y305257D02*
X340665Y305257D01*
X340665Y99263D01*
X366471Y99263D01*
X137922Y99568D02*
X137566Y99568D01*
X137566Y303886D01*
X112116Y303886D01*
X112116Y99924D01*
X112522Y99263D02*
X136957Y99263D01*
X278181Y102768D02*
X278183Y102734D01*
X278189Y102700D01*
X278198Y102667D01*
X278211Y102636D01*
X278228Y102606D01*
X278248Y102578D01*
X278270Y102552D01*
X278296Y102530D01*
X278324Y102510D01*
X278354Y102493D01*
X278385Y102480D01*
X278418Y102471D01*
X278452Y102465D01*
X278486Y102463D01*
X278486Y102464D02*
X286918Y102464D01*
X286881Y102462D01*
X286844Y102456D01*
X286808Y102447D01*
X286773Y102433D01*
X286740Y102416D01*
X286709Y102396D01*
X286680Y102373D01*
X286653Y102346D01*
X286630Y102317D01*
X286610Y102286D01*
X286593Y102253D01*
X286579Y102218D01*
X286570Y102182D01*
X286564Y102145D01*
X286562Y102108D01*
X286563Y102108D02*
X286563Y79045D01*
X274066Y79045D01*
X236068Y78791D02*
X235966Y95809D01*
X235966Y95808D02*
X235929Y95810D01*
X235892Y95816D01*
X235856Y95825D01*
X235821Y95839D01*
X235788Y95856D01*
X235757Y95876D01*
X235728Y95899D01*
X235701Y95926D01*
X235678Y95955D01*
X235658Y95986D01*
X235641Y96019D01*
X235627Y96054D01*
X235618Y96090D01*
X235612Y96127D01*
X235610Y96164D01*
X235610Y101041D01*
X235612Y101078D01*
X235618Y101115D01*
X235627Y101151D01*
X235641Y101186D01*
X235658Y101219D01*
X235678Y101250D01*
X235701Y101279D01*
X235728Y101306D01*
X235757Y101329D01*
X235788Y101349D01*
X235821Y101366D01*
X235856Y101380D01*
X235892Y101389D01*
X235929Y101395D01*
X235966Y101397D01*
X240843Y101397D01*
X189585Y77775D02*
X189583Y77826D01*
X189578Y77876D01*
X189569Y77926D01*
X189556Y77975D01*
X189540Y78023D01*
X189521Y78070D01*
X189498Y78116D01*
X189472Y78159D01*
X189443Y78201D01*
X189411Y78241D01*
X189377Y78278D01*
X189340Y78312D01*
X189300Y78344D01*
X189258Y78373D01*
X189215Y78399D01*
X189169Y78422D01*
X189122Y78441D01*
X189074Y78457D01*
X189025Y78470D01*
X188975Y78479D01*
X188925Y78484D01*
X188874Y78486D01*
X189586Y77775D02*
X189586Y70104D01*
X189585Y70104D02*
X189587Y70141D01*
X189593Y70178D01*
X189602Y70214D01*
X189616Y70249D01*
X189633Y70282D01*
X189653Y70313D01*
X189676Y70342D01*
X189703Y70369D01*
X189732Y70392D01*
X189763Y70412D01*
X189796Y70429D01*
X189831Y70443D01*
X189867Y70452D01*
X189904Y70458D01*
X189941Y70460D01*
X213309Y70460D01*
X213309Y70459D02*
X213272Y70461D01*
X213235Y70467D01*
X213199Y70476D01*
X213164Y70490D01*
X213131Y70507D01*
X213100Y70527D01*
X213071Y70550D01*
X213044Y70577D01*
X213021Y70606D01*
X213001Y70637D01*
X212984Y70670D01*
X212970Y70705D01*
X212961Y70741D01*
X212955Y70778D01*
X212953Y70815D01*
X212954Y70815D02*
X212954Y77826D01*
X187655Y115672D02*
X188671Y122784D01*
X211125Y122784D01*
X211211Y122809D01*
X211298Y122831D01*
X211386Y122850D01*
X211474Y122864D01*
X211563Y122875D01*
X211653Y122881D01*
X211743Y122884D01*
X211832Y122883D01*
X211922Y122878D01*
X212011Y122869D01*
X212100Y122856D01*
X212188Y122839D01*
X212275Y122818D01*
X212362Y122794D01*
X212447Y122766D01*
X212531Y122734D01*
X212613Y122699D01*
X212694Y122660D01*
X212773Y122617D01*
X212850Y122571D01*
X212925Y122522D01*
X212998Y122470D01*
X213068Y122414D01*
X213136Y122356D01*
X213201Y122294D01*
X213264Y122230D01*
X213324Y122163D01*
X213380Y122093D01*
X213434Y122022D01*
X213485Y121947D01*
X213532Y121871D01*
X213576Y121793D01*
X213616Y121713D01*
X213653Y121631D01*
X213686Y121548D01*
X213716Y121463D01*
X213716Y115926D01*
D11*
X376123Y66446D02*
X375361Y361899D01*
X351180Y38456D02*
X134925Y38456D01*
X134238Y38464D01*
X133551Y38489D01*
X132864Y38531D01*
X132179Y38589D01*
X131496Y38663D01*
X130815Y38755D01*
X130136Y38862D01*
X129459Y38986D01*
X128786Y39126D01*
X128117Y39283D01*
X127452Y39455D01*
X126790Y39644D01*
X126134Y39848D01*
X125483Y40069D01*
X124837Y40305D01*
X124197Y40556D01*
X123564Y40823D01*
X122937Y41105D01*
X122317Y41402D01*
X121705Y41715D01*
X121100Y42041D01*
X120503Y42383D01*
X119915Y42738D01*
X119335Y43108D01*
X118765Y43492D01*
X118204Y43889D01*
X117652Y44300D01*
X117111Y44724D01*
X116581Y45161D01*
X116060Y45610D01*
X115551Y46072D01*
X115054Y46547D01*
X114568Y47033D01*
X114093Y47530D01*
X113631Y48039D01*
X113182Y48560D01*
X112745Y49090D01*
X112321Y49631D01*
X111910Y50183D01*
X111513Y50744D01*
X111129Y51314D01*
X110759Y51894D01*
X110404Y52482D01*
X110062Y53079D01*
X109736Y53684D01*
X109423Y54296D01*
X109126Y54916D01*
X108844Y55543D01*
X108577Y56176D01*
X108326Y56816D01*
X108090Y57462D01*
X107869Y58113D01*
X107665Y58769D01*
X107476Y59431D01*
X107304Y60096D01*
X107147Y60765D01*
X107007Y61438D01*
X106883Y62115D01*
X106776Y62794D01*
X106684Y63475D01*
X106610Y64158D01*
X106552Y64843D01*
X106510Y65530D01*
X106485Y66217D01*
X106477Y66904D01*
X106477Y330352D01*
X144170Y350317D01*
X145186Y362356D01*
X179578Y291338D02*
X179578Y284988D01*
X180340Y243078D02*
X180340Y236982D01*
X180848Y236982D02*
X205740Y236982D01*
X205740Y242570D01*
X204978Y291338D02*
X180340Y291338D01*
X204978Y291338D02*
X204978Y286512D01*
D10*
X236474Y78232D02*
X242062Y78232D01*
D12*
X394208Y40132D02*
X406908Y40132D01*
X413258Y46482D01*
X413258Y59182D02*
X406908Y65532D01*
X368808Y40132D02*
X362458Y46482D01*
X368808Y40132D02*
X381508Y40132D01*
X387858Y46482D01*
X387858Y59182D02*
X381508Y65532D01*
X368808Y65532D01*
X362458Y59182D01*
X387858Y46482D02*
X394208Y40132D01*
X387858Y59182D02*
X394208Y65532D01*
X406908Y65532D01*
X330708Y40132D02*
X318008Y40132D01*
X330708Y40132D02*
X337058Y46482D01*
X337058Y59182D02*
X330708Y65532D01*
X337058Y46482D02*
X343408Y40132D01*
X356108Y40132D01*
X362458Y46482D01*
X362458Y59182D02*
X356108Y65532D01*
X343408Y65532D01*
X337058Y59182D01*
X311658Y59182D02*
X311658Y46482D01*
X318008Y40132D01*
X311658Y59182D02*
X318008Y65532D01*
X330708Y65532D01*
X413258Y59182D02*
X413258Y46482D01*
D13*
X357037Y33919D02*
X357037Y22479D01*
X353224Y30106D02*
X357037Y33919D01*
X353224Y30106D02*
X349410Y33919D01*
X349410Y22479D01*
X345343Y24386D02*
X345343Y32012D01*
X343436Y33919D01*
X339623Y33919D01*
X337717Y32012D01*
X337717Y24386D01*
X339623Y22479D01*
X343436Y22479D01*
X345343Y24386D01*
X341530Y26292D02*
X337717Y22479D01*
X333649Y28199D02*
X326023Y28199D01*
X321955Y33919D02*
X314329Y33919D01*
X314329Y32012D01*
X321955Y24386D01*
X321955Y22479D01*
D14*
X216081Y83185D02*
X212268Y83185D01*
X216081Y83185D02*
X216081Y85092D01*
X215445Y85727D01*
X214174Y85727D01*
X213539Y85092D01*
X213539Y83185D01*
X213539Y84456D02*
X212268Y85727D01*
X214810Y86927D02*
X216081Y88198D01*
X212268Y88198D01*
X212268Y86927D02*
X212268Y89469D01*
X273482Y101930D02*
X273482Y105743D01*
X271575Y105743D01*
X270940Y105108D01*
X270940Y103837D01*
X271575Y103201D01*
X273482Y103201D01*
X272211Y103201D02*
X270940Y101930D01*
X269740Y101930D02*
X267198Y101930D01*
X269740Y101930D02*
X267198Y104472D01*
X267198Y105108D01*
X267833Y105743D01*
X269104Y105743D01*
X269740Y105108D01*
D12*
X175006Y29718D02*
X162306Y29718D01*
X155956Y23368D01*
X155956Y10668D02*
X162306Y4318D01*
X200406Y29718D02*
X206756Y23368D01*
X200406Y29718D02*
X187706Y29718D01*
X181356Y23368D01*
X181356Y10668D02*
X187706Y4318D01*
X200406Y4318D01*
X206756Y10668D01*
X181356Y23368D02*
X175006Y29718D01*
X181356Y10668D02*
X175006Y4318D01*
X162306Y4318D01*
X238506Y29718D02*
X251206Y29718D01*
X238506Y29718D02*
X232156Y23368D01*
X232156Y10668D02*
X238506Y4318D01*
X232156Y23368D02*
X225806Y29718D01*
X213106Y29718D01*
X206756Y23368D01*
X206756Y10668D02*
X213106Y4318D01*
X225806Y4318D01*
X232156Y10668D01*
X257556Y10668D02*
X257556Y23368D01*
X251206Y29718D01*
X257556Y10668D02*
X251206Y4318D01*
X238506Y4318D01*
X155956Y10668D02*
X155956Y23368D01*
D13*
X257683Y35941D02*
X257683Y47381D01*
X257683Y35941D02*
X251963Y35941D01*
X250057Y37848D01*
X250057Y45474D01*
X251963Y47381D01*
X257683Y47381D01*
X245989Y47381D02*
X245989Y35941D01*
X245989Y41661D02*
X238363Y41661D01*
X238363Y47381D02*
X238363Y35941D01*
X230482Y35941D02*
X230482Y47381D01*
X234295Y47381D02*
X226669Y47381D01*
X222601Y43568D02*
X218788Y47381D01*
X218788Y35941D01*
X222601Y35941D02*
X214975Y35941D01*
X210907Y43568D02*
X207094Y47381D01*
X207094Y35941D01*
X210907Y35941D02*
X203281Y35941D01*
D14*
X180470Y269249D02*
X176657Y269249D01*
X180470Y269249D02*
X180470Y271155D01*
X179835Y271791D01*
X178564Y271791D01*
X177928Y271155D01*
X177928Y269249D01*
X177928Y270520D02*
X176657Y271791D01*
X179835Y274262D02*
X180470Y275533D01*
X179835Y274262D02*
X178564Y272991D01*
X177293Y272991D01*
X176657Y273626D01*
X176657Y274898D01*
X177293Y275533D01*
X177928Y275533D01*
X178564Y274898D01*
X178564Y272991D01*
D12*
X137414Y271780D02*
X137414Y259080D01*
X137414Y271780D02*
X131064Y278130D01*
X118364Y278130D02*
X112014Y271780D01*
X137414Y233680D02*
X131064Y227330D01*
X137414Y233680D02*
X137414Y246380D01*
X131064Y252730D01*
X118364Y252730D02*
X112014Y246380D01*
X112014Y233680D01*
X118364Y227330D01*
X131064Y252730D02*
X137414Y259080D01*
X118364Y252730D02*
X112014Y259080D01*
X112014Y271780D01*
X137414Y195580D02*
X137414Y182880D01*
X137414Y195580D02*
X131064Y201930D01*
X118364Y201930D02*
X112014Y195580D01*
X131064Y201930D02*
X137414Y208280D01*
X137414Y220980D01*
X131064Y227330D01*
X118364Y227330D02*
X112014Y220980D01*
X112014Y208280D01*
X118364Y201930D01*
X137414Y157480D02*
X131064Y151130D01*
X137414Y157480D02*
X137414Y170180D01*
X131064Y176530D01*
X118364Y176530D02*
X112014Y170180D01*
X112014Y157480D01*
X118364Y151130D01*
X131064Y176530D02*
X137414Y182880D01*
X118364Y176530D02*
X112014Y182880D01*
X112014Y195580D01*
X137414Y119380D02*
X137414Y106680D01*
X137414Y119380D02*
X131064Y125730D01*
X118364Y125730D02*
X112014Y119380D01*
X131064Y125730D02*
X137414Y132080D01*
X137414Y144780D01*
X131064Y151130D01*
X118364Y151130D02*
X112014Y144780D01*
X112014Y132080D01*
X118364Y125730D01*
X118364Y100330D02*
X131064Y100330D01*
X137414Y106680D01*
X118364Y100330D02*
X112014Y106680D01*
X112014Y119380D01*
X137414Y284480D02*
X137414Y297180D01*
X131064Y303530D01*
X118364Y303530D01*
X112014Y297180D01*
X131064Y278130D02*
X137414Y284480D01*
X118364Y278130D02*
X112014Y284480D01*
X112014Y297180D01*
X340614Y144780D02*
X340614Y132080D01*
X346964Y125730D01*
X359664Y125730D02*
X366014Y132080D01*
X340614Y170180D02*
X346964Y176530D01*
X340614Y170180D02*
X340614Y157480D01*
X346964Y151130D01*
X359664Y151130D02*
X366014Y157480D01*
X366014Y170180D01*
X359664Y176530D01*
X346964Y151130D02*
X340614Y144780D01*
X359664Y151130D02*
X366014Y144780D01*
X366014Y132080D01*
X340614Y208280D02*
X340614Y220980D01*
X340614Y208280D02*
X346964Y201930D01*
X359664Y201930D02*
X366014Y208280D01*
X346964Y201930D02*
X340614Y195580D01*
X340614Y182880D01*
X346964Y176530D01*
X359664Y176530D02*
X366014Y182880D01*
X366014Y195580D01*
X359664Y201930D01*
X340614Y246380D02*
X346964Y252730D01*
X340614Y246380D02*
X340614Y233680D01*
X346964Y227330D01*
X359664Y227330D02*
X366014Y233680D01*
X366014Y246380D01*
X359664Y252730D01*
X346964Y227330D02*
X340614Y220980D01*
X359664Y227330D02*
X366014Y220980D01*
X366014Y208280D01*
X340614Y284480D02*
X340614Y297180D01*
X340614Y284480D02*
X346964Y278130D01*
X359664Y278130D02*
X366014Y284480D01*
X346964Y278130D02*
X340614Y271780D01*
X340614Y259080D01*
X346964Y252730D01*
X359664Y252730D02*
X366014Y259080D01*
X366014Y271780D01*
X359664Y278130D01*
X359664Y303530D02*
X346964Y303530D01*
X340614Y297180D01*
X359664Y303530D02*
X366014Y297180D01*
X366014Y284480D01*
X340614Y119380D02*
X340614Y106680D01*
X346964Y100330D01*
X359664Y100330D01*
X366014Y106680D01*
X346964Y125730D02*
X340614Y119380D01*
X359664Y125730D02*
X366014Y119380D01*
X366014Y106680D01*
D13*
X324868Y269845D02*
X322961Y271752D01*
X322961Y273658D01*
X324868Y275565D01*
X334401Y275565D01*
X334401Y273658D02*
X334401Y277472D01*
X334401Y281539D02*
X322961Y281539D01*
X334401Y281539D02*
X334401Y287259D01*
X332494Y289166D01*
X328681Y289166D01*
X326774Y287259D01*
X326774Y281539D01*
X322961Y293233D02*
X322961Y300859D01*
X322961Y293233D02*
X330588Y300859D01*
X332494Y300859D01*
X334401Y298953D01*
X334401Y295140D01*
X332494Y293233D01*
X79356Y12338D02*
X29356Y12338D01*
X79356Y12338D02*
X79356Y52338D01*
X79356Y62338D01*
X69356Y62338D01*
X29356Y62338D01*
X29356Y12338D01*
X69356Y62338D02*
X79356Y52338D01*
X82282Y64218D02*
X82284Y64293D01*
X82290Y64367D01*
X82300Y64441D01*
X82313Y64514D01*
X82331Y64587D01*
X82352Y64658D01*
X82377Y64729D01*
X82406Y64798D01*
X82439Y64865D01*
X82475Y64930D01*
X82514Y64994D01*
X82556Y65055D01*
X82602Y65114D01*
X82651Y65171D01*
X82703Y65224D01*
X82757Y65275D01*
X82814Y65324D01*
X82874Y65368D01*
X82936Y65410D01*
X83000Y65449D01*
X83066Y65484D01*
X83133Y65515D01*
X83203Y65543D01*
X83273Y65567D01*
X83345Y65588D01*
X83418Y65604D01*
X83491Y65617D01*
X83566Y65626D01*
X83640Y65631D01*
X83715Y65632D01*
X83789Y65629D01*
X83864Y65622D01*
X83937Y65611D01*
X84011Y65597D01*
X84083Y65578D01*
X84154Y65556D01*
X84224Y65530D01*
X84293Y65500D01*
X84359Y65467D01*
X84424Y65430D01*
X84487Y65390D01*
X84548Y65346D01*
X84606Y65300D01*
X84662Y65250D01*
X84715Y65198D01*
X84766Y65143D01*
X84813Y65085D01*
X84857Y65025D01*
X84898Y64962D01*
X84936Y64898D01*
X84970Y64832D01*
X85001Y64763D01*
X85028Y64694D01*
X85051Y64623D01*
X85070Y64551D01*
X85086Y64478D01*
X85098Y64404D01*
X85106Y64330D01*
X85110Y64255D01*
X85110Y64181D01*
X85106Y64106D01*
X85098Y64032D01*
X85086Y63958D01*
X85070Y63885D01*
X85051Y63813D01*
X85028Y63742D01*
X85001Y63673D01*
X84970Y63604D01*
X84936Y63538D01*
X84898Y63474D01*
X84857Y63411D01*
X84813Y63351D01*
X84766Y63293D01*
X84715Y63238D01*
X84662Y63186D01*
X84606Y63136D01*
X84548Y63090D01*
X84487Y63046D01*
X84424Y63006D01*
X84359Y62969D01*
X84293Y62936D01*
X84224Y62906D01*
X84154Y62880D01*
X84083Y62858D01*
X84011Y62839D01*
X83937Y62825D01*
X83864Y62814D01*
X83789Y62807D01*
X83715Y62804D01*
X83640Y62805D01*
X83566Y62810D01*
X83491Y62819D01*
X83418Y62832D01*
X83345Y62848D01*
X83273Y62869D01*
X83203Y62893D01*
X83133Y62921D01*
X83066Y62952D01*
X83000Y62987D01*
X82936Y63026D01*
X82874Y63068D01*
X82814Y63112D01*
X82757Y63161D01*
X82703Y63212D01*
X82651Y63265D01*
X82602Y63322D01*
X82556Y63381D01*
X82514Y63442D01*
X82475Y63506D01*
X82439Y63571D01*
X82406Y63638D01*
X82377Y63707D01*
X82352Y63778D01*
X82331Y63849D01*
X82313Y63922D01*
X82300Y63995D01*
X82290Y64069D01*
X82284Y64143D01*
X82282Y64218D01*
X33356Y37338D02*
X33362Y37853D01*
X33381Y38368D01*
X33413Y38883D01*
X33457Y39396D01*
X33514Y39909D01*
X33583Y40419D01*
X33665Y40928D01*
X33760Y41435D01*
X33866Y41939D01*
X33985Y42441D01*
X34117Y42939D01*
X34260Y43434D01*
X34416Y43925D01*
X34584Y44413D01*
X34763Y44896D01*
X34955Y45374D01*
X35158Y45848D01*
X35372Y46317D01*
X35598Y46780D01*
X35836Y47237D01*
X36084Y47689D01*
X36344Y48134D01*
X36614Y48573D01*
X36895Y49005D01*
X37187Y49430D01*
X37489Y49848D01*
X37801Y50258D01*
X38123Y50660D01*
X38455Y51055D01*
X38796Y51441D01*
X39147Y51818D01*
X39507Y52187D01*
X39876Y52547D01*
X40253Y52898D01*
X40639Y53239D01*
X41034Y53571D01*
X41436Y53893D01*
X41846Y54205D01*
X42264Y54507D01*
X42689Y54799D01*
X43121Y55080D01*
X43560Y55350D01*
X44005Y55610D01*
X44457Y55858D01*
X44914Y56096D01*
X45377Y56322D01*
X45846Y56536D01*
X46320Y56739D01*
X46798Y56931D01*
X47281Y57110D01*
X47769Y57278D01*
X48260Y57434D01*
X48755Y57577D01*
X49253Y57709D01*
X49755Y57828D01*
X50259Y57934D01*
X50766Y58029D01*
X51275Y58111D01*
X51785Y58180D01*
X52298Y58237D01*
X52811Y58281D01*
X53326Y58313D01*
X53841Y58332D01*
X54356Y58338D01*
X54871Y58332D01*
X55386Y58313D01*
X55901Y58281D01*
X56414Y58237D01*
X56927Y58180D01*
X57437Y58111D01*
X57946Y58029D01*
X58453Y57934D01*
X58957Y57828D01*
X59459Y57709D01*
X59957Y57577D01*
X60452Y57434D01*
X60943Y57278D01*
X61431Y57110D01*
X61914Y56931D01*
X62392Y56739D01*
X62866Y56536D01*
X63335Y56322D01*
X63798Y56096D01*
X64255Y55858D01*
X64707Y55610D01*
X65152Y55350D01*
X65591Y55080D01*
X66023Y54799D01*
X66448Y54507D01*
X66866Y54205D01*
X67276Y53893D01*
X67678Y53571D01*
X68073Y53239D01*
X68459Y52898D01*
X68836Y52547D01*
X69205Y52187D01*
X69565Y51818D01*
X69916Y51441D01*
X70257Y51055D01*
X70589Y50660D01*
X70911Y50258D01*
X71223Y49848D01*
X71525Y49430D01*
X71817Y49005D01*
X72098Y48573D01*
X72368Y48134D01*
X72628Y47689D01*
X72876Y47237D01*
X73114Y46780D01*
X73340Y46317D01*
X73554Y45848D01*
X73757Y45374D01*
X73949Y44896D01*
X74128Y44413D01*
X74296Y43925D01*
X74452Y43434D01*
X74595Y42939D01*
X74727Y42441D01*
X74846Y41939D01*
X74952Y41435D01*
X75047Y40928D01*
X75129Y40419D01*
X75198Y39909D01*
X75255Y39396D01*
X75299Y38883D01*
X75331Y38368D01*
X75350Y37853D01*
X75356Y37338D01*
X75350Y36823D01*
X75331Y36308D01*
X75299Y35793D01*
X75255Y35280D01*
X75198Y34767D01*
X75129Y34257D01*
X75047Y33748D01*
X74952Y33241D01*
X74846Y32737D01*
X74727Y32235D01*
X74595Y31737D01*
X74452Y31242D01*
X74296Y30751D01*
X74128Y30263D01*
X73949Y29780D01*
X73757Y29302D01*
X73554Y28828D01*
X73340Y28359D01*
X73114Y27896D01*
X72876Y27439D01*
X72628Y26987D01*
X72368Y26542D01*
X72098Y26103D01*
X71817Y25671D01*
X71525Y25246D01*
X71223Y24828D01*
X70911Y24418D01*
X70589Y24016D01*
X70257Y23621D01*
X69916Y23235D01*
X69565Y22858D01*
X69205Y22489D01*
X68836Y22129D01*
X68459Y21778D01*
X68073Y21437D01*
X67678Y21105D01*
X67276Y20783D01*
X66866Y20471D01*
X66448Y20169D01*
X66023Y19877D01*
X65591Y19596D01*
X65152Y19326D01*
X64707Y19066D01*
X64255Y18818D01*
X63798Y18580D01*
X63335Y18354D01*
X62866Y18140D01*
X62392Y17937D01*
X61914Y17745D01*
X61431Y17566D01*
X60943Y17398D01*
X60452Y17242D01*
X59957Y17099D01*
X59459Y16967D01*
X58957Y16848D01*
X58453Y16742D01*
X57946Y16647D01*
X57437Y16565D01*
X56927Y16496D01*
X56414Y16439D01*
X55901Y16395D01*
X55386Y16363D01*
X54871Y16344D01*
X54356Y16338D01*
X53841Y16344D01*
X53326Y16363D01*
X52811Y16395D01*
X52298Y16439D01*
X51785Y16496D01*
X51275Y16565D01*
X50766Y16647D01*
X50259Y16742D01*
X49755Y16848D01*
X49253Y16967D01*
X48755Y17099D01*
X48260Y17242D01*
X47769Y17398D01*
X47281Y17566D01*
X46798Y17745D01*
X46320Y17937D01*
X45846Y18140D01*
X45377Y18354D01*
X44914Y18580D01*
X44457Y18818D01*
X44005Y19066D01*
X43560Y19326D01*
X43121Y19596D01*
X42689Y19877D01*
X42264Y20169D01*
X41846Y20471D01*
X41436Y20783D01*
X41034Y21105D01*
X40639Y21437D01*
X40253Y21778D01*
X39876Y22129D01*
X39507Y22489D01*
X39147Y22858D01*
X38796Y23235D01*
X38455Y23621D01*
X38123Y24016D01*
X37801Y24418D01*
X37489Y24828D01*
X37187Y25246D01*
X36895Y25671D01*
X36614Y26103D01*
X36344Y26542D01*
X36084Y26987D01*
X35836Y27439D01*
X35598Y27896D01*
X35372Y28359D01*
X35158Y28828D01*
X34955Y29302D01*
X34763Y29780D01*
X34584Y30263D01*
X34416Y30751D01*
X34260Y31242D01*
X34117Y31737D01*
X33985Y32235D01*
X33866Y32737D01*
X33760Y33241D01*
X33665Y33748D01*
X33583Y34257D01*
X33514Y34767D01*
X33457Y35280D01*
X33413Y35793D01*
X33381Y36308D01*
X33362Y36823D01*
X33356Y37338D01*
D15*
X15387Y18353D02*
X16615Y17124D01*
X16615Y14667D01*
X15387Y13438D01*
X14158Y13438D01*
X12929Y14667D01*
X12929Y17124D01*
X11700Y18353D01*
X10472Y18353D01*
X9243Y17124D01*
X9243Y14667D01*
X10472Y13438D01*
X9243Y20922D02*
X16615Y20922D01*
X11700Y20922D02*
X16615Y25837D01*
X12929Y22151D02*
X9243Y25837D01*
X10472Y28407D02*
X9243Y29635D01*
X9243Y32093D01*
X10472Y33321D01*
X15387Y33321D01*
X16615Y32093D01*
X16615Y29635D01*
X15387Y28407D01*
X14158Y28407D01*
X12929Y29635D01*
X12929Y33321D01*
X15387Y35891D02*
X16615Y37119D01*
X16615Y39577D01*
X15387Y40806D01*
X14158Y40806D01*
X12929Y39577D01*
X11700Y40806D01*
X10472Y40806D01*
X9243Y39577D01*
X9243Y37119D01*
X10472Y35891D01*
X11700Y35891D01*
X12929Y37119D01*
X14158Y35891D01*
X15387Y35891D01*
X12929Y37119D02*
X12929Y39577D01*
X9243Y43375D02*
X9243Y48290D01*
X9243Y43375D02*
X14158Y48290D01*
X15387Y48290D01*
X16615Y47061D01*
X16615Y44604D01*
X15387Y43375D01*
X9243Y50859D02*
X9243Y55774D01*
X9243Y50859D02*
X14158Y55774D01*
X15387Y55774D01*
X16615Y54545D01*
X16615Y52088D01*
X15387Y50859D01*
X16615Y58343D02*
X9243Y58343D01*
X9243Y63258D01*
X16615Y65827D02*
X16615Y70742D01*
X16615Y65827D02*
X9243Y65827D01*
X9243Y70742D01*
X12929Y68285D02*
X12929Y65827D01*
X16615Y73312D02*
X9243Y73312D01*
X9243Y76998D01*
X10472Y78226D01*
X15387Y78226D01*
X16615Y76998D01*
X16615Y73312D01*
D12*
X356108Y33274D02*
X362458Y26924D01*
X356108Y33274D02*
X343408Y33274D01*
X337058Y26924D01*
X337058Y14224D02*
X343408Y7874D01*
X356108Y7874D01*
X362458Y14224D01*
X394208Y33274D02*
X406908Y33274D01*
X394208Y33274D02*
X387858Y26924D01*
X387858Y14224D02*
X394208Y7874D01*
X387858Y26924D02*
X381508Y33274D01*
X368808Y33274D01*
X362458Y26924D01*
X362458Y14224D02*
X368808Y7874D01*
X381508Y7874D01*
X387858Y14224D01*
X413258Y14224D02*
X413258Y26924D01*
X406908Y33274D01*
X413258Y14224D02*
X406908Y7874D01*
X394208Y7874D01*
X337058Y14224D02*
X337058Y26924D01*
D13*
X413385Y39497D02*
X413385Y50937D01*
X409572Y47124D01*
X405759Y50937D01*
X405759Y39497D01*
X401691Y39497D02*
X401691Y47124D01*
X397878Y50937D01*
X394065Y47124D01*
X394065Y39497D01*
X394065Y45217D02*
X401691Y45217D01*
X389997Y50937D02*
X382371Y39497D01*
X389997Y39497D02*
X382371Y50937D01*
X372583Y50937D02*
X372583Y39497D01*
X378303Y45217D02*
X372583Y50937D01*
X370677Y45217D02*
X378303Y45217D01*
X360889Y39497D02*
X360889Y50937D01*
X366609Y45217D01*
X358983Y45217D01*
X351102Y49030D02*
X347289Y50937D01*
X351102Y49030D02*
X354915Y45217D01*
X354915Y41404D01*
X353009Y39497D01*
X349195Y39497D01*
X347289Y41404D01*
X347289Y43310D01*
X349195Y45217D01*
X354915Y45217D01*
X339408Y49030D02*
X335595Y50937D01*
X339408Y49030D02*
X343221Y45217D01*
X343221Y41404D01*
X341315Y39497D01*
X337501Y39497D01*
X335595Y41404D01*
X335595Y43310D01*
X337501Y45217D01*
X343221Y45217D01*
X331527Y47124D02*
X331527Y39497D01*
X331527Y47124D02*
X327714Y50937D01*
X323901Y47124D01*
X323901Y39497D01*
X323901Y45217D02*
X331527Y45217D01*
X319833Y50937D02*
X319833Y39497D01*
X314113Y39497D01*
X312207Y41404D01*
X312207Y49030D01*
X314113Y50937D01*
X319833Y50937D01*
X308139Y47124D02*
X308139Y39497D01*
X308139Y47124D02*
X304326Y50937D01*
X300513Y47124D01*
X300513Y39497D01*
X300513Y45217D02*
X308139Y45217D01*
X296445Y39497D02*
X296445Y50937D01*
X288819Y50937D01*
X292632Y45217D02*
X296445Y45217D01*
X284751Y39497D02*
X284751Y50937D01*
X279031Y50937D01*
X277125Y49030D01*
X277125Y45217D01*
X279031Y43310D01*
X284751Y43310D01*
X280938Y43310D02*
X277125Y39497D01*
X273057Y41404D02*
X273057Y50937D01*
X273057Y41404D02*
X271151Y39497D01*
X267338Y39497D01*
X265431Y41404D01*
X265431Y50937D01*
X261363Y39497D02*
X257550Y39497D01*
X259457Y39497D02*
X259457Y50937D01*
X261363Y50937D02*
X257550Y50937D01*
X249754Y50937D02*
X249754Y39497D01*
X253567Y50937D02*
X245941Y50937D01*
D12*
X378242Y252554D02*
X378242Y322554D01*
X378242Y252554D02*
X440242Y252554D01*
X448242Y252554D01*
X448242Y322554D01*
X440242Y322554D01*
X378242Y322554D01*
X440242Y322554D02*
X440242Y252554D01*
D14*
X386718Y272388D02*
X386083Y273024D01*
X386718Y272388D02*
X386718Y271117D01*
X386083Y270481D01*
X385447Y270481D01*
X384812Y271117D01*
X384812Y272388D01*
X384176Y273024D01*
X383541Y273024D01*
X382905Y272388D01*
X382905Y271117D01*
X383541Y270481D01*
X386718Y276130D02*
X386083Y276766D01*
X386718Y276130D02*
X386718Y274859D01*
X386083Y274223D01*
X383541Y274223D01*
X382905Y274859D01*
X382905Y276130D01*
X383541Y276766D01*
X382905Y277965D02*
X386718Y277965D01*
X386718Y279872D01*
X386083Y280508D01*
X384812Y280508D01*
X384176Y279872D01*
X384176Y277965D01*
X384176Y279237D02*
X382905Y280508D01*
X386718Y281708D02*
X386718Y284250D01*
X386718Y281708D02*
X382905Y281708D01*
X382905Y284250D01*
X384812Y282979D02*
X384812Y281708D01*
X386718Y285450D02*
X382905Y285450D01*
X384176Y286721D01*
X382905Y287992D01*
X386718Y287992D01*
X386718Y290463D02*
X382905Y290463D01*
X386718Y289192D02*
X386718Y291734D01*
X386718Y292934D02*
X386718Y295476D01*
X386718Y292934D02*
X382905Y292934D01*
X382905Y295476D01*
X384812Y294205D02*
X384812Y292934D01*
X382905Y296676D02*
X386718Y296676D01*
X386718Y298582D01*
X386083Y299218D01*
X384812Y299218D01*
X384176Y298582D01*
X384176Y296676D01*
X384176Y297947D02*
X382905Y299218D01*
X382905Y300418D02*
X386718Y300418D01*
X385447Y301689D01*
X386718Y302960D01*
X382905Y302960D01*
X382905Y304160D02*
X382905Y305431D01*
X382905Y304795D02*
X386718Y304795D01*
X386718Y304160D02*
X386718Y305431D01*
X386718Y306655D02*
X382905Y306655D01*
X382905Y309197D02*
X386718Y306655D01*
X386718Y309197D02*
X382905Y309197D01*
X382905Y310397D02*
X385447Y310397D01*
X386718Y311668D01*
X385447Y312939D01*
X382905Y312939D01*
X384812Y312939D02*
X384812Y310397D01*
X386718Y314139D02*
X382905Y314139D01*
X382905Y316681D01*
M02*
