G04 EAGLE Gerber X2 export*
%TF.Part,Single*%
%TF.FileFunction,Legend,Top,1*%
%TF.FilePolarity,Positive*%
%TF.GenerationSoftware,Autodesk,EAGLE,8.6.0*%
%TF.CreationDate,2018-11-20T04:50:41Z*%
G75*
%MOMM*%
%FSLAX34Y34*%
%LPD*%
%AMOC8*
5,1,8,0,0,1.08239X$1,22.5*%
G01*
%ADD10C,0.101600*%
%ADD11C,0.127000*%
%ADD12C,0.076200*%


D10*
X311353Y65735D02*
X311556Y65735D01*
X311556Y65938D01*
X339649Y304241D02*
X339649Y305257D01*
X136957Y99264D02*
X136994Y99262D01*
X137031Y99256D01*
X137067Y99247D01*
X137102Y99233D01*
X137135Y99216D01*
X137166Y99196D01*
X137195Y99173D01*
X137222Y99146D01*
X137245Y99117D01*
X137265Y99086D01*
X137282Y99053D01*
X137296Y99018D01*
X137305Y98982D01*
X137311Y98945D01*
X137313Y98908D01*
D11*
X68562Y103378D02*
X34562Y103378D01*
X34562Y39878D02*
X68562Y39878D01*
D12*
X14360Y65658D02*
X13131Y64429D01*
X14360Y65658D02*
X14360Y66886D01*
X13131Y68115D01*
X6988Y68115D01*
X6988Y66886D02*
X6988Y69344D01*
X9445Y71913D02*
X6988Y74370D01*
X14360Y74370D01*
X14360Y71913D02*
X14360Y76828D01*
D11*
X51562Y50628D02*
X51562Y42628D01*
X55562Y46628D02*
X51562Y50628D01*
X55562Y46628D02*
X51562Y42628D01*
M02*
