solid fond_cociclo_wemos
facet normal 0.5357835131293022 -0.8443553914429772 0.0
  outer loop
    vertex 19.242309150791304 -23.015940965890863 1.9999999999999998
    vertex 12.629679503259927 -27.21196787527385 0.0
    vertex 19.242309150791304 -23.015940965890863 0.0
  endloop
endfacet
facet normal 0.5357835131293022 -0.8443553914429772 0.0
  outer loop
    vertex 12.629679503259927 -27.21196787527385 0.0
    vertex 19.242309150791304 -23.015940965890863 1.9999999999999998
    vertex 12.629679503259927 -27.21196787527385 1.9999999999999998
  endloop
endfacet
facet normal 0.29899187649104386 -0.9542556564109874 0.0
  outer loop
    vertex 12.629679503259927 -27.21196787527385 1.9999999999999998
    vertex 5.156358069113582 -29.553544143860094 0.0
    vertex 12.629679503259927 -27.21196787527385 0.0
  endloop
endfacet
facet normal 0.29899187649104386 -0.9542556564109874 0.0
  outer loop
    vertex 5.156358069113582 -29.553544143860094 0.0
    vertex 12.629679503259927 -27.21196787527385 1.9999999999999998
    vertex 5.156358069113582 -29.553544143860094 1.9999999999999998
  endloop
endfacet
facet normal 0.04182443757735969 -0.999124975376623 0.0
  outer loop
    vertex 5.156358069113582 -29.553544143860094 1.9999999999999998
    vertex -2.668360646158215 -29.881095218583173 0.0
    vertex 5.156358069113582 -29.553544143860094 0.0
  endloop
endfacet
facet normal 0.04182443757735969 -0.999124975376623 0.0
  outer loop
    vertex -2.668360646158215 -29.881095218583173 0.0
    vertex 5.156358069113582 -29.553544143860094 1.9999999999999998
    vertex -2.668360646158215 -29.881095218583173 1.9999999999999998
  endloop
endfacet
facet normal -0.21819326763907024 -0.975905578402432 -0.0
  outer loop
    vertex -2.668360646158215 -29.881095218583173 1.9999999999999998
    vertex -10.311234993068792 -28.172299035004468 0.0
    vertex -2.668360646158215 -29.881095218583173 0.0
  endloop
endfacet
facet normal -0.21819326763907024 -0.975905578402432 -0.0
  outer loop
    vertex -10.311234993068792 -28.172299035004468 0.0
    vertex -2.668360646158215 -29.881095218583173 1.9999999999999998
    vertex -10.311234993068792 -28.172299035004468 1.9999999999999998
  endloop
endfacet
facet normal -0.4633414622473213 -0.8861798290203372 -0.0
  outer loop
    vertex -10.311234993068792 -28.172299035004468 1.9999999999999998
    vertex -17.25141571532327 -24.54360722911564 0.0
    vertex -10.311234993068792 -28.172299035004468 0.0
  endloop
endfacet
facet normal -0.4633414622473213 -0.8861798290203372 -0.0
  outer loop
    vertex -17.25141571532327 -24.54360722911564 0.0
    vertex -10.311234993068792 -28.172299035004468 1.9999999999999998
    vertex -17.25141571532327 -24.54360722911564 1.9999999999999998
  endloop
endfacet
facet normal -0.6769137019113882 -0.7360623887719167 -0.0
  outer loop
    vertex -17.25141571532327 -24.54360722911564 1.9999999999999998
    vertex -23.015940965890874 -19.242309150791293 0.0
    vertex -17.25141571532327 -24.54360722911564 0.0
  endloop
endfacet
facet normal -0.6769137019113882 -0.7360623887719167 -0.0
  outer loop
    vertex -23.015940965890874 -19.242309150791293 0.0
    vertex -17.25141571532327 -24.54360722911564 1.9999999999999998
    vertex -23.015940965890874 -19.242309150791293 1.9999999999999998
  endloop
endfacet
facet normal -0.8443553914429778 -0.5357835131293013 -0.0
  outer loop
    vertex -27.21196787527385 -12.629679503259922 1.9999999999999998
    vertex -23.015940965890874 -19.242309150791293 0.0
    vertex -23.015940965890874 -19.242309150791293 1.9999999999999998
  endloop
endfacet
facet normal -0.8443553914429778 -0.5357835131293013 -0.0
  outer loop
    vertex -23.015940965890874 -19.242309150791293 0.0
    vertex -27.21196787527385 -12.629679503259922 1.9999999999999998
    vertex -27.21196787527385 -12.629679503259922 0.0
  endloop
endfacet
facet normal -0.9542556564109874 -0.2989918764910442 -0.0
  outer loop
    vertex -29.553544143860094 -5.156358069113585 1.9999999999999998
    vertex -27.21196787527385 -12.629679503259922 0.0
    vertex -27.21196787527385 -12.629679503259922 1.9999999999999998
  endloop
endfacet
facet normal -0.9542556564109874 -0.2989918764910442 -0.0
  outer loop
    vertex -27.21196787527385 -12.629679503259922 0.0
    vertex -29.553544143860094 -5.156358069113585 1.9999999999999998
    vertex -29.553544143860094 -5.156358069113585 0.0
  endloop
endfacet
facet normal -0.9991249753766231 -0.04182443757735967 -0.0
  outer loop
    vertex -29.881095218583173 2.668360646158215 1.9999999999999998
    vertex -29.553544143860094 -5.156358069113585 0.0
    vertex -29.553544143860094 -5.156358069113585 1.9999999999999998
  endloop
endfacet
facet normal -0.9991249753766231 -0.04182443757735967 -0.0
  outer loop
    vertex -29.553544143860094 -5.156358069113585 0.0
    vertex -29.881095218583173 2.668360646158215 1.9999999999999998
    vertex -29.881095218583173 2.668360646158215 0.0
  endloop
endfacet
facet normal -0.9759055784024318 0.2181932676390706 0.0
  outer loop
    vertex -28.172299035004464 10.311234993068803 1.9999999999999998
    vertex -29.881095218583173 2.668360646158215 0.0
    vertex -29.881095218583173 2.668360646158215 1.9999999999999998
  endloop
endfacet
facet normal -0.9759055784024318 0.2181932676390706 0.0
  outer loop
    vertex -29.881095218583173 2.668360646158215 0.0
    vertex -28.172299035004464 10.311234993068803 1.9999999999999998
    vertex -28.172299035004464 10.311234993068803 0.0
  endloop
endfacet
facet normal -0.8861798290203373 0.4633414622473215 0.0
  outer loop
    vertex -24.543607229115647 17.251415715323255 1.9999999999999998
    vertex -28.172299035004464 10.311234993068803 0.0
    vertex -28.172299035004464 10.311234993068803 1.9999999999999998
  endloop
endfacet
facet normal -0.8861798290203373 0.4633414622473215 0.0
  outer loop
    vertex -28.172299035004464 10.311234993068803 0.0
    vertex -24.543607229115647 17.251415715323255 1.9999999999999998
    vertex -24.543607229115647 17.251415715323255 0.0
  endloop
endfacet
facet normal -0.7360623887719172 0.6769137019113878 0.0
  outer loop
    vertex -19.242309150791293 23.015940965890874 1.9999999999999998
    vertex -24.543607229115647 17.251415715323255 0.0
    vertex -24.543607229115647 17.251415715323255 1.9999999999999998
  endloop
endfacet
facet normal -0.7360623887719172 0.6769137019113878 0.0
  outer loop
    vertex -24.543607229115647 17.251415715323255 0.0
    vertex -19.242309150791293 23.015940965890874 1.9999999999999998
    vertex -19.242309150791293 23.015940965890874 0.0
  endloop
endfacet
facet normal -0.5357835131293014 0.8443553914429776 0.0
  outer loop
    vertex -19.242309150791293 23.015940965890874 1.9999999999999998
    vertex -12.629679503259926 27.21196787527385 0.0
    vertex -19.242309150791293 23.015940965890874 0.0
  endloop
endfacet
facet normal -0.5357835131293014 0.8443553914429776 0.0
  outer loop
    vertex -12.629679503259926 27.21196787527385 0.0
    vertex -19.242309150791293 23.015940965890874 1.9999999999999998
    vertex -12.629679503259926 27.21196787527385 1.9999999999999998
  endloop
endfacet
facet normal -0.29899187649104453 0.9542556564109872 0.0
  outer loop
    vertex -12.629679503259926 27.21196787527385 1.9999999999999998
    vertex -5.1563580691135975 29.553544143860094 0.0
    vertex -12.629679503259926 27.21196787527385 0.0
  endloop
endfacet
facet normal -0.29899187649104453 0.9542556564109872 0.0
  outer loop
    vertex -5.1563580691135975 29.553544143860094 0.0
    vertex -12.629679503259926 27.21196787527385 1.9999999999999998
    vertex -5.1563580691135975 29.553544143860094 1.9999999999999998
  endloop
endfacet
facet normal -0.04182443757736036 0.9991249753766231 0.0
  outer loop
    vertex -5.1563580691135975 29.553544143860094 1.9999999999999998
    vertex 2.66836064615821 29.881095218583177 0.0
    vertex -5.1563580691135975 29.553544143860094 0.0
  endloop
endfacet
facet normal -0.04182443757736036 0.9991249753766231 0.0
  outer loop
    vertex 2.66836064615821 29.881095218583177 0.0
    vertex -5.1563580691135975 29.553544143860094 1.9999999999999998
    vertex 2.66836064615821 29.881095218583177 1.9999999999999998
  endloop
endfacet
facet normal 0.21819326763907085 0.9759055784024318 0.0
  outer loop
    vertex 2.66836064615821 29.881095218583177 1.9999999999999998
    vertex 10.311234993068789 28.172299035004468 0.0
    vertex 2.66836064615821 29.881095218583177 0.0
  endloop
endfacet
facet normal 0.21819326763907085 0.9759055784024318 0.0
  outer loop
    vertex 10.311234993068789 28.172299035004468 0.0
    vertex 2.66836064615821 29.881095218583177 1.9999999999999998
    vertex 10.311234993068789 28.172299035004468 1.9999999999999998
  endloop
endfacet
facet normal 0.4633414622473213 0.8861798290203374 0.0
  outer loop
    vertex 10.311234993068789 28.172299035004468 1.9999999999999998
    vertex 17.251415715323255 24.543607229115647 0.0
    vertex 10.311234993068789 28.172299035004468 0.0
  endloop
endfacet
facet normal 0.4633414622473213 0.8861798290203374 0.0
  outer loop
    vertex 17.251415715323255 24.543607229115647 0.0
    vertex 10.311234993068789 28.172299035004468 1.9999999999999998
    vertex 17.251415715323255 24.543607229115647 1.9999999999999998
  endloop
endfacet
facet normal 0.6769137019113881 0.7360623887719169 0.0
  outer loop
    vertex 17.251415715323255 24.543607229115647 1.9999999999999998
    vertex 23.015940965890863 19.2423091507913 0.0
    vertex 17.251415715323255 24.543607229115647 0.0
  endloop
endfacet
facet normal 0.6769137019113881 0.7360623887719169 0.0
  outer loop
    vertex 23.015940965890863 19.2423091507913 0.0
    vertex 17.251415715323255 24.543607229115647 1.9999999999999998
    vertex 23.015940965890863 19.2423091507913 1.9999999999999998
  endloop
endfacet
facet normal 0.8443553914429771 0.5357835131293022 0.0
  outer loop
    vertex 23.015940965890863 19.2423091507913 0.0
    vertex 27.21196787527385 12.629679503259926 1.9999999999999998
    vertex 27.21196787527385 12.629679503259926 0.0
  endloop
endfacet
facet normal 0.8443553914429771 0.5357835131293022 0.0
  outer loop
    vertex 27.21196787527385 12.629679503259926 1.9999999999999998
    vertex 23.015940965890863 19.2423091507913 0.0
    vertex 23.015940965890863 19.2423091507913 1.9999999999999998
  endloop
endfacet
facet normal 0.9542556564109872 0.29899187649104453 0.0
  outer loop
    vertex 27.21196787527385 12.629679503259926 0.0
    vertex 29.553544143860094 5.156358069113599 1.9999999999999998
    vertex 29.553544143860094 5.156358069113599 0.0
  endloop
endfacet
facet normal 0.9542556564109872 0.29899187649104453 0.0
  outer loop
    vertex 29.553544143860094 5.156358069113599 1.9999999999999998
    vertex 27.21196787527385 12.629679503259926 0.0
    vertex 27.21196787527385 12.629679503259926 1.9999999999999998
  endloop
endfacet
facet normal 0.9991249753766231 0.04182443757735967 0.0
  outer loop
    vertex 29.553544143860094 5.156358069113599 0.0
    vertex 29.881095218583173 -2.6683606461582015 1.9999999999999998
    vertex 29.881095218583173 -2.6683606461582015 0.0
  endloop
endfacet
facet normal 0.9991249753766231 0.04182443757735967 0.0
  outer loop
    vertex 29.881095218583173 -2.6683606461582015 1.9999999999999998
    vertex 29.553544143860094 5.156358069113599 0.0
    vertex 29.553544143860094 5.156358069113599 1.9999999999999998
  endloop
endfacet
facet normal 0.975905578402432 -0.2181932676390699 0.0
  outer loop
    vertex 29.881095218583173 -2.6683606461582015 0.0
    vertex 28.172299035004468 -10.311234993068789 1.9999999999999998
    vertex 28.172299035004468 -10.311234993068789 0.0
  endloop
endfacet
facet normal 0.975905578402432 -0.2181932676390699 0.0
  outer loop
    vertex 28.172299035004468 -10.311234993068789 1.9999999999999998
    vertex 29.881095218583173 -2.6683606461582015 0.0
    vertex 29.881095218583173 -2.6683606461582015 1.9999999999999998
  endloop
endfacet
facet normal 0.8861798290203374 -0.46334146224732115 0.0
  outer loop
    vertex 28.172299035004468 -10.311234993068789 0.0
    vertex 24.54360722911565 -17.25141571532325 1.9999999999999998
    vertex 24.54360722911565 -17.25141571532325 0.0
  endloop
endfacet
facet normal 0.8861798290203374 -0.46334146224732115 0.0
  outer loop
    vertex 24.54360722911565 -17.25141571532325 1.9999999999999998
    vertex 28.172299035004468 -10.311234993068789 0.0
    vertex 28.172299035004468 -10.311234993068789 1.9999999999999998
  endloop
endfacet
facet normal 0.736062388771917 -0.6769137019113879 0.0
  outer loop
    vertex 24.54360722911565 -17.25141571532325 0.0
    vertex 19.242309150791304 -23.015940965890863 1.9999999999999998
    vertex 19.242309150791304 -23.015940965890863 0.0
  endloop
endfacet
facet normal 0.736062388771917 -0.6769137019113879 0.0
  outer loop
    vertex 19.242309150791304 -23.015940965890863 1.9999999999999998
    vertex 24.54360722911565 -17.25141571532325 0.0
    vertex 24.54360722911565 -17.25141571532325 1.9999999999999998
  endloop
endfacet
facet normal 0.923879532511287 -0.38268343236508917 -0.0
  outer loop
    vertex 3.1277120886451226 3.525721140010316 3.1724622928663847e-15
    vertex 2.228361831761138 1.3544975525172696 1.9999999999999998
    vertex 2.228361831761138 1.3544975525172696 3.1724622928663847e-15
  endloop
endfacet
facet normal 0.923879532511287 -0.38268343236508917 -0.0
  outer loop
    vertex 2.228361831761138 1.3544975525172696 1.9999999999999998
    vertex 3.1277120886451226 3.525721140010316 3.1724622928663847e-15
    vertex 3.1277120886451226 3.525721140010316 1.9999999999999998
  endloop
endfacet
facet normal 0.9914448613738106 -0.1305261922200514 -0.0
  outer loop
    vertex 2.228361831761138 1.3544975525172696 3.1724622928663847e-15
    vertex 1.9216102073762087 -0.9755123599896821 1.9999999999999998
    vertex 1.9216102073762087 -0.9755123599896821 3.1724622928663847e-15
  endloop
endfacet
facet normal 0.9914448613738106 -0.1305261922200514 -0.0
  outer loop
    vertex 1.9216102073762087 -0.9755123599896821 1.9999999999999998
    vertex 2.228361831761138 1.3544975525172696 3.1724622928663847e-15
    vertex 2.228361831761138 1.3544975525172696 1.9999999999999998
  endloop
endfacet
facet normal 0.9914448613738104 0.13052619222005177 0.0
  outer loop
    vertex 1.9216102073762087 -0.9755123599896821 3.1724622928663847e-15
    vertex 2.2283618317611396 -3.3055222724966375 1.9999999999999998
    vertex 2.2283618317611396 -3.3055222724966375 3.1724622928663847e-15
  endloop
endfacet
facet normal 0.9914448613738104 0.13052619222005177 0.0
  outer loop
    vertex 2.2283618317611396 -3.3055222724966375 1.9999999999999998
    vertex 1.9216102073762087 -0.9755123599896821 3.1724622928663847e-15
    vertex 1.9216102073762087 -0.9755123599896821 1.9999999999999998
  endloop
endfacet
facet normal 0.9238795325112867 0.3826834323650899 0.0
  outer loop
    vertex 2.2283618317611396 -3.3055222724966375 3.1724622928663847e-15
    vertex 3.1277120886451253 -5.476745859989682 1.9999999999999998
    vertex 3.1277120886451253 -5.476745859989682 3.1724622928663847e-15
  endloop
endfacet
facet normal 0.9238795325112867 0.3826834323650899 0.0
  outer loop
    vertex 3.1277120886451253 -5.476745859989682 1.9999999999999998
    vertex 2.2283618317611396 -3.3055222724966375 3.1724622928663847e-15
    vertex 2.2283618317611396 -3.3055222724966375 1.9999999999999998
  endloop
endfacet
facet normal 0.793353340291235 0.6087614290087209 0.0
  outer loop
    vertex 3.1277120886451253 -5.476745859989682 3.1724622928663847e-15
    vertex 4.5583717442680936 -7.341217823097796 1.9999999999999998
    vertex 4.5583717442680936 -7.341217823097796 3.1724622928663847e-15
  endloop
endfacet
facet normal 0.793353340291235 0.6087614290087209 0.0
  outer loop
    vertex 4.5583717442680936 -7.341217823097796 1.9999999999999998
    vertex 3.1277120886451253 -5.476745859989682 3.1724622928663847e-15
    vertex 3.1277120886451253 -5.476745859989682 1.9999999999999998
  endloop
endfacet
facet normal 0.6087614290087204 0.7933533402912353 0.0
  outer loop
    vertex 4.5583717442680936 -7.341217823097796 1.9999999999999998
    vertex 6.4228437073762095 -8.771877478720764 3.1724622928663847e-15
    vertex 4.5583717442680936 -7.341217823097796 3.1724622928663847e-15
  endloop
endfacet
facet normal 0.6087614290087204 0.7933533402912353 0.0
  outer loop
    vertex 6.4228437073762095 -8.771877478720764 3.1724622928663847e-15
    vertex 4.5583717442680936 -7.341217823097796 1.9999999999999998
    vertex 6.4228437073762095 -8.771877478720764 1.9999999999999998
  endloop
endfacet
facet normal 0.3826834323650898 0.923879532511287 0.0
  outer loop
    vertex 6.4228437073762095 -8.771877478720764 1.9999999999999998
    vertex 8.594067294869253 -9.67122773560475 3.1724622928663847e-15
    vertex 6.4228437073762095 -8.771877478720764 3.1724622928663847e-15
  endloop
endfacet
facet normal 0.3826834323650898 0.923879532511287 0.0
  outer loop
    vertex 8.594067294869253 -9.67122773560475 3.1724622928663847e-15
    vertex 6.4228437073762095 -8.771877478720764 1.9999999999999998
    vertex 8.594067294869253 -9.67122773560475 1.9999999999999998
  endloop
endfacet
facet normal 0.13052619222005135 0.9914448613738105 0.0
  outer loop
    vertex 8.594067294869253 -9.67122773560475 1.9999999999999998
    vertex 10.924077207376206 -9.977979359989678 3.1724622928663847e-15
    vertex 8.594067294869253 -9.67122773560475 3.1724622928663847e-15
  endloop
endfacet
facet normal 0.13052619222005135 0.9914448613738105 0.0
  outer loop
    vertex 10.924077207376206 -9.977979359989678 3.1724622928663847e-15
    vertex 8.594067294869253 -9.67122773560475 1.9999999999999998
    vertex 10.924077207376206 -9.977979359989678 1.9999999999999998
  endloop
endfacet
facet normal -0.13052619222005177 0.9914448613738104 -0.0
  outer loop
    vertex 10.924077207376206 -9.977979359989678 1.9999999999999998
    vertex 13.254087119883161 -9.671227735604749 3.1724622928663847e-15
    vertex 10.924077207376206 -9.977979359989678 3.1724622928663847e-15
  endloop
endfacet
facet normal -0.13052619222005177 0.9914448613738104 -0.0
  outer loop
    vertex 13.254087119883161 -9.671227735604749 3.1724622928663847e-15
    vertex 10.924077207376206 -9.977979359989678 1.9999999999999998
    vertex 13.254087119883161 -9.671227735604749 1.9999999999999998
  endloop
endfacet
facet normal -0.38268343236509034 0.9238795325112867 -0.0
  outer loop
    vertex 13.254087119883161 -9.671227735604749 1.9999999999999998
    vertex 15.425310707376203 -8.771877478720763 3.1724622928663847e-15
    vertex 13.254087119883161 -9.671227735604749 3.1724622928663847e-15
  endloop
endfacet
facet normal -0.38268343236509034 0.9238795325112867 -0.0
  outer loop
    vertex 15.425310707376203 -8.771877478720763 3.1724622928663847e-15
    vertex 13.254087119883161 -9.671227735604749 1.9999999999999998
    vertex 15.425310707376203 -8.771877478720763 1.9999999999999998
  endloop
endfacet
facet normal -0.6087614290087204 0.7933533402912355 -0.0
  outer loop
    vertex 15.425310707376203 -8.771877478720763 1.9999999999999998
    vertex 17.289782670484318 -7.341217823097794 3.1724622928663847e-15
    vertex 15.425310707376203 -8.771877478720763 3.1724622928663847e-15
  endloop
endfacet
facet normal -0.6087614290087204 0.7933533402912355 -0.0
  outer loop
    vertex 17.289782670484318 -7.341217823097794 3.1724622928663847e-15
    vertex 15.425310707376203 -8.771877478720763 1.9999999999999998
    vertex 17.289782670484318 -7.341217823097794 1.9999999999999998
  endloop
endfacet
facet normal -0.793353340291235 0.6087614290087208 -0.0
  outer loop
    vertex 18.72044232610729 -5.47674585998968 1.9999999999999998
    vertex 17.289782670484318 -7.341217823097794 3.1724622928663847e-15
    vertex 17.289782670484318 -7.341217823097794 1.9999999999999998
  endloop
endfacet
facet normal -0.793353340291235 0.6087614290087208 -0.0
  outer loop
    vertex 17.289782670484318 -7.341217823097794 3.1724622928663847e-15
    vertex 18.72044232610729 -5.47674585998968 1.9999999999999998
    vertex 18.72044232610729 -5.47674585998968 3.1724622928663847e-15
  endloop
endfacet
facet normal -0.923879532511287 0.38268343236508956 -0.0
  outer loop
    vertex 19.619792582991273 -3.305522272496635 1.9999999999999998
    vertex 18.72044232610729 -5.47674585998968 3.1724622928663847e-15
    vertex 18.72044232610729 -5.47674585998968 1.9999999999999998
  endloop
endfacet
facet normal -0.923879532511287 0.38268343236508956 -0.0
  outer loop
    vertex 18.72044232610729 -5.47674585998968 3.1724622928663847e-15
    vertex 19.619792582991273 -3.305522272496635 1.9999999999999998
    vertex 19.619792582991273 -3.305522272496635 3.1724622928663847e-15
  endloop
endfacet
facet normal -0.9914448613738105 0.13052619222005185 -0.0
  outer loop
    vertex 19.926544207376203 -0.9755123599896811 1.9999999999999998
    vertex 19.619792582991273 -3.305522272496635 3.1724622928663847e-15
    vertex 19.619792582991273 -3.305522272496635 1.9999999999999998
  endloop
endfacet
facet normal -0.9914448613738105 0.13052619222005185 -0.0
  outer loop
    vertex 19.619792582991273 -3.305522272496635 3.1724622928663847e-15
    vertex 19.926544207376203 -0.9755123599896811 1.9999999999999998
    vertex 19.926544207376203 -0.9755123599896811 3.1724622928663847e-15
  endloop
endfacet
facet normal -0.9914448613738104 -0.13052619222005266 -0.0
  outer loop
    vertex 19.61979258299127 1.35449755251728 1.9999999999999998
    vertex 19.926544207376203 -0.9755123599896811 3.1724622928663847e-15
    vertex 19.926544207376203 -0.9755123599896811 1.9999999999999998
  endloop
endfacet
facet normal -0.9914448613738104 -0.13052619222005266 -0.0
  outer loop
    vertex 19.926544207376203 -0.9755123599896811 3.1724622928663847e-15
    vertex 19.61979258299127 1.35449755251728 1.9999999999999998
    vertex 19.61979258299127 1.35449755251728 3.1724622928663847e-15
  endloop
endfacet
facet normal -0.9238795325112863 -0.3826834323650908 -0.0
  outer loop
    vertex 18.720442326107282 3.5257211400103223 1.9999999999999998
    vertex 19.61979258299127 1.35449755251728 3.1724622928663847e-15
    vertex 19.61979258299127 1.35449755251728 1.9999999999999998
  endloop
endfacet
facet normal -0.9238795325112863 -0.3826834323650908 -0.0
  outer loop
    vertex 19.61979258299127 1.35449755251728 3.1724622928663847e-15
    vertex 18.720442326107282 3.5257211400103223 1.9999999999999998
    vertex 18.720442326107282 3.5257211400103223 3.1724622928663847e-15
  endloop
endfacet
facet normal -0.7933533402912358 -0.6087614290087201 -0.0
  outer loop
    vertex 17.289782670484318 5.390193103118434 1.9999999999999998
    vertex 18.720442326107282 3.5257211400103223 3.1724622928663847e-15
    vertex 18.720442326107282 3.5257211400103223 1.9999999999999998
  endloop
endfacet
facet normal -0.7933533402912358 -0.6087614290087201 -0.0
  outer loop
    vertex 18.720442326107282 3.5257211400103223 3.1724622928663847e-15
    vertex 17.289782670484318 5.390193103118434 1.9999999999999998
    vertex 17.289782670484318 5.390193103118434 3.1724622928663847e-15
  endloop
endfacet
facet normal -0.60876142900872 -0.7933533402912358 -0.0
  outer loop
    vertex 17.289782670484318 5.390193103118434 1.9999999999999998
    vertex 15.425310707376198 6.820852758741404 3.1724622928663847e-15
    vertex 17.289782670484318 5.390193103118434 3.1724622928663847e-15
  endloop
endfacet
facet normal -0.60876142900872 -0.7933533402912358 -0.0
  outer loop
    vertex 15.425310707376198 6.820852758741404 3.1724622928663847e-15
    vertex 17.289782670484318 5.390193103118434 1.9999999999999998
    vertex 15.425310707376198 6.820852758741404 1.9999999999999998
  endloop
endfacet
facet normal -0.38268343236508917 -0.923879532511287 -0.0
  outer loop
    vertex 15.425310707376198 6.820852758741404 1.9999999999999998
    vertex 13.254087119883154 7.720203015625388 3.1724622928663847e-15
    vertex 15.425310707376198 6.820852758741404 3.1724622928663847e-15
  endloop
endfacet
facet normal -0.38268343236508917 -0.923879532511287 -0.0
  outer loop
    vertex 13.254087119883154 7.720203015625388 3.1724622928663847e-15
    vertex 15.425310707376198 6.820852758741404 1.9999999999999998
    vertex 13.254087119883154 7.720203015625388 1.9999999999999998
  endloop
endfacet
facet normal -0.13052619222005143 -0.9914448613738106 -0.0
  outer loop
    vertex 13.254087119883154 7.720203015625388 1.9999999999999998
    vertex 10.924077207376204 8.026954640010317 3.1724622928663847e-15
    vertex 13.254087119883154 7.720203015625388 3.1724622928663847e-15
  endloop
endfacet
facet normal -0.13052619222005143 -0.9914448613738106 -0.0
  outer loop
    vertex 10.924077207376204 8.026954640010317 3.1724622928663847e-15
    vertex 13.254087119883154 7.720203015625388 1.9999999999999998
    vertex 10.924077207376204 8.026954640010317 1.9999999999999998
  endloop
endfacet
facet normal 0.13052619222005213 -0.9914448613738105 -0.0
  outer loop
    vertex 10.924077207376204 8.026954640010317 1.9999999999999998
    vertex 8.594067294869244 7.720203015625385 3.1724622928663847e-15
    vertex 10.924077207376204 8.026954640010317 3.1724622928663847e-15
  endloop
endfacet
facet normal 0.13052619222005213 -0.9914448613738105 -0.0
  outer loop
    vertex 8.594067294869244 7.720203015625385 3.1724622928663847e-15
    vertex 10.924077207376204 8.026954640010317 1.9999999999999998
    vertex 8.594067294869244 7.720203015625385 1.9999999999999998
  endloop
endfacet
facet normal 0.3826834323650905 -0.9238795325112866 -0.0
  outer loop
    vertex 8.594067294869244 7.720203015625385 1.9999999999999998
    vertex 6.422843707376202 6.820852758741399 3.1724622928663847e-15
    vertex 8.594067294869244 7.720203015625385 3.1724622928663847e-15
  endloop
endfacet
facet normal 0.3826834323650905 -0.9238795325112866 -0.0
  outer loop
    vertex 6.422843707376202 6.820852758741399 3.1724622928663847e-15
    vertex 8.594067294869244 7.720203015625385 1.9999999999999998
    vertex 6.422843707376202 6.820852758741399 1.9999999999999998
  endloop
endfacet
facet normal 0.6087614290087211 -0.793353340291235 -0.0
  outer loop
    vertex 6.422843707376202 6.820852758741399 1.9999999999999998
    vertex 4.558371744268089 5.390193103118429 3.1724622928663847e-15
    vertex 6.422843707376202 6.820852758741399 3.1724622928663847e-15
  endloop
endfacet
facet normal 0.6087614290087211 -0.793353340291235 -0.0
  outer loop
    vertex 4.558371744268089 5.390193103118429 3.1724622928663847e-15
    vertex 6.422843707376202 6.820852758741399 1.9999999999999998
    vertex 4.558371744268089 5.390193103118429 1.9999999999999998
  endloop
endfacet
facet normal 0.7933533402912356 -0.6087614290087203 -0.0
  outer loop
    vertex 4.558371744268089 5.390193103118429 3.1724622928663847e-15
    vertex 3.1277120886451226 3.525721140010316 1.9999999999999998
    vertex 3.1277120886451226 3.525721140010316 3.1724622928663847e-15
  endloop
endfacet
facet normal 0.7933533402912356 -0.6087614290087203 -0.0
  outer loop
    vertex 3.1277120886451226 3.525721140010316 1.9999999999999998
    vertex 4.558371744268089 5.390193103118429 3.1724622928663847e-15
    vertex 4.558371744268089 5.390193103118429 1.9999999999999998
  endloop
endfacet
facet normal -0.9945406661412378 -0.10434971677653501 -0.0
  outer loop
    vertex -4.091884074537123 13.85222238790285 1.9999999999999962
    vertex -3.755121051100862 10.642587211055385 -3.524958103184872e-15
    vertex -3.755121051100862 10.642587211055385 1.9999999999999962
  endloop
endfacet
facet normal -0.9945406661412378 -0.10434971677653501 -0.0
  outer loop
    vertex -3.755121051100862 10.642587211055385 -3.524958103184872e-15
    vertex -4.091884074537123 13.85222238790285 1.9999999999999962
    vertex -4.091884074537123 13.85222238790285 -3.524958103184872e-15
  endloop
endfacet
facet normal 0.15320855959710722 -0.9881938763553333 -0.0
  outer loop
    vertex -4.091884074537123 13.85222238790285 1.9999999999999962
    vertex -16.93755832058572 11.860642298832264 -3.524958103184872e-15
    vertex -4.091884074537123 13.85222238790285 -3.524958103184872e-15
  endloop
endfacet
facet normal 0.15320855959710722 -0.9881938763553333 -0.0
  outer loop
    vertex -16.93755832058572 11.860642298832264 -3.524958103184872e-15
    vertex -4.091884074537123 13.85222238790285 1.9999999999999962
    vertex -16.93755832058572 11.860642298832264 1.9999999999999962
  endloop
endfacet
facet normal 0.9919771690710424 0.1264171509005039 0.0
  outer loop
    vertex -16.93755832058572 11.860642298832264 -3.524958103184872e-15
    vertex -16.50931996907596 8.50031765464977 1.9999999999999962
    vertex -16.50931996907596 8.50031765464977 -3.524958103184872e-15
  endloop
endfacet
facet normal 0.9919771690710424 0.1264171509005039 0.0
  outer loop
    vertex -16.50931996907596 8.50031765464977 1.9999999999999962
    vertex -16.93755832058572 11.860642298832264 -3.524958103184872e-15
    vertex -16.93755832058572 11.860642298832264 1.9999999999999962
  endloop
endfacet
facet normal -0.1656454406157909 0.9861853720286062 -0.0
  outer loop
    vertex -16.50931996907596 8.50031765464977 1.9999999999999962
    vertex -3.755121051100862 10.642587211055385 -3.524958103184872e-15
    vertex -16.50931996907596 8.50031765464977 -3.524958103184872e-15
  endloop
endfacet
facet normal -0.1656454406157909 0.9861853720286062 -0.0
  outer loop
    vertex -3.755121051100862 10.642587211055385 -3.524958103184872e-15
    vertex -16.50931996907596 8.50031765464977 1.9999999999999962
    vertex -3.755121051100862 10.642587211055385 1.9999999999999962
  endloop
endfacet
facet normal -0.0 -0.0 1.0
  outer loop
    vertex -16.50931996907596 8.50031765464977 1.9999999999999962
    vertex -11.20254012484284 -10.742075749431153 1.9999999999999962
    vertex -3.755121051100862 10.642587211055385 1.9999999999999962
  endloop
endfacet
facet normal -0.0 -0.0 1.0
  outer loop
    vertex -11.20254012484284 -10.742075749431153 1.9999999999999962
    vertex -16.50931996907596 8.50031765464977 1.9999999999999962
    vertex -11.600489000501323 -12.286898990293263 1.9999999999999962
  endloop
endfacet
facet normal -0.0 -0.0 1.0
  outer loop
    vertex -3.755121051100862 10.642587211055385 1.9999999999999962
    vertex -11.20254012484284 -10.742075749431153 1.9999999999999962
    vertex -10.418321352249501 -9.352887832028411 1.9999999999999962
  endloop
endfacet
facet normal -0.0 -0.0 1.0
  outer loop
    vertex -3.755121051100862 10.642587211055385 1.9999999999999962
    vertex -10.418321352249501 -9.352887832028411 1.9999999999999962
    vertex -9.301275896090743 -8.214006098914462 1.9999999999999962
  endloop
endfacet
facet normal -0.0 -0.0 1.0
  outer loop
    vertex -3.755121051100862 10.642587211055385 1.9999999999999962
    vertex -9.301275896090743 -8.214006098914462 1.9999999999999962
    vertex -7.9275285581988895 -7.403043458109958 1.9999999999999962
  endloop
endfacet
facet normal -0.0 -0.0 1.0
  outer loop
    vertex -3.755121051100862 10.642587211055385 1.9999999999999962
    vertex -7.9275285581988895 -7.403043458109958 1.9999999999999962
    vertex -6.3906979494264515 -6.975265673406605 1.9999999999999962
  endloop
endfacet
facet normal -0.0 -0.0 1.0
  outer loop
    vertex -3.755121051100862 10.642587211055385 1.9999999999999962
    vertex -6.3906979494264515 -6.975265673406605 1.9999999999999962
    vertex -4.795516536028613 -6.959825093895717 1.9999999999999962
  endloop
endfacet
facet normal -0.0 -0.0 1.0
  outer loop
    vertex -3.755121051100862 10.642587211055385 1.9999999999999962
    vertex -4.795516536028613 -6.959825093895717 1.9999999999999962
    vertex -3.2506932951664997 -7.357773969554203 1.9999999999999962
  endloop
endfacet
facet normal -0.0 -0.0 1.0
  outer loop
    vertex -17.25141571532327 -24.54360722911564 1.9999999999999998
    vertex -16.50931996907596 8.50031765464977 1.9999999999999962
    vertex -16.93755832058572 11.860642298832264 1.9999999999999962
  endloop
endfacet
facet normal -0.0 -0.0 1.0
  outer loop
    vertex -16.50931996907596 8.50031765464977 1.9999999999999962
    vertex -17.25141571532327 -24.54360722911564 1.9999999999999998
    vertex -10.311234993068792 -28.172299035004468 1.9999999999999998
  endloop
endfacet
facet normal -0.0 -0.0 1.0
  outer loop
    vertex -16.50931996907596 8.50031765464977 1.9999999999999962
    vertex -10.311234993068792 -28.172299035004468 1.9999999999999998
    vertex -11.585048420990438 -13.882080403691106 1.9999999999999962
  endloop
endfacet
facet normal -0.0 -0.0 1.0
  outer loop
    vertex -16.50931996907596 8.50031765464977 1.9999999999999962
    vertex -11.585048420990438 -13.882080403691106 1.9999999999999962
    vertex -11.600489000501323 -12.286898990293263 1.9999999999999962
  endloop
endfacet
facet normal -0.0 -0.0 1.0
  outer loop
    vertex -11.585048420990438 -13.882080403691106 1.9999999999999962
    vertex -10.311234993068792 -28.172299035004468 1.9999999999999998
    vertex -11.157270636287086 -15.418911012463541 1.9999999999999962
  endloop
endfacet
facet normal -0.0 -0.0 1.0
  outer loop
    vertex -11.157270636287086 -15.418911012463541 1.9999999999999962
    vertex -10.311234993068792 -28.172299035004468 1.9999999999999998
    vertex -10.346307995482581 -16.7926583503554 1.9999999999999962
  endloop
endfacet
facet normal -0.0 -0.0 1.0
  outer loop
    vertex -10.346307995482581 -16.7926583503554 1.9999999999999962
    vertex -10.311234993068792 -28.172299035004468 1.9999999999999998
    vertex -9.207426262368632 -17.909703806514155 1.9999999999999962
  endloop
endfacet
facet normal -0.0 -0.0 1.0
  outer loop
    vertex -9.207426262368632 -17.909703806514155 1.9999999999999962
    vertex -10.311234993068792 -28.172299035004468 1.9999999999999998
    vertex -2.668360646158215 -29.881095218583173 1.9999999999999998
  endloop
endfacet
facet normal -0.0 -0.0 1.0
  outer loop
    vertex -9.207426262368632 -17.909703806514155 1.9999999999999962
    vertex -2.668360646158215 -29.881095218583173 1.9999999999999998
    vertex -7.818238344965893 -18.693922579107493 1.9999999999999962
  endloop
endfacet
facet normal -0.0 -0.0 1.0
  outer loop
    vertex -7.818238344965893 -18.693922579107493 1.9999999999999962
    vertex -2.668360646158215 -29.881095218583173 1.9999999999999998
    vertex -6.273415104103778 -19.09187145476598 1.9999999999999962
  endloop
endfacet
facet normal -0.0 -0.0 1.0
  outer loop
    vertex -6.273415104103778 -19.09187145476598 1.9999999999999962
    vertex -2.668360646158215 -29.881095218583173 1.9999999999999998
    vertex -4.678233690705938 -19.07643087525509 1.9999999999999962
  endloop
endfacet
facet normal -0.0 -0.0 1.0
  outer loop
    vertex -4.678233690705938 -19.07643087525509 1.9999999999999962
    vertex -2.668360646158215 -29.881095218583173 1.9999999999999998
    vertex -3.1414030819335026 -18.64865309055174 1.9999999999999962
  endloop
endfacet
facet normal -0.0 -0.0 1.0
  outer loop
    vertex -3.1414030819335026 -18.64865309055174 1.9999999999999962
    vertex -2.668360646158215 -29.881095218583173 1.9999999999999998
    vertex -1.7676557440416447 -17.837690449747235 1.9999999999999962
  endloop
endfacet
facet normal -0.0 -0.0 1.0
  outer loop
    vertex -1.7676557440416447 -17.837690449747235 1.9999999999999962
    vertex -2.668360646158215 -29.881095218583173 1.9999999999999998
    vertex 5.156358069113582 -29.553544143860094 1.9999999999999998
  endloop
endfacet
facet normal -0.0 -0.0 1.0
  outer loop
    vertex -1.7676557440416447 -17.837690449747235 1.9999999999999962
    vertex 5.156358069113582 -29.553544143860094 1.9999999999999998
    vertex -0.6506102878828877 -16.698808716633284 1.9999999999999962
  endloop
endfacet
facet normal -0.0 -0.0 1.0
  outer loop
    vertex -0.6506102878828877 -16.698808716633284 1.9999999999999962
    vertex 5.156358069113582 -29.553544143860094 1.9999999999999998
    vertex 0.1336084847104523 -15.309620799230544 1.9999999999999962
  endloop
endfacet
facet normal -0.0 -0.0 1.0
  outer loop
    vertex 0.1336084847104523 -15.309620799230544 1.9999999999999962
    vertex 5.156358069113582 -29.553544143860094 1.9999999999999998
    vertex 0.531557360368936 -13.76479755836843 1.9999999999999962
  endloop
endfacet
facet normal -0.0 -0.0 1.0
  outer loop
    vertex 0.531557360368936 -13.76479755836843 1.9999999999999962
    vertex 5.156358069113582 -29.553544143860094 1.9999999999999998
    vertex 1.9216102073762087 -0.9755123599896821 1.9999999999999998
  endloop
endfacet
facet normal -0.0 -0.0 1.0
  outer loop
    vertex 1.9216102073762087 -0.9755123599896821 1.9999999999999998
    vertex 5.156358069113582 -29.553544143860094 1.9999999999999998
    vertex 2.2283618317611396 -3.3055222724966375 1.9999999999999998
  endloop
endfacet
facet normal -0.0 -0.0 1.0
  outer loop
    vertex 2.2283618317611396 -3.3055222724966375 1.9999999999999998
    vertex 5.156358069113582 -29.553544143860094 1.9999999999999998
    vertex 3.1277120886451253 -5.476745859989682 1.9999999999999998
  endloop
endfacet
facet normal -0.0 -0.0 1.0
  outer loop
    vertex 3.1277120886451253 -5.476745859989682 1.9999999999999998
    vertex 5.156358069113582 -29.553544143860094 1.9999999999999998
    vertex 4.5583717442680936 -7.341217823097796 1.9999999999999998
  endloop
endfacet
facet normal -0.0 -0.0 1.0
  outer loop
    vertex 4.5583717442680936 -7.341217823097796 1.9999999999999998
    vertex 5.156358069113582 -29.553544143860094 1.9999999999999998
    vertex 6.4228437073762095 -8.771877478720764 1.9999999999999998
  endloop
endfacet
facet normal -0.0 -0.0 1.0
  outer loop
    vertex 6.4228437073762095 -8.771877478720764 1.9999999999999998
    vertex 5.156358069113582 -29.553544143860094 1.9999999999999998
    vertex 12.629679503259927 -27.21196787527385 1.9999999999999998
  endloop
endfacet
facet normal -0.0 -0.0 1.0
  outer loop
    vertex 6.4228437073762095 -8.771877478720764 1.9999999999999998
    vertex 12.629679503259927 -27.21196787527385 1.9999999999999998
    vertex 8.594067294869253 -9.67122773560475 1.9999999999999998
  endloop
endfacet
facet normal -0.0 -0.0 1.0
  outer loop
    vertex 8.594067294869253 -9.67122773560475 1.9999999999999998
    vertex 12.629679503259927 -27.21196787527385 1.9999999999999998
    vertex 10.924077207376206 -9.977979359989678 1.9999999999999998
  endloop
endfacet
facet normal -0.0 -0.0 1.0
  outer loop
    vertex 10.924077207376206 -9.977979359989678 1.9999999999999998
    vertex 12.629679503259927 -27.21196787527385 1.9999999999999998
    vertex 13.254087119883161 -9.671227735604749 1.9999999999999998
  endloop
endfacet
facet normal -0.0 -0.0 1.0
  outer loop
    vertex 13.254087119883161 -9.671227735604749 1.9999999999999998
    vertex 12.629679503259927 -27.21196787527385 1.9999999999999998
    vertex 19.242309150791304 -23.015940965890863 1.9999999999999998
  endloop
endfacet
facet normal -0.0 -0.0 1.0
  outer loop
    vertex 13.254087119883161 -9.671227735604749 1.9999999999999998
    vertex 19.242309150791304 -23.015940965890863 1.9999999999999998
    vertex 15.425310707376203 -8.771877478720763 1.9999999999999998
  endloop
endfacet
facet normal -0.0 -0.0 1.0
  outer loop
    vertex 15.425310707376203 -8.771877478720763 1.9999999999999998
    vertex 19.242309150791304 -23.015940965890863 1.9999999999999998
    vertex 17.289782670484318 -7.341217823097794 1.9999999999999998
  endloop
endfacet
facet normal -0.0 -0.0 1.0
  outer loop
    vertex 17.289782670484318 -7.341217823097794 1.9999999999999998
    vertex 19.242309150791304 -23.015940965890863 1.9999999999999998
    vertex 18.72044232610729 -5.47674585998968 1.9999999999999998
  endloop
endfacet
facet normal -0.0 -0.0 1.0
  outer loop
    vertex 18.72044232610729 -5.47674585998968 1.9999999999999998
    vertex 19.242309150791304 -23.015940965890863 1.9999999999999998
    vertex 19.619792582991273 -3.305522272496635 1.9999999999999998
  endloop
endfacet
facet normal -0.0 -0.0 1.0
  outer loop
    vertex 19.619792582991273 -3.305522272496635 1.9999999999999998
    vertex 19.242309150791304 -23.015940965890863 1.9999999999999998
    vertex 24.54360722911565 -17.25141571532325 1.9999999999999998
  endloop
endfacet
facet normal -0.0 -0.0 1.0
  outer loop
    vertex 19.619792582991273 -3.305522272496635 1.9999999999999998
    vertex 24.54360722911565 -17.25141571532325 1.9999999999999998
    vertex 19.926544207376203 -0.9755123599896811 1.9999999999999998
  endloop
endfacet
facet normal -0.0 -0.0 1.0
  outer loop
    vertex 19.926544207376203 -0.9755123599896811 1.9999999999999998
    vertex 24.54360722911565 -17.25141571532325 1.9999999999999998
    vertex 23.015940965890863 19.2423091507913 1.9999999999999998
  endloop
endfacet
facet normal -0.0 -0.0 1.0
  outer loop
    vertex 23.015940965890863 19.2423091507913 1.9999999999999998
    vertex 24.54360722911565 -17.25141571532325 1.9999999999999998
    vertex 27.21196787527385 12.629679503259926 1.9999999999999998
  endloop
endfacet
facet normal -0.0 -0.0 1.0
  outer loop
    vertex 27.21196787527385 12.629679503259926 1.9999999999999998
    vertex 24.54360722911565 -17.25141571532325 1.9999999999999998
    vertex 28.172299035004468 -10.311234993068789 1.9999999999999998
  endloop
endfacet
facet normal -0.0 -0.0 1.0
  outer loop
    vertex 27.21196787527385 12.629679503259926 1.9999999999999998
    vertex 28.172299035004468 -10.311234993068789 1.9999999999999998
    vertex 29.553544143860094 5.156358069113599 1.9999999999999998
  endloop
endfacet
facet normal -0.0 -0.0 1.0
  outer loop
    vertex 29.553544143860094 5.156358069113599 1.9999999999999998
    vertex 28.172299035004468 -10.311234993068789 1.9999999999999998
    vertex 29.881095218583173 -2.6683606461582015 1.9999999999999998
  endloop
endfacet
facet normal -0.0 -0.0 1.0
  outer loop
    vertex -29.553544143860094 -5.156358069113585 1.9999999999999998
    vertex -28.172299035004464 10.311234993068803 1.9999999999999998
    vertex -29.881095218583173 2.668360646158215 1.9999999999999998
  endloop
endfacet
facet normal -0.0 -0.0 1.0
  outer loop
    vertex -28.172299035004464 10.311234993068803 1.9999999999999998
    vertex -29.553544143860094 -5.156358069113585 1.9999999999999998
    vertex -27.21196787527385 -12.629679503259922 1.9999999999999998
  endloop
endfacet
facet normal -0.0 -0.0 1.0
  outer loop
    vertex -28.172299035004464 10.311234993068803 1.9999999999999998
    vertex -27.21196787527385 -12.629679503259922 1.9999999999999998
    vertex -24.543607229115647 17.251415715323255 1.9999999999999998
  endloop
endfacet
facet normal -0.0 -0.0 1.0
  outer loop
    vertex -24.543607229115647 17.251415715323255 1.9999999999999998
    vertex -27.21196787527385 -12.629679503259922 1.9999999999999998
    vertex -23.015940965890874 -19.242309150791293 1.9999999999999998
  endloop
endfacet
facet normal -0.0 -0.0 1.0
  outer loop
    vertex -24.543607229115647 17.251415715323255 1.9999999999999998
    vertex -23.015940965890874 -19.242309150791293 1.9999999999999998
    vertex -19.242309150791293 23.015940965890874 1.9999999999999998
  endloop
endfacet
facet normal -0.0 -0.0 1.0
  outer loop
    vertex -19.242309150791293 23.015940965890874 1.9999999999999998
    vertex -23.015940965890874 -19.242309150791293 1.9999999999999998
    vertex -17.25141571532327 -24.54360722911564 1.9999999999999998
  endloop
endfacet
facet normal -0.0 -0.0 1.0
  outer loop
    vertex -19.242309150791293 23.015940965890874 1.9999999999999998
    vertex -17.25141571532327 -24.54360722911564 1.9999999999999998
    vertex -16.93755832058572 11.860642298832264 1.9999999999999962
  endloop
endfacet
facet normal -0.0 -0.0 1.0
  outer loop
    vertex -19.242309150791293 23.015940965890874 1.9999999999999998
    vertex -16.93755832058572 11.860642298832264 1.9999999999999962
    vertex -12.629679503259926 27.21196787527385 1.9999999999999998
  endloop
endfacet
facet normal -0.0 -0.0 1.0
  outer loop
    vertex -12.629679503259926 27.21196787527385 1.9999999999999998
    vertex -16.93755832058572 11.860642298832264 1.9999999999999962
    vertex -4.091884074537123 13.85222238790285 1.9999999999999962
  endloop
endfacet
facet normal -0.0 -0.0 1.0
  outer loop
    vertex -12.629679503259926 27.21196787527385 1.9999999999999998
    vertex -4.091884074537123 13.85222238790285 1.9999999999999962
    vertex -5.1563580691135975 29.553544143860094 1.9999999999999998
  endloop
endfacet
facet normal -0.0 -0.0 1.0
  outer loop
    vertex -5.1563580691135975 29.553544143860094 1.9999999999999998
    vertex -4.091884074537123 13.85222238790285 1.9999999999999962
    vertex 2.66836064615821 29.881095218583177 1.9999999999999998
  endloop
endfacet
facet normal -0.0 -0.0 1.0
  outer loop
    vertex 2.66836064615821 29.881095218583177 1.9999999999999998
    vertex -4.091884074537123 13.85222238790285 1.9999999999999962
    vertex -3.755121051100862 10.642587211055385 1.9999999999999962
  endloop
endfacet
facet normal -0.0 -0.0 1.0
  outer loop
    vertex 2.66836064615821 29.881095218583177 1.9999999999999998
    vertex -3.755121051100862 10.642587211055385 1.9999999999999962
    vertex -3.2506932951664997 -7.357773969554203 1.9999999999999962
  endloop
endfacet
facet normal -0.0 -0.0 1.0
  outer loop
    vertex 2.66836064615821 29.881095218583177 1.9999999999999998
    vertex -3.2506932951664997 -7.357773969554203 1.9999999999999962
    vertex -1.8615053777637605 -8.141992742147542 1.9999999999999962
  endloop
endfacet
facet normal -0.0 -0.0 1.0
  outer loop
    vertex 2.66836064615821 29.881095218583177 1.9999999999999998
    vertex -1.8615053777637605 -8.141992742147542 1.9999999999999962
    vertex -0.7226236446498079 -9.259038198306298 1.9999999999999962
  endloop
endfacet
facet normal -0.0 -0.0 1.0
  outer loop
    vertex 2.66836064615821 29.881095218583177 1.9999999999999998
    vertex -0.7226236446498079 -9.259038198306298 1.9999999999999962
    vertex 0.08833899615469548 -10.632785536198154 1.9999999999999962
  endloop
endfacet
facet normal -0.0 -0.0 1.0
  outer loop
    vertex 2.66836064615821 29.881095218583177 1.9999999999999998
    vertex 0.08833899615469548 -10.632785536198154 1.9999999999999962
    vertex 0.5161167808580487 -12.16961614497059 1.9999999999999962
  endloop
endfacet
facet normal -0.0 -0.0 1.0
  outer loop
    vertex 2.66836064615821 29.881095218583177 1.9999999999999998
    vertex 0.5161167808580487 -12.16961614497059 1.9999999999999962
    vertex 0.531557360368936 -13.76479755836843 1.9999999999999962
  endloop
endfacet
facet normal -0.0 -0.0 1.0
  outer loop
    vertex 2.66836064615821 29.881095218583177 1.9999999999999998
    vertex 0.531557360368936 -13.76479755836843 1.9999999999999962
    vertex 1.9216102073762087 -0.9755123599896821 1.9999999999999998
  endloop
endfacet
facet normal -0.0 -0.0 1.0
  outer loop
    vertex 2.66836064615821 29.881095218583177 1.9999999999999998
    vertex 1.9216102073762087 -0.9755123599896821 1.9999999999999998
    vertex 2.228361831761138 1.3544975525172696 1.9999999999999998
  endloop
endfacet
facet normal -0.0 -0.0 1.0
  outer loop
    vertex 2.66836064615821 29.881095218583177 1.9999999999999998
    vertex 2.228361831761138 1.3544975525172696 1.9999999999999998
    vertex 3.1277120886451226 3.525721140010316 1.9999999999999998
  endloop
endfacet
facet normal -0.0 -0.0 1.0
  outer loop
    vertex 2.66836064615821 29.881095218583177 1.9999999999999998
    vertex 3.1277120886451226 3.525721140010316 1.9999999999999998
    vertex 10.311234993068789 28.172299035004468 1.9999999999999998
  endloop
endfacet
facet normal -0.0 -0.0 1.0
  outer loop
    vertex 10.311234993068789 28.172299035004468 1.9999999999999998
    vertex 3.1277120886451226 3.525721140010316 1.9999999999999998
    vertex 4.558371744268089 5.390193103118429 1.9999999999999998
  endloop
endfacet
facet normal -0.0 -0.0 1.0
  outer loop
    vertex 10.311234993068789 28.172299035004468 1.9999999999999998
    vertex 4.558371744268089 5.390193103118429 1.9999999999999998
    vertex 6.422843707376202 6.820852758741399 1.9999999999999998
  endloop
endfacet
facet normal -0.0 -0.0 1.0
  outer loop
    vertex 10.311234993068789 28.172299035004468 1.9999999999999998
    vertex 6.422843707376202 6.820852758741399 1.9999999999999998
    vertex 8.594067294869244 7.720203015625385 1.9999999999999998
  endloop
endfacet
facet normal -0.0 -0.0 1.0
  outer loop
    vertex 10.311234993068789 28.172299035004468 1.9999999999999998
    vertex 8.594067294869244 7.720203015625385 1.9999999999999998
    vertex 10.924077207376204 8.026954640010317 1.9999999999999998
  endloop
endfacet
facet normal -0.0 -0.0 1.0
  outer loop
    vertex 10.311234993068789 28.172299035004468 1.9999999999999998
    vertex 10.924077207376204 8.026954640010317 1.9999999999999998
    vertex 17.251415715323255 24.543607229115647 1.9999999999999998
  endloop
endfacet
facet normal -0.0 -0.0 1.0
  outer loop
    vertex 17.251415715323255 24.543607229115647 1.9999999999999998
    vertex 10.924077207376204 8.026954640010317 1.9999999999999998
    vertex 13.254087119883154 7.720203015625388 1.9999999999999998
  endloop
endfacet
facet normal -0.0 -0.0 1.0
  outer loop
    vertex 17.251415715323255 24.543607229115647 1.9999999999999998
    vertex 13.254087119883154 7.720203015625388 1.9999999999999998
    vertex 15.425310707376198 6.820852758741404 1.9999999999999998
  endloop
endfacet
facet normal -0.0 -0.0 1.0
  outer loop
    vertex 17.251415715323255 24.543607229115647 1.9999999999999998
    vertex 15.425310707376198 6.820852758741404 1.9999999999999998
    vertex 17.289782670484318 5.390193103118434 1.9999999999999998
  endloop
endfacet
facet normal -0.0 -0.0 1.0
  outer loop
    vertex 17.251415715323255 24.543607229115647 1.9999999999999998
    vertex 17.289782670484318 5.390193103118434 1.9999999999999998
    vertex 23.015940965890863 19.2423091507913 1.9999999999999998
  endloop
endfacet
facet normal -0.0 -0.0 1.0
  outer loop
    vertex 23.015940965890863 19.2423091507913 1.9999999999999998
    vertex 17.289782670484318 5.390193103118434 1.9999999999999998
    vertex 18.720442326107282 3.5257211400103223 1.9999999999999998
  endloop
endfacet
facet normal -0.0 -0.0 1.0
  outer loop
    vertex 23.015940965890863 19.2423091507913 1.9999999999999998
    vertex 18.720442326107282 3.5257211400103223 1.9999999999999998
    vertex 19.61979258299127 1.35449755251728 1.9999999999999998
  endloop
endfacet
facet normal -0.0 -0.0 1.0
  outer loop
    vertex 23.015940965890863 19.2423091507913 1.9999999999999998
    vertex 19.61979258299127 1.35449755251728 1.9999999999999998
    vertex 19.926544207376203 -0.9755123599896811 1.9999999999999998
  endloop
endfacet
facet normal -0.0 -0.0 1.0
  outer loop
    vertex -10.346307995482581 -16.7926583503554 1.9999999999999962
    vertex -10.549029774304563 -12.958124425178413 1.9999999999999962
    vertex -11.157270636287086 -15.418911012463541 1.9999999999999962
  endloop
endfacet
facet normal -0.0 -0.0 1.0
  outer loop
    vertex -10.549029774304563 -12.958124425178413 1.9999999999999962
    vertex -10.346307995482581 -16.7926583503554 1.9999999999999962
    vertex -10.39486218185167 -14.25636581819976 1.9999999999999962
  endloop
endfacet
facet normal -0.0 -0.0 1.0
  outer loop
    vertex -10.39486218185167 -14.25636581819976 1.9999999999999962
    vertex -10.346307995482581 -16.7926583503554 1.9999999999999962
    vertex -9.909938125070257 -15.470469199412165 1.9999999999999962
  endloop
endfacet
facet normal -0.0 -0.0 1.0
  outer loop
    vertex -9.909938125070257 -15.470469199412165 1.9999999999999962
    vertex -10.346307995482581 -16.7926583503554 1.9999999999999962
    vertex -9.207426262368632 -17.909703806514155 1.9999999999999962
  endloop
endfacet
facet normal -0.0 -0.0 1.0
  outer loop
    vertex -9.909938125070257 -15.470469199412165 1.9999999999999962
    vertex -9.207426262368632 -17.909703806514155 1.9999999999999962
    vertex -9.127304377055088 -16.517695429786702 1.9999999999999962
  endloop
endfacet
facet normal -0.0 -0.0 1.0
  outer loop
    vertex -9.127304377055088 -16.517695429786702 1.9999999999999962
    vertex -9.207426262368632 -17.909703806514155 1.9999999999999962
    vertex -7.818238344965893 -18.693922579107493 1.9999999999999962
  endloop
endfacet
facet normal -0.0 -0.0 1.0
  outer loop
    vertex -9.127304377055088 -16.517695429786702 1.9999999999999962
    vertex -7.818238344965893 -18.693922579107493 1.9999999999999962
    vertex -8.100296134369977 -17.32667777234652 1.9999999999999962
  endloop
endfacet
facet normal -0.0 -0.0 1.0
  outer loop
    vertex -8.100296134369977 -17.32667777234652 1.9999999999999962
    vertex -7.818238344965893 -18.693922579107493 1.9999999999999962
    vertex -6.8989023115425425 -17.842285417352706 1.9999999999999962
  endloop
endfacet
facet normal -0.0 -0.0 1.0
  outer loop
    vertex -6.8989023115425425 -17.842285417352706 1.9999999999999962
    vertex -7.818238344965893 -18.693922579107493 1.9999999999999962
    vertex -6.273415104103778 -19.09187145476598 1.9999999999999962
  endloop
endfacet
facet normal -0.0 -0.0 1.0
  outer loop
    vertex -6.8989023115425425 -17.842285417352706 1.9999999999999962
    vertex -6.273415104103778 -19.09187145476598 1.9999999999999962
    vertex -5.604995912201313 -18.029380555879996 1.9999999999999962
  endloop
endfacet
facet normal -0.0 -0.0 1.0
  outer loop
    vertex -5.604995912201313 -18.029380555879996 1.9999999999999962
    vertex -6.273415104103778 -19.09187145476598 1.9999999999999962
    vertex -4.678233690705938 -19.07643087525509 1.9999999999999962
  endloop
endfacet
facet normal -0.0 -0.0 1.0
  outer loop
    vertex -5.604995912201313 -18.029380555879996 1.9999999999999962
    vertex -4.678233690705938 -19.07643087525509 1.9999999999999962
    vertex -4.306754519179964 -17.8752129634271 1.9999999999999962
  endloop
endfacet
facet normal -0.0 -0.0 1.0
  outer loop
    vertex -4.306754519179964 -17.8752129634271 1.9999999999999962
    vertex -4.678233690705938 -19.07643087525509 1.9999999999999962
    vertex -3.1414030819335026 -18.64865309055174 1.9999999999999962
  endloop
endfacet
facet normal -0.0 -0.0 1.0
  outer loop
    vertex -4.306754519179964 -17.8752129634271 1.9999999999999962
    vertex -3.1414030819335026 -18.64865309055174 1.9999999999999962
    vertex -3.0926511379675596 -17.390288906645686 1.9999999999999962
  endloop
endfacet
facet normal -0.0 -0.0 1.0
  outer loop
    vertex -3.0926511379675596 -17.390288906645686 1.9999999999999962
    vertex -3.1414030819335026 -18.64865309055174 1.9999999999999962
    vertex -1.7676557440416447 -17.837690449747235 1.9999999999999962
  endloop
endfacet
facet normal -0.0 -0.0 1.0
  outer loop
    vertex -3.0926511379675596 -17.390288906645686 1.9999999999999962
    vertex -1.7676557440416447 -17.837690449747235 1.9999999999999962
    vertex -2.0454249075930218 -16.60765515863052 1.9999999999999962
  endloop
endfacet
facet normal -0.0 -0.0 1.0
  outer loop
    vertex -2.0454249075930218 -16.60765515863052 1.9999999999999962
    vertex -1.7676557440416447 -17.837690449747235 1.9999999999999962
    vertex -1.2364425650332012 -15.580646915945406 1.9999999999999962
  endloop
endfacet
facet normal -0.0 -0.0 1.0
  outer loop
    vertex -1.2364425650332012 -15.580646915945406 1.9999999999999962
    vertex -1.7676557440416447 -17.837690449747235 1.9999999999999962
    vertex -0.6506102878828877 -16.698808716633284 1.9999999999999962
  endloop
endfacet
facet normal -0.0 -0.0 1.0
  outer loop
    vertex -1.2364425650332012 -15.580646915945406 1.9999999999999962
    vertex -0.6506102878828877 -16.698808716633284 1.9999999999999962
    vertex -0.7208349200270209 -14.379253093117976 1.9999999999999962
  endloop
endfacet
facet normal -0.0 -0.0 1.0
  outer loop
    vertex -0.7208349200270209 -14.379253093117976 1.9999999999999962
    vertex -0.6506102878828877 -16.698808716633284 1.9999999999999962
    vertex -0.5337397814997275 -13.085346693776744 1.9999999999999962
  endloop
endfacet
facet normal -0.0 -0.0 1.0
  outer loop
    vertex -0.5337397814997275 -13.085346693776744 1.9999999999999962
    vertex -0.6506102878828877 -16.698808716633284 1.9999999999999962
    vertex 0.1336084847104523 -15.309620799230544 1.9999999999999962
  endloop
endfacet
facet normal -0.0 -0.0 1.0
  outer loop
    vertex -0.5337397814997275 -13.085346693776744 1.9999999999999962
    vertex 0.1336084847104523 -15.309620799230544 1.9999999999999962
    vertex 0.08833899615469548 -10.632785536198154 1.9999999999999962
  endloop
endfacet
facet normal -0.0 -0.0 1.0
  outer loop
    vertex 0.08833899615469548 -10.632785536198154 1.9999999999999962
    vertex 0.1336084847104523 -15.309620799230544 1.9999999999999962
    vertex 0.5161167808580487 -12.16961614497059 1.9999999999999962
  endloop
endfacet
facet normal -0.0 -0.0 1.0
  outer loop
    vertex 0.5161167808580487 -12.16961614497059 1.9999999999999962
    vertex 0.1336084847104523 -15.309620799230544 1.9999999999999962
    vertex 0.531557360368936 -13.76479755836843 1.9999999999999962
  endloop
endfacet
facet normal -0.0 -0.0 1.0
  outer loop
    vertex -11.585048420990438 -13.882080403691106 1.9999999999999962
    vertex -11.20254012484284 -10.742075749431153 1.9999999999999962
    vertex -11.600489000501323 -12.286898990293263 1.9999999999999962
  endloop
endfacet
facet normal -0.0 -0.0 1.0
  outer loop
    vertex -11.20254012484284 -10.742075749431153 1.9999999999999962
    vertex -11.585048420990438 -13.882080403691106 1.9999999999999962
    vertex -11.157270636287086 -15.418911012463541 1.9999999999999962
  endloop
endfacet
facet normal -0.0 -0.0 1.0
  outer loop
    vertex -11.20254012484284 -10.742075749431153 1.9999999999999962
    vertex -11.157270636287086 -15.418911012463541 1.9999999999999962
    vertex -10.418321352249501 -9.352887832028411 1.9999999999999962
  endloop
endfacet
facet normal -0.0 -0.0 1.0
  outer loop
    vertex -10.418321352249501 -9.352887832028411 1.9999999999999962
    vertex -11.157270636287086 -15.418911012463541 1.9999999999999962
    vertex -10.549029774304563 -12.958124425178413 1.9999999999999962
  endloop
endfacet
facet normal -0.0 -0.0 1.0
  outer loop
    vertex -10.418321352249501 -9.352887832028411 1.9999999999999962
    vertex -10.549029774304563 -12.958124425178413 1.9999999999999962
    vertex -10.36193463577727 -11.664218025837181 1.9999999999999962
  endloop
endfacet
facet normal -0.0 -0.0 1.0
  outer loop
    vertex -10.418321352249501 -9.352887832028411 1.9999999999999962
    vertex -10.36193463577727 -11.664218025837181 1.9999999999999962
    vertex -9.301275896090743 -8.214006098914462 1.9999999999999962
  endloop
endfacet
facet normal -0.0 -0.0 1.0
  outer loop
    vertex -9.301275896090743 -8.214006098914462 1.9999999999999962
    vertex -10.36193463577727 -11.664218025837181 1.9999999999999962
    vertex -9.846326990771091 -10.462824203009749 1.9999999999999962
  endloop
endfacet
facet normal -0.0 -0.0 1.0
  outer loop
    vertex -9.301275896090743 -8.214006098914462 1.9999999999999962
    vertex -9.846326990771091 -10.462824203009749 1.9999999999999962
    vertex -9.03734464821127 -9.435815960324634 1.9999999999999962
  endloop
endfacet
facet normal -0.0 -0.0 1.0
  outer loop
    vertex -9.301275896090743 -8.214006098914462 1.9999999999999962
    vertex -9.03734464821127 -9.435815960324634 1.9999999999999962
    vertex -7.9275285581988895 -7.403043458109958 1.9999999999999962
  endloop
endfacet
facet normal -0.0 -0.0 1.0
  outer loop
    vertex -7.9275285581988895 -7.403043458109958 1.9999999999999962
    vertex -9.03734464821127 -9.435815960324634 1.9999999999999962
    vertex -7.990118417836733 -8.653182212309465 1.9999999999999962
  endloop
endfacet
facet normal -0.0 -0.0 1.0
  outer loop
    vertex -7.9275285581988895 -7.403043458109958 1.9999999999999962
    vertex -7.990118417836733 -8.653182212309465 1.9999999999999962
    vertex -6.776015036624331 -8.168258155528056 1.9999999999999962
  endloop
endfacet
facet normal -0.0 -0.0 1.0
  outer loop
    vertex -7.9275285581988895 -7.403043458109958 1.9999999999999962
    vertex -6.776015036624331 -8.168258155528056 1.9999999999999962
    vertex -6.3906979494264515 -6.975265673406605 1.9999999999999962
  endloop
endfacet
facet normal -0.0 -0.0 1.0
  outer loop
    vertex -6.3906979494264515 -6.975265673406605 1.9999999999999962
    vertex -6.776015036624331 -8.168258155528056 1.9999999999999962
    vertex -5.477773643602978 -8.01409056307516 1.9999999999999962
  endloop
endfacet
facet normal -0.0 -0.0 1.0
  outer loop
    vertex -6.3906979494264515 -6.975265673406605 1.9999999999999962
    vertex -5.477773643602978 -8.01409056307516 1.9999999999999962
    vertex -4.795516536028613 -6.959825093895717 1.9999999999999962
  endloop
endfacet
facet normal -0.0 -0.0 1.0
  outer loop
    vertex -4.795516536028613 -6.959825093895717 1.9999999999999962
    vertex -5.477773643602978 -8.01409056307516 1.9999999999999962
    vertex -4.183867244261749 -8.201185701602453 1.9999999999999962
  endloop
endfacet
facet normal -0.0 -0.0 1.0
  outer loop
    vertex -4.795516536028613 -6.959825093895717 1.9999999999999962
    vertex -4.183867244261749 -8.201185701602453 1.9999999999999962
    vertex -3.2506932951664997 -7.357773969554203 1.9999999999999962
  endloop
endfacet
facet normal -0.0 -0.0 1.0
  outer loop
    vertex -3.2506932951664997 -7.357773969554203 1.9999999999999962
    vertex -4.183867244261749 -8.201185701602453 1.9999999999999962
    vertex -2.9824734214343165 -8.716793346608632 1.9999999999999962
  endloop
endfacet
facet normal -0.0 -0.0 1.0
  outer loop
    vertex -3.2506932951664997 -7.357773969554203 1.9999999999999962
    vertex -2.9824734214343165 -8.716793346608632 1.9999999999999962
    vertex -1.8615053777637605 -8.141992742147542 1.9999999999999962
  endloop
endfacet
facet normal -0.0 -0.0 1.0
  outer loop
    vertex -1.8615053777637605 -8.141992742147542 1.9999999999999962
    vertex -2.9824734214343165 -8.716793346608632 1.9999999999999962
    vertex -1.9554651787492017 -9.525775689168453 1.9999999999999962
  endloop
endfacet
facet normal -0.0 -0.0 1.0
  outer loop
    vertex -1.8615053777637605 -8.141992742147542 1.9999999999999962
    vertex -1.9554651787492017 -9.525775689168453 1.9999999999999962
    vertex -1.1728314307340337 -10.57300191954299 1.9999999999999962
  endloop
endfacet
facet normal -0.0 -0.0 1.0
  outer loop
    vertex -1.8615053777637605 -8.141992742147542 1.9999999999999962
    vertex -1.1728314307340337 -10.57300191954299 1.9999999999999962
    vertex -0.7226236446498079 -9.259038198306298 1.9999999999999962
  endloop
endfacet
facet normal -0.0 -0.0 1.0
  outer loop
    vertex -0.7226236446498079 -9.259038198306298 1.9999999999999962
    vertex -1.1728314307340337 -10.57300191954299 1.9999999999999962
    vertex -0.6879073739526232 -11.787105300755394 1.9999999999999962
  endloop
endfacet
facet normal -0.0 -0.0 1.0
  outer loop
    vertex -0.7226236446498079 -9.259038198306298 1.9999999999999962
    vertex -0.6879073739526232 -11.787105300755394 1.9999999999999962
    vertex 0.08833899615469548 -10.632785536198154 1.9999999999999962
  endloop
endfacet
facet normal -0.0 -0.0 1.0
  outer loop
    vertex 0.08833899615469548 -10.632785536198154 1.9999999999999962
    vertex -0.6879073739526232 -11.787105300755394 1.9999999999999962
    vertex -0.5337397814997275 -13.085346693776744 1.9999999999999962
  endloop
endfacet
facet normal -0.6187893189252466 -0.7855569863377384 -0.0
  outer loop
    vertex -1.9554651787492017 -9.525775689168453 1.9999999999999962
    vertex -2.9824734214343165 -8.716793346608632 0.0
    vertex -1.9554651787492017 -9.525775689168453 0.0
  endloop
endfacet
facet normal -0.6187893189252466 -0.7855569863377384 -0.0
  outer loop
    vertex -2.9824734214343165 -8.716793346608632 0.0
    vertex -1.9554651787492017 -9.525775689168453 1.9999999999999962
    vertex -2.9824734214343165 -8.716793346608632 1.9999999999999962
  endloop
endfacet
facet normal 0.3709176468262029 -0.9286657629486039 -0.0
  outer loop
    vertex -6.776015036624331 -8.168258155528056 1.9999999999999962
    vertex -7.990118417836733 -8.653182212309465 0.0
    vertex -6.776015036624331 -8.168258155528056 0.0
  endloop
endfacet
facet normal 0.3709176468262029 -0.9286657629486039 -0.0
  outer loop
    vertex -7.990118417836733 -8.653182212309465 0.0
    vertex -6.776015036624331 -8.168258155528056 1.9999999999999962
    vertex -7.990118417836733 -8.653182212309465 1.9999999999999962
  endloop
endfacet
facet normal -0.9897069657514498 0.14310877661086624 -0.0
  outer loop
    vertex -0.5337397814997275 -13.085346693776744 1.9999999999999962
    vertex -0.7208349200270209 -14.379253093117976 0.0
    vertex -0.7208349200270209 -14.379253093117976 1.9999999999999962
  endloop
endfacet
facet normal -0.9897069657514498 0.14310877661086624 -0.0
  outer loop
    vertex -0.7208349200270209 -14.379253093117976 0.0
    vertex -0.5337397814997275 -13.085346693776744 1.9999999999999962
    vertex -0.5337397814997275 -13.085346693776744 0.0
  endloop
endfacet
facet normal -0.8010216932592663 -0.5986353204815583 -0.0
  outer loop
    vertex -1.9554651787492017 -9.525775689168453 1.9999999999999962
    vertex -1.1728314307340337 -10.57300191954299 0.0
    vertex -1.1728314307340337 -10.57300191954299 1.9999999999999962
  endloop
endfacet
facet normal -0.8010216932592663 -0.5986353204815583 -0.0
  outer loop
    vertex -1.1728314307340337 -10.57300191954299 0.0
    vertex -1.9554651787492017 -9.525775689168453 1.9999999999999962
    vertex -1.9554651787492017 -9.525775689168453 0.0
  endloop
endfacet
facet normal 0.11792254851003618 -0.9930227955857299 -0.0
  outer loop
    vertex -5.477773643602978 -8.01409056307516 1.9999999999999962
    vertex -6.776015036624331 -8.168258155528056 0.0
    vertex -5.477773643602978 -8.01409056307516 0.0
  endloop
endfacet
facet normal 0.11792254851003618 -0.9930227955857299 -0.0
  outer loop
    vertex -6.776015036624331 -8.168258155528056 0.0
    vertex -5.477773643602978 -8.01409056307516 1.9999999999999962
    vertex -6.776015036624331 -8.168258155528056 1.9999999999999962
  endloop
endfacet
facet normal -0.39438747510417144 -0.9189442417693017 -0.0
  outer loop
    vertex -2.9824734214343165 -8.716793346608632 1.9999999999999962
    vertex -4.183867244261749 -8.201185701602453 0.0
    vertex -2.9824734214343165 -8.716793346608632 0.0
  endloop
endfacet
facet normal -0.39438747510417144 -0.9189442417693017 -0.0
  outer loop
    vertex -4.183867244261749 -8.201185701602453 0.0
    vertex -2.9824734214343165 -8.716793346608632 1.9999999999999962
    vertex -4.183867244261749 -8.201185701602453 1.9999999999999962
  endloop
endfacet
facet normal -0.14310877661086713 -0.9897069657514496 -0.0
  outer loop
    vertex -4.183867244261749 -8.201185701602453 1.9999999999999962
    vertex -5.477773643602978 -8.01409056307516 0.0
    vertex -4.183867244261749 -8.201185701602453 0.0
  endloop
endfacet
facet normal -0.14310877661086713 -0.9897069657514496 -0.0
  outer loop
    vertex -5.477773643602978 -8.01409056307516 0.0
    vertex -4.183867244261749 -8.201185701602453 1.9999999999999962
    vertex -5.477773643602978 -8.01409056307516 1.9999999999999962
  endloop
endfacet
facet normal 0.5986353204815592 -0.8010216932592656 -0.0
  outer loop
    vertex -7.990118417836733 -8.653182212309465 1.9999999999999962
    vertex -9.03734464821127 -9.435815960324634 0.0
    vertex -7.990118417836733 -8.653182212309465 0.0
  endloop
endfacet
facet normal 0.5986353204815592 -0.8010216932592656 -0.0
  outer loop
    vertex -9.03734464821127 -9.435815960324634 0.0
    vertex -7.990118417836733 -8.653182212309465 1.9999999999999962
    vertex -9.03734464821127 -9.435815960324634 1.9999999999999962
  endloop
endfacet
facet normal -0.5986353204815573 0.8010216932592672 -0.0
  outer loop
    vertex -3.0926511379675596 -17.390288906645686 1.9999999999999962
    vertex -2.0454249075930218 -16.60765515863052 0.0
    vertex -3.0926511379675596 -17.390288906645686 0.0
  endloop
endfacet
facet normal -0.5986353204815573 0.8010216932592672 -0.0
  outer loop
    vertex -2.0454249075930218 -16.60765515863052 0.0
    vertex -3.0926511379675596 -17.390288906645686 1.9999999999999962
    vertex -2.0454249075930218 -16.60765515863052 1.9999999999999962
  endloop
endfacet
facet normal -0.7855569863377384 0.6187893189252464 -0.0
  outer loop
    vertex -1.2364425650332012 -15.580646915945406 1.9999999999999962
    vertex -2.0454249075930218 -16.60765515863052 0.0
    vertex -2.0454249075930218 -16.60765515863052 1.9999999999999962
  endloop
endfacet
facet normal -0.7855569863377384 0.6187893189252464 -0.0
  outer loop
    vertex -2.0454249075930218 -16.60765515863052 0.0
    vertex -1.2364425650332012 -15.580646915945406 1.9999999999999962
    vertex -1.2364425650332012 -15.580646915945406 0.0
  endloop
endfacet
facet normal -0.9189442417693015 0.394387475104172 -0.0
  outer loop
    vertex -0.7208349200270209 -14.379253093117976 1.9999999999999962
    vertex -1.2364425650332012 -15.580646915945406 0.0
    vertex -1.2364425650332012 -15.580646915945406 1.9999999999999962
  endloop
endfacet
facet normal -0.9189442417693015 0.394387475104172 -0.0
  outer loop
    vertex -1.2364425650332012 -15.580646915945406 0.0
    vertex -0.7208349200270209 -14.379253093117976 1.9999999999999962
    vertex -0.7208349200270209 -14.379253093117976 0.0
  endloop
endfacet
facet normal 0.3943874751041729 0.9189442417693009 0.0
  outer loop
    vertex -8.100296134369977 -17.32667777234652 1.9999999999999962
    vertex -6.8989023115425425 -17.842285417352706 0.0
    vertex -8.100296134369977 -17.32667777234652 0.0
  endloop
endfacet
facet normal 0.3943874751041729 0.9189442417693009 0.0
  outer loop
    vertex -6.8989023115425425 -17.842285417352706 0.0
    vertex -8.100296134369977 -17.32667777234652 1.9999999999999962
    vertex -6.8989023115425425 -17.842285417352706 1.9999999999999962
  endloop
endfacet
facet normal 0.9286657629486037 0.37091764682620304 0.0
  outer loop
    vertex -10.39486218185167 -14.25636581819976 0.0
    vertex -9.909938125070257 -15.470469199412165 1.9999999999999962
    vertex -9.909938125070257 -15.470469199412165 0.0
  endloop
endfacet
facet normal 0.9286657629486037 0.37091764682620304 0.0
  outer loop
    vertex -9.909938125070257 -15.470469199412165 1.9999999999999962
    vertex -10.39486218185167 -14.25636581819976 0.0
    vertex -10.39486218185167 -14.25636581819976 1.9999999999999962
  endloop
endfacet
facet normal 0.9897069657514498 -0.14310877661086568 -0.0
  outer loop
    vertex -10.36193463577727 -11.664218025837181 0.0
    vertex -10.549029774304563 -12.958124425178413 1.9999999999999962
    vertex -10.549029774304563 -12.958124425178413 0.0
  endloop
endfacet
facet normal 0.9897069657514498 -0.14310877661086568 -0.0
  outer loop
    vertex -10.549029774304563 -12.958124425178413 1.9999999999999962
    vertex -10.36193463577727 -11.664218025837181 0.0
    vertex -10.36193463577727 -11.664218025837181 1.9999999999999962
  endloop
endfacet
facet normal 0.9930227955857301 0.1179225485100347 0.0
  outer loop
    vertex -10.549029774304563 -12.958124425178413 0.0
    vertex -10.39486218185167 -14.25636581819976 1.9999999999999962
    vertex -10.39486218185167 -14.25636581819976 0.0
  endloop
endfacet
facet normal 0.9930227955857301 0.1179225485100347 0.0
  outer loop
    vertex -10.39486218185167 -14.25636581819976 1.9999999999999962
    vertex -10.549029774304563 -12.958124425178413 0.0
    vertex -10.549029774304563 -12.958124425178413 1.9999999999999962
  endloop
endfacet
facet normal 0.14310877661086394 0.98970696575145 0.0
  outer loop
    vertex -6.8989023115425425 -17.842285417352706 1.9999999999999962
    vertex -5.604995912201313 -18.029380555879996 0.0
    vertex -6.8989023115425425 -17.842285417352706 0.0
  endloop
endfacet
facet normal 0.14310877661086394 0.98970696575145 0.0
  outer loop
    vertex -5.604995912201313 -18.029380555879996 0.0
    vertex -6.8989023115425425 -17.842285417352706 1.9999999999999962
    vertex -5.604995912201313 -18.029380555879996 1.9999999999999962
  endloop
endfacet
facet normal -0.11792254851003431 0.9930227955857301 -0.0
  outer loop
    vertex -5.604995912201313 -18.029380555879996 1.9999999999999962
    vertex -4.306754519179964 -17.8752129634271 0.0
    vertex -5.604995912201313 -18.029380555879996 0.0
  endloop
endfacet
facet normal -0.11792254851003431 0.9930227955857301 -0.0
  outer loop
    vertex -4.306754519179964 -17.8752129634271 0.0
    vertex -5.604995912201313 -18.029380555879996 1.9999999999999962
    vertex -4.306754519179964 -17.8752129634271 1.9999999999999962
  endloop
endfacet
facet normal -0.37091764682620343 0.9286657629486037 -0.0
  outer loop
    vertex -4.306754519179964 -17.8752129634271 1.9999999999999962
    vertex -3.0926511379675596 -17.390288906645686 0.0
    vertex -4.306754519179964 -17.8752129634271 0.0
  endloop
endfacet
facet normal -0.37091764682620343 0.9286657629486037 -0.0
  outer loop
    vertex -3.0926511379675596 -17.390288906645686 0.0
    vertex -4.306754519179964 -17.8752129634271 1.9999999999999962
    vertex -3.0926511379675596 -17.390288906645686 1.9999999999999962
  endloop
endfacet
facet normal -0.99302279558573 -0.1179225485100355 -0.0
  outer loop
    vertex -0.6879073739526232 -11.787105300755394 1.9999999999999962
    vertex -0.5337397814997275 -13.085346693776744 0.0
    vertex -0.5337397814997275 -13.085346693776744 1.9999999999999962
  endloop
endfacet
facet normal -0.99302279558573 -0.1179225485100355 -0.0
  outer loop
    vertex -0.5337397814997275 -13.085346693776744 0.0
    vertex -0.6879073739526232 -11.787105300755394 1.9999999999999962
    vertex -0.6879073739526232 -11.787105300755394 0.0
  endloop
endfacet
facet normal -0.928665762948604 -0.3709176468262025 -0.0
  outer loop
    vertex -1.1728314307340337 -10.57300191954299 1.9999999999999962
    vertex -0.6879073739526232 -11.787105300755394 0.0
    vertex -0.6879073739526232 -11.787105300755394 1.9999999999999962
  endloop
endfacet
facet normal -0.928665762948604 -0.3709176468262025 -0.0
  outer loop
    vertex -0.6879073739526232 -11.787105300755394 0.0
    vertex -1.1728314307340337 -10.57300191954299 1.9999999999999962
    vertex -1.1728314307340337 -10.57300191954299 0.0
  endloop
endfacet
facet normal 0.7855569863377382 -0.6187893189252469 -0.0
  outer loop
    vertex -9.03734464821127 -9.435815960324634 0.0
    vertex -9.846326990771091 -10.462824203009749 1.9999999999999962
    vertex -9.846326990771091 -10.462824203009749 0.0
  endloop
endfacet
facet normal 0.7855569863377382 -0.6187893189252469 -0.0
  outer loop
    vertex -9.846326990771091 -10.462824203009749 1.9999999999999962
    vertex -9.03734464821127 -9.435815960324634 0.0
    vertex -9.03734464821127 -9.435815960324634 1.9999999999999962
  endloop
endfacet
facet normal 0.9189442417693016 -0.3943874751041715 -0.0
  outer loop
    vertex -9.846326990771091 -10.462824203009749 0.0
    vertex -10.36193463577727 -11.664218025837181 1.9999999999999962
    vertex -10.36193463577727 -11.664218025837181 0.0
  endloop
endfacet
facet normal 0.9189442417693016 -0.3943874751041715 -0.0
  outer loop
    vertex -10.36193463577727 -11.664218025837181 1.9999999999999962
    vertex -9.846326990771091 -10.462824203009749 0.0
    vertex -9.846326990771091 -10.462824203009749 1.9999999999999962
  endloop
endfacet
facet normal 0.8010216932592656 0.5986353204815592 0.0
  outer loop
    vertex -9.909938125070257 -15.470469199412165 0.0
    vertex -9.127304377055088 -16.517695429786702 1.9999999999999962
    vertex -9.127304377055088 -16.517695429786702 0.0
  endloop
endfacet
facet normal 0.8010216932592656 0.5986353204815592 0.0
  outer loop
    vertex -9.127304377055088 -16.517695429786702 1.9999999999999962
    vertex -9.909938125070257 -15.470469199412165 0.0
    vertex -9.909938125070257 -15.470469199412165 1.9999999999999962
  endloop
endfacet
facet normal 0.6187893189252475 0.7855569863377377 0.0
  outer loop
    vertex -9.127304377055088 -16.517695429786702 1.9999999999999962
    vertex -8.100296134369977 -17.32667777234652 0.0
    vertex -9.127304377055088 -16.517695429786702 0.0
  endloop
endfacet
facet normal 0.6187893189252475 0.7855569863377377 0.0
  outer loop
    vertex -8.100296134369977 -17.32667777234652 0.0
    vertex -9.127304377055088 -16.517695429786702 1.9999999999999962
    vertex -8.100296134369977 -17.32667777234652 1.9999999999999962
  endloop
endfacet
facet normal 0.0 0.0 -1.0
  outer loop
    vertex -28.172299035004464 10.311234993068803 0.0
    vertex -29.553544143860094 -5.156358069113585 0.0
    vertex -29.881095218583173 2.668360646158215 0.0
  endloop
endfacet
facet normal 0.0 0.0 -1.0
  outer loop
    vertex -29.553544143860094 -5.156358069113585 0.0
    vertex -28.172299035004464 10.311234993068803 0.0
    vertex -27.21196787527385 -12.629679503259922 0.0
  endloop
endfacet
facet normal 0.0 0.0 -1.0
  outer loop
    vertex -27.21196787527385 -12.629679503259922 0.0
    vertex -28.172299035004464 10.311234993068803 0.0
    vertex -24.543607229115647 17.251415715323255 0.0
  endloop
endfacet
facet normal 0.0 0.0 -1.0
  outer loop
    vertex -27.21196787527385 -12.629679503259922 0.0
    vertex -24.543607229115647 17.251415715323255 0.0
    vertex -23.015940965890874 -19.242309150791293 0.0
  endloop
endfacet
facet normal 0.0 0.0 -1.0
  outer loop
    vertex -23.015940965890874 -19.242309150791293 0.0
    vertex -24.543607229115647 17.251415715323255 0.0
    vertex -19.242309150791293 23.015940965890874 0.0
  endloop
endfacet
facet normal 0.0 0.0 -1.0
  outer loop
    vertex -23.015940965890874 -19.242309150791293 0.0
    vertex -19.242309150791293 23.015940965890874 0.0
    vertex -17.25141571532327 -24.54360722911564 0.0
  endloop
endfacet
facet normal 0.0 0.0 -1.0
  outer loop
    vertex -17.25141571532327 -24.54360722911564 0.0
    vertex -19.242309150791293 23.015940965890874 0.0
    vertex -16.93755832058572 11.860642298832264 -3.524958103184872e-15
  endloop
endfacet
facet normal 0.0 0.0 -1.0
  outer loop
    vertex -16.93755832058572 11.860642298832264 -3.524958103184872e-15
    vertex -19.242309150791293 23.015940965890874 0.0
    vertex -12.629679503259926 27.21196787527385 0.0
  endloop
endfacet
facet normal 0.0 0.0 -1.0
  outer loop
    vertex -16.93755832058572 11.860642298832264 -3.524958103184872e-15
    vertex -12.629679503259926 27.21196787527385 0.0
    vertex -4.091884074537123 13.85222238790285 -3.524958103184872e-15
  endloop
endfacet
facet normal 0.0 0.0 -1.0
  outer loop
    vertex -4.091884074537123 13.85222238790285 -3.524958103184872e-15
    vertex -12.629679503259926 27.21196787527385 0.0
    vertex -5.1563580691135975 29.553544143860094 0.0
  endloop
endfacet
facet normal 0.0 0.0 -1.0
  outer loop
    vertex -4.091884074537123 13.85222238790285 -3.524958103184872e-15
    vertex -5.1563580691135975 29.553544143860094 0.0
    vertex 2.66836064615821 29.881095218583177 0.0
  endloop
endfacet
facet normal 0.0 0.0 -1.0
  outer loop
    vertex -4.091884074537123 13.85222238790285 -3.524958103184872e-15
    vertex 2.66836064615821 29.881095218583177 0.0
    vertex -3.755121051100862 10.642587211055385 -3.524958103184872e-15
  endloop
endfacet
facet normal 0.0 0.0 -1.0
  outer loop
    vertex -3.755121051100862 10.642587211055385 -3.524958103184872e-15
    vertex 2.66836064615821 29.881095218583177 0.0
    vertex -2.9824734214343165 -8.716793346608632 0.0
  endloop
endfacet
facet normal 0.0 0.0 -1.0
  outer loop
    vertex -2.9824734214343165 -8.716793346608632 0.0
    vertex 2.66836064615821 29.881095218583177 0.0
    vertex -1.9554651787492017 -9.525775689168453 0.0
  endloop
endfacet
facet normal 0.0 0.0 -1.0
  outer loop
    vertex -1.9554651787492017 -9.525775689168453 0.0
    vertex 2.66836064615821 29.881095218583177 0.0
    vertex -1.1728314307340337 -10.57300191954299 0.0
  endloop
endfacet
facet normal 0.0 0.0 -1.0
  outer loop
    vertex -1.1728314307340337 -10.57300191954299 0.0
    vertex 2.66836064615821 29.881095218583177 0.0
    vertex -0.6879073739526232 -11.787105300755394 0.0
  endloop
endfacet
facet normal 0.0 0.0 -1.0
  outer loop
    vertex -0.6879073739526232 -11.787105300755394 0.0
    vertex 2.66836064615821 29.881095218583177 0.0
    vertex -0.5337397814997275 -13.085346693776744 0.0
  endloop
endfacet
facet normal 0.0 0.0 -1.0
  outer loop
    vertex -0.5337397814997275 -13.085346693776744 0.0
    vertex 2.66836064615821 29.881095218583177 0.0
    vertex 1.9216102073762087 -0.9755123599896821 3.1724622928663847e-15
  endloop
endfacet
facet normal 0.0 0.0 -1.0
  outer loop
    vertex 1.9216102073762087 -0.9755123599896821 3.1724622928663847e-15
    vertex 2.66836064615821 29.881095218583177 0.0
    vertex 2.228361831761138 1.3544975525172696 3.1724622928663847e-15
  endloop
endfacet
facet normal 0.0 0.0 -1.0
  outer loop
    vertex 2.228361831761138 1.3544975525172696 3.1724622928663847e-15
    vertex 2.66836064615821 29.881095218583177 0.0
    vertex 3.1277120886451226 3.525721140010316 3.1724622928663847e-15
  endloop
endfacet
facet normal 0.0 0.0 -1.0
  outer loop
    vertex 3.1277120886451226 3.525721140010316 3.1724622928663847e-15
    vertex 2.66836064615821 29.881095218583177 0.0
    vertex 10.311234993068789 28.172299035004468 0.0
  endloop
endfacet
facet normal 0.0 0.0 -1.0
  outer loop
    vertex 3.1277120886451226 3.525721140010316 3.1724622928663847e-15
    vertex 10.311234993068789 28.172299035004468 0.0
    vertex 4.558371744268089 5.390193103118429 3.1724622928663847e-15
  endloop
endfacet
facet normal 0.0 0.0 -1.0
  outer loop
    vertex 4.558371744268089 5.390193103118429 3.1724622928663847e-15
    vertex 10.311234993068789 28.172299035004468 0.0
    vertex 6.422843707376202 6.820852758741399 3.1724622928663847e-15
  endloop
endfacet
facet normal 0.0 0.0 -1.0
  outer loop
    vertex 6.422843707376202 6.820852758741399 3.1724622928663847e-15
    vertex 10.311234993068789 28.172299035004468 0.0
    vertex 8.594067294869244 7.720203015625385 3.1724622928663847e-15
  endloop
endfacet
facet normal 0.0 0.0 -1.0
  outer loop
    vertex 8.594067294869244 7.720203015625385 3.1724622928663847e-15
    vertex 10.311234993068789 28.172299035004468 0.0
    vertex 10.924077207376204 8.026954640010317 3.1724622928663847e-15
  endloop
endfacet
facet normal 0.0 0.0 -1.0
  outer loop
    vertex 10.924077207376204 8.026954640010317 3.1724622928663847e-15
    vertex 10.311234993068789 28.172299035004468 0.0
    vertex 17.251415715323255 24.543607229115647 0.0
  endloop
endfacet
facet normal 0.0 0.0 -1.0
  outer loop
    vertex 10.924077207376204 8.026954640010317 3.1724622928663847e-15
    vertex 17.251415715323255 24.543607229115647 0.0
    vertex 13.254087119883154 7.720203015625388 3.1724622928663847e-15
  endloop
endfacet
facet normal 0.0 0.0 -1.0
  outer loop
    vertex 13.254087119883154 7.720203015625388 3.1724622928663847e-15
    vertex 17.251415715323255 24.543607229115647 0.0
    vertex 15.425310707376198 6.820852758741404 3.1724622928663847e-15
  endloop
endfacet
facet normal 0.0 0.0 -1.0
  outer loop
    vertex 15.425310707376198 6.820852758741404 3.1724622928663847e-15
    vertex 17.251415715323255 24.543607229115647 0.0
    vertex 17.289782670484318 5.390193103118434 3.1724622928663847e-15
  endloop
endfacet
facet normal 0.0 0.0 -1.0
  outer loop
    vertex 17.289782670484318 5.390193103118434 3.1724622928663847e-15
    vertex 17.251415715323255 24.543607229115647 0.0
    vertex 23.015940965890863 19.2423091507913 0.0
  endloop
endfacet
facet normal 0.0 0.0 -1.0
  outer loop
    vertex 17.289782670484318 5.390193103118434 3.1724622928663847e-15
    vertex 23.015940965890863 19.2423091507913 0.0
    vertex 18.720442326107282 3.5257211400103223 3.1724622928663847e-15
  endloop
endfacet
facet normal 0.0 0.0 -1.0
  outer loop
    vertex 18.720442326107282 3.5257211400103223 3.1724622928663847e-15
    vertex 23.015940965890863 19.2423091507913 0.0
    vertex 19.61979258299127 1.35449755251728 3.1724622928663847e-15
  endloop
endfacet
facet normal 0.0 0.0 -1.0
  outer loop
    vertex 19.61979258299127 1.35449755251728 3.1724622928663847e-15
    vertex 23.015940965890863 19.2423091507913 0.0
    vertex 19.926544207376203 -0.9755123599896811 3.1724622928663847e-15
  endloop
endfacet
facet normal 0.0 0.0 -1.0
  outer loop
    vertex -17.25141571532327 -24.54360722911564 0.0
    vertex -16.50931996907596 8.50031765464977 -3.524958103184872e-15
    vertex -10.311234993068792 -28.172299035004468 0.0
  endloop
endfacet
facet normal 0.0 0.0 -1.0
  outer loop
    vertex -16.50931996907596 8.50031765464977 -3.524958103184872e-15
    vertex -17.25141571532327 -24.54360722911564 0.0
    vertex -16.93755832058572 11.860642298832264 -3.524958103184872e-15
  endloop
endfacet
facet normal 0.0 0.0 -1.0
  outer loop
    vertex -10.311234993068792 -28.172299035004468 0.0
    vertex -16.50931996907596 8.50031765464977 -3.524958103184872e-15
    vertex -10.549029774304563 -12.958124425178413 0.0
  endloop
endfacet
facet normal 0.0 0.0 -1.0
  outer loop
    vertex -10.311234993068792 -28.172299035004468 0.0
    vertex -10.549029774304563 -12.958124425178413 0.0
    vertex -10.39486218185167 -14.25636581819976 0.0
  endloop
endfacet
facet normal 0.0 0.0 -1.0
  outer loop
    vertex -10.311234993068792 -28.172299035004468 0.0
    vertex -10.39486218185167 -14.25636581819976 0.0
    vertex -9.909938125070257 -15.470469199412165 0.0
  endloop
endfacet
facet normal 0.0 0.0 -1.0
  outer loop
    vertex -10.311234993068792 -28.172299035004468 0.0
    vertex -9.909938125070257 -15.470469199412165 0.0
    vertex -2.668360646158215 -29.881095218583173 0.0
  endloop
endfacet
facet normal 0.0 0.0 -1.0
  outer loop
    vertex -2.668360646158215 -29.881095218583173 0.0
    vertex -9.909938125070257 -15.470469199412165 0.0
    vertex -9.127304377055088 -16.517695429786702 0.0
  endloop
endfacet
facet normal 0.0 0.0 -1.0
  outer loop
    vertex -2.668360646158215 -29.881095218583173 0.0
    vertex -9.127304377055088 -16.517695429786702 0.0
    vertex -8.100296134369977 -17.32667777234652 0.0
  endloop
endfacet
facet normal 0.0 0.0 -1.0
  outer loop
    vertex -2.668360646158215 -29.881095218583173 0.0
    vertex -8.100296134369977 -17.32667777234652 0.0
    vertex -6.8989023115425425 -17.842285417352706 0.0
  endloop
endfacet
facet normal 0.0 0.0 -1.0
  outer loop
    vertex -2.668360646158215 -29.881095218583173 0.0
    vertex -6.8989023115425425 -17.842285417352706 0.0
    vertex -5.604995912201313 -18.029380555879996 0.0
  endloop
endfacet
facet normal 0.0 0.0 -1.0
  outer loop
    vertex -2.668360646158215 -29.881095218583173 0.0
    vertex -5.604995912201313 -18.029380555879996 0.0
    vertex -4.306754519179964 -17.8752129634271 0.0
  endloop
endfacet
facet normal 0.0 0.0 -1.0
  outer loop
    vertex -2.668360646158215 -29.881095218583173 0.0
    vertex -4.306754519179964 -17.8752129634271 0.0
    vertex -3.0926511379675596 -17.390288906645686 0.0
  endloop
endfacet
facet normal 0.0 0.0 -1.0
  outer loop
    vertex -2.668360646158215 -29.881095218583173 0.0
    vertex -3.0926511379675596 -17.390288906645686 0.0
    vertex -2.0454249075930218 -16.60765515863052 0.0
  endloop
endfacet
facet normal 0.0 0.0 -1.0
  outer loop
    vertex -2.668360646158215 -29.881095218583173 0.0
    vertex -2.0454249075930218 -16.60765515863052 0.0
    vertex 5.156358069113582 -29.553544143860094 0.0
  endloop
endfacet
facet normal 0.0 0.0 -1.0
  outer loop
    vertex 5.156358069113582 -29.553544143860094 0.0
    vertex -2.0454249075930218 -16.60765515863052 0.0
    vertex -1.2364425650332012 -15.580646915945406 0.0
  endloop
endfacet
facet normal 0.0 0.0 -1.0
  outer loop
    vertex 5.156358069113582 -29.553544143860094 0.0
    vertex -1.2364425650332012 -15.580646915945406 0.0
    vertex -0.7208349200270209 -14.379253093117976 0.0
  endloop
endfacet
facet normal 0.0 0.0 -1.0
  outer loop
    vertex 5.156358069113582 -29.553544143860094 0.0
    vertex -0.7208349200270209 -14.379253093117976 0.0
    vertex -0.5337397814997275 -13.085346693776744 0.0
  endloop
endfacet
facet normal 0.0 0.0 -1.0
  outer loop
    vertex 5.156358069113582 -29.553544143860094 0.0
    vertex -0.5337397814997275 -13.085346693776744 0.0
    vertex 1.9216102073762087 -0.9755123599896821 3.1724622928663847e-15
  endloop
endfacet
facet normal 0.0 0.0 -1.0
  outer loop
    vertex 5.156358069113582 -29.553544143860094 0.0
    vertex 1.9216102073762087 -0.9755123599896821 3.1724622928663847e-15
    vertex 2.2283618317611396 -3.3055222724966375 3.1724622928663847e-15
  endloop
endfacet
facet normal 0.0 0.0 -1.0
  outer loop
    vertex 5.156358069113582 -29.553544143860094 0.0
    vertex 2.2283618317611396 -3.3055222724966375 3.1724622928663847e-15
    vertex 3.1277120886451253 -5.476745859989682 3.1724622928663847e-15
  endloop
endfacet
facet normal 0.0 0.0 -1.0
  outer loop
    vertex 5.156358069113582 -29.553544143860094 0.0
    vertex 3.1277120886451253 -5.476745859989682 3.1724622928663847e-15
    vertex 4.5583717442680936 -7.341217823097796 3.1724622928663847e-15
  endloop
endfacet
facet normal 0.0 0.0 -1.0
  outer loop
    vertex 5.156358069113582 -29.553544143860094 0.0
    vertex 4.5583717442680936 -7.341217823097796 3.1724622928663847e-15
    vertex 6.4228437073762095 -8.771877478720764 3.1724622928663847e-15
  endloop
endfacet
facet normal 0.0 0.0 -1.0
  outer loop
    vertex 5.156358069113582 -29.553544143860094 0.0
    vertex 6.4228437073762095 -8.771877478720764 3.1724622928663847e-15
    vertex 12.629679503259927 -27.21196787527385 0.0
  endloop
endfacet
facet normal 0.0 0.0 -1.0
  outer loop
    vertex 12.629679503259927 -27.21196787527385 0.0
    vertex 6.4228437073762095 -8.771877478720764 3.1724622928663847e-15
    vertex 8.594067294869253 -9.67122773560475 3.1724622928663847e-15
  endloop
endfacet
facet normal 0.0 0.0 -1.0
  outer loop
    vertex 12.629679503259927 -27.21196787527385 0.0
    vertex 8.594067294869253 -9.67122773560475 3.1724622928663847e-15
    vertex 10.924077207376206 -9.977979359989678 3.1724622928663847e-15
  endloop
endfacet
facet normal 0.0 0.0 -1.0
  outer loop
    vertex 12.629679503259927 -27.21196787527385 0.0
    vertex 10.924077207376206 -9.977979359989678 3.1724622928663847e-15
    vertex 13.254087119883161 -9.671227735604749 3.1724622928663847e-15
  endloop
endfacet
facet normal 0.0 0.0 -1.0
  outer loop
    vertex 12.629679503259927 -27.21196787527385 0.0
    vertex 13.254087119883161 -9.671227735604749 3.1724622928663847e-15
    vertex 19.242309150791304 -23.015940965890863 0.0
  endloop
endfacet
facet normal 0.0 0.0 -1.0
  outer loop
    vertex 19.242309150791304 -23.015940965890863 0.0
    vertex 13.254087119883161 -9.671227735604749 3.1724622928663847e-15
    vertex 15.425310707376203 -8.771877478720763 3.1724622928663847e-15
  endloop
endfacet
facet normal 0.0 0.0 -1.0
  outer loop
    vertex 19.242309150791304 -23.015940965890863 0.0
    vertex 15.425310707376203 -8.771877478720763 3.1724622928663847e-15
    vertex 17.289782670484318 -7.341217823097794 3.1724622928663847e-15
  endloop
endfacet
facet normal 0.0 0.0 -1.0
  outer loop
    vertex 19.242309150791304 -23.015940965890863 0.0
    vertex 17.289782670484318 -7.341217823097794 3.1724622928663847e-15
    vertex 18.72044232610729 -5.47674585998968 3.1724622928663847e-15
  endloop
endfacet
facet normal 0.0 0.0 -1.0
  outer loop
    vertex 19.242309150791304 -23.015940965890863 0.0
    vertex 18.72044232610729 -5.47674585998968 3.1724622928663847e-15
    vertex 19.619792582991273 -3.305522272496635 3.1724622928663847e-15
  endloop
endfacet
facet normal 0.0 0.0 -1.0
  outer loop
    vertex 19.242309150791304 -23.015940965890863 0.0
    vertex 19.619792582991273 -3.305522272496635 3.1724622928663847e-15
    vertex 24.54360722911565 -17.25141571532325 0.0
  endloop
endfacet
facet normal 0.0 0.0 -1.0
  outer loop
    vertex 24.54360722911565 -17.25141571532325 0.0
    vertex 19.619792582991273 -3.305522272496635 3.1724622928663847e-15
    vertex 19.926544207376203 -0.9755123599896811 3.1724622928663847e-15
  endloop
endfacet
facet normal 0.0 0.0 -1.0
  outer loop
    vertex 24.54360722911565 -17.25141571532325 0.0
    vertex 19.926544207376203 -0.9755123599896811 3.1724622928663847e-15
    vertex 23.015940965890863 19.2423091507913 0.0
  endloop
endfacet
facet normal 0.0 0.0 -1.0
  outer loop
    vertex 24.54360722911565 -17.25141571532325 0.0
    vertex 23.015940965890863 19.2423091507913 0.0
    vertex 27.21196787527385 12.629679503259926 0.0
  endloop
endfacet
facet normal 0.0 0.0 -1.0
  outer loop
    vertex 24.54360722911565 -17.25141571532325 0.0
    vertex 27.21196787527385 12.629679503259926 0.0
    vertex 28.172299035004468 -10.311234993068789 0.0
  endloop
endfacet
facet normal 0.0 0.0 -1.0
  outer loop
    vertex 28.172299035004468 -10.311234993068789 0.0
    vertex 27.21196787527385 12.629679503259926 0.0
    vertex 29.553544143860094 5.156358069113599 0.0
  endloop
endfacet
facet normal 0.0 0.0 -1.0
  outer loop
    vertex 28.172299035004468 -10.311234993068789 0.0
    vertex 29.553544143860094 5.156358069113599 0.0
    vertex 29.881095218583173 -2.6683606461582015 0.0
  endloop
endfacet
facet normal 0.0 0.0 -1.0
  outer loop
    vertex -16.50931996907596 8.50031765464977 -3.524958103184872e-15
    vertex -10.36193463577727 -11.664218025837181 0.0
    vertex -10.549029774304563 -12.958124425178413 0.0
  endloop
endfacet
facet normal 0.0 0.0 -1.0
  outer loop
    vertex -10.36193463577727 -11.664218025837181 0.0
    vertex -16.50931996907596 8.50031765464977 -3.524958103184872e-15
    vertex -3.755121051100862 10.642587211055385 -3.524958103184872e-15
  endloop
endfacet
facet normal 0.0 0.0 -1.0
  outer loop
    vertex -10.36193463577727 -11.664218025837181 0.0
    vertex -3.755121051100862 10.642587211055385 -3.524958103184872e-15
    vertex -9.846326990771091 -10.462824203009749 0.0
  endloop
endfacet
facet normal 0.0 0.0 -1.0
  outer loop
    vertex -9.846326990771091 -10.462824203009749 0.0
    vertex -3.755121051100862 10.642587211055385 -3.524958103184872e-15
    vertex -9.03734464821127 -9.435815960324634 0.0
  endloop
endfacet
facet normal 0.0 0.0 -1.0
  outer loop
    vertex -9.03734464821127 -9.435815960324634 0.0
    vertex -3.755121051100862 10.642587211055385 -3.524958103184872e-15
    vertex -7.990118417836733 -8.653182212309465 0.0
  endloop
endfacet
facet normal 0.0 0.0 -1.0
  outer loop
    vertex -7.990118417836733 -8.653182212309465 0.0
    vertex -3.755121051100862 10.642587211055385 -3.524958103184872e-15
    vertex -6.776015036624331 -8.168258155528056 0.0
  endloop
endfacet
facet normal 0.0 0.0 -1.0
  outer loop
    vertex -6.776015036624331 -8.168258155528056 0.0
    vertex -3.755121051100862 10.642587211055385 -3.524958103184872e-15
    vertex -5.477773643602978 -8.01409056307516 0.0
  endloop
endfacet
facet normal 0.0 0.0 -1.0
  outer loop
    vertex -5.477773643602978 -8.01409056307516 0.0
    vertex -3.755121051100862 10.642587211055385 -3.524958103184872e-15
    vertex -4.183867244261749 -8.201185701602453 0.0
  endloop
endfacet
facet normal 0.0 0.0 -1.0
  outer loop
    vertex -4.183867244261749 -8.201185701602453 0.0
    vertex -3.755121051100862 10.642587211055385 -3.524958103184872e-15
    vertex -2.9824734214343165 -8.716793346608632 0.0
  endloop
endfacet
endsolid fond_cociclo_wemos
