G04 EAGLE Gerber X2 export*
%TF.Part,Single*%
%TF.FileFunction,Copper,L1,Top,Mixed*%
%TF.FilePolarity,Positive*%
%TF.GenerationSoftware,Autodesk,EAGLE,8.6.0*%
%TF.CreationDate,2018-11-20T04:46:32Z*%
G75*
%MOMM*%
%FSLAX34Y34*%
%LPD*%
%AMOC8*
5,1,8,0,0,1.08239X$1,22.5*%
G01*
%ADD10R,1.879600X1.879600*%
%ADD11C,1.879600*%
%ADD12R,2.400000X0.750000*%
%ADD13R,2.032000X2.032000*%
%ADD14C,2.032000*%
%ADD15C,0.254000*%
%ADD16C,0.304800*%

G36*
X165044Y4077D02*
X165044Y4077D01*
X165047Y4078D01*
X165050Y4077D01*
X165169Y4098D01*
X165286Y4117D01*
X165289Y4119D01*
X165293Y4120D01*
X165400Y4178D01*
X165504Y4233D01*
X165506Y4235D01*
X165509Y4237D01*
X165591Y4325D01*
X165673Y4411D01*
X165674Y4415D01*
X165676Y4417D01*
X165725Y4524D01*
X165776Y4635D01*
X165776Y4638D01*
X165778Y4641D01*
X165790Y4760D01*
X165803Y4879D01*
X165802Y4882D01*
X165802Y4886D01*
X165775Y5004D01*
X165750Y5119D01*
X165748Y5122D01*
X165748Y5126D01*
X165684Y5229D01*
X165624Y5330D01*
X165621Y5333D01*
X165619Y5335D01*
X165527Y5413D01*
X165436Y5490D01*
X165433Y5491D01*
X165431Y5493D01*
X165278Y5563D01*
X164073Y5954D01*
X162399Y6807D01*
X160878Y7912D01*
X159550Y9240D01*
X158445Y10761D01*
X157592Y12435D01*
X157011Y14222D01*
X156810Y15495D01*
X167894Y15495D01*
X167914Y15498D01*
X167933Y15496D01*
X168035Y15518D01*
X168137Y15535D01*
X168154Y15544D01*
X168174Y15548D01*
X168263Y15601D01*
X168354Y15650D01*
X168368Y15664D01*
X168385Y15674D01*
X168452Y15753D01*
X168523Y15828D01*
X168532Y15846D01*
X168545Y15861D01*
X168583Y15957D01*
X168627Y16051D01*
X168629Y16071D01*
X168637Y16089D01*
X168655Y16256D01*
X168655Y17019D01*
X168657Y17019D01*
X168657Y16256D01*
X168660Y16236D01*
X168658Y16217D01*
X168680Y16115D01*
X168697Y16013D01*
X168706Y15996D01*
X168710Y15976D01*
X168763Y15887D01*
X168812Y15796D01*
X168826Y15782D01*
X168836Y15765D01*
X168915Y15698D01*
X168990Y15627D01*
X169008Y15618D01*
X169023Y15605D01*
X169119Y15566D01*
X169213Y15523D01*
X169233Y15521D01*
X169251Y15513D01*
X169418Y15495D01*
X180502Y15495D01*
X180301Y14222D01*
X179720Y12435D01*
X178867Y10761D01*
X177762Y9240D01*
X176434Y7912D01*
X174913Y6807D01*
X173239Y5954D01*
X172071Y5574D01*
X172066Y5572D01*
X172062Y5571D01*
X171957Y5516D01*
X171852Y5462D01*
X171849Y5458D01*
X171845Y5456D01*
X171763Y5370D01*
X171681Y5285D01*
X171679Y5281D01*
X171676Y5277D01*
X171625Y5169D01*
X171575Y5063D01*
X171574Y5058D01*
X171572Y5054D01*
X171559Y4936D01*
X171545Y4819D01*
X171546Y4814D01*
X171546Y4810D01*
X171571Y4694D01*
X171595Y4578D01*
X171597Y4574D01*
X171598Y4569D01*
X171660Y4467D01*
X171719Y4365D01*
X171722Y4362D01*
X171725Y4358D01*
X171816Y4281D01*
X171904Y4204D01*
X171908Y4202D01*
X171912Y4199D01*
X172022Y4155D01*
X172131Y4109D01*
X172136Y4109D01*
X172140Y4107D01*
X172307Y4089D01*
X191498Y4120D01*
X191594Y4136D01*
X191690Y4145D01*
X191714Y4156D01*
X191741Y4160D01*
X191826Y4206D01*
X191915Y4245D01*
X191934Y4263D01*
X191958Y4276D01*
X192024Y4346D01*
X192096Y4412D01*
X192109Y4435D01*
X192127Y4454D01*
X192168Y4542D01*
X192214Y4627D01*
X192219Y4653D01*
X192230Y4678D01*
X192241Y4774D01*
X192258Y4869D01*
X192254Y4896D01*
X192257Y4922D01*
X192236Y5017D01*
X192222Y5112D01*
X192210Y5136D01*
X192204Y5162D01*
X192155Y5245D01*
X192111Y5332D01*
X192092Y5350D01*
X192078Y5373D01*
X192004Y5436D01*
X191935Y5504D01*
X191906Y5520D01*
X191891Y5533D01*
X191860Y5545D01*
X191788Y5585D01*
X187581Y7328D01*
X184366Y10543D01*
X182625Y14744D01*
X182625Y19292D01*
X184366Y23493D01*
X187581Y26708D01*
X191782Y28449D01*
X196330Y28449D01*
X200531Y26708D01*
X203746Y23493D01*
X205487Y19292D01*
X205487Y14744D01*
X203746Y10543D01*
X200531Y7328D01*
X196344Y5593D01*
X196261Y5542D01*
X196174Y5496D01*
X196157Y5477D01*
X196135Y5464D01*
X196073Y5388D01*
X196005Y5317D01*
X195994Y5294D01*
X195978Y5274D01*
X195943Y5183D01*
X195902Y5094D01*
X195899Y5068D01*
X195890Y5044D01*
X195886Y4947D01*
X195875Y4849D01*
X195881Y4824D01*
X195879Y4799D01*
X195907Y4705D01*
X195928Y4609D01*
X195941Y4587D01*
X195948Y4562D01*
X196004Y4482D01*
X196054Y4398D01*
X196074Y4381D01*
X196088Y4360D01*
X196167Y4302D01*
X196241Y4238D01*
X196265Y4229D01*
X196286Y4214D01*
X196379Y4183D01*
X196470Y4147D01*
X196501Y4143D01*
X196520Y4137D01*
X196553Y4138D01*
X196637Y4129D01*
X216799Y4161D01*
X216894Y4177D01*
X216991Y4186D01*
X217015Y4197D01*
X217042Y4202D01*
X217127Y4247D01*
X217215Y4286D01*
X217235Y4304D01*
X217259Y4317D01*
X217325Y4387D01*
X217397Y4453D01*
X217409Y4476D01*
X217428Y4496D01*
X217468Y4583D01*
X217515Y4668D01*
X217520Y4695D01*
X217531Y4719D01*
X217542Y4815D01*
X217559Y4910D01*
X217555Y4937D01*
X217558Y4963D01*
X217537Y5058D01*
X217523Y5154D01*
X217511Y5177D01*
X217505Y5204D01*
X217455Y5287D01*
X217412Y5373D01*
X217392Y5392D01*
X217379Y5415D01*
X217305Y5477D01*
X217236Y5545D01*
X217207Y5561D01*
X217191Y5574D01*
X217161Y5586D01*
X217089Y5626D01*
X212981Y7328D01*
X209766Y10543D01*
X208025Y14744D01*
X208025Y19292D01*
X209766Y23493D01*
X212981Y26708D01*
X217182Y28449D01*
X221730Y28449D01*
X225931Y26708D01*
X229146Y23493D01*
X230887Y19292D01*
X230887Y14744D01*
X229146Y10543D01*
X225931Y7328D01*
X221844Y5635D01*
X221761Y5583D01*
X221674Y5537D01*
X221657Y5518D01*
X221635Y5505D01*
X221572Y5430D01*
X221505Y5358D01*
X221494Y5335D01*
X221478Y5316D01*
X221443Y5224D01*
X221402Y5135D01*
X221399Y5110D01*
X221390Y5086D01*
X221386Y4988D01*
X221375Y4891D01*
X221381Y4866D01*
X221380Y4840D01*
X221407Y4746D01*
X221428Y4650D01*
X221441Y4628D01*
X221448Y4604D01*
X221504Y4523D01*
X221554Y4439D01*
X221574Y4423D01*
X221588Y4402D01*
X221667Y4343D01*
X221741Y4280D01*
X221765Y4270D01*
X221786Y4255D01*
X221879Y4225D01*
X221970Y4188D01*
X222001Y4185D01*
X222020Y4179D01*
X222053Y4179D01*
X222137Y4170D01*
X234177Y4190D01*
X234247Y4201D01*
X234318Y4203D01*
X234368Y4221D01*
X234420Y4230D01*
X234483Y4263D01*
X234549Y4288D01*
X234590Y4320D01*
X234637Y4345D01*
X234686Y4397D01*
X234741Y4441D01*
X234770Y4486D01*
X234806Y4524D01*
X234836Y4588D01*
X234874Y4648D01*
X234887Y4699D01*
X234909Y4747D01*
X234917Y4818D01*
X234934Y4887D01*
X234930Y4939D01*
X234936Y4992D01*
X234921Y5061D01*
X234915Y5132D01*
X234895Y5180D01*
X234883Y5232D01*
X234847Y5293D01*
X234819Y5358D01*
X234773Y5415D01*
X234757Y5443D01*
X234739Y5458D01*
X234714Y5489D01*
X233425Y6778D01*
X233425Y27258D01*
X234616Y28449D01*
X255096Y28449D01*
X256287Y27258D01*
X256287Y24638D01*
X256290Y24618D01*
X256288Y24599D01*
X256310Y24497D01*
X256326Y24395D01*
X256336Y24378D01*
X256340Y24358D01*
X256393Y24269D01*
X256442Y24178D01*
X256456Y24164D01*
X256466Y24147D01*
X256545Y24080D01*
X256620Y24008D01*
X256638Y24000D01*
X256653Y23987D01*
X256749Y23948D01*
X256843Y23905D01*
X256863Y23903D01*
X256881Y23895D01*
X257048Y23877D01*
X338245Y23877D01*
X338360Y23896D01*
X338476Y23913D01*
X338481Y23915D01*
X338488Y23916D01*
X338590Y23971D01*
X338695Y24024D01*
X338699Y24029D01*
X338705Y24032D01*
X338785Y24116D01*
X338867Y24200D01*
X338871Y24206D01*
X338874Y24210D01*
X338882Y24227D01*
X338948Y24347D01*
X340068Y27049D01*
X343283Y30264D01*
X347484Y32005D01*
X352032Y32005D01*
X356233Y30264D01*
X359448Y27049D01*
X361189Y22848D01*
X361189Y18300D01*
X359448Y14099D01*
X356233Y10884D01*
X352032Y9143D01*
X347484Y9143D01*
X343283Y10884D01*
X340068Y14099D01*
X338948Y16801D01*
X338887Y16901D01*
X338827Y17001D01*
X338822Y17005D01*
X338819Y17010D01*
X338729Y17085D01*
X338640Y17161D01*
X338634Y17163D01*
X338629Y17167D01*
X338521Y17209D01*
X338412Y17253D01*
X338404Y17254D01*
X338399Y17255D01*
X338381Y17256D01*
X338245Y17271D01*
X257048Y17271D01*
X257028Y17268D01*
X257009Y17270D01*
X256907Y17248D01*
X256805Y17232D01*
X256788Y17222D01*
X256768Y17218D01*
X256679Y17165D01*
X256588Y17116D01*
X256574Y17102D01*
X256557Y17092D01*
X256490Y17013D01*
X256418Y16938D01*
X256410Y16920D01*
X256397Y16905D01*
X256358Y16809D01*
X256315Y16715D01*
X256313Y16695D01*
X256305Y16677D01*
X256287Y16510D01*
X256287Y6778D01*
X255033Y5524D01*
X254990Y5465D01*
X254941Y5413D01*
X254919Y5366D01*
X254889Y5324D01*
X254868Y5255D01*
X254837Y5189D01*
X254832Y5138D01*
X254817Y5089D01*
X254819Y5017D01*
X254811Y4945D01*
X254822Y4895D01*
X254823Y4843D01*
X254848Y4775D01*
X254863Y4705D01*
X254890Y4661D01*
X254908Y4612D01*
X254953Y4556D01*
X254990Y4494D01*
X255029Y4460D01*
X255061Y4420D01*
X255122Y4381D01*
X255177Y4334D01*
X255225Y4315D01*
X255268Y4287D01*
X255338Y4270D01*
X255405Y4243D01*
X255476Y4235D01*
X255507Y4227D01*
X255530Y4229D01*
X255572Y4224D01*
X465832Y4566D01*
X465851Y4569D01*
X465871Y4567D01*
X465972Y4589D01*
X466074Y4606D01*
X466092Y4616D01*
X466111Y4620D01*
X466200Y4673D01*
X466292Y4722D01*
X466305Y4736D01*
X466322Y4746D01*
X466389Y4825D01*
X466461Y4900D01*
X466469Y4918D01*
X466482Y4933D01*
X466520Y5029D01*
X466564Y5124D01*
X466566Y5143D01*
X466573Y5162D01*
X466592Y5328D01*
X466095Y366264D01*
X466092Y366284D01*
X466094Y366303D01*
X466072Y366405D01*
X466055Y366507D01*
X466046Y366524D01*
X466041Y366544D01*
X465988Y366633D01*
X465939Y366724D01*
X465925Y366738D01*
X465915Y366755D01*
X465836Y366822D01*
X465761Y366893D01*
X465743Y366901D01*
X465728Y366914D01*
X465632Y366953D01*
X465538Y366996D01*
X465518Y366999D01*
X465500Y367006D01*
X465333Y367024D01*
X5079Y366524D01*
X5060Y366521D01*
X5041Y366523D01*
X4939Y366501D01*
X4836Y366484D01*
X4819Y366475D01*
X4800Y366471D01*
X4711Y366418D01*
X4619Y366369D01*
X4606Y366355D01*
X4589Y366345D01*
X4521Y366266D01*
X4450Y366190D01*
X4442Y366173D01*
X4429Y366158D01*
X4390Y366061D01*
X4347Y365967D01*
X4345Y365948D01*
X4337Y365930D01*
X4319Y365763D01*
X4319Y269301D01*
X4328Y269244D01*
X4327Y269187D01*
X4348Y269124D01*
X4358Y269058D01*
X4385Y269008D01*
X4403Y268953D01*
X4442Y268900D01*
X4474Y268841D01*
X4515Y268801D01*
X4549Y268755D01*
X4604Y268717D01*
X4652Y268671D01*
X4704Y268647D01*
X4751Y268615D01*
X4815Y268596D01*
X4875Y268568D01*
X4932Y268561D01*
X4987Y268545D01*
X5053Y268548D01*
X5119Y268541D01*
X5175Y268553D01*
X5233Y268555D01*
X5295Y268579D01*
X5360Y268593D01*
X5409Y268622D01*
X5462Y268643D01*
X5514Y268685D01*
X5571Y268719D01*
X5608Y268763D01*
X5652Y268799D01*
X5688Y268855D01*
X5731Y268906D01*
X5752Y268959D01*
X5783Y269008D01*
X5811Y269105D01*
X5823Y269134D01*
X5825Y269152D01*
X5830Y269169D01*
X6628Y273698D01*
X13682Y293077D01*
X23993Y310936D01*
X37248Y326734D01*
X53046Y339989D01*
X70905Y350300D01*
X90284Y357354D01*
X110593Y360935D01*
X302961Y360935D01*
X302994Y360940D01*
X303028Y360938D01*
X303115Y360960D01*
X303204Y360974D01*
X303233Y360990D01*
X303266Y360999D01*
X303411Y361082D01*
X303441Y361104D01*
X304487Y360944D01*
X304520Y360944D01*
X304602Y360935D01*
X305660Y360935D01*
X305686Y360909D01*
X305713Y360889D01*
X305735Y360864D01*
X305813Y360818D01*
X305886Y360765D01*
X305918Y360755D01*
X305947Y360738D01*
X306109Y360694D01*
X311686Y359838D01*
X324655Y354708D01*
X336158Y346819D01*
X345617Y336570D01*
X352557Y324472D01*
X356632Y311133D01*
X357291Y302010D01*
X357312Y301923D01*
X357325Y301834D01*
X357340Y301804D01*
X357348Y301771D01*
X357396Y301695D01*
X357436Y301615D01*
X357460Y301591D01*
X357478Y301562D01*
X357548Y301505D01*
X357612Y301442D01*
X357650Y301421D01*
X357669Y301406D01*
X357698Y301395D01*
X357759Y301361D01*
X359789Y300520D01*
X363004Y297305D01*
X364745Y293104D01*
X364745Y288556D01*
X363004Y284355D01*
X359789Y281140D01*
X355588Y279399D01*
X351040Y279399D01*
X346839Y281140D01*
X343624Y284355D01*
X341883Y288556D01*
X341883Y293104D01*
X343624Y297305D01*
X346839Y300520D01*
X349820Y301755D01*
X349838Y301767D01*
X349859Y301773D01*
X349942Y301831D01*
X350029Y301885D01*
X350043Y301901D01*
X350060Y301914D01*
X350121Y301996D01*
X350186Y302074D01*
X350194Y302094D01*
X350206Y302112D01*
X350238Y302209D01*
X350274Y302304D01*
X350275Y302325D01*
X350282Y302346D01*
X350288Y302513D01*
X349764Y309766D01*
X349764Y309768D01*
X349764Y309769D01*
X349733Y309934D01*
X346166Y321611D01*
X346165Y321612D01*
X346165Y321614D01*
X346098Y321767D01*
X340022Y332358D01*
X340021Y332359D01*
X340021Y332361D01*
X339921Y332496D01*
X331641Y341469D01*
X331640Y341470D01*
X331639Y341471D01*
X331512Y341580D01*
X321442Y348486D01*
X321441Y348487D01*
X321440Y348487D01*
X321292Y348566D01*
X309938Y353058D01*
X309906Y353065D01*
X309815Y353095D01*
X304055Y354313D01*
X304040Y354313D01*
X303898Y354329D01*
X120904Y354329D01*
X120891Y354327D01*
X120871Y354329D01*
X111241Y353908D01*
X111210Y353902D01*
X111142Y353897D01*
X92175Y350553D01*
X92145Y350543D01*
X92047Y350519D01*
X73949Y343931D01*
X73921Y343916D01*
X73828Y343875D01*
X57149Y334245D01*
X57125Y334226D01*
X57040Y334169D01*
X42286Y321789D01*
X42266Y321766D01*
X42193Y321696D01*
X29813Y306942D01*
X29797Y306915D01*
X29737Y306833D01*
X20107Y290154D01*
X20096Y290124D01*
X20051Y290033D01*
X13463Y271935D01*
X13458Y271904D01*
X13429Y271807D01*
X10085Y252840D01*
X10084Y252808D01*
X10074Y252741D01*
X9653Y243111D01*
X9655Y243098D01*
X9653Y243078D01*
X9653Y48514D01*
X9656Y48494D01*
X9654Y48475D01*
X9676Y48373D01*
X9692Y48271D01*
X9702Y48254D01*
X9706Y48234D01*
X9759Y48145D01*
X9808Y48054D01*
X9822Y48040D01*
X9832Y48023D01*
X9911Y47956D01*
X9986Y47884D01*
X10004Y47876D01*
X10019Y47863D01*
X10115Y47824D01*
X10209Y47781D01*
X10229Y47779D01*
X10247Y47771D01*
X10414Y47753D01*
X17268Y47753D01*
X17288Y47756D01*
X17307Y47754D01*
X17409Y47776D01*
X17511Y47792D01*
X17528Y47802D01*
X17548Y47806D01*
X17637Y47859D01*
X17728Y47908D01*
X17742Y47922D01*
X17759Y47932D01*
X17826Y48011D01*
X17898Y48086D01*
X17906Y48104D01*
X17919Y48119D01*
X17958Y48215D01*
X18001Y48309D01*
X18003Y48329D01*
X18011Y48347D01*
X18029Y48514D01*
X18029Y50820D01*
X18975Y51765D01*
X19044Y51862D01*
X19115Y51958D01*
X19116Y51962D01*
X19118Y51965D01*
X19153Y52078D01*
X19189Y52192D01*
X19189Y52196D01*
X19191Y52200D01*
X19188Y52319D01*
X19186Y52438D01*
X19184Y52442D01*
X19184Y52446D01*
X19144Y52557D01*
X19104Y52670D01*
X19101Y52673D01*
X19100Y52677D01*
X19026Y52770D01*
X18952Y52864D01*
X18948Y52867D01*
X18946Y52869D01*
X18934Y52877D01*
X18817Y52963D01*
X18502Y53145D01*
X18029Y53618D01*
X17694Y54197D01*
X17521Y54844D01*
X17521Y57405D01*
X31300Y57405D01*
X31320Y57408D01*
X31339Y57406D01*
X31441Y57428D01*
X31543Y57445D01*
X31560Y57454D01*
X31580Y57458D01*
X31669Y57511D01*
X31760Y57560D01*
X31774Y57574D01*
X31791Y57584D01*
X31858Y57663D01*
X31929Y57738D01*
X31938Y57756D01*
X31951Y57771D01*
X31990Y57867D01*
X32033Y57961D01*
X32035Y57981D01*
X32043Y57999D01*
X32061Y58166D01*
X32061Y59690D01*
X32058Y59710D01*
X32060Y59729D01*
X32038Y59831D01*
X32021Y59933D01*
X32012Y59950D01*
X32008Y59970D01*
X31955Y60059D01*
X31906Y60150D01*
X31892Y60164D01*
X31882Y60181D01*
X31803Y60248D01*
X31728Y60319D01*
X31710Y60328D01*
X31695Y60341D01*
X31599Y60380D01*
X31505Y60423D01*
X31485Y60425D01*
X31467Y60433D01*
X31300Y60451D01*
X17521Y60451D01*
X17521Y63012D01*
X17694Y63659D01*
X18029Y64238D01*
X18502Y64711D01*
X18817Y64893D01*
X18909Y64968D01*
X19002Y65043D01*
X19004Y65046D01*
X19007Y65049D01*
X19070Y65149D01*
X19135Y65250D01*
X19136Y65254D01*
X19138Y65257D01*
X19166Y65373D01*
X19195Y65488D01*
X19195Y65492D01*
X19196Y65496D01*
X19185Y65613D01*
X19176Y65733D01*
X19174Y65737D01*
X19174Y65741D01*
X19126Y65850D01*
X19080Y65960D01*
X19076Y65964D01*
X19075Y65967D01*
X19066Y65977D01*
X18975Y66091D01*
X18029Y67036D01*
X18029Y76220D01*
X19249Y77440D01*
X19261Y77456D01*
X19276Y77468D01*
X19332Y77556D01*
X19393Y77639D01*
X19398Y77658D01*
X19409Y77675D01*
X19434Y77776D01*
X19465Y77875D01*
X19464Y77894D01*
X19469Y77914D01*
X19461Y78017D01*
X19459Y78120D01*
X19452Y78139D01*
X19450Y78159D01*
X19410Y78254D01*
X19374Y78351D01*
X19362Y78367D01*
X19354Y78385D01*
X19249Y78516D01*
X18029Y79736D01*
X18029Y79879D01*
X18023Y79920D01*
X18025Y79961D01*
X18003Y80040D01*
X17990Y80122D01*
X17970Y80158D01*
X17959Y80198D01*
X17913Y80266D01*
X17874Y80339D01*
X17845Y80367D01*
X17821Y80402D01*
X17756Y80452D01*
X17696Y80509D01*
X17659Y80526D01*
X17626Y80551D01*
X17548Y80577D01*
X17473Y80612D01*
X17432Y80617D01*
X17393Y80630D01*
X17310Y80630D01*
X17229Y80639D01*
X17188Y80630D01*
X17147Y80631D01*
X16994Y80588D01*
X16988Y80587D01*
X16987Y80586D01*
X16985Y80586D01*
X16717Y80479D01*
X16178Y80710D01*
X16110Y80727D01*
X16044Y80753D01*
X15970Y80761D01*
X15939Y80769D01*
X15917Y80767D01*
X15878Y80771D01*
X15291Y80771D01*
X14837Y81225D01*
X14788Y81261D01*
X14745Y81304D01*
X14664Y81350D01*
X14637Y81369D01*
X14622Y81373D01*
X14599Y81386D01*
X14009Y81639D01*
X13791Y82184D01*
X13755Y82244D01*
X13727Y82309D01*
X13681Y82367D01*
X13664Y82395D01*
X13647Y82409D01*
X13622Y82440D01*
X13207Y82855D01*
X13207Y83496D01*
X13197Y83557D01*
X13198Y83618D01*
X13173Y83707D01*
X13168Y83739D01*
X13160Y83754D01*
X13153Y83779D01*
X12249Y86039D01*
X12217Y86092D01*
X12194Y86150D01*
X12139Y86221D01*
X12122Y86249D01*
X12109Y86260D01*
X12092Y86283D01*
X11653Y86741D01*
X11665Y87335D01*
X11656Y87403D01*
X11656Y87472D01*
X11635Y87546D01*
X11631Y87578D01*
X11621Y87598D01*
X11611Y87634D01*
X11391Y88185D01*
X11641Y88769D01*
X11656Y88829D01*
X11673Y88869D01*
X11674Y88872D01*
X11674Y88873D01*
X11680Y88886D01*
X11692Y88976D01*
X11700Y89007D01*
X11698Y89024D01*
X11702Y89052D01*
X12411Y122154D01*
X12402Y122219D01*
X12403Y122285D01*
X12385Y122340D01*
X12377Y122398D01*
X12347Y122457D01*
X12327Y122519D01*
X12326Y122520D01*
X12446Y123868D01*
X12445Y123888D01*
X12449Y123920D01*
X12478Y125284D01*
X12484Y125296D01*
X12519Y125342D01*
X12540Y125404D01*
X12570Y125463D01*
X12570Y125464D01*
X13608Y126333D01*
X13621Y126347D01*
X13646Y126367D01*
X14632Y127311D01*
X14644Y127315D01*
X14702Y127323D01*
X14761Y127353D01*
X14823Y127373D01*
X14892Y127419D01*
X14922Y127434D01*
X14935Y127448D01*
X14963Y127466D01*
X113670Y210029D01*
X113688Y210050D01*
X113711Y210066D01*
X113768Y210143D01*
X113831Y210215D01*
X113841Y210241D01*
X113858Y210263D01*
X113887Y210354D01*
X113923Y210443D01*
X113925Y210471D01*
X113934Y210497D01*
X113933Y210593D01*
X113939Y210688D01*
X113932Y210715D01*
X113931Y210743D01*
X113885Y210904D01*
X113283Y212356D01*
X113283Y216904D01*
X115024Y221105D01*
X118239Y224320D01*
X122440Y226061D01*
X126988Y226061D01*
X131189Y224320D01*
X134404Y221105D01*
X136145Y216904D01*
X136145Y212356D01*
X134404Y208155D01*
X131189Y204940D01*
X126988Y203199D01*
X122440Y203199D01*
X118955Y204643D01*
X118873Y204662D01*
X118795Y204690D01*
X118754Y204690D01*
X118715Y204699D01*
X118632Y204691D01*
X118549Y204692D01*
X118511Y204680D01*
X118470Y204676D01*
X118394Y204642D01*
X118315Y204616D01*
X118271Y204587D01*
X118246Y204576D01*
X118224Y204556D01*
X118175Y204524D01*
X19789Y122228D01*
X19713Y122140D01*
X19635Y122053D01*
X19632Y122047D01*
X19628Y122042D01*
X19584Y121935D01*
X19538Y121827D01*
X19537Y121819D01*
X19535Y121814D01*
X19534Y121795D01*
X19516Y121661D01*
X19129Y103588D01*
X19133Y103560D01*
X19129Y103533D01*
X19150Y103439D01*
X19163Y103345D01*
X19176Y103320D01*
X19182Y103292D01*
X19231Y103210D01*
X19274Y103125D01*
X19294Y103105D01*
X19308Y103081D01*
X19380Y103019D01*
X19448Y102952D01*
X19473Y102939D01*
X19495Y102921D01*
X19583Y102885D01*
X19669Y102843D01*
X19697Y102840D01*
X19723Y102829D01*
X19890Y102811D01*
X28218Y102811D01*
X28225Y102812D01*
X28232Y102811D01*
X28346Y102832D01*
X28461Y102850D01*
X28467Y102854D01*
X28474Y102855D01*
X28576Y102911D01*
X28678Y102966D01*
X28683Y102971D01*
X28689Y102974D01*
X28768Y103060D01*
X28848Y103144D01*
X28851Y103150D01*
X28855Y103155D01*
X28902Y103262D01*
X28951Y103367D01*
X28952Y103374D01*
X28955Y103380D01*
X28979Y103546D01*
X29513Y119246D01*
X29509Y119279D01*
X29509Y119358D01*
X29388Y120420D01*
X29404Y120440D01*
X29421Y120471D01*
X29445Y120497D01*
X29481Y120578D01*
X29524Y120654D01*
X29530Y120689D01*
X29545Y120722D01*
X29569Y120888D01*
X29570Y120913D01*
X30350Y121643D01*
X30370Y121669D01*
X30426Y121725D01*
X38457Y131817D01*
X38516Y131924D01*
X38576Y132029D01*
X38576Y132031D01*
X38577Y132032D01*
X38578Y132038D01*
X38616Y132192D01*
X38647Y132431D01*
X39337Y132960D01*
X39343Y132966D01*
X39351Y132971D01*
X39469Y133090D01*
X40010Y133770D01*
X40250Y133797D01*
X40365Y133830D01*
X40484Y133863D01*
X40485Y133864D01*
X40486Y133864D01*
X40491Y133867D01*
X40627Y133950D01*
X112985Y189461D01*
X112998Y189474D01*
X113013Y189483D01*
X113082Y189564D01*
X113154Y189640D01*
X113161Y189657D01*
X113173Y189670D01*
X113212Y189768D01*
X113256Y189864D01*
X113258Y189882D01*
X113265Y189898D01*
X113283Y190065D01*
X113283Y191504D01*
X115024Y195705D01*
X118239Y198920D01*
X122440Y200661D01*
X126988Y200661D01*
X131189Y198920D01*
X134404Y195705D01*
X136145Y191504D01*
X136145Y186956D01*
X134404Y182755D01*
X131189Y179540D01*
X126988Y177799D01*
X122440Y177799D01*
X118239Y179540D01*
X115527Y182252D01*
X115451Y182306D01*
X115380Y182366D01*
X115352Y182377D01*
X115327Y182395D01*
X115238Y182422D01*
X115151Y182457D01*
X115121Y182459D01*
X115092Y182467D01*
X114999Y182465D01*
X114906Y182470D01*
X114877Y182462D01*
X114846Y182461D01*
X114759Y182429D01*
X114669Y182404D01*
X114636Y182384D01*
X114615Y182377D01*
X114590Y182356D01*
X114525Y182317D01*
X44149Y128326D01*
X44143Y128320D01*
X44135Y128315D01*
X44017Y128196D01*
X36244Y118428D01*
X36227Y118397D01*
X36203Y118371D01*
X36167Y118290D01*
X36124Y118213D01*
X36118Y118178D01*
X36103Y118146D01*
X36079Y117980D01*
X35590Y103598D01*
X35594Y103565D01*
X35591Y103533D01*
X35610Y103444D01*
X35622Y103354D01*
X35636Y103324D01*
X35643Y103292D01*
X35689Y103214D01*
X35729Y103133D01*
X35752Y103109D01*
X35769Y103081D01*
X35838Y103022D01*
X35902Y102957D01*
X35931Y102943D01*
X35956Y102921D01*
X36040Y102887D01*
X36121Y102846D01*
X36154Y102841D01*
X36184Y102829D01*
X36351Y102811D01*
X44904Y102811D01*
X46095Y101620D01*
X46095Y92436D01*
X44875Y91216D01*
X44863Y91200D01*
X44848Y91188D01*
X44792Y91100D01*
X44731Y91017D01*
X44726Y90998D01*
X44715Y90981D01*
X44690Y90880D01*
X44659Y90781D01*
X44660Y90762D01*
X44655Y90742D01*
X44663Y90639D01*
X44665Y90536D01*
X44672Y90517D01*
X44674Y90497D01*
X44714Y90402D01*
X44750Y90305D01*
X44762Y90289D01*
X44770Y90271D01*
X44875Y90140D01*
X46095Y88920D01*
X46095Y79736D01*
X44875Y78516D01*
X44863Y78500D01*
X44848Y78488D01*
X44792Y78400D01*
X44731Y78317D01*
X44726Y78298D01*
X44715Y78281D01*
X44690Y78180D01*
X44659Y78081D01*
X44660Y78062D01*
X44655Y78042D01*
X44663Y77939D01*
X44665Y77836D01*
X44672Y77817D01*
X44674Y77797D01*
X44714Y77702D01*
X44750Y77605D01*
X44762Y77589D01*
X44770Y77571D01*
X44875Y77440D01*
X46095Y76220D01*
X46095Y67036D01*
X45149Y66091D01*
X45080Y65994D01*
X45009Y65898D01*
X45008Y65894D01*
X45006Y65891D01*
X44971Y65778D01*
X44935Y65664D01*
X44935Y65660D01*
X44933Y65656D01*
X44936Y65537D01*
X44938Y65418D01*
X44940Y65414D01*
X44940Y65410D01*
X44980Y65299D01*
X45020Y65186D01*
X45023Y65183D01*
X45024Y65179D01*
X45098Y65086D01*
X45172Y64992D01*
X45176Y64989D01*
X45178Y64987D01*
X45190Y64979D01*
X45307Y64893D01*
X45622Y64711D01*
X46095Y64238D01*
X46430Y63659D01*
X46603Y63012D01*
X46603Y60451D01*
X32824Y60451D01*
X32804Y60448D01*
X32785Y60450D01*
X32683Y60428D01*
X32581Y60411D01*
X32564Y60402D01*
X32544Y60398D01*
X32455Y60345D01*
X32364Y60296D01*
X32350Y60282D01*
X32333Y60272D01*
X32266Y60193D01*
X32195Y60118D01*
X32186Y60100D01*
X32173Y60085D01*
X32134Y59989D01*
X32091Y59895D01*
X32089Y59875D01*
X32081Y59857D01*
X32063Y59690D01*
X32063Y58166D01*
X32066Y58146D01*
X32064Y58127D01*
X32086Y58025D01*
X32103Y57923D01*
X32112Y57906D01*
X32116Y57886D01*
X32169Y57797D01*
X32218Y57706D01*
X32232Y57692D01*
X32242Y57675D01*
X32321Y57608D01*
X32396Y57537D01*
X32414Y57528D01*
X32429Y57515D01*
X32525Y57476D01*
X32619Y57433D01*
X32639Y57431D01*
X32657Y57423D01*
X32824Y57405D01*
X46603Y57405D01*
X46603Y54844D01*
X46430Y54197D01*
X46095Y53618D01*
X45622Y53145D01*
X45307Y52963D01*
X45215Y52888D01*
X45122Y52813D01*
X45120Y52810D01*
X45117Y52807D01*
X45054Y52707D01*
X44989Y52606D01*
X44988Y52602D01*
X44986Y52599D01*
X44958Y52483D01*
X44929Y52368D01*
X44929Y52364D01*
X44928Y52360D01*
X44939Y52241D01*
X44948Y52123D01*
X44950Y52119D01*
X44950Y52115D01*
X44998Y52006D01*
X45044Y51896D01*
X45048Y51892D01*
X45049Y51889D01*
X45058Y51879D01*
X45149Y51765D01*
X46095Y50820D01*
X46095Y50292D01*
X46098Y50272D01*
X46096Y50253D01*
X46118Y50151D01*
X46134Y50049D01*
X46144Y50032D01*
X46148Y50012D01*
X46201Y49923D01*
X46250Y49832D01*
X46264Y49818D01*
X46274Y49801D01*
X46353Y49734D01*
X46428Y49662D01*
X46446Y49654D01*
X46461Y49641D01*
X46557Y49602D01*
X46651Y49559D01*
X46671Y49557D01*
X46689Y49549D01*
X46856Y49531D01*
X56268Y49531D01*
X56288Y49534D01*
X56307Y49532D01*
X56409Y49554D01*
X56511Y49570D01*
X56528Y49580D01*
X56548Y49584D01*
X56637Y49637D01*
X56728Y49686D01*
X56742Y49700D01*
X56759Y49710D01*
X56826Y49789D01*
X56898Y49864D01*
X56906Y49882D01*
X56919Y49897D01*
X56958Y49993D01*
X57001Y50087D01*
X57003Y50107D01*
X57011Y50125D01*
X57029Y50292D01*
X57029Y50820D01*
X57975Y51765D01*
X58044Y51862D01*
X58115Y51958D01*
X58116Y51962D01*
X58118Y51965D01*
X58153Y52078D01*
X58189Y52192D01*
X58189Y52196D01*
X58191Y52200D01*
X58188Y52319D01*
X58186Y52438D01*
X58184Y52442D01*
X58184Y52446D01*
X58144Y52557D01*
X58104Y52670D01*
X58101Y52673D01*
X58100Y52677D01*
X58026Y52770D01*
X57952Y52864D01*
X57948Y52867D01*
X57946Y52869D01*
X57934Y52877D01*
X57817Y52963D01*
X57502Y53145D01*
X57029Y53618D01*
X56694Y54197D01*
X56521Y54844D01*
X56521Y57405D01*
X70300Y57405D01*
X70320Y57408D01*
X70339Y57406D01*
X70441Y57428D01*
X70543Y57445D01*
X70560Y57454D01*
X70580Y57458D01*
X70669Y57511D01*
X70760Y57560D01*
X70774Y57574D01*
X70791Y57584D01*
X70858Y57663D01*
X70929Y57738D01*
X70938Y57756D01*
X70951Y57771D01*
X70990Y57867D01*
X71033Y57961D01*
X71035Y57981D01*
X71043Y57999D01*
X71061Y58166D01*
X71061Y59690D01*
X71058Y59710D01*
X71060Y59729D01*
X71038Y59831D01*
X71021Y59933D01*
X71012Y59950D01*
X71008Y59970D01*
X70955Y60059D01*
X70906Y60150D01*
X70892Y60164D01*
X70882Y60181D01*
X70803Y60248D01*
X70728Y60319D01*
X70710Y60328D01*
X70695Y60341D01*
X70599Y60380D01*
X70505Y60423D01*
X70485Y60425D01*
X70467Y60433D01*
X70300Y60451D01*
X56521Y60451D01*
X56521Y63012D01*
X56694Y63659D01*
X57029Y64238D01*
X57502Y64711D01*
X57817Y64893D01*
X57909Y64968D01*
X58002Y65043D01*
X58004Y65046D01*
X58007Y65049D01*
X58070Y65149D01*
X58135Y65250D01*
X58136Y65254D01*
X58138Y65257D01*
X58166Y65373D01*
X58195Y65488D01*
X58195Y65492D01*
X58196Y65496D01*
X58185Y65613D01*
X58176Y65733D01*
X58174Y65737D01*
X58174Y65741D01*
X58126Y65850D01*
X58080Y65960D01*
X58076Y65964D01*
X58075Y65967D01*
X58066Y65977D01*
X57975Y66091D01*
X57029Y67036D01*
X57029Y76220D01*
X58249Y77440D01*
X58261Y77456D01*
X58276Y77468D01*
X58332Y77556D01*
X58393Y77639D01*
X58398Y77658D01*
X58409Y77675D01*
X58434Y77776D01*
X58465Y77875D01*
X58464Y77894D01*
X58469Y77914D01*
X58461Y78017D01*
X58459Y78120D01*
X58452Y78139D01*
X58450Y78159D01*
X58410Y78254D01*
X58374Y78351D01*
X58362Y78367D01*
X58354Y78385D01*
X58249Y78516D01*
X57029Y79736D01*
X57029Y88920D01*
X58249Y90140D01*
X58261Y90156D01*
X58276Y90168D01*
X58332Y90256D01*
X58393Y90339D01*
X58398Y90358D01*
X58409Y90375D01*
X58434Y90476D01*
X58465Y90575D01*
X58464Y90594D01*
X58469Y90614D01*
X58461Y90717D01*
X58459Y90820D01*
X58452Y90839D01*
X58450Y90859D01*
X58410Y90954D01*
X58374Y91051D01*
X58362Y91067D01*
X58354Y91085D01*
X58249Y91216D01*
X57029Y92436D01*
X57029Y101620D01*
X58220Y102811D01*
X83904Y102811D01*
X85095Y101620D01*
X85095Y92436D01*
X83875Y91216D01*
X83863Y91200D01*
X83848Y91188D01*
X83792Y91100D01*
X83731Y91017D01*
X83726Y90998D01*
X83715Y90981D01*
X83690Y90880D01*
X83659Y90781D01*
X83660Y90762D01*
X83655Y90742D01*
X83663Y90639D01*
X83665Y90536D01*
X83672Y90517D01*
X83674Y90497D01*
X83714Y90402D01*
X83750Y90305D01*
X83762Y90289D01*
X83770Y90271D01*
X83875Y90140D01*
X85095Y88920D01*
X85095Y79736D01*
X83875Y78516D01*
X83863Y78500D01*
X83848Y78488D01*
X83792Y78400D01*
X83731Y78317D01*
X83726Y78298D01*
X83715Y78281D01*
X83690Y78180D01*
X83659Y78081D01*
X83660Y78062D01*
X83655Y78042D01*
X83663Y77939D01*
X83665Y77836D01*
X83672Y77817D01*
X83674Y77797D01*
X83714Y77702D01*
X83750Y77605D01*
X83762Y77589D01*
X83770Y77571D01*
X83875Y77440D01*
X85095Y76220D01*
X85095Y67036D01*
X84149Y66091D01*
X84080Y65994D01*
X84009Y65898D01*
X84008Y65894D01*
X84006Y65891D01*
X83971Y65778D01*
X83935Y65664D01*
X83935Y65660D01*
X83933Y65656D01*
X83936Y65537D01*
X83938Y65418D01*
X83940Y65414D01*
X83940Y65410D01*
X83980Y65299D01*
X84020Y65186D01*
X84023Y65183D01*
X84024Y65179D01*
X84098Y65086D01*
X84172Y64992D01*
X84176Y64989D01*
X84178Y64987D01*
X84190Y64979D01*
X84307Y64893D01*
X84622Y64711D01*
X85095Y64238D01*
X85430Y63659D01*
X85603Y63012D01*
X85603Y60451D01*
X71824Y60451D01*
X71804Y60448D01*
X71785Y60450D01*
X71683Y60428D01*
X71581Y60411D01*
X71564Y60402D01*
X71544Y60398D01*
X71455Y60345D01*
X71364Y60296D01*
X71350Y60282D01*
X71333Y60272D01*
X71266Y60193D01*
X71195Y60118D01*
X71186Y60100D01*
X71173Y60085D01*
X71134Y59989D01*
X71091Y59895D01*
X71089Y59875D01*
X71081Y59857D01*
X71063Y59690D01*
X71063Y58166D01*
X71066Y58146D01*
X71064Y58127D01*
X71086Y58025D01*
X71103Y57923D01*
X71112Y57906D01*
X71116Y57886D01*
X71169Y57797D01*
X71218Y57706D01*
X71232Y57692D01*
X71242Y57675D01*
X71321Y57608D01*
X71396Y57537D01*
X71414Y57528D01*
X71429Y57515D01*
X71525Y57476D01*
X71619Y57433D01*
X71639Y57431D01*
X71657Y57423D01*
X71824Y57405D01*
X85603Y57405D01*
X85603Y54844D01*
X85430Y54197D01*
X85095Y53618D01*
X84622Y53145D01*
X84307Y52963D01*
X84215Y52888D01*
X84122Y52813D01*
X84120Y52810D01*
X84117Y52807D01*
X84054Y52707D01*
X83989Y52606D01*
X83988Y52602D01*
X83986Y52599D01*
X83958Y52483D01*
X83929Y52368D01*
X83929Y52364D01*
X83928Y52360D01*
X83939Y52241D01*
X83948Y52123D01*
X83950Y52119D01*
X83950Y52115D01*
X83998Y52006D01*
X84044Y51896D01*
X84048Y51892D01*
X84049Y51889D01*
X84058Y51879D01*
X84149Y51765D01*
X85095Y50820D01*
X85095Y41636D01*
X83904Y40445D01*
X58220Y40445D01*
X57029Y41636D01*
X57029Y42164D01*
X57026Y42184D01*
X57028Y42203D01*
X57006Y42305D01*
X56990Y42407D01*
X56980Y42424D01*
X56976Y42444D01*
X56923Y42533D01*
X56874Y42624D01*
X56860Y42638D01*
X56850Y42655D01*
X56771Y42722D01*
X56696Y42794D01*
X56678Y42802D01*
X56663Y42815D01*
X56567Y42854D01*
X56473Y42897D01*
X56453Y42899D01*
X56435Y42907D01*
X56268Y42925D01*
X46856Y42925D01*
X46836Y42922D01*
X46817Y42924D01*
X46715Y42902D01*
X46613Y42886D01*
X46596Y42876D01*
X46576Y42872D01*
X46487Y42819D01*
X46396Y42770D01*
X46382Y42756D01*
X46365Y42746D01*
X46298Y42667D01*
X46226Y42592D01*
X46218Y42574D01*
X46205Y42559D01*
X46166Y42463D01*
X46123Y42369D01*
X46121Y42349D01*
X46113Y42331D01*
X46095Y42164D01*
X46095Y41636D01*
X44904Y40445D01*
X19209Y40445D01*
X19175Y40470D01*
X19106Y40529D01*
X19076Y40541D01*
X19049Y40560D01*
X18962Y40587D01*
X18877Y40621D01*
X18837Y40625D01*
X18814Y40632D01*
X18782Y40631D01*
X18711Y40639D01*
X5080Y40639D01*
X5060Y40636D01*
X5041Y40638D01*
X4939Y40616D01*
X4837Y40600D01*
X4820Y40590D01*
X4800Y40586D01*
X4711Y40533D01*
X4620Y40484D01*
X4606Y40470D01*
X4589Y40460D01*
X4522Y40381D01*
X4450Y40306D01*
X4442Y40288D01*
X4429Y40273D01*
X4390Y40177D01*
X4347Y40083D01*
X4345Y40063D01*
X4337Y40045D01*
X4319Y39878D01*
X4319Y4579D01*
X4322Y4558D01*
X4320Y4538D01*
X4342Y4437D01*
X4358Y4336D01*
X4368Y4318D01*
X4372Y4298D01*
X4425Y4209D01*
X4474Y4118D01*
X4488Y4104D01*
X4499Y4087D01*
X4577Y4020D01*
X4652Y3949D01*
X4671Y3940D01*
X4686Y3927D01*
X4782Y3889D01*
X4875Y3845D01*
X4895Y3843D01*
X4914Y3836D01*
X5081Y3817D01*
X165044Y4077D01*
G37*
%LPC*%
G36*
X398284Y9143D02*
X398284Y9143D01*
X394083Y10884D01*
X390868Y14099D01*
X389127Y18300D01*
X389127Y22848D01*
X390868Y27049D01*
X394083Y30264D01*
X398284Y32005D01*
X402832Y32005D01*
X407033Y30264D01*
X410187Y27111D01*
X410254Y27062D01*
X410317Y27007D01*
X410354Y26991D01*
X410386Y26967D01*
X410466Y26943D01*
X410543Y26910D01*
X410583Y26907D01*
X410621Y26895D01*
X410705Y26897D01*
X410788Y26891D01*
X410827Y26900D01*
X410867Y26901D01*
X410946Y26930D01*
X411027Y26950D01*
X411072Y26976D01*
X411098Y26986D01*
X411121Y27004D01*
X411172Y27033D01*
X415015Y29825D01*
X415040Y29850D01*
X415070Y29869D01*
X415183Y29993D01*
X418827Y35008D01*
X418843Y35040D01*
X418866Y35067D01*
X418935Y35220D01*
X420850Y41115D01*
X420851Y41121D01*
X420854Y41126D01*
X420885Y41291D01*
X421129Y44390D01*
X421127Y44412D01*
X421131Y44450D01*
X421131Y56388D01*
X421127Y56414D01*
X421128Y56463D01*
X420869Y59089D01*
X420862Y59116D01*
X420861Y59145D01*
X420815Y59306D01*
X418805Y64158D01*
X418770Y64214D01*
X418744Y64274D01*
X418692Y64339D01*
X418675Y64367D01*
X418660Y64380D01*
X418640Y64405D01*
X414925Y68120D01*
X414872Y68158D01*
X414825Y68204D01*
X414752Y68244D01*
X414726Y68263D01*
X414707Y68269D01*
X414678Y68285D01*
X409826Y70295D01*
X409798Y70301D01*
X409773Y70314D01*
X409609Y70349D01*
X406983Y70608D01*
X406956Y70606D01*
X406908Y70611D01*
X345440Y70611D01*
X345418Y70608D01*
X345380Y70609D01*
X342718Y70399D01*
X342713Y70398D01*
X342707Y70398D01*
X342543Y70364D01*
X337479Y68719D01*
X337447Y68703D01*
X337412Y68694D01*
X337267Y68611D01*
X333177Y65640D01*
X333171Y65634D01*
X333164Y65630D01*
X333085Y65547D01*
X333004Y65465D01*
X333001Y65458D01*
X332995Y65452D01*
X332946Y65347D01*
X332896Y65244D01*
X332895Y65236D01*
X332891Y65229D01*
X332879Y65115D01*
X332864Y65000D01*
X332865Y64992D01*
X332864Y64985D01*
X332889Y64872D01*
X332911Y64759D01*
X332915Y64752D01*
X332917Y64744D01*
X332975Y64646D01*
X333033Y64545D01*
X333039Y64540D01*
X333043Y64533D01*
X333130Y64458D01*
X333216Y64381D01*
X333224Y64378D01*
X333230Y64373D01*
X333337Y64330D01*
X333442Y64285D01*
X333450Y64284D01*
X333458Y64281D01*
X333624Y64263D01*
X334598Y64263D01*
X335789Y63072D01*
X335789Y42592D01*
X334598Y41401D01*
X314118Y41401D01*
X312927Y42592D01*
X312927Y63072D01*
X314118Y64263D01*
X323216Y64263D01*
X323243Y64267D01*
X323271Y64265D01*
X323364Y64287D01*
X323459Y64302D01*
X323483Y64315D01*
X323510Y64322D01*
X323591Y64373D01*
X323676Y64418D01*
X323695Y64438D01*
X323719Y64453D01*
X323832Y64577D01*
X327982Y70290D01*
X334231Y74830D01*
X341578Y77217D01*
X411051Y77217D01*
X418707Y74046D01*
X424566Y68187D01*
X427737Y60531D01*
X427737Y40145D01*
X425076Y31957D01*
X420016Y24992D01*
X413051Y19932D01*
X412515Y19758D01*
X412494Y19747D01*
X412470Y19742D01*
X412385Y19690D01*
X412296Y19645D01*
X412280Y19628D01*
X412259Y19615D01*
X412194Y19540D01*
X412125Y19468D01*
X412115Y19447D01*
X412099Y19428D01*
X412062Y19336D01*
X412019Y19246D01*
X412016Y19222D01*
X412007Y19200D01*
X411989Y19034D01*
X411989Y18300D01*
X410248Y14099D01*
X407033Y10884D01*
X402832Y9143D01*
X398284Y9143D01*
G37*
%LPD*%
%LPC*%
G36*
X401240Y292861D02*
X401240Y292861D01*
X400049Y294052D01*
X400049Y316056D01*
X401240Y317247D01*
X423244Y317247D01*
X424435Y316056D01*
X424435Y294052D01*
X423244Y292861D01*
X401240Y292861D01*
G37*
%LPD*%
%LPC*%
G36*
X122440Y152399D02*
X122440Y152399D01*
X118239Y154140D01*
X115024Y157355D01*
X113283Y161556D01*
X113283Y166104D01*
X115024Y170305D01*
X118239Y173520D01*
X122440Y175261D01*
X126988Y175261D01*
X131189Y173520D01*
X134404Y170305D01*
X136145Y166104D01*
X136145Y161556D01*
X134404Y157355D01*
X131189Y154140D01*
X126988Y152399D01*
X122440Y152399D01*
G37*
%LPD*%
%LPC*%
G36*
X122440Y126999D02*
X122440Y126999D01*
X118239Y128740D01*
X115024Y131955D01*
X113283Y136156D01*
X113283Y140704D01*
X115024Y144905D01*
X118239Y148120D01*
X122440Y149861D01*
X126988Y149861D01*
X131189Y148120D01*
X134404Y144905D01*
X136145Y140704D01*
X136145Y136156D01*
X134404Y131955D01*
X131189Y128740D01*
X126988Y126999D01*
X122440Y126999D01*
G37*
%LPD*%
%LPC*%
G36*
X347484Y41401D02*
X347484Y41401D01*
X343283Y43142D01*
X340068Y46357D01*
X338327Y50558D01*
X338327Y55106D01*
X340068Y59307D01*
X343283Y62522D01*
X347484Y64263D01*
X352032Y64263D01*
X356233Y62522D01*
X359448Y59307D01*
X361189Y55106D01*
X361189Y50558D01*
X359448Y46357D01*
X356233Y43142D01*
X352032Y41401D01*
X347484Y41401D01*
G37*
%LPD*%
%LPC*%
G36*
X398284Y41401D02*
X398284Y41401D01*
X394083Y43142D01*
X390868Y46357D01*
X389127Y50558D01*
X389127Y55106D01*
X390868Y59307D01*
X394083Y62522D01*
X398284Y64263D01*
X402832Y64263D01*
X407033Y62522D01*
X410248Y59307D01*
X411989Y55106D01*
X411989Y50558D01*
X410248Y46357D01*
X407033Y43142D01*
X402832Y41401D01*
X398284Y41401D01*
G37*
%LPD*%
%LPC*%
G36*
X122440Y253999D02*
X122440Y253999D01*
X118239Y255740D01*
X115024Y258955D01*
X113283Y263156D01*
X113283Y267704D01*
X115024Y271905D01*
X118239Y275120D01*
X122440Y276861D01*
X126988Y276861D01*
X131189Y275120D01*
X134404Y271905D01*
X136145Y267704D01*
X136145Y263156D01*
X134404Y258955D01*
X131189Y255740D01*
X126988Y253999D01*
X122440Y253999D01*
G37*
%LPD*%
%LPC*%
G36*
X122440Y279399D02*
X122440Y279399D01*
X118239Y281140D01*
X115024Y284355D01*
X113283Y288556D01*
X113283Y293104D01*
X115024Y297305D01*
X118239Y300520D01*
X122440Y302261D01*
X126988Y302261D01*
X131189Y300520D01*
X134404Y297305D01*
X136145Y293104D01*
X136145Y288556D01*
X134404Y284355D01*
X131189Y281140D01*
X126988Y279399D01*
X122440Y279399D01*
G37*
%LPD*%
%LPC*%
G36*
X122440Y101599D02*
X122440Y101599D01*
X118239Y103340D01*
X115024Y106555D01*
X113283Y110756D01*
X113283Y115304D01*
X115024Y119505D01*
X118239Y122720D01*
X122440Y124461D01*
X126988Y124461D01*
X131189Y122720D01*
X134404Y119505D01*
X136145Y115304D01*
X136145Y110756D01*
X134404Y106555D01*
X131189Y103340D01*
X126988Y101599D01*
X122440Y101599D01*
G37*
%LPD*%
%LPC*%
G36*
X351040Y101599D02*
X351040Y101599D01*
X346839Y103340D01*
X343624Y106555D01*
X341883Y110756D01*
X341883Y115304D01*
X343624Y119505D01*
X346839Y122720D01*
X351040Y124461D01*
X355588Y124461D01*
X359789Y122720D01*
X363004Y119505D01*
X364745Y115304D01*
X364745Y110756D01*
X363004Y106555D01*
X359789Y103340D01*
X355588Y101599D01*
X351040Y101599D01*
G37*
%LPD*%
%LPC*%
G36*
X351040Y126999D02*
X351040Y126999D01*
X346839Y128740D01*
X343624Y131955D01*
X341883Y136156D01*
X341883Y140704D01*
X343624Y144905D01*
X346839Y148120D01*
X351040Y149861D01*
X355588Y149861D01*
X359789Y148120D01*
X363004Y144905D01*
X364745Y140704D01*
X364745Y136156D01*
X363004Y131955D01*
X359789Y128740D01*
X355588Y126999D01*
X351040Y126999D01*
G37*
%LPD*%
%LPC*%
G36*
X351040Y177799D02*
X351040Y177799D01*
X346839Y179540D01*
X343624Y182755D01*
X341883Y186956D01*
X341883Y191504D01*
X343624Y195705D01*
X346839Y198920D01*
X351040Y200661D01*
X355588Y200661D01*
X359789Y198920D01*
X363004Y195705D01*
X364745Y191504D01*
X364745Y186956D01*
X363004Y182755D01*
X359789Y179540D01*
X355588Y177799D01*
X351040Y177799D01*
G37*
%LPD*%
%LPC*%
G36*
X351040Y152399D02*
X351040Y152399D01*
X346839Y154140D01*
X343624Y157355D01*
X341883Y161556D01*
X341883Y166104D01*
X343624Y170305D01*
X346839Y173520D01*
X351040Y175261D01*
X355588Y175261D01*
X359789Y173520D01*
X363004Y170305D01*
X364745Y166104D01*
X364745Y161556D01*
X363004Y157355D01*
X359789Y154140D01*
X355588Y152399D01*
X351040Y152399D01*
G37*
%LPD*%
%LPC*%
G36*
X351040Y228599D02*
X351040Y228599D01*
X346839Y230340D01*
X343624Y233555D01*
X341883Y237756D01*
X341883Y242304D01*
X343624Y246505D01*
X346839Y249720D01*
X351040Y251461D01*
X355588Y251461D01*
X359789Y249720D01*
X363004Y246505D01*
X364745Y242304D01*
X364745Y237756D01*
X363004Y233555D01*
X359789Y230340D01*
X355588Y228599D01*
X351040Y228599D01*
G37*
%LPD*%
%LPC*%
G36*
X122440Y228599D02*
X122440Y228599D01*
X118239Y230340D01*
X115024Y233555D01*
X113283Y237756D01*
X113283Y242304D01*
X115024Y246505D01*
X118239Y249720D01*
X122440Y251461D01*
X126988Y251461D01*
X131189Y249720D01*
X134404Y246505D01*
X136145Y242304D01*
X136145Y237756D01*
X134404Y233555D01*
X131189Y230340D01*
X126988Y228599D01*
X122440Y228599D01*
G37*
%LPD*%
%LPC*%
G36*
X351040Y203199D02*
X351040Y203199D01*
X346839Y204940D01*
X343624Y208155D01*
X341883Y212356D01*
X341883Y216904D01*
X343624Y221105D01*
X346839Y224320D01*
X351040Y226061D01*
X355588Y226061D01*
X359789Y224320D01*
X363004Y221105D01*
X364745Y216904D01*
X364745Y212356D01*
X363004Y208155D01*
X359789Y204940D01*
X355588Y203199D01*
X351040Y203199D01*
G37*
%LPD*%
%LPC*%
G36*
X413765Y271577D02*
X413765Y271577D01*
X413765Y282672D01*
X415216Y282442D01*
X417117Y281824D01*
X418899Y280917D01*
X420516Y279741D01*
X421929Y278328D01*
X423105Y276711D01*
X424012Y274929D01*
X424630Y273028D01*
X424860Y271577D01*
X413765Y271577D01*
G37*
%LPD*%
%LPC*%
G36*
X399624Y271577D02*
X399624Y271577D01*
X399854Y273028D01*
X400472Y274929D01*
X401379Y276711D01*
X402555Y278328D01*
X403968Y279741D01*
X405585Y280917D01*
X407367Y281824D01*
X409268Y282442D01*
X410719Y282672D01*
X410719Y271577D01*
X399624Y271577D01*
G37*
%LPD*%
%LPC*%
G36*
X413765Y268531D02*
X413765Y268531D01*
X424860Y268531D01*
X424630Y267080D01*
X424012Y265179D01*
X423105Y263397D01*
X421929Y261780D01*
X420516Y260367D01*
X418899Y259191D01*
X417117Y258284D01*
X415216Y257666D01*
X413765Y257436D01*
X413765Y268531D01*
G37*
%LPD*%
%LPC*%
G36*
X409268Y257666D02*
X409268Y257666D01*
X407367Y258284D01*
X405585Y259191D01*
X403968Y260367D01*
X402555Y261780D01*
X401379Y263397D01*
X400472Y265179D01*
X399854Y267080D01*
X399624Y268531D01*
X410719Y268531D01*
X410719Y257436D01*
X409268Y257666D01*
G37*
%LPD*%
%LPC*%
G36*
X376681Y22097D02*
X376681Y22097D01*
X376681Y32420D01*
X377954Y32219D01*
X379741Y31638D01*
X381415Y30785D01*
X382936Y29680D01*
X384264Y28352D01*
X385369Y26831D01*
X386222Y25157D01*
X386803Y23370D01*
X387004Y22097D01*
X376681Y22097D01*
G37*
%LPD*%
%LPC*%
G36*
X354837Y266953D02*
X354837Y266953D01*
X354837Y277276D01*
X356110Y277075D01*
X357897Y276494D01*
X359571Y275641D01*
X361092Y274536D01*
X362420Y273208D01*
X363525Y271687D01*
X364378Y270013D01*
X364959Y268226D01*
X365160Y266953D01*
X354837Y266953D01*
G37*
%LPD*%
%LPC*%
G36*
X376681Y54355D02*
X376681Y54355D01*
X376681Y64678D01*
X377954Y64477D01*
X379741Y63896D01*
X381415Y63043D01*
X382936Y61938D01*
X384264Y60610D01*
X385369Y59089D01*
X386222Y57415D01*
X386803Y55628D01*
X387004Y54355D01*
X376681Y54355D01*
G37*
%LPD*%
%LPC*%
G36*
X170179Y18541D02*
X170179Y18541D01*
X170179Y28864D01*
X171452Y28663D01*
X173239Y28082D01*
X174913Y27229D01*
X176434Y26124D01*
X177762Y24796D01*
X178867Y23275D01*
X179720Y21601D01*
X180301Y19814D01*
X180502Y18541D01*
X170179Y18541D01*
G37*
%LPD*%
%LPC*%
G36*
X156810Y18541D02*
X156810Y18541D01*
X157011Y19814D01*
X157592Y21601D01*
X158445Y23275D01*
X159550Y24796D01*
X160878Y26124D01*
X162399Y27229D01*
X164073Y28082D01*
X165860Y28663D01*
X167133Y28864D01*
X167133Y18541D01*
X156810Y18541D01*
G37*
%LPD*%
%LPC*%
G36*
X363312Y54355D02*
X363312Y54355D01*
X363513Y55628D01*
X364094Y57415D01*
X364947Y59089D01*
X366052Y60610D01*
X367380Y61938D01*
X368901Y63043D01*
X370575Y63896D01*
X372362Y64477D01*
X373635Y64678D01*
X373635Y54355D01*
X363312Y54355D01*
G37*
%LPD*%
%LPC*%
G36*
X341468Y266953D02*
X341468Y266953D01*
X341669Y268226D01*
X342250Y270013D01*
X343103Y271687D01*
X344208Y273208D01*
X345536Y274536D01*
X347057Y275641D01*
X348731Y276494D01*
X350518Y277075D01*
X351791Y277276D01*
X351791Y266953D01*
X341468Y266953D01*
G37*
%LPD*%
%LPC*%
G36*
X376681Y19051D02*
X376681Y19051D01*
X387004Y19051D01*
X386803Y17778D01*
X386222Y15991D01*
X385369Y14317D01*
X384264Y12796D01*
X382936Y11468D01*
X381415Y10363D01*
X379741Y9510D01*
X377954Y8929D01*
X376681Y8728D01*
X376681Y19051D01*
G37*
%LPD*%
%LPC*%
G36*
X363312Y22097D02*
X363312Y22097D01*
X363513Y23370D01*
X364094Y25157D01*
X364947Y26831D01*
X366052Y28352D01*
X367380Y29680D01*
X368901Y30785D01*
X370575Y31638D01*
X372362Y32219D01*
X373635Y32420D01*
X373635Y22097D01*
X363312Y22097D01*
G37*
%LPD*%
%LPC*%
G36*
X376681Y51309D02*
X376681Y51309D01*
X387004Y51309D01*
X386803Y50036D01*
X386222Y48249D01*
X385369Y46575D01*
X384264Y45054D01*
X382936Y43726D01*
X381415Y42621D01*
X379741Y41768D01*
X377954Y41187D01*
X376681Y40986D01*
X376681Y51309D01*
G37*
%LPD*%
%LPC*%
G36*
X354837Y263907D02*
X354837Y263907D01*
X365160Y263907D01*
X364959Y262634D01*
X364378Y260847D01*
X363525Y259173D01*
X362420Y257652D01*
X361092Y256324D01*
X359571Y255219D01*
X357897Y254366D01*
X356110Y253785D01*
X354837Y253584D01*
X354837Y263907D01*
G37*
%LPD*%
%LPC*%
G36*
X372362Y41187D02*
X372362Y41187D01*
X370575Y41768D01*
X368901Y42621D01*
X367380Y43726D01*
X366052Y45054D01*
X364947Y46575D01*
X364094Y48249D01*
X363513Y50036D01*
X363312Y51309D01*
X373635Y51309D01*
X373635Y40986D01*
X372362Y41187D01*
G37*
%LPD*%
%LPC*%
G36*
X372362Y8929D02*
X372362Y8929D01*
X370575Y9510D01*
X368901Y10363D01*
X367380Y11468D01*
X366052Y12796D01*
X364947Y14317D01*
X364094Y15991D01*
X363513Y17778D01*
X363312Y19051D01*
X373635Y19051D01*
X373635Y8728D01*
X372362Y8929D01*
G37*
%LPD*%
%LPC*%
G36*
X350518Y253785D02*
X350518Y253785D01*
X348731Y254366D01*
X347057Y255219D01*
X345536Y256324D01*
X344208Y257652D01*
X343103Y259173D01*
X342250Y260847D01*
X341669Y262634D01*
X341468Y263907D01*
X351791Y263907D01*
X351791Y253584D01*
X350518Y253785D01*
G37*
%LPD*%
%LPC*%
G36*
X412241Y270053D02*
X412241Y270053D01*
X412241Y270055D01*
X412243Y270055D01*
X412243Y270053D01*
X412241Y270053D01*
G37*
%LPD*%
%LPC*%
G36*
X375157Y20573D02*
X375157Y20573D01*
X375157Y20575D01*
X375159Y20575D01*
X375159Y20573D01*
X375157Y20573D01*
G37*
%LPD*%
%LPC*%
G36*
X353313Y265429D02*
X353313Y265429D01*
X353313Y265431D01*
X353315Y265431D01*
X353315Y265429D01*
X353313Y265429D01*
G37*
%LPD*%
%LPC*%
G36*
X375157Y52831D02*
X375157Y52831D01*
X375157Y52833D01*
X375159Y52833D01*
X375159Y52831D01*
X375157Y52831D01*
G37*
%LPD*%
D10*
X324358Y52832D03*
D11*
X349758Y52832D03*
X375158Y52832D03*
X400558Y52832D03*
D10*
X244856Y17018D03*
D11*
X219456Y17018D03*
X194056Y17018D03*
X168656Y17018D03*
X124714Y113030D03*
X124714Y138430D03*
X124714Y163830D03*
X124714Y189230D03*
X124714Y214630D03*
X124714Y240030D03*
X124714Y265430D03*
X124714Y290830D03*
X353314Y290830D03*
X353314Y265430D03*
X353314Y240030D03*
X353314Y214630D03*
X353314Y189230D03*
X353314Y163830D03*
X353314Y138430D03*
X353314Y113030D03*
D12*
X71062Y46228D03*
X32062Y46228D03*
X71062Y58928D03*
X32062Y58928D03*
X71062Y71628D03*
X32062Y71628D03*
X71062Y84328D03*
X32062Y84328D03*
X71062Y97028D03*
X32062Y97028D03*
D11*
X400558Y20574D03*
X375158Y20574D03*
X349758Y20574D03*
D13*
X412242Y305054D03*
D14*
X412242Y270054D03*
D15*
X71062Y58928D02*
X32062Y58928D01*
D16*
X168656Y18034D02*
X168656Y17018D01*
X168661Y17472D01*
X168678Y17926D01*
X168705Y18379D01*
X168744Y18832D01*
X168793Y19284D01*
X168853Y19734D01*
X168924Y20182D01*
X169006Y20629D01*
X169099Y21074D01*
X169202Y21516D01*
X169316Y21956D01*
X169441Y22393D01*
X169576Y22826D01*
X169722Y23257D01*
X169877Y23683D01*
X170044Y24106D01*
X170220Y24524D01*
X170406Y24939D01*
X170603Y25348D01*
X170809Y25753D01*
X171025Y26153D01*
X171250Y26547D01*
X171485Y26936D01*
X171730Y27318D01*
X171983Y27695D01*
X172246Y28066D01*
X172517Y28430D01*
X172797Y28788D01*
X173086Y29138D01*
X173383Y29482D01*
X173688Y29818D01*
X174002Y30147D01*
X174323Y30468D01*
X174652Y30782D01*
X174988Y31087D01*
X175332Y31384D01*
X175682Y31673D01*
X176040Y31953D01*
X176404Y32224D01*
X176775Y32487D01*
X177152Y32740D01*
X177534Y32985D01*
X177923Y33220D01*
X178317Y33445D01*
X178717Y33661D01*
X179122Y33867D01*
X179531Y34064D01*
X179946Y34250D01*
X180364Y34426D01*
X180787Y34593D01*
X181213Y34748D01*
X181644Y34894D01*
X182077Y35029D01*
X182514Y35154D01*
X182954Y35268D01*
X183396Y35371D01*
X183841Y35464D01*
X184288Y35546D01*
X184736Y35617D01*
X185186Y35677D01*
X185638Y35726D01*
X186091Y35765D01*
X186544Y35792D01*
X186998Y35809D01*
X187452Y35814D01*
X358140Y35814D02*
X358551Y35819D01*
X358962Y35834D01*
X359373Y35859D01*
X359782Y35893D01*
X360191Y35938D01*
X360599Y35993D01*
X361005Y36057D01*
X361410Y36131D01*
X361812Y36215D01*
X362213Y36309D01*
X362611Y36412D01*
X363006Y36525D01*
X363399Y36647D01*
X363788Y36779D01*
X364175Y36920D01*
X364557Y37070D01*
X364936Y37230D01*
X365311Y37399D01*
X365682Y37577D01*
X366049Y37763D01*
X366410Y37959D01*
X366767Y38163D01*
X367119Y38376D01*
X367466Y38597D01*
X367807Y38826D01*
X368143Y39064D01*
X368473Y39310D01*
X368796Y39564D01*
X369114Y39825D01*
X369425Y40094D01*
X369730Y40370D01*
X370027Y40654D01*
X370318Y40945D01*
X370602Y41242D01*
X370878Y41547D01*
X371147Y41858D01*
X371408Y42176D01*
X371662Y42499D01*
X371908Y42829D01*
X372146Y43165D01*
X372375Y43506D01*
X372596Y43853D01*
X372809Y44205D01*
X373013Y44562D01*
X373209Y44923D01*
X373395Y45290D01*
X373573Y45661D01*
X373742Y46036D01*
X373902Y46415D01*
X374052Y46797D01*
X374193Y47184D01*
X374325Y47573D01*
X374447Y47966D01*
X374560Y48361D01*
X374663Y48759D01*
X374757Y49160D01*
X374841Y49562D01*
X374915Y49967D01*
X374979Y50373D01*
X375034Y50781D01*
X375079Y51190D01*
X375113Y51599D01*
X375138Y52010D01*
X375153Y52421D01*
X375158Y52832D01*
X358140Y35814D02*
X187452Y35814D01*
X126746Y58928D02*
X71062Y58928D01*
X126746Y58928D02*
X127759Y58916D01*
X128771Y58879D01*
X129782Y58818D01*
X130791Y58732D01*
X131798Y58622D01*
X132802Y58488D01*
X133802Y58330D01*
X134798Y58147D01*
X135790Y57941D01*
X136776Y57710D01*
X137756Y57456D01*
X138730Y57178D01*
X139697Y56877D01*
X140656Y56552D01*
X141607Y56205D01*
X142550Y55834D01*
X143483Y55441D01*
X144407Y55025D01*
X145320Y54587D01*
X146223Y54127D01*
X147114Y53646D01*
X147993Y53143D01*
X148859Y52619D01*
X149713Y52074D01*
X150554Y51509D01*
X151380Y50924D01*
X152192Y50319D01*
X152989Y49694D01*
X153771Y49050D01*
X154537Y48388D01*
X155287Y47707D01*
X156021Y47009D01*
X156737Y46293D01*
X157435Y45559D01*
X158116Y44809D01*
X158778Y44043D01*
X159422Y43261D01*
X160047Y42464D01*
X160652Y41652D01*
X161237Y40826D01*
X161802Y39985D01*
X162347Y39131D01*
X162871Y38265D01*
X163374Y37386D01*
X163855Y36495D01*
X164315Y35592D01*
X164753Y34679D01*
X165169Y33755D01*
X165562Y32822D01*
X165933Y31879D01*
X166280Y30928D01*
X166605Y29969D01*
X166906Y29002D01*
X167184Y28028D01*
X167438Y27048D01*
X167669Y26062D01*
X167875Y25070D01*
X168058Y24074D01*
X168216Y23074D01*
X168350Y22070D01*
X168460Y21063D01*
X168546Y20054D01*
X168607Y19043D01*
X168644Y18031D01*
X168656Y17018D01*
D15*
X375158Y20574D02*
X375158Y52832D01*
X358700Y270816D02*
X412242Y270054D01*
X358700Y270816D02*
X353314Y265430D01*
X349758Y20574D02*
X248412Y20574D01*
X248296Y20572D01*
X248179Y20566D01*
X248063Y20557D01*
X247948Y20544D01*
X247833Y20527D01*
X247718Y20506D01*
X247605Y20481D01*
X247492Y20453D01*
X247380Y20421D01*
X247269Y20385D01*
X247159Y20346D01*
X247051Y20303D01*
X246944Y20257D01*
X246839Y20207D01*
X246736Y20154D01*
X246634Y20098D01*
X246534Y20038D01*
X246436Y19975D01*
X246341Y19908D01*
X246247Y19839D01*
X246156Y19767D01*
X246067Y19692D01*
X245981Y19613D01*
X245898Y19532D01*
X245817Y19449D01*
X245738Y19363D01*
X245663Y19274D01*
X245591Y19183D01*
X245522Y19089D01*
X245455Y18994D01*
X245392Y18896D01*
X245332Y18796D01*
X245276Y18694D01*
X245223Y18591D01*
X245173Y18486D01*
X245127Y18379D01*
X245084Y18271D01*
X245045Y18161D01*
X245009Y18050D01*
X244977Y17938D01*
X244949Y17825D01*
X244924Y17712D01*
X244903Y17597D01*
X244886Y17482D01*
X244873Y17367D01*
X244864Y17251D01*
X244858Y17134D01*
X244856Y17018D01*
X34036Y46228D02*
X32062Y46228D01*
X34036Y46228D02*
X71062Y46228D01*
X6350Y44196D02*
X6350Y243078D01*
X6383Y245846D01*
X6484Y248612D01*
X6651Y251376D01*
X6885Y254134D01*
X7185Y256886D01*
X7552Y259630D01*
X7985Y262364D01*
X8484Y265087D01*
X9049Y267797D01*
X9679Y270493D01*
X10374Y273172D01*
X11133Y275834D01*
X11957Y278477D01*
X12844Y281099D01*
X13794Y283699D01*
X14807Y286276D01*
X15882Y288827D01*
X17018Y291351D01*
X18215Y293847D01*
X19471Y296314D01*
X20787Y298749D01*
X22162Y301152D01*
X23594Y303521D01*
X25083Y305855D01*
X26628Y308152D01*
X28228Y310411D01*
X29882Y312631D01*
X31589Y314810D01*
X33349Y316947D01*
X35159Y319041D01*
X37020Y321091D01*
X38929Y323095D01*
X40887Y325053D01*
X42891Y326962D01*
X44941Y328823D01*
X47035Y330633D01*
X49172Y332393D01*
X51351Y334100D01*
X53571Y335754D01*
X55830Y337354D01*
X58127Y338899D01*
X60461Y340388D01*
X62830Y341820D01*
X65233Y343195D01*
X67668Y344511D01*
X70135Y345767D01*
X72631Y346964D01*
X75155Y348100D01*
X77706Y349175D01*
X80283Y350188D01*
X82883Y351138D01*
X85505Y352025D01*
X88148Y352849D01*
X90810Y353608D01*
X93489Y354303D01*
X96185Y354933D01*
X98895Y355498D01*
X101618Y355997D01*
X104352Y356430D01*
X107096Y356797D01*
X109848Y357097D01*
X112606Y357331D01*
X115370Y357498D01*
X118136Y357599D01*
X120904Y357632D01*
X304292Y357632D02*
X305689Y357400D01*
X307079Y357135D01*
X308463Y356836D01*
X309840Y356503D01*
X311208Y356138D01*
X312566Y355739D01*
X313915Y355308D01*
X315253Y354845D01*
X316579Y354349D01*
X317893Y353821D01*
X319194Y353262D01*
X320480Y352672D01*
X321753Y352050D01*
X323009Y351398D01*
X324250Y350716D01*
X325474Y350004D01*
X326680Y349263D01*
X327868Y348492D01*
X329037Y347694D01*
X330187Y346867D01*
X331316Y346013D01*
X332424Y345131D01*
X333510Y344223D01*
X334574Y343290D01*
X335616Y342330D01*
X336634Y341346D01*
X337628Y340338D01*
X338597Y339305D01*
X339541Y338250D01*
X340459Y337172D01*
X341351Y336073D01*
X342216Y334952D01*
X343053Y333810D01*
X343863Y332649D01*
X344645Y331468D01*
X345397Y330269D01*
X346121Y329052D01*
X346815Y327818D01*
X347479Y326567D01*
X348112Y325301D01*
X348715Y324020D01*
X349287Y322725D01*
X349827Y321416D01*
X350335Y320095D01*
X350812Y318761D01*
X351255Y317417D01*
X351667Y316062D01*
X352045Y314698D01*
X352391Y313325D01*
X352703Y311944D01*
X352981Y310555D01*
X353226Y309161D01*
X353438Y307761D01*
X353615Y306356D01*
X353758Y304948D01*
X353868Y303536D01*
X353943Y302122D01*
X353984Y300707D01*
X353990Y299291D01*
X353963Y297875D01*
X353901Y296461D01*
X353805Y295048D01*
X353676Y293638D01*
X353512Y292232D01*
X353314Y290830D01*
X304292Y357632D02*
X120904Y357632D01*
D16*
X32004Y44196D02*
X6350Y44196D01*
X32004Y44196D02*
X32093Y44198D01*
X32181Y44204D01*
X32269Y44213D01*
X32357Y44227D01*
X32444Y44244D01*
X32530Y44265D01*
X32615Y44290D01*
X32699Y44319D01*
X32782Y44351D01*
X32863Y44386D01*
X32942Y44426D01*
X33020Y44468D01*
X33096Y44514D01*
X33170Y44563D01*
X33241Y44616D01*
X33310Y44671D01*
X33377Y44730D01*
X33441Y44791D01*
X33502Y44855D01*
X33561Y44922D01*
X33616Y44991D01*
X33669Y45062D01*
X33718Y45136D01*
X33764Y45212D01*
X33806Y45290D01*
X33846Y45369D01*
X33881Y45450D01*
X33913Y45533D01*
X33942Y45617D01*
X33967Y45702D01*
X33988Y45788D01*
X34005Y45875D01*
X34019Y45963D01*
X34028Y46051D01*
X34034Y46139D01*
X34036Y46228D01*
D15*
X324358Y52832D02*
X324364Y53341D01*
X324383Y53851D01*
X324413Y54359D01*
X324456Y54867D01*
X324512Y55373D01*
X324579Y55878D01*
X324659Y56381D01*
X324751Y56882D01*
X324855Y57381D01*
X324971Y57877D01*
X325098Y58370D01*
X325238Y58860D01*
X325390Y59347D01*
X325553Y59829D01*
X325728Y60308D01*
X325914Y60782D01*
X326112Y61251D01*
X326321Y61716D01*
X326542Y62175D01*
X326773Y62629D01*
X327015Y63078D01*
X327268Y63520D01*
X327532Y63956D01*
X327806Y64385D01*
X328090Y64808D01*
X328384Y65224D01*
X328689Y65632D01*
X329003Y66033D01*
X329327Y66427D01*
X329660Y66812D01*
X330002Y67189D01*
X330354Y67558D01*
X330714Y67918D01*
X331083Y68270D01*
X331460Y68612D01*
X331845Y68945D01*
X332239Y69269D01*
X332640Y69583D01*
X333048Y69888D01*
X333464Y70182D01*
X333887Y70466D01*
X334316Y70740D01*
X334752Y71004D01*
X335194Y71257D01*
X335643Y71499D01*
X336097Y71730D01*
X336556Y71951D01*
X337021Y72160D01*
X337490Y72358D01*
X337964Y72544D01*
X338443Y72719D01*
X338925Y72882D01*
X339412Y73034D01*
X339902Y73174D01*
X340395Y73301D01*
X340891Y73417D01*
X341390Y73521D01*
X341891Y73613D01*
X342394Y73693D01*
X342899Y73760D01*
X343405Y73816D01*
X343913Y73859D01*
X344421Y73889D01*
X344931Y73908D01*
X345440Y73914D01*
X406908Y73914D02*
X407331Y73909D01*
X407755Y73894D01*
X408177Y73868D01*
X408600Y73832D01*
X409021Y73786D01*
X409440Y73730D01*
X409859Y73664D01*
X410275Y73587D01*
X410690Y73501D01*
X411102Y73405D01*
X411512Y73298D01*
X411919Y73182D01*
X412324Y73056D01*
X412725Y72920D01*
X413123Y72775D01*
X413517Y72620D01*
X413907Y72456D01*
X414293Y72282D01*
X414675Y72099D01*
X415053Y71907D01*
X415425Y71705D01*
X415793Y71495D01*
X416155Y71276D01*
X416512Y71048D01*
X416864Y70812D01*
X417210Y70567D01*
X417549Y70314D01*
X417883Y70053D01*
X418210Y69783D01*
X418530Y69506D01*
X418843Y69222D01*
X419150Y68930D01*
X419450Y68630D01*
X419742Y68323D01*
X420026Y68010D01*
X420303Y67690D01*
X420573Y67363D01*
X420834Y67029D01*
X421087Y66690D01*
X421332Y66344D01*
X421568Y65992D01*
X421796Y65635D01*
X422015Y65273D01*
X422225Y64905D01*
X422427Y64533D01*
X422619Y64155D01*
X422802Y63773D01*
X422976Y63387D01*
X423140Y62997D01*
X423295Y62603D01*
X423440Y62205D01*
X423576Y61804D01*
X423702Y61399D01*
X423818Y60992D01*
X423925Y60582D01*
X424021Y60170D01*
X424107Y59755D01*
X424184Y59339D01*
X424250Y58920D01*
X424306Y58501D01*
X424352Y58080D01*
X424388Y57657D01*
X424414Y57235D01*
X424429Y56811D01*
X424434Y56388D01*
X424434Y44450D01*
X424427Y43873D01*
X424406Y43296D01*
X424371Y42721D01*
X424323Y42146D01*
X424260Y41572D01*
X424183Y41000D01*
X424093Y40430D01*
X423989Y39863D01*
X423872Y39298D01*
X423740Y38736D01*
X423595Y38178D01*
X423437Y37623D01*
X423265Y37072D01*
X423081Y36525D01*
X422882Y35983D01*
X422671Y35446D01*
X422447Y34915D01*
X422211Y34389D01*
X421961Y33868D01*
X421699Y33354D01*
X421425Y32847D01*
X421138Y32346D01*
X420840Y31852D01*
X420530Y31366D01*
X420208Y30887D01*
X419874Y30416D01*
X419529Y29953D01*
X419174Y29499D01*
X418807Y29054D01*
X418429Y28617D01*
X418042Y28190D01*
X417644Y27772D01*
X417236Y27364D01*
X416818Y26966D01*
X416391Y26579D01*
X415954Y26201D01*
X415509Y25834D01*
X415055Y25479D01*
X414592Y25134D01*
X414121Y24800D01*
X413642Y24478D01*
X413156Y24168D01*
X412662Y23870D01*
X412161Y23583D01*
X411654Y23309D01*
X411140Y23047D01*
X410619Y22797D01*
X410093Y22561D01*
X409562Y22337D01*
X409025Y22126D01*
X408483Y21927D01*
X407936Y21743D01*
X407385Y21571D01*
X406830Y21413D01*
X406272Y21268D01*
X405710Y21136D01*
X405145Y21019D01*
X404578Y20915D01*
X404008Y20825D01*
X403436Y20748D01*
X402862Y20685D01*
X402287Y20637D01*
X401712Y20602D01*
X401135Y20581D01*
X400558Y20574D01*
X406908Y73914D02*
X345440Y73914D01*
D16*
X32062Y84328D02*
X31300Y83566D01*
X32062Y84328D02*
X16764Y84328D01*
X15240Y88138D01*
X16002Y123698D01*
X124714Y214630D01*
D15*
X124714Y189230D02*
X118110Y189230D01*
X41743Y130643D02*
X32824Y119434D01*
X32062Y97028D01*
X41743Y130643D02*
X118110Y189230D01*
D16*
X71062Y97028D02*
X71064Y96924D01*
X71070Y96819D01*
X71080Y96715D01*
X71093Y96612D01*
X71111Y96509D01*
X71132Y96406D01*
X71157Y96305D01*
X71186Y96204D01*
X71219Y96105D01*
X71255Y96007D01*
X71295Y95911D01*
X71339Y95816D01*
X71386Y95722D01*
X71436Y95631D01*
X71490Y95542D01*
X71547Y95454D01*
X71608Y95369D01*
X71672Y95286D01*
X71738Y95206D01*
X71808Y95128D01*
X71880Y95052D01*
X71956Y94980D01*
X72034Y94910D01*
X72114Y94844D01*
X72197Y94780D01*
X72282Y94719D01*
X72370Y94662D01*
X72459Y94608D01*
X72550Y94558D01*
X72644Y94511D01*
X72739Y94467D01*
X72835Y94427D01*
X72933Y94391D01*
X73032Y94358D01*
X73133Y94329D01*
X73234Y94304D01*
X73337Y94283D01*
X73440Y94265D01*
X73543Y94252D01*
X73647Y94242D01*
X73752Y94236D01*
X73856Y94234D01*
M02*
